<svg width="33" height="38" viewBox="0 0 33 38" fill="none" xmlns="http://www.w3.org/2000/svg">
<path d="M13.0927 16.2632C12.0404 16.2632 11.2095 17.1863 11.2095 18.3125C11.2095 19.4388 12.0588 20.3619 13.0927 20.3619C14.1451 20.3619 14.9759 19.4388 14.9759 18.3125C14.9944 17.1863 14.1451 16.2632 13.0927 16.2632ZM19.8316 16.2632C18.7793 16.2632 17.9484 17.1863 17.9484 18.3125C17.9484 19.4388 18.7977 20.3619 19.8316 20.3619C20.884 20.3619 21.7148 19.4388 21.7148 18.3125C21.7148 17.1863 20.884 16.2632 19.8316 16.2632Z" fill="#8D8D8D"/>
<path d="M28.8045 0.772949H4.06441C1.97811 0.772949 0.279541 2.47152 0.279541 4.57628V29.5379C0.279541 31.6427 1.97811 33.3412 4.06441 33.3412H25.0012L24.0226 29.9256L26.3859 32.1227L28.6199 34.1905L32.5894 37.6985V4.57628C32.5894 2.47152 30.8908 0.772949 28.8045 0.772949ZM21.6779 24.8853C21.6779 24.8853 21.0132 24.0914 20.4593 23.3898C22.8779 22.7067 23.8011 21.1928 23.8011 21.1928C23.0441 21.6912 22.3241 22.042 21.6779 22.2821C20.7547 22.6698 19.8685 22.9283 19.0008 23.076C17.2283 23.4083 15.6036 23.316 14.2189 23.0575C13.1665 22.8544 12.2619 22.559 11.5049 22.2636C11.0803 22.0974 10.6187 21.8943 10.1571 21.6359C10.1017 21.5989 10.0463 21.5805 9.99095 21.5435C9.95402 21.5251 9.93556 21.5066 9.9171 21.4882C9.58477 21.3035 9.40014 21.1743 9.40014 21.1743C9.40014 21.1743 10.2864 22.6513 12.6311 23.3529C12.0772 24.0545 11.3941 24.8853 11.3941 24.8853C7.31385 24.7561 5.76298 22.079 5.76298 22.079C5.76298 16.134 8.42161 11.3152 8.42161 11.3152C11.0803 9.3212 13.6096 9.37659 13.6096 9.37659L13.7943 9.59815C10.471 10.5582 8.93857 12.0168 8.93857 12.0168C8.93857 12.0168 9.34475 11.7952 10.0279 11.4813C12.0034 10.6136 13.5727 10.3736 14.2189 10.3182C14.3297 10.2997 14.422 10.2813 14.5328 10.2813C15.659 10.1336 16.9329 10.0966 18.2623 10.2443C20.0162 10.4474 21.8994 10.9644 23.8195 12.0168C23.8195 12.0168 22.361 10.6321 19.2223 9.672L19.4808 9.37659C19.4808 9.37659 22.0102 9.3212 24.6688 11.3152C24.6688 11.3152 27.3275 16.134 27.3275 22.079C27.3275 22.079 25.7581 24.7561 21.6779 24.8853Z" fill="#8D8D8D"/>
</svg>
