<svg width="29" height="32" viewBox="0 0 29 32" fill="none" xmlns="http://www.w3.org/2000/svg">
<path d="M11.7707 13.424C10.8587 13.424 10.1387 14.224 10.1387 15.2C10.1387 16.176 10.8747 16.976 11.7707 16.976C12.6827 16.976 13.4027 16.176 13.4027 15.2C13.4187 14.224 12.6827 13.424 11.7707 13.424ZM17.6107 13.424C16.6987 13.424 15.9787 14.224 15.9787 15.2C15.9787 16.176 16.7147 16.976 17.6107 16.976C18.5227 16.976 19.2427 16.176 19.2427 15.2C19.2427 14.224 18.5227 13.424 17.6107 13.424Z" fill="#8D8D8D"/>
<path d="M25.3866 0L3.94663 0C2.13863 0 0.666626 1.472 0.666626 3.296V24.928C0.666626 26.752 2.13863 28.224 3.94663 28.224H22.0906L21.2426 25.264L23.2906 27.168L25.2266 28.96L28.6666 32V3.296C28.6666 1.472 27.1946 0 25.3866 0ZM19.2106 20.896C19.2106 20.896 18.6346 20.208 18.1546 19.6C20.2506 19.008 21.0506 17.696 21.0506 17.696C20.3946 18.128 19.7706 18.432 19.2106 18.64C18.4106 18.976 17.6426 19.2 16.8906 19.328C15.3546 19.616 13.9466 19.536 12.7466 19.312C11.8346 19.136 11.0506 18.88 10.3946 18.624C10.0266 18.48 9.62663 18.304 9.22663 18.08C9.17863 18.048 9.13063 18.032 9.08263 18C9.05063 17.984 9.03463 17.968 9.01863 17.952C8.73063 17.792 8.57063 17.68 8.57063 17.68C8.57063 17.68 9.33863 18.96 11.3706 19.568C10.8906 20.176 10.2986 20.896 10.2986 20.896C6.76263 20.784 5.41863 18.464 5.41863 18.464C5.41863 13.312 7.72263 9.136 7.72263 9.136C10.0266 7.408 12.2186 7.456 12.2186 7.456L12.3786 7.648C9.49863 8.48 8.17063 9.744 8.17063 9.744C8.17063 9.744 8.52263 9.552 9.11463 9.28C10.8266 8.528 12.1866 8.32 12.7466 8.272C12.8426 8.256 12.9226 8.24 13.0186 8.24C13.9946 8.112 15.0986 8.08 16.2506 8.208C17.7706 8.384 19.4026 8.832 21.0666 9.744C21.0666 9.744 19.8026 8.544 17.0826 7.712L17.3066 7.456C17.3066 7.456 19.4986 7.408 21.8026 9.136C21.8026 9.136 24.1066 13.312 24.1066 18.464C24.1066 18.464 22.7466 20.784 19.2106 20.896Z" fill="#8D8D8D"/>
</svg>
