<svg width="33" height="32" viewBox="0 0 33 32" fill="none" xmlns="http://www.w3.org/2000/svg">
<path fill-rule="evenodd" clip-rule="evenodd" d="M16.3413 9.08088e-07C12.5404 -0.001295 8.86311 1.38447 5.96786 3.90918C3.07261 6.43389 1.14844 9.93268 0.539864 13.7791C-0.0687144 17.6256 0.678034 21.5686 2.64641 24.9021C4.61479 28.2356 7.67626 30.742 11.2827 31.9725C12.0777 32.1246 12.3744 31.6166 12.3744 31.1819C12.3744 30.7907 12.3612 29.5003 12.3533 28.1284C7.90147 29.12 6.96341 26.1941 6.96341 26.1941C6.2347 24.2924 5.18535 23.7926 5.18535 23.7926C3.73322 22.7738 5.29399 22.7956 5.29399 22.7956C6.90246 22.9124 7.74777 24.4853 7.74777 24.4853C9.17605 26.9928 11.492 26.2702 12.4036 25.8437C12.5493 24.7842 12.9627 24.0615 13.4211 23.6513C9.87827 23.2411 6.1287 21.8339 6.1287 15.5475C6.10492 13.9147 6.69623 12.3354 7.77957 11.1383C7.61263 10.7254 7.06411 9.05737 7.93326 6.79167C7.93326 6.79167 9.27675 6.35157 12.3347 8.47329C14.9585 7.73796 17.7267 7.73796 20.3506 8.47329C23.3926 6.36244 24.7467 6.79167 24.7467 6.79167C25.6159 9.05194 25.07 10.72 24.903 11.1383C25.9834 12.3348 26.5727 13.9118 26.5486 15.5421C26.5486 21.8447 22.807 23.2302 19.2429 23.6377C19.8153 24.1457 20.3267 25.1455 20.3267 26.675C20.3267 28.87 20.3108 30.6386 20.3108 31.1765C20.3108 31.6139 20.597 32.1246 21.4079 31.9643C25.0091 30.7291 28.0645 28.2213 30.028 24.889C31.9916 21.5567 32.7352 17.6172 32.1261 13.7745C31.517 9.93175 29.5949 6.43632 26.7032 3.91291C23.8115 1.3895 20.1387 0.00256627 16.3413 9.08088e-07Z" fill="#8D8D8D"/>
</svg>
