<svg width="40" height="39" viewBox="0 0 40 39" fill="none" xmlns="http://www.w3.org/2000/svg">
<path fill-rule="evenodd" clip-rule="evenodd" d="M19.7186 0.77295C15.0695 0.771404 10.5716 2.42473 7.03028 5.43692C3.48894 8.44911 1.13538 12.6235 0.390997 17.2126C-0.35339 21.8018 0.560001 26.506 2.96764 30.4832C5.37527 34.4603 9.11993 37.4507 13.5312 38.9188C14.5035 39.1003 14.8666 38.4942 14.8666 37.9756C14.8666 37.5088 14.8504 35.9693 14.8406 34.3324C9.39539 35.5155 8.248 32.0247 8.248 32.0247C7.35667 29.7558 6.07315 29.1595 6.07315 29.1595C4.29697 27.944 6.20604 27.9699 6.20604 27.9699C8.17346 28.1093 9.2074 29.986 9.2074 29.986C10.9544 32.9776 13.7872 32.1154 14.9022 31.6066C15.0805 30.3425 15.5861 29.4803 16.1468 28.9909C11.8133 28.5015 7.22702 26.8226 7.22702 19.3224C7.19793 17.3744 7.9212 15.4901 9.2463 14.0619C9.0421 13.5692 8.37117 11.5791 9.43429 8.87598C9.43429 8.87598 11.0776 8.3509 14.8179 10.8823C18.0273 10.005 21.4133 10.005 24.6226 10.8823C28.3435 8.36386 29.9998 8.87598 29.9998 8.87598C31.0629 11.5727 30.3952 13.5628 30.191 14.0619C31.5125 15.4893 32.2333 17.3709 32.2038 19.3159C32.2038 26.8355 27.6272 28.4885 23.2678 28.9747C23.9679 29.5808 24.5934 30.7736 24.5934 32.5984C24.5934 35.2173 24.574 37.3273 24.574 37.9691C24.574 38.4909 24.924 39.1003 25.9158 38.909C30.3207 37.4354 34.0579 34.4433 36.4597 30.4676C38.8614 26.4919 39.771 21.7917 39.026 17.207C38.281 12.6224 35.9298 8.45201 32.3928 5.44137C28.8558 2.43073 24.3635 0.776011 19.7186 0.77295Z" fill="#8D8D8D"/>
</svg>
