<svg width="39" height="39" viewBox="0 0 39 39" fill="none" xmlns="http://www.w3.org/2000/svg">
<path d="M19.5376 4.28859C24.535 4.28859 25.1271 4.24822 27.1007 4.3383C28.9255 4.42163 29.9165 4.72667 30.5761 4.98303C31.4496 5.32271 32.0732 5.72855 32.7281 6.38375C33.383 7.03896 33.7154 7.71098 34.0549 8.58494C34.3112 9.24483 34.5829 10.1785 34.6662 12.0041C34.7563 13.9787 34.7766 14.5766 34.7766 19.5764C34.7766 24.5762 34.7324 25.1863 34.6424 27.1607C34.5591 28.9864 34.174 29.7887 33.9177 30.4486C33.5782 31.3226 33.168 31.9267 32.5131 32.5819C31.8582 33.2371 31.2752 33.573 30.4017 33.9126C29.7421 34.169 28.8566 34.4081 27.0318 34.4914C25.0585 34.5815 24.5174 34.5928 19.5197 34.5928C14.5219 34.5928 13.9778 34.5337 12.0045 34.4436C10.1797 34.3603 9.2882 34.0616 8.62869 33.8052C7.75507 33.4656 7.22887 33.1864 6.57396 32.5312C5.91906 31.876 5.40437 31.4598 5.06492 30.5858C4.8086 29.9259 4.47125 28.9743 4.38796 27.1487C4.29792 25.1742 4.32235 24.5762 4.32235 19.5764C4.32235 14.5766 4.32178 13.9756 4.41182 12.0011C4.4951 10.1754 4.88614 9.22392 5.14246 8.56403C5.48191 7.69007 5.80866 7.14267 6.46357 6.48746C7.11847 5.83225 7.68046 5.46067 8.55408 5.12098C9.21359 4.86462 10.15 4.42163 11.9747 4.3383C13.9484 4.24822 14.5401 4.28859 19.5376 4.28859ZM19.5377 0.792758C14.4547 0.792758 12.9807 0.824283 10.9431 0.876974C8.95092 0.967952 8.12384 1.32511 6.93327 1.78803C5.70252 2.26656 4.77507 2.929 3.73458 3.96997C2.69409 5.01094 2.07787 6.02303 1.59957 7.25436C1.13686 8.44548 0.77301 9.91097 0.77301 11.8939C0.681925 13.891 0.589355 14.4948 0.589355 19.5802C0.589355 24.6656 0.628329 25.3004 0.719414 27.2976C0.81035 29.2907 1.18265 30.7766 1.64535 31.9677C2.12366 33.199 2.85466 34.3566 3.89515 35.3976C4.93564 36.4385 5.99318 37.0474 7.22394 37.5259C8.4145 37.9888 9.82316 38.2465 11.8154 38.3374C13.8116 38.4286 14.4547 38.4293 19.5377 38.4293C24.6208 38.4293 25.2387 38.4668 27.2349 38.3757C29.2271 38.2847 30.6817 38.0041 31.8722 37.5412C33.103 37.0627 34.2218 36.4156 35.2622 35.3746C36.3027 34.3336 36.9802 33.1837 37.4585 31.9524C37.9212 30.7613 38.2399 29.3213 38.3309 27.3282C38.4219 25.3311 38.438 24.6656 38.438 19.5802C38.438 14.4948 38.4296 13.8451 38.3385 11.8479C38.2476 9.8548 37.8982 8.36126 37.4355 7.17015C36.9572 5.93882 36.2951 4.90376 35.2546 3.86279C34.2141 2.82181 33.1489 2.15172 31.9182 1.67319C30.7276 1.21027 29.3497 0.914159 27.3575 0.823181C25.3613 0.732054 24.6208 0.792758 19.5377 0.792758ZM19.5377 9.96468C14.2297 9.96468 9.92668 14.2697 9.92668 19.5802C9.92668 24.8907 14.2297 29.1958 19.5377 29.1958C24.8458 29.1958 29.1488 24.8907 29.1488 19.5802C29.1488 14.2697 24.8458 9.96468 19.5377 9.96468ZM19.5377 25.8219C16.0922 25.8219 13.299 23.0274 13.299 19.5802C13.299 16.1331 16.0922 13.3385 19.5377 13.3385C22.9833 13.3385 25.7765 16.1331 25.7765 19.5802C25.7765 23.0274 22.9833 25.8219 19.5377 25.8219ZM31.7744 9.58479C31.7744 10.8258 30.769 11.8318 29.5285 11.8318C28.2881 11.8318 27.2825 10.8258 27.2825 9.58479C27.2825 8.3438 28.2881 7.33784 29.5285 7.33784C30.769 7.33784 31.7744 8.3438 31.7744 9.58479Z" fill="#8D8D8D"/>
</svg>
