<svg width="47" height="39" viewBox="0 0 47 39" fill="none" xmlns="http://www.w3.org/2000/svg">
<path d="M14.4933 38.2893C31.9036 38.2893 41.4304 23.8514 41.4304 11.3521C41.4304 10.9459 41.4304 10.5397 41.4119 10.1336C43.2582 8.80425 44.8645 7.12413 46.1384 5.22247C44.4398 5.97944 42.612 6.47794 40.6919 6.71796C42.649 5.5548 44.1444 3.69006 44.8645 1.47453C43.0367 2.56384 41.0058 3.33927 38.8456 3.76391C37.1101 1.91764 34.6546 0.772949 31.9406 0.772949C26.7156 0.772949 22.4692 5.01938 22.4692 10.2443C22.4692 10.9828 22.5615 11.7029 22.7092 12.4045C14.8441 12.0168 7.86513 8.2319 3.19406 2.50845C2.3817 3.91162 1.92013 5.53634 1.92013 7.27184C1.92013 10.5582 3.60024 13.4569 6.12963 15.1554C4.57876 15.1 3.1202 14.6754 1.84628 13.9738C1.84628 14.0107 1.84628 14.0477 1.84628 14.1031C1.84628 18.6818 5.11418 22.5221 9.43447 23.3898C8.64057 23.6114 7.80974 23.7221 6.94199 23.7221C6.33272 23.7221 5.74192 23.6668 5.16957 23.556C6.36965 27.3224 9.87757 30.0549 14.0132 30.1287C10.7638 32.6766 6.68352 34.1905 2.25246 34.1905C1.49548 34.1905 0.73851 34.1536 0 34.0613C4.17258 36.7199 9.15753 38.2893 14.4933 38.2893Z" fill="#8D8D8D"/>
</svg>
