<svg width="32" height="26" viewBox="0 0 32 26" fill="none" xmlns="http://www.w3.org/2000/svg">
<path d="M10.052 26C22.1273 26 28.7347 15.9941 28.7347 7.33169C28.7347 7.0502 28.7347 6.7687 28.7219 6.48721C30.0024 5.56595 31.1164 4.40157 32 3.08366C30.8219 3.60827 29.5542 3.95374 28.2225 4.12008C29.5798 3.31398 30.617 2.02165 31.1164 0.48622C29.8487 1.24114 28.4402 1.77854 26.942 2.07283C25.7383 0.793307 24.0352 0 22.1529 0C18.529 0 15.5838 2.94291 15.5838 6.56398C15.5838 7.07579 15.6479 7.5748 15.7503 8.06102C10.2953 7.79232 5.45498 5.16929 2.21529 1.20276C1.65186 2.1752 1.33173 3.30118 1.33173 4.50394C1.33173 6.7815 2.497 8.79035 4.2513 9.96752C3.17567 9.92913 2.16407 9.63484 1.28051 9.14862C1.28051 9.17421 1.28051 9.1998 1.28051 9.23819C1.28051 12.4114 3.54702 15.0728 6.54342 15.6742C5.9928 15.8278 5.41657 15.9045 4.81473 15.9045C4.39216 15.9045 3.98239 15.8661 3.58543 15.7894C4.41777 18.3996 6.85074 20.2933 9.71909 20.3445C7.46539 22.1102 4.63545 23.1594 1.56223 23.1594C1.03722 23.1594 0.512205 23.1339 0 23.0699C2.89396 24.9124 6.35134 26 10.052 26Z" fill="#8D8D8D"/>
</svg>
