<svg width="1920" height="668" fill="none" xmlns="http://www.w3.org/2000/svg"><path fill-rule="evenodd" clip-rule="evenodd" d="M64 154.115 0 116.087V668h1920V0l-64 39.03-2.82 1.678c-64.89 38.57-191.04 113.552-317.18 123.415-89.87 6.324-179.74-19.914-269.62-46.151-38.12-11.131-76.25-22.262-114.38-30.907-128-29.021-256-29.021-384 19.014-45.85 17.207-91.7 40.577-137.549 63.947l-.003.002C548.298 211.9 466.149 253.772 384 260.195c-126.545 8.904-253.09-66.311-317.793-104.768L64 154.115Z" fill="url(#a)"/><defs><linearGradient id="a" x1="0" y1="821.614" x2="1920" y2="821.614" gradientUnits="userSpaceOnUse"><stop stop-color="#78ECF2"/><stop offset="1" stop-color="#71AFE5"/></linearGradient></defs></svg>