<svg width="1920" height="865" viewBox="0 0 1920 865" fill="none" xmlns="http://www.w3.org/2000/svg">
<path fill-rule="evenodd" clip-rule="evenodd" d="M0 0L80 67C160 134 320 268 480 355C640 441 800 480 960 403C1120 326 1280 134 1440 115C1600 96 1760 249 1840 326L1920 403V865H1840C1760 865 1600 865 1440 865C1280 865 1120 865 960 865C800 865 640 865 480 865C320 865 160 865 80 865H0V0Z" fill="url(#paint0_linear_2656:5174)"/>
<defs>
<linearGradient id="paint0_linear_2656:5174" x1="2.34967e-05" y1="1063.92" x2="1920" y2="1063.92" gradientUnits="userSpaceOnUse">
<stop stop-color="#8D8D8D"/>
<stop offset="1" stop-color="#424242"/>
</linearGradient>
</defs>
</svg>
