<svg width="550" height="250" viewBox="0 0 550 250" fill="none" xmlns="http://www.w3.org/2000/svg">
<g filter="url(#filter0_bd)">
<rect x="25" y="25" width="500" height="200" rx="25.3283" fill="url(#paint0_linear)" fill-opacity="0.65" shape-rendering="crispEdges"/>
</g>
<mask id="mask0" style="mask-type:alpha" maskUnits="userSpaceOnUse" x="25" y="25" width="500" height="200">
<rect x="25" y="25" width="500" height="200" rx="25.3283" fill="#181818"/>
</mask>
<g mask="url(#mask0)">
<path d="M253.613 104.274L310.599 93.5547M310.599 93.5547L329.88 89.9278M310.599 93.5547L303.236 105.929L268.959 112.377M268.959 112.377L278.132 116.147M268.959 112.377L258.248 114.392M278.132 116.147L287.304 119.916L317.298 114.274L321.469 107.262M278.132 116.147L267.087 134.709L204.961 146.395M258.248 114.392L225.685 120.517M258.248 114.392L250.885 126.767L177.189 140.629M177.189 140.629L174.735 144.754M177.189 140.629L132.201 149.092M174.735 144.754L169.827 153.004L151.403 156.47M174.735 144.754L204.699 157.068L235.119 151.345M259.113 146.832L251.75 159.207L193.48 170.168M180.276 161.662L149.856 167.384L132.122 160.097L78.1359 170.252M78.1359 170.252L60.569 173.556M78.1359 170.252L95.8694 177.539M279.251 143.044L286.368 131.082L327.072 123.425L344.806 130.712M-69.5957 219.655L-51.8623 226.942L-5.58844 218.238M-5.58844 218.238L-23.3219 210.95M-5.58844 218.238L12.7565 225.776L70.5988 214.896L77.4707 203.346M77.4707 203.346L91.1815 200.767L98.7897 187.98M77.4707 203.346L55.1907 207.537M98.7897 187.98L64.0843 194.508M98.7897 187.98L109.501 185.965L116.864 173.59L131.432 170.85M43.0897 198.457L35.9723 210.42L17.977 213.805L0.243505 206.517M0.243505 206.517L15.2397 203.696L22.6024 191.322M0.243505 206.517L-18.1014 198.978L-37.8107 202.686L-44.928 214.648M183.267 128.497L202.119 124.95L211.691 108.863M183.267 128.497L138.278 136.959M183.267 128.497L190.63 116.122M216.599 100.614L211.691 108.863M211.691 108.863L199.461 103.837L160.899 111.091M170.92 119.829L121.219 129.179L113.856 141.553M113.856 141.553L106.493 153.928M113.856 141.553L91.576 145.744L84.7041 157.294L60.7103 161.808L50.3148 157.536M50.3148 157.536L46.1426 164.548L6.29564 172.043M50.3148 157.536L43.5883 154.771M43.5883 154.771L69.7245 149.855M43.5883 154.771L33.7337 156.625L16.0003 149.338M16.0003 149.338L35.7095 145.63M16.0003 149.338L3.57488 151.675L-31.892 137.1M76.1601 181.247L40.1693 188.017L22.4359 180.73M22.4359 180.73L40.0028 177.425M22.4359 180.73L7.43973 183.55L-21.3007 171.74M-21.3007 171.74L-18.1101 166.377L10.5968 160.977M-21.3007 171.74L-24.9821 177.927L-55.8313 183.73M-34.9078 147.924L-102.176 160.578L-109.539 172.953M254.383 82.5164L292.944 75.2627L299.816 63.713L322.525 59.4414M234.674 86.2239L206.395 91.5433L188.662 84.2558L150.1 91.5096M181.973 96.1374L144.697 103.149L108.618 88.323L79.9113 93.723M45.9839 111.095L103.398 100.295L121.437 107.708M139.476 115.121L121.437 107.708M121.437 107.708L43.2427 122.417M117.625 119.231L103.057 121.972L95.9395 133.934L55.6642 141.51M76.9207 126.888L41.7869 133.497L28.9454 128.22M-9.61201 132.909L24.6649 126.461L28.9454 128.22M28.9454 128.22L24.2823 136.057L6.28694 139.442M128.354 182.419L172.485 174.117L179.212 176.881M179.212 176.881L190.219 181.405L218.925 176.005M179.212 176.881L174.794 184.306L109.668 196.557M218.925 176.005L237.778 172.458M218.925 176.005L211.563 188.379L161.433 197.809M161.433 197.809L92.4504 210.785M161.433 197.809L179.166 205.097L227.582 195.989L234.7 184.027L269.834 177.418L288.178 184.957M329.66 188.143L306.523 192.496L288.178 184.957M257.059 168.831L272.055 166.011L290.4 173.549L336.674 164.845M306.968 182.155L351.1 173.853M351.1 173.853L368.222 180.89L424.35 170.331M351.1 173.853L382.378 167.97M61.7677 227.18L120.467 216.138L129.945 220.034M158.704 220.302L139.423 223.929L129.945 220.034M129.945 220.034L126.141 226.427L115.429 228.442M61.2438 248.526L98.0915 241.594L104.718 230.457L115.429 228.442M115.429 228.442L131.94 235.227L176.928 226.764M81.581 234.809L25.4525 245.367L8.33059 238.331L39.6083 232.448M-0.289996 119.799L24.9892 115.044L32.352 102.669L60.6305 97.3499M44.6109 89.74L111.022 77.2474L129.979 85.0375L176.681 76.2524L184.289 63.4653L226.707 55.4861M181.798 52.9444L116.243 65.2757M116.243 65.2757L70.3975 73.8996M116.243 65.2757L134.588 72.8146L162.009 67.6563M51.9736 77.3653L27.9798 81.8788M27.9798 81.8788L-26.8633 92.1952M27.9798 81.8788L13.7451 105.803L-43.2403 116.523M195.596 71.9618L250.011 61.7259L267.744 69.0134M267.744 69.0134L272.029 68.2075L279.391 55.8328M267.744 69.0134L217.186 78.5239M1.33623 97.8803L-31.2268 104.006M-31.2268 104.006L-49.5718 96.4669L-82.9918 102.753M-31.2268 104.006L-95.9246 116.176M201.078 49.3175L232.784 43.3533L239.902 31.3911M239.902 31.3911L289.175 22.1224M239.902 31.3911L146.069 49.0419M188.565 30.0583L130.294 41.0195L123.423 52.5692L94.073 58.0901M109.3 44.9688L75.4514 51.336M75.4514 51.336L68.5795 62.8856L41.5864 67.9633M75.4514 51.336L68.596 52.6255M68.596 52.6255L-0.814772 65.6823M68.596 52.6255L61.258 49.61M14.3227 51.1125L49.0281 44.5841L61.258 49.61M61.258 49.61L65.4303 42.5977L102.706 35.5857M102.706 35.5857L122.844 31.7977M102.706 35.5857L83.75 27.7956L43.9031 35.2912M43.9031 35.2912L-25.9362 48.4285M43.9031 35.2912L50.7749 23.7415L128.755 9.07278M11.1032 74.4301L-33.4568 82.8122L-51.8017 75.2734M-51.8017 75.2734L-22.2379 69.7121M-51.8017 75.2734L-77.5094 80.1092L-70.1467 67.7345L-41.8682 62.4151M149.409 26.8006L192.255 18.7409L209.988 26.0284L266.117 15.4702M-12.3043 56.8539L-25.1582 59.2718L-52.6756 47.9636M-52.6756 47.9636L-49.4851 42.6012L4.07263 32.5266M-52.6756 47.9636L-56.6024 54.5634L-78.0255 58.5933M169.442 11.6762L194.293 7.00151L212.638 14.5403L249.057 7.68956M249.565 -3.39553L213.574 3.37464L196.452 -3.66159L154.891 4.15634L148.019 15.706L107.315 23.3628M288.178 184.957L264.613 189.39M240.661 205.984L248.76 192.372L264.613 189.39M240.661 205.984L234.034 217.121M240.661 205.984L274.293 219.805M221.26 208.534L179.27 216.433M179.27 216.433L160.925 208.894L140.359 212.763M179.27 216.433L197.615 223.972L212.183 221.232M231.876 227.784L250.728 224.238L268.461 231.525L292.884 226.931M292.884 226.931L309.594 223.788M292.884 226.931L285.276 239.719L262.996 243.91M115.658 238.29L134.615 246.08L209.596 231.975L227.329 239.263M206.455 244.288L185.46 248.238L178.589 259.787L157.165 263.817M157.165 263.817L126.316 269.62M157.165 263.817L153.852 269.386M153.852 269.386L150.539 274.954L123.117 280.113L105.078 272.699M153.852 269.386L163.33 273.281L211.747 264.173L230.092 271.712M58.7606 270.606L87.0391 265.286L105.078 272.699M105.078 272.699L97.3474 285.693M166.608 251.784L108.337 262.745L98.5534 258.724M36.0687 264.617L88.7694 254.704L98.5534 258.724M98.5534 258.724L102.48 252.125L114.049 249.948M264.613 189.39L283.569 197.18M350.226 184.275L343.6 195.412L278.474 207.663L260.74 200.375M383.996 188.912L365.572 192.378L358.7 203.927L315.854 211.987M315.854 211.987L297.002 215.533M315.854 211.987L333.588 219.275L379.433 210.651L388.605 214.42M426.913 212.709L397.778 218.19L388.605 214.42M388.605 214.42L384.924 220.607L346.791 227.781M328.979 231.498L307.984 235.447L300.621 247.822M300.621 247.822L323.33 243.55L341.675 251.089M300.621 247.822L239.78 259.266L221.435 251.728M341.675 251.089L311.682 256.73M341.675 251.089L373.809 245.044L390.931 252.08M221.435 251.728L198.726 255.999M221.435 251.728L242.858 247.698L249.73 236.148M180.39 281.061L214.239 274.694L232.583 282.233M290.076 260.428L248.944 268.166L241.827 280.128M174.313 293.194L156.579 285.907L90.1677 298.399M90.1677 298.399L54.1769 305.169M90.1677 298.399L71.2112 290.609M342.182 240.004L414.164 226.463M390.931 252.08L417.067 247.164M390.931 252.08L360.082 257.883M596.383 39.7963L653.368 29.0769M653.368 29.0769L672.649 25.45M653.368 29.0769L646.005 41.4516L611.728 47.8993M611.728 47.8993L620.901 51.6687M611.728 47.8993L601.017 49.9143M620.901 51.6687L630.073 55.4381M620.901 51.6687L609.857 70.2307L547.73 81.9173M601.017 49.9143L568.454 56.0397M601.017 49.9143L593.654 62.2889L519.959 76.1516M519.959 76.1516L517.505 80.2765M519.959 76.1516L474.97 84.6144M517.505 80.2765L512.596 88.5263L494.172 91.992M517.505 80.2765L547.468 92.5899L577.889 86.8675M601.883 82.3541L594.52 94.7287L536.249 105.69M523.046 97.184L492.625 102.906L474.891 95.6189L420.905 105.774M420.905 105.774L403.338 109.079M420.905 105.774L438.639 113.062M622.02 78.566L629.138 66.6038L669.841 58.9471L687.575 66.2346M273.174 155.177L290.907 162.464L337.181 153.76M337.181 153.76L319.447 146.472M337.181 153.76L355.526 161.299L413.368 150.418L420.24 138.868M420.24 138.868L433.951 136.289L441.559 123.502M420.24 138.868L397.96 143.059M441.559 123.502L406.854 130.03M441.559 123.502L452.271 121.487L459.633 109.112L474.201 106.372M385.859 133.98L378.742 145.942L360.746 149.327L343.013 142.039M343.013 142.039L358.009 139.218L365.372 126.844M343.013 142.039L324.668 134.501L304.959 138.208L297.841 150.17M526.036 64.0188L544.888 60.4725L554.46 44.3854M526.036 64.0188L481.048 72.4815M526.036 64.0188L533.399 51.6441M559.369 36.1357L554.46 44.3854M554.46 44.3854L542.23 39.3596L503.669 46.6133M513.69 55.3516L463.988 64.7009L456.625 77.0756M456.625 77.0756L449.263 89.4502M456.625 77.0756L434.345 81.2666L427.473 92.8163L403.48 97.3297L393.084 93.0577M393.084 93.0577L388.912 100.07L349.065 107.566M393.084 93.0577L386.358 90.2935M386.358 90.2935L412.494 85.3771M386.358 90.2935L376.503 92.1472L358.77 84.8597M358.77 84.8597L378.479 81.1522M358.77 84.8597L346.344 87.197L310.877 72.622M418.929 116.769L382.939 123.539L365.205 116.252M365.205 116.252L382.772 112.947M365.205 116.252L350.209 119.073L321.469 107.262M321.469 107.262L324.659 101.9L353.366 96.4995M307.862 83.4463L240.593 96.1001L233.23 108.475M597.152 18.0386L635.714 10.7849L642.586 -0.764817L665.294 -5.03648M577.443 21.7461L549.164 27.0655L531.431 19.778L492.869 27.0317M524.742 31.6596L487.466 38.6715L451.387 23.8452L422.681 29.2452M388.753 46.6169L446.167 35.8168L464.206 43.23M482.245 50.6432L464.206 43.23M464.206 43.23L386.012 57.939M460.394 54.7537L445.826 57.494L438.709 69.4561L398.433 77.0323M419.69 62.4104L384.556 69.0194L371.715 63.7422M333.157 68.4309L367.434 61.9831L371.715 63.7422M371.715 63.7422L367.052 71.5795L349.056 74.9646M471.123 117.941L515.254 109.639L521.981 112.403M521.981 112.403L532.988 116.927L561.695 111.527M521.981 112.403L517.563 119.828L452.437 132.079M561.695 111.527L580.547 107.98M561.695 111.527L554.332 123.901L504.202 133.331M504.202 133.331L435.22 146.307M504.202 133.331L521.935 140.619L570.352 131.511L577.469 119.549L612.603 112.94L630.948 120.479M672.43 123.666L649.293 128.018L630.948 120.479M599.828 104.354L614.824 101.533L633.169 109.071L679.443 100.367M650.046 116.52L694.177 108.219M404.537 162.702L463.236 151.661L472.714 155.556M501.473 155.824L482.193 159.451L472.714 155.556M472.714 155.556L468.91 161.949L458.199 163.964M404.013 184.048L440.861 177.116L447.487 165.979L458.199 163.964M458.199 163.964L474.709 170.749L519.698 162.286M342.479 55.3214L367.759 50.5661L375.121 38.1915L403.4 32.8721M387.38 25.2622L453.792 12.7696L472.748 20.5597L519.45 11.7746L527.059 -1.01255L569.476 -8.99168M524.567 -11.5335L459.012 0.797918M459.012 0.797918L413.167 9.42183M459.012 0.797918L477.357 8.33673L504.779 3.17851M394.743 12.8875L370.749 17.401M370.749 17.401L315.906 27.7174M370.749 17.401L356.514 41.3253L299.529 52.0447M538.365 7.48393L592.78 -2.75192L610.513 4.53561M610.513 4.53561L614.798 3.72963L622.161 -8.64503M610.513 4.53561L559.955 14.0461M344.106 33.4025L311.542 39.5279M311.542 39.5279L293.198 31.9891L259.778 38.2756M311.542 39.5279L246.845 51.6981M543.848 -15.1603L575.554 -21.1245L582.671 -33.0867M582.671 -33.0867L631.944 -42.3554M582.671 -33.0867L488.838 -15.4359M531.335 -34.4195L473.064 -23.4583L466.192 -11.9086L436.842 -6.38772M452.069 -19.509L418.221 -13.1419M418.221 -13.1419L411.349 -1.59218L384.356 3.48545M418.221 -13.1419L411.365 -11.8523M411.365 -11.8523L341.955 1.20446M411.365 -11.8523L404.027 -14.8678M357.092 -13.3653L391.797 -19.8937L404.027 -14.8678M404.027 -14.8678L408.2 -21.8801L445.476 -28.8921M445.476 -28.8921L465.613 -32.6802M445.476 -28.8921L426.519 -36.6822L386.672 -29.1867M386.672 -29.1867L316.833 -16.0493M386.672 -29.1867L393.544 -40.7363L471.524 -55.4051M353.873 9.95223L309.313 18.3344L290.968 10.7955M290.968 10.7955L320.531 5.23432M290.968 10.7955L265.26 15.6314L272.623 3.25671L300.901 -2.06271M492.178 -37.6772L535.024 -45.7369L552.758 -38.4494L608.886 -49.0076M330.465 -7.62392L317.611 -5.206L290.094 -16.5142M290.094 -16.5142L293.284 -21.8766L346.842 -31.9512M290.094 -16.5142L286.167 -9.91441L264.744 -5.88455M512.212 -52.8017L537.062 -57.4763L555.407 -49.9375L591.827 -56.7883M592.334 -67.8734L556.343 -61.1032L539.221 -68.1394L497.66 -60.3215L490.789 -48.7718L450.085 -41.1151M630.948 120.479L607.382 124.912M583.43 141.506L591.529 127.894L607.382 124.912M583.43 141.506L576.804 152.643M583.43 141.506L617.063 155.327M564.029 144.057L522.04 151.955M522.04 151.955L503.695 144.416L483.128 148.285M522.04 151.955L540.385 159.494L554.952 156.754M574.645 163.306L593.497 159.76L611.231 167.048L635.653 162.454M635.653 162.454L652.363 159.31M635.653 162.454L628.045 175.241L605.765 179.432M458.428 173.812L477.384 181.602L552.365 167.497L570.098 174.785M549.224 179.81L528.23 183.76L521.358 195.309L499.935 199.339M499.935 199.339L469.086 205.142M499.935 199.339L496.622 204.908M496.622 204.908L493.308 210.476L465.887 215.635L447.848 208.222M496.622 204.908L506.1 208.803L554.516 199.695L572.861 207.234M401.53 206.128L429.808 200.808L447.848 208.222M447.848 208.222L440.117 221.215M509.377 187.306L451.107 198.267L441.323 194.247M378.838 200.139L431.539 190.226L441.323 194.247M441.323 194.247L445.25 187.647L456.818 185.471M607.382 124.912L626.339 132.702M692.996 119.797L686.369 130.934L621.243 143.185L603.51 135.897M726.765 124.434L708.342 127.9L701.47 139.45L658.623 147.509M658.623 147.509L639.771 151.056M658.623 147.509L676.357 154.797L722.202 146.173L731.375 149.942M769.683 148.231L740.547 153.712L731.375 149.942M731.375 149.942L727.693 156.13L689.56 163.303M671.748 167.02L650.753 170.969L643.391 183.344M643.391 183.344L666.099 179.072L684.444 186.611M643.391 183.344L582.549 194.789L564.204 187.25M684.444 186.611L654.452 192.253M684.444 186.611L716.579 180.566L733.701 187.602M564.204 187.25L541.496 191.521M564.204 187.25L585.627 183.22L592.499 171.67M523.159 216.584L557.008 210.216L575.353 217.755M632.846 195.951L591.713 203.688L584.596 215.65M517.082 228.716L499.349 221.429L432.937 233.921M432.937 233.921L396.946 240.692M432.937 233.921L413.981 226.131M684.951 175.526L756.933 161.985M733.701 187.602L759.837 182.686M733.701 187.602L702.851 193.405" stroke="url(#paint1_linear)" stroke-opacity="0.35" stroke-width="5.31894" stroke-linecap="round" stroke-linejoin="round"/>
</g>
<g filter="url(#filter1_d)">
<path d="M144.141 92.4947H123.216L118.838 105.072H109.08L129.486 51.0518H137.908L158.351 105.072H148.556L144.141 92.4947ZM125.85 84.9259H141.507L133.679 62.5163L125.85 84.9259ZM187.514 101.139C184.867 104.256 181.107 105.814 176.235 105.814C171.881 105.814 168.579 104.54 166.328 101.993C164.102 99.4451 162.989 95.7597 162.989 90.9364V64.9279H172.005V90.8251C172.005 95.9204 174.12 98.4681 178.349 98.4681C182.727 98.4681 185.683 96.8975 187.217 93.7562V64.9279H196.232V105.072H187.736L187.514 101.139ZM216.713 55.1701V64.9279H223.799V71.6063H216.713V94.0159C216.713 95.5494 217.01 96.6625 217.603 97.355C218.222 98.0229 219.31 98.3568 220.868 98.3568C221.907 98.3568 222.958 98.2331 224.022 97.9858V104.961C221.969 105.53 219.99 105.814 218.086 105.814C211.16 105.814 207.697 101.993 207.697 94.3498V71.6063H201.093V64.9279H207.697V55.1701H216.713ZM227.918 84.6291C227.918 80.6963 228.697 77.1592 230.255 74.0179C231.813 70.8519 234.002 68.4279 236.822 66.7459C239.642 65.0392 242.882 64.1859 246.543 64.1859C251.96 64.1859 256.35 65.9297 259.714 69.4172C263.103 72.9048 264.933 77.5302 265.205 83.2934L265.242 85.4082C265.242 89.3658 264.475 92.9028 262.942 96.0194C261.433 99.1359 259.256 101.548 256.412 103.254C253.592 104.961 250.327 105.814 246.617 105.814C240.953 105.814 236.414 103.934 233.001 100.175C229.612 96.3904 227.918 91.3569 227.918 85.0743V84.6291ZM236.933 85.4082C236.933 89.5389 237.787 92.7791 239.493 95.1289C241.2 97.454 243.575 98.6165 246.617 98.6165C249.659 98.6165 252.022 97.4293 253.703 95.0547C255.41 92.6802 256.264 89.205 256.264 84.6291C256.264 80.5726 255.385 77.3571 253.629 74.9825C251.898 72.608 249.536 71.4208 246.543 71.4208C243.599 71.4208 241.262 72.5956 239.531 74.9454C237.799 77.2705 236.933 80.7581 236.933 85.4082ZM281.344 64.9279L281.604 69.1204C284.424 65.8307 288.283 64.1859 293.18 64.1859C298.547 64.1859 302.221 66.2388 304.199 70.3448C307.118 66.2388 311.224 64.1859 316.517 64.1859C320.945 64.1859 324.234 65.4102 326.386 67.859C328.563 70.3077 329.676 73.919 329.725 78.6927V105.072H320.71V78.9525C320.71 76.4048 320.153 74.5373 319.04 73.3501C317.927 72.1628 316.084 71.5692 313.512 71.5692C311.459 71.5692 309.777 72.1257 308.466 73.2388C307.18 74.3271 306.277 75.7617 305.758 77.5426L305.795 105.072H296.779V78.6556C296.655 73.9313 294.244 71.5692 289.544 71.5692C285.933 71.5692 283.373 73.0409 281.864 75.9843V105.072H272.848V64.9279H281.344ZM362.969 105.072C362.573 104.305 362.227 103.056 361.93 101.325C359.061 104.318 355.548 105.814 351.393 105.814C347.361 105.814 344.072 104.664 341.524 102.364C338.976 100.063 337.702 97.219 337.702 93.8304C337.702 89.5513 339.285 86.2739 342.451 83.9983C345.642 81.698 350.193 80.5478 356.105 80.5478H361.633V77.9136C361.633 75.8359 361.052 74.1787 359.889 72.9419C358.727 71.6805 356.958 71.0497 354.584 71.0497C352.531 71.0497 350.849 71.5692 349.538 72.608C348.227 73.6221 347.572 74.9207 347.572 76.5037H338.556C338.556 74.3023 339.285 72.2494 340.745 70.3448C342.204 68.4155 344.183 66.9067 346.681 65.8184C349.204 64.73 352.011 64.1859 355.103 64.1859C359.803 64.1859 363.55 65.3731 366.345 67.7477C369.14 70.0974 370.575 73.4119 370.649 77.691V95.7968C370.649 99.408 371.156 102.29 372.17 104.442V105.072H362.969ZM353.063 98.5794C354.844 98.5794 356.513 98.1466 358.071 97.2808C359.654 96.4151 360.842 95.2526 361.633 93.7933V86.2245H356.773C353.434 86.2245 350.923 86.8057 349.241 87.9682C347.559 89.1308 346.718 90.7756 346.718 92.9028C346.718 94.6342 347.287 96.0194 348.425 97.0582C349.587 98.0724 351.133 98.5794 353.063 98.5794ZM391.389 55.1701V64.9279H398.475V71.6063H391.389V94.0159C391.389 95.5494 391.686 96.6625 392.279 97.355C392.898 98.0229 393.986 98.3568 395.544 98.3568C396.583 98.3568 397.634 98.2331 398.698 97.9858V104.961C396.645 105.53 394.666 105.814 392.762 105.814C385.836 105.814 382.373 101.993 382.373 94.3498V71.6063H375.769V64.9279H382.373V55.1701H391.389ZM423.074 105.814C417.36 105.814 412.723 104.021 409.161 100.435C405.624 96.8233 403.855 92.0247 403.855 86.0389V84.9259C403.855 80.9189 404.622 77.3447 406.156 74.2034C407.714 71.0374 409.891 68.5763 412.686 66.8201C415.481 65.0639 418.597 64.1859 422.035 64.1859C427.502 64.1859 431.719 65.9297 434.687 69.4172C437.68 72.9048 439.176 77.8394 439.176 84.2209V87.8569H412.945C413.217 91.1714 414.318 93.7933 416.247 95.7226C418.201 97.6519 420.65 98.6165 423.594 98.6165C427.724 98.6165 431.088 96.9469 433.685 93.6077L438.546 98.2455C436.938 100.645 434.786 102.512 432.09 103.848C429.419 105.159 426.413 105.814 423.074 105.814ZM421.998 71.4208C419.525 71.4208 417.521 72.2865 415.988 74.0179C414.479 75.7493 413.514 78.1609 413.094 81.2528H430.272V80.5849C430.074 77.5673 429.27 75.2917 427.86 73.7582C426.45 72.1999 424.496 71.4208 421.998 71.4208Z" fill="url(#paint2_linear)"/>
</g>
<g filter="url(#filter2_d)">
<path d="M134.367 145.014L138.431 133.31H140.09L134.148 149.593L133.839 150.313C133.076 152.003 131.897 152.847 130.302 152.847C129.934 152.847 129.539 152.787 129.119 152.667L129.106 151.394L129.904 151.471C130.658 151.471 131.267 151.282 131.73 150.905C132.202 150.536 132.6 149.898 132.926 148.989L133.608 147.111L128.36 133.31H130.045L134.367 145.014ZM141.428 140.062C141.428 138.725 141.685 137.52 142.2 136.448C142.723 135.376 143.456 134.545 144.399 133.953C145.351 133.353 146.427 133.053 147.628 133.053C149.48 133.053 150.98 133.704 152.129 135.008C153.278 136.302 153.853 138.022 153.853 140.165V140.487C153.853 141.833 153.591 143.046 153.068 144.127C152.554 145.199 151.825 146.026 150.882 146.609C149.938 147.192 148.862 147.484 147.653 147.484C145.81 147.484 144.309 146.836 143.152 145.542C142.003 144.238 141.428 142.515 141.428 140.371V140.062ZM142.971 140.487C142.971 142.15 143.4 143.518 144.258 144.59C145.124 145.653 146.256 146.185 147.653 146.185C149.042 146.185 150.166 145.653 151.023 144.59C151.889 143.518 152.322 142.107 152.322 140.358V140.062C152.322 138.999 152.125 138.026 151.73 137.143C151.336 136.26 150.783 135.578 150.071 135.098C149.36 134.609 148.545 134.365 147.628 134.365C146.256 134.365 145.137 134.905 144.271 135.985C143.404 137.057 142.971 138.463 142.971 140.204V140.487ZM165.994 145.464C165.068 146.811 163.589 147.484 161.557 147.484C160.074 147.484 158.946 147.055 158.174 146.198C157.403 145.332 157.008 144.054 156.991 142.365V133.31H158.522V142.172C158.522 144.821 159.593 146.146 161.737 146.146C163.967 146.146 165.377 145.224 165.969 143.381V133.31H167.512V147.227H166.02L165.994 145.464ZM177.956 134.622C177.63 134.562 177.283 134.532 176.914 134.532C175.954 134.532 175.139 134.802 174.471 135.342C173.81 135.874 173.339 136.65 173.056 137.67V147.227H171.525V133.31H173.03L173.056 135.522C173.87 133.876 175.178 133.053 176.979 133.053C177.407 133.053 177.746 133.108 177.995 133.22L177.956 134.622ZM195.14 143.69C195.14 142.926 194.831 142.313 194.214 141.85C193.605 141.387 192.683 141.027 191.448 140.77C190.214 140.504 189.253 140.204 188.567 139.869C187.89 139.526 187.384 139.111 187.05 138.622C186.724 138.133 186.561 137.541 186.561 136.847C186.561 135.749 187.02 134.845 187.937 134.133C188.855 133.413 190.029 133.053 191.461 133.053C193.013 133.053 194.257 133.438 195.191 134.21C196.134 134.973 196.606 135.972 196.606 137.207H195.063C195.063 136.392 194.72 135.715 194.034 135.175C193.356 134.635 192.499 134.365 191.461 134.365C190.449 134.365 189.635 134.592 189.018 135.046C188.409 135.492 188.104 136.075 188.104 136.795C188.104 137.49 188.357 138.03 188.863 138.416C189.378 138.793 190.308 139.141 191.654 139.458C193.009 139.775 194.021 140.114 194.69 140.474C195.367 140.834 195.869 141.267 196.195 141.773C196.52 142.279 196.683 142.892 196.683 143.612C196.683 144.787 196.207 145.726 195.256 146.429C194.312 147.132 193.078 147.484 191.551 147.484C189.931 147.484 188.615 147.094 187.603 146.313C186.599 145.524 186.098 144.53 186.098 143.329H187.641C187.701 144.23 188.079 144.933 188.773 145.439C189.476 145.936 190.402 146.185 191.551 146.185C192.623 146.185 193.489 145.949 194.149 145.477C194.81 145.006 195.14 144.41 195.14 143.69ZM205.545 147.484C204.362 147.484 203.29 147.192 202.33 146.609C201.378 146.026 200.636 145.216 200.105 144.178C199.573 143.132 199.307 141.962 199.307 140.667V140.114C199.307 138.776 199.564 137.571 200.079 136.5C200.602 135.428 201.326 134.587 202.253 133.979C203.179 133.361 204.182 133.053 205.262 133.053C206.951 133.053 208.289 133.631 209.275 134.789C210.27 135.938 210.767 137.511 210.767 139.509V140.371H200.838V140.667C200.838 142.245 201.288 143.561 202.188 144.616C203.097 145.662 204.238 146.185 205.61 146.185C206.433 146.185 207.157 146.035 207.783 145.735C208.418 145.434 208.992 144.954 209.507 144.294L210.471 145.027C209.34 146.665 207.697 147.484 205.545 147.484ZM205.262 134.365C204.105 134.365 203.127 134.789 202.33 135.638C201.541 136.487 201.061 137.627 200.889 139.059H209.237V138.892C209.194 137.554 208.812 136.465 208.092 135.625C207.372 134.785 206.428 134.365 205.262 134.365ZM220.195 134.622C219.869 134.562 219.522 134.532 219.153 134.532C218.193 134.532 217.378 134.802 216.709 135.342C216.049 135.874 215.578 136.65 215.295 137.67V147.227H213.764V133.31H215.269L215.295 135.522C216.109 133.876 217.417 133.053 219.218 133.053C219.646 133.053 219.985 133.108 220.234 133.22L220.195 134.622ZM227.205 145.104L231.436 133.31H233.019L227.822 147.227H226.575L221.353 133.31H222.935L227.205 145.104ZM240.761 147.484C239.578 147.484 238.506 147.192 237.546 146.609C236.594 146.026 235.852 145.216 235.321 144.178C234.789 143.132 234.523 141.962 234.523 140.667V140.114C234.523 138.776 234.781 137.571 235.295 136.5C235.818 135.428 236.543 134.587 237.469 133.979C238.395 133.361 239.398 133.053 240.478 133.053C242.168 133.053 243.505 133.631 244.491 134.789C245.486 135.938 245.983 137.511 245.983 139.509V140.371H236.054V140.667C236.054 142.245 236.504 143.561 237.404 144.616C238.313 145.662 239.454 146.185 240.826 146.185C241.649 146.185 242.373 146.035 242.999 145.735C243.634 145.434 244.208 144.954 244.723 144.294L245.688 145.027C244.556 146.665 242.914 147.484 240.761 147.484ZM240.478 134.365C239.321 134.365 238.343 134.789 237.546 135.638C236.757 136.487 236.277 137.627 236.105 139.059H244.453V138.892C244.41 137.554 244.028 136.465 243.308 135.625C242.588 134.785 241.645 134.365 240.478 134.365ZM255.411 134.622C255.085 134.562 254.738 134.532 254.369 134.532C253.409 134.532 252.595 134.802 251.926 135.342C251.265 135.874 250.794 136.65 250.511 137.67V147.227H248.98V133.31H250.485L250.511 135.522C251.325 133.876 252.633 133.053 254.434 133.053C254.863 133.053 255.201 133.108 255.45 133.22L255.411 134.622ZM267.592 144.024L267.823 145.22L268.132 143.96L271.476 133.31H272.788L276.093 143.87L276.454 145.336L276.749 143.985L279.605 133.31H281.2L277.148 147.227H275.836L272.261 136.191L272.093 135.432L271.926 136.204L268.415 147.227H267.103L263.064 133.31H264.646L267.592 144.024ZM285.843 147.227H284.299V133.31H285.843V147.227ZM284.029 129.284C284.029 128.992 284.124 128.748 284.312 128.551C284.501 128.345 284.758 128.242 285.084 128.242C285.41 128.242 285.667 128.345 285.856 128.551C286.053 128.748 286.152 128.992 286.152 129.284C286.152 129.576 286.053 129.82 285.856 130.017C285.667 130.214 285.41 130.313 285.084 130.313C284.758 130.313 284.501 130.214 284.312 130.017C284.124 129.82 284.029 129.576 284.029 129.284ZM292.428 129.747V133.31H295.309V134.57H292.428V143.844C292.428 144.616 292.565 145.19 292.84 145.567C293.123 145.945 293.59 146.133 294.242 146.133C294.499 146.133 294.915 146.09 295.489 146.005L295.554 147.265C295.151 147.411 294.602 147.484 293.907 147.484C292.853 147.484 292.085 147.179 291.605 146.571C291.125 145.953 290.885 145.049 290.885 143.857V134.57H288.325V133.31H290.885V129.747H292.428ZM300.03 135.664C300.536 134.832 301.183 134.189 301.972 133.734C302.761 133.28 303.622 133.053 304.557 133.053C306.049 133.053 307.16 133.473 307.888 134.313C308.617 135.153 308.986 136.414 308.995 138.095V147.227H307.464V138.082C307.455 136.838 307.19 135.912 306.666 135.303C306.152 134.695 305.325 134.39 304.184 134.39C303.232 134.39 302.388 134.69 301.65 135.291C300.921 135.882 300.381 136.684 300.03 137.696V147.227H298.499V127.47H300.03V135.664ZM322.693 144.024L322.924 145.22L323.233 143.96L326.577 133.31H327.889L331.194 143.87L331.554 145.336L331.85 143.985L334.706 133.31H336.301L332.249 147.227H330.937L327.361 136.191L327.194 135.432L327.027 136.204L323.516 147.227H322.204L318.165 133.31H319.747L322.693 144.024ZM344.609 147.484C343.426 147.484 342.354 147.192 341.394 146.609C340.442 146.026 339.7 145.216 339.169 144.178C338.637 143.132 338.371 141.962 338.371 140.667V140.114C338.371 138.776 338.629 137.571 339.143 136.5C339.666 135.428 340.391 134.587 341.317 133.979C342.243 133.361 343.246 133.053 344.326 133.053C346.016 133.053 347.353 133.631 348.339 134.789C349.334 135.938 349.831 137.511 349.831 139.509V140.371H339.902V140.667C339.902 142.245 340.352 143.561 341.252 144.616C342.161 145.662 343.302 146.185 344.674 146.185C345.497 146.185 346.221 146.035 346.847 145.735C347.482 145.434 348.056 144.954 348.571 144.294L349.536 145.027C348.404 146.665 346.762 147.484 344.609 147.484ZM344.326 134.365C343.169 134.365 342.191 134.789 341.394 135.638C340.605 136.487 340.125 137.627 339.953 139.059H348.301V138.892C348.258 137.554 347.876 136.465 347.156 135.625C346.436 134.785 345.493 134.365 344.326 134.365ZM354.552 147.227H353.008V127.47H354.552V147.227ZM363.89 146.185C364.961 146.185 365.858 145.885 366.578 145.284C367.307 144.676 367.701 143.891 367.761 142.931H369.24C369.197 143.78 368.932 144.556 368.443 145.259C367.954 145.953 367.302 146.498 366.488 146.892C365.682 147.287 364.816 147.484 363.89 147.484C362.063 147.484 360.614 146.849 359.542 145.58C358.479 144.311 357.947 142.605 357.947 140.461V139.998C357.947 138.626 358.187 137.413 358.668 136.358C359.148 135.303 359.834 134.489 360.726 133.914C361.626 133.34 362.676 133.053 363.877 133.053C365.403 133.053 366.659 133.507 367.645 134.416C368.64 135.325 369.172 136.521 369.24 138.004H367.761C367.693 136.916 367.298 136.037 366.578 135.368C365.866 134.699 364.966 134.365 363.877 134.365C362.488 134.365 361.407 134.866 360.636 135.869C359.872 136.873 359.491 138.279 359.491 140.088V140.538C359.491 142.313 359.872 143.698 360.636 144.693C361.407 145.687 362.492 146.185 363.89 146.185ZM371.478 140.062C371.478 138.725 371.735 137.52 372.25 136.448C372.773 135.376 373.506 134.545 374.449 133.953C375.401 133.353 376.477 133.053 377.678 133.053C379.53 133.053 381.03 133.704 382.179 135.008C383.328 136.302 383.903 138.022 383.903 140.165V140.487C383.903 141.833 383.641 143.046 383.118 144.127C382.604 145.199 381.875 146.026 380.932 146.609C379.989 147.192 378.912 147.484 377.703 147.484C375.86 147.484 374.359 146.836 373.202 145.542C372.053 144.238 371.478 142.515 371.478 140.371V140.062ZM373.022 140.487C373.022 142.15 373.45 143.518 374.308 144.59C375.174 145.653 376.306 146.185 377.703 146.185C379.093 146.185 380.216 145.653 381.073 144.59C381.939 143.518 382.372 142.107 382.372 140.358V140.062C382.372 138.999 382.175 138.026 381.781 137.143C381.386 136.26 380.833 135.578 380.121 135.098C379.41 134.609 378.595 134.365 377.678 134.365C376.306 134.365 375.187 134.905 374.321 135.985C373.455 137.057 373.022 138.463 373.022 140.204V140.487ZM388.495 133.31L388.546 135.574C389.061 134.733 389.704 134.103 390.475 133.683C391.247 133.263 392.105 133.053 393.048 133.053C395.243 133.053 396.636 133.953 397.228 135.754C397.725 134.888 398.39 134.223 399.222 133.76C400.053 133.288 400.971 133.053 401.974 133.053C404.958 133.053 406.48 134.682 406.54 137.94V147.227H404.997V138.056C404.988 136.813 404.718 135.891 404.186 135.291C403.663 134.69 402.806 134.39 401.614 134.39C400.508 134.407 399.573 134.768 398.81 135.471C398.047 136.165 397.622 137.014 397.537 138.017V147.227H395.993V137.94C395.985 136.748 395.702 135.861 395.144 135.278C394.596 134.686 393.747 134.39 392.598 134.39C391.629 134.39 390.797 134.669 390.102 135.226C389.408 135.775 388.893 136.594 388.559 137.683V147.227H387.016V133.31H388.495ZM415.839 147.484C414.656 147.484 413.584 147.192 412.624 146.609C411.672 146.026 410.93 145.216 410.399 144.178C409.867 143.132 409.601 141.962 409.601 140.667V140.114C409.601 138.776 409.859 137.571 410.373 136.5C410.896 135.428 411.621 134.587 412.547 133.979C413.473 133.361 414.476 133.053 415.556 133.053C417.246 133.053 418.583 133.631 419.569 134.789C420.564 135.938 421.061 137.511 421.061 139.509V140.371H411.132V140.667C411.132 142.245 411.582 143.561 412.482 144.616C413.391 145.662 414.532 146.185 415.904 146.185C416.727 146.185 417.451 146.035 418.077 145.735C418.712 145.434 419.286 144.954 419.801 144.294L420.766 145.027C419.634 146.665 417.992 147.484 415.839 147.484ZM415.556 134.365C414.399 134.365 413.421 134.789 412.624 135.638C411.835 136.487 411.355 137.627 411.183 139.059H419.531V138.892C419.488 137.554 419.106 136.465 418.386 135.625C417.666 134.785 416.723 134.365 415.556 134.365ZM132.193 164.31L132.245 166.574C132.759 165.733 133.402 165.103 134.174 164.683C134.946 164.263 135.803 164.053 136.746 164.053C138.941 164.053 140.335 164.953 140.926 166.754C141.424 165.888 142.088 165.223 142.92 164.76C143.752 164.288 144.669 164.053 145.672 164.053C148.656 164.053 150.178 165.682 150.239 168.94V178.227H148.695V169.056C148.686 167.813 148.416 166.891 147.885 166.291C147.362 165.69 146.504 165.39 145.312 165.39C144.206 165.407 143.272 165.768 142.508 166.471C141.745 167.165 141.321 168.014 141.235 169.017V178.227H139.692V168.94C139.683 167.748 139.4 166.861 138.843 166.278C138.294 165.686 137.445 165.39 136.296 165.39C135.327 165.39 134.495 165.669 133.801 166.226C133.106 166.775 132.592 167.594 132.257 168.683V178.227H130.714V164.31H132.193ZM159.538 178.484C158.354 178.484 157.283 178.192 156.322 177.609C155.37 177.026 154.629 176.216 154.097 175.178C153.565 174.132 153.3 172.962 153.3 171.667V171.114C153.3 169.776 153.557 168.571 154.071 167.5C154.594 166.428 155.319 165.587 156.245 164.979C157.171 164.361 158.174 164.053 159.255 164.053C160.944 164.053 162.282 164.631 163.268 165.789C164.262 166.938 164.76 168.511 164.76 170.509V171.371H154.83V171.667C154.83 173.245 155.28 174.561 156.181 175.616C157.09 176.662 158.23 177.185 159.602 177.185C160.425 177.185 161.15 177.035 161.776 176.735C162.41 176.434 162.985 175.954 163.499 175.294L164.464 176.027C163.332 177.665 161.69 178.484 159.538 178.484ZM159.255 165.365C158.097 165.365 157.12 165.789 156.322 166.638C155.533 167.487 155.053 168.627 154.882 170.059H163.229V169.892C163.186 168.554 162.805 167.465 162.084 166.625C161.364 165.785 160.421 165.365 159.255 165.365ZM176.091 174.69C176.091 173.926 175.783 173.313 175.165 172.85C174.556 172.387 173.635 172.027 172.4 171.77C171.165 171.504 170.205 171.204 169.519 170.869C168.841 170.526 168.335 170.111 168.001 169.622C167.675 169.133 167.512 168.541 167.512 167.847C167.512 166.749 167.971 165.845 168.888 165.133C169.806 164.413 170.981 164.053 172.413 164.053C173.965 164.053 175.208 164.438 176.143 165.21C177.086 165.973 177.557 166.972 177.557 168.207H176.014C176.014 167.392 175.671 166.715 174.985 166.175C174.308 165.635 173.45 165.365 172.413 165.365C171.401 165.365 170.586 165.592 169.969 166.046C169.36 166.492 169.056 167.075 169.056 167.795C169.056 168.49 169.309 169.03 169.815 169.416C170.329 169.793 171.259 170.141 172.606 170.458C173.96 170.775 174.972 171.114 175.641 171.474C176.318 171.834 176.82 172.267 177.146 172.773C177.472 173.279 177.635 173.892 177.635 174.612C177.635 175.787 177.159 176.726 176.207 177.429C175.264 178.132 174.029 178.484 172.503 178.484C170.882 178.484 169.566 178.094 168.554 177.313C167.551 176.524 167.049 175.53 167.049 174.329H168.593C168.653 175.23 169.03 175.933 169.724 176.439C170.428 176.936 171.354 177.185 172.503 177.185C173.575 177.185 174.441 176.949 175.101 176.477C175.761 176.006 176.091 175.41 176.091 174.69ZM189.442 174.69C189.442 173.926 189.133 173.313 188.516 172.85C187.907 172.387 186.985 172.027 185.751 171.77C184.516 171.504 183.555 171.204 182.869 170.869C182.192 170.526 181.686 170.111 181.352 169.622C181.026 169.133 180.863 168.541 180.863 167.847C180.863 166.749 181.322 165.845 182.239 165.133C183.157 164.413 184.331 164.053 185.763 164.053C187.315 164.053 188.559 164.438 189.493 165.21C190.437 165.973 190.908 166.972 190.908 168.207H189.365C189.365 167.392 189.022 166.715 188.336 166.175C187.658 165.635 186.801 165.365 185.763 165.365C184.752 165.365 183.937 165.592 183.32 166.046C182.711 166.492 182.406 167.075 182.406 167.795C182.406 168.49 182.659 169.03 183.165 169.416C183.68 169.793 184.61 170.141 185.956 170.458C187.311 170.775 188.323 171.114 188.992 171.474C189.669 171.834 190.171 172.267 190.497 172.773C190.823 173.279 190.985 173.892 190.985 174.612C190.985 175.787 190.51 176.726 189.558 177.429C188.615 178.132 187.38 178.484 185.853 178.484C184.233 178.484 182.917 178.094 181.905 177.313C180.902 176.524 180.4 175.53 180.4 174.329H181.943C182.003 175.23 182.381 175.933 183.075 176.439C183.778 176.936 184.704 177.185 185.853 177.185C186.925 177.185 187.791 176.949 188.452 176.477C189.112 176.006 189.442 175.41 189.442 174.69ZM203.243 178.227C203.089 177.789 202.99 177.142 202.947 176.284C202.407 176.988 201.717 177.532 200.876 177.918C200.045 178.295 199.161 178.484 198.227 178.484C196.889 178.484 195.804 178.111 194.973 177.365C194.149 176.619 193.738 175.676 193.738 174.535C193.738 173.18 194.3 172.109 195.423 171.32C196.555 170.531 198.128 170.136 200.143 170.136H202.934V168.554C202.934 167.56 202.626 166.779 202.008 166.213C201.399 165.639 200.508 165.352 199.333 165.352C198.261 165.352 197.374 165.626 196.67 166.175C195.967 166.724 195.616 167.384 195.616 168.156L194.072 168.143C194.072 167.037 194.587 166.081 195.616 165.275C196.645 164.46 197.909 164.053 199.41 164.053C200.962 164.053 202.184 164.443 203.076 165.223C203.976 165.995 204.439 167.075 204.465 168.464V175.05C204.465 176.396 204.606 177.403 204.889 178.072V178.227H203.243ZM198.407 177.12C199.436 177.12 200.353 176.872 201.159 176.374C201.974 175.877 202.566 175.213 202.934 174.381V171.32H200.182C198.647 171.337 197.446 171.62 196.58 172.169C195.714 172.709 195.281 173.455 195.281 174.407C195.281 175.187 195.569 175.834 196.143 176.349C196.726 176.863 197.481 177.12 198.407 177.12ZM207.963 171.14C207.963 168.962 208.443 167.238 209.404 165.969C210.373 164.691 211.685 164.053 213.34 164.053C215.235 164.053 216.675 164.807 217.661 166.316L217.738 164.31H219.179V177.944C219.179 179.736 218.677 181.155 217.674 182.201C216.671 183.247 215.312 183.77 213.597 183.77C212.628 183.77 211.702 183.551 210.819 183.114C209.944 182.685 209.254 182.111 208.748 181.391L209.61 180.465C210.699 181.802 211.993 182.471 213.494 182.471C214.78 182.471 215.783 182.089 216.504 181.326C217.224 180.572 217.597 179.521 217.623 178.175V176.426C216.637 177.798 215.2 178.484 213.314 178.484C211.702 178.484 210.407 177.841 209.43 176.554C208.452 175.268 207.963 173.532 207.963 171.345V171.14ZM209.52 171.41C209.52 173.185 209.875 174.587 210.587 175.616C211.299 176.636 212.302 177.146 213.597 177.146C215.492 177.146 216.834 176.297 217.623 174.599V168.13C217.263 167.238 216.744 166.561 216.066 166.098C215.389 165.626 214.574 165.39 213.623 165.39C212.328 165.39 211.32 165.9 210.6 166.921C209.88 167.933 209.52 169.429 209.52 171.41ZM228.581 178.484C227.398 178.484 226.326 178.192 225.366 177.609C224.414 177.026 223.672 176.216 223.14 175.178C222.609 174.132 222.343 172.962 222.343 171.667V171.114C222.343 169.776 222.6 168.571 223.115 167.5C223.638 166.428 224.362 165.587 225.288 164.979C226.215 164.361 227.218 164.053 228.298 164.053C229.987 164.053 231.325 164.631 232.311 165.789C233.306 166.938 233.803 168.511 233.803 170.509V171.371H223.874V171.667C223.874 173.245 224.324 174.561 225.224 175.616C226.133 176.662 227.273 177.185 228.645 177.185C229.469 177.185 230.193 177.035 230.819 176.735C231.454 176.434 232.028 175.954 232.543 175.294L233.507 176.027C232.375 177.665 230.733 178.484 228.581 178.484ZM228.298 165.365C227.141 165.365 226.163 165.789 225.366 166.638C224.577 167.487 224.097 168.627 223.925 170.059H232.273V169.892C232.23 168.554 231.848 167.465 231.128 166.625C230.408 165.785 229.464 165.365 228.298 165.365ZM245.135 174.69C245.135 173.926 244.826 173.313 244.208 172.85C243.6 172.387 242.678 172.027 241.443 171.77C240.208 171.504 239.248 171.204 238.562 170.869C237.885 170.526 237.379 170.111 237.044 169.622C236.719 169.133 236.556 168.541 236.556 167.847C236.556 166.749 237.014 165.845 237.932 165.133C238.849 164.413 240.024 164.053 241.456 164.053C243.008 164.053 244.251 164.438 245.186 165.21C246.129 165.973 246.601 166.972 246.601 168.207H245.057C245.057 167.392 244.714 166.715 244.028 166.175C243.351 165.635 242.494 165.365 241.456 165.365C240.444 165.365 239.63 165.592 239.012 166.046C238.403 166.492 238.099 167.075 238.099 167.795C238.099 168.49 238.352 169.03 238.858 169.416C239.372 169.793 240.303 170.141 241.649 170.458C243.004 170.775 244.016 171.114 244.684 171.474C245.362 171.834 245.863 172.267 246.189 172.773C246.515 173.279 246.678 173.892 246.678 174.612C246.678 175.787 246.202 176.726 245.25 177.429C244.307 178.132 243.072 178.484 241.546 178.484C239.925 178.484 238.609 178.094 237.597 177.313C236.594 176.524 236.093 175.53 236.093 174.329H237.636C237.696 175.23 238.073 175.933 238.768 176.439C239.471 176.936 240.397 177.185 241.546 177.185C242.618 177.185 243.484 176.949 244.144 176.477C244.804 176.006 245.135 175.41 245.135 174.69ZM265.341 178.227C265.186 177.789 265.088 177.142 265.045 176.284C264.505 176.988 263.815 177.532 262.974 177.918C262.142 178.295 261.259 178.484 260.325 178.484C258.987 178.484 257.902 178.111 257.071 177.365C256.247 176.619 255.836 175.676 255.836 174.535C255.836 173.18 256.397 172.109 257.521 171.32C258.653 170.531 260.226 170.136 262.241 170.136H265.032V168.554C265.032 167.56 264.723 166.779 264.106 166.213C263.497 165.639 262.605 165.352 261.431 165.352C260.359 165.352 259.471 165.626 258.768 166.175C258.065 166.724 257.714 167.384 257.714 168.156L256.17 168.143C256.17 167.037 256.685 166.081 257.714 165.275C258.743 164.46 260.007 164.053 261.508 164.053C263.06 164.053 264.282 164.443 265.174 165.223C266.074 165.995 266.537 167.075 266.563 168.464V175.05C266.563 176.396 266.704 177.403 266.987 178.072V178.227H265.341ZM260.505 177.12C261.534 177.12 262.451 176.872 263.257 176.374C264.072 175.877 264.663 175.213 265.032 174.381V171.32H262.28C260.745 171.337 259.544 171.62 258.678 172.169C257.812 172.709 257.379 173.455 257.379 174.407C257.379 175.187 257.666 175.834 258.241 176.349C258.824 176.863 259.579 177.12 260.505 177.12ZM272.145 164.31L272.196 166.689C272.719 165.832 273.371 165.18 274.151 164.734C274.932 164.28 275.793 164.053 276.737 164.053C278.229 164.053 279.339 164.473 280.068 165.313C280.797 166.153 281.165 167.414 281.174 169.095V178.227H279.643V169.082C279.635 167.838 279.369 166.912 278.846 166.303C278.331 165.695 277.504 165.39 276.364 165.39C275.412 165.39 274.567 165.69 273.83 166.291C273.101 166.882 272.561 167.684 272.209 168.696V178.227H270.679V164.31H272.145ZM284.544 171.14C284.544 168.979 285.024 167.26 285.984 165.982C286.953 164.696 288.265 164.053 289.92 164.053C291.798 164.053 293.23 164.794 294.216 166.278V158.47H295.747V178.227H294.306L294.242 176.374C293.256 177.781 291.807 178.484 289.894 178.484C288.291 178.484 286.996 177.841 286.01 176.554C285.033 175.26 284.544 173.515 284.544 171.32V171.14ZM286.1 171.41C286.1 173.185 286.456 174.587 287.168 175.616C287.879 176.636 288.883 177.146 290.177 177.146C292.072 177.146 293.419 176.31 294.216 174.638V168.104C293.419 166.295 292.081 165.39 290.203 165.39C288.908 165.39 287.901 165.9 287.181 166.921C286.46 167.933 286.1 169.429 286.1 171.41ZM314.988 178.227C314.834 177.789 314.735 177.142 314.692 176.284C314.152 176.988 313.462 177.532 312.622 177.918C311.79 178.295 310.907 178.484 309.972 178.484C308.634 178.484 307.55 178.111 306.718 177.365C305.895 176.619 305.483 175.676 305.483 174.535C305.483 173.18 306.045 172.109 307.168 171.32C308.3 170.531 309.873 170.136 311.888 170.136H314.68V168.554C314.68 167.56 314.371 166.779 313.753 166.213C313.145 165.639 312.253 165.352 311.078 165.352C310.006 165.352 309.119 165.626 308.416 166.175C307.713 166.724 307.361 167.384 307.361 168.156L305.818 168.143C305.818 167.037 306.332 166.081 307.361 165.275C308.39 164.46 309.655 164.053 311.155 164.053C312.707 164.053 313.929 164.443 314.821 165.223C315.721 165.995 316.184 167.075 316.21 168.464V175.05C316.21 176.396 316.352 177.403 316.635 178.072V178.227H314.988ZM310.152 177.12C311.181 177.12 312.099 176.872 312.905 176.374C313.719 175.877 314.311 175.213 314.68 174.381V171.32H311.927C310.392 171.337 309.192 171.62 308.326 172.169C307.46 172.709 307.027 173.455 307.027 174.407C307.027 175.187 307.314 175.834 307.888 176.349C308.471 176.863 309.226 177.12 310.152 177.12ZM329.278 176.464C328.352 177.811 326.873 178.484 324.841 178.484C323.357 178.484 322.23 178.055 321.458 177.198C320.686 176.332 320.292 175.054 320.274 173.365V164.31H321.805V173.172C321.805 175.821 322.877 177.146 325.021 177.146C327.25 177.146 328.661 176.224 329.252 174.381V164.31H330.796V178.227H329.304L329.278 176.464ZM337.201 160.747V164.31H340.082V165.57H337.201V174.844C337.201 175.616 337.338 176.19 337.613 176.567C337.895 176.945 338.363 177.133 339.014 177.133C339.272 177.133 339.688 177.09 340.262 177.005L340.326 178.265C339.923 178.411 339.375 178.484 338.68 178.484C337.625 178.484 336.858 178.179 336.378 177.571C335.898 176.953 335.657 176.049 335.657 174.857V165.57H333.098V164.31H335.657V160.747H337.201ZM342.166 171.062C342.166 169.725 342.423 168.52 342.937 167.448C343.46 166.376 344.194 165.545 345.137 164.953C346.089 164.353 347.165 164.053 348.365 164.053C350.217 164.053 351.718 164.704 352.867 166.008C354.016 167.302 354.59 169.022 354.59 171.165V171.487C354.59 172.833 354.329 174.046 353.806 175.127C353.291 176.199 352.562 177.026 351.619 177.609C350.676 178.192 349.6 178.484 348.391 178.484C346.547 178.484 345.047 177.836 343.889 176.542C342.74 175.238 342.166 173.515 342.166 171.371V171.062ZM343.709 171.487C343.709 173.15 344.138 174.518 344.995 175.59C345.861 176.653 346.993 177.185 348.391 177.185C349.78 177.185 350.903 176.653 351.761 175.59C352.627 174.518 353.06 173.107 353.06 171.358V171.062C353.06 169.999 352.863 169.026 352.468 168.143C352.074 167.26 351.521 166.578 350.809 166.098C350.097 165.609 349.283 165.365 348.365 165.365C346.993 165.365 345.874 165.905 345.008 166.985C344.142 168.057 343.709 169.463 343.709 171.204V171.487ZM359.182 164.31L359.234 166.574C359.748 165.733 360.391 165.103 361.163 164.683C361.935 164.263 362.792 164.053 363.735 164.053C365.93 164.053 367.324 164.953 367.915 166.754C368.413 165.888 369.077 165.223 369.909 164.76C370.741 164.288 371.658 164.053 372.662 164.053C375.646 164.053 377.168 165.682 377.228 168.94V178.227H375.684V169.056C375.676 167.813 375.405 166.891 374.874 166.291C374.351 165.69 373.493 165.39 372.301 165.39C371.195 165.407 370.261 165.768 369.497 166.471C368.734 167.165 368.31 168.014 368.224 169.017V178.227H366.681V168.94C366.672 167.748 366.389 166.861 365.832 166.278C365.283 165.686 364.434 165.39 363.285 165.39C362.316 165.39 361.484 165.669 360.79 166.226C360.095 166.775 359.581 167.594 359.246 168.683V178.227H357.703V164.31H359.182ZM389.922 178.227C389.768 177.789 389.669 177.142 389.627 176.284C389.086 176.988 388.396 177.532 387.556 177.918C386.724 178.295 385.841 178.484 384.906 178.484C383.569 178.484 382.484 178.111 381.652 177.365C380.829 176.619 380.417 175.676 380.417 174.535C380.417 173.18 380.979 172.109 382.102 171.32C383.234 170.531 384.808 170.136 386.823 170.136H389.614V168.554C389.614 167.56 389.305 166.779 388.688 166.213C388.079 165.639 387.187 165.352 386.012 165.352C384.94 165.352 384.053 165.626 383.35 166.175C382.647 166.724 382.295 167.384 382.295 168.156L380.752 168.143C380.752 167.037 381.266 166.081 382.295 165.275C383.324 164.46 384.589 164.053 386.089 164.053C387.642 164.053 388.863 164.443 389.755 165.223C390.656 165.995 391.119 167.075 391.144 168.464V175.05C391.144 176.396 391.286 177.403 391.569 178.072V178.227H389.922ZM385.086 177.12C386.115 177.12 387.033 176.872 387.839 176.374C388.653 175.877 389.245 175.213 389.614 174.381V171.32H386.861C385.326 171.337 384.126 171.62 383.26 172.169C382.394 172.709 381.961 173.455 381.961 174.407C381.961 175.187 382.248 175.834 382.823 176.349C383.406 176.863 384.16 177.12 385.086 177.12ZM397.652 160.747V164.31H400.534V165.57H397.652V174.844C397.652 175.616 397.79 176.19 398.064 176.567C398.347 176.945 398.814 177.133 399.466 177.133C399.723 177.133 400.139 177.09 400.714 177.005L400.778 178.265C400.375 178.411 399.826 178.484 399.132 178.484C398.077 178.484 397.309 178.179 396.829 177.571C396.349 176.953 396.109 176.049 396.109 174.857V165.57H393.549V164.31H396.109V160.747H397.652ZM405.447 178.227H403.903V164.31H405.447V178.227ZM403.633 160.284C403.633 159.992 403.728 159.748 403.916 159.551C404.105 159.345 404.362 159.242 404.688 159.242C405.014 159.242 405.271 159.345 405.46 159.551C405.657 159.748 405.756 159.992 405.756 160.284C405.756 160.576 405.657 160.82 405.46 161.017C405.271 161.214 405.014 161.313 404.688 161.313C404.362 161.313 404.105 161.214 403.916 161.017C403.728 160.82 403.633 160.576 403.633 160.284ZM414.785 177.185C415.857 177.185 416.753 176.885 417.473 176.284C418.202 175.676 418.596 174.891 418.656 173.931H420.135C420.092 174.78 419.827 175.556 419.338 176.259C418.849 176.953 418.197 177.498 417.383 177.892C416.577 178.287 415.711 178.484 414.785 178.484C412.958 178.484 411.509 177.849 410.437 176.58C409.374 175.311 408.842 173.605 408.842 171.461V170.998C408.842 169.626 409.083 168.413 409.563 167.358C410.043 166.303 410.729 165.489 411.621 164.914C412.521 164.34 413.571 164.053 414.772 164.053C416.298 164.053 417.554 164.507 418.54 165.416C419.535 166.325 420.067 167.521 420.135 169.004H418.656C418.588 167.916 418.193 167.037 417.473 166.368C416.761 165.699 415.861 165.365 414.772 165.365C413.383 165.365 412.302 165.866 411.531 166.869C410.767 167.873 410.386 169.279 410.386 171.088V171.538C410.386 173.313 410.767 174.698 411.531 175.693C412.302 176.687 413.387 177.185 414.785 177.185ZM212.169 195.31L212.221 197.574C212.735 196.733 213.378 196.103 214.15 195.683C214.922 195.263 215.779 195.053 216.722 195.053C218.917 195.053 220.311 195.953 220.902 197.754C221.4 196.888 222.064 196.223 222.896 195.76C223.728 195.288 224.645 195.053 225.649 195.053C228.633 195.053 230.155 196.682 230.215 199.94V209.227H228.671V200.056C228.663 198.813 228.392 197.891 227.861 197.291C227.338 196.69 226.48 196.39 225.288 196.39C224.182 196.407 223.248 196.768 222.485 197.471C221.721 198.165 221.297 199.014 221.211 200.017V209.227H219.668V199.94C219.659 198.748 219.376 197.861 218.819 197.278C218.27 196.686 217.421 196.39 216.272 196.39C215.303 196.39 214.471 196.669 213.777 197.226C213.082 197.775 212.568 198.594 212.233 199.683V209.227H210.69V195.31H212.169ZM233.276 202.062C233.276 200.725 233.533 199.52 234.047 198.448C234.571 197.376 235.304 196.545 236.247 195.953C237.199 195.353 238.275 195.053 239.475 195.053C241.327 195.053 242.828 195.704 243.977 197.008C245.126 198.302 245.7 200.022 245.7 202.165V202.487C245.7 203.833 245.439 205.046 244.916 206.127C244.401 207.199 243.673 208.026 242.729 208.609C241.786 209.192 240.71 209.484 239.501 209.484C237.657 209.484 236.157 208.836 234.999 207.542C233.85 206.238 233.276 204.515 233.276 202.371V202.062ZM234.819 202.487C234.819 204.15 235.248 205.518 236.105 206.59C236.971 207.653 238.103 208.185 239.501 208.185C240.89 208.185 242.013 207.653 242.871 206.59C243.737 205.518 244.17 204.107 244.17 202.358V202.062C244.17 200.999 243.973 200.026 243.578 199.143C243.184 198.26 242.631 197.578 241.919 197.098C241.207 196.609 240.393 196.365 239.475 196.365C238.103 196.365 236.984 196.905 236.118 197.985C235.252 199.057 234.819 200.463 234.819 202.204V202.487ZM248.273 202.14C248.273 199.979 248.753 198.26 249.713 196.982C250.682 195.696 251.994 195.053 253.649 195.053C255.527 195.053 256.959 195.794 257.945 197.278V189.47H259.476V209.227H258.035L257.971 207.374C256.985 208.781 255.536 209.484 253.623 209.484C252.02 209.484 250.725 208.841 249.739 207.554C248.762 206.26 248.273 204.515 248.273 202.32V202.14ZM249.829 202.41C249.829 204.185 250.185 205.587 250.897 206.616C251.608 207.636 252.612 208.146 253.906 208.146C255.801 208.146 257.148 207.31 257.945 205.638V199.104C257.148 197.295 255.81 196.39 253.932 196.39C252.637 196.39 251.63 196.9 250.91 197.921C250.189 198.933 249.829 200.429 249.829 202.41ZM268.916 209.484C267.733 209.484 266.661 209.192 265.701 208.609C264.749 208.026 264.007 207.216 263.476 206.178C262.944 205.132 262.678 203.962 262.678 202.667V202.114C262.678 200.776 262.936 199.571 263.45 198.5C263.973 197.428 264.698 196.587 265.624 195.979C266.55 195.361 267.553 195.053 268.633 195.053C270.323 195.053 271.66 195.631 272.646 196.789C273.641 197.938 274.138 199.511 274.138 201.509V202.371H264.209V202.667C264.209 204.245 264.659 205.561 265.559 206.616C266.468 207.662 267.609 208.185 268.981 208.185C269.804 208.185 270.528 208.035 271.154 207.735C271.789 207.434 272.363 206.954 272.878 206.294L273.843 207.027C272.711 208.665 271.069 209.484 268.916 209.484ZM268.633 196.365C267.476 196.365 266.498 196.789 265.701 197.638C264.912 198.487 264.432 199.627 264.26 201.059H272.608V200.892C272.565 199.554 272.183 198.465 271.463 197.625C270.743 196.785 269.8 196.365 268.633 196.365ZM283.566 196.622C283.24 196.562 282.893 196.532 282.524 196.532C281.564 196.532 280.749 196.802 280.081 197.342C279.42 197.874 278.949 198.65 278.666 199.67V209.227H277.135V195.31H278.64L278.666 197.522C279.48 195.876 280.788 195.053 282.589 195.053C283.017 195.053 283.356 195.108 283.605 195.22L283.566 196.622ZM294.28 209.227C294.126 208.789 294.027 208.142 293.985 207.284C293.444 207.988 292.754 208.532 291.914 208.918C291.082 209.295 290.199 209.484 289.264 209.484C287.927 209.484 286.842 209.111 286.01 208.365C285.187 207.619 284.775 206.676 284.775 205.535C284.775 204.18 285.337 203.109 286.46 202.32C287.592 201.531 289.166 201.136 291.181 201.136H293.972V199.554C293.972 198.56 293.663 197.779 293.046 197.213C292.437 196.639 291.545 196.352 290.37 196.352C289.298 196.352 288.411 196.626 287.708 197.175C287.005 197.724 286.653 198.384 286.653 199.156L285.11 199.143C285.11 198.037 285.624 197.081 286.653 196.275C287.682 195.46 288.947 195.053 290.447 195.053C291.999 195.053 293.221 195.443 294.113 196.223C295.013 196.995 295.477 198.075 295.502 199.464V206.05C295.502 207.396 295.644 208.403 295.927 209.072V209.227H294.28ZM289.444 208.12C290.473 208.12 291.391 207.872 292.197 207.374C293.011 206.877 293.603 206.213 293.972 205.381V202.32H291.219C289.684 202.337 288.484 202.62 287.618 203.169C286.752 203.709 286.319 204.455 286.319 205.407C286.319 206.187 286.606 206.834 287.181 207.349C287.764 207.863 288.518 208.12 289.444 208.12ZM302.01 191.747V195.31H304.892V196.57H302.01V205.844C302.01 206.616 302.148 207.19 302.422 207.567C302.705 207.945 303.172 208.133 303.824 208.133C304.081 208.133 304.497 208.09 305.072 208.005L305.136 209.265C304.733 209.411 304.184 209.484 303.49 209.484C302.435 209.484 301.667 209.179 301.187 208.571C300.707 207.953 300.467 207.049 300.467 205.857V196.57H297.907V195.31H300.467V191.747H302.01ZM309.805 209.227H308.261V195.31H309.805V209.227ZM307.991 191.284C307.991 190.992 308.086 190.748 308.274 190.551C308.463 190.345 308.72 190.242 309.046 190.242C309.372 190.242 309.629 190.345 309.818 190.551C310.015 190.748 310.114 190.992 310.114 191.284C310.114 191.576 310.015 191.82 309.818 192.017C309.629 192.214 309.372 192.313 309.046 192.313C308.72 192.313 308.463 192.214 308.274 192.017C308.086 191.82 307.991 191.576 307.991 191.284ZM313.149 202.062C313.149 200.725 313.406 199.52 313.921 198.448C314.444 197.376 315.177 196.545 316.12 195.953C317.072 195.353 318.148 195.053 319.348 195.053C321.201 195.053 322.701 195.704 323.85 197.008C324.999 198.302 325.574 200.022 325.574 202.165V202.487C325.574 203.833 325.312 205.046 324.789 206.127C324.275 207.199 323.546 208.026 322.603 208.609C321.659 209.192 320.583 209.484 319.374 209.484C317.531 209.484 316.03 208.836 314.872 207.542C313.723 206.238 313.149 204.515 313.149 202.371V202.062ZM314.692 202.487C314.692 204.15 315.121 205.518 315.979 206.59C316.845 207.653 317.976 208.185 319.374 208.185C320.763 208.185 321.887 207.653 322.744 206.59C323.61 205.518 324.043 204.107 324.043 202.358V202.062C324.043 200.999 323.846 200.026 323.451 199.143C323.057 198.26 322.504 197.578 321.792 197.098C321.081 196.609 320.266 196.365 319.348 196.365C317.976 196.365 316.857 196.905 315.991 197.985C315.125 199.057 314.692 200.463 314.692 202.204V202.487ZM330.23 195.31L330.281 197.689C330.804 196.832 331.456 196.18 332.236 195.734C333.016 195.28 333.878 195.053 334.821 195.053C336.313 195.053 337.424 195.473 338.153 196.313C338.882 197.153 339.25 198.414 339.259 200.095V209.227H337.728V200.082C337.72 198.838 337.454 197.912 336.931 197.303C336.416 196.695 335.589 196.39 334.448 196.39C333.497 196.39 332.652 196.69 331.915 197.291C331.186 197.882 330.646 198.684 330.294 199.696V209.227H328.763V195.31H330.23Z" fill="black"/>
</g>
<defs>
<filter id="filter0_bd" x="0.0161667" y="0.0161667" width="549.968" height="249.968" filterUnits="userSpaceOnUse" color-interpolation-filters="sRGB">
<feFlood flood-opacity="0" result="BackgroundImageFix"/>
<feGaussianBlur in="BackgroundImage" stdDeviation="11.651"/>
<feComposite in2="SourceAlpha" operator="in" result="effect1_backgroundBlur"/>
<feColorMatrix in="SourceAlpha" type="matrix" values="0 0 0 0 0 0 0 0 0 0 0 0 0 0 0 0 0 0 127 0" result="hardAlpha"/>
<feMorphology radius="4.16397" operator="dilate" in="SourceAlpha" result="effect2_dropShadow"/>
<feOffset/>
<feGaussianBlur stdDeviation="10.4099"/>
<feComposite in2="hardAlpha" operator="out"/>
<feColorMatrix type="matrix" values="0 0 0 0 0 0 0 0 0 0 0 0 0 0 0 0 0 0 0.5 0"/>
<feBlend mode="normal" in2="effect1_backgroundBlur" result="effect2_dropShadow"/>
<feBlend mode="normal" in="SourceGraphic" in2="effect2_dropShadow" result="shape"/>
</filter>
<filter id="filter1_d" x="106.547" y="48.518" width="335.162" height="59.8282" filterUnits="userSpaceOnUse" color-interpolation-filters="sRGB">
<feFlood flood-opacity="0" result="BackgroundImageFix"/>
<feColorMatrix in="SourceAlpha" type="matrix" values="0 0 0 0 0 0 0 0 0 0 0 0 0 0 0 0 0 0 127 0" result="hardAlpha"/>
<feOffset/>
<feGaussianBlur stdDeviation="1.26642"/>
<feComposite in2="hardAlpha" operator="out"/>
<feColorMatrix type="matrix" values="0 0 0 0 0 0 0 0 0 0 0 0 0 0 0 0 0 0 0.5 0"/>
<feBlend mode="normal" in2="BackgroundImageFix" result="effect1_dropShadow"/>
<feBlend mode="normal" in="SourceGraphic" in2="effect1_dropShadow" result="shape"/>
</filter>
<filter id="filter2_d" x="125.828" y="124.938" width="297.767" height="87.079" filterUnits="userSpaceOnUse" color-interpolation-filters="sRGB">
<feFlood flood-opacity="0" result="BackgroundImageFix"/>
<feColorMatrix in="SourceAlpha" type="matrix" values="0 0 0 0 0 0 0 0 0 0 0 0 0 0 0 0 0 0 127 0" result="hardAlpha"/>
<feOffset/>
<feGaussianBlur stdDeviation="1.26642"/>
<feComposite in2="hardAlpha" operator="out"/>
<feColorMatrix type="matrix" values="0 0 0 0 0 0 0 0 0 0 0 0 0 0 0 0 0 0 0.5 0"/>
<feBlend mode="normal" in2="BackgroundImageFix" result="effect1_dropShadow"/>
<feBlend mode="normal" in="SourceGraphic" in2="effect1_dropShadow" result="shape"/>
</filter>
<linearGradient id="paint0_linear" x1="25" y1="25" x2="512.876" y2="251.156" gradientUnits="userSpaceOnUse">
<stop stop-color="white" stop-opacity="0.9"/>
<stop offset="1" stop-color="white" stop-opacity="0.7"/>
</linearGradient>
<linearGradient id="paint1_linear" x1="235.442" y1="-10.9959" x2="288.618" y2="271.692" gradientUnits="userSpaceOnUse">
<stop stop-color="#B358A3"/>
<stop offset="1" stop-color="#BF5E9F"/>
</linearGradient>
<linearGradient id="paint2_linear" x1="275" y1="34.0723" x2="275" y2="123.228" gradientUnits="userSpaceOnUse">
<stop stop-color="#B358A3"/>
<stop offset="1" stop-color="#BF5E9F"/>
</linearGradient>
</defs>
</svg>
