<svg width="550" height="250" viewBox="0 0 550 250" fill="none" xmlns="http://www.w3.org/2000/svg">
<g filter="url(#filter0_bd)">
<rect x="25" y="25" width="500" height="200" rx="25.3283" fill="url(#paint0_linear)" fill-opacity="0.65" shape-rendering="crispEdges"/>
</g>
<path d="M240.117 168.241L237.48 170.839V177.54H235.898V158.813H237.48V168.91L247.076 158.813H249.069L241.223 167.148L249.674 177.54H247.744L240.117 168.241ZM257.211 177.797C256.028 177.797 254.956 177.506 253.995 176.923C253.044 176.34 252.302 175.529 251.77 174.492C251.239 173.446 250.973 172.275 250.973 170.98V170.427C250.973 169.09 251.23 167.885 251.744 166.813C252.268 165.741 252.992 164.901 253.918 164.292C254.844 163.675 255.847 163.366 256.928 163.366C258.617 163.366 259.955 163.945 260.941 165.102C261.935 166.251 262.433 167.825 262.433 169.823V170.685H252.503V170.98C252.503 172.558 252.954 173.874 253.854 174.929C254.763 175.975 255.903 176.498 257.275 176.498C258.098 176.498 258.823 176.348 259.449 176.048C260.083 175.748 260.658 175.268 261.172 174.607L262.137 175.341C261.005 176.978 259.363 177.797 257.211 177.797ZM256.928 164.678C255.77 164.678 254.793 165.102 253.995 165.951C253.206 166.8 252.726 167.941 252.555 169.373H260.902V169.205C260.859 167.868 260.478 166.779 259.758 165.938C259.037 165.098 258.094 164.678 256.928 164.678ZM270.819 177.797C269.636 177.797 268.564 177.506 267.603 176.923C266.652 176.34 265.91 175.529 265.378 174.492C264.847 173.446 264.581 172.275 264.581 170.98V170.427C264.581 169.09 264.838 167.885 265.352 166.813C265.876 165.741 266.6 164.901 267.526 164.292C268.452 163.675 269.455 163.366 270.536 163.366C272.225 163.366 273.563 163.945 274.549 165.102C275.544 166.251 276.041 167.825 276.041 169.823V170.685H266.111V170.98C266.111 172.558 266.562 173.874 267.462 174.929C268.371 175.975 269.511 176.498 270.883 176.498C271.706 176.498 272.431 176.348 273.057 176.048C273.691 175.748 274.266 175.268 274.78 174.607L275.745 175.341C274.613 176.978 272.971 177.797 270.819 177.797ZM270.536 164.678C269.378 164.678 268.401 165.102 267.603 165.951C266.814 166.8 266.334 167.941 266.163 169.373H274.51V169.205C274.467 167.868 274.086 166.779 273.366 165.938C272.645 165.098 271.702 164.678 270.536 164.678ZM290.228 170.723C290.228 172.893 289.747 174.616 288.787 175.894C287.827 177.163 286.541 177.797 284.929 177.797C283.025 177.797 281.567 177.128 280.555 175.791V182.891H279.025V163.623H280.453L280.53 165.591C281.533 164.108 282.986 163.366 284.89 163.366C286.553 163.366 287.857 163.996 288.8 165.257C289.752 166.517 290.228 168.267 290.228 170.505V170.723ZM288.684 170.453C288.684 168.678 288.32 167.276 287.591 166.247C286.862 165.218 285.846 164.704 284.543 164.704C283.599 164.704 282.789 164.931 282.112 165.385C281.434 165.84 280.916 166.5 280.555 167.366V174.042C280.924 174.839 281.451 175.448 282.137 175.868C282.823 176.288 283.634 176.498 284.568 176.498C285.863 176.498 286.871 175.984 287.591 174.955C288.32 173.917 288.684 172.417 288.684 170.453ZM295.372 177.54H293.829V163.623H295.372V177.54ZM293.559 159.598C293.559 159.306 293.653 159.062 293.842 158.864C294.031 158.659 294.288 158.556 294.614 158.556C294.939 158.556 295.197 158.659 295.385 158.864C295.583 159.062 295.681 159.306 295.681 159.598C295.681 159.889 295.583 160.133 295.385 160.331C295.197 160.528 294.939 160.626 294.614 160.626C294.288 160.626 294.031 160.528 293.842 160.331C293.653 160.133 293.559 159.889 293.559 159.598ZM301.032 163.623L301.083 166.003C301.606 165.145 302.258 164.494 303.038 164.048C303.819 163.593 304.68 163.366 305.624 163.366C307.115 163.366 308.226 163.786 308.955 164.627C309.684 165.467 310.052 166.727 310.061 168.408V177.54H308.53V168.395C308.522 167.152 308.256 166.226 307.733 165.617C307.218 165.008 306.391 164.704 305.251 164.704C304.299 164.704 303.454 165.004 302.717 165.604C301.988 166.196 301.448 166.997 301.096 168.009V177.54H299.565V163.623H301.032ZM313.431 170.453C313.431 168.275 313.911 166.552 314.871 165.283C315.84 164.005 317.152 163.366 318.807 163.366C320.702 163.366 322.143 164.121 323.129 165.63L323.206 163.623H324.646V177.257C324.646 179.049 324.145 180.468 323.142 181.514C322.138 182.561 320.779 183.084 319.064 183.084C318.095 183.084 317.169 182.865 316.286 182.428C315.412 181.999 314.721 181.424 314.215 180.704L315.077 179.778C316.166 181.116 317.461 181.785 318.961 181.785C320.248 181.785 321.251 181.403 321.971 180.64C322.691 179.885 323.064 178.835 323.09 177.489V175.739C322.104 177.111 320.668 177.797 318.781 177.797C317.169 177.797 315.875 177.154 314.897 175.868C313.92 174.582 313.431 172.845 313.431 170.659V170.453ZM314.987 170.723C314.987 172.498 315.343 173.9 316.055 174.929C316.766 175.949 317.77 176.46 319.064 176.46C320.959 176.46 322.301 175.611 323.09 173.913V167.443C322.73 166.552 322.211 165.874 321.534 165.411C320.856 164.94 320.042 164.704 319.09 164.704C317.795 164.704 316.788 165.214 316.067 166.234C315.347 167.246 314.987 168.742 314.987 170.723ZM339.476 175.328L343.541 163.623H345.2L339.258 179.907L338.949 180.627C338.186 182.316 337.007 183.161 335.412 183.161C335.043 183.161 334.649 183.101 334.229 182.981L334.216 181.707L335.013 181.785C335.768 181.785 336.377 181.596 336.84 181.219C337.311 180.85 337.71 180.211 338.036 179.302L338.717 177.424L333.47 163.623H335.155L339.476 175.328ZM346.538 170.376C346.538 169.038 346.795 167.833 347.309 166.762C347.832 165.69 348.566 164.858 349.509 164.266C350.461 163.666 351.537 163.366 352.737 163.366C354.589 163.366 356.09 164.018 357.239 165.321C358.388 166.616 358.962 168.335 358.962 170.479V170.8C358.962 172.147 358.701 173.36 358.178 174.44C357.663 175.512 356.934 176.34 355.991 176.923C355.048 177.506 353.972 177.797 352.763 177.797C350.919 177.797 349.419 177.15 348.261 175.855C347.112 174.552 346.538 172.828 346.538 170.685V170.376ZM348.081 170.8C348.081 172.464 348.51 173.831 349.367 174.903C350.233 175.967 351.365 176.498 352.763 176.498C354.152 176.498 355.275 175.967 356.133 174.903C356.999 173.831 357.432 172.421 357.432 170.672V170.376C357.432 169.313 357.235 168.339 356.84 167.456C356.446 166.573 355.893 165.891 355.181 165.411C354.469 164.922 353.655 164.678 352.737 164.678C351.365 164.678 350.246 165.218 349.38 166.299C348.514 167.37 348.081 168.777 348.081 170.517V170.8ZM371.104 175.778C370.178 177.124 368.699 177.797 366.667 177.797C365.183 177.797 364.056 177.369 363.284 176.511C362.512 175.645 362.118 174.367 362.101 172.678V163.623H363.631V172.485C363.631 175.135 364.703 176.46 366.847 176.46C369.076 176.46 370.487 175.538 371.078 173.694V163.623H372.622V177.54H371.13L371.104 175.778ZM383.066 164.935C382.74 164.875 382.393 164.845 382.024 164.845C381.064 164.845 380.249 165.115 379.58 165.656C378.92 166.187 378.448 166.963 378.165 167.984V177.54H376.635V163.623H378.14L378.165 165.836C378.98 164.189 380.288 163.366 382.088 163.366C382.517 163.366 382.856 163.422 383.104 163.533L383.066 164.935ZM400.249 174.003C400.249 173.24 399.941 172.627 399.323 172.164C398.715 171.701 397.793 171.341 396.558 171.083C395.323 170.817 394.363 170.517 393.677 170.183C393 169.84 392.494 169.424 392.159 168.935C391.833 168.447 391.67 167.855 391.67 167.16C391.67 166.063 392.129 165.158 393.047 164.446C393.964 163.726 395.139 163.366 396.571 163.366C398.123 163.366 399.366 163.752 400.301 164.524C401.244 165.287 401.716 166.286 401.716 167.521H400.172C400.172 166.706 399.829 166.029 399.143 165.488C398.466 164.948 397.608 164.678 396.571 164.678C395.559 164.678 394.744 164.905 394.127 165.36C393.518 165.806 393.214 166.389 393.214 167.109C393.214 167.803 393.467 168.344 393.973 168.73C394.487 169.107 395.418 169.454 396.764 169.771C398.119 170.089 399.13 170.427 399.799 170.787C400.477 171.148 400.978 171.581 401.304 172.087C401.63 172.592 401.793 173.206 401.793 173.926C401.793 175.101 401.317 176.039 400.365 176.743C399.422 177.446 398.187 177.797 396.661 177.797C395.04 177.797 393.724 177.407 392.712 176.627C391.709 175.838 391.207 174.843 391.207 173.643H392.751C392.811 174.543 393.188 175.246 393.883 175.752C394.586 176.25 395.512 176.498 396.661 176.498C397.733 176.498 398.599 176.262 399.259 175.791C399.919 175.319 400.249 174.723 400.249 174.003ZM410.655 177.797C409.472 177.797 408.4 177.506 407.439 176.923C406.488 176.34 405.746 175.529 405.214 174.492C404.683 173.446 404.417 172.275 404.417 170.98V170.427C404.417 169.09 404.674 167.885 405.188 166.813C405.712 165.741 406.436 164.901 407.362 164.292C408.288 163.675 409.291 163.366 410.372 163.366C412.061 163.366 413.399 163.945 414.385 165.102C415.379 166.251 415.877 167.825 415.877 169.823V170.685H405.947V170.98C405.947 172.558 406.397 173.874 407.298 174.929C408.207 175.975 409.347 176.498 410.719 176.498C411.542 176.498 412.267 176.348 412.893 176.048C413.527 175.748 414.102 175.268 414.616 174.607L415.581 175.341C414.449 176.978 412.807 177.797 410.655 177.797ZM410.372 164.678C409.214 164.678 408.237 165.102 407.439 165.951C406.65 166.8 406.17 167.941 405.999 169.373H414.346V169.205C414.303 167.868 413.922 166.779 413.202 165.938C412.481 165.098 411.538 164.678 410.372 164.678ZM425.305 164.935C424.979 164.875 424.632 164.845 424.263 164.845C423.302 164.845 422.488 165.115 421.819 165.656C421.159 166.187 420.687 166.963 420.404 167.984V177.54H418.874V163.623H420.379L420.404 165.836C421.219 164.189 422.526 163.366 424.327 163.366C424.756 163.366 425.095 163.422 425.343 163.533L425.305 164.935ZM432.314 175.418L436.546 163.623H438.128L432.932 177.54H431.684L426.462 163.623H428.044L432.314 175.418ZM445.871 177.797C444.688 177.797 443.616 177.506 442.656 176.923C441.704 176.34 440.962 175.529 440.43 174.492C439.899 173.446 439.633 172.275 439.633 170.98V170.427C439.633 169.09 439.89 167.885 440.405 166.813C440.928 165.741 441.652 164.901 442.578 164.292C443.504 163.675 444.508 163.366 445.588 163.366C447.277 163.366 448.615 163.945 449.601 165.102C450.596 166.251 451.093 167.825 451.093 169.823V170.685H441.164V170.98C441.164 172.558 441.614 173.874 442.514 174.929C443.423 175.975 444.563 176.498 445.935 176.498C446.759 176.498 447.483 176.348 448.109 176.048C448.744 175.748 449.318 175.268 449.833 174.607L450.797 175.341C449.665 176.978 448.023 177.797 445.871 177.797ZM445.588 164.678C444.43 164.678 443.453 165.102 442.656 165.951C441.867 166.8 441.386 167.941 441.215 169.373H449.562V169.205C449.52 167.868 449.138 166.779 448.418 165.938C447.697 165.098 446.754 164.678 445.588 164.678ZM460.521 164.935C460.195 164.875 459.848 164.845 459.479 164.845C458.519 164.845 457.704 165.115 457.035 165.656C456.375 166.187 455.903 166.963 455.62 167.984V177.54H454.09V163.623H455.595L455.62 165.836C456.435 164.189 457.743 163.366 459.543 163.366C459.972 163.366 460.311 163.422 460.559 163.533L460.521 164.935ZM332.84 205.003C332.84 204.24 332.531 203.627 331.913 203.164C331.305 202.701 330.383 202.341 329.148 202.083C327.913 201.817 326.953 201.517 326.267 201.183C325.59 200.84 325.084 200.424 324.749 199.935C324.424 199.447 324.261 198.855 324.261 198.16C324.261 197.063 324.719 196.158 325.637 195.446C326.554 194.726 327.729 194.366 329.161 194.366C330.713 194.366 331.956 194.752 332.891 195.524C333.834 196.287 334.306 197.286 334.306 198.521H332.762C332.762 197.706 332.419 197.029 331.733 196.488C331.056 195.948 330.199 195.678 329.161 195.678C328.149 195.678 327.335 195.905 326.717 196.36C326.108 196.806 325.804 197.389 325.804 198.109C325.804 198.803 326.057 199.344 326.563 199.73C327.077 200.107 328.008 200.454 329.354 200.771C330.709 201.089 331.721 201.427 332.389 201.787C333.067 202.148 333.568 202.581 333.894 203.087C334.22 203.592 334.383 204.206 334.383 204.926C334.383 206.101 333.907 207.039 332.955 207.743C332.012 208.446 330.777 208.797 329.251 208.797C327.63 208.797 326.314 208.407 325.302 207.627C324.299 206.838 323.798 205.843 323.798 204.643H325.341C325.401 205.543 325.778 206.246 326.473 206.752C327.176 207.25 328.102 207.498 329.251 207.498C330.323 207.498 331.189 207.262 331.849 206.791C332.509 206.319 332.84 205.723 332.84 205.003ZM346.641 208.54C346.486 208.103 346.388 207.455 346.345 206.598C345.804 207.301 345.114 207.845 344.274 208.231C343.442 208.609 342.559 208.797 341.624 208.797C340.287 208.797 339.202 208.424 338.37 207.678C337.547 206.932 337.135 205.989 337.135 204.849C337.135 203.494 337.697 202.422 338.82 201.633C339.952 200.844 341.526 200.45 343.541 200.45H346.332V198.868C346.332 197.873 346.023 197.093 345.406 196.527C344.797 195.952 343.905 195.665 342.73 195.665C341.659 195.665 340.771 195.94 340.068 196.488C339.365 197.037 339.013 197.697 339.013 198.469L337.47 198.456C337.47 197.35 337.984 196.394 339.013 195.588C340.042 194.773 341.307 194.366 342.808 194.366C344.36 194.366 345.582 194.756 346.473 195.537C347.374 196.308 347.837 197.389 347.862 198.778V205.363C347.862 206.709 348.004 207.717 348.287 208.386V208.54H346.641ZM341.804 207.434C342.833 207.434 343.751 207.185 344.557 206.688C345.371 206.191 345.963 205.526 346.332 204.694V201.633H343.579C342.044 201.65 340.844 201.933 339.978 202.482C339.112 203.022 338.679 203.768 338.679 204.72C338.679 205.5 338.966 206.148 339.541 206.662C340.124 207.177 340.878 207.434 341.804 207.434ZM353.084 208.54V195.884H350.782V194.623H353.084V192.938C353.084 191.515 353.445 190.422 354.165 189.659C354.894 188.895 355.905 188.514 357.2 188.514C357.783 188.514 358.328 188.587 358.834 188.733L358.718 190.019C358.289 189.916 357.822 189.864 357.316 189.864C356.467 189.864 355.807 190.13 355.335 190.662C354.864 191.185 354.628 191.931 354.628 192.9V194.623H357.946V195.884H354.628V208.54H353.084ZM365.779 208.797C364.596 208.797 363.524 208.506 362.564 207.923C361.612 207.34 360.87 206.529 360.339 205.492C359.807 204.446 359.541 203.275 359.541 201.98V201.427C359.541 200.09 359.798 198.885 360.313 197.813C360.836 196.741 361.56 195.901 362.487 195.292C363.413 194.675 364.416 194.366 365.496 194.366C367.185 194.366 368.523 194.945 369.509 196.102C370.504 197.251 371.001 198.825 371.001 200.823V201.685H361.072V201.98C361.072 203.558 361.522 204.874 362.422 205.929C363.331 206.975 364.472 207.498 365.844 207.498C366.667 207.498 367.391 207.348 368.017 207.048C368.652 206.748 369.226 206.268 369.741 205.607L370.705 206.341C369.574 207.978 367.931 208.797 365.779 208.797ZM365.496 195.678C364.339 195.678 363.361 196.102 362.564 196.951C361.775 197.8 361.295 198.941 361.123 200.373H369.471V200.205C369.428 198.868 369.046 197.779 368.326 196.938C367.606 196.098 366.662 195.678 365.496 195.678Z" fill="black"/>
<path d="M103.965 120.342C101.103 117.273 96.2946 117.106 93.2258 119.968C90.1571 122.831 89.9899 127.639 92.8523 130.707L103.965 120.342ZM114.184 142.436L108.627 147.619C110.065 149.16 112.077 150.035 114.184 150.035C116.291 150.035 118.303 149.16 119.74 147.619L114.184 142.436ZM152.548 112.448C155.41 109.379 155.243 104.571 152.174 101.708C149.106 98.8458 144.297 99.013 141.435 102.082L152.548 112.448ZM92.8523 130.707L108.627 147.619L119.74 137.253L103.965 120.342L92.8523 130.707ZM119.74 147.619L152.548 112.448L141.435 102.082L108.627 137.253L119.74 147.619ZM177.459 125.034C177.459 158.366 152.376 184.47 122.529 184.47V199.667C161.748 199.667 192.656 165.746 192.656 125.034H177.459ZM122.529 184.47C92.6808 184.47 67.5985 158.366 67.5985 125.034H52.4015C52.4015 165.746 83.3092 199.667 122.529 199.667V184.47ZM67.5985 125.034C67.5985 91.7022 92.6808 65.5985 122.529 65.5985V50.4015C83.3092 50.4015 52.4015 84.3224 52.4015 125.034H67.5985ZM122.529 65.5985C152.376 65.5985 177.459 91.7022 177.459 125.034H192.656C192.656 84.3224 161.748 50.4015 122.529 50.4015V65.5985Z" fill="url(#paint1_linear)"/>
<path d="M103.965 120.342C101.103 117.273 96.2946 117.106 93.2258 119.968C90.1571 122.831 89.9899 127.639 92.8523 130.707L103.965 120.342ZM114.184 142.436L108.627 147.619C110.065 149.16 112.077 150.035 114.184 150.035C116.291 150.035 118.303 149.16 119.74 147.619L114.184 142.436ZM152.548 112.448C155.41 109.379 155.243 104.571 152.174 101.708C149.106 98.8458 144.297 99.013 141.435 102.082L152.548 112.448ZM92.8523 130.707L108.627 147.619L119.74 137.253L103.965 120.342L92.8523 130.707ZM119.74 147.619L152.548 112.448L141.435 102.082L108.627 137.253L119.74 147.619ZM177.459 125.034C177.459 158.366 152.376 184.47 122.529 184.47V199.667C161.748 199.667 192.656 165.746 192.656 125.034H177.459ZM122.529 184.47C92.6808 184.47 67.5985 158.366 67.5985 125.034H52.4015C52.4015 165.746 83.3092 199.667 122.529 199.667V184.47ZM67.5985 125.034C67.5985 91.7022 92.6808 65.5985 122.529 65.5985V50.4015C83.3092 50.4015 52.4015 84.3224 52.4015 125.034H67.5985ZM122.529 65.5985C152.376 65.5985 177.459 91.7022 177.459 125.034H192.656C192.656 84.3224 161.748 50.4015 122.529 50.4015V65.5985Z" fill="black" fill-opacity="0.15"/>
<path d="M249.224 69.8102C248.815 74.1326 247.22 77.5089 244.437 79.9391C241.655 82.3507 237.954 83.5565 233.335 83.5565C230.107 83.5565 227.259 82.7959 224.792 81.2748C222.343 79.735 220.451 77.5553 219.115 74.7355C217.78 71.9158 217.084 68.6415 217.028 64.9128V61.1284C217.028 57.3069 217.705 53.9399 219.06 51.0274C220.414 48.1148 222.352 45.8702 224.875 44.2933C227.417 42.7165 230.348 41.9281 233.669 41.9281C238.139 41.9281 241.738 43.1432 244.465 45.5734C247.192 48.0035 248.778 51.4355 249.224 55.8692H242.211C241.877 52.9567 241.024 50.8604 239.651 49.5804C238.297 48.2818 236.303 47.6325 233.669 47.6325C230.608 47.6325 228.252 48.7549 226.601 50.9995C224.968 53.2256 224.133 56.4999 224.096 60.8223V64.4119C224.096 68.7899 224.875 72.1291 226.434 74.4294C228.01 76.7298 230.311 77.8799 233.335 77.8799C236.099 77.8799 238.176 77.2585 239.568 76.0155C240.959 74.7726 241.84 72.7042 242.211 69.8102H249.224ZM278.219 73.5668H262.525L259.241 83H251.923L267.227 42.4846H273.544L288.876 83H281.53L278.219 73.5668ZM264.5 67.8902H276.243L270.372 51.083L264.5 67.8902ZM300.536 67.9459V83H293.496V42.4846H308.995C313.521 42.4846 317.111 43.6626 319.764 46.0186C322.435 48.3746 323.771 51.4911 323.771 55.3683C323.771 59.3382 322.463 62.4269 319.847 64.6345C317.25 66.8421 313.605 67.9459 308.911 67.9459H300.536ZM300.536 62.2971H308.995C311.499 62.2971 313.41 61.7127 314.727 60.544C316.044 59.3568 316.703 57.6501 316.703 55.4239C316.703 53.2349 316.035 51.4911 314.699 50.1926C313.364 48.8754 311.527 48.1983 309.19 48.1612H300.536V62.2971ZM359.222 48.1612H346.588V83H339.604V48.1612H327.082V42.4846H359.222V48.1612ZM394.7 69.8102C394.292 74.1326 392.697 77.5089 389.914 79.9391C387.132 82.3507 383.431 83.5565 378.812 83.5565C375.584 83.5565 372.736 82.7959 370.269 81.2748C367.82 79.735 365.928 77.5553 364.592 74.7355C363.257 71.9158 362.561 68.6415 362.505 64.9128V61.1284C362.505 57.3069 363.182 53.9399 364.537 51.0274C365.891 48.1148 367.829 45.8702 370.352 44.2933C372.894 42.7165 375.825 41.9281 379.145 41.9281C383.616 41.9281 387.215 43.1432 389.942 45.5734C392.669 48.0035 394.255 51.4355 394.7 55.8692H387.688C387.354 52.9567 386.501 50.8604 385.128 49.5804C383.774 48.2818 381.78 47.6325 379.145 47.6325C376.085 47.6325 373.729 48.7549 372.078 50.9995C370.445 53.2256 369.61 56.4999 369.573 60.8223V64.4119C369.573 68.7899 370.352 72.1291 371.911 74.4294C373.487 76.7298 375.788 77.8799 378.812 77.8799C381.576 77.8799 383.653 77.2585 385.045 76.0155C386.436 74.7726 387.317 72.7042 387.688 69.8102H394.7ZM433.185 83H426.172V64.9963H408.057V83H401.017V42.4846H408.057V59.3475H426.172V42.4846H433.185V83ZM464.712 73.5668H449.018L445.734 83H438.416L453.72 42.4846H460.037L475.37 83H468.023L464.712 73.5668ZM450.993 67.8902H462.736L456.865 51.083L450.993 67.8902ZM231.399 134.159L240.551 105.986H247.427L234.466 142H228.406L215.495 105.986H222.346L231.399 134.159ZM261.625 142.495C257.816 142.495 254.724 141.299 252.349 138.908C249.991 136.501 248.812 133.302 248.812 129.311V128.569C248.812 125.898 249.324 123.515 250.346 121.421C251.385 119.31 252.836 117.669 254.699 116.499C256.563 115.328 258.64 114.742 260.932 114.742C264.577 114.742 267.388 115.905 269.367 118.23C271.362 120.555 272.36 123.845 272.36 128.099V130.523H254.872C255.054 132.733 255.787 134.481 257.074 135.767C258.376 137.053 260.009 137.696 261.971 137.696C264.725 137.696 266.968 136.583 268.699 134.357L271.939 137.449C270.867 139.048 269.433 140.293 267.635 141.184C265.855 142.058 263.851 142.495 261.625 142.495ZM260.908 119.566C259.259 119.566 257.923 120.143 256.901 121.297C255.895 122.451 255.252 124.059 254.971 126.12H266.423V125.675C266.291 123.663 265.756 122.146 264.816 121.124C263.876 120.085 262.573 119.566 260.908 119.566ZM291.059 120.728C290.268 120.596 289.451 120.53 288.61 120.53C285.857 120.53 284.002 121.586 283.045 123.696V142H277.035V115.237H282.773L282.921 118.23C284.373 115.905 286.384 114.742 288.957 114.742C289.814 114.742 290.523 114.858 291.084 115.089L291.059 120.728ZM301.25 142H295.239V115.237H301.25V142ZM294.868 108.287C294.868 107.363 295.157 106.596 295.734 105.986C296.328 105.376 297.169 105.071 298.257 105.071C299.345 105.071 300.186 105.376 300.78 105.986C301.373 106.596 301.67 107.363 301.67 108.287C301.67 109.194 301.373 109.952 300.78 110.562C300.186 111.156 299.345 111.453 298.257 111.453C297.169 111.453 296.328 111.156 295.734 110.562C295.157 109.952 294.868 109.194 294.868 108.287ZM309.412 142V119.689H305.331V115.237H309.412V113.407C309.429 111.313 309.874 109.515 310.748 108.015C311.622 106.514 312.859 105.384 314.458 104.626C316.058 103.867 317.979 103.488 320.221 103.488C321.54 103.488 322.802 103.628 324.006 103.909C325.226 104.189 326.487 104.543 327.79 104.972L326.875 109.944C324.599 109.152 322.522 108.757 320.642 108.757C318.811 108.757 317.484 109.161 316.66 109.969C315.835 110.76 315.423 111.956 315.423 113.555V115.237H320.691V119.689H315.423V142H309.412ZM330.635 142H324.624V115.237H330.635V142ZM348.295 137.696C349.796 137.696 351.041 137.259 352.03 136.385C353.019 135.511 353.547 134.431 353.613 133.145H359.277C359.211 134.81 358.692 136.369 357.719 137.82C356.746 139.254 355.427 140.392 353.762 141.233C352.096 142.074 350.299 142.495 348.369 142.495C344.626 142.495 341.658 141.283 339.465 138.859C337.272 136.435 336.175 133.087 336.175 128.816V128.198C336.175 124.125 337.263 120.868 339.44 118.428C341.617 115.971 344.585 114.742 348.345 114.742C351.527 114.742 354.116 115.674 356.111 117.537C358.123 119.384 359.178 121.817 359.277 124.834H353.613C353.547 123.301 353.019 122.039 352.03 121.05C351.057 120.06 349.812 119.566 348.295 119.566C346.349 119.566 344.849 120.275 343.793 121.693C342.738 123.094 342.202 125.23 342.186 128.099V129.064C342.186 131.966 342.705 134.134 343.744 135.569C344.799 136.987 346.316 137.696 348.295 137.696ZM379.807 142C379.543 141.489 379.312 140.656 379.115 139.502C377.202 141.497 374.86 142.495 372.09 142.495C369.402 142.495 367.209 141.728 365.51 140.194C363.812 138.661 362.963 136.764 362.963 134.505C362.963 131.653 364.018 129.468 366.129 127.951C368.256 126.417 371.29 125.65 375.231 125.65H378.917V123.894C378.917 122.509 378.529 121.404 377.754 120.58C376.979 119.739 375.8 119.318 374.217 119.318C372.848 119.318 371.727 119.665 370.853 120.357C369.979 121.033 369.542 121.899 369.542 122.954H363.532C363.532 121.487 364.018 120.118 364.991 118.848C365.964 117.562 367.283 116.556 368.949 115.831C370.631 115.105 372.502 114.742 374.563 114.742C377.696 114.742 380.195 115.534 382.058 117.117C383.921 118.683 384.878 120.893 384.927 123.746V135.816C384.927 138.224 385.265 140.145 385.941 141.58V142H379.807ZM373.203 137.671C374.39 137.671 375.503 137.383 376.542 136.806C377.597 136.229 378.389 135.454 378.917 134.481V129.435H375.676C373.45 129.435 371.777 129.822 370.655 130.597C369.534 131.372 368.973 132.469 368.973 133.887C368.973 135.041 369.353 135.965 370.111 136.657C370.886 137.333 371.917 137.671 373.203 137.671ZM398.754 108.732V115.237H403.478V119.689H398.754V134.629C398.754 135.651 398.952 136.393 399.348 136.855C399.76 137.3 400.485 137.523 401.524 137.523C402.217 137.523 402.918 137.441 403.627 137.276V141.926C402.258 142.305 400.939 142.495 399.669 142.495C395.052 142.495 392.743 139.947 392.743 134.852V119.689H388.341V115.237H392.743V108.732H398.754ZM414.485 142H408.475V115.237H414.485V142ZM408.104 108.287C408.104 107.363 408.392 106.596 408.969 105.986C409.563 105.376 410.404 105.071 411.492 105.071C412.581 105.071 413.422 105.376 414.015 105.986C414.609 106.596 414.906 107.363 414.906 108.287C414.906 109.194 414.609 109.952 414.015 110.562C413.422 111.156 412.581 111.453 411.492 111.453C410.404 111.453 409.563 111.156 408.969 110.562C408.392 109.952 408.104 109.194 408.104 108.287ZM419.927 128.371C419.927 125.749 420.446 123.391 421.485 121.297C422.524 119.186 423.983 117.57 425.863 116.449C427.743 115.311 429.903 114.742 432.344 114.742C435.955 114.742 438.882 115.905 441.124 118.23C443.383 120.555 444.604 123.639 444.785 127.481L444.81 128.891C444.81 131.529 444.299 133.887 443.276 135.965C442.27 138.042 440.819 139.65 438.923 140.788C437.043 141.926 434.866 142.495 432.393 142.495C428.617 142.495 425.591 141.241 423.315 138.735C421.056 136.212 419.927 132.856 419.927 128.668V128.371ZM425.937 128.891C425.937 131.644 426.506 133.805 427.644 135.371C428.782 136.921 430.365 137.696 432.393 137.696C434.421 137.696 435.996 136.905 437.117 135.322C438.255 133.739 438.824 131.422 438.824 128.371C438.824 125.667 438.239 123.523 437.068 121.94C435.914 120.357 434.339 119.566 432.344 119.566C430.381 119.566 428.823 120.349 427.669 121.915C426.514 123.465 425.937 125.791 425.937 128.891ZM455.47 115.237L455.644 118.329C457.622 115.938 460.22 114.742 463.435 114.742C469.009 114.742 471.845 117.933 471.944 124.315V142H465.933V124.661C465.933 122.963 465.562 121.709 464.82 120.901C464.095 120.077 462.899 119.665 461.234 119.665C458.81 119.665 457.004 120.761 455.817 122.954V142H449.806V115.237H455.47Z" fill="url(#paint2_linear)"/>
<path d="M249.224 69.8102C248.815 74.1326 247.22 77.5089 244.437 79.9391C241.655 82.3507 237.954 83.5565 233.335 83.5565C230.107 83.5565 227.259 82.7959 224.792 81.2748C222.343 79.735 220.451 77.5553 219.115 74.7355C217.78 71.9158 217.084 68.6415 217.028 64.9128V61.1284C217.028 57.3069 217.705 53.9399 219.06 51.0274C220.414 48.1148 222.352 45.8702 224.875 44.2933C227.417 42.7165 230.348 41.9281 233.669 41.9281C238.139 41.9281 241.738 43.1432 244.465 45.5734C247.192 48.0035 248.778 51.4355 249.224 55.8692H242.211C241.877 52.9567 241.024 50.8604 239.651 49.5804C238.297 48.2818 236.303 47.6325 233.669 47.6325C230.608 47.6325 228.252 48.7549 226.601 50.9995C224.968 53.2256 224.133 56.4999 224.096 60.8223V64.4119C224.096 68.7899 224.875 72.1291 226.434 74.4294C228.01 76.7298 230.311 77.8799 233.335 77.8799C236.099 77.8799 238.176 77.2585 239.568 76.0155C240.959 74.7726 241.84 72.7042 242.211 69.8102H249.224ZM278.219 73.5668H262.525L259.241 83H251.923L267.227 42.4846H273.544L288.876 83H281.53L278.219 73.5668ZM264.5 67.8902H276.243L270.372 51.083L264.5 67.8902ZM300.536 67.9459V83H293.496V42.4846H308.995C313.521 42.4846 317.111 43.6626 319.764 46.0186C322.435 48.3746 323.771 51.4911 323.771 55.3683C323.771 59.3382 322.463 62.4269 319.847 64.6345C317.25 66.8421 313.605 67.9459 308.911 67.9459H300.536ZM300.536 62.2971H308.995C311.499 62.2971 313.41 61.7127 314.727 60.544C316.044 59.3568 316.703 57.6501 316.703 55.4239C316.703 53.2349 316.035 51.4911 314.699 50.1926C313.364 48.8754 311.527 48.1983 309.19 48.1612H300.536V62.2971ZM359.222 48.1612H346.588V83H339.604V48.1612H327.082V42.4846H359.222V48.1612ZM394.7 69.8102C394.292 74.1326 392.697 77.5089 389.914 79.9391C387.132 82.3507 383.431 83.5565 378.812 83.5565C375.584 83.5565 372.736 82.7959 370.269 81.2748C367.82 79.735 365.928 77.5553 364.592 74.7355C363.257 71.9158 362.561 68.6415 362.505 64.9128V61.1284C362.505 57.3069 363.182 53.9399 364.537 51.0274C365.891 48.1148 367.829 45.8702 370.352 44.2933C372.894 42.7165 375.825 41.9281 379.145 41.9281C383.616 41.9281 387.215 43.1432 389.942 45.5734C392.669 48.0035 394.255 51.4355 394.7 55.8692H387.688C387.354 52.9567 386.501 50.8604 385.128 49.5804C383.774 48.2818 381.78 47.6325 379.145 47.6325C376.085 47.6325 373.729 48.7549 372.078 50.9995C370.445 53.2256 369.61 56.4999 369.573 60.8223V64.4119C369.573 68.7899 370.352 72.1291 371.911 74.4294C373.487 76.7298 375.788 77.8799 378.812 77.8799C381.576 77.8799 383.653 77.2585 385.045 76.0155C386.436 74.7726 387.317 72.7042 387.688 69.8102H394.7ZM433.185 83H426.172V64.9963H408.057V83H401.017V42.4846H408.057V59.3475H426.172V42.4846H433.185V83ZM464.712 73.5668H449.018L445.734 83H438.416L453.72 42.4846H460.037L475.37 83H468.023L464.712 73.5668ZM450.993 67.8902H462.736L456.865 51.083L450.993 67.8902ZM231.399 134.159L240.551 105.986H247.427L234.466 142H228.406L215.495 105.986H222.346L231.399 134.159ZM261.625 142.495C257.816 142.495 254.724 141.299 252.349 138.908C249.991 136.501 248.812 133.302 248.812 129.311V128.569C248.812 125.898 249.324 123.515 250.346 121.421C251.385 119.31 252.836 117.669 254.699 116.499C256.563 115.328 258.64 114.742 260.932 114.742C264.577 114.742 267.388 115.905 269.367 118.23C271.362 120.555 272.36 123.845 272.36 128.099V130.523H254.872C255.054 132.733 255.787 134.481 257.074 135.767C258.376 137.053 260.009 137.696 261.971 137.696C264.725 137.696 266.968 136.583 268.699 134.357L271.939 137.449C270.867 139.048 269.433 140.293 267.635 141.184C265.855 142.058 263.851 142.495 261.625 142.495ZM260.908 119.566C259.259 119.566 257.923 120.143 256.901 121.297C255.895 122.451 255.252 124.059 254.971 126.12H266.423V125.675C266.291 123.663 265.756 122.146 264.816 121.124C263.876 120.085 262.573 119.566 260.908 119.566ZM291.059 120.728C290.268 120.596 289.451 120.53 288.61 120.53C285.857 120.53 284.002 121.586 283.045 123.696V142H277.035V115.237H282.773L282.921 118.23C284.373 115.905 286.384 114.742 288.957 114.742C289.814 114.742 290.523 114.858 291.084 115.089L291.059 120.728ZM301.25 142H295.239V115.237H301.25V142ZM294.868 108.287C294.868 107.363 295.157 106.596 295.734 105.986C296.328 105.376 297.169 105.071 298.257 105.071C299.345 105.071 300.186 105.376 300.78 105.986C301.373 106.596 301.67 107.363 301.67 108.287C301.67 109.194 301.373 109.952 300.78 110.562C300.186 111.156 299.345 111.453 298.257 111.453C297.169 111.453 296.328 111.156 295.734 110.562C295.157 109.952 294.868 109.194 294.868 108.287ZM309.412 142V119.689H305.331V115.237H309.412V113.407C309.429 111.313 309.874 109.515 310.748 108.015C311.622 106.514 312.859 105.384 314.458 104.626C316.058 103.867 317.979 103.488 320.221 103.488C321.54 103.488 322.802 103.628 324.006 103.909C325.226 104.189 326.487 104.543 327.79 104.972L326.875 109.944C324.599 109.152 322.522 108.757 320.642 108.757C318.811 108.757 317.484 109.161 316.66 109.969C315.835 110.76 315.423 111.956 315.423 113.555V115.237H320.691V119.689H315.423V142H309.412ZM330.635 142H324.624V115.237H330.635V142ZM348.295 137.696C349.796 137.696 351.041 137.259 352.03 136.385C353.019 135.511 353.547 134.431 353.613 133.145H359.277C359.211 134.81 358.692 136.369 357.719 137.82C356.746 139.254 355.427 140.392 353.762 141.233C352.096 142.074 350.299 142.495 348.369 142.495C344.626 142.495 341.658 141.283 339.465 138.859C337.272 136.435 336.175 133.087 336.175 128.816V128.198C336.175 124.125 337.263 120.868 339.44 118.428C341.617 115.971 344.585 114.742 348.345 114.742C351.527 114.742 354.116 115.674 356.111 117.537C358.123 119.384 359.178 121.817 359.277 124.834H353.613C353.547 123.301 353.019 122.039 352.03 121.05C351.057 120.06 349.812 119.566 348.295 119.566C346.349 119.566 344.849 120.275 343.793 121.693C342.738 123.094 342.202 125.23 342.186 128.099V129.064C342.186 131.966 342.705 134.134 343.744 135.569C344.799 136.987 346.316 137.696 348.295 137.696ZM379.807 142C379.543 141.489 379.312 140.656 379.115 139.502C377.202 141.497 374.86 142.495 372.09 142.495C369.402 142.495 367.209 141.728 365.51 140.194C363.812 138.661 362.963 136.764 362.963 134.505C362.963 131.653 364.018 129.468 366.129 127.951C368.256 126.417 371.29 125.65 375.231 125.65H378.917V123.894C378.917 122.509 378.529 121.404 377.754 120.58C376.979 119.739 375.8 119.318 374.217 119.318C372.848 119.318 371.727 119.665 370.853 120.357C369.979 121.033 369.542 121.899 369.542 122.954H363.532C363.532 121.487 364.018 120.118 364.991 118.848C365.964 117.562 367.283 116.556 368.949 115.831C370.631 115.105 372.502 114.742 374.563 114.742C377.696 114.742 380.195 115.534 382.058 117.117C383.921 118.683 384.878 120.893 384.927 123.746V135.816C384.927 138.224 385.265 140.145 385.941 141.58V142H379.807ZM373.203 137.671C374.39 137.671 375.503 137.383 376.542 136.806C377.597 136.229 378.389 135.454 378.917 134.481V129.435H375.676C373.45 129.435 371.777 129.822 370.655 130.597C369.534 131.372 368.973 132.469 368.973 133.887C368.973 135.041 369.353 135.965 370.111 136.657C370.886 137.333 371.917 137.671 373.203 137.671ZM398.754 108.732V115.237H403.478V119.689H398.754V134.629C398.754 135.651 398.952 136.393 399.348 136.855C399.76 137.3 400.485 137.523 401.524 137.523C402.217 137.523 402.918 137.441 403.627 137.276V141.926C402.258 142.305 400.939 142.495 399.669 142.495C395.052 142.495 392.743 139.947 392.743 134.852V119.689H388.341V115.237H392.743V108.732H398.754ZM414.485 142H408.475V115.237H414.485V142ZM408.104 108.287C408.104 107.363 408.392 106.596 408.969 105.986C409.563 105.376 410.404 105.071 411.492 105.071C412.581 105.071 413.422 105.376 414.015 105.986C414.609 106.596 414.906 107.363 414.906 108.287C414.906 109.194 414.609 109.952 414.015 110.562C413.422 111.156 412.581 111.453 411.492 111.453C410.404 111.453 409.563 111.156 408.969 110.562C408.392 109.952 408.104 109.194 408.104 108.287ZM419.927 128.371C419.927 125.749 420.446 123.391 421.485 121.297C422.524 119.186 423.983 117.57 425.863 116.449C427.743 115.311 429.903 114.742 432.344 114.742C435.955 114.742 438.882 115.905 441.124 118.23C443.383 120.555 444.604 123.639 444.785 127.481L444.81 128.891C444.81 131.529 444.299 133.887 443.276 135.965C442.27 138.042 440.819 139.65 438.923 140.788C437.043 141.926 434.866 142.495 432.393 142.495C428.617 142.495 425.591 141.241 423.315 138.735C421.056 136.212 419.927 132.856 419.927 128.668V128.371ZM425.937 128.891C425.937 131.644 426.506 133.805 427.644 135.371C428.782 136.921 430.365 137.696 432.393 137.696C434.421 137.696 435.996 136.905 437.117 135.322C438.255 133.739 438.824 131.422 438.824 128.371C438.824 125.667 438.239 123.523 437.068 121.94C435.914 120.357 434.339 119.566 432.344 119.566C430.381 119.566 428.823 120.349 427.669 121.915C426.514 123.465 425.937 125.791 425.937 128.891ZM455.47 115.237L455.644 118.329C457.622 115.938 460.22 114.742 463.435 114.742C469.009 114.742 471.845 117.933 471.944 124.315V142H465.933V124.661C465.933 122.963 465.562 121.709 464.82 120.901C464.095 120.077 462.899 119.665 461.234 119.665C458.81 119.665 457.004 120.761 455.817 122.954V142H449.806V115.237H455.47Z" fill="black" fill-opacity="0.15"/>
<defs>
<filter id="filter0_bd" x="0.0161667" y="0.0161667" width="549.968" height="249.968" filterUnits="userSpaceOnUse" color-interpolation-filters="sRGB">
<feFlood flood-opacity="0" result="BackgroundImageFix"/>
<feGaussianBlur in="BackgroundImage" stdDeviation="11.651"/>
<feComposite in2="SourceAlpha" operator="in" result="effect1_backgroundBlur"/>
<feColorMatrix in="SourceAlpha" type="matrix" values="0 0 0 0 0 0 0 0 0 0 0 0 0 0 0 0 0 0 127 0" result="hardAlpha"/>
<feMorphology radius="4.16397" operator="dilate" in="SourceAlpha" result="effect2_dropShadow"/>
<feOffset/>
<feGaussianBlur stdDeviation="10.4099"/>
<feComposite in2="hardAlpha" operator="out"/>
<feColorMatrix type="matrix" values="0 0 0 0 0 0 0 0 0 0 0 0 0 0 0 0 0 0 0.5 0"/>
<feBlend mode="normal" in2="effect1_backgroundBlur" result="effect2_dropShadow"/>
<feBlend mode="normal" in="SourceGraphic" in2="effect2_dropShadow" result="shape"/>
</filter>
<linearGradient id="paint0_linear" x1="25" y1="25" x2="512.876" y2="251.156" gradientUnits="userSpaceOnUse">
<stop stop-color="white" stop-opacity="0.9"/>
<stop offset="1" stop-color="white" stop-opacity="0.7"/>
</linearGradient>
<linearGradient id="paint1_linear" x1="122.529" y1="58" x2="122.529" y2="192.069" gradientUnits="userSpaceOnUse">
<stop stop-color="#68D49F"/>
<stop offset="1" stop-color="#65CC76"/>
</linearGradient>
<linearGradient id="paint2_linear" x1="345.03" y1="25" x2="345.03" y2="159.314" gradientUnits="userSpaceOnUse">
<stop stop-color="#68D49F"/>
<stop offset="1" stop-color="#65CC76"/>
</linearGradient>
</defs>
</svg>
