<svg width="550" height="250" viewBox="0 0 550 250" fill="none" xmlns="http://www.w3.org/2000/svg">
<g filter="url(#filter0_bd)">
<rect x="25" y="25" width="500" height="200" rx="25.3283" fill="url(#paint0_linear)" fill-opacity="0.65" shape-rendering="crispEdges"/>
</g>
<path d="M131.733 130.465L205.609 157.322V178.128L109.075 137.896V122.397L205.609 82.2714V103.077L131.733 130.465Z" fill="url(#paint1_linear)" fill-opacity="0.25"/>
<path d="M244.435 212.097H225.671L297.422 44.2686H316.068L244.435 212.097Z" fill="url(#paint2_linear)" fill-opacity="0.25"/>
<path d="M416.969 129.828L338.963 102.334V82.1653L439.745 122.291V137.79L338.963 178.022V157.64L416.969 129.828Z" fill="url(#paint3_linear)" fill-opacity="0.25"/>
<path d="M111.549 50.3291L117.273 40.1166H119.099L112.334 51.7954V58.8438H110.752V51.7954L103.999 40.1166H105.877L111.549 50.3291ZM119.768 51.6796C119.768 50.342 120.025 49.1372 120.54 48.0654C121.063 46.9935 121.796 46.1618 122.739 45.5701C123.691 44.9699 124.767 44.6698 125.968 44.6698C127.82 44.6698 129.32 45.3215 130.469 46.6248C131.618 47.9196 132.193 49.6388 132.193 51.7825V52.104C132.193 53.4503 131.931 54.6636 131.408 55.744C130.894 56.8158 130.165 57.6433 129.222 58.2264C128.279 58.8095 127.202 59.101 125.993 59.101C124.15 59.101 122.649 58.4536 121.492 57.1588C120.343 55.8555 119.768 54.132 119.768 51.9883V51.6796ZM121.312 52.104C121.312 53.7675 121.74 55.1352 122.598 56.207C123.464 57.2703 124.596 57.8019 125.993 57.8019C127.382 57.8019 128.506 57.2703 129.363 56.207C130.229 55.1352 130.662 53.7247 130.662 51.9754V51.6796C130.662 50.6163 130.465 49.6431 130.071 48.7599C129.676 47.8767 129.123 47.195 128.411 46.7149C127.7 46.2261 126.885 45.9817 125.968 45.9817C124.596 45.9817 123.477 46.5219 122.611 47.6023C121.745 48.6742 121.312 50.0804 121.312 51.8211V52.104ZM144.335 57.0817C143.409 58.4279 141.929 59.101 139.897 59.101C138.414 59.101 137.286 58.6723 136.515 57.8148C135.743 56.9487 135.348 55.6711 135.331 53.9819V44.927H136.862V53.789C136.862 56.4386 137.934 57.7633 140.077 57.7633C142.307 57.7633 143.717 56.8416 144.309 54.998V44.927H145.852V58.8438H144.36L144.335 57.0817ZM149.569 44.7084L148.656 44.0396C149.428 43.002 149.827 41.913 149.852 40.7726V39.0877H151.37V40.3867C151.37 42.1789 150.77 43.6194 149.569 44.7084ZM160.978 46.239C160.652 46.1789 160.305 46.1489 159.936 46.1489C158.976 46.1489 158.161 46.419 157.492 46.9592C156.832 47.4909 156.361 48.2669 156.078 49.2873V58.8438H154.547V44.927H156.052L156.078 47.1393C156.892 45.493 158.2 44.6698 160.001 44.6698C160.429 44.6698 160.768 44.7255 161.017 44.837L160.978 46.239ZM168.554 59.101C167.371 59.101 166.299 58.8095 165.338 58.2264C164.387 57.6433 163.645 56.833 163.113 55.7954C162.582 54.7493 162.316 53.5789 162.316 52.2841V51.731C162.316 50.3934 162.573 49.1887 163.087 48.1168C163.611 47.045 164.335 46.2047 165.261 45.5959C166.187 44.9785 167.19 44.6698 168.271 44.6698C169.96 44.6698 171.298 45.2486 172.284 46.4062C173.278 47.5552 173.776 49.1286 173.776 51.1265V51.9883H163.846V52.2841C163.846 53.8619 164.296 55.1781 165.197 56.2328C166.106 57.2789 167.246 57.8019 168.618 57.8019C169.441 57.8019 170.166 57.6519 170.792 57.3518C171.426 57.0516 172.001 56.5715 172.515 55.9112L173.48 56.6443C172.348 58.2821 170.706 59.101 168.554 59.101ZM168.271 45.9817C167.113 45.9817 166.136 46.4062 165.338 47.2551C164.549 48.104 164.069 49.2444 163.898 50.6764H172.245V50.5092C172.202 49.1715 171.821 48.0825 171.1 47.2422C170.38 46.4019 169.437 45.9817 168.271 45.9817ZM191.963 58.8438C191.808 58.4064 191.71 57.7591 191.667 56.9016C191.127 57.6047 190.436 58.1492 189.596 58.5351C188.764 58.9123 187.881 59.101 186.947 59.101C185.609 59.101 184.524 58.728 183.692 57.982C182.869 57.236 182.458 56.2928 182.458 55.1523C182.458 53.7975 183.019 52.7257 184.143 51.9368C185.274 51.148 186.848 50.7535 188.863 50.7535H191.654V49.1715C191.654 48.1768 191.345 47.3965 190.728 46.8306C190.119 46.2561 189.227 45.9689 188.053 45.9689C186.981 45.9689 186.093 46.2433 185.39 46.792C184.687 47.3408 184.336 48.0011 184.336 48.7728L182.792 48.7599C182.792 47.6538 183.307 46.6977 184.336 45.8917C185.364 45.0771 186.629 44.6698 188.13 44.6698C189.682 44.6698 190.904 45.0599 191.795 45.8402C192.696 46.612 193.159 47.6924 193.185 49.0815V55.6668C193.185 57.0131 193.326 58.0206 193.609 58.6894V58.8438H191.963ZM187.127 57.7376C188.156 57.7376 189.073 57.4889 189.879 56.9916C190.694 56.4943 191.285 55.8297 191.654 54.998V51.9368H188.902C187.367 51.954 186.166 52.237 185.3 52.7857C184.434 53.3259 184.001 54.0719 184.001 55.0237C184.001 55.804 184.288 56.4514 184.863 56.9659C185.446 57.4804 186.201 57.7376 187.127 57.7376ZM199.024 58.8438H197.481V39.0877H199.024V58.8438ZM206.548 55.6411L206.78 56.8373L207.088 55.5768L210.433 44.927H211.745L215.05 55.4868L215.41 56.953L215.706 55.6025L218.561 44.927H220.156L216.105 58.8438H214.793L211.217 47.8081L211.05 47.0493L210.883 47.821L207.371 58.8438H206.059L202.021 44.927H203.603L206.548 55.6411ZM231.861 58.8438C231.706 58.4064 231.608 57.7591 231.565 56.9016C231.025 57.6047 230.334 58.1492 229.494 58.5351C228.662 58.9123 227.779 59.101 226.845 59.101C225.507 59.101 224.422 58.728 223.59 57.982C222.767 57.236 222.356 56.2928 222.356 55.1523C222.356 53.7975 222.917 52.7257 224.041 51.9368C225.172 51.148 226.746 50.7535 228.761 50.7535H231.552V49.1715C231.552 48.1768 231.243 47.3965 230.626 46.8306C230.017 46.2561 229.125 45.9689 227.951 45.9689C226.879 45.9689 225.991 46.2433 225.288 46.792C224.585 47.3408 224.234 48.0011 224.234 48.7728L222.69 48.7599C222.69 47.6538 223.205 46.6977 224.234 45.8917C225.262 45.0771 226.527 44.6698 228.028 44.6698C229.58 44.6698 230.802 45.0599 231.693 45.8402C232.594 46.612 233.057 47.6924 233.083 49.0815V55.6668C233.083 57.0131 233.224 58.0206 233.507 58.6894V58.8438H231.861ZM227.025 57.7376C228.054 57.7376 228.971 57.4889 229.777 56.9916C230.592 56.4943 231.183 55.8297 231.552 54.998V51.9368H228.8C227.265 51.954 226.064 52.237 225.198 52.7857C224.332 53.3259 223.899 54.0719 223.899 55.0237C223.899 55.804 224.186 56.4514 224.761 56.9659C225.344 57.4804 226.099 57.7376 227.025 57.7376ZM241.404 56.6315L245.469 44.927H247.128L241.186 61.2104L240.877 61.9306C240.114 63.6198 238.935 64.4645 237.34 64.4645C236.971 64.4645 236.577 64.4044 236.157 64.2844L236.144 63.011L236.941 63.0882C237.696 63.0882 238.305 62.8996 238.768 62.5223C239.239 62.1536 239.638 61.5148 239.964 60.6058L240.645 58.728L235.398 44.927H237.083L241.404 56.6315ZM257.855 55.3067C257.855 54.5435 257.546 53.9305 256.929 53.4674C256.32 53.0044 255.398 52.6443 254.163 52.387C252.929 52.1212 251.968 51.8211 251.282 51.4867C250.605 51.1437 250.099 50.7278 249.765 50.2391C249.439 49.7503 249.276 49.1586 249.276 48.4641C249.276 47.3665 249.735 46.4619 250.652 45.7502C251.57 45.0299 252.744 44.6698 254.176 44.6698C255.728 44.6698 256.972 45.0557 257.906 45.8274C258.85 46.5905 259.321 47.5895 259.321 48.8242H257.778C257.778 48.0096 257.435 47.3322 256.749 46.792C256.071 46.2518 255.214 45.9817 254.176 45.9817C253.165 45.9817 252.35 46.209 251.733 46.6634C251.124 47.1093 250.819 47.6924 250.819 48.4126C250.819 49.1072 251.072 49.6474 251.578 50.0333C252.093 50.4105 253.023 50.7578 254.369 51.0751C255.724 51.3923 256.736 51.731 257.405 52.0912C258.082 52.4513 258.584 52.8843 258.91 53.3903C259.235 53.8962 259.398 54.5092 259.398 55.2295C259.398 56.4043 258.922 57.3432 257.971 58.0463C257.027 58.7494 255.793 59.101 254.266 59.101C252.646 59.101 251.33 58.7108 250.318 57.9305C249.314 57.1417 248.813 56.147 248.813 54.9466H250.356C250.416 55.8469 250.794 56.55 251.488 57.0559C252.191 57.5533 253.117 57.8019 254.266 57.8019C255.338 57.8019 256.204 57.5661 256.864 57.0945C257.525 56.6229 257.855 56.027 257.855 55.3067ZM268.659 51.7568C268.659 49.5788 269.139 47.8553 270.1 46.5862C271.068 45.3086 272.38 44.6698 274.035 44.6698C275.93 44.6698 277.371 45.4244 278.357 46.9335L278.434 44.927H279.875V58.5608C279.875 60.3529 279.373 61.772 278.37 62.8181C277.367 63.8642 276.007 64.3873 274.293 64.3873C273.324 64.3873 272.398 64.1686 271.514 63.7313C270.64 63.3026 269.949 62.7281 269.444 62.0078L270.305 61.0817C271.394 62.4194 272.689 63.0882 274.19 63.0882C275.476 63.0882 276.479 62.7066 277.199 61.9435C277.92 61.1889 278.293 60.1385 278.318 58.7923V57.0431C277.332 58.415 275.896 59.101 274.01 59.101C272.398 59.101 271.103 58.4579 270.125 57.1717C269.148 55.8855 268.659 54.1491 268.659 51.9626V51.7568ZM270.215 52.0269C270.215 53.8018 270.571 55.2038 271.283 56.2328C271.995 57.2531 272.998 57.7633 274.293 57.7633C276.188 57.7633 277.529 56.9144 278.318 55.2167V48.7471C277.958 47.8553 277.439 47.1779 276.762 46.7149C276.085 46.2433 275.27 46.0074 274.318 46.0074C273.023 46.0074 272.016 46.5176 271.296 47.538C270.575 48.5498 270.215 50.0461 270.215 52.0269ZM289.277 59.101C288.093 59.101 287.022 58.8095 286.061 58.2264C285.11 57.6433 284.368 56.833 283.836 55.7954C283.305 54.7493 283.039 53.5789 283.039 52.2841V51.731C283.039 50.3934 283.296 49.1887 283.81 48.1168C284.333 47.045 285.058 46.2047 285.984 45.5959C286.91 44.9785 287.913 44.6698 288.994 44.6698C290.683 44.6698 292.021 45.2486 293.007 46.4062C294.001 47.5552 294.499 49.1286 294.499 51.1265V51.9883H284.569V52.2841C284.569 53.8619 285.019 55.1781 285.92 56.2328C286.829 57.2789 287.969 57.8019 289.341 57.8019C290.164 57.8019 290.889 57.6519 291.515 57.3518C292.149 57.0516 292.724 56.5715 293.238 55.9112L294.203 56.6443C293.071 58.2821 291.429 59.101 289.277 59.101ZM288.994 45.9817C287.836 45.9817 286.859 46.4062 286.061 47.2551C285.272 48.104 284.792 49.2444 284.621 50.6764H292.968V50.5092C292.925 49.1715 292.544 48.0825 291.823 47.2422C291.103 46.4019 290.16 45.9817 288.994 45.9817ZM299.888 41.3643V44.927H302.769V46.1875H299.888V55.461C299.888 56.2328 300.025 56.8073 300.3 57.1845C300.583 57.5618 301.05 57.7505 301.702 57.7505C301.959 57.7505 302.375 57.7076 302.949 57.6219L303.013 58.8823C302.61 59.0281 302.062 59.101 301.367 59.101C300.312 59.101 299.545 58.7966 299.065 58.1878C298.585 57.5704 298.345 56.6658 298.345 55.4739V46.1875H295.785V44.927H298.345V41.3643H299.888ZM308.351 41.3643V44.927H311.232V46.1875H308.351V55.461C308.351 56.2328 308.488 56.8073 308.763 57.1845C309.046 57.5618 309.513 57.7505 310.165 57.7505C310.422 57.7505 310.838 57.7076 311.412 57.6219L311.477 58.8823C311.074 59.0281 310.525 59.101 309.83 59.101C308.776 59.101 308.008 58.7966 307.528 58.1878C307.048 57.5704 306.808 56.6658 306.808 55.4739V46.1875H304.248V44.927H306.808V41.3643H308.351ZM316.146 58.8438H314.602V44.927H316.146V58.8438ZM314.332 40.9012C314.332 40.6097 314.426 40.3653 314.615 40.1681C314.804 39.9623 315.061 39.8594 315.387 39.8594C315.713 39.8594 315.97 39.9623 316.158 40.1681C316.356 40.3653 316.454 40.6097 316.454 40.9012C316.454 41.1928 316.356 41.4371 316.158 41.6344C315.97 41.8316 315.713 41.9302 315.387 41.9302C315.061 41.9302 314.804 41.8316 314.615 41.6344C314.426 41.4371 314.332 41.1928 314.332 40.9012ZM321.805 44.927L321.856 47.3065C322.379 46.449 323.031 45.7974 323.811 45.3515C324.592 44.897 325.453 44.6698 326.397 44.6698C327.889 44.6698 328.999 45.09 329.728 45.9303C330.457 46.7706 330.825 48.0311 330.834 49.7117V58.8438H329.303V49.6988C329.295 48.4555 329.029 47.5295 328.506 46.9207C327.991 46.3118 327.164 46.0074 326.024 46.0074C325.072 46.0074 324.227 46.3076 323.49 46.9078C322.761 47.4994 322.221 48.3012 321.869 49.313V58.8438H320.339V44.927H321.805ZM334.204 51.7568C334.204 49.5788 334.684 47.8553 335.644 46.5862C336.613 45.3086 337.925 44.6698 339.58 44.6698C341.475 44.6698 342.916 45.4244 343.902 46.9335L343.979 44.927H345.42V58.5608C345.42 60.3529 344.918 61.772 343.915 62.8181C342.911 63.8642 341.552 64.3873 339.837 64.3873C338.868 64.3873 337.942 64.1686 337.059 63.7313C336.185 63.3026 335.494 62.7281 334.988 62.0078L335.85 61.0817C336.939 62.4194 338.234 63.0882 339.735 63.0882C341.021 63.0882 342.024 62.7066 342.744 61.9435C343.465 61.1889 343.838 60.1385 343.863 58.7923V57.0431C342.877 58.415 341.441 59.101 339.554 59.101C337.942 59.101 336.648 58.4579 335.67 57.1717C334.693 55.8855 334.204 54.1491 334.204 51.9626V51.7568ZM335.76 52.0269C335.76 53.8018 336.116 55.2038 336.828 56.2328C337.539 57.2531 338.543 57.7633 339.837 57.7633C341.732 57.7633 343.074 56.9144 343.863 55.2167V48.7471C343.503 47.8553 342.984 47.1779 342.307 46.7149C341.63 46.2433 340.815 46.0074 339.863 46.0074C338.568 46.0074 337.561 46.5176 336.841 47.538C336.12 48.5498 335.76 50.0461 335.76 52.0269ZM354.989 51.6796C354.989 50.342 355.246 49.1372 355.761 48.0654C356.284 46.9935 357.017 46.1618 357.96 45.5701C358.912 44.9699 359.988 44.6698 361.188 44.6698C363.041 44.6698 364.541 45.3215 365.69 46.6248C366.839 47.9196 367.414 49.6388 367.414 51.7825V52.104C367.414 53.4503 367.152 54.6636 366.629 55.744C366.115 56.8158 365.386 57.6433 364.442 58.2264C363.499 58.8095 362.423 59.101 361.214 59.101C359.371 59.101 357.87 58.4536 356.712 57.1588C355.563 55.8555 354.989 54.132 354.989 51.9883V51.6796ZM356.532 52.104C356.532 53.7675 356.961 55.1352 357.819 56.207C358.685 57.2703 359.816 57.8019 361.214 57.8019C362.603 57.8019 363.726 57.2703 364.584 56.207C365.45 55.1352 365.883 53.7247 365.883 51.9754V51.6796C365.883 50.6163 365.686 49.6431 365.291 48.7599C364.897 47.8767 364.344 47.195 363.632 46.7149C362.92 46.2261 362.106 45.9817 361.188 45.9817C359.816 45.9817 358.697 46.5219 357.831 47.6023C356.965 48.6742 356.532 50.0804 356.532 51.8211V52.104ZM379.555 57.0817C378.629 58.4279 377.15 59.101 375.118 59.101C373.635 59.101 372.507 58.6723 371.735 57.8148C370.964 56.9487 370.569 55.6711 370.552 53.9819V44.927H372.083V53.789C372.083 56.4386 373.154 57.7633 375.298 57.7633C377.527 57.7633 378.938 56.8416 379.53 54.998V44.927H381.073V58.8438H379.581L379.555 57.0817ZM391.517 46.239C391.191 46.1789 390.844 46.1489 390.475 46.1489C389.515 46.1489 388.7 46.419 388.031 46.9592C387.371 47.4909 386.9 48.2669 386.617 49.2873V58.8438H385.086V44.927H386.591L386.617 47.1393C387.431 45.493 388.739 44.6698 390.54 44.6698C390.968 44.6698 391.307 44.7255 391.556 44.837L391.517 46.239ZM401.832 44.927L401.884 47.3065C402.407 46.449 403.059 45.7974 403.839 45.3515C404.619 44.897 405.481 44.6698 406.424 44.6698C407.916 44.6698 409.027 45.09 409.755 45.9303C410.484 46.7706 410.853 48.0311 410.862 49.7117V58.8438H409.331V49.6988C409.322 48.4555 409.057 47.5295 408.534 46.9207C408.019 46.3118 407.192 46.0074 406.051 46.0074C405.099 46.0074 404.255 46.3076 403.517 46.9078C402.788 47.4994 402.248 48.3012 401.897 49.313V58.8438H400.366V44.927H401.832ZM420.238 59.101C419.055 59.101 417.983 58.8095 417.022 58.2264C416.071 57.6433 415.329 56.833 414.797 55.7954C414.266 54.7493 414 53.5789 414 52.2841V51.731C414 50.3934 414.257 49.1887 414.772 48.1168C415.295 47.045 416.019 46.2047 416.945 45.5959C417.871 44.9785 418.875 44.6698 419.955 44.6698C421.644 44.6698 422.982 45.2486 423.968 46.4062C424.963 47.5552 425.46 49.1286 425.46 51.1265V51.9883H415.53V52.2841C415.53 53.8619 415.981 55.1781 416.881 56.2328C417.79 57.2789 418.93 57.8019 420.302 57.8019C421.125 57.8019 421.85 57.6519 422.476 57.3518C423.11 57.0516 423.685 56.5715 424.199 55.9112L425.164 56.6443C424.032 58.2821 422.39 59.101 420.238 59.101ZM419.955 45.9817C418.797 45.9817 417.82 46.4062 417.022 47.2551C416.234 48.104 415.753 49.2444 415.582 50.6764H423.929V50.5092C423.886 49.1715 423.505 48.0825 422.785 47.2422C422.064 46.4019 421.121 45.9817 419.955 45.9817ZM431.788 55.6411L432.02 56.8373L432.328 55.5768L435.672 44.927H436.984L440.29 55.4868L440.65 56.953L440.946 55.6025L443.801 44.927H445.396L441.345 58.8438H440.033L436.457 47.8081L436.29 47.0493L436.123 47.821L432.611 58.8438H431.299L427.261 44.927H428.843L431.788 55.6411Z" fill="black"/>
<path d="M218.886 107.347H207.028L204.547 114.475H199.017L210.581 83.863H215.353L226.938 114.475H221.387L218.886 107.347ZM208.521 103.058H217.393L212.957 90.3595L208.521 103.058ZM239.279 110.816C240.555 110.816 241.613 110.445 242.454 109.702C243.295 108.959 243.744 108.041 243.8 106.948H248.614C248.558 108.363 248.117 109.688 247.29 110.921C246.463 112.141 245.341 113.108 243.926 113.823C242.51 114.538 240.982 114.895 239.342 114.895C236.161 114.895 233.638 113.865 231.774 111.805C229.909 109.744 228.977 106.899 228.977 103.269V102.743C228.977 99.2809 229.902 96.5127 231.753 94.4383C233.603 92.3499 236.126 91.3056 239.321 91.3056C242.027 91.3056 244.227 92.0976 245.923 93.6814C247.633 95.2512 248.53 97.3186 248.614 99.8836H243.8C243.744 98.5801 243.295 97.5079 242.454 96.6669C241.627 95.8259 240.569 95.4054 239.279 95.4054C237.625 95.4054 236.35 96.0081 235.453 97.2135C234.556 98.4049 234.1 100.22 234.086 102.659V103.479C234.086 105.946 234.528 107.789 235.411 109.008C236.308 110.214 237.597 110.816 239.279 110.816ZM258.874 86.1967V91.7261H262.89V95.5105H258.874V108.209C258.874 109.078 259.042 109.709 259.379 110.102C259.729 110.48 260.346 110.669 261.229 110.669C261.818 110.669 262.413 110.599 263.016 110.459V114.412C261.853 114.734 260.731 114.895 259.652 114.895C255.727 114.895 253.765 112.73 253.765 108.399V95.5105H250.023V91.7261H253.765V86.1967H258.874ZM272.246 114.475H267.137V91.7261H272.246V114.475ZM266.821 85.8183C266.821 85.0333 267.067 84.3816 267.557 83.863C268.062 83.3444 268.777 83.0851 269.702 83.0851C270.627 83.0851 271.342 83.3444 271.846 83.863C272.351 84.3816 272.603 85.0333 272.603 85.8183C272.603 86.5892 272.351 87.2339 271.846 87.7525C271.342 88.2571 270.627 88.5094 269.702 88.5094C268.777 88.5094 268.062 88.2571 267.557 87.7525C267.067 87.2339 266.821 86.5892 266.821 85.8183ZM285.849 107.999L290.663 91.7261H295.94L288.056 114.475H283.62L275.673 91.7261H280.971L285.849 107.999ZM308.87 114.895C305.633 114.895 303.004 113.879 300.986 111.847C298.982 109.8 297.98 107.081 297.98 103.689V103.058C297.98 100.788 298.414 98.7623 299.283 96.9823C300.166 95.1882 301.4 93.7935 302.983 92.7984C304.567 91.8032 306.333 91.3056 308.282 91.3056C311.379 91.3056 313.769 92.2938 315.451 94.2701C317.147 96.2464 317.995 99.0427 317.995 102.659V104.719H303.131C303.285 106.597 303.909 108.083 305.002 109.176C306.109 110.27 307.497 110.816 309.165 110.816C311.505 110.816 313.412 109.87 314.883 107.978L317.637 110.606C316.726 111.966 315.507 113.024 313.979 113.781C312.465 114.524 310.762 114.895 308.87 114.895ZM308.261 95.4054C306.859 95.4054 305.724 95.896 304.855 96.8771C304 97.8583 303.453 99.2249 303.215 100.977H312.949V100.598C312.837 98.8885 312.381 97.599 311.582 96.73C310.784 95.8469 309.676 95.4054 308.261 95.4054ZM327.414 114.475H322.305V82.181H327.414V114.475ZM340.954 107.158L345.579 91.7261H351.024L341.984 117.923C340.596 121.749 338.241 123.662 334.92 123.662C334.177 123.662 333.357 123.536 332.46 123.284V119.331L333.427 119.394C334.716 119.394 335.683 119.156 336.328 118.68C336.987 118.217 337.506 117.432 337.884 116.325L338.62 114.369L330.631 91.7261H336.139L340.954 107.158ZM176.942 164.475V133.863H185.982C188.687 133.863 191.084 134.466 193.173 135.671C195.275 136.876 196.901 138.586 198.05 140.801C199.2 143.016 199.774 145.553 199.774 148.412V149.947C199.774 152.848 199.193 155.399 198.029 157.6C196.88 159.8 195.233 161.496 193.089 162.688C190.958 163.879 188.512 164.475 185.751 164.475H176.942ZM182.261 138.152V160.228H185.73C188.519 160.228 190.657 159.359 192.142 157.621C193.642 155.869 194.406 153.36 194.434 150.094V148.391C194.434 145.069 193.712 142.532 192.269 140.78C190.825 139.028 188.729 138.152 185.982 138.152H182.261ZM214.597 164.895C211.359 164.895 208.731 163.879 206.712 161.847C204.708 159.8 203.706 157.081 203.706 153.689V153.058C203.706 150.788 204.14 148.762 205.009 146.982C205.892 145.188 207.126 143.794 208.71 142.798C210.294 141.803 212.06 141.306 214.008 141.306C217.105 141.306 219.495 142.294 221.177 144.27C222.873 146.246 223.721 149.043 223.721 152.659V154.719H208.857C209.011 156.597 209.635 158.083 210.728 159.176C211.835 160.27 213.223 160.816 214.891 160.816C217.232 160.816 219.138 159.87 220.61 157.978L223.364 160.606C222.453 161.966 221.233 163.024 219.706 163.781C218.192 164.524 216.489 164.895 214.597 164.895ZM213.987 145.405C212.585 145.405 211.45 145.896 210.581 146.877C209.726 147.858 209.179 149.225 208.941 150.977H218.675V150.598C218.563 148.888 218.108 147.599 217.309 146.73C216.51 145.847 215.403 145.405 213.987 145.405ZM235.432 157.999L240.246 141.726H245.524L237.639 164.475H233.203L225.256 141.726H230.554L235.432 157.999ZM258.454 164.895C255.216 164.895 252.588 163.879 250.569 161.847C248.565 159.8 247.563 157.081 247.563 153.689V153.058C247.563 150.788 247.997 148.762 248.866 146.982C249.749 145.188 250.983 143.794 252.567 142.798C254.151 141.803 255.917 141.306 257.865 141.306C260.963 141.306 263.352 142.294 265.034 144.27C266.73 146.246 267.578 149.043 267.578 152.659V154.719H252.714C252.868 156.597 253.492 158.083 254.585 159.176C255.692 160.27 257.08 160.816 258.748 160.816C261.089 160.816 262.995 159.87 264.467 157.978L267.221 160.606C266.31 161.966 265.09 163.024 263.563 163.781C262.049 164.524 260.346 164.895 258.454 164.895ZM257.844 145.405C256.442 145.405 255.307 145.896 254.438 146.877C253.583 147.858 253.036 149.225 252.798 150.977H262.532V150.598C262.42 148.888 261.965 147.599 261.166 146.73C260.367 145.847 259.26 145.405 257.844 145.405ZM276.997 164.475H271.888V132.181H276.997V164.475ZM281.623 152.89C281.623 150.662 282.064 148.657 282.947 146.877C283.83 145.083 285.071 143.709 286.668 142.756C288.266 141.789 290.102 141.306 292.177 141.306C295.246 141.306 297.734 142.294 299.641 144.27C301.561 146.246 302.598 148.867 302.752 152.133L302.773 153.332C302.773 155.574 302.339 157.579 301.47 159.345C300.615 161.111 299.381 162.477 297.769 163.444C296.172 164.412 294.321 164.895 292.219 164.895C289.009 164.895 286.437 163.83 284.503 161.699C282.583 159.555 281.623 156.703 281.623 153.142V152.89ZM286.732 153.332C286.732 155.672 287.215 157.509 288.182 158.84C289.149 160.158 290.495 160.816 292.219 160.816C293.943 160.816 295.281 160.144 296.235 158.798C297.202 157.452 297.685 155.483 297.685 152.89C297.685 150.591 297.188 148.769 296.193 147.424C295.211 146.078 293.873 145.405 292.177 145.405C290.509 145.405 289.184 146.071 288.203 147.403C287.222 148.72 286.732 150.697 286.732 153.332ZM327.014 153.332C327.014 156.85 326.215 159.66 324.618 161.762C323.02 163.851 320.875 164.895 318.184 164.895C315.689 164.895 313.692 164.075 312.192 162.435V173.221H307.083V141.726H311.793L312.003 144.039C313.503 142.217 315.542 141.306 318.121 141.306C320.896 141.306 323.069 142.343 324.639 144.417C326.222 146.478 327.014 149.344 327.014 153.016V153.332ZM321.926 152.89C321.926 150.619 321.471 148.818 320.56 147.487C319.663 146.155 318.373 145.49 316.691 145.49C314.603 145.49 313.103 146.352 312.192 148.076V158.167C313.117 159.933 314.631 160.816 316.733 160.816C318.359 160.816 319.628 160.165 320.539 158.861C321.464 157.544 321.926 155.553 321.926 152.89ZM341.374 164.895C338.136 164.895 335.508 163.879 333.49 161.847C331.486 159.8 330.483 157.081 330.483 153.689V153.058C330.483 150.788 330.918 148.762 331.787 146.982C332.67 145.188 333.903 143.794 335.487 142.798C337.071 141.803 338.837 141.306 340.785 141.306C343.883 141.306 346.273 142.294 347.955 144.27C349.651 146.246 350.499 149.043 350.499 152.659V154.719H335.634C335.789 156.597 336.412 158.083 337.506 159.176C338.613 160.27 340.001 160.816 341.668 160.816C344.009 160.816 345.915 159.87 347.387 157.978L350.141 160.606C349.23 161.966 348.011 163.024 346.483 163.781C344.969 164.524 343.266 164.895 341.374 164.895ZM340.764 145.405C339.363 145.405 338.227 145.896 337.358 146.877C336.503 147.858 335.957 149.225 335.719 150.977H345.453V150.598C345.341 148.888 344.885 147.599 344.086 146.73C343.287 145.847 342.18 145.405 340.764 145.405ZM353.526 152.932C353.526 149.428 354.339 146.618 355.965 144.501C357.591 142.371 359.771 141.306 362.504 141.306C364.915 141.306 366.863 142.147 368.349 143.829V132.181H373.457V164.475H368.832L368.58 162.12C367.052 163.97 365.013 164.895 362.462 164.895C359.799 164.895 357.64 163.823 355.986 161.678C354.346 159.534 353.526 156.618 353.526 152.932ZM358.635 153.374C358.635 155.686 359.077 157.494 359.96 158.798C360.857 160.088 362.125 160.732 363.765 160.732C365.854 160.732 367.381 159.8 368.349 157.936V148.223C367.409 146.401 365.896 145.49 363.807 145.49C362.153 145.49 360.878 146.148 359.981 147.466C359.084 148.769 358.635 150.739 358.635 153.374Z" fill="url(#paint4_linear)"/>
<path d="M149.827 208.281V195.625H147.524V194.365H149.827V192.68C149.827 191.256 150.187 190.163 150.907 189.4C151.636 188.637 152.648 188.255 153.943 188.255C154.526 188.255 155.07 188.328 155.576 188.474L155.46 189.76C155.032 189.657 154.564 189.606 154.058 189.606C153.209 189.606 152.549 189.871 152.078 190.403C151.606 190.926 151.37 191.672 151.37 192.641V194.365H154.689V195.625H151.37V208.281H149.827ZM162.522 208.538C161.338 208.538 160.266 208.247 159.306 207.664C158.354 207.081 157.613 206.27 157.081 205.233C156.549 204.187 156.283 203.016 156.283 201.722V201.169C156.283 199.831 156.541 198.626 157.055 197.554C157.578 196.482 158.303 195.642 159.229 195.033C160.155 194.416 161.158 194.107 162.239 194.107C163.928 194.107 165.265 194.686 166.251 195.844C167.246 196.993 167.743 198.566 167.743 200.564V201.426H157.814V201.722C157.814 203.299 158.264 204.616 159.165 205.67C160.073 206.716 161.214 207.239 162.586 207.239C163.409 207.239 164.134 207.089 164.76 206.789C165.394 206.489 165.969 206.009 166.483 205.349L167.448 206.082C166.316 207.72 164.674 208.538 162.522 208.538ZM162.239 195.419C161.081 195.419 160.103 195.844 159.306 196.693C158.517 197.541 158.037 198.682 157.865 200.114H166.213V199.947C166.17 198.609 165.788 197.52 165.068 196.68C164.348 195.839 163.405 195.419 162.239 195.419ZM179.525 208.281C179.371 207.844 179.272 207.197 179.229 206.339C178.689 207.042 177.999 207.587 177.158 207.973C176.327 208.35 175.444 208.538 174.509 208.538C173.171 208.538 172.087 208.165 171.255 207.419C170.432 206.673 170.02 205.73 170.02 204.59C170.02 203.235 170.582 202.163 171.705 201.374C172.837 200.585 174.41 200.191 176.425 200.191H179.216V198.609C179.216 197.614 178.908 196.834 178.29 196.268C177.682 195.694 176.79 195.406 175.615 195.406C174.543 195.406 173.656 195.681 172.953 196.23C172.249 196.778 171.898 197.439 171.898 198.21L170.354 198.197C170.354 197.091 170.869 196.135 171.898 195.329C172.927 194.515 174.192 194.107 175.692 194.107C177.244 194.107 178.466 194.497 179.358 195.278C180.258 196.049 180.721 197.13 180.747 198.519V205.104C180.747 206.451 180.888 207.458 181.171 208.127V208.281H179.525ZM174.689 207.175C175.718 207.175 176.635 206.926 177.441 206.429C178.256 205.932 178.848 205.267 179.216 204.436V201.374H176.464C174.929 201.391 173.729 201.674 172.863 202.223C171.997 202.763 171.564 203.509 171.564 204.461C171.564 205.242 171.851 205.889 172.425 206.403C173.008 206.918 173.763 207.175 174.689 207.175ZM187.255 190.802V194.365H190.136V195.625H187.255V204.899C187.255 205.67 187.392 206.245 187.667 206.622C187.95 206.999 188.417 207.188 189.069 207.188C189.326 207.188 189.742 207.145 190.316 207.059L190.381 208.32C189.978 208.466 189.429 208.538 188.734 208.538C187.68 208.538 186.912 208.234 186.432 207.625C185.952 207.008 185.712 206.103 185.712 204.911V195.625H183.152V194.365H185.712V190.802H187.255ZM202.278 206.519C201.352 207.865 199.873 208.538 197.841 208.538C196.357 208.538 195.23 208.11 194.458 207.252C193.686 206.386 193.292 205.109 193.275 203.419V194.365H194.805V203.226C194.805 205.876 195.877 207.201 198.021 207.201C200.25 207.201 201.661 206.279 202.252 204.436V194.365H203.796V208.281H202.304L202.278 206.519ZM214.24 195.676C213.914 195.616 213.567 195.586 213.198 195.586C212.238 195.586 211.423 195.857 210.754 196.397C210.094 196.928 209.622 197.704 209.339 198.725V208.281H207.809V194.365H209.314L209.339 196.577C210.154 194.93 211.462 194.107 213.262 194.107C213.691 194.107 214.03 194.163 214.278 194.275L214.24 195.676ZM221.815 208.538C220.632 208.538 219.56 208.247 218.6 207.664C217.648 207.081 216.906 206.27 216.375 205.233C215.843 204.187 215.577 203.016 215.577 201.722V201.169C215.577 199.831 215.835 198.626 216.349 197.554C216.872 196.482 217.597 195.642 218.523 195.033C219.449 194.416 220.452 194.107 221.533 194.107C223.222 194.107 224.559 194.686 225.545 195.844C226.54 196.993 227.037 198.566 227.037 200.564V201.426H217.108V201.722C217.108 203.299 217.558 204.616 218.458 205.67C219.367 206.716 220.508 207.239 221.88 207.239C222.703 207.239 223.428 207.089 224.053 206.789C224.688 206.489 225.262 206.009 225.777 205.349L226.742 206.082C225.61 207.72 223.968 208.538 221.815 208.538ZM221.533 195.419C220.375 195.419 219.397 195.844 218.6 196.693C217.811 197.541 217.331 198.682 217.159 200.114H225.507V199.947C225.464 198.609 225.082 197.52 224.362 196.68C223.642 195.839 222.699 195.419 221.533 195.419ZM238.369 204.744C238.369 203.981 238.06 203.368 237.443 202.905C236.834 202.442 235.912 202.082 234.677 201.825C233.443 201.559 232.482 201.259 231.796 200.924C231.119 200.581 230.613 200.165 230.279 199.677C229.953 199.188 229.79 198.596 229.79 197.902C229.79 196.804 230.249 195.899 231.166 195.188C232.084 194.467 233.258 194.107 234.69 194.107C236.242 194.107 237.486 194.493 238.42 195.265C239.364 196.028 239.835 197.027 239.835 198.262H238.292C238.292 197.447 237.949 196.77 237.263 196.23C236.585 195.689 235.728 195.419 234.69 195.419C233.679 195.419 232.864 195.646 232.247 196.101C231.638 196.547 231.333 197.13 231.333 197.85C231.333 198.545 231.586 199.085 232.092 199.471C232.607 199.848 233.537 200.195 234.883 200.513C236.238 200.83 237.25 201.169 237.919 201.529C238.596 201.889 239.098 202.322 239.424 202.828C239.749 203.334 239.912 203.947 239.912 204.667C239.912 205.842 239.436 206.781 238.485 207.484C237.541 208.187 236.307 208.538 234.78 208.538C233.16 208.538 231.844 208.148 230.832 207.368C229.829 206.579 229.327 205.585 229.327 204.384H230.87C230.93 205.284 231.308 205.988 232.002 206.493C232.705 206.991 233.631 207.239 234.78 207.239C235.852 207.239 236.718 207.004 237.379 206.532C238.039 206.06 238.369 205.464 238.369 204.744ZM258.575 208.281C258.421 207.844 258.322 207.197 258.279 206.339C257.739 207.042 257.049 207.587 256.209 207.973C255.377 208.35 254.494 208.538 253.559 208.538C252.221 208.538 251.137 208.165 250.305 207.419C249.482 206.673 249.07 205.73 249.07 204.59C249.07 203.235 249.632 202.163 250.755 201.374C251.887 200.585 253.46 200.191 255.475 200.191H258.266V198.609C258.266 197.614 257.958 196.834 257.34 196.268C256.732 195.694 255.84 195.406 254.665 195.406C253.593 195.406 252.706 195.681 252.003 196.23C251.3 196.778 250.948 197.439 250.948 198.21L249.405 198.197C249.405 197.091 249.919 196.135 250.948 195.329C251.977 194.515 253.242 194.107 254.742 194.107C256.294 194.107 257.516 194.497 258.408 195.278C259.308 196.049 259.771 197.13 259.797 198.519V205.104C259.797 206.451 259.939 207.458 260.221 208.127V208.281H258.575ZM253.739 207.175C254.768 207.175 255.685 206.926 256.491 206.429C257.306 205.932 257.898 205.267 258.266 204.436V201.374H255.514C253.979 201.391 252.779 201.674 251.913 202.223C251.047 202.763 250.614 203.509 250.614 204.461C250.614 205.242 250.901 205.889 251.475 206.403C252.058 206.918 252.813 207.175 253.739 207.175ZM272.865 206.519C271.939 207.865 270.46 208.538 268.427 208.538C266.944 208.538 265.816 208.11 265.045 207.252C264.273 206.386 263.879 205.109 263.861 203.419V194.365H265.392V203.226C265.392 205.876 266.464 207.201 268.608 207.201C270.837 207.201 272.247 206.279 272.839 204.436V194.365H274.383V208.281H272.891L272.865 206.519ZM280.788 190.802V194.365H283.669V195.625H280.788V204.899C280.788 205.67 280.925 206.245 281.199 206.622C281.482 206.999 281.95 207.188 282.601 207.188C282.859 207.188 283.275 207.145 283.849 207.059L283.913 208.32C283.51 208.466 282.962 208.538 282.267 208.538C281.212 208.538 280.445 208.234 279.965 207.625C279.484 207.008 279.244 206.103 279.244 204.911V195.625H276.685V194.365H279.244V190.802H280.788ZM285.753 201.117C285.753 199.779 286.01 198.575 286.524 197.503C287.047 196.431 287.78 195.599 288.724 195.008C289.676 194.407 290.752 194.107 291.952 194.107C293.804 194.107 295.305 194.759 296.454 196.062C297.603 197.357 298.177 199.076 298.177 201.22V201.542C298.177 202.888 297.916 204.101 297.393 205.182C296.878 206.253 296.149 207.081 295.206 207.664C294.263 208.247 293.187 208.538 291.978 208.538C290.134 208.538 288.634 207.891 287.476 206.596C286.327 205.293 285.753 203.569 285.753 201.426V201.117ZM287.296 201.542C287.296 203.205 287.725 204.573 288.582 205.645C289.448 206.708 290.58 207.239 291.978 207.239C293.367 207.239 294.49 206.708 295.348 205.645C296.214 204.573 296.647 203.162 296.647 201.413V201.117C296.647 200.054 296.45 199.081 296.055 198.197C295.661 197.314 295.108 196.633 294.396 196.152C293.684 195.664 292.87 195.419 291.952 195.419C290.58 195.419 289.461 195.959 288.595 197.04C287.729 198.112 287.296 199.518 287.296 201.259V201.542ZM302.769 194.365L302.82 196.628C303.335 195.788 303.978 195.158 304.75 194.738C305.522 194.317 306.379 194.107 307.322 194.107C309.517 194.107 310.911 195.008 311.502 196.808C312 195.942 312.664 195.278 313.496 194.815C314.328 194.343 315.245 194.107 316.248 194.107C319.232 194.107 320.754 195.736 320.814 198.995V208.281H319.271V199.111C319.262 197.867 318.992 196.946 318.461 196.345C317.938 195.745 317.08 195.445 315.888 195.445C314.782 195.462 313.848 195.822 313.084 196.525C312.321 197.22 311.897 198.069 311.811 199.072V208.281H310.268V198.995C310.259 197.803 309.976 196.916 309.419 196.332C308.87 195.741 308.021 195.445 306.872 195.445C305.903 195.445 305.071 195.724 304.377 196.281C303.682 196.83 303.168 197.649 302.833 198.738V208.281H301.29V194.365H302.769ZM333.509 208.281C333.355 207.844 333.256 207.197 333.213 206.339C332.673 207.042 331.983 207.587 331.143 207.973C330.311 208.35 329.428 208.538 328.493 208.538C327.155 208.538 326.071 208.165 325.239 207.419C324.416 206.673 324.004 205.73 324.004 204.59C324.004 203.235 324.566 202.163 325.689 201.374C326.821 200.585 328.394 200.191 330.41 200.191H333.201V198.609C333.201 197.614 332.892 196.834 332.275 196.268C331.666 195.694 330.774 195.406 329.599 195.406C328.527 195.406 327.64 195.681 326.937 196.23C326.234 196.778 325.882 197.439 325.882 198.21L324.339 198.197C324.339 197.091 324.853 196.135 325.882 195.329C326.911 194.515 328.176 194.107 329.676 194.107C331.228 194.107 332.45 194.497 333.342 195.278C334.242 196.049 334.705 197.13 334.731 198.519V205.104C334.731 206.451 334.873 207.458 335.156 208.127V208.281H333.509ZM328.673 207.175C329.702 207.175 330.62 206.926 331.426 206.429C332.24 205.932 332.832 205.267 333.201 204.436V201.374H330.448C328.913 201.391 327.713 201.674 326.847 202.223C325.981 202.763 325.548 203.509 325.548 204.461C325.548 205.242 325.835 205.889 326.409 206.403C326.993 206.918 327.747 207.175 328.673 207.175ZM341.239 190.802V194.365H344.12V195.625H341.239V204.899C341.239 205.67 341.377 206.245 341.651 206.622C341.934 206.999 342.401 207.188 343.053 207.188C343.31 207.188 343.726 207.145 344.301 207.059L344.365 208.32C343.962 208.466 343.413 208.538 342.719 208.538C341.664 208.538 340.896 208.234 340.416 207.625C339.936 207.008 339.696 206.103 339.696 204.911V195.625H337.136V194.365H339.696V190.802H341.239ZM349.034 208.281H347.49V194.365H349.034V208.281ZM347.22 190.339C347.22 190.047 347.315 189.803 347.503 189.606C347.692 189.4 347.949 189.297 348.275 189.297C348.601 189.297 348.858 189.4 349.047 189.606C349.244 189.803 349.342 190.047 349.342 190.339C349.342 190.63 349.244 190.875 349.047 191.072C348.858 191.269 348.601 191.368 348.275 191.368C347.949 191.368 347.692 191.269 347.503 191.072C347.315 190.875 347.22 190.63 347.22 190.339ZM358.372 207.239C359.443 207.239 360.339 206.939 361.06 206.339C361.789 205.73 362.183 204.946 362.243 203.985H363.722C363.679 204.834 363.414 205.61 362.925 206.313C362.436 207.008 361.784 207.552 360.97 207.947C360.164 208.341 359.298 208.538 358.372 208.538C356.545 208.538 355.096 207.904 354.024 206.635C352.961 205.366 352.429 203.659 352.429 201.516V201.053C352.429 199.681 352.669 198.468 353.15 197.413C353.63 196.358 354.316 195.544 355.208 194.969C356.108 194.395 357.158 194.107 358.359 194.107C359.885 194.107 361.141 194.562 362.127 195.471C363.122 196.38 363.654 197.576 363.722 199.059H362.243C362.174 197.97 361.78 197.091 361.06 196.422C360.348 195.754 359.448 195.419 358.359 195.419C356.97 195.419 355.889 195.921 355.118 196.924C354.354 197.927 353.973 199.334 353.973 201.143V201.593C353.973 203.368 354.354 204.753 355.118 205.747C355.889 206.742 356.974 207.239 358.372 207.239ZM375.594 208.281C375.44 207.844 375.341 207.197 375.298 206.339C374.758 207.042 374.068 207.587 373.227 207.973C372.395 208.35 371.512 208.538 370.578 208.538C369.24 208.538 368.155 208.165 367.324 207.419C366.5 206.673 366.089 205.73 366.089 204.59C366.089 203.235 366.65 202.163 367.774 201.374C368.906 200.585 370.479 200.191 372.494 200.191H375.285V198.609C375.285 197.614 374.976 196.834 374.359 196.268C373.75 195.694 372.859 195.406 371.684 195.406C370.612 195.406 369.724 195.681 369.021 196.23C368.318 196.778 367.967 197.439 367.967 198.21L366.423 198.197C366.423 197.091 366.938 196.135 367.967 195.329C368.996 194.515 370.26 194.107 371.761 194.107C373.313 194.107 374.535 194.497 375.427 195.278C376.327 196.049 376.79 197.13 376.816 198.519V205.104C376.816 206.451 376.957 207.458 377.24 208.127V208.281H375.594ZM370.758 207.175C371.787 207.175 372.704 206.926 373.51 206.429C374.325 205.932 374.916 205.267 375.285 204.436V201.374H372.533C370.998 201.391 369.797 201.674 368.931 202.223C368.065 202.763 367.632 203.509 367.632 204.461C367.632 205.242 367.92 205.889 368.494 206.403C369.077 206.918 369.832 207.175 370.758 207.175ZM382.655 208.281H381.112V188.525H382.655V208.281ZM388.572 208.281H387.028V188.525H388.572V208.281ZM397.176 206.069L401.241 194.365H402.9L396.958 210.648L396.649 211.368C395.886 213.057 394.707 213.902 393.112 213.902C392.743 213.902 392.349 213.842 391.929 213.722L391.916 212.449L392.713 212.526C393.468 212.526 394.077 212.337 394.54 211.96C395.011 211.591 395.41 210.952 395.736 210.043L396.417 208.165L391.17 194.365H392.855L397.176 206.069Z" fill="black"/>
<defs>
<filter id="filter0_bd" x="0.0161667" y="0.0161667" width="549.968" height="249.968" filterUnits="userSpaceOnUse" color-interpolation-filters="sRGB">
<feFlood flood-opacity="0" result="BackgroundImageFix"/>
<feGaussianBlur in="BackgroundImage" stdDeviation="11.651"/>
<feComposite in2="SourceAlpha" operator="in" result="effect1_backgroundBlur"/>
<feColorMatrix in="SourceAlpha" type="matrix" values="0 0 0 0 0 0 0 0 0 0 0 0 0 0 0 0 0 0 127 0" result="hardAlpha"/>
<feMorphology radius="4.16397" operator="dilate" in="SourceAlpha" result="effect2_dropShadow"/>
<feOffset/>
<feGaussianBlur stdDeviation="10.4099"/>
<feComposite in2="hardAlpha" operator="out"/>
<feColorMatrix type="matrix" values="0 0 0 0 0 0 0 0 0 0 0 0 0 0 0 0 0 0 0.5 0"/>
<feBlend mode="normal" in2="effect1_backgroundBlur" result="effect2_dropShadow"/>
<feBlend mode="normal" in="SourceGraphic" in2="effect2_dropShadow" result="shape"/>
</filter>
<linearGradient id="paint0_linear" x1="25" y1="25" x2="512.876" y2="251.156" gradientUnits="userSpaceOnUse">
<stop stop-color="white" stop-opacity="0.9"/>
<stop offset="1" stop-color="white" stop-opacity="0.7"/>
</linearGradient>
<linearGradient id="paint1_linear" x1="275" y1="-2.45057" x2="275" y2="252.206" gradientUnits="userSpaceOnUse">
<stop stop-color="#775EBF"/>
<stop offset="1" stop-color="#8D58B3"/>
</linearGradient>
<linearGradient id="paint2_linear" x1="275" y1="-2.45057" x2="275" y2="252.206" gradientUnits="userSpaceOnUse">
<stop stop-color="#775EBF"/>
<stop offset="1" stop-color="#8D58B3"/>
</linearGradient>
<linearGradient id="paint3_linear" x1="275" y1="-2.45057" x2="275" y2="252.206" gradientUnits="userSpaceOnUse">
<stop stop-color="#775EBF"/>
<stop offset="1" stop-color="#8D58B3"/>
</linearGradient>
<linearGradient id="paint4_linear" x1="216.618" y1="74.4746" x2="319.577" y2="175.281" gradientUnits="userSpaceOnUse">
<stop stop-color="#8D58B3"/>
<stop offset="1" stop-color="#775EBF"/>
</linearGradient>
</defs>
</svg>
