<svg width="350" height="350" viewBox="0 0 350 350" fill="none" xmlns="http://www.w3.org/2000/svg">
<g filter="url(#filter0_bd)">
<rect x="25" y="25" width="300" height="300" rx="25.3283" fill="url(#paint0_linear)" fill-opacity="0.65" shape-rendering="crispEdges"/>
</g>
<path d="M75.3198 242.299C74.3937 243.646 72.9146 244.319 70.8824 244.319C69.3989 244.319 68.2714 243.89 67.4996 243.033C66.7279 242.167 66.3335 240.889 66.3163 239.2V230.145H67.8469V239.007C67.8469 241.656 68.9188 242.981 71.0624 242.981C73.2918 242.981 74.7024 242.059 75.294 240.216V230.145H76.8375V244.062H75.3455L75.3198 242.299ZM89.185 240.524C89.185 239.761 88.8763 239.148 88.259 238.685C87.6501 238.222 86.7284 237.862 85.4936 237.605C84.2589 237.339 83.2985 237.039 82.6125 236.704C81.9351 236.361 81.4292 235.946 81.0948 235.457C80.769 234.968 80.606 234.376 80.606 233.682C80.606 232.584 81.0648 231.68 81.9823 230.968C82.8998 230.248 84.0745 229.888 85.5065 229.888C87.0585 229.888 88.3018 230.273 89.2365 231.045C90.1797 231.808 90.6513 232.807 90.6513 234.042H89.1078C89.1078 233.227 88.7649 232.55 88.0789 232.01C87.4015 231.47 86.544 231.199 85.5065 231.199C84.4947 231.199 83.6801 231.427 83.0627 231.881C82.4539 232.327 82.1495 232.91 82.1495 233.63C82.1495 234.325 82.4024 234.865 82.9083 235.251C83.4228 235.628 84.3532 235.976 85.6994 236.293C87.0542 236.61 88.066 236.949 88.7348 237.309C89.4122 237.669 89.9139 238.102 90.2397 238.608C90.5655 239.114 90.7285 239.727 90.7285 240.447C90.7285 241.622 90.2526 242.561 89.3008 243.264C88.3576 243.967 87.1228 244.319 85.5965 244.319C83.9759 244.319 82.6597 243.929 81.6479 243.148C80.6446 242.359 80.143 241.365 80.143 240.164H81.6865C81.7465 241.065 82.1238 241.768 82.8183 242.274C83.5214 242.771 84.4475 243.02 85.5965 243.02C86.6683 243.02 87.5344 242.784 88.1946 242.312C88.8549 241.841 89.185 241.245 89.185 240.524ZM95.9247 244.062H94.3813V230.145H95.9247V244.062ZM94.1112 226.119C94.1112 225.827 94.2055 225.583 94.3941 225.386C94.5828 225.18 94.84 225.077 95.1659 225.077C95.4917 225.077 95.7489 225.18 95.9376 225.386C96.1348 225.583 96.2334 225.827 96.2334 226.119C96.2334 226.411 96.1348 226.655 95.9376 226.852C95.7489 227.049 95.4917 227.148 95.1659 227.148C94.84 227.148 94.5828 227.049 94.3941 226.852C94.2055 226.655 94.1112 226.411 94.1112 226.119ZM101.584 230.145L101.635 232.524C102.159 231.667 102.81 231.015 103.59 230.569C104.371 230.115 105.233 229.888 106.176 229.888C107.668 229.888 108.778 230.308 109.507 231.148C110.236 231.988 110.605 233.249 110.613 234.929V244.062H109.083V234.917C109.074 233.673 108.808 232.747 108.285 232.138C107.771 231.53 106.943 231.225 105.803 231.225C104.851 231.225 104.006 231.525 103.269 232.126C102.54 232.717 102 233.519 101.648 234.531V244.062H100.118V230.145H101.584ZM113.983 236.975C113.983 234.797 114.463 233.073 115.424 231.804C116.392 230.526 117.704 229.888 119.359 229.888C121.254 229.888 122.695 230.642 123.681 232.151L123.758 230.145H125.199V243.779C125.199 245.571 124.697 246.99 123.694 248.036C122.691 249.082 121.332 249.605 119.617 249.605C118.648 249.605 117.722 249.386 116.838 248.949C115.964 248.52 115.273 247.946 114.768 247.226L115.629 246.3C116.718 247.637 118.013 248.306 119.514 248.306C120.8 248.306 121.803 247.924 122.523 247.161C123.244 246.407 123.617 245.356 123.642 244.01V242.261C122.656 243.633 121.22 244.319 119.334 244.319C117.722 244.319 116.427 243.676 115.449 242.389C114.472 241.103 113.983 239.367 113.983 237.18V236.975ZM115.539 237.245C115.539 239.02 115.895 240.422 116.607 241.451C117.319 242.471 118.322 242.981 119.617 242.981C121.512 242.981 122.854 242.132 123.642 240.434V233.965C123.282 233.073 122.763 232.396 122.086 231.933C121.409 231.461 120.594 231.225 119.642 231.225C118.348 231.225 117.34 231.735 116.62 232.756C115.899 233.768 115.539 235.264 115.539 237.245ZM144.402 244.062C144.247 243.624 144.149 242.977 144.106 242.119C143.566 242.822 142.875 243.367 142.035 243.753C141.203 244.13 140.32 244.319 139.386 244.319C138.048 244.319 136.963 243.946 136.131 243.2C135.308 242.454 134.897 241.511 134.897 240.37C134.897 239.015 135.458 237.943 136.582 237.155C137.713 236.366 139.287 235.971 141.302 235.971H144.093V234.389C144.093 233.395 143.784 232.614 143.167 232.048C142.558 231.474 141.666 231.187 140.492 231.187C139.42 231.187 138.532 231.461 137.829 232.01C137.126 232.559 136.775 233.219 136.775 233.991L135.231 233.978C135.231 232.872 135.746 231.915 136.775 231.109C137.803 230.295 139.068 229.888 140.569 229.888C142.121 229.888 143.343 230.278 144.234 231.058C145.135 231.83 145.598 232.91 145.624 234.299V240.885C145.624 242.231 145.765 243.238 146.048 243.907V244.062H144.402ZM139.566 242.955C140.595 242.955 141.512 242.707 142.318 242.209C143.133 241.712 143.724 241.048 144.093 240.216V237.155H141.341C139.806 237.172 138.605 237.455 137.739 238.004C136.873 238.544 136.44 239.29 136.44 240.242C136.44 241.022 136.727 241.669 137.302 242.184C137.885 242.698 138.64 242.955 139.566 242.955ZM151.206 230.145L151.257 232.524C151.78 231.667 152.432 231.015 153.212 230.569C153.992 230.115 154.854 229.888 155.797 229.888C157.289 229.888 158.4 230.308 159.129 231.148C159.858 231.988 160.226 233.249 160.235 234.929V244.062H158.704V234.917C158.696 233.673 158.43 232.747 157.907 232.138C157.392 231.53 156.565 231.225 155.424 231.225C154.473 231.225 153.628 231.525 152.891 232.126C152.162 232.717 151.622 233.519 151.27 234.531V244.062H149.739V230.145H151.206ZM179.412 244.062C179.258 243.624 179.159 242.977 179.116 242.119C178.576 242.822 177.886 243.367 177.046 243.753C176.214 244.13 175.331 244.319 174.396 244.319C173.058 244.319 171.974 243.946 171.142 243.2C170.319 242.454 169.907 241.511 169.907 240.37C169.907 239.015 170.469 237.943 171.592 237.155C172.724 236.366 174.297 235.971 176.312 235.971H179.103V234.389C179.103 233.395 178.795 232.614 178.177 232.048C177.569 231.474 176.677 231.187 175.502 231.187C174.43 231.187 173.543 231.461 172.84 232.01C172.137 232.559 171.785 233.219 171.785 233.991L170.242 233.978C170.242 232.872 170.756 231.915 171.785 231.109C172.814 230.295 174.079 229.888 175.579 229.888C177.131 229.888 178.353 230.278 179.245 231.058C180.145 231.83 180.608 232.91 180.634 234.299V240.885C180.634 242.231 180.776 243.238 181.058 243.907V244.062H179.412ZM174.576 242.955C175.605 242.955 176.522 242.707 177.328 242.209C178.143 241.712 178.735 241.048 179.103 240.216V237.155H176.351C174.816 237.172 173.616 237.455 172.75 238.004C171.884 238.544 171.451 239.29 171.451 240.242C171.451 241.022 171.738 241.669 172.312 242.184C172.895 242.698 173.65 242.955 174.576 242.955ZM193.702 242.299C192.776 243.646 191.297 244.319 189.264 244.319C187.781 244.319 186.653 243.89 185.882 243.033C185.11 242.167 184.716 240.889 184.698 239.2V230.145H186.229V239.007C186.229 241.656 187.301 242.981 189.445 242.981C191.674 242.981 193.084 242.059 193.676 240.216V230.145H195.22V244.062H193.728L193.702 242.299ZM201.625 226.582V230.145H204.506V231.405H201.625V240.679C201.625 241.451 201.762 242.025 202.036 242.402C202.319 242.78 202.787 242.968 203.438 242.968C203.696 242.968 204.112 242.925 204.686 242.84L204.75 244.1C204.347 244.246 203.799 244.319 203.104 244.319C202.049 244.319 201.282 244.014 200.802 243.406C200.322 242.788 200.081 241.884 200.081 240.692V231.405H197.522V230.145H200.081V226.582H201.625ZM206.59 236.897C206.59 235.56 206.847 234.355 207.361 233.283C207.884 232.211 208.618 231.38 209.561 230.788C210.513 230.188 211.589 229.888 212.789 229.888C214.641 229.888 216.142 230.539 217.291 231.843C218.44 233.137 219.014 234.857 219.014 237V237.322C219.014 238.668 218.753 239.881 218.23 240.962C217.715 242.034 216.986 242.861 216.043 243.444C215.1 244.027 214.024 244.319 212.815 244.319C210.971 244.319 209.471 243.671 208.313 242.377C207.164 241.073 206.59 239.35 206.59 237.206V236.897ZM208.133 237.322C208.133 238.985 208.562 240.353 209.419 241.425C210.285 242.488 211.417 243.02 212.815 243.02C214.204 243.02 215.327 242.488 216.185 241.425C217.051 240.353 217.484 238.942 217.484 237.193V236.897C217.484 235.834 217.287 234.861 216.892 233.978C216.498 233.095 215.945 232.413 215.233 231.933C214.521 231.444 213.707 231.199 212.789 231.199C211.417 231.199 210.298 231.74 209.432 232.82C208.566 233.892 208.133 235.298 208.133 237.039V237.322ZM223.606 230.145L223.658 232.409C224.172 231.568 224.815 230.938 225.587 230.518C226.359 230.098 227.216 229.888 228.159 229.888C230.354 229.888 231.748 230.788 232.339 232.589C232.837 231.723 233.501 231.058 234.333 230.595C235.165 230.123 236.082 229.888 237.085 229.888C240.069 229.888 241.591 231.517 241.651 234.775V244.062H240.108V234.891C240.099 233.648 239.829 232.726 239.298 232.126C238.775 231.525 237.917 231.225 236.725 231.225C235.619 231.242 234.685 231.603 233.921 232.306C233.158 233 232.734 233.849 232.648 234.852V244.062H231.105V234.775C231.096 233.583 230.813 232.696 230.256 232.113C229.707 231.521 228.858 231.225 227.709 231.225C226.74 231.225 225.908 231.504 225.214 232.061C224.519 232.61 224.005 233.429 223.67 234.518V244.062H222.127V230.145H223.606ZM254.346 244.062C254.192 243.624 254.093 242.977 254.05 242.119C253.51 242.822 252.82 243.367 251.98 243.753C251.148 244.13 250.265 244.319 249.33 244.319C247.992 244.319 246.908 243.946 246.076 243.2C245.253 242.454 244.841 241.511 244.841 240.37C244.841 239.015 245.403 237.943 246.526 237.155C247.658 236.366 249.231 235.971 251.247 235.971H254.038V234.389C254.038 233.395 253.729 232.614 253.112 232.048C252.503 231.474 251.611 231.187 250.436 231.187C249.364 231.187 248.477 231.461 247.774 232.01C247.071 232.559 246.719 233.219 246.719 233.991L245.176 233.978C245.176 232.872 245.69 231.915 246.719 231.109C247.748 230.295 249.013 229.888 250.513 229.888C252.065 229.888 253.287 230.278 254.179 231.058C255.079 231.83 255.542 232.91 255.568 234.299V240.885C255.568 242.231 255.71 243.238 255.993 243.907V244.062H254.346ZM249.51 242.955C250.539 242.955 251.457 242.707 252.263 242.209C253.077 241.712 253.669 241.048 254.038 240.216V237.155H251.285C249.75 237.172 248.55 237.455 247.684 238.004C246.818 238.544 246.385 239.29 246.385 240.242C246.385 241.022 246.672 241.669 247.246 242.184C247.83 242.698 248.584 242.955 249.51 242.955ZM262.076 226.582V230.145H264.957V231.405H262.076V240.679C262.076 241.451 262.214 242.025 262.488 242.402C262.771 242.78 263.238 242.968 263.89 242.968C264.147 242.968 264.563 242.925 265.138 242.84L265.202 244.1C264.799 244.246 264.25 244.319 263.555 244.319C262.501 244.319 261.733 244.014 261.253 243.406C260.773 242.788 260.533 241.884 260.533 240.692V231.405H257.973V230.145H260.533V226.582H262.076ZM269.871 244.062H268.327V230.145H269.871V244.062ZM268.057 226.119C268.057 225.827 268.152 225.583 268.34 225.386C268.529 225.18 268.786 225.077 269.112 225.077C269.438 225.077 269.695 225.18 269.884 225.386C270.081 225.583 270.179 225.827 270.179 226.119C270.179 226.411 270.081 226.655 269.884 226.852C269.695 227.049 269.438 227.148 269.112 227.148C268.786 227.148 268.529 227.049 268.34 226.852C268.152 226.655 268.057 226.411 268.057 226.119ZM279.209 243.02C280.28 243.02 281.176 242.72 281.897 242.119C282.626 241.511 283.02 240.726 283.08 239.766H284.559C284.516 240.615 284.251 241.391 283.762 242.094C283.273 242.788 282.621 243.333 281.807 243.727C281.001 244.122 280.135 244.319 279.209 244.319C277.382 244.319 275.933 243.684 274.861 242.415C273.798 241.146 273.266 239.44 273.266 237.296V236.833C273.266 235.461 273.506 234.248 273.987 233.193C274.467 232.138 275.153 231.324 276.045 230.749C276.945 230.175 277.995 229.888 279.196 229.888C280.722 229.888 281.978 230.342 282.964 231.251C283.959 232.16 284.491 233.356 284.559 234.839H283.08C283.011 233.75 282.617 232.872 281.897 232.203C281.185 231.534 280.285 231.199 279.196 231.199C277.807 231.199 276.726 231.701 275.955 232.704C275.191 233.708 274.81 235.114 274.81 236.923V237.373C274.81 239.148 275.191 240.533 275.955 241.528C276.726 242.522 277.811 243.02 279.209 243.02ZM74.9725 257.582V261.145H77.8536V262.405H74.9725V271.679C74.9725 272.451 75.1097 273.025 75.3841 273.402C75.667 273.78 76.1343 273.968 76.786 273.968C77.0433 273.968 77.4591 273.925 78.0336 273.84L78.0979 275.1C77.6949 275.246 77.1462 275.319 76.4516 275.319C75.3969 275.319 74.6295 275.014 74.1493 274.406C73.6691 273.788 73.429 272.884 73.429 271.692V262.405H70.8695V261.145H73.429V257.582H74.9725ZM86.4325 275.319C85.2492 275.319 84.1774 275.027 83.217 274.444C82.2652 273.861 81.5235 273.051 80.9919 272.013C80.4603 270.967 80.1945 269.797 80.1945 268.502V267.949C80.1945 266.611 80.4517 265.406 80.9662 264.335C81.4892 263.263 82.2138 262.422 83.1399 261.814C84.0659 261.196 85.0692 260.888 86.1496 260.888C87.8388 260.888 89.1764 261.466 90.1625 262.624C91.1572 263.773 91.6545 265.346 91.6545 267.344V268.206H81.725V268.502C81.725 270.08 82.1752 271.396 83.0756 272.451C83.9845 273.497 85.1249 274.02 86.4969 274.02C87.32 274.02 88.0446 273.87 88.6705 273.57C89.3051 273.269 89.8796 272.789 90.394 272.129L91.3587 272.862C90.2268 274.5 88.5848 275.319 86.4325 275.319ZM86.1496 262.199C84.992 262.199 84.0145 262.624 83.217 263.473C82.4282 264.322 81.948 265.462 81.7765 266.894H90.1239V266.727C90.0811 265.389 89.6995 264.3 88.9792 263.46C88.2589 262.62 87.3157 262.199 86.1496 262.199ZM99.0245 266.791L102.78 261.145H104.607L99.8862 267.975L104.812 275.062H102.999L99.0373 269.171L95.0758 275.062H93.2623L98.1756 267.975L93.4552 261.145H95.2688L99.0245 266.791ZM109.854 257.582V261.145H112.735V262.405H109.854V271.679C109.854 272.451 109.991 273.025 110.266 273.402C110.549 273.78 111.016 273.968 111.668 273.968C111.925 273.968 112.341 273.925 112.915 273.84L112.98 275.1C112.577 275.246 112.028 275.319 111.333 275.319C110.279 275.319 109.511 275.014 109.031 274.406C108.551 273.788 108.311 272.884 108.311 271.692V262.405H105.751V261.145H108.311V257.582H109.854ZM128.761 262.457C128.436 262.397 128.088 262.367 127.72 262.367C126.759 262.367 125.945 262.637 125.276 263.177C124.616 263.709 124.144 264.485 123.861 265.505V275.062H122.33V261.145H123.835L123.861 263.357C124.676 261.711 125.983 260.888 127.784 260.888C128.213 260.888 128.551 260.943 128.8 261.055L128.761 262.457ZM136.337 275.319C135.154 275.319 134.082 275.027 133.122 274.444C132.17 273.861 131.428 273.051 130.897 272.013C130.365 270.967 130.099 269.797 130.099 268.502V267.949C130.099 266.611 130.356 265.406 130.871 264.335C131.394 263.263 132.118 262.422 133.045 261.814C133.971 261.196 134.974 260.888 136.054 260.888C137.743 260.888 139.081 261.466 140.067 262.624C141.062 263.773 141.559 265.346 141.559 267.344V268.206H131.63V268.502C131.63 270.08 132.08 271.396 132.98 272.451C133.889 273.497 135.03 274.02 136.402 274.02C137.225 274.02 137.949 273.87 138.575 273.57C139.21 273.269 139.784 272.789 140.299 272.129L141.263 272.862C140.132 274.5 138.489 275.319 136.337 275.319ZM136.054 262.199C134.897 262.199 133.919 262.624 133.122 263.473C132.333 264.322 131.853 265.462 131.681 266.894H140.029V266.727C139.986 265.389 139.604 264.3 138.884 263.46C138.164 262.62 137.22 262.199 136.054 262.199ZM149.701 274.02C150.773 274.02 151.669 273.72 152.389 273.119C153.118 272.511 153.512 271.726 153.572 270.766H155.051C155.009 271.615 154.743 272.391 154.254 273.094C153.765 273.788 153.114 274.333 152.299 274.727C151.493 275.122 150.627 275.319 149.701 275.319C147.874 275.319 146.425 274.684 145.353 273.415C144.29 272.146 143.759 270.44 143.759 268.296V267.833C143.759 266.461 143.999 265.248 144.479 264.193C144.959 263.138 145.645 262.324 146.537 261.749C147.437 261.175 148.488 260.888 149.688 260.888C151.214 260.888 152.47 261.342 153.457 262.251C154.451 263.16 154.983 264.356 155.051 265.839H153.572C153.504 264.75 153.109 263.872 152.389 263.203C151.677 262.534 150.777 262.199 149.688 262.199C148.299 262.199 147.218 262.701 146.447 263.704C145.684 264.708 145.302 266.114 145.302 267.923V268.373C145.302 270.148 145.684 271.533 146.447 272.528C147.218 273.522 148.303 274.02 149.701 274.02ZM157.289 267.897C157.289 266.56 157.547 265.355 158.061 264.283C158.584 263.211 159.317 262.38 160.261 261.788C161.212 261.188 162.288 260.888 163.489 260.888C165.341 260.888 166.842 261.539 167.991 262.843C169.14 264.137 169.714 265.857 169.714 268V268.322C169.714 269.668 169.453 270.881 168.93 271.962C168.415 273.034 167.686 273.861 166.743 274.444C165.8 275.027 164.724 275.319 163.515 275.319C161.671 275.319 160.171 274.671 159.013 273.377C157.864 272.073 157.289 270.35 157.289 268.206V267.897ZM158.833 268.322C158.833 269.985 159.262 271.353 160.119 272.425C160.985 273.488 162.117 274.02 163.515 274.02C164.904 274.02 166.027 273.488 166.885 272.425C167.751 271.353 168.184 269.942 168.184 268.193V267.897C168.184 266.834 167.986 265.861 167.592 264.978C167.197 264.095 166.644 263.413 165.933 262.933C165.221 262.444 164.406 262.199 163.489 262.199C162.117 262.199 160.998 262.74 160.132 263.82C159.266 264.892 158.833 266.298 158.833 268.039V268.322ZM172.287 267.975C172.287 265.797 172.767 264.073 173.727 262.804C174.696 261.526 176.008 260.888 177.663 260.888C179.558 260.888 180.998 261.642 181.985 263.151L182.062 261.145H183.502V274.779C183.502 276.571 183.001 277.99 181.997 279.036C180.994 280.082 179.635 280.605 177.92 280.605C176.951 280.605 176.025 280.386 175.142 279.949C174.267 279.52 173.577 278.946 173.071 278.226L173.933 277.3C175.022 278.637 176.317 279.306 177.817 279.306C179.103 279.306 180.107 278.924 180.827 278.161C181.547 277.407 181.92 276.356 181.946 275.01V273.261C180.96 274.633 179.524 275.319 177.637 275.319C176.025 275.319 174.73 274.676 173.753 273.389C172.775 272.103 172.287 270.367 172.287 268.18V267.975ZM173.843 268.245C173.843 270.02 174.199 271.422 174.91 272.451C175.622 273.471 176.625 273.981 177.92 273.981C179.815 273.981 181.157 273.132 181.946 271.434V264.965C181.586 264.073 181.067 263.396 180.39 262.933C179.712 262.461 178.898 262.225 177.946 262.225C176.651 262.225 175.644 262.735 174.923 263.756C174.203 264.768 173.843 266.264 173.843 268.245ZM188.981 261.145L189.033 263.524C189.556 262.667 190.208 262.015 190.988 261.569C191.768 261.115 192.63 260.888 193.573 260.888C195.065 260.888 196.176 261.308 196.904 262.148C197.633 262.988 198.002 264.249 198.011 265.929V275.062H196.48V265.917C196.471 264.673 196.206 263.747 195.683 263.138C195.168 262.53 194.341 262.225 193.2 262.225C192.248 262.225 191.404 262.525 190.666 263.126C189.938 263.717 189.397 264.519 189.046 265.531V275.062H187.515V261.145H188.981ZM203.721 275.062H202.178V261.145H203.721V275.062ZM201.908 257.119C201.908 256.827 202.002 256.583 202.191 256.386C202.379 256.18 202.637 256.077 202.962 256.077C203.288 256.077 203.546 256.18 203.734 256.386C203.931 256.583 204.03 256.827 204.03 257.119C204.03 257.411 203.931 257.655 203.734 257.852C203.546 258.049 203.288 258.148 202.962 258.148C202.637 258.148 202.379 258.049 202.191 257.852C202.002 257.655 201.908 257.411 201.908 257.119ZM210.307 257.582V261.145H213.188V262.405H210.307V271.679C210.307 272.451 210.444 273.025 210.718 273.402C211.001 273.78 211.469 273.968 212.12 273.968C212.377 273.968 212.793 273.925 213.368 273.84L213.432 275.1C213.029 275.246 212.48 275.319 211.786 275.319C210.731 275.319 209.964 275.014 209.484 274.406C209.003 273.788 208.763 272.884 208.763 271.692V262.405H206.204V261.145H208.763V257.582H210.307ZM218.101 275.062H216.558V261.145H218.101V275.062ZM216.288 257.119C216.288 256.827 216.382 256.583 216.571 256.386C216.759 256.18 217.016 256.077 217.342 256.077C217.668 256.077 217.925 256.18 218.114 256.386C218.311 256.583 218.41 256.827 218.41 257.119C218.41 257.411 218.311 257.655 218.114 257.852C217.925 258.049 217.668 258.148 217.342 258.148C217.016 258.148 216.759 258.049 216.571 257.852C216.382 257.655 216.288 257.411 216.288 257.119ZM221.445 267.897C221.445 266.56 221.702 265.355 222.217 264.283C222.74 263.211 223.473 262.38 224.416 261.788C225.368 261.188 226.444 260.888 227.645 260.888C229.497 260.888 230.997 261.539 232.146 262.843C233.295 264.137 233.87 265.857 233.87 268V268.322C233.87 269.668 233.608 270.881 233.085 271.962C232.571 273.034 231.842 273.861 230.899 274.444C229.956 275.027 228.879 275.319 227.67 275.319C225.827 275.319 224.326 274.671 223.169 273.377C222.02 272.073 221.445 270.35 221.445 268.206V267.897ZM222.989 268.322C222.989 269.985 223.417 271.353 224.275 272.425C225.141 273.488 226.273 274.02 227.67 274.02C229.06 274.02 230.183 273.488 231.04 272.425C231.906 271.353 232.339 269.942 232.339 268.193V267.897C232.339 266.834 232.142 265.861 231.748 264.978C231.353 264.095 230.8 263.413 230.089 262.933C229.377 262.444 228.562 262.199 227.645 262.199C226.273 262.199 225.154 262.74 224.288 263.82C223.422 264.892 222.989 266.298 222.989 268.039V268.322ZM238.526 261.145L238.577 263.524C239.101 262.667 239.752 262.015 240.532 261.569C241.313 261.115 242.175 260.888 243.118 260.888C244.61 260.888 245.72 261.308 246.449 262.148C247.178 262.988 247.547 264.249 247.555 265.929V275.062H246.025V265.917C246.016 264.673 245.75 263.747 245.227 263.138C244.713 262.53 243.885 262.225 242.745 262.225C241.793 262.225 240.948 262.525 240.211 263.126C239.482 263.717 238.942 264.519 238.59 265.531V275.062H237.06V261.145H238.526ZM268.417 269.814H259.916L257.986 275.062H256.327L263.414 256.334H264.919L272.006 275.062H270.36L268.417 269.814ZM260.404 268.463H267.916L264.16 258.264L260.404 268.463ZM276.701 275.062H275.118V256.334H276.701V275.062Z" fill="black"/>
<path d="M101.968 91.4302V104.143H96.0229V69.9296H109.111C112.934 69.9296 115.965 70.9243 118.205 72.9138C120.461 74.9033 121.589 77.5351 121.589 80.8091C121.589 84.1615 120.484 86.7698 118.275 88.6339C116.082 90.4981 113.004 91.4302 109.041 91.4302H101.968ZM101.968 86.6601H109.111C111.226 86.6601 112.84 86.1667 113.952 85.1797C115.064 84.1772 115.62 82.736 115.62 80.8561C115.62 79.0076 115.056 77.5351 113.928 76.4385C112.8 75.3263 111.25 74.7545 109.276 74.7232H101.968V86.6601ZM139.565 83.9344C138.813 83.809 138.037 83.7464 137.238 83.7464C134.622 83.7464 132.86 84.749 131.951 86.7541V104.143H126.241V78.7178H131.693L131.834 81.5611C133.212 79.3523 135.123 78.2479 137.567 78.2479C138.382 78.2479 139.055 78.3575 139.588 78.5768L139.565 83.9344ZM153.898 104.613C150.28 104.613 147.342 103.477 145.087 101.205C142.846 98.9182 141.726 95.8791 141.726 92.0881V91.3832C141.726 88.8454 142.212 86.5818 143.183 84.5923C144.17 82.5871 145.549 81.0284 147.319 79.9162C149.089 78.804 151.063 78.2479 153.24 78.2479C156.702 78.2479 159.373 79.3523 161.253 81.5611C163.149 83.7699 164.096 86.8951 164.096 90.9367V93.2395H147.483C147.656 95.3387 148.353 96.9992 149.575 98.2211C150.812 99.443 152.363 100.054 154.227 100.054C156.843 100.054 158.974 98.9965 160.619 96.8817L163.697 99.819C162.679 101.338 161.316 102.521 159.608 103.367C157.916 104.197 156.013 104.613 153.898 104.613ZM153.217 82.83C151.65 82.83 150.381 83.3782 149.41 84.4748C148.455 85.5714 147.844 87.0987 147.577 89.0569H158.457V88.6339C158.332 86.7228 157.822 85.2816 156.93 84.3103C156.037 83.3234 154.799 82.83 153.217 82.83ZM177.185 96.9052L182.566 78.7178H188.464L179.652 104.143H174.694L165.812 78.7178H171.733L177.185 96.9052ZM202.915 104.613C199.296 104.613 196.359 103.477 194.103 101.205C191.863 98.9182 190.743 95.8791 190.743 92.0881V91.3832C190.743 88.8454 191.229 86.5818 192.2 84.5923C193.187 82.5871 194.565 81.0284 196.336 79.9162C198.106 78.804 200.08 78.2479 202.257 78.2479C205.719 78.2479 208.39 79.3523 210.27 81.5611C212.165 83.7699 213.113 86.8951 213.113 90.9367V93.2395H196.5C196.672 95.3387 197.369 96.9992 198.591 98.2211C199.829 99.443 201.38 100.054 203.244 100.054C205.86 100.054 207.991 98.9965 209.635 96.8817L212.714 99.819C211.695 101.338 210.333 102.521 208.625 103.367C206.933 104.197 205.03 104.613 202.915 104.613ZM202.234 82.83C200.667 82.83 199.398 83.3782 198.427 84.4748C197.471 85.5714 196.86 87.0987 196.594 89.0569H207.474V88.6339C207.348 86.7228 206.839 85.2816 205.946 84.3103C205.053 83.3234 203.816 82.83 202.234 82.83ZM222.865 78.7178L223.029 81.6551C224.909 79.3836 227.376 78.2479 230.431 78.2479C235.726 78.2479 238.42 81.2791 238.514 87.3416V104.143H232.804V87.6705C232.804 86.057 232.452 84.8664 231.747 84.0988C231.058 83.3156 229.922 82.9239 228.34 82.9239C226.037 82.9239 224.322 83.9657 223.194 86.0492V104.143H217.484V78.7178H222.865ZM251.509 72.5379V78.7178H255.997V82.9474H251.509V97.1402C251.509 98.1114 251.697 98.8164 252.073 99.255C252.464 99.678 253.154 99.8895 254.14 99.8895C254.798 99.8895 255.464 99.8111 256.138 99.6545V104.072C254.838 104.432 253.584 104.613 252.378 104.613C247.992 104.613 245.799 102.192 245.799 97.3517V82.9474H241.616V78.7178H245.799V72.5379H251.509ZM74.4988 144.177H61.246L58.4732 152.143H52.2933L65.2171 117.93H70.5511L83.4985 152.143H77.2951L74.4988 144.177ZM62.9143 139.383H72.8304L67.8724 125.19L62.9143 139.383ZM85.7778 139.242C85.7778 135.326 86.6864 132.185 88.5036 129.82C90.3207 127.438 92.7567 126.248 95.8114 126.248C98.5059 126.248 100.683 127.188 102.344 129.068V116.05H108.054V152.143H102.884L102.602 149.511C100.895 151.579 98.6155 152.613 95.7644 152.613C92.788 152.613 90.3756 151.414 88.5271 149.017C86.6942 146.621 85.7778 143.362 85.7778 139.242ZM91.4878 139.736C91.4878 142.32 91.9813 144.341 92.9682 145.798C93.9708 147.239 95.3885 147.96 97.2213 147.96C99.5554 147.96 101.263 146.918 102.344 144.835V133.979C101.294 131.942 99.6024 130.924 97.2683 130.924C95.4198 130.924 93.9943 131.66 92.9917 133.133C91.9891 134.59 91.4878 136.791 91.4878 139.736ZM122.975 144.905L128.356 126.718H134.254L125.442 152.143H120.484L111.602 126.718H117.524L122.975 144.905ZM148.705 152.613C145.087 152.613 142.149 151.477 139.894 149.205C137.653 146.918 136.533 143.879 136.533 140.088V139.383C136.533 136.845 137.019 134.582 137.99 132.592C138.977 130.587 140.356 129.028 142.126 127.916C143.896 126.804 145.87 126.248 148.047 126.248C151.509 126.248 154.18 127.352 156.06 129.561C157.956 131.77 158.903 134.895 158.903 138.937V141.24H142.29C142.463 143.339 143.16 144.999 144.382 146.221C145.619 147.443 147.17 148.054 149.034 148.054C151.65 148.054 153.781 146.997 155.426 144.882L158.504 147.819C157.486 149.338 156.123 150.521 154.415 151.367C152.723 152.197 150.82 152.613 148.705 152.613ZM148.024 130.83C146.457 130.83 145.188 131.378 144.217 132.475C143.262 133.571 142.651 135.099 142.384 137.057H153.264V136.634C153.139 134.723 152.629 133.282 151.737 132.31C150.844 131.323 149.606 130.83 148.024 130.83ZM176.668 131.934C175.916 131.809 175.14 131.746 174.342 131.746C171.725 131.746 169.963 132.749 169.054 134.754V152.143H163.344V126.718H168.796L168.937 129.561C170.316 127.352 172.227 126.248 174.67 126.248C175.485 126.248 176.159 126.358 176.691 126.577L176.668 131.934ZM188.605 120.538V126.718H193.093V130.947H188.605V145.14C188.605 146.111 188.793 146.816 189.169 147.255C189.56 147.678 190.25 147.889 191.237 147.889C191.894 147.889 192.56 147.811 193.234 147.654V152.072C191.934 152.432 190.68 152.613 189.474 152.613C185.088 152.613 182.895 150.192 182.895 145.352V130.947H178.712V126.718H182.895V120.538H188.605ZM203.549 152.143H197.839V126.718H203.549V152.143ZM197.487 120.115C197.487 119.238 197.761 118.509 198.309 117.93C198.873 117.35 199.672 117.06 200.706 117.06C201.74 117.06 202.539 117.35 203.103 117.93C203.667 118.509 203.949 119.238 203.949 120.115C203.949 120.976 203.667 121.697 203.103 122.277C202.539 122.841 201.74 123.123 200.706 123.123C199.672 123.123 198.873 122.841 198.309 122.277C197.761 121.697 197.487 120.976 197.487 120.115ZM224.04 145.234C224.04 144.216 223.617 143.441 222.771 142.908C221.94 142.375 220.554 141.905 218.612 141.498C216.669 141.091 215.048 140.574 213.748 139.947C210.896 138.569 209.471 136.571 209.471 133.955C209.471 131.762 210.395 129.929 212.244 128.457C214.092 126.984 216.442 126.248 219.293 126.248C222.332 126.248 224.784 127 226.648 128.504C228.528 130.008 229.468 131.958 229.468 134.355H223.758C223.758 133.258 223.35 132.349 222.536 131.629C221.721 130.893 220.64 130.524 219.293 130.524C218.04 130.524 217.014 130.814 216.215 131.394C215.432 131.974 215.04 132.749 215.04 133.72C215.04 134.597 215.408 135.279 216.144 135.765C216.881 136.25 218.369 136.744 220.609 137.245C222.849 137.731 224.604 138.318 225.872 139.007C227.157 139.681 228.105 140.495 228.716 141.451C229.342 142.407 229.656 143.566 229.656 144.929C229.656 147.216 228.708 149.072 226.812 150.498C224.917 151.908 222.434 152.613 219.364 152.613C217.28 152.613 215.424 152.237 213.795 151.485C212.165 150.733 210.896 149.699 209.988 148.383C209.079 147.067 208.625 145.649 208.625 144.13H214.17C214.249 145.477 214.758 146.519 215.698 147.255C216.638 147.976 217.883 148.336 219.434 148.336C220.938 148.336 222.081 148.054 222.865 147.49C223.648 146.91 224.04 146.158 224.04 145.234ZM240.723 152.143H235.013V126.718H240.723V152.143ZM234.661 120.115C234.661 119.238 234.935 118.509 235.483 117.93C236.047 117.35 236.846 117.06 237.88 117.06C238.914 117.06 239.713 117.35 240.277 117.93C240.841 118.509 241.123 119.238 241.123 120.115C241.123 120.976 240.841 121.697 240.277 122.277C239.713 122.841 238.914 123.123 237.88 123.123C236.846 123.123 236.047 122.841 235.483 122.277C234.935 121.697 234.661 120.976 234.661 120.115ZM252.261 126.718L252.425 129.655C254.305 127.384 256.772 126.248 259.827 126.248C265.122 126.248 267.816 129.279 267.91 135.342V152.143H262.2V135.671C262.2 134.057 261.848 132.866 261.143 132.099C260.454 131.316 259.318 130.924 257.736 130.924C255.433 130.924 253.718 131.966 252.59 134.049V152.143H246.88V126.718H252.261ZM272.751 139.242C272.751 135.295 273.675 132.146 275.524 129.796C277.388 127.431 279.855 126.248 282.925 126.248C285.824 126.248 288.103 127.258 289.763 129.279L290.022 126.718H295.168V151.367C295.168 154.704 294.126 157.336 292.043 159.262C289.975 161.189 287.179 162.153 283.654 162.153C281.79 162.153 279.965 161.761 278.179 160.978C276.409 160.21 275.061 159.2 274.137 157.947L276.839 154.516C278.594 156.599 280.756 157.641 283.325 157.641C285.22 157.641 286.716 157.124 287.813 156.09C288.91 155.072 289.458 153.568 289.458 151.579V149.863C287.813 151.696 285.62 152.613 282.878 152.613C279.902 152.613 277.466 151.43 275.571 149.064C273.691 146.699 272.751 143.425 272.751 139.242ZM278.437 139.736C278.437 142.289 278.954 144.302 279.988 145.775C281.038 147.232 282.487 147.96 284.335 147.96C286.638 147.96 288.346 146.973 289.458 144.999V133.814C288.377 131.887 286.685 130.924 284.382 130.924C282.502 130.924 281.038 131.668 279.988 133.156C278.954 134.644 278.437 136.838 278.437 139.736ZM78.8224 200.143H72.9009V165.93H78.8224V200.143ZM90.8769 174.718L91.0413 177.655C92.9212 175.384 95.3885 174.248 98.4432 174.248C103.738 174.248 106.432 177.279 106.526 183.342V200.143H100.816V183.671C100.816 182.057 100.464 180.866 99.7591 180.099C99.0698 179.316 97.9341 178.924 96.3519 178.924C94.0491 178.924 92.3337 179.966 91.2058 182.049V200.143H85.4958V174.718H90.8769ZM131.176 200.143H125.254V165.93H131.176V200.143ZM143.301 174.718L143.465 177.373C145.251 175.29 147.695 174.248 150.797 174.248C154.196 174.248 156.522 175.548 157.775 178.149C159.624 175.548 162.224 174.248 165.577 174.248C168.381 174.248 170.464 175.023 171.827 176.574C173.206 178.125 173.911 180.412 173.942 183.436V200.143H168.232V183.6C168.232 181.987 167.88 180.804 167.175 180.052C166.47 179.3 165.303 178.924 163.673 178.924C162.373 178.924 161.308 179.276 160.478 179.981C159.663 180.671 159.091 181.579 158.762 182.707L158.786 200.143H153.076V183.412C152.998 180.42 151.47 178.924 148.494 178.924C146.207 178.924 144.585 179.856 143.63 181.72V200.143H137.92V174.718H143.301ZM194.996 200.143C194.746 199.657 194.526 198.866 194.338 197.769C192.521 199.665 190.297 200.613 187.665 200.613C185.111 200.613 183.028 199.884 181.414 198.427C179.801 196.97 178.994 195.169 178.994 193.023C178.994 190.313 179.997 188.237 182.002 186.796C184.023 185.339 186.905 184.61 190.649 184.61H194.15V182.942C194.15 181.626 193.782 180.577 193.046 179.793C192.31 178.994 191.19 178.595 189.686 178.595C188.385 178.595 187.32 178.924 186.49 179.582C185.66 180.224 185.245 181.047 185.245 182.049H179.535C179.535 180.655 179.997 179.355 180.921 178.149C181.845 176.927 183.098 175.971 184.681 175.282C186.278 174.592 188.056 174.248 190.015 174.248C192.991 174.248 195.364 175 197.135 176.504C198.905 177.992 199.813 180.091 199.86 182.801V194.268C199.86 196.555 200.181 198.38 200.824 199.743V200.143H194.996ZM188.722 196.03C189.85 196.03 190.908 195.756 191.894 195.208C192.897 194.66 193.649 193.923 194.15 192.999V188.206H191.072C188.957 188.206 187.367 188.574 186.302 189.31C185.237 190.046 184.704 191.088 184.704 192.435C184.704 193.532 185.064 194.409 185.785 195.067C186.521 195.709 187.5 196.03 188.722 196.03ZM204.842 187.242C204.842 183.295 205.766 180.146 207.615 177.796C209.479 175.431 211.946 174.248 215.016 174.248C217.915 174.248 220.194 175.258 221.854 177.279L222.113 174.718H227.259V199.367C227.259 202.704 226.217 205.336 224.134 207.262C222.066 209.189 219.27 210.153 215.745 210.153C213.881 210.153 212.056 209.761 210.27 208.978C208.5 208.21 207.152 207.2 206.228 205.947L208.93 202.516C210.685 204.599 212.847 205.641 215.416 205.641C217.311 205.641 218.807 205.124 219.904 204.09C221.001 203.072 221.549 201.568 221.549 199.579V197.863C219.904 199.696 217.711 200.613 214.969 200.613C211.993 200.613 209.557 199.43 207.662 197.064C205.782 194.699 204.842 191.425 204.842 187.242ZM210.528 187.736C210.528 190.289 211.045 192.302 212.079 193.775C213.129 195.232 214.578 195.96 216.426 195.96C218.729 195.96 220.437 194.973 221.549 192.999V181.814C220.468 179.887 218.776 178.924 216.473 178.924C214.593 178.924 213.129 179.668 212.079 181.156C211.045 182.644 210.528 184.838 210.528 187.736ZM244.342 200.613C240.723 200.613 237.786 199.477 235.53 197.205C233.29 194.918 232.17 191.879 232.17 188.088V187.383C232.17 184.845 232.656 182.582 233.627 180.592C234.614 178.587 235.992 177.028 237.762 175.916C239.533 174.804 241.506 174.248 243.684 174.248C247.146 174.248 249.817 175.352 251.697 177.561C253.592 179.77 254.54 182.895 254.54 186.937V189.24H237.927C238.099 191.339 238.796 192.999 240.018 194.221C241.256 195.443 242.807 196.054 244.671 196.054C247.287 196.054 249.417 194.997 251.062 192.882L254.14 195.819C253.122 197.338 251.759 198.521 250.052 199.367C248.36 200.197 246.457 200.613 244.342 200.613ZM243.66 178.83C242.094 178.83 240.825 179.378 239.854 180.475C238.898 181.571 238.287 183.099 238.021 185.057H248.9V184.634C248.775 182.723 248.266 181.282 247.373 180.31C246.48 179.323 245.243 178.83 243.66 178.83ZM273.244 193.234C273.244 192.216 272.821 191.441 271.975 190.908C271.145 190.375 269.759 189.905 267.816 189.498C265.874 189.091 264.252 188.574 262.952 187.947C260.101 186.569 258.676 184.571 258.676 181.955C258.676 179.762 259.6 177.929 261.448 176.457C263.297 174.984 265.647 174.248 268.498 174.248C271.537 174.248 273.988 175 275.853 176.504C277.732 178.008 278.672 179.958 278.672 182.355H272.962C272.962 181.258 272.555 180.349 271.74 179.629C270.926 178.893 269.845 178.524 268.498 178.524C267.245 178.524 266.218 178.814 265.419 179.394C264.636 179.974 264.245 180.749 264.245 181.72C264.245 182.597 264.613 183.279 265.349 183.765C266.085 184.25 267.573 184.744 269.814 185.245C272.054 185.731 273.808 186.318 275.077 187.007C276.362 187.681 277.309 188.495 277.92 189.451C278.547 190.407 278.86 191.566 278.86 192.929C278.86 195.216 277.913 197.072 276.017 198.498C274.122 199.908 271.639 200.613 268.568 200.613C266.485 200.613 264.628 200.237 262.999 199.485C261.37 198.733 260.101 197.699 259.193 196.383C258.284 195.067 257.83 193.649 257.83 192.13H263.375C263.454 193.477 263.963 194.519 264.903 195.255C265.842 195.976 267.088 196.336 268.639 196.336C270.143 196.336 271.286 196.054 272.069 195.49C272.853 194.91 273.244 194.158 273.244 193.234Z" fill="url(#paint1_linear)"/>
<defs>
<filter id="filter0_bd" x="0.0161667" y="0.0161667" width="349.968" height="349.968" filterUnits="userSpaceOnUse" color-interpolation-filters="sRGB">
<feFlood flood-opacity="0" result="BackgroundImageFix"/>
<feGaussianBlur in="BackgroundImage" stdDeviation="11.651"/>
<feComposite in2="SourceAlpha" operator="in" result="effect1_backgroundBlur"/>
<feColorMatrix in="SourceAlpha" type="matrix" values="0 0 0 0 0 0 0 0 0 0 0 0 0 0 0 0 0 0 127 0" result="hardAlpha"/>
<feMorphology radius="4.16397" operator="dilate" in="SourceAlpha" result="effect2_dropShadow"/>
<feOffset/>
<feGaussianBlur stdDeviation="10.4099"/>
<feComposite in2="hardAlpha" operator="out"/>
<feColorMatrix type="matrix" values="0 0 0 0 0 0 0 0 0 0 0 0 0 0 0 0 0 0 0.5 0"/>
<feBlend mode="normal" in2="effect1_backgroundBlur" result="effect2_dropShadow"/>
<feBlend mode="normal" in="SourceGraphic" in2="effect2_dropShadow" result="shape"/>
</filter>
<linearGradient id="paint0_linear" x1="25" y1="25" x2="368.806" y2="88.7487" gradientUnits="userSpaceOnUse">
<stop stop-color="white" stop-opacity="0.9"/>
<stop offset="1" stop-color="white" stop-opacity="0.7"/>
</linearGradient>
<linearGradient id="paint1_linear" x1="140.153" y1="64.1426" x2="243.092" y2="106.496" gradientUnits="userSpaceOnUse">
<stop stop-color="#65CC76"/>
<stop offset="1" stop-color="#60B358"/>
</linearGradient>
</defs>
</svg>
