<svg width="350" height="350" viewBox="0 0 350 350" fill="none" xmlns="http://www.w3.org/2000/svg">
<g filter="url(#filter0_bd)">
<rect x="25" y="25" width="300" height="300" rx="25.3283" fill="url(#paint0_linear)" fill-opacity="0.65" shape-rendering="crispEdges"/>
</g>
<mask id="mask0" style="mask-type:alpha" maskUnits="userSpaceOnUse" x="25" y="25" width="300" height="300">
<rect x="25" y="25" width="299.103" height="299.103" rx="25.3283" fill="url(#paint1_linear)"/>
</mask>
<g mask="url(#mask0)">
<g filter="url(#filter1_d)">
<rect x="44.4443" y="-18.1816" width="260.859" height="82.3232" rx="2.53283" fill="white"/>
<path d="M44.4443 -15.6488C44.4443 -17.0477 45.5783 -18.1816 46.9772 -18.1816H50.5049V64.1416H46.9772C45.5783 64.1416 44.4443 63.0076 44.4443 61.6088V-15.6488Z" fill="#F27878"/>
<rect x="44.4443" y="81.3135" width="260.859" height="82.3232" rx="2.53283" fill="white"/>
<path d="M44.4443 83.8463C44.4443 82.4475 45.5783 81.3135 46.9772 81.3135H50.5049V163.637H46.9772C45.5783 163.637 44.4443 162.503 44.4443 161.104V83.8463Z" fill="#F27878"/>
<rect x="44.4443" y="180.808" width="260.859" height="82.3232" rx="2.53283" fill="white"/>
<path d="M44.4443 183.34C44.4443 181.942 45.5783 180.808 46.9772 180.808H50.5049V263.131H46.9772C45.5783 263.131 44.4443 261.997 44.4443 260.598V183.34Z" fill="#F27878"/>
<rect x="44.4443" y="280.304" width="260.859" height="82.3232" rx="2.53283" fill="white"/>
<path d="M44.4443 282.837C44.4443 281.438 45.5783 280.304 46.9772 280.304H50.5049V362.627H46.9772C45.5783 362.627 44.4443 361.493 44.4443 360.094V282.837Z" fill="#F27878"/>
</g>
</g>
<path d="M77.2361 106.118L74.5994 108.716V115.417H73.0174V96.6899H74.5994V106.787L84.1945 96.6899H86.1881L78.3422 105.024L86.7926 115.417H84.8633L77.2361 106.118ZM94.3297 115.674C93.1464 115.674 92.0746 115.383 91.1142 114.8C90.1624 114.217 89.4207 113.406 88.8891 112.369C88.3575 111.323 88.0916 110.152 88.0916 108.857V108.304C88.0916 106.967 88.3489 105.762 88.8634 104.69C89.3864 103.618 90.111 102.778 91.0371 102.169C91.9631 101.552 92.9664 101.243 94.0468 101.243C95.736 101.243 97.0736 101.822 98.0597 102.979C99.0544 104.128 99.5517 105.702 99.5517 107.7V108.562H89.6222V108.857C89.6222 110.435 90.0724 111.751 90.9727 112.806C91.8817 113.852 93.0221 114.375 94.394 114.375C95.2172 114.375 95.9418 114.225 96.5677 113.925C97.2023 113.625 97.7768 113.145 98.2912 112.484L99.2559 113.218C98.124 114.855 96.482 115.674 94.3297 115.674ZM94.0468 102.555C92.8892 102.555 91.9117 102.979 91.1142 103.828C90.3254 104.677 89.8452 105.818 89.6737 107.25H98.0211V107.082C97.9783 105.745 97.5967 104.656 96.8764 103.815C96.1561 102.975 95.2129 102.555 94.0468 102.555ZM107.938 115.674C106.754 115.674 105.683 115.383 104.722 114.8C103.77 114.217 103.029 113.406 102.497 112.369C101.965 111.323 101.7 110.152 101.7 108.857V108.304C101.7 106.967 101.957 105.762 102.471 104.69C102.994 103.618 103.719 102.778 104.645 102.169C105.571 101.552 106.574 101.243 107.655 101.243C109.344 101.243 110.682 101.822 111.668 102.979C112.662 104.128 113.16 105.702 113.16 107.7V108.562H103.23V108.857C103.23 110.435 103.68 111.751 104.581 112.806C105.49 113.852 106.63 114.375 108.002 114.375C108.825 114.375 109.55 114.225 110.176 113.925C110.81 113.625 111.385 113.145 111.899 112.484L112.864 113.218C111.732 114.855 110.09 115.674 107.938 115.674ZM107.655 102.555C106.497 102.555 105.52 102.979 104.722 103.828C103.933 104.677 103.453 105.818 103.282 107.25H111.629V107.082C111.586 105.745 111.205 104.656 110.484 103.815C109.764 102.975 108.821 102.555 107.655 102.555ZM127.347 108.6C127.347 110.77 126.866 112.493 125.906 113.771C124.946 115.04 123.659 115.674 122.047 115.674C120.144 115.674 118.686 115.005 117.674 113.668V120.768H116.144V101.5H117.571L117.649 103.468C118.652 101.985 120.105 101.243 122.009 101.243C123.672 101.243 124.976 101.873 125.919 103.134C126.871 104.394 127.347 106.143 127.347 108.381V108.6ZM125.803 108.33C125.803 106.555 125.439 105.153 124.71 104.124C123.981 103.095 122.965 102.581 121.662 102.581C120.718 102.581 119.908 102.808 119.231 103.262C118.553 103.717 118.034 104.377 117.674 105.243V111.919C118.043 112.716 118.57 113.325 119.256 113.745C119.942 114.165 120.753 114.375 121.687 114.375C122.982 114.375 123.99 113.861 124.71 112.832C125.439 111.794 125.803 110.294 125.803 108.33ZM139.565 97.9375V101.5H142.447V102.761H139.565V112.034C139.565 112.806 139.703 113.381 139.977 113.758C140.26 114.135 140.727 114.324 141.379 114.324C141.636 114.324 142.052 114.281 142.627 114.195L142.691 115.456C142.288 115.601 141.739 115.674 141.045 115.674C139.99 115.674 139.222 115.37 138.742 114.761C138.262 114.144 138.022 113.239 138.022 112.047V102.761H135.462V101.5H138.022V97.9375H139.565ZM152.067 102.812C151.742 102.752 151.394 102.722 151.026 102.722C150.065 102.722 149.251 102.992 148.582 103.532C147.922 104.064 147.45 104.84 147.167 105.861V115.417H145.636V101.5H147.141L147.167 103.713C147.982 102.066 149.289 101.243 151.09 101.243C151.519 101.243 151.857 101.299 152.106 101.41L152.067 102.812ZM162.781 115.417C162.627 114.98 162.528 114.332 162.486 113.475C161.945 114.178 161.255 114.722 160.415 115.108C159.583 115.486 158.7 115.674 157.765 115.674C156.428 115.674 155.343 115.301 154.511 114.555C153.688 113.809 153.276 112.866 153.276 111.726C153.276 110.371 153.838 109.299 154.961 108.51C156.093 107.721 157.667 107.327 159.682 107.327H162.473V105.745C162.473 104.75 162.164 103.97 161.547 103.404C160.938 102.829 160.046 102.542 158.871 102.542C157.8 102.542 156.912 102.816 156.209 103.365C155.506 103.914 155.154 104.574 155.154 105.346L153.611 105.333C153.611 104.227 154.125 103.271 155.154 102.465C156.183 101.65 157.448 101.243 158.949 101.243C160.501 101.243 161.722 101.633 162.614 102.413C163.515 103.185 163.978 104.266 164.003 105.655V112.24C164.003 113.586 164.145 114.594 164.428 115.263V115.417H162.781ZM157.945 114.311C158.974 114.311 159.892 114.062 160.698 113.565C161.512 113.068 162.104 112.403 162.473 111.571V108.51H159.72C158.185 108.527 156.985 108.81 156.119 109.359C155.253 109.899 154.82 110.645 154.82 111.597C154.82 112.377 155.107 113.025 155.682 113.539C156.265 114.054 157.019 114.311 157.945 114.311ZM173.264 114.375C174.336 114.375 175.232 114.075 175.952 113.475C176.681 112.866 177.075 112.081 177.135 111.121H178.615C178.572 111.97 178.306 112.746 177.817 113.449C177.328 114.144 176.677 114.688 175.862 115.083C175.056 115.477 174.19 115.674 173.264 115.674C171.438 115.674 169.988 115.04 168.917 113.771C167.853 112.502 167.322 110.795 167.322 108.652V108.189C167.322 106.817 167.562 105.603 168.042 104.549C168.522 103.494 169.208 102.679 170.1 102.105C171 101.53 172.051 101.243 173.251 101.243C174.777 101.243 176.034 101.697 177.02 102.606C178.014 103.515 178.546 104.711 178.615 106.195H177.135C177.067 105.106 176.672 104.227 175.952 103.558C175.24 102.889 174.34 102.555 173.251 102.555C171.862 102.555 170.782 103.057 170.01 104.06C169.247 105.063 168.865 106.469 168.865 108.279V108.729C168.865 110.504 169.247 111.889 170.01 112.883C170.782 113.878 171.866 114.375 173.264 114.375ZM185.007 108.407L183.245 110.105V115.417H181.701V95.6609H183.245V108.304L184.698 106.735L190.023 101.5H191.965L186.062 107.365L192.48 115.417H190.641L185.007 108.407ZM200.171 108.253C200.171 106.915 200.429 105.71 200.943 104.639C201.466 103.567 202.199 102.735 203.142 102.143C204.094 101.543 205.17 101.243 206.371 101.243C208.223 101.243 209.724 101.895 210.873 103.198C212.022 104.493 212.596 106.212 212.596 108.356V108.677C212.596 110.024 212.335 111.237 211.811 112.317C211.297 113.389 210.568 114.217 209.625 114.8C208.682 115.383 207.606 115.674 206.397 115.674C204.553 115.674 203.052 115.027 201.895 113.732C200.746 112.429 200.171 110.705 200.171 108.562V108.253ZM201.715 108.677C201.715 110.341 202.144 111.708 203.001 112.78C203.867 113.844 204.999 114.375 206.397 114.375C207.786 114.375 208.909 113.844 209.766 112.78C210.632 111.708 211.065 110.298 211.065 108.549V108.253C211.065 107.19 210.868 106.216 210.474 105.333C210.079 104.45 209.526 103.768 208.815 103.288C208.103 102.799 207.288 102.555 206.371 102.555C204.999 102.555 203.88 103.095 203.014 104.176C202.148 105.247 201.715 106.654 201.715 108.394V108.677ZM216.892 115.417V102.761H214.59V101.5H216.892V99.8154C216.892 98.392 217.252 97.2987 217.972 96.5355C218.701 95.7724 219.713 95.3908 221.008 95.3908C221.591 95.3908 222.135 95.4637 222.641 95.6095L222.526 96.8957C222.097 96.7928 221.629 96.7413 221.124 96.7413C220.275 96.7413 219.614 97.0071 219.143 97.5388C218.671 98.0618 218.435 98.8078 218.435 99.7768V101.5H221.754V102.761H218.435V115.417H216.892ZM235.323 113.205L239.388 101.5H241.047L235.105 117.784L234.796 118.504C234.033 120.193 232.854 121.038 231.259 121.038C230.89 121.038 230.496 120.978 230.076 120.858L230.063 119.584L230.86 119.661C231.615 119.661 232.224 119.473 232.687 119.096C233.158 118.727 233.557 118.088 233.883 117.179L234.564 115.301L229.317 101.5H231.002L235.323 113.205ZM242.385 108.253C242.385 106.915 242.642 105.71 243.156 104.639C243.679 103.567 244.412 102.735 245.356 102.143C246.307 101.543 247.384 101.243 248.584 101.243C250.436 101.243 251.937 101.895 253.086 103.198C254.235 104.493 254.809 106.212 254.809 108.356V108.677C254.809 110.024 254.548 111.237 254.025 112.317C253.51 113.389 252.781 114.217 251.838 114.8C250.895 115.383 249.819 115.674 248.61 115.674C246.766 115.674 245.266 115.027 244.108 113.732C242.959 112.429 242.385 110.705 242.385 108.562V108.253ZM243.928 108.677C243.928 110.341 244.357 111.708 245.214 112.78C246.08 113.844 247.212 114.375 248.61 114.375C249.999 114.375 251.122 113.844 251.98 112.78C252.846 111.708 253.279 110.298 253.279 108.549V108.253C253.279 107.19 253.081 106.216 252.687 105.333C252.293 104.45 251.74 103.768 251.028 103.288C250.316 102.799 249.502 102.555 248.584 102.555C247.212 102.555 246.093 103.095 245.227 104.176C244.361 105.247 243.928 106.654 243.928 108.394V108.677ZM266.951 113.655C266.025 115.001 264.546 115.674 262.514 115.674C261.03 115.674 259.903 115.245 259.131 114.388C258.359 113.522 257.965 112.244 257.948 110.555V101.5H259.478V110.362C259.478 113.012 260.55 114.337 262.694 114.337C264.923 114.337 266.334 113.415 266.925 111.571V101.5H268.469V115.417H266.977L266.951 113.655ZM278.913 102.812C278.587 102.752 278.24 102.722 277.871 102.722C276.91 102.722 276.096 102.992 275.427 103.532C274.767 104.064 274.295 104.84 274.012 105.861V115.417H272.482V101.5H273.987L274.012 103.713C274.827 102.066 276.134 101.243 277.935 101.243C278.364 101.243 278.703 101.299 278.951 101.41L278.913 102.812ZM95.4745 132.5L95.5259 134.764C96.0404 133.924 96.6835 133.293 97.4552 132.873C98.2269 132.453 99.0844 132.243 100.028 132.243C102.223 132.243 103.616 133.143 104.208 134.944C104.705 134.078 105.37 133.413 106.201 132.95C107.033 132.479 107.951 132.243 108.954 132.243C111.938 132.243 113.46 133.872 113.52 137.131V146.417H111.976V137.246C111.968 136.003 111.698 135.081 111.166 134.481C110.643 133.881 109.786 133.581 108.594 133.581C107.488 133.598 106.553 133.958 105.79 134.661C105.027 135.356 104.602 136.205 104.516 137.208V146.417H102.973V137.131C102.964 135.939 102.681 135.051 102.124 134.468C101.575 133.877 100.726 133.581 99.5774 133.581C98.6085 133.581 97.7768 133.859 97.0822 134.417C96.3877 134.966 95.8732 135.784 95.5388 136.873V146.417H93.9953V132.5H95.4745ZM122.819 146.674C121.636 146.674 120.564 146.383 119.604 145.8C118.652 145.217 117.91 144.406 117.378 143.369C116.847 142.323 116.581 141.152 116.581 139.857V139.304C116.581 137.967 116.838 136.762 117.353 135.69C117.876 134.618 118.6 133.778 119.526 133.169C120.453 132.552 121.456 132.243 122.536 132.243C124.225 132.243 125.563 132.822 126.549 133.979C127.544 135.128 128.041 136.702 128.041 138.7V139.562H118.112V139.857C118.112 141.435 118.562 142.751 119.462 143.806C120.371 144.852 121.511 145.375 122.883 145.375C123.707 145.375 124.431 145.225 125.057 144.925C125.692 144.625 126.266 144.145 126.781 143.484L127.745 144.218C126.613 145.855 124.971 146.674 122.819 146.674ZM122.536 133.555C121.379 133.555 120.401 133.979 119.604 134.828C118.815 135.677 118.335 136.818 118.163 138.25H126.511V138.082C126.468 136.745 126.086 135.656 125.366 134.815C124.646 133.975 123.702 133.555 122.536 133.555ZM132.44 132.5L132.491 134.764C133.006 133.924 133.649 133.293 134.421 132.873C135.192 132.453 136.05 132.243 136.993 132.243C139.188 132.243 140.582 133.143 141.173 134.944C141.671 134.078 142.335 133.413 143.167 132.95C143.999 132.479 144.916 132.243 145.919 132.243C148.903 132.243 150.425 133.872 150.485 137.131V146.417H148.942V137.246C148.933 136.003 148.663 135.081 148.132 134.481C147.609 133.881 146.751 133.581 145.559 133.581C144.453 133.598 143.518 133.958 142.755 134.661C141.992 135.356 141.568 136.205 141.482 137.208V146.417H139.938V137.131C139.93 135.939 139.647 135.051 139.09 134.468C138.541 133.877 137.692 133.581 136.543 133.581C135.574 133.581 134.742 133.859 134.048 134.417C133.353 134.966 132.839 135.784 132.504 136.873V146.417H130.961V132.5H132.44ZM165.598 139.6C165.598 141.77 165.118 143.493 164.158 144.771C163.197 146.04 161.907 146.674 160.286 146.674C158.348 146.674 156.882 145.954 155.887 144.513L155.823 146.417H154.383V126.661H155.913V134.52C156.891 133.002 158.34 132.243 160.26 132.243C161.907 132.243 163.206 132.873 164.158 134.134C165.118 135.386 165.598 137.131 165.598 139.369V139.6ZM164.055 139.33C164.055 137.495 163.699 136.08 162.987 135.086C162.276 134.082 161.272 133.581 159.978 133.581C158.991 133.581 158.155 133.825 157.469 134.314C156.783 134.794 156.265 135.501 155.913 136.436V142.713C156.685 144.462 158.048 145.337 160.003 145.337C161.272 145.337 162.263 144.835 162.974 143.832C163.695 142.828 164.055 141.328 164.055 139.33ZM174.396 146.674C173.213 146.674 172.141 146.383 171.18 145.8C170.229 145.217 169.487 144.406 168.955 143.369C168.424 142.323 168.158 141.152 168.158 139.857V139.304C168.158 137.967 168.415 136.762 168.929 135.69C169.453 134.618 170.177 133.778 171.103 133.169C172.029 132.552 173.032 132.243 174.113 132.243C175.802 132.243 177.14 132.822 178.126 133.979C179.12 135.128 179.618 136.702 179.618 138.7V139.562H169.688V139.857C169.688 141.435 170.139 142.751 171.039 143.806C171.948 144.852 173.088 145.375 174.46 145.375C175.283 145.375 176.008 145.225 176.634 144.925C177.268 144.625 177.843 144.145 178.357 143.484L179.322 144.218C178.19 145.855 176.548 146.674 174.396 146.674ZM174.113 133.555C172.955 133.555 171.978 133.979 171.18 134.828C170.391 135.677 169.911 136.818 169.74 138.25H178.087V138.082C178.044 136.745 177.663 135.656 176.943 134.815C176.222 133.975 175.279 133.555 174.113 133.555ZM189.046 133.812C188.72 133.752 188.373 133.722 188.004 133.722C187.044 133.722 186.229 133.992 185.56 134.532C184.9 135.064 184.428 135.84 184.145 136.861V146.417H182.615V132.5H184.12L184.145 134.713C184.96 133.066 186.267 132.243 188.068 132.243C188.497 132.243 188.836 132.299 189.084 132.41L189.046 133.812ZM199.824 142.88C199.824 142.117 199.515 141.504 198.898 141.041C198.289 140.578 197.367 140.217 196.133 139.96C194.898 139.694 193.938 139.394 193.252 139.06C192.574 138.717 192.068 138.301 191.734 137.812C191.408 137.324 191.245 136.732 191.245 136.037C191.245 134.94 191.704 134.035 192.621 133.323C193.539 132.603 194.714 132.243 196.146 132.243C197.698 132.243 198.941 132.629 199.876 133.401C200.819 134.164 201.29 135.163 201.29 136.397H199.747C199.747 135.583 199.404 134.905 198.718 134.365C198.041 133.825 197.183 133.555 196.146 133.555C195.134 133.555 194.319 133.782 193.702 134.237C193.093 134.683 192.789 135.266 192.789 135.986C192.789 136.68 193.042 137.221 193.547 137.607C194.062 137.984 194.992 138.331 196.338 138.648C197.693 138.966 198.705 139.304 199.374 139.664C200.051 140.025 200.553 140.458 200.879 140.963C201.205 141.469 201.368 142.082 201.368 142.803C201.368 143.977 200.892 144.916 199.94 145.62C198.997 146.323 197.762 146.674 196.236 146.674C194.615 146.674 193.299 146.284 192.287 145.504C191.284 144.715 190.782 143.72 190.782 142.52H192.326C192.386 143.42 192.763 144.123 193.457 144.629C194.16 145.127 195.087 145.375 196.236 145.375C197.307 145.375 198.173 145.139 198.834 144.668C199.494 144.196 199.824 143.6 199.824 142.88ZM214.577 143.214L214.808 144.411L215.117 143.15L218.461 132.5H219.773L223.079 143.06L223.439 144.526L223.735 143.176L226.59 132.5H228.185L224.133 146.417H222.821L219.246 135.381L219.079 134.623L218.911 135.394L215.4 146.417H214.088L210.049 132.5H211.631L214.577 143.214ZM232.828 146.417H231.285V132.5H232.828V146.417ZM231.014 128.474C231.014 128.183 231.109 127.939 231.297 127.741C231.486 127.536 231.743 127.433 232.069 127.433C232.395 127.433 232.652 127.536 232.841 127.741C233.038 127.939 233.137 128.183 233.137 128.474C233.137 128.766 233.038 129.01 232.841 129.208C232.652 129.405 232.395 129.503 232.069 129.503C231.743 129.503 231.486 129.405 231.297 129.208C231.109 129.01 231.014 128.766 231.014 128.474ZM239.413 128.937V132.5H242.294V133.761H239.413V143.034C239.413 143.806 239.551 144.381 239.825 144.758C240.108 145.135 240.575 145.324 241.227 145.324C241.484 145.324 241.9 145.281 242.475 145.195L242.539 146.456C242.136 146.601 241.587 146.674 240.893 146.674C239.838 146.674 239.07 146.37 238.59 145.761C238.11 145.144 237.87 144.239 237.87 143.047V133.761H235.31V132.5H237.87V128.937H239.413ZM247.015 134.854C247.521 134.022 248.168 133.379 248.957 132.925C249.746 132.47 250.608 132.243 251.542 132.243C253.034 132.243 254.145 132.663 254.874 133.504C255.602 134.344 255.971 135.604 255.98 137.285V146.417H254.449V137.272C254.441 136.029 254.175 135.103 253.652 134.494C253.137 133.885 252.31 133.581 251.169 133.581C250.217 133.581 249.373 133.881 248.635 134.481C247.907 135.073 247.366 135.874 247.015 136.886V146.417H245.484V126.661H247.015V134.854Z" fill="black"/>
<path d="M90.784 194.877H77.5312L74.7585 202.843H68.5785L81.5024 168.63H86.8364L99.7837 202.843H93.5803L90.784 194.877ZM79.1996 190.083H89.1157L84.1576 175.891L79.1996 190.083ZM102.063 189.942C102.063 186.026 102.972 182.885 104.789 180.52C106.606 178.139 109.042 176.948 112.097 176.948C114.791 176.948 116.969 177.888 118.629 179.768V166.75H124.339V202.843H119.17L118.888 200.211C117.18 202.279 114.901 203.313 112.05 203.313C109.073 203.313 106.661 202.114 104.812 199.718C102.979 197.321 102.063 194.062 102.063 189.942ZM107.773 190.436C107.773 193.021 108.267 195.041 109.253 196.498C110.256 197.94 111.674 198.66 113.507 198.66C115.841 198.66 117.548 197.618 118.629 195.535V184.679C117.58 182.642 115.888 181.624 113.554 181.624C111.705 181.624 110.279 182.36 109.277 183.833C108.274 185.29 107.773 187.491 107.773 190.436ZM139.26 195.605L144.641 177.418H150.539L141.728 202.843H136.769L127.887 177.418H133.809L139.26 195.605ZM168.938 202.843C168.688 202.357 168.468 201.566 168.28 200.469C166.463 202.365 164.239 203.313 161.607 203.313C159.053 203.313 156.97 202.584 155.356 201.127C153.743 199.671 152.936 197.869 152.936 195.723C152.936 193.013 153.939 190.937 155.944 189.496C157.965 188.039 160.847 187.311 164.591 187.311H168.092V185.642C168.092 184.326 167.724 183.277 166.988 182.494C166.252 181.695 165.131 181.295 163.628 181.295C162.327 181.295 161.262 181.624 160.432 182.282C159.602 182.924 159.187 183.747 159.187 184.749H153.477C153.477 183.355 153.939 182.055 154.863 180.849C155.787 179.627 157.04 178.671 158.623 177.982C160.22 177.293 161.998 176.948 163.957 176.948C166.933 176.948 169.306 177.7 171.076 179.204C172.847 180.692 173.755 182.791 173.802 185.501V196.968C173.802 199.255 174.123 201.08 174.766 202.443V202.843H168.938ZM162.664 198.731C163.792 198.731 164.85 198.456 165.836 197.908C166.839 197.36 167.591 196.624 168.092 195.699V190.906H165.014C162.899 190.906 161.309 191.274 160.244 192.01C159.179 192.746 158.646 193.788 158.646 195.135C158.646 196.232 159.006 197.109 159.727 197.767C160.463 198.409 161.442 198.731 162.664 198.731ZM185.081 177.418L185.246 180.355C187.126 178.084 189.593 176.948 192.648 176.948C197.942 176.948 200.637 179.979 200.731 186.042V202.843H195.021V186.371C195.021 184.757 194.668 183.567 193.963 182.799C193.274 182.016 192.138 181.624 190.556 181.624C188.253 181.624 186.538 182.666 185.41 184.749V202.843H179.7V177.418H185.081ZM217.015 198.754C218.44 198.754 219.623 198.339 220.563 197.509C221.503 196.678 222.004 195.652 222.067 194.431H227.448C227.385 196.013 226.892 197.493 225.968 198.872C225.043 200.235 223.79 201.315 222.208 202.114C220.626 202.913 218.918 203.313 217.085 203.313C213.529 203.313 210.71 202.161 208.626 199.859C206.543 197.556 205.501 194.376 205.501 190.318V189.731C205.501 185.862 206.535 182.768 208.603 180.449C210.67 178.115 213.49 176.948 217.062 176.948C220.085 176.948 222.545 177.833 224.44 179.603C226.351 181.358 227.354 183.668 227.448 186.535H222.067C222.004 185.078 221.503 183.88 220.563 182.94C219.639 182 218.456 181.53 217.015 181.53C215.166 181.53 213.741 182.204 212.738 183.551C211.736 184.883 211.227 186.911 211.211 189.637V190.553C211.211 193.31 211.704 195.37 212.691 196.733C213.694 198.081 215.135 198.754 217.015 198.754ZM242.957 203.313C239.338 203.313 236.401 202.177 234.145 199.906C231.905 197.618 230.785 194.579 230.785 190.788V190.083C230.785 187.546 231.27 185.282 232.242 183.292C233.228 181.287 234.607 179.729 236.377 178.616C238.147 177.504 240.121 176.948 242.299 176.948C245.761 176.948 248.432 178.052 250.311 180.261C252.207 182.47 253.155 185.595 253.155 189.637V191.94H236.542C236.714 194.039 237.411 195.699 238.633 196.921C239.871 198.143 241.421 198.754 243.286 198.754C245.902 198.754 248.032 197.697 249.677 195.582L252.755 198.519C251.737 200.039 250.374 201.221 248.667 202.067C246.975 202.898 245.071 203.313 242.957 203.313ZM242.275 181.53C240.709 181.53 239.44 182.078 238.469 183.175C237.513 184.272 236.902 185.799 236.636 187.757H247.515V187.334C247.39 185.423 246.881 183.982 245.988 183.011C245.095 182.024 243.857 181.53 242.275 181.53ZM256.538 189.942C256.538 186.026 257.447 182.885 259.264 180.52C261.081 178.139 263.517 176.948 266.572 176.948C269.266 176.948 271.444 177.888 273.104 179.768V166.75H278.814V202.843H273.645L273.363 200.211C271.655 202.279 269.376 203.313 266.525 203.313C263.549 203.313 261.136 202.114 259.288 199.718C257.455 197.321 256.538 194.062 256.538 189.942ZM262.248 190.436C262.248 193.021 262.742 195.041 263.729 196.498C264.731 197.94 266.149 198.66 267.982 198.66C270.316 198.66 272.024 197.618 273.104 195.535V184.679C272.055 182.642 270.363 181.624 268.029 181.624C266.18 181.624 264.755 182.36 263.752 183.833C262.75 185.29 262.248 187.491 262.248 190.436ZM97.199 246.096H112.731V250.843H91.254V216.63H97.199V246.096ZM115.668 237.895C115.668 235.405 116.162 233.164 117.149 231.175C118.136 229.17 119.522 227.635 121.308 226.569C123.094 225.489 125.146 224.948 127.464 224.948C130.895 224.948 133.676 226.052 135.806 228.261C137.952 230.47 139.111 233.399 139.284 237.049L139.307 238.389C139.307 240.895 138.822 243.135 137.85 245.109C136.895 247.083 135.516 248.61 133.715 249.691C131.929 250.772 129.861 251.313 127.511 251.313C123.924 251.313 121.049 250.122 118.888 247.741C116.741 245.344 115.668 242.156 115.668 238.177V237.895ZM121.378 238.389C121.378 241.005 121.919 243.057 123 244.545C124.081 246.018 125.584 246.754 127.511 246.754C129.438 246.754 130.934 246.002 131.999 244.498C133.08 242.994 133.621 240.793 133.621 237.895C133.621 235.326 133.065 233.29 131.952 231.786C130.856 230.282 129.36 229.53 127.464 229.53C125.6 229.53 124.12 230.274 123.023 231.762C121.927 233.235 121.378 235.444 121.378 238.389ZM143.137 237.942C143.137 233.995 144.062 230.846 145.91 228.496C147.774 226.131 150.242 224.948 153.312 224.948C156.21 224.948 158.489 225.958 160.15 227.979L160.408 225.418H165.554V250.067C165.554 253.404 164.513 256.036 162.429 257.963C160.361 259.889 157.565 260.853 154.04 260.853C152.176 260.853 150.351 260.461 148.565 259.678C146.795 258.91 145.448 257.9 144.524 256.647L147.226 253.216C148.981 255.3 151.142 256.341 153.712 256.341C155.607 256.341 157.103 255.824 158.2 254.79C159.296 253.772 159.844 252.268 159.844 250.279V248.563C158.2 250.396 156.006 251.313 153.265 251.313C150.289 251.313 147.853 250.13 145.957 247.765C144.077 245.399 143.137 242.125 143.137 237.942ZM148.824 238.436C148.824 240.989 149.341 243.002 150.375 244.475C151.424 245.932 152.873 246.66 154.722 246.66C157.025 246.66 158.732 245.673 159.844 243.699V232.514C158.764 230.588 157.072 229.624 154.769 229.624C152.889 229.624 151.424 230.368 150.375 231.856C149.341 233.345 148.824 235.538 148.824 238.436ZM170.442 237.942C170.442 233.995 171.366 230.846 173.215 228.496C175.079 226.131 177.546 224.948 180.617 224.948C183.515 224.948 185.794 225.958 187.455 227.979L187.713 225.418H192.859V250.067C192.859 253.404 191.817 256.036 189.734 257.963C187.666 259.889 184.87 260.853 181.345 260.853C179.481 260.853 177.656 260.461 175.87 259.678C174.1 258.91 172.753 257.9 171.828 256.647L174.531 253.216C176.285 255.3 178.447 256.341 181.016 256.341C182.912 256.341 184.408 255.824 185.504 254.79C186.601 253.772 187.149 252.268 187.149 250.279V248.563C185.504 250.396 183.311 251.313 180.57 251.313C177.593 251.313 175.157 250.13 173.262 247.765C171.382 245.399 170.442 242.125 170.442 237.942ZM176.129 238.436C176.129 240.989 176.645 243.002 177.679 244.475C178.729 245.932 180.178 246.66 182.027 246.66C184.329 246.66 186.037 245.673 187.149 243.699V232.514C186.068 230.588 184.376 229.624 182.074 229.624C180.194 229.624 178.729 230.368 177.679 231.856C176.645 233.345 176.129 235.538 176.129 238.436ZM204.82 250.843H199.11V225.418H204.82V250.843ZM198.757 218.815C198.757 217.938 199.031 217.209 199.579 216.63C200.143 216.05 200.942 215.76 201.976 215.76C203.01 215.76 203.809 216.05 204.373 216.63C204.937 217.209 205.219 217.938 205.219 218.815C205.219 219.677 204.937 220.397 204.373 220.977C203.809 221.541 203.01 221.823 201.976 221.823C200.942 221.823 200.143 221.541 199.579 220.977C199.031 220.397 198.757 219.677 198.757 218.815ZM216.357 225.418L216.521 228.355C218.401 226.084 220.869 224.948 223.923 224.948C229.218 224.948 231.913 227.979 232.007 234.042V250.843H226.297V234.371C226.297 232.757 225.944 231.567 225.239 230.799C224.55 230.016 223.414 229.624 221.832 229.624C219.529 229.624 217.814 230.666 216.686 232.749V250.843H210.976V225.418H216.357ZM236.847 237.942C236.847 233.995 237.771 230.846 239.62 228.496C241.484 226.131 243.951 224.948 247.022 224.948C249.92 224.948 252.199 225.958 253.86 227.979L254.118 225.418H259.264V250.067C259.264 253.404 258.222 256.036 256.139 257.963C254.071 259.889 251.275 260.853 247.75 260.853C245.886 260.853 244.061 260.461 242.275 259.678C240.505 258.91 239.158 257.9 238.234 256.647L240.936 253.216C242.69 255.3 244.852 256.341 247.421 256.341C249.317 256.341 250.813 255.824 251.909 254.79C253.006 253.772 253.554 252.268 253.554 250.279V248.563C251.909 250.396 249.716 251.313 246.975 251.313C243.998 251.313 241.562 250.13 239.667 247.765C237.787 245.399 236.847 242.125 236.847 237.942ZM242.534 238.436C242.534 240.989 243.051 243.002 244.085 244.475C245.134 245.932 246.583 246.66 248.432 246.66C250.734 246.66 252.442 245.673 253.554 243.699V232.514C252.473 230.588 250.781 229.624 248.479 229.624C246.599 229.624 245.134 230.368 244.085 231.856C243.051 233.345 242.534 235.538 242.534 238.436Z" fill="url(#paint2_linear)"/>
<defs>
<filter id="filter0_bd" x="0.0161667" y="0.0161667" width="349.968" height="349.968" filterUnits="userSpaceOnUse" color-interpolation-filters="sRGB">
<feFlood flood-opacity="0" result="BackgroundImageFix"/>
<feGaussianBlur in="BackgroundImage" stdDeviation="11.651"/>
<feComposite in2="SourceAlpha" operator="in" result="effect1_backgroundBlur"/>
<feColorMatrix in="SourceAlpha" type="matrix" values="0 0 0 0 0 0 0 0 0 0 0 0 0 0 0 0 0 0 127 0" result="hardAlpha"/>
<feMorphology radius="4.16397" operator="dilate" in="SourceAlpha" result="effect2_dropShadow"/>
<feOffset/>
<feGaussianBlur stdDeviation="10.4099"/>
<feComposite in2="hardAlpha" operator="out"/>
<feColorMatrix type="matrix" values="0 0 0 0 0 0 0 0 0 0 0 0 0 0 0 0 0 0 0.5 0"/>
<feBlend mode="normal" in2="effect1_backgroundBlur" result="effect2_dropShadow"/>
<feBlend mode="normal" in="SourceGraphic" in2="effect2_dropShadow" result="shape"/>
</filter>
<filter id="filter1_d" x="36.8458" y="-25.7801" width="276.056" height="396.006" filterUnits="userSpaceOnUse" color-interpolation-filters="sRGB">
<feFlood flood-opacity="0" result="BackgroundImageFix"/>
<feColorMatrix in="SourceAlpha" type="matrix" values="0 0 0 0 0 0 0 0 0 0 0 0 0 0 0 0 0 0 127 0" result="hardAlpha"/>
<feOffset/>
<feGaussianBlur stdDeviation="3.79925"/>
<feColorMatrix type="matrix" values="0 0 0 0 0.95 0 0 0 0 0.468777 0 0 0 0 0.468777 0 0 0 1 0"/>
<feBlend mode="normal" in2="BackgroundImageFix" result="effect1_dropShadow"/>
<feBlend mode="normal" in="SourceGraphic" in2="effect1_dropShadow" result="shape"/>
</filter>
<linearGradient id="paint0_linear" x1="25" y1="25" x2="368.806" y2="88.7487" gradientUnits="userSpaceOnUse">
<stop stop-color="white" stop-opacity="0.9"/>
<stop offset="1" stop-color="white" stop-opacity="0.7"/>
</linearGradient>
<linearGradient id="paint1_linear" x1="25" y1="159.319" x2="324.103" y2="160.452" gradientUnits="userSpaceOnUse">
<stop stop-color="#181818" stop-opacity="0.5"/>
<stop offset="1" stop-color="#181818" stop-opacity="0"/>
</linearGradient>
<linearGradient id="paint2_linear" x1="140.049" y1="162.843" x2="227.476" y2="216.799" gradientUnits="userSpaceOnUse">
<stop stop-color="#D96B6B"/>
<stop offset="1" stop-color="#CC7665"/>
</linearGradient>
</defs>
</svg>
