<svg width="350" height="250" viewBox="0 0 350 250" fill="none" xmlns="http://www.w3.org/2000/svg">
<g filter="url(#filter0_bd)">
<rect x="25" y="25" width="300" height="200" rx="12.6642" fill="url(#paint0_linear)" fill-opacity="0.65" shape-rendering="crispEdges"/>
</g>
<path d="M89.8187 68.4804H85.452V72.8535H84.661V63.49H90.4618V64.1652H85.452V67.8052H89.8187V68.4804ZM96.2239 71.9725C95.7609 72.6456 95.0213 72.9821 94.0052 72.9821C93.2635 72.9821 92.6997 72.7678 92.3139 72.339C91.928 71.906 91.7308 71.2672 91.7222 70.4226V65.8952H92.4875V70.3261C92.4875 71.6509 93.0234 72.3133 94.0953 72.3133C95.21 72.3133 95.9153 71.8524 96.2111 70.9306V65.8952H96.9828V72.8535H96.2368L96.2239 71.9725ZM99.851 72.8535H99.0793V62.9755H99.851V72.8535ZM102.809 72.8535H102.038V62.9755H102.809V72.8535ZM107.112 71.7474L109.144 65.8952H109.973L107.002 74.0368L106.848 74.397C106.466 75.2416 105.877 75.6639 105.079 75.6639C104.895 75.6639 104.698 75.6339 104.488 75.5738L104.481 74.9372L104.88 74.9758C105.257 74.9758 105.562 74.8814 105.793 74.6928C106.029 74.5084 106.228 74.189 106.391 73.7346L106.732 72.7956L104.108 65.8952H104.951L107.112 71.7474ZM118.765 72.8535C118.687 72.6349 118.638 72.3112 118.617 71.8824C118.347 72.234 118.002 72.5062 117.581 72.6992C117.165 72.8878 116.724 72.9821 116.257 72.9821C115.588 72.9821 115.045 72.7956 114.63 72.4226C114.218 72.0496 114.012 71.578 114.012 71.0078C114.012 70.3304 114.293 69.7945 114.855 69.4001C115.421 69.0056 116.207 68.8084 117.215 68.8084H118.61V68.0174C118.61 67.5201 118.456 67.1299 118.147 66.8469C117.843 66.5597 117.397 66.4161 116.81 66.4161C116.274 66.4161 115.83 66.5533 115.478 66.8277C115.127 67.102 114.951 67.4322 114.951 67.818L114.179 67.8116C114.179 67.2585 114.437 66.7805 114.951 66.3775C115.466 65.9702 116.098 65.7665 116.848 65.7665C117.624 65.7665 118.235 65.9616 118.681 66.3518C119.131 66.7376 119.363 67.2778 119.376 67.9724V71.2651C119.376 71.9382 119.446 72.4419 119.588 72.7763V72.8535H118.765ZM116.347 72.3004C116.861 72.3004 117.32 72.1761 117.723 71.9274C118.13 71.6788 118.426 71.3465 118.61 70.9306V69.4001H117.234C116.467 69.4086 115.866 69.5501 115.433 69.8245C115 70.0946 114.784 70.4676 114.784 70.9435C114.784 71.3337 114.927 71.6573 115.215 71.9146C115.506 72.1718 115.884 72.3004 116.347 72.3004ZM125.91 71.9725C125.446 72.6456 124.707 72.9821 123.691 72.9821C122.949 72.9821 122.385 72.7678 121.999 72.339C121.614 71.906 121.416 71.2672 121.408 70.4226V65.8952H122.173V70.3261C122.173 71.6509 122.709 72.3133 123.781 72.3133C124.896 72.3133 125.601 71.8524 125.897 70.9306V65.8952H126.668V72.8535H125.922L125.91 71.9725ZM129.871 64.1138V65.8952H131.312V66.5254H129.871V71.1622C129.871 71.548 129.94 71.8353 130.077 72.0239C130.218 72.2126 130.452 72.3069 130.778 72.3069C130.906 72.3069 131.114 72.2854 131.402 72.2426L131.434 72.8728C131.232 72.9457 130.958 72.9821 130.611 72.9821C130.083 72.9821 129.7 72.8299 129.459 72.5255C129.219 72.2168 129.099 71.7645 129.099 71.1686V66.5254H127.82V65.8952H129.099V64.1138H129.871ZM132.353 69.2714C132.353 68.6026 132.482 68.0002 132.739 67.4643C133.001 66.9284 133.367 66.5125 133.839 66.2167C134.315 65.9166 134.853 65.7665 135.453 65.7665C136.379 65.7665 137.129 66.0924 137.704 66.7441C138.278 67.3914 138.566 68.2511 138.566 69.3229V69.4837C138.566 70.1568 138.435 70.7634 138.173 71.3036C137.916 71.8396 137.552 72.2533 137.08 72.5448C136.609 72.8364 136.071 72.9821 135.466 72.9821C134.544 72.9821 133.794 72.6584 133.215 72.0111C132.641 71.3594 132.353 70.4976 132.353 69.4258V69.2714ZM133.125 69.4837C133.125 70.3154 133.339 70.9992 133.768 71.5352C134.201 72.0668 134.767 72.3326 135.466 72.3326C136.161 72.3326 136.722 72.0668 137.151 71.5352C137.584 70.9992 137.8 70.294 137.8 69.4194V69.2714C137.8 68.7398 137.702 68.2532 137.505 67.8116C137.307 67.37 137.031 67.0292 136.675 66.7891C136.319 66.5447 135.912 66.4225 135.453 66.4225C134.767 66.4225 134.208 66.6926 133.775 67.2328C133.342 67.7687 133.125 68.4719 133.125 69.3422V69.4837ZM140.862 65.8952L140.887 67.027C141.145 66.6069 141.466 66.2917 141.852 66.0817C142.238 65.8716 142.667 65.7665 143.138 65.7665C144.236 65.7665 144.932 66.2167 145.228 67.1171C145.477 66.684 145.809 66.3518 146.225 66.1202C146.641 65.8844 147.1 65.7665 147.601 65.7665C149.093 65.7665 149.854 66.5811 149.884 68.2103V72.8535H149.113V68.2682C149.108 67.6465 148.973 67.1856 148.707 66.8855C148.446 66.5854 148.017 66.4354 147.421 66.4354C146.868 66.4439 146.401 66.624 146.019 66.9756C145.638 67.3228 145.425 67.7473 145.383 68.2489V72.8535H144.611V68.2103C144.607 67.6144 144.465 67.1706 144.186 66.8791C143.912 66.5833 143.488 66.4354 142.913 66.4354C142.429 66.4354 142.013 66.5747 141.665 66.8534C141.318 67.1278 141.061 67.5372 140.894 68.0817V72.8535H140.122V65.8952H140.862ZM156.232 72.8535C156.155 72.6349 156.105 72.3112 156.084 71.8824C155.814 72.234 155.469 72.5062 155.048 72.6992C154.633 72.8878 154.191 72.9821 153.724 72.9821C153.055 72.9821 152.512 72.7956 152.097 72.4226C151.685 72.0496 151.479 71.578 151.479 71.0078C151.479 70.3304 151.76 69.7945 152.322 69.4001C152.888 69.0056 153.674 68.8084 154.682 68.8084H156.077V68.0174C156.077 67.5201 155.923 67.1299 155.614 66.8469C155.31 66.5597 154.864 66.4161 154.277 66.4161C153.741 66.4161 153.297 66.5533 152.945 66.8277C152.594 67.102 152.418 67.4322 152.418 67.818L151.646 67.8116C151.646 67.2585 151.904 66.7805 152.418 66.3775C152.933 65.9702 153.565 65.7665 154.315 65.7665C155.091 65.7665 155.702 65.9616 156.148 66.3518C156.598 66.7376 156.83 67.2778 156.843 67.9724V71.2651C156.843 71.9382 156.913 72.4419 157.055 72.7763V72.8535H156.232ZM153.814 72.3004C154.328 72.3004 154.787 72.1761 155.19 71.9274C155.597 71.6788 155.893 71.3465 156.077 70.9306V69.4001H154.701C153.934 69.4086 153.333 69.5501 152.9 69.8245C152.467 70.0946 152.251 70.4676 152.251 70.9435C152.251 71.3337 152.395 71.6573 152.682 71.9146C152.973 72.1718 153.351 72.3004 153.814 72.3004ZM160.097 64.1138V65.8952H161.537V66.5254H160.097V71.1622C160.097 71.548 160.165 71.8353 160.303 72.0239C160.444 72.2126 160.678 72.3069 161.004 72.3069C161.132 72.3069 161.34 72.2854 161.627 72.2426L161.66 72.8728C161.458 72.9457 161.184 72.9821 160.836 72.9821C160.309 72.9821 159.925 72.8299 159.685 72.5255C159.445 72.2168 159.325 71.7645 159.325 71.1686V66.5254H158.045V65.8952H159.325V64.1138H160.097ZM165.827 72.9821C165.235 72.9821 164.699 72.8364 164.219 72.5448C163.743 72.2533 163.372 71.8481 163.106 71.3294C162.841 70.8063 162.708 70.2211 162.708 69.5737V69.2972C162.708 68.6283 162.836 68.026 163.094 67.4901C163.355 66.9541 163.717 66.534 164.18 66.2296C164.643 65.9209 165.145 65.7665 165.685 65.7665C166.53 65.7665 167.199 66.0559 167.692 66.6347C168.189 67.2092 168.438 67.996 168.438 68.9949V69.4258H163.473V69.5737C163.473 70.3626 163.698 71.0207 164.148 71.548C164.603 72.0711 165.173 72.3326 165.859 72.3326C166.271 72.3326 166.633 72.2576 166.946 72.1075C167.263 71.9575 167.55 71.7174 167.808 71.3872L168.29 71.7538C167.724 72.5727 166.903 72.9821 165.827 72.9821ZM165.685 66.4225C165.107 66.4225 164.618 66.6347 164.219 67.0592C163.825 67.4836 163.585 68.0538 163.499 68.7698H167.673V68.6862C167.651 68.0174 167.46 67.4729 167.1 67.0527C166.74 66.6326 166.268 66.4225 165.685 66.4225ZM169.628 69.31C169.628 68.2296 169.868 67.37 170.348 66.7312C170.832 66.0881 171.488 65.7665 172.316 65.7665C173.255 65.7665 173.971 66.1374 174.464 66.8791V62.9755H175.229V72.8535H174.509L174.477 71.9274C173.983 72.6306 173.259 72.9821 172.303 72.9821C171.501 72.9821 170.854 72.6606 170.361 72.0175C169.872 71.3701 169.628 70.4976 169.628 69.4001V69.31ZM170.406 69.4451C170.406 70.3326 170.584 71.0335 170.939 71.548C171.295 72.0582 171.797 72.3133 172.444 72.3133C173.392 72.3133 174.065 71.8953 174.464 71.0593V67.7923C174.065 66.8877 173.396 66.4354 172.457 66.4354C171.81 66.4354 171.306 66.6905 170.946 67.2007C170.586 67.7066 170.406 68.4547 170.406 69.4451Z" fill="black"/>
<path d="M101.927 119.3H97.2337L85.1941 100.137V119.3H80.5007V92.2895H85.1941L97.2708 111.527V92.2895H101.927V119.3ZM121.591 112.343C121.591 111.156 121.171 110.241 120.33 109.598C119.501 108.955 117.998 108.305 115.822 107.65C113.645 106.994 111.914 106.265 110.627 105.461C108.166 103.915 106.936 101.899 106.936 99.4131C106.936 97.2365 107.82 95.4432 109.589 94.0333C111.37 92.6235 113.676 91.9185 116.508 91.9185C118.388 91.9185 120.064 92.2648 121.535 92.9574C123.007 93.65 124.164 94.6393 125.005 95.9255C125.845 97.1994 126.266 98.6154 126.266 100.174H121.591C121.591 98.7638 121.146 97.6632 120.255 96.8716C119.377 96.0678 118.116 95.6658 116.471 95.6658C114.938 95.6658 113.744 95.9936 112.891 96.649C112.05 97.3045 111.629 98.2197 111.629 99.3946C111.629 100.384 112.087 101.213 113.002 101.88C113.917 102.536 115.426 103.179 117.528 103.81C119.631 104.428 121.319 105.139 122.593 105.943C123.867 106.735 124.8 107.65 125.394 108.689C125.988 109.715 126.285 110.921 126.285 112.306C126.285 114.557 125.419 116.35 123.687 117.686C121.968 119.009 119.631 119.671 116.675 119.671C114.721 119.671 112.922 119.312 111.277 118.595C109.644 117.865 108.37 116.863 107.455 115.59C106.552 114.316 106.101 112.832 106.101 111.137H110.794C110.794 112.671 111.302 113.858 112.316 114.699C113.33 115.54 114.783 115.961 116.675 115.961C118.308 115.961 119.532 115.633 120.348 114.977C121.177 114.31 121.591 113.432 121.591 112.343ZM145.967 107.854H135.096V119.3H130.403V92.2895H147.563V96.074H135.096V104.107H145.967V107.854ZM172.477 112.621L176.632 92.2895H181.288L175.055 119.3H170.566L165.427 99.5801L160.177 119.3H155.669L149.436 92.2895H154.092L158.285 112.584L163.442 92.2895H167.375L172.477 112.621ZM41.0612 130.29L48.8527 150.992L56.6255 130.29H62.6917V157.3H58.0169V148.395L58.4806 136.486L50.5037 157.3H47.146L39.1876 136.504L39.6514 148.395V157.3H34.9765V130.29H41.0612ZM66.977 147.078C66.977 145.112 67.3666 143.343 68.1457 141.773C68.9248 140.19 70.0194 138.978 71.4292 138.137C72.8391 137.283 74.4592 136.857 76.2896 136.857C78.998 136.857 81.1932 137.728 82.8752 139.472C84.5695 141.216 85.4847 143.529 85.6207 146.41L85.6393 147.468C85.6393 149.447 85.2559 151.215 84.4891 152.773C83.7347 154.332 82.6464 155.537 81.2242 156.391C79.8143 157.244 78.1818 157.671 76.3267 157.671C73.4946 157.671 71.2252 156.731 69.5185 154.851C67.8242 152.959 66.977 150.442 66.977 147.301V147.078ZM71.4849 147.468C71.4849 149.533 71.9116 151.153 72.7649 152.328C73.6182 153.491 74.8055 154.072 76.3267 154.072C77.8479 154.072 79.029 153.478 79.8699 152.291C80.7233 151.104 81.15 149.366 81.15 147.078C81.15 145.05 80.7109 143.442 79.8328 142.255C78.9671 141.068 77.786 140.474 76.2896 140.474C74.8179 140.474 73.6492 141.061 72.7835 142.236C71.9177 143.399 71.4849 145.143 71.4849 147.468ZM88.6075 147.115C88.6075 144.023 89.3248 141.544 90.7594 139.676C92.194 137.797 94.1171 136.857 96.5287 136.857C98.6559 136.857 100.375 137.599 101.686 139.083V128.805H106.194V157.3H102.113L101.89 155.222C100.542 156.855 98.7425 157.671 96.4916 157.671C94.1418 157.671 92.2373 156.725 90.7779 154.833C89.3309 152.94 88.6075 150.368 88.6075 147.115ZM93.1154 147.505C93.1154 149.545 93.5049 151.141 94.2841 152.291C95.0756 153.429 96.1948 153.998 97.6418 153.998C99.4845 153.998 100.833 153.175 101.686 151.53V142.96C100.857 141.352 99.5216 140.548 97.6789 140.548C96.2196 140.548 95.0941 141.13 94.3026 142.292C93.5111 143.442 93.1154 145.18 93.1154 147.505ZM119.736 157.671C116.879 157.671 114.56 156.774 112.779 154.981C111.011 153.175 110.127 150.776 110.127 147.783V147.227C110.127 145.223 110.51 143.436 111.277 141.865C112.056 140.282 113.144 139.052 114.542 138.174C115.939 137.296 117.498 136.857 119.217 136.857C121.95 136.857 124.058 137.728 125.542 139.472C127.039 141.216 127.787 143.683 127.787 146.874V148.692H114.672C114.808 150.349 115.358 151.66 116.323 152.625C117.3 153.59 118.524 154.072 119.996 154.072C122.061 154.072 123.743 153.237 125.042 151.568L127.472 153.886C126.668 155.086 125.592 156.02 124.244 156.688C122.908 157.343 121.406 157.671 119.736 157.671ZM119.198 140.474C117.961 140.474 116.96 140.907 116.193 141.773C115.438 142.638 114.956 143.844 114.746 145.39H123.335V145.056C123.236 143.547 122.834 142.41 122.129 141.643C121.424 140.864 120.447 140.474 119.198 140.474ZM141.812 141.346C141.218 141.247 140.606 141.198 139.975 141.198C137.91 141.198 136.519 141.989 135.801 143.572V157.3H131.293V137.228H135.597L135.708 139.472C136.797 137.728 138.306 136.857 140.235 136.857C140.878 136.857 141.41 136.943 141.83 137.116L141.812 141.346ZM156.096 157.3C155.898 156.916 155.725 156.292 155.577 155.426C154.142 156.923 152.386 157.671 150.308 157.671C148.292 157.671 146.647 157.096 145.374 155.946C144.1 154.795 143.463 153.373 143.463 151.679C143.463 149.539 144.254 147.901 145.837 146.763C147.433 145.613 149.708 145.038 152.664 145.038H155.428V143.72C155.428 142.682 155.138 141.853 154.556 141.235C153.975 140.604 153.091 140.289 151.903 140.289C150.877 140.289 150.036 140.548 149.381 141.068C148.725 141.575 148.397 142.224 148.397 143.016H143.889C143.889 141.915 144.254 140.888 144.984 139.936C145.714 138.971 146.703 138.217 147.952 137.673C149.214 137.129 150.617 136.857 152.163 136.857C154.513 136.857 156.387 137.45 157.784 138.637C159.182 139.812 159.899 141.47 159.936 143.609V152.662C159.936 154.468 160.19 155.908 160.697 156.984V157.3H156.096ZM151.143 154.053C152.033 154.053 152.868 153.837 153.647 153.404C154.439 152.971 155.032 152.39 155.428 151.66V147.876H152.998C151.328 147.876 150.073 148.167 149.232 148.748C148.391 149.329 147.971 150.151 147.971 151.215C147.971 152.081 148.255 152.773 148.824 153.293C149.405 153.8 150.178 154.053 151.143 154.053ZM170.306 132.349V137.228H173.849V140.567H170.306V151.772C170.306 152.538 170.454 153.095 170.751 153.441C171.06 153.775 171.605 153.942 172.384 153.942C172.903 153.942 173.429 153.88 173.961 153.757V157.244C172.934 157.529 171.945 157.671 170.992 157.671C167.53 157.671 165.798 155.76 165.798 151.939V140.567H162.496V137.228H165.798V132.349H170.306ZM182.105 157.3H177.597V137.228H182.105V157.3ZM177.318 132.015C177.318 131.322 177.535 130.747 177.968 130.29C178.413 129.832 179.044 129.603 179.86 129.603C180.676 129.603 181.307 129.832 181.752 130.29C182.197 130.747 182.42 131.322 182.42 132.015C182.42 132.695 182.197 133.264 181.752 133.721C181.307 134.167 180.676 134.389 179.86 134.389C179.044 134.389 178.413 134.167 177.968 133.721C177.535 133.264 177.318 132.695 177.318 132.015ZM186.186 147.078C186.186 145.112 186.575 143.343 187.354 141.773C188.134 140.19 189.228 138.978 190.638 138.137C192.048 137.283 193.668 136.857 195.498 136.857C198.207 136.857 200.402 137.728 202.084 139.472C203.778 141.216 204.693 143.529 204.829 146.41L204.848 147.468C204.848 149.447 204.465 151.215 203.698 152.773C202.943 154.332 201.855 155.537 200.433 156.391C199.023 157.244 197.391 157.671 195.535 157.671C192.703 157.671 190.434 156.731 188.727 154.851C187.033 152.959 186.186 150.442 186.186 147.301V147.078ZM190.694 147.468C190.694 149.533 191.12 151.153 191.974 152.328C192.827 153.491 194.014 154.072 195.535 154.072C197.057 154.072 198.238 153.478 199.079 152.291C199.932 151.104 200.359 149.366 200.359 147.078C200.359 145.05 199.92 143.442 199.042 142.255C198.176 141.068 196.995 140.474 195.498 140.474C194.027 140.474 192.858 141.061 191.992 142.236C191.126 143.399 190.694 145.143 190.694 147.468ZM212.844 137.228L212.973 139.546C214.457 137.753 216.405 136.857 218.817 136.857C222.997 136.857 225.124 139.25 225.198 144.036V157.3H220.691V144.296C220.691 143.022 220.412 142.082 219.856 141.476C219.312 140.857 218.415 140.548 217.166 140.548C215.348 140.548 213.994 141.371 213.103 143.016V157.3H208.595V137.228H212.844Z" fill="url(#paint1_linear)"/>
<path d="M43.7983 186.831V180.503H42.6472V179.873H43.7983V179.03C43.7983 178.319 43.9784 177.772 44.3385 177.39C44.7029 177.009 45.2089 176.818 45.8562 176.818C46.1478 176.818 46.42 176.854 46.673 176.927L46.6151 177.57C46.4007 177.519 46.1671 177.493 45.9141 177.493C45.4897 177.493 45.1595 177.626 44.9237 177.892C44.6879 178.153 44.57 178.526 44.57 179.011V179.873H46.2292V180.503H44.57V186.831H43.7983ZM47.181 183.249C47.181 182.58 47.3097 181.978 47.5669 181.442C47.8284 180.906 48.195 180.49 48.6666 180.194C49.1425 179.894 49.6806 179.744 50.2808 179.744C51.2068 179.744 51.9571 180.07 52.5316 180.722C53.1061 181.369 53.3934 182.229 53.3934 183.3V183.461C53.3934 184.134 53.2626 184.741 53.0011 185.281C52.7439 185.817 52.3794 186.231 51.9078 186.522C51.4362 186.814 50.8982 186.96 50.2936 186.96C49.3719 186.96 48.6216 186.636 48.0428 185.989C47.4683 185.337 47.181 184.475 47.181 183.403V183.249ZM47.9528 183.461C47.9528 184.293 48.1671 184.977 48.5959 185.513C49.0289 186.044 49.5948 186.31 50.2936 186.31C50.9882 186.31 51.5498 186.044 51.9786 185.513C52.4116 184.977 52.6281 184.272 52.6281 183.397V183.249C52.6281 182.717 52.5295 182.231 52.3323 181.789C52.1351 181.348 51.8585 181.007 51.5027 180.767C51.1468 180.522 50.7395 180.4 50.2808 180.4C49.5948 180.4 49.0353 180.67 48.6023 181.21C48.1693 181.746 47.9528 182.449 47.9528 183.32V183.461ZM58.2038 180.529C58.0409 180.499 57.8672 180.484 57.6829 180.484C57.2027 180.484 56.7954 180.619 56.461 180.889C56.1309 181.155 55.8951 181.543 55.7536 182.053V186.831H54.9883V179.873H55.7407L55.7536 180.979C56.1609 180.156 56.8147 179.744 57.715 179.744C57.9294 179.744 58.0988 179.772 58.2231 179.828L58.2038 180.529ZM63.4901 186.831H62.7184V179.873H63.4901V186.831ZM62.5833 177.86C62.5833 177.714 62.6305 177.592 62.7248 177.493C62.8191 177.39 62.9477 177.339 63.1107 177.339C63.2736 177.339 63.4022 177.39 63.4965 177.493C63.5951 177.592 63.6444 177.714 63.6444 177.86C63.6444 178.006 63.5951 178.128 63.4965 178.226C63.4022 178.325 63.2736 178.374 63.1107 178.374C62.9477 178.374 62.8191 178.325 62.7248 178.226C62.6305 178.128 62.5833 178.006 62.5833 177.86ZM66.2876 179.873L66.3133 181.005C66.5705 180.584 66.8921 180.269 67.278 180.059C67.6638 179.849 68.0925 179.744 68.5642 179.744C69.6617 179.744 70.3584 180.194 70.6542 181.095C70.9029 180.662 71.2352 180.329 71.651 180.098C72.0669 179.862 72.5257 179.744 73.0273 179.744C74.5193 179.744 75.2803 180.559 75.3103 182.188V186.831H74.5386V182.246C74.5343 181.624 74.3992 181.163 74.1334 180.863C73.8719 180.563 73.4432 180.413 72.8472 180.413C72.2941 180.421 71.8268 180.602 71.4453 180.953C71.0637 181.3 70.8515 181.725 70.8086 182.226V186.831H70.0369V182.188C70.0326 181.592 69.8911 181.148 69.6124 180.857C69.338 180.561 68.9136 180.413 68.3391 180.413C67.8546 180.413 67.4387 180.552 67.0915 180.831C66.7442 181.105 66.4869 181.515 66.3197 182.059V186.831H65.548V179.873H66.2876ZM81.6577 186.831C81.5805 186.612 81.5312 186.289 81.5098 185.86C81.2397 186.212 80.8946 186.484 80.4744 186.677C80.0585 186.865 79.6169 186.96 79.1496 186.96C78.4808 186.96 77.9384 186.773 77.5226 186.4C77.111 186.027 76.9052 185.556 76.9052 184.985C76.9052 184.308 77.186 183.772 77.7476 183.378C78.3136 182.983 79.1003 182.786 80.1078 182.786H81.5034V181.995C81.5034 181.498 81.349 181.107 81.0403 180.824C80.7359 180.537 80.29 180.394 79.7027 180.394C79.1668 180.394 78.723 180.531 78.3714 180.805C78.0199 181.08 77.8441 181.41 77.8441 181.796L77.0724 181.789C77.0724 181.236 77.3296 180.758 77.8441 180.355C78.3586 179.948 78.991 179.744 79.7413 179.744C80.5173 179.744 81.1282 179.939 81.5741 180.329C82.0243 180.715 82.2558 181.255 82.2686 181.95V185.243C82.2686 185.916 82.3394 186.419 82.4809 186.754V186.831H81.6577ZM79.2396 186.278C79.7541 186.278 80.2129 186.154 80.6159 185.905C81.0232 185.656 81.319 185.324 81.5034 184.908V183.378H80.1271C79.3597 183.386 78.7595 183.528 78.3264 183.802C77.8934 184.072 77.6769 184.445 77.6769 184.921C77.6769 185.311 77.8205 185.635 78.1078 185.892C78.3993 186.149 78.7766 186.278 79.2396 186.278ZM84.0179 183.288C84.0179 182.199 84.258 181.337 84.7382 180.702C85.2226 180.063 85.8786 179.744 86.706 179.744C87.6535 179.744 88.3738 180.121 88.8669 180.876L88.9055 179.873H89.6257V186.69C89.6257 187.586 89.3749 188.295 88.8733 188.818C88.3717 189.341 87.6921 189.603 86.8347 189.603C86.3502 189.603 85.8872 189.493 85.4456 189.275C85.0083 189.06 84.6631 188.773 84.4102 188.413L84.8411 187.95C85.3855 188.619 86.0329 188.953 86.7832 188.953C87.4263 188.953 87.9279 188.763 88.2881 188.381C88.6482 188.004 88.8347 187.478 88.8476 186.805V185.931C88.3545 186.617 87.6364 186.96 86.6932 186.96C85.8872 186.96 85.2398 186.638 84.751 185.995C84.2623 185.352 84.0179 184.484 84.0179 183.39V183.288ZM84.796 183.423C84.796 184.31 84.974 185.011 85.3298 185.526C85.6857 186.036 86.1873 186.291 86.8347 186.291C87.7822 186.291 88.4531 185.866 88.8476 185.018V181.783C88.6675 181.337 88.4081 180.998 88.0694 180.767C87.7307 180.531 87.3234 180.413 86.8475 180.413C86.2001 180.413 85.6964 180.668 85.3362 181.178C84.9761 181.684 84.796 182.432 84.796 183.423ZM94.3268 186.96C93.7351 186.96 93.1992 186.814 92.719 186.522C92.2431 186.231 91.8723 185.826 91.6065 185.307C91.3407 184.784 91.2078 184.199 91.2078 183.551V183.275C91.2078 182.606 91.3364 182.004 91.5936 181.468C91.8551 180.932 92.2174 180.512 92.6805 180.207C93.1435 179.898 93.6451 179.744 94.1853 179.744C95.0299 179.744 95.6987 180.033 96.1918 180.612C96.6891 181.187 96.9378 181.973 96.9378 182.972V183.403H91.973V183.551C91.973 184.34 92.1981 184.998 92.6483 185.526C93.1028 186.049 93.673 186.31 94.3589 186.31C94.7705 186.31 95.1328 186.235 95.4458 186.085C95.7631 185.935 96.0503 185.695 96.3075 185.365L96.7899 185.731C96.2239 186.55 95.4029 186.96 94.3268 186.96ZM94.1853 180.4C93.6065 180.4 93.1178 180.612 92.719 181.037C92.3246 181.461 92.0845 182.031 91.9988 182.747H96.1725V182.664C96.1511 181.995 95.9603 181.45 95.6001 181.03C95.24 180.61 94.7684 180.4 94.1853 180.4ZM102.604 185.063C102.604 184.681 102.449 184.374 102.14 184.143C101.836 183.911 101.375 183.731 100.758 183.603C100.14 183.47 99.6602 183.32 99.3173 183.153C98.9786 182.981 98.7256 182.773 98.5584 182.529C98.3955 182.284 98.314 181.989 98.314 181.641C98.314 181.092 98.5434 180.64 99.0021 180.284C99.4609 179.924 100.048 179.744 100.764 179.744C101.54 179.744 102.162 179.937 102.629 180.323C103.101 180.704 103.337 181.204 103.337 181.821H102.565C102.565 181.414 102.393 181.075 102.05 180.805C101.712 180.535 101.283 180.4 100.764 180.4C100.258 180.4 99.851 180.514 99.5423 180.741C99.2379 180.964 99.0857 181.255 99.0857 181.616C99.0857 181.963 99.2122 182.233 99.4652 182.426C99.7224 182.614 100.188 182.788 100.861 182.947C101.538 183.105 102.044 183.275 102.378 183.455C102.717 183.635 102.968 183.851 103.131 184.104C103.294 184.357 103.375 184.664 103.375 185.024C103.375 185.611 103.137 186.081 102.661 186.432C102.19 186.784 101.572 186.96 100.809 186.96C99.9989 186.96 99.3408 186.765 98.8349 186.374C98.3333 185.98 98.0825 185.483 98.0825 184.882H98.8542C98.8842 185.333 99.0729 185.684 99.4202 185.937C99.7717 186.186 100.235 186.31 100.809 186.31C101.345 186.31 101.778 186.192 102.108 185.956C102.438 185.721 102.604 185.423 102.604 185.063ZM112.707 186.831C112.629 186.612 112.58 186.289 112.559 185.86C112.289 186.212 111.943 186.484 111.523 186.677C111.107 186.865 110.666 186.96 110.199 186.96C109.53 186.96 108.987 186.773 108.571 186.4C108.16 186.027 107.954 185.556 107.954 184.985C107.954 184.308 108.235 183.772 108.797 183.378C109.362 182.983 110.149 182.786 111.157 182.786H112.552V181.995C112.552 181.498 112.398 181.107 112.089 180.824C111.785 180.537 111.339 180.394 110.752 180.394C110.216 180.394 109.772 180.531 109.42 180.805C109.069 181.08 108.893 181.41 108.893 181.796L108.121 181.789C108.121 181.236 108.379 180.758 108.893 180.355C109.408 179.948 110.04 179.744 110.79 179.744C111.566 179.744 112.177 179.939 112.623 180.329C113.073 180.715 113.305 181.255 113.318 181.95V185.243C113.318 185.916 113.388 186.419 113.53 186.754V186.831H112.707ZM110.289 186.278C110.803 186.278 111.262 186.154 111.665 185.905C112.072 185.656 112.368 185.324 112.552 184.908V183.378H111.176C110.409 183.386 109.808 183.528 109.375 183.802C108.942 184.072 108.726 184.445 108.726 184.921C108.726 185.311 108.869 185.635 109.157 185.892C109.448 186.149 109.826 186.278 110.289 186.278ZM116.109 179.873L116.134 181.062C116.396 180.634 116.722 180.308 117.112 180.085C117.502 179.858 117.933 179.744 118.404 179.744C119.15 179.744 119.706 179.954 120.07 180.374C120.435 180.794 120.619 181.425 120.623 182.265V186.831H119.858V182.259C119.854 181.637 119.721 181.174 119.459 180.87C119.202 180.565 118.788 180.413 118.218 180.413C117.742 180.413 117.32 180.563 116.951 180.863C116.587 181.159 116.317 181.56 116.141 182.066V186.831H115.375V179.873H116.109ZM122.308 183.288C122.308 182.207 122.548 181.348 123.028 180.709C123.513 180.066 124.169 179.744 124.996 179.744C125.935 179.744 126.651 180.115 127.144 180.857V176.953H127.91V186.831H127.189L127.157 185.905C126.664 186.608 125.94 186.96 124.983 186.96C124.182 186.96 123.534 186.638 123.041 185.995C122.553 185.348 122.308 184.475 122.308 183.378V183.288ZM123.086 183.423C123.086 184.31 123.264 185.011 123.62 185.526C123.976 186.036 124.478 186.291 125.125 186.291C126.072 186.291 126.746 185.873 127.144 185.037V181.77C126.746 180.865 126.077 180.413 125.138 180.413C124.49 180.413 123.987 180.668 123.626 181.178C123.266 181.684 123.086 182.432 123.086 183.423ZM138.733 183.423C138.733 184.507 138.493 185.369 138.013 186.008C137.532 186.642 136.889 186.96 136.083 186.96C135.132 186.96 134.403 186.625 133.897 185.956V189.506H133.132V179.873H133.845L133.884 180.857C134.386 180.115 135.112 179.744 136.064 179.744C136.896 179.744 137.547 180.059 138.019 180.689C138.495 181.32 138.733 182.194 138.733 183.313V183.423ZM137.961 183.288C137.961 182.4 137.779 181.699 137.415 181.185C137.05 180.67 136.542 180.413 135.89 180.413C135.419 180.413 135.014 180.527 134.675 180.754C134.336 180.981 134.077 181.311 133.897 181.744V185.082C134.081 185.481 134.345 185.785 134.688 185.995C135.031 186.205 135.436 186.31 135.903 186.31C136.551 186.31 137.054 186.053 137.415 185.538C137.779 185.02 137.961 184.269 137.961 183.288ZM143.659 180.529C143.496 180.499 143.323 180.484 143.138 180.484C142.658 180.484 142.251 180.619 141.916 180.889C141.586 181.155 141.35 181.543 141.209 182.053V186.831H140.444V179.873H141.196L141.209 180.979C141.616 180.156 142.27 179.744 143.17 179.744C143.385 179.744 143.554 179.772 143.678 179.828L143.659 180.529ZM144.328 183.249C144.328 182.58 144.457 181.978 144.714 181.442C144.975 180.906 145.342 180.49 145.814 180.194C146.289 179.894 146.827 179.744 147.428 179.744C148.354 179.744 149.104 180.07 149.679 180.722C150.253 181.369 150.54 182.229 150.54 183.3V183.461C150.54 184.134 150.41 184.741 150.148 185.281C149.891 185.817 149.526 186.231 149.055 186.522C148.583 186.814 148.045 186.96 147.441 186.96C146.519 186.96 145.768 186.636 145.19 185.989C144.615 185.337 144.328 184.475 144.328 183.403V183.249ZM145.1 183.461C145.1 184.293 145.314 184.977 145.743 185.513C146.176 186.044 146.742 186.31 147.441 186.31C148.135 186.31 148.697 186.044 149.125 185.513C149.558 184.977 149.775 184.272 149.775 183.397V183.249C149.775 182.717 149.676 182.231 149.479 181.789C149.282 181.348 149.005 181.007 148.65 180.767C148.294 180.522 147.886 180.4 147.428 180.4C146.742 180.4 146.182 180.67 145.749 181.21C145.316 181.746 145.1 182.449 145.1 183.32V183.461ZM152.598 186.831V180.503H151.441V179.873H152.598V179.159C152.598 178.417 152.8 177.843 153.203 177.435C153.606 177.024 154.174 176.818 154.907 176.818C155.481 176.818 156.073 176.944 156.682 177.197L156.553 177.86C156.03 177.633 155.499 177.519 154.958 177.519C153.899 177.519 153.37 178.07 153.37 179.172V179.873H154.997V180.503H153.37V186.831H152.598ZM157.1 186.831H156.328V179.873H157.1V186.831ZM160.071 186.831H159.299V176.953H160.071V186.831ZM164.862 186.96C164.271 186.96 163.735 186.814 163.254 186.522C162.779 186.231 162.408 185.826 162.142 185.307C161.876 184.784 161.743 184.199 161.743 183.551V183.275C161.743 182.606 161.872 182.004 162.129 181.468C162.391 180.932 162.753 180.512 163.216 180.207C163.679 179.898 164.18 179.744 164.721 179.744C165.565 179.744 166.234 180.033 166.727 180.612C167.224 181.187 167.473 181.973 167.473 182.972V183.403H162.508V183.551C162.508 184.34 162.733 184.998 163.184 185.526C163.638 186.049 164.208 186.31 164.894 186.31C165.306 186.31 165.668 186.235 165.981 186.085C166.298 185.935 166.586 185.695 166.843 185.365L167.325 185.731C166.759 186.55 165.938 186.96 164.862 186.96ZM164.721 180.4C164.142 180.4 163.653 180.612 163.254 181.037C162.86 181.461 162.62 182.031 162.534 182.747H166.708V182.664C166.686 181.995 166.496 181.45 166.135 181.03C165.775 180.61 165.304 180.4 164.721 180.4ZM177.769 183.423C177.769 184.507 177.529 185.369 177.049 186.008C176.569 186.642 175.926 186.96 175.12 186.96C174.168 186.96 173.439 186.625 172.933 185.956V189.506H172.168V179.873H172.882L172.92 180.857C173.422 180.115 174.149 179.744 175.1 179.744C175.932 179.744 176.584 180.059 177.055 180.689C177.531 181.32 177.769 182.194 177.769 183.313V183.423ZM176.997 183.288C176.997 182.4 176.815 181.699 176.451 181.185C176.086 180.67 175.578 180.413 174.927 180.413C174.455 180.413 174.05 180.527 173.711 180.754C173.373 180.981 173.113 181.311 172.933 181.744V185.082C173.117 185.481 173.381 185.785 173.724 185.995C174.067 186.205 174.472 186.31 174.94 186.31C175.587 186.31 176.091 186.053 176.451 185.538C176.815 185.02 176.997 184.269 176.997 183.288ZM180.342 186.831H179.57V179.873H180.342V186.831ZM179.435 177.86C179.435 177.714 179.482 177.592 179.576 177.493C179.671 177.39 179.799 177.339 179.962 177.339C180.125 177.339 180.254 177.39 180.348 177.493C180.447 177.592 180.496 177.714 180.496 177.86C180.496 178.006 180.447 178.128 180.348 178.226C180.254 178.325 180.125 178.374 179.962 178.374C179.799 178.374 179.671 178.325 179.576 178.226C179.482 178.128 179.435 178.006 179.435 177.86ZM185.011 186.31C185.546 186.31 185.994 186.16 186.355 185.86C186.719 185.556 186.916 185.163 186.946 184.683H187.686C187.664 185.108 187.531 185.496 187.287 185.847C187.043 186.194 186.717 186.467 186.31 186.664C185.907 186.861 185.474 186.96 185.011 186.96C184.097 186.96 183.373 186.642 182.837 186.008C182.305 185.373 182.039 184.52 182.039 183.448V183.217C182.039 182.531 182.159 181.924 182.4 181.397C182.64 180.87 182.983 180.462 183.428 180.175C183.879 179.888 184.404 179.744 185.004 179.744C185.767 179.744 186.395 179.971 186.888 180.426C187.386 180.88 187.652 181.478 187.686 182.22H186.946C186.912 181.676 186.715 181.236 186.355 180.902C185.999 180.567 185.549 180.4 185.004 180.4C184.31 180.4 183.769 180.651 183.383 181.152C183.002 181.654 182.811 182.357 182.811 183.262V183.487C182.811 184.374 183.002 185.067 183.383 185.564C183.769 186.061 184.312 186.31 185.011 186.31ZM190.425 178.091V179.873H191.866V180.503H190.425V185.14C190.425 185.526 190.494 185.813 190.631 186.001C190.773 186.19 191.006 186.284 191.332 186.284C191.461 186.284 191.669 186.263 191.956 186.22L191.988 186.85C191.787 186.923 191.512 186.96 191.165 186.96C190.638 186.96 190.254 186.807 190.014 186.503C189.774 186.194 189.654 185.742 189.654 185.146V180.503H188.374V179.873H189.654V178.091H190.425ZM197.937 185.95C197.474 186.623 196.734 186.96 195.718 186.96C194.976 186.96 194.413 186.745 194.027 186.317C193.641 185.884 193.444 185.245 193.435 184.4V179.873H194.2V184.304C194.2 185.628 194.736 186.291 195.808 186.291C196.923 186.291 197.628 185.83 197.924 184.908V179.873H198.696V186.831H197.95L197.937 185.95ZM203.918 180.529C203.755 180.499 203.581 180.484 203.397 180.484C202.917 180.484 202.509 180.619 202.175 180.889C201.845 181.155 201.609 181.543 201.467 182.053V186.831H200.702V179.873H201.455L201.467 180.979C201.875 180.156 202.529 179.744 203.429 179.744C203.643 179.744 203.813 179.772 203.937 179.828L203.918 180.529ZM207.706 186.96C207.114 186.96 206.578 186.814 206.098 186.522C205.622 186.231 205.251 185.826 204.985 185.307C204.719 184.784 204.587 184.199 204.587 183.551V183.275C204.587 182.606 204.715 182.004 204.972 181.468C205.234 180.932 205.596 180.512 206.059 180.207C206.522 179.898 207.024 179.744 207.564 179.744C208.409 179.744 209.078 180.033 209.571 180.612C210.068 181.187 210.317 181.973 210.317 182.972V183.403H205.352V183.551C205.352 184.34 205.577 184.998 206.027 185.526C206.482 186.049 207.052 186.31 207.738 186.31C208.149 186.31 208.512 186.235 208.825 186.085C209.142 185.935 209.429 185.695 209.686 185.365L210.169 185.731C209.603 186.55 208.782 186.96 207.706 186.96ZM207.564 180.4C206.985 180.4 206.497 180.612 206.098 181.037C205.703 181.461 205.463 182.031 205.378 182.747H209.551V182.664C209.53 181.995 209.339 181.45 208.979 181.03C208.619 180.61 208.147 180.4 207.564 180.4ZM215.982 185.063C215.982 184.681 215.828 184.374 215.519 184.143C215.215 183.911 214.754 183.731 214.137 183.603C213.519 183.47 213.039 183.32 212.696 183.153C212.357 182.981 212.104 182.773 211.937 182.529C211.774 182.284 211.693 181.989 211.693 181.641C211.693 181.092 211.922 180.64 212.381 180.284C212.84 179.924 213.427 179.744 214.143 179.744C214.919 179.744 215.541 179.937 216.008 180.323C216.48 180.704 216.715 181.204 216.715 181.821H215.944C215.944 181.414 215.772 181.075 215.429 180.805C215.091 180.535 214.662 180.4 214.143 180.4C213.637 180.4 213.23 180.514 212.921 180.741C212.617 180.964 212.465 181.255 212.465 181.616C212.465 181.963 212.591 182.233 212.844 182.426C213.101 182.614 213.566 182.788 214.239 182.947C214.917 183.105 215.423 183.275 215.757 183.455C216.096 183.635 216.347 183.851 216.51 184.104C216.673 184.357 216.754 184.664 216.754 185.024C216.754 185.611 216.516 186.081 216.04 186.432C215.569 186.784 214.951 186.96 214.188 186.96C213.378 186.96 212.72 186.765 212.214 186.374C211.712 185.98 211.461 185.483 211.461 184.882H212.233C212.263 185.333 212.452 185.684 212.799 185.937C213.15 186.186 213.614 186.31 214.188 186.31C214.724 186.31 215.157 186.192 215.487 185.956C215.817 185.721 215.982 185.423 215.982 185.063Z" fill="black"/>
<path d="M268.705 88.0953C271.203 83.2894 278.078 83.2894 280.576 88.0954L313.043 150.564C315.357 155.017 312.126 160.339 307.107 160.339H242.174C237.155 160.339 233.924 155.017 236.238 150.564L268.705 88.0953Z" stroke="url(#paint2_linear)" stroke-width="8.51374"/>
<path d="M271.289 105.593C271.289 103.562 272.769 101.915 274.596 101.915C276.422 101.915 277.902 103.562 277.902 105.593V130.416C277.902 132.447 276.422 134.093 274.596 134.093C272.769 134.093 271.289 132.447 271.289 130.416V105.593Z" fill="url(#paint3_linear)"/>
<path d="M277.902 143.287C277.902 145.318 276.422 146.965 274.596 146.965C272.769 146.965 271.289 145.318 271.289 143.287C271.289 141.256 272.769 139.61 274.596 139.61C276.422 139.61 277.902 141.256 277.902 143.287Z" fill="url(#paint4_linear)"/>
<defs>
<filter id="filter0_bd" x="0.0161667" y="0.0161667" width="349.968" height="249.968" filterUnits="userSpaceOnUse" color-interpolation-filters="sRGB">
<feFlood flood-opacity="0" result="BackgroundImageFix"/>
<feGaussianBlur in="BackgroundImage" stdDeviation="5.82551"/>
<feComposite in2="SourceAlpha" operator="in" result="effect1_backgroundBlur"/>
<feColorMatrix in="SourceAlpha" type="matrix" values="0 0 0 0 0 0 0 0 0 0 0 0 0 0 0 0 0 0 127 0" result="hardAlpha"/>
<feMorphology radius="4.16397" operator="dilate" in="SourceAlpha" result="effect2_dropShadow"/>
<feOffset/>
<feGaussianBlur stdDeviation="10.4099"/>
<feComposite in2="hardAlpha" operator="out"/>
<feColorMatrix type="matrix" values="0 0 0 0 0 0 0 0 0 0 0 0 0 0 0 0 0 0 0.5 0"/>
<feBlend mode="normal" in2="effect1_backgroundBlur" result="effect2_dropShadow"/>
<feBlend mode="normal" in="SourceGraphic" in2="effect2_dropShadow" result="shape"/>
</filter>
<linearGradient id="paint0_linear" x1="25" y1="25" x2="355.091" y2="116.809" gradientUnits="userSpaceOnUse">
<stop stop-color="white" stop-opacity="0.9"/>
<stop offset="1" stop-color="white" stop-opacity="0.7"/>
</linearGradient>
<linearGradient id="paint1_linear" x1="129.865" y1="90.2998" x2="129.865" y2="159.699" gradientUnits="userSpaceOnUse">
<stop stop-color="#D46899"/>
<stop offset="1" stop-color="#F27878"/>
</linearGradient>
<linearGradient id="paint2_linear" x1="274.641" y1="76.6748" x2="274.641" y2="160.339" gradientUnits="userSpaceOnUse">
<stop stop-color="#D56997"/>
<stop offset="1" stop-color="#F27878"/>
</linearGradient>
<linearGradient id="paint3_linear" x1="274.607" y1="101.894" x2="274.593" y2="146.965" gradientUnits="userSpaceOnUse">
<stop stop-color="#D66A96"/>
<stop offset="0.775366" stop-color="#F27878"/>
</linearGradient>
<linearGradient id="paint4_linear" x1="274.607" y1="101.894" x2="274.593" y2="146.965" gradientUnits="userSpaceOnUse">
<stop stop-color="#D66A96"/>
<stop offset="0.775366" stop-color="#F27878"/>
</linearGradient>
</defs>
</svg>
