<svg width="350" height="250" viewBox="0 0 350 250" fill="none" xmlns="http://www.w3.org/2000/svg">
<g filter="url(#filter0_bd)">
<rect x="25" y="25" width="300" height="200" rx="25.3283" fill="url(#paint0_linear)" fill-opacity="0.65" shape-rendering="crispEdges"/>
</g>
<path d="M67.8803 66.7726H55.3077V76.1915H70.0038V80.4385H49.9885V49.8269H69.8566V54.1158H55.3077V62.5677H67.8803V66.7726ZM87.4331 80.4385C87.2088 80.004 87.0126 79.2961 86.8444 78.315C85.2185 80.011 83.2282 80.859 80.8735 80.859C78.5888 80.859 76.7246 80.2072 75.2809 78.9037C73.8373 77.6002 73.1154 75.9883 73.1154 74.0681C73.1154 71.6432 74.0125 69.7861 75.8066 68.4966C77.6147 67.1931 80.1937 66.5413 83.5436 66.5413H86.6762V65.0486C86.6762 63.8712 86.3468 62.9321 85.6881 62.2313C85.0293 61.5165 84.0271 61.159 82.6816 61.159C81.5182 61.159 80.5651 61.4534 79.8222 62.0421C79.0794 62.6167 78.7079 63.3526 78.7079 64.2496H73.599C73.599 63.0022 74.0125 61.8388 74.8394 60.7596C75.6664 59.6663 76.7877 58.8113 78.2033 58.1946C79.633 57.5779 81.2239 57.2695 82.9759 57.2695C85.639 57.2695 87.7625 57.9423 89.3463 59.2879C90.9302 60.6194 91.7431 62.4976 91.7851 64.9224V75.1824C91.7851 77.2287 92.0725 78.8616 92.6472 80.0811V80.4385H87.4331ZM81.8196 76.7592C82.8287 76.7592 83.7748 76.5139 84.6579 76.0233C85.5549 75.5328 86.2277 74.874 86.6762 74.047V69.758H83.922C82.0298 69.758 80.6071 70.0874 79.654 70.7462C78.7009 71.405 78.2244 72.337 78.2244 73.5425C78.2244 74.5236 78.5467 75.3085 79.1915 75.8972C79.8503 76.4719 80.7263 76.7592 81.8196 76.7592ZM109.887 74.2573C109.887 73.3462 109.509 72.6524 108.752 72.1759C108.009 71.6993 106.769 71.2788 105.031 70.9144C103.293 70.55 101.842 70.0874 100.679 69.5268C98.1275 68.2933 96.852 66.5063 96.852 64.1655C96.852 62.2033 97.679 60.5633 99.3329 59.2458C100.987 57.9283 103.089 57.2695 105.64 57.2695C108.359 57.2695 110.553 57.9423 112.221 59.2879C113.903 60.6334 114.744 62.3785 114.744 64.523H109.635C109.635 63.5418 109.271 62.7289 108.542 62.0841C107.813 61.4254 106.846 61.096 105.64 61.096C104.519 61.096 103.601 61.3553 102.886 61.8739C102.185 62.3925 101.835 63.0863 101.835 63.9553C101.835 64.7402 102.164 65.3499 102.823 65.7844C103.482 66.2189 104.813 66.6604 106.818 67.109C108.822 67.5435 110.392 68.0691 111.527 68.6858C112.676 69.2885 113.524 70.0173 114.071 70.8723C114.632 71.7273 114.912 72.7645 114.912 73.984C114.912 76.0303 114.064 77.6913 112.368 78.9668C110.672 80.2282 108.451 80.859 105.703 80.859C103.839 80.859 102.178 80.5226 100.721 79.8498C99.2629 79.177 98.1275 78.2519 97.3146 77.0746C96.5016 75.8972 96.0952 74.6287 96.0952 73.2691H101.057C101.127 74.4745 101.583 75.4066 102.424 76.0654C103.265 76.7101 104.379 77.0325 105.766 77.0325C107.112 77.0325 108.135 76.7802 108.836 76.2756C109.537 75.757 109.887 75.0842 109.887 74.2573ZM124.815 80.4385H119.706V57.69H124.815V80.4385ZM119.39 51.7821C119.39 50.9972 119.636 50.3455 120.126 49.8269C120.631 49.3083 121.346 49.0489 122.271 49.0489C123.196 49.0489 123.911 49.3083 124.415 49.8269C124.92 50.3455 125.172 50.9972 125.172 51.7821C125.172 52.553 124.92 53.1978 124.415 53.7164C123.911 54.221 123.196 54.4733 122.271 54.4733C121.346 54.4733 120.631 54.221 120.126 53.7164C119.636 53.1978 119.39 52.553 119.39 51.7821ZM135.831 80.4385H130.722V48.1449H135.831V80.4385ZM149.371 73.122L153.997 57.69H159.442L150.401 83.8865C149.014 87.7129 146.659 89.6262 143.337 89.6262C142.594 89.6262 141.774 89.5 140.877 89.2477V85.2951L141.844 85.3582C143.134 85.3582 144.101 85.1199 144.746 84.6434C145.405 84.1808 145.923 83.3959 146.302 82.2886L147.037 80.3334L139.048 57.69H144.557L149.371 73.122ZM178.932 69.0642V80.4385H173.612V49.8269H185.323C188.743 49.8269 191.455 50.7169 193.459 52.497C195.478 54.277 196.487 56.6318 196.487 59.5612C196.487 62.5607 195.499 64.8944 193.523 66.5623C191.56 68.2303 188.806 69.0642 185.26 69.0642H178.932ZM178.932 64.7963H185.323C187.215 64.7963 188.659 64.3548 189.654 63.4717C190.649 62.5747 191.147 61.2852 191.147 59.6032C191.147 57.9493 190.642 56.6318 189.633 55.6506C188.624 54.6555 187.236 54.1439 185.47 54.1158H178.932V64.7963ZM214.442 78.2099C212.942 79.9759 210.812 80.859 208.05 80.859C205.584 80.859 203.712 80.1371 202.437 78.6934C201.175 77.2498 200.545 75.1613 200.545 72.4282V57.69H205.654V72.3651C205.654 75.2524 206.852 76.6961 209.249 76.6961C211.73 76.6961 213.405 75.8061 214.274 74.026V57.69H219.383V80.4385H214.568L214.442 78.2099ZM229.327 57.69L229.474 60.3181C231.156 58.2857 233.364 57.2695 236.097 57.2695C240.835 57.2695 243.245 59.9817 243.33 65.406V80.4385H238.221V65.7003C238.221 64.2566 237.905 63.1914 237.274 62.5046C236.658 61.8038 235.642 61.4534 234.226 61.4534C232.166 61.4534 230.631 62.3855 229.622 64.2496V80.4385H224.513V57.69H229.327ZM253.989 80.4385H248.88V57.69H253.989V80.4385ZM248.565 51.7821C248.565 50.9972 248.81 50.3455 249.3 49.8269C249.805 49.3083 250.52 49.0489 251.445 49.0489C252.37 49.0489 253.085 49.3083 253.589 49.8269C254.094 50.3455 254.346 50.9972 254.346 51.7821C254.346 52.553 254.094 53.1978 253.589 53.7164C253.085 54.221 252.37 54.4733 251.445 54.4733C250.52 54.4733 249.805 54.221 249.3 53.7164C248.81 53.1978 248.565 52.553 248.565 51.7821ZM272.322 74.2573C272.322 73.3462 271.944 72.6524 271.187 72.1759C270.444 71.6993 269.204 71.2788 267.466 70.9144C265.728 70.55 264.277 70.0874 263.114 69.5268C260.563 68.2933 259.287 66.5063 259.287 64.1655C259.287 62.2033 260.114 60.5633 261.768 59.2458C263.422 57.9283 265.524 57.2695 268.075 57.2695C270.794 57.2695 272.988 57.9423 274.656 59.2879C276.338 60.6334 277.179 62.3785 277.179 64.523H272.07C272.07 63.5418 271.706 62.7289 270.977 62.0841C270.248 61.4254 269.281 61.096 268.075 61.096C266.954 61.096 266.036 61.3553 265.321 61.8739C264.62 62.3925 264.27 63.0863 264.27 63.9553C264.27 64.7402 264.599 65.3499 265.258 65.7844C265.917 66.2189 267.248 66.6604 269.253 67.109C271.257 67.5435 272.827 68.0691 273.962 68.6858C275.111 69.2885 275.959 70.0173 276.506 70.8723C277.067 71.7273 277.347 72.7645 277.347 73.984C277.347 76.0303 276.499 77.6913 274.803 78.9668C273.107 80.2282 270.886 80.859 268.138 80.859C266.274 80.859 264.613 80.5226 263.156 79.8498C261.698 79.177 260.563 78.2519 259.75 77.0746C258.937 75.8972 258.53 74.6287 258.53 73.2691H263.492C263.562 74.4745 264.018 75.4066 264.859 76.0654C265.7 76.7101 266.814 77.0325 268.201 77.0325C269.547 77.0325 270.57 76.7802 271.271 76.2756C271.972 75.757 272.322 75.0842 272.322 74.2573ZM286.85 60.1709C288.518 58.2366 290.628 57.2695 293.179 57.2695C298.028 57.2695 300.488 60.0377 300.558 65.5742V80.4385H295.449V65.7634C295.449 64.1936 295.106 63.0863 294.419 62.4415C293.746 61.7828 292.751 61.4534 291.433 61.4534C289.387 61.4534 287.859 62.3644 286.85 64.1866V80.4385H281.741V48.1449H286.85V60.1709ZM62.8975 118.644H56.9686V130.438H51.6494V99.8269H62.414C65.9461 99.8269 68.6723 100.619 70.5925 102.203C72.5127 103.786 73.4728 106.078 73.4728 109.078C73.4728 111.124 72.9753 112.841 71.9801 114.229C70.999 115.602 69.6254 116.66 67.8593 117.403L74.7343 130.165V130.438H69.0367L62.8975 118.644ZM56.9686 114.376H62.435C64.2291 114.376 65.6307 113.927 66.6399 113.03C67.6491 112.119 68.1537 110.879 68.1537 109.309C68.1537 107.669 67.6841 106.401 66.745 105.503C65.8199 104.606 64.4323 104.144 62.5822 104.116H56.9686V114.376ZM91.8062 128.21C90.3064 129.976 88.176 130.859 85.4147 130.859C82.9479 130.859 81.0767 130.137 79.8012 128.693C78.5397 127.25 77.909 125.161 77.909 122.428V107.69H83.0179V122.365C83.0179 125.252 84.2163 126.696 86.6131 126.696C89.094 126.696 90.769 125.806 91.638 124.026V107.69H96.7469V130.438H91.9323L91.8062 128.21ZM107.385 130.438H102.276V98.1449H107.385V130.438ZM122.985 130.859C119.748 130.859 117.12 129.843 115.101 127.81C113.097 125.764 112.095 123.045 112.095 119.653V119.022C112.095 116.752 112.529 114.726 113.398 112.946C114.281 111.152 115.515 109.757 117.099 108.762C118.682 107.767 120.449 107.27 122.397 107.27C125.494 107.27 127.884 108.258 129.566 110.234C131.262 112.21 132.11 115.007 132.11 118.623V120.683H117.246C117.4 122.561 118.024 124.047 119.117 125.14C120.224 126.234 121.612 126.78 123.28 126.78C125.621 126.78 127.527 125.834 128.998 123.942L131.753 126.57C130.842 127.93 129.622 128.988 128.094 129.745C126.581 130.488 124.878 130.859 122.985 130.859ZM122.376 111.369C120.974 111.369 119.839 111.86 118.97 112.841C118.115 113.822 117.568 115.189 117.33 116.941H127.064V116.562C126.952 114.852 126.497 113.563 125.698 112.694C124.899 111.811 123.791 111.369 122.376 111.369ZM156.057 119.296C156.057 122.828 155.265 125.638 153.681 127.726C152.111 129.815 149.946 130.859 147.185 130.859C144.522 130.859 142.447 129.899 140.961 127.979L140.709 130.438H136.084V98.1449H141.193V109.877C142.664 108.139 144.648 107.27 147.143 107.27C149.918 107.27 152.097 108.3 153.681 110.36C155.265 112.421 156.057 115.301 156.057 119.001V119.296ZM150.948 118.854C150.948 116.387 150.513 114.537 149.644 113.304C148.775 112.07 147.514 111.453 145.86 111.453C143.646 111.453 142.09 112.421 141.193 114.355V123.732C142.104 125.708 143.674 126.696 145.902 126.696C147.5 126.696 148.733 126.1 149.602 124.909C150.471 123.718 150.92 121.917 150.948 119.506V118.854ZM172.267 112.357C171.594 112.245 170.9 112.189 170.185 112.189C167.845 112.189 166.268 113.086 165.455 114.88V130.438H160.346V107.69H165.224L165.35 110.234C166.583 108.258 168.293 107.27 170.48 107.27C171.209 107.27 171.811 107.368 172.288 107.564L172.267 112.357ZM185.092 130.859C181.854 130.859 179.226 129.843 177.208 127.81C175.203 125.764 174.201 123.045 174.201 119.653V119.022C174.201 116.752 174.636 114.726 175.505 112.946C176.388 111.152 177.621 109.757 179.205 108.762C180.789 107.767 182.555 107.27 184.503 107.27C187.601 107.27 189.99 108.258 191.672 110.234C193.368 112.21 194.216 115.007 194.216 118.623V120.683H179.352C179.506 122.561 180.13 124.047 181.223 125.14C182.331 126.234 183.718 126.78 185.386 126.78C187.727 126.78 189.633 125.834 191.105 123.942L193.859 126.57C192.948 127.93 191.728 128.988 190.201 129.745C188.687 130.488 186.984 130.859 185.092 130.859ZM184.482 111.369C183.08 111.369 181.945 111.86 181.076 112.841C180.221 113.822 179.674 115.189 179.436 116.941H189.17V116.562C189.058 114.852 188.603 113.563 187.804 112.694C187.005 111.811 185.898 111.369 184.482 111.369ZM211.793 130.438C211.569 130.004 211.372 129.296 211.204 128.315C209.578 130.011 207.588 130.859 205.233 130.859C202.949 130.859 201.084 130.207 199.641 128.904C198.197 127.6 197.475 125.988 197.475 124.068C197.475 121.643 198.372 119.786 200.166 118.497C201.974 117.193 204.553 116.541 207.903 116.541H211.036V115.049C211.036 113.871 210.707 112.932 210.048 112.231C209.389 111.516 208.387 111.159 207.041 111.159C205.878 111.159 204.925 111.453 204.182 112.042C203.439 112.617 203.068 113.353 203.068 114.25H197.959C197.959 113.002 198.372 111.839 199.199 110.76C200.026 109.666 201.147 108.811 202.563 108.195C203.993 107.578 205.584 107.27 207.336 107.27C209.999 107.27 212.122 107.942 213.706 109.288C215.29 110.619 216.103 112.498 216.145 114.922V125.182C216.145 127.229 216.432 128.862 217.007 130.081V130.438H211.793ZM206.179 126.759C207.188 126.759 208.135 126.514 209.018 126.023C209.915 125.533 210.587 124.874 211.036 124.047V119.758H208.282C206.39 119.758 204.967 120.087 204.014 120.746C203.061 121.405 202.584 122.337 202.584 123.542C202.584 124.524 202.906 125.309 203.551 125.897C204.21 126.472 205.086 126.759 206.179 126.759ZM228.886 120.683L226.615 123.017V130.438H221.506V98.1449H226.615V116.773L228.213 114.775L234.499 107.69H240.638L232.187 117.172L241.542 130.438H235.635L228.886 120.683ZM253.589 130.859C250.352 130.859 247.724 129.843 245.705 127.81C243.701 125.764 242.699 123.045 242.699 119.653V119.022C242.699 116.752 243.133 114.726 244.002 112.946C244.885 111.152 246.119 109.757 247.703 108.762C249.286 107.767 251.052 107.27 253.001 107.27C256.098 107.27 258.488 108.258 260.17 110.234C261.866 112.21 262.714 115.007 262.714 118.623V120.683H247.85C248.004 122.561 248.628 124.047 249.721 125.14C250.828 126.234 252.216 126.78 253.884 126.78C256.225 126.78 258.131 125.834 259.602 123.942L262.357 126.57C261.446 127.93 260.226 128.988 258.698 129.745C257.185 130.488 255.482 130.859 253.589 130.859ZM252.98 111.369C251.578 111.369 250.443 111.86 249.574 112.841C248.719 113.822 248.172 115.189 247.934 116.941H257.668V116.562C257.556 114.852 257.101 113.563 256.302 112.694C255.503 111.811 254.395 111.369 252.98 111.369ZM278.609 112.357C277.936 112.245 277.242 112.189 276.527 112.189C274.186 112.189 272.61 113.086 271.797 114.88V130.438H266.688V107.69H271.565L271.691 110.234C272.925 108.258 274.635 107.27 276.821 107.27C277.55 107.27 278.153 107.368 278.63 107.564L278.609 112.357ZM294.587 124.257C294.587 123.346 294.209 122.652 293.452 122.176C292.709 121.699 291.469 121.279 289.73 120.914C287.992 120.55 286.542 120.087 285.378 119.527C282.827 118.293 281.552 116.506 281.552 114.166C281.552 112.203 282.379 110.563 284.033 109.246C285.687 107.928 287.789 107.27 290.34 107.27C293.059 107.27 295.253 107.942 296.921 109.288C298.603 110.633 299.444 112.378 299.444 114.523H294.335C294.335 113.542 293.97 112.729 293.242 112.084C292.513 111.425 291.546 111.096 290.34 111.096C289.219 111.096 288.301 111.355 287.586 111.874C286.885 112.392 286.535 113.086 286.535 113.955C286.535 114.74 286.864 115.35 287.523 115.784C288.182 116.219 289.513 116.66 291.518 117.109C293.522 117.543 295.092 118.069 296.227 118.686C297.376 119.289 298.224 120.017 298.771 120.872C299.332 121.727 299.612 122.765 299.612 123.984C299.612 126.03 298.764 127.691 297.068 128.967C295.372 130.228 293.15 130.859 290.403 130.859C288.539 130.859 286.878 130.523 285.42 129.85C283.963 129.177 282.827 128.252 282.015 127.075C281.202 125.897 280.795 124.629 280.795 123.269H285.757C285.827 124.475 286.282 125.407 287.123 126.065C287.964 126.71 289.079 127.033 290.466 127.033C291.812 127.033 292.835 126.78 293.536 126.276C294.237 125.757 294.587 125.084 294.587 124.257Z" fill="url(#paint1_linear)"/>
<path d="M46.0194 173.629C45.8651 173.192 45.7665 172.544 45.7236 171.687C45.1834 172.39 44.4931 172.934 43.6528 173.32C42.821 173.698 41.9379 173.886 41.0032 173.886C39.6656 173.886 38.5809 173.513 37.7491 172.767C36.926 172.021 36.5144 171.078 36.5144 169.938C36.5144 168.583 37.076 167.511 38.1993 166.722C39.3312 165.933 40.9046 165.539 42.9197 165.539H45.7107V163.957C45.7107 162.962 45.402 162.182 44.7847 161.616C44.1758 161.041 43.2841 160.754 42.1093 160.754C41.0375 160.754 40.15 161.028 39.4469 161.577C38.7438 162.126 38.3922 162.786 38.3922 163.558L36.8488 163.545C36.8488 162.439 37.3633 161.483 38.3922 160.677C39.4212 159.862 40.686 159.455 42.1865 159.455C43.7385 159.455 44.9604 159.845 45.8522 160.625C46.7525 161.397 47.2156 162.478 47.2413 163.867V170.452C47.2413 171.798 47.3828 172.806 47.6657 173.475V173.629H46.0194ZM41.1833 172.523C42.2122 172.523 43.1297 172.274 43.9358 171.777C44.7504 171.279 45.342 170.615 45.7107 169.783V166.722H42.9582C41.4234 166.739 40.2229 167.022 39.3569 167.571C38.4908 168.111 38.0578 168.857 38.0578 169.809C38.0578 170.589 38.3451 171.237 38.9196 171.751C39.5026 172.266 40.2572 172.523 41.1833 172.523ZM52.8234 159.712L52.8749 162.092C53.3979 161.234 54.0496 160.583 54.8299 160.137C55.6102 159.682 56.4719 159.455 57.4152 159.455C58.9072 159.455 60.0176 159.875 60.7464 160.715C61.4753 161.556 61.844 162.816 61.8526 164.497V173.629H60.322V164.484C60.3134 163.241 60.0476 162.315 59.5245 161.706C59.0101 161.097 58.1826 160.793 57.0422 160.793C56.0904 160.793 55.2458 161.093 54.5083 161.693C53.7795 162.285 53.2393 163.086 52.8877 164.098V173.629H51.3571V159.712H52.8234ZM65.2224 166.542C65.2224 164.381 65.7026 162.662 66.663 161.384C67.6319 160.098 68.9438 159.455 70.5987 159.455C72.4766 159.455 73.9086 160.197 74.8947 161.68V153.873H76.4252V173.629H74.9847L74.9204 171.777C73.9343 173.183 72.4852 173.886 70.573 173.886C68.9695 173.886 67.6748 173.243 66.6887 171.957C65.7112 170.662 65.2224 168.917 65.2224 166.722V166.542ZM66.7787 166.812C66.7787 168.587 67.1346 169.989 67.8463 171.018C68.558 172.038 69.5612 172.548 70.856 172.548C72.751 172.548 74.0972 171.712 74.8947 170.04V163.506C74.0972 161.697 72.7596 160.793 70.8817 160.793C69.5869 160.793 68.5794 161.303 67.8591 162.323C67.1389 163.335 66.7787 164.831 66.7787 166.812ZM95.2167 170.092C95.2167 169.329 94.908 168.716 94.2906 168.253C93.6818 167.79 92.76 167.429 91.5253 167.172C90.2905 166.906 89.3301 166.606 88.6442 166.272C87.9668 165.929 87.4609 165.513 87.1264 165.024C86.8006 164.535 86.6377 163.944 86.6377 163.249C86.6377 162.152 87.0964 161.247 88.0139 160.535C88.9314 159.815 90.1061 159.455 91.5381 159.455C93.0901 159.455 94.3335 159.841 95.2681 160.613C96.2113 161.376 96.6829 162.375 96.6829 163.609H95.1395C95.1395 162.795 94.7965 162.117 94.1105 161.577C93.4331 161.037 92.5757 160.767 91.5381 160.767C90.5263 160.767 89.7117 160.994 89.0943 161.449C88.4855 161.894 88.1811 162.478 88.1811 163.198C88.1811 163.892 88.4341 164.433 88.94 164.818C89.4545 165.196 90.3848 165.543 91.731 165.86C93.0858 166.178 94.0977 166.516 94.7665 166.876C95.4439 167.236 95.9455 167.67 96.2713 168.175C96.5972 168.681 96.7601 169.294 96.7601 170.015C96.7601 171.189 96.2842 172.128 95.3324 172.831C94.3892 173.535 93.1544 173.886 91.6282 173.886C90.0075 173.886 88.6913 173.496 87.6795 172.716C86.6763 171.927 86.1747 170.932 86.1747 169.732H87.7181C87.7781 170.632 88.1554 171.335 88.85 171.841C89.5531 172.338 90.4791 172.587 91.6282 172.587C92.7 172.587 93.566 172.351 94.2263 171.88C94.8865 171.408 95.2167 170.812 95.2167 170.092ZM105.622 173.886C104.439 173.886 103.367 173.595 102.407 173.012C101.455 172.428 100.713 171.618 100.181 170.581C99.6498 169.534 99.384 168.364 99.384 167.069V166.516C99.384 165.179 99.6412 163.974 100.156 162.902C100.679 161.83 101.403 160.99 102.329 160.381C103.255 159.764 104.259 159.455 105.339 159.455C107.028 159.455 108.366 160.034 109.352 161.191C110.347 162.34 110.844 163.914 110.844 165.912V166.773H100.915V167.069C100.915 168.647 101.365 169.963 102.265 171.018C103.174 172.064 104.314 172.587 105.686 172.587C106.51 172.587 107.234 172.437 107.86 172.137C108.495 171.837 109.069 171.357 109.584 170.696L110.548 171.429C109.416 173.067 107.774 173.886 105.622 173.886ZM105.339 160.767C104.181 160.767 103.204 161.191 102.407 162.04C101.618 162.889 101.137 164.03 100.966 165.462H109.313V165.294C109.271 163.957 108.889 162.868 108.169 162.027C107.448 161.187 106.505 160.767 105.339 160.767ZM119.23 173.886C118.047 173.886 116.975 173.595 116.015 173.012C115.063 172.428 114.321 171.618 113.789 170.581C113.258 169.534 112.992 168.364 112.992 167.069V166.516C112.992 165.179 113.249 163.974 113.764 162.902C114.287 161.83 115.011 160.99 115.937 160.381C116.863 159.764 117.867 159.455 118.947 159.455C120.636 159.455 121.974 160.034 122.96 161.191C123.955 162.34 124.452 163.914 124.452 165.912V166.773H114.523V167.069C114.523 168.647 114.973 169.963 115.873 171.018C116.782 172.064 117.922 172.587 119.294 172.587C120.118 172.587 120.842 172.437 121.468 172.137C122.103 171.837 122.677 171.357 123.192 170.696L124.156 171.429C123.024 173.067 121.382 173.886 119.23 173.886ZM118.947 160.767C117.79 160.767 116.812 161.191 116.015 162.04C115.226 162.889 114.746 164.03 114.574 165.462H122.921V165.294C122.879 163.957 122.497 162.868 121.777 162.027C121.056 161.187 120.113 160.767 118.947 160.767ZM142.639 173.629C142.485 173.192 142.386 172.544 142.343 171.687C141.803 172.39 141.113 172.934 140.272 173.32C139.441 173.698 138.557 173.886 137.623 173.886C136.285 173.886 135.2 173.513 134.369 172.767C133.545 172.021 133.134 171.078 133.134 169.938C133.134 168.583 133.696 167.511 134.819 166.722C135.951 165.933 137.524 165.539 139.539 165.539H142.33V163.957C142.33 162.962 142.022 162.182 141.404 161.616C140.795 161.041 139.904 160.754 138.729 160.754C137.657 160.754 136.77 161.028 136.066 161.577C135.363 162.126 135.012 162.786 135.012 163.558L133.468 163.545C133.468 162.439 133.983 161.483 135.012 160.677C136.041 159.862 137.305 159.455 138.806 159.455C140.358 159.455 141.58 159.845 142.472 160.625C143.372 161.397 143.835 162.478 143.861 163.867V170.452C143.861 171.798 144.002 172.806 144.285 173.475V173.629H142.639ZM137.803 172.523C138.832 172.523 139.749 172.274 140.555 171.777C141.37 171.279 141.962 170.615 142.33 169.783V166.722H139.578C138.043 166.739 136.842 167.022 135.976 167.571C135.11 168.111 134.677 168.857 134.677 169.809C134.677 170.589 134.965 171.237 135.539 171.751C136.122 172.266 136.877 172.523 137.803 172.523ZM149.7 173.629H148.157V153.873H149.7V173.629ZM155.617 173.629H154.073V153.873H155.617V173.629ZM177.405 166.812C177.405 168.981 176.925 170.705 175.964 171.983C175.004 173.252 173.718 173.886 172.106 173.886C170.202 173.886 168.745 173.217 167.733 171.88V178.98H166.202V159.712H167.63L167.707 161.68C168.71 160.197 170.164 159.455 172.067 159.455C173.731 159.455 175.034 160.085 175.977 161.346C176.929 162.606 177.405 164.355 177.405 166.593V166.812ZM175.862 166.542C175.862 164.767 175.497 163.365 174.768 162.336C174.039 161.307 173.023 160.793 171.72 160.793C170.777 160.793 169.966 161.02 169.289 161.474C168.612 161.929 168.093 162.589 167.733 163.455V170.13C168.101 170.928 168.629 171.537 169.315 171.957C170.001 172.377 170.811 172.587 171.746 172.587C173.04 172.587 174.048 172.073 174.768 171.044C175.497 170.006 175.862 168.506 175.862 166.542ZM189.778 171.867C188.852 173.213 187.373 173.886 185.341 173.886C183.857 173.886 182.73 173.457 181.958 172.6C181.186 171.734 180.792 170.456 180.775 168.767V159.712H182.305V168.574C182.305 171.224 183.377 172.548 185.521 172.548C187.75 172.548 189.161 171.627 189.753 169.783V159.712H191.296V173.629H189.804L189.778 171.867ZM196.775 159.712L196.827 162.092C197.35 161.234 198.001 160.583 198.782 160.137C199.562 159.682 200.424 159.455 201.367 159.455C202.859 159.455 203.969 159.875 204.698 160.715C205.427 161.556 205.796 162.816 205.804 164.497V173.629H204.274V164.484C204.265 163.241 203.999 162.315 203.476 161.706C202.962 161.097 202.134 160.793 200.994 160.793C200.042 160.793 199.198 161.093 198.46 161.693C197.731 162.285 197.191 163.086 196.84 164.098V173.629H195.309V159.712H196.775ZM211.515 173.629H209.972V159.712H211.515V173.629ZM209.702 155.686C209.702 155.395 209.796 155.15 209.985 154.953C210.173 154.747 210.43 154.645 210.756 154.645C211.082 154.645 211.339 154.747 211.528 154.953C211.725 155.15 211.824 155.395 211.824 155.686C211.824 155.978 211.725 156.222 211.528 156.42C211.339 156.617 211.082 156.715 210.756 156.715C210.43 156.715 210.173 156.617 209.985 156.42C209.796 156.222 209.702 155.978 209.702 155.686ZM224.043 170.092C224.043 169.329 223.734 168.716 223.117 168.253C222.508 167.79 221.586 167.429 220.351 167.172C219.117 166.906 218.156 166.606 217.47 166.272C216.793 165.929 216.287 165.513 215.952 165.024C215.627 164.535 215.464 163.944 215.464 163.249C215.464 162.152 215.922 161.247 216.84 160.535C217.757 159.815 218.932 159.455 220.364 159.455C221.916 159.455 223.16 159.841 224.094 160.613C225.037 161.376 225.509 162.375 225.509 163.609H223.966C223.966 162.795 223.623 162.117 222.937 161.577C222.259 161.037 221.402 160.767 220.364 160.767C219.352 160.767 218.538 160.994 217.92 161.449C217.312 161.894 217.007 162.478 217.007 163.198C217.007 163.892 217.26 164.433 217.766 164.818C218.281 165.196 219.211 165.543 220.557 165.86C221.912 166.178 222.924 166.516 223.593 166.876C224.27 167.236 224.772 167.67 225.097 168.175C225.423 168.681 225.586 169.294 225.586 170.015C225.586 171.189 225.11 172.128 224.158 172.831C223.215 173.535 221.981 173.886 220.454 173.886C218.834 173.886 217.517 173.496 216.506 172.716C215.502 171.927 215.001 170.932 215.001 169.732H216.544C216.604 170.632 216.981 171.335 217.676 171.841C218.379 172.338 219.305 172.587 220.454 172.587C221.526 172.587 222.392 172.351 223.052 171.88C223.713 171.408 224.043 170.812 224.043 170.092ZM230.589 162.066C231.095 161.234 231.743 160.591 232.532 160.137C233.321 159.682 234.182 159.455 235.117 159.455C236.609 159.455 237.719 159.875 238.448 160.715C239.177 161.556 239.546 162.816 239.554 164.497V173.629H238.024V164.484C238.015 163.241 237.749 162.315 237.226 161.706C236.712 161.097 235.884 160.793 234.744 160.793C233.792 160.793 232.948 161.093 232.21 161.693C231.481 162.285 230.941 163.086 230.589 164.098V173.629H229.059V153.873H230.589V162.066ZM244.918 159.712L244.969 161.976C245.484 161.136 246.127 160.505 246.899 160.085C247.67 159.665 248.528 159.455 249.471 159.455C251.666 159.455 253.059 160.355 253.651 162.156C254.148 161.29 254.813 160.625 255.645 160.162C256.476 159.691 257.394 159.455 258.397 159.455C261.381 159.455 262.903 161.084 262.963 164.343V173.629H261.42V164.458C261.411 163.215 261.141 162.293 260.609 161.693C260.086 161.093 259.229 160.793 258.037 160.793C256.931 160.81 255.996 161.17 255.233 161.873C254.47 162.568 254.046 163.416 253.96 164.42V173.629H252.416V164.343C252.408 163.151 252.125 162.263 251.567 161.68C251.019 161.088 250.17 160.793 249.021 160.793C248.052 160.793 247.22 161.071 246.526 161.629C245.831 162.177 245.317 162.996 244.982 164.085V173.629H243.439V159.712H244.918ZM272.262 173.886C271.079 173.886 270.007 173.595 269.047 173.012C268.095 172.428 267.353 171.618 266.822 170.581C266.29 169.534 266.024 168.364 266.024 167.069V166.516C266.024 165.179 266.282 163.974 266.796 162.902C267.319 161.83 268.044 160.99 268.97 160.381C269.896 159.764 270.899 159.455 271.979 159.455C273.669 159.455 275.006 160.034 275.992 161.191C276.987 162.34 277.484 163.914 277.484 165.912V166.773H267.555V167.069C267.555 168.647 268.005 169.963 268.905 171.018C269.814 172.064 270.955 172.587 272.327 172.587C273.15 172.587 273.874 172.437 274.5 172.137C275.135 171.837 275.709 171.357 276.224 170.696L277.189 171.429C276.057 173.067 274.415 173.886 272.262 173.886ZM271.979 160.767C270.822 160.767 269.844 161.191 269.047 162.04C268.258 162.889 267.778 164.03 267.606 165.462H275.954V165.294C275.911 163.957 275.529 162.868 274.809 162.027C274.089 161.187 273.146 160.767 271.979 160.767ZM281.948 159.712L281.999 162.092C282.522 161.234 283.174 160.583 283.954 160.137C284.734 159.682 285.596 159.455 286.539 159.455C288.031 159.455 289.142 159.875 289.871 160.715C290.599 161.556 290.968 162.816 290.977 164.497V173.629H289.446V164.484C289.438 163.241 289.172 162.315 288.649 161.706C288.134 161.097 287.307 160.793 286.166 160.793C285.215 160.793 284.37 161.093 283.632 161.693C282.904 162.285 282.363 163.086 282.012 164.098V173.629H280.481V159.712H281.948ZM297.356 156.149V159.712H300.237V160.973H297.356V170.246C297.356 171.018 297.493 171.592 297.768 171.97C298.051 172.347 298.518 172.536 299.17 172.536C299.427 172.536 299.843 172.493 300.417 172.407L300.482 173.667C300.079 173.813 299.53 173.886 298.835 173.886C297.781 173.886 297.013 173.582 296.533 172.973C296.053 172.356 295.813 171.451 295.813 170.259V160.973H293.253V159.712H295.813V156.149H297.356ZM311.762 170.092C311.762 169.329 311.453 168.716 310.836 168.253C310.227 167.79 309.305 167.429 308.07 167.172C306.836 166.906 305.875 166.606 305.189 166.272C304.512 165.929 304.006 165.513 303.672 165.024C303.346 164.535 303.183 163.944 303.183 163.249C303.183 162.152 303.641 161.247 304.559 160.535C305.476 159.815 306.651 159.455 308.083 159.455C309.635 159.455 310.879 159.841 311.813 160.613C312.756 161.376 313.228 162.375 313.228 163.609H311.685C311.685 162.795 311.342 162.117 310.656 161.577C309.978 161.037 309.121 160.767 308.083 160.767C307.071 160.767 306.257 160.994 305.639 161.449C305.031 161.894 304.726 162.478 304.726 163.198C304.726 163.892 304.979 164.433 305.485 164.818C306 165.196 306.93 165.543 308.276 165.86C309.631 166.178 310.643 166.516 311.312 166.876C311.989 167.236 312.491 167.67 312.816 168.175C313.142 168.681 313.305 169.294 313.305 170.015C313.305 171.189 312.829 172.128 311.877 172.831C310.934 173.535 309.7 173.886 308.173 173.886C306.553 173.886 305.236 173.496 304.225 172.716C303.221 171.927 302.72 170.932 302.72 169.732H304.263C304.323 170.632 304.7 171.335 305.395 171.841C306.098 172.338 307.024 172.587 308.173 172.587C309.245 172.587 310.111 172.351 310.771 171.88C311.432 171.408 311.762 170.812 311.762 170.092ZM81.5443 204.629H80.0009V190.712H81.5443V204.629ZM79.7308 186.686C79.7308 186.395 79.8251 186.15 80.0137 185.953C80.2024 185.747 80.4596 185.645 80.7855 185.645C81.1113 185.645 81.3685 185.747 81.5572 185.953C81.7544 186.15 81.853 186.395 81.853 186.686C81.853 186.978 81.7544 187.222 81.5572 187.42C81.3685 187.617 81.1113 187.715 80.7855 187.715C80.4596 187.715 80.2024 187.617 80.0137 187.42C79.8251 187.222 79.7308 186.978 79.7308 186.686ZM87.2036 190.712L87.2551 193.092C87.7781 192.234 88.4298 191.583 89.2101 191.137C89.9904 190.682 90.8521 190.455 91.7954 190.455C93.2874 190.455 94.3978 190.875 95.1266 191.715C95.8555 192.556 96.2242 193.816 96.2328 195.497V204.629H94.7022V195.484C94.6936 194.241 94.4278 193.315 93.9047 192.706C93.3903 192.097 92.5628 191.793 91.4224 191.793C90.4706 191.793 89.626 192.093 88.8885 192.693C88.1597 193.285 87.6195 194.086 87.2679 195.098V204.629H85.7373V190.712H87.2036ZM105.776 197.465C105.776 196.127 106.034 194.922 106.548 193.851C107.071 192.779 107.804 191.947 108.748 191.355C109.699 190.755 110.775 190.455 111.976 190.455C113.828 190.455 115.329 191.107 116.478 192.41C117.627 193.705 118.201 195.424 118.201 197.568V197.889C118.201 199.235 117.94 200.449 117.417 201.529C116.902 202.601 116.173 203.428 115.23 204.012C114.287 204.595 113.211 204.886 112.002 204.886C110.158 204.886 108.657 204.239 107.5 202.944C106.351 201.641 105.776 199.917 105.776 197.773V197.465ZM107.32 197.889C107.32 199.553 107.749 200.92 108.606 201.992C109.472 203.055 110.604 203.587 112.002 203.587C113.391 203.587 114.514 203.055 115.371 201.992C116.238 200.92 116.671 199.51 116.671 197.761V197.465C116.671 196.401 116.473 195.428 116.079 194.545C115.684 193.662 115.131 192.98 114.42 192.5C113.708 192.011 112.893 191.767 111.976 191.767C110.604 191.767 109.485 192.307 108.619 193.387C107.753 194.459 107.32 195.866 107.32 197.606V197.889ZM122.857 190.712L122.909 193.092C123.432 192.234 124.083 191.583 124.864 191.137C125.644 190.682 126.506 190.455 127.449 190.455C128.941 190.455 130.051 190.875 130.78 191.715C131.509 192.556 131.878 193.816 131.886 195.497V204.629H130.356V195.484C130.347 194.241 130.081 193.315 129.558 192.706C129.044 192.097 128.216 191.793 127.076 191.793C126.124 191.793 125.28 192.093 124.542 192.693C123.813 193.285 123.273 194.086 122.921 195.098V204.629H121.391V190.712H122.857ZM141.263 204.886C140.079 204.886 139.008 204.595 138.047 204.012C137.095 203.428 136.354 202.618 135.822 201.581C135.29 200.534 135.025 199.364 135.025 198.069V197.516C135.025 196.179 135.282 194.974 135.796 193.902C136.319 192.83 137.044 191.99 137.97 191.381C138.896 190.764 139.899 190.455 140.98 190.455C142.669 190.455 144.007 191.034 144.993 192.191C145.987 193.34 146.485 194.914 146.485 196.912V197.773H136.555V198.069C136.555 199.647 137.005 200.963 137.906 202.018C138.815 203.064 139.955 203.587 141.327 203.587C142.15 203.587 142.875 203.437 143.501 203.137C144.135 202.837 144.71 202.357 145.224 201.696L146.189 202.429C145.057 204.067 143.415 204.886 141.263 204.886ZM140.98 191.767C139.822 191.767 138.845 192.191 138.047 193.04C137.258 193.889 136.778 195.03 136.607 196.462H144.954V196.294C144.911 194.957 144.53 193.868 143.809 193.027C143.089 192.187 142.146 191.767 140.98 191.767ZM161.032 203.587C162.103 203.587 163 203.287 163.72 202.687C164.449 202.078 164.843 201.293 164.903 200.333H166.382C166.339 201.182 166.074 201.958 165.585 202.661C165.096 203.356 164.444 203.9 163.63 204.294C162.824 204.689 161.958 204.886 161.032 204.886C159.205 204.886 157.756 204.252 156.684 202.983C155.621 201.714 155.089 200.007 155.089 197.863V197.4C155.089 196.028 155.329 194.815 155.81 193.76C156.29 192.706 156.976 191.891 157.868 191.317C158.768 190.742 159.818 190.455 161.019 190.455C162.545 190.455 163.801 190.909 164.787 191.818C165.782 192.727 166.314 193.923 166.382 195.407H164.903C164.835 194.318 164.44 193.439 163.72 192.77C163.008 192.101 162.108 191.767 161.019 191.767C159.63 191.767 158.549 192.268 157.778 193.272C157.014 194.275 156.633 195.681 156.633 197.49V197.941C156.633 199.716 157.014 201.1 157.778 202.095C158.549 203.09 159.634 203.587 161.032 203.587ZM168.62 197.465C168.62 196.127 168.877 194.922 169.392 193.851C169.915 192.779 170.648 191.947 171.591 191.355C172.543 190.755 173.619 190.455 174.82 190.455C176.672 190.455 178.172 191.107 179.321 192.41C180.47 193.705 181.045 195.424 181.045 197.568V197.889C181.045 199.235 180.783 200.449 180.26 201.529C179.746 202.601 179.017 203.428 178.074 204.012C177.131 204.595 176.055 204.886 174.845 204.886C173.002 204.886 171.501 204.239 170.344 202.944C169.195 201.641 168.62 199.917 168.62 197.773V197.465ZM170.164 197.889C170.164 199.553 170.592 200.92 171.45 201.992C172.316 203.055 173.448 203.587 174.845 203.587C176.235 203.587 177.358 203.055 178.215 201.992C179.081 200.92 179.514 199.51 179.514 197.761V197.465C179.514 196.401 179.317 195.428 178.923 194.545C178.528 193.662 177.975 192.98 177.264 192.5C176.552 192.011 175.737 191.767 174.82 191.767C173.448 191.767 172.329 192.307 171.463 193.387C170.597 194.459 170.164 195.866 170.164 197.606V197.889ZM185.637 190.712L185.688 192.976C186.203 192.136 186.846 191.505 187.617 191.085C188.389 190.665 189.247 190.455 190.19 190.455C192.385 190.455 193.778 191.355 194.37 193.156C194.867 192.29 195.532 191.625 196.364 191.162C197.195 190.691 198.113 190.455 199.116 190.455C202.1 190.455 203.622 192.084 203.682 195.343V204.629H202.139V195.458C202.13 194.215 201.86 193.293 201.328 192.693C200.805 192.093 199.948 191.793 198.756 191.793C197.65 191.81 196.715 192.17 195.952 192.873C195.189 193.568 194.764 194.416 194.679 195.42V204.629H193.135V195.343C193.127 194.151 192.844 193.263 192.286 192.68C191.738 192.088 190.889 191.793 189.74 191.793C188.771 191.793 187.939 192.071 187.244 192.629C186.55 193.177 186.035 193.996 185.701 195.085V204.629H184.158V190.712H185.637ZM208.994 190.712L209.046 192.976C209.56 192.136 210.203 191.505 210.975 191.085C211.747 190.665 212.604 190.455 213.547 190.455C215.742 190.455 217.136 191.355 217.727 193.156C218.225 192.29 218.889 191.625 219.721 191.162C220.553 190.691 221.47 190.455 222.474 190.455C225.458 190.455 226.98 192.084 227.04 195.343V204.629H225.496V195.458C225.488 194.215 225.217 193.293 224.686 192.693C224.163 192.093 223.305 191.793 222.113 191.793C221.007 191.81 220.073 192.17 219.31 192.873C218.546 193.568 218.122 194.416 218.036 195.42V204.629H216.493V195.343C216.484 194.151 216.201 193.263 215.644 192.68C215.095 192.088 214.246 191.793 213.097 191.793C212.128 191.793 211.296 192.071 210.602 192.629C209.907 193.177 209.393 193.996 209.058 195.085V204.629H207.515V190.712H208.994ZM239.734 204.629C239.58 204.192 239.481 203.544 239.439 202.687C238.898 203.39 238.208 203.934 237.368 204.32C236.536 204.698 235.653 204.886 234.718 204.886C233.381 204.886 232.296 204.513 231.464 203.767C230.641 203.021 230.229 202.078 230.229 200.938C230.229 199.583 230.791 198.511 231.914 197.722C233.046 196.933 234.62 196.539 236.635 196.539H239.426V194.957C239.426 193.962 239.117 193.182 238.5 192.616C237.891 192.041 236.999 191.754 235.824 191.754C234.752 191.754 233.865 192.028 233.162 192.577C232.459 193.126 232.107 193.786 232.107 194.558L230.564 194.545C230.564 193.439 231.078 192.483 232.107 191.677C233.136 190.862 234.401 190.455 235.902 190.455C237.454 190.455 238.675 190.845 239.567 191.625C240.468 192.397 240.931 193.478 240.956 194.867V201.452C240.956 202.798 241.098 203.806 241.381 204.475V204.629H239.734ZM234.898 203.523C235.927 203.523 236.845 203.274 237.651 202.777C238.465 202.279 239.057 201.615 239.426 200.783V197.722H236.673C235.138 197.739 233.938 198.022 233.072 198.571C232.206 199.111 231.773 199.857 231.773 200.809C231.773 201.589 232.06 202.237 232.635 202.751C233.218 203.266 233.972 203.523 234.898 203.523ZM246.538 190.712L246.59 193.092C247.113 192.234 247.765 191.583 248.545 191.137C249.325 190.682 250.187 190.455 251.13 190.455C252.622 190.455 253.733 190.875 254.461 191.715C255.19 192.556 255.559 193.816 255.568 195.497V204.629H254.037V195.484C254.028 194.241 253.763 193.315 253.24 192.706C252.725 192.097 251.898 191.793 250.757 191.793C249.805 191.793 248.961 192.093 248.223 192.693C247.494 193.285 246.954 194.086 246.603 195.098V204.629H245.072V190.712H246.538ZM258.937 197.542C258.937 195.381 259.418 193.662 260.378 192.384C261.347 191.098 262.659 190.455 264.314 190.455C266.192 190.455 267.624 191.197 268.61 192.68V184.873H270.14V204.629H268.7L268.635 202.777C267.649 204.183 266.2 204.886 264.288 204.886C262.685 204.886 261.39 204.243 260.404 202.957C259.426 201.662 258.937 199.917 258.937 197.722V197.542ZM260.494 197.812C260.494 199.587 260.85 200.989 261.561 202.018C262.273 203.038 263.276 203.548 264.571 203.548C266.466 203.548 267.812 202.712 268.61 201.04V194.506C267.812 192.697 266.475 191.793 264.597 191.793C263.302 191.793 262.294 192.303 261.574 193.323C260.854 194.335 260.494 195.831 260.494 197.812Z" fill="black"/>
<defs>
<filter id="filter0_bd" x="0.0161667" y="0.0161667" width="349.968" height="249.968" filterUnits="userSpaceOnUse" color-interpolation-filters="sRGB">
<feFlood flood-opacity="0" result="BackgroundImageFix"/>
<feGaussianBlur in="BackgroundImage" stdDeviation="11.651"/>
<feComposite in2="SourceAlpha" operator="in" result="effect1_backgroundBlur"/>
<feColorMatrix in="SourceAlpha" type="matrix" values="0 0 0 0 0 0 0 0 0 0 0 0 0 0 0 0 0 0 127 0" result="hardAlpha"/>
<feMorphology radius="4.16397" operator="dilate" in="SourceAlpha" result="effect2_dropShadow"/>
<feOffset/>
<feGaussianBlur stdDeviation="10.4099"/>
<feComposite in2="hardAlpha" operator="out"/>
<feColorMatrix type="matrix" values="0 0 0 0 0 0 0 0 0 0 0 0 0 0 0 0 0 0 0.5 0"/>
<feBlend mode="normal" in2="effect1_backgroundBlur" result="effect2_dropShadow"/>
<feBlend mode="normal" in="SourceGraphic" in2="effect2_dropShadow" result="shape"/>
</filter>
<linearGradient id="paint0_linear" x1="25" y1="25" x2="355.091" y2="116.809" gradientUnits="userSpaceOnUse">
<stop stop-color="white" stop-opacity="0.9"/>
<stop offset="1" stop-color="white" stop-opacity="0.7"/>
</linearGradient>
<linearGradient id="paint1_linear" x1="132.848" y1="40.4385" x2="229.932" y2="109.068" gradientUnits="userSpaceOnUse">
<stop stop-color="#775EBF"/>
<stop offset="1" stop-color="#6576CC"/>
</linearGradient>
</defs>
</svg>
