<svg width="350" height="250" viewBox="0 0 350 250" fill="none" xmlns="http://www.w3.org/2000/svg">
<g filter="url(#filter0_bd)">
<rect x="25" y="25" width="300" height="200" rx="25.3283" fill="url(#paint0_linear)" fill-opacity="0.65" shape-rendering="crispEdges"/>
</g>
<path d="M67.7564 61.4922H66.1615V52.5145H55.4603V61.4922H53.8782V42.7651H55.4603V51.1768H66.1615V42.7651H67.7564V61.4922ZM77.5572 61.7494C76.3739 61.7494 75.3021 61.4579 74.3417 60.8748C73.3899 60.2917 72.6482 59.4814 72.1166 58.4439C71.585 57.3978 71.3191 56.2273 71.3191 54.9326V54.3795C71.3191 53.0418 71.5764 51.8371 72.0909 50.7653C72.6139 49.6934 73.3385 48.8531 74.2645 48.2443C75.1906 47.6269 76.1939 47.3182 77.2743 47.3182C78.9635 47.3182 80.3011 47.897 81.2872 49.0546C82.2819 50.2036 82.7792 51.7771 82.7792 53.775V54.6367H72.8497V54.9326C72.8497 56.5103 73.2999 57.8265 74.2002 58.8812C75.1092 59.9273 76.2496 60.4504 77.6215 60.4504C78.4447 60.4504 79.1693 60.3003 79.7952 60.0002C80.4297 59.7001 81.0042 59.2199 81.5187 58.5596L82.4834 59.2928C81.3515 60.9305 79.7095 61.7494 77.5572 61.7494ZM77.2743 48.6302C76.1167 48.6302 75.1392 49.0546 74.3417 49.9035C73.5528 50.7524 73.0727 51.8928 72.9012 53.3248H81.2486V53.1576C81.2058 51.8199 80.8242 50.731 80.1039 49.8906C79.3836 49.0503 78.4404 48.6302 77.2743 48.6302ZM87.4996 61.4922H85.9561V41.7361H87.4996V61.4922ZM102.883 54.6753C102.883 56.8447 102.402 58.5682 101.442 59.8458C100.482 61.1149 99.1954 61.7494 97.5834 61.7494C95.6798 61.7494 94.2221 61.0806 93.2103 59.743V66.8428H91.6797V47.5755H93.1074L93.1846 49.5434C94.1878 48.0599 95.6412 47.3182 97.5448 47.3182C99.2083 47.3182 100.512 47.9485 101.455 49.209C102.407 50.4694 102.883 52.2187 102.883 54.4567V54.6753ZM101.339 54.4052C101.339 52.6303 100.975 51.2283 100.246 50.1993C99.517 49.1704 98.5009 48.6559 97.1975 48.6559C96.2543 48.6559 95.444 48.8831 94.7666 49.3376C94.0892 49.792 93.5704 50.4523 93.2103 51.3183V57.9937C93.579 58.7912 94.1064 59.4 94.7923 59.8201C95.4783 60.2403 96.2886 60.4504 97.2233 60.4504C98.518 60.4504 99.5256 59.9359 100.246 58.9069C100.975 57.8694 101.339 56.3688 101.339 54.4052ZM117.121 59.2799L121.185 47.5755H122.844L116.902 63.8588L116.593 64.5791C115.83 66.2683 114.651 67.1129 113.056 67.1129C112.688 67.1129 112.293 67.0529 111.873 66.9328L111.86 65.6595L112.658 65.7367C113.412 65.7367 114.021 65.548 114.484 65.1707C114.956 64.802 115.354 64.1632 115.68 63.2543L116.362 61.3764L111.114 47.5755H112.799L117.121 59.2799ZM124.182 54.328C124.182 52.9904 124.439 51.7856 124.954 50.7138C125.477 49.642 126.21 48.8102 127.153 48.2186C128.105 47.6183 129.181 47.3182 130.382 47.3182C132.234 47.3182 133.734 47.9699 134.883 49.2733C136.032 50.568 136.607 52.2873 136.607 54.4309V54.7525C136.607 56.0987 136.345 57.312 135.822 58.3924C135.308 59.4643 134.579 60.2917 133.636 60.8748C132.692 61.4579 131.616 61.7494 130.407 61.7494C128.564 61.7494 127.063 61.102 125.906 59.8073C124.757 58.5039 124.182 56.7804 124.182 54.6367V54.328ZM125.726 54.7525C125.726 56.416 126.154 57.7836 127.012 58.8555C127.878 59.9187 129.01 60.4504 130.407 60.4504C131.796 60.4504 132.92 59.9187 133.777 58.8555C134.643 57.7836 135.076 56.3731 135.076 54.6239V54.328C135.076 53.2648 134.879 52.2916 134.485 51.4084C134.09 50.5252 133.537 49.8435 132.825 49.3633C132.114 48.8745 131.299 48.6302 130.382 48.6302C129.01 48.6302 127.891 49.1704 127.025 50.2508C126.159 51.3226 125.726 52.7289 125.726 54.4695V54.7525ZM148.749 59.7301C147.822 61.0763 146.343 61.7494 144.311 61.7494C142.828 61.7494 141.7 61.3207 140.928 60.4632C140.157 59.5972 139.762 58.3196 139.745 56.6303V47.5755H141.276V56.4374C141.276 59.087 142.348 60.4118 144.491 60.4118C146.721 60.4118 148.131 59.49 148.723 57.6464V47.5755H150.266V61.4922H148.774L148.749 59.7301ZM160.71 48.8874C160.384 48.8274 160.037 48.7974 159.668 48.7974C158.708 48.7974 157.893 49.0675 157.225 49.6077C156.564 50.1393 156.093 50.9153 155.81 51.9357V61.4922H154.279V47.5755H155.784L155.81 49.7877C156.624 48.1414 157.932 47.3182 159.733 47.3182C160.161 47.3182 160.5 47.374 160.749 47.4854L160.71 48.8874ZM174.704 60.4504C175.776 60.4504 176.672 60.1502 177.392 59.55C178.121 58.9412 178.516 58.1566 178.576 57.1963H180.055C180.012 58.0452 179.746 58.8212 179.257 59.5243C178.769 60.2188 178.117 60.7633 177.302 61.1578C176.496 61.5522 175.63 61.7494 174.704 61.7494C172.878 61.7494 171.429 61.1149 170.357 59.8458C169.293 58.5768 168.762 56.8704 168.762 54.7268V54.2637C168.762 52.8918 169.002 51.6785 169.482 50.6238C169.962 49.5691 170.648 48.7545 171.54 48.18C172.44 47.6055 173.491 47.3182 174.691 47.3182C176.218 47.3182 177.474 47.7727 178.46 48.6816C179.454 49.5905 179.986 50.7867 180.055 52.2701H178.576C178.507 51.1811 178.113 50.3022 177.392 49.6334C176.681 48.9646 175.78 48.6302 174.691 48.6302C173.302 48.6302 172.222 49.1318 171.45 50.135C170.687 51.1383 170.305 52.5445 170.305 54.3538V54.8039C170.305 56.5789 170.687 57.9637 171.45 58.9584C172.222 59.953 173.306 60.4504 174.704 60.4504ZM182.293 54.328C182.293 52.9904 182.55 51.7856 183.064 50.7138C183.587 49.642 184.321 48.8102 185.264 48.2186C186.216 47.6183 187.292 47.3182 188.492 47.3182C190.344 47.3182 191.845 47.9699 192.994 49.2733C194.143 50.568 194.717 52.2873 194.717 54.4309V54.7525C194.717 56.0987 194.456 57.312 193.933 58.3924C193.418 59.4643 192.69 60.2917 191.746 60.8748C190.803 61.4579 189.727 61.7494 188.518 61.7494C186.674 61.7494 185.174 61.102 184.016 59.8073C182.867 58.5039 182.293 56.7804 182.293 54.6367V54.328ZM183.836 54.7525C183.836 56.416 184.265 57.7836 185.122 58.8555C185.988 59.9187 187.12 60.4504 188.518 60.4504C189.907 60.4504 191.03 59.9187 191.888 58.8555C192.754 57.7836 193.187 56.3731 193.187 54.6239V54.328C193.187 53.2648 192.99 52.2916 192.595 51.4084C192.201 50.5252 191.648 49.8435 190.936 49.3633C190.224 48.8745 189.41 48.6302 188.492 48.6302C187.12 48.6302 186.001 49.1704 185.135 50.2508C184.269 51.3226 183.836 52.7289 183.836 54.4695V54.7525ZM199.309 47.5755L199.361 49.8392C199.875 48.9989 200.518 48.3686 201.29 47.9485C202.062 47.5283 202.919 47.3182 203.862 47.3182C206.057 47.3182 207.451 48.2186 208.042 50.0193C208.54 49.1532 209.204 48.4887 210.036 48.0256C210.868 47.554 211.785 47.3182 212.789 47.3182C215.773 47.3182 217.295 48.9474 217.355 52.2058V61.4922H215.811V52.3216C215.803 51.0782 215.532 50.1565 215.001 49.5562C214.478 48.956 213.62 48.6559 212.428 48.6559C211.322 48.673 210.388 49.0332 209.625 49.7363C208.861 50.4308 208.437 51.2797 208.351 52.283V61.4922H206.808V52.2058C206.799 51.0139 206.516 50.1264 205.959 49.5434C205.41 48.9517 204.561 48.6559 203.412 48.6559C202.443 48.6559 201.611 48.9346 200.917 49.4919C200.222 50.0407 199.708 50.8596 199.373 51.9486V61.4922H197.83V47.5755H199.309ZM222.667 47.5755L222.718 49.8392C223.233 48.9989 223.876 48.3686 224.647 47.9485C225.419 47.5283 226.277 47.3182 227.22 47.3182C229.415 47.3182 230.808 48.2186 231.4 50.0193C231.897 49.1532 232.562 48.4887 233.394 48.0256C234.225 47.554 235.143 47.3182 236.146 47.3182C239.13 47.3182 240.652 48.9474 240.712 52.2058V61.4922H239.169V52.3216C239.16 51.0782 238.89 50.1565 238.358 49.5562C237.835 48.956 236.978 48.6559 235.786 48.6559C234.68 48.673 233.745 49.0332 232.982 49.7363C232.219 50.4308 231.794 51.2797 231.709 52.283V61.4922H230.165V52.2058C230.157 51.0139 229.874 50.1264 229.316 49.5434C228.768 48.9517 227.919 48.6559 226.77 48.6559C225.801 48.6559 224.969 48.9346 224.274 49.4919C223.58 50.0407 223.065 50.8596 222.731 51.9486V61.4922H221.187V47.5755H222.667ZM253.574 59.7301C252.648 61.0763 251.169 61.7494 249.137 61.7494C247.653 61.7494 246.526 61.3207 245.754 60.4632C244.982 59.5972 244.588 58.3196 244.571 56.6303V47.5755H246.101V56.4374C246.101 59.087 247.173 60.4118 249.317 60.4118C251.546 60.4118 252.957 59.49 253.548 57.6464V47.5755H255.092V61.4922H253.6L253.574 59.7301ZM260.571 47.5755L260.622 49.9549C261.146 49.0975 261.797 48.4458 262.577 47.9999C263.358 47.5455 264.22 47.3182 265.163 47.3182C266.655 47.3182 267.765 47.7384 268.494 48.5787C269.223 49.419 269.592 50.6795 269.6 52.3601V61.4922H268.07V52.3473C268.061 51.104 267.795 50.1779 267.272 49.5691C266.758 48.9603 265.93 48.6559 264.79 48.6559C263.838 48.6559 262.993 48.956 262.256 49.5562C261.527 50.1479 260.987 50.9496 260.635 51.9614V61.4922H259.105V47.5755H260.571ZM275.311 61.4922H273.767V47.5755H275.311V61.4922ZM273.497 43.5497C273.497 43.2581 273.592 43.0137 273.78 42.8165C273.969 42.6107 274.226 42.5078 274.552 42.5078C274.878 42.5078 275.135 42.6107 275.324 42.8165C275.521 43.0137 275.62 43.2581 275.62 43.5497C275.62 43.8412 275.521 44.0856 275.324 44.2828C275.135 44.48 274.878 44.5786 274.552 44.5786C274.226 44.5786 273.969 44.48 273.78 44.2828C273.592 44.0856 273.497 43.8412 273.497 43.5497ZM281.896 44.0127V47.5755H284.777V48.836H281.896V58.1095C281.896 58.8812 282.033 59.4557 282.308 59.833C282.591 60.2103 283.058 60.3989 283.71 60.3989C283.967 60.3989 284.383 60.356 284.957 60.2703L285.022 61.5308C284.619 61.6765 284.07 61.7494 283.375 61.7494C282.321 61.7494 281.553 61.445 281.073 60.8362C280.593 60.2188 280.353 59.3142 280.353 58.1223V48.836H277.793V47.5755H280.353V44.0127H281.896ZM292.379 59.2799L296.443 47.5755H298.102L292.16 63.8588L291.851 64.5791C291.088 66.2683 289.909 67.1129 288.314 67.1129C287.946 67.1129 287.551 67.0529 287.131 66.9328L287.118 65.6595L287.916 65.7367C288.67 65.7367 289.279 65.548 289.742 65.1707C290.214 64.802 290.612 64.1632 290.938 63.2543L291.62 61.3764L286.372 47.5755H288.057L292.379 59.2799ZM116.105 75.0127V78.5755H118.986V79.836H116.105V89.1095C116.105 89.8812 116.242 90.4557 116.516 90.833C116.799 91.2103 117.267 91.3989 117.918 91.3989C118.176 91.3989 118.591 91.356 119.166 91.2703L119.23 92.5308C118.827 92.6765 118.278 92.7494 117.584 92.7494C116.529 92.7494 115.762 92.445 115.282 91.8362C114.801 91.2188 114.561 90.3142 114.561 89.1223V79.836H112.002V78.5755H114.561V75.0127H116.105ZM121.069 85.328C121.069 83.9904 121.327 82.7856 121.841 81.7138C122.364 80.642 123.097 79.8102 124.041 79.2186C124.992 78.6183 126.068 78.3182 127.269 78.3182C129.121 78.3182 130.622 78.9699 131.771 80.2733C132.92 81.568 133.494 83.2873 133.494 85.4309V85.7525C133.494 87.0987 133.233 88.312 132.71 89.3924C132.195 90.4643 131.466 91.2917 130.523 91.8748C129.58 92.4579 128.504 92.7494 127.295 92.7494C125.451 92.7494 123.951 92.102 122.793 90.8073C121.644 89.5039 121.069 87.7804 121.069 85.6367V85.328ZM122.613 85.7525C122.613 87.416 123.042 88.7836 123.899 89.8555C124.765 90.9187 125.897 91.4504 127.295 91.4504C128.684 91.4504 129.807 90.9187 130.665 89.8555C131.531 88.7836 131.964 87.3731 131.964 85.6239V85.328C131.964 84.2648 131.766 83.2916 131.372 82.4084C130.978 81.5252 130.424 80.8435 129.713 80.3633C129.001 79.8745 128.186 79.6302 127.269 79.6302C125.897 79.6302 124.778 80.1704 123.912 81.2508C123.046 82.3226 122.613 83.7289 122.613 85.4695V85.7525ZM145.482 75.0127V78.5755H148.363V79.836H145.482V89.1095C145.482 89.8812 145.619 90.4557 145.893 90.833C146.176 91.2103 146.643 91.3989 147.295 91.3989C147.552 91.3989 147.968 91.356 148.543 91.2703L148.607 92.5308C148.204 92.6765 147.655 92.7494 146.961 92.7494C145.906 92.7494 145.139 92.445 144.658 91.8362C144.178 91.2188 143.938 90.3142 143.938 89.1223V79.836H141.379V78.5755H143.938V75.0127H145.482ZM153.083 80.9292C153.589 80.0975 154.236 79.4544 155.025 78.9999C155.814 78.5455 156.676 78.3182 157.61 78.3182C159.102 78.3182 160.213 78.7384 160.942 79.5787C161.671 80.419 162.039 81.6795 162.048 83.3601V92.4922H160.517V83.3473C160.509 82.104 160.243 81.1779 159.72 80.5691C159.205 79.9603 158.378 79.6559 157.237 79.6559C156.286 79.6559 155.441 79.956 154.704 80.5562C153.975 81.1479 153.435 81.9496 153.083 82.9614V92.4922H151.552V72.7361H153.083V80.9292ZM172.44 79.8874C172.115 79.8274 171.767 79.7974 171.399 79.7974C170.438 79.7974 169.624 80.0675 168.955 80.6077C168.295 81.1393 167.823 81.9153 167.54 82.9357V92.4922H166.009V78.5755H167.514L167.54 80.7877C168.355 79.1414 169.662 78.3182 171.463 78.3182C171.892 78.3182 172.23 78.374 172.479 78.4854L172.44 79.8874ZM176.608 92.4922H175.064V78.5755H176.608V92.4922ZM174.794 74.5497C174.794 74.2581 174.888 74.0137 175.077 73.8165C175.266 73.6107 175.523 73.5078 175.849 73.5078C176.175 73.5078 176.432 73.6107 176.621 73.8165C176.818 74.0137 176.916 74.2581 176.916 74.5497C176.916 74.8412 176.818 75.0856 176.621 75.2828C176.432 75.48 176.175 75.5786 175.849 75.5786C175.523 75.5786 175.266 75.48 175.077 75.2828C174.888 75.0856 174.794 74.8412 174.794 74.5497ZM185.135 90.37L189.367 78.5755H190.949L185.753 92.4922H184.505L179.283 78.5755H180.865L185.135 90.37ZM198.692 92.7494C197.508 92.7494 196.437 92.4579 195.476 91.8748C194.524 91.2917 193.783 90.4814 193.251 89.4439C192.72 88.3978 192.454 87.2273 192.454 85.9326V85.3795C192.454 84.0418 192.711 82.8371 193.225 81.7653C193.748 80.6934 194.473 79.8531 195.399 79.2443C196.325 78.6269 197.328 78.3182 198.409 78.3182C200.098 78.3182 201.436 78.897 202.422 80.0546C203.416 81.2036 203.914 82.7771 203.914 84.775V85.6367H193.984V85.9326C193.984 87.5103 194.434 88.8265 195.335 89.8812C196.244 90.9273 197.384 91.4504 198.756 91.4504C199.579 91.4504 200.304 91.3003 200.93 91.0002C201.564 90.7001 202.139 90.2199 202.653 89.5596L203.618 90.2928C202.486 91.9305 200.844 92.7494 198.692 92.7494ZM198.409 79.6302C197.251 79.6302 196.274 80.0546 195.476 80.9035C194.687 81.7524 194.207 82.8928 194.036 84.3248H202.383V84.1576C202.34 82.8199 201.959 81.731 201.238 80.8906C200.518 80.0503 199.575 79.6302 198.409 79.6302ZM224.519 85.6753C224.519 87.8447 224.039 89.5682 223.078 90.8458C222.118 92.1149 220.827 92.7494 219.207 92.7494C217.269 92.7494 215.803 92.0292 214.808 90.5886L214.744 92.4922H213.303V72.7361H214.834V80.5948C215.811 79.0771 217.26 78.3182 219.181 78.3182C220.827 78.3182 222.126 78.9485 223.078 80.209C224.039 81.4609 224.519 83.2058 224.519 85.4438V85.6753ZM222.975 85.4052C222.975 83.5702 222.619 82.1554 221.908 81.1607C221.196 80.1575 220.193 79.6559 218.898 79.6559C217.912 79.6559 217.076 79.9003 216.39 80.389C215.704 80.8692 215.185 81.5766 214.834 82.5113V88.7879C215.605 90.5372 216.969 91.4118 218.924 91.4118C220.193 91.4118 221.183 90.9102 221.895 89.9069C222.615 88.9037 222.975 87.4031 222.975 85.4052ZM232.185 90.2799L236.249 78.5755H237.908L231.966 94.8588L231.657 95.5791C230.894 97.2683 229.715 98.1129 228.12 98.1129C227.751 98.1129 227.357 98.0529 226.937 97.9328L226.924 96.6595L227.721 96.7367C228.476 96.7367 229.085 96.548 229.548 96.1707C230.019 95.802 230.418 95.1632 230.744 94.2543L231.426 92.3764L226.178 78.5755H227.863L232.185 90.2799Z" fill="black"/>
<path d="M77.1527 137.955V149.664H71.677V118.152H83.7321C87.2527 118.152 90.0446 119.068 92.1079 120.901C94.1856 122.733 95.2245 125.157 95.2245 128.173C95.2245 131.26 94.2072 133.663 92.1728 135.38C90.1528 137.097 87.3176 137.955 83.6672 137.955H77.1527ZM77.1527 133.562H83.7321C85.68 133.562 87.1661 133.107 88.1905 132.198C89.215 131.275 89.7272 129.947 89.7272 128.216C89.7272 126.513 89.2077 125.157 88.1689 124.147C87.13 123.123 85.7016 122.596 83.8836 122.567H77.1527V133.562ZM111.781 131.051C111.089 130.936 110.374 130.878 109.639 130.878C107.229 130.878 105.606 131.802 104.769 133.648V149.664H99.5097V126.247H104.531L104.661 128.865C105.93 126.831 107.691 125.814 109.942 125.814C110.692 125.814 111.312 125.915 111.803 126.117L111.781 131.051ZM124.983 150.097C121.65 150.097 118.945 149.051 116.867 146.959C114.804 144.852 113.772 142.053 113.772 138.561V137.912C113.772 135.575 114.22 133.49 115.114 131.657C116.023 129.81 117.293 128.375 118.923 127.35C120.554 126.326 122.372 125.814 124.377 125.814C127.566 125.814 130.026 126.831 131.758 128.865C133.503 130.9 134.376 133.778 134.376 137.501V139.622H119.075C119.234 141.555 119.876 143.085 121.001 144.21C122.141 145.335 123.569 145.898 125.286 145.898C127.696 145.898 129.658 144.924 131.173 142.976L134.008 145.682C133.071 147.081 131.815 148.171 130.243 148.95C128.684 149.715 126.931 150.097 124.983 150.097ZM124.356 130.034C122.913 130.034 121.744 130.539 120.85 131.549C119.969 132.559 119.407 133.966 119.161 135.769H129.182V135.38C129.067 133.62 128.598 132.292 127.775 131.398C126.953 130.489 125.813 130.034 124.356 130.034ZM146.431 142.998L151.388 126.247H156.82L148.704 149.664H144.137L135.956 126.247H141.41L146.431 142.998ZM170.13 150.097C166.797 150.097 164.092 149.051 162.014 146.959C159.951 144.852 158.919 142.053 158.919 138.561V137.912C158.919 135.575 159.367 133.49 160.261 131.657C161.17 129.81 162.44 128.375 164.07 127.35C165.701 126.326 167.519 125.814 169.524 125.814C172.713 125.814 175.173 126.831 176.905 128.865C178.65 130.9 179.523 133.778 179.523 137.501V139.622H164.222C164.381 141.555 165.023 143.085 166.148 144.21C167.288 145.335 168.716 145.898 170.433 145.898C172.843 145.898 174.805 144.924 176.32 142.976L179.155 145.682C178.218 147.081 176.962 148.171 175.39 148.95C173.831 149.715 172.078 150.097 170.13 150.097ZM169.503 130.034C168.06 130.034 166.891 130.539 165.997 131.549C165.116 132.559 164.554 133.966 164.308 135.769H174.329V135.38C174.214 133.62 173.745 132.292 172.922 131.398C172.1 130.489 170.96 130.034 169.503 130.034ZM188.505 126.247L188.657 128.952C190.388 126.86 192.66 125.814 195.474 125.814C200.351 125.814 202.833 128.606 202.919 134.189V149.664H197.66V134.492C197.66 133.006 197.335 131.91 196.686 131.203C196.051 130.481 195.005 130.121 193.548 130.121C191.427 130.121 189.847 131.08 188.808 132.999V149.664H183.549V126.247H188.505ZM214.888 120.554V126.247H219.021V130.142H214.888V143.214C214.888 144.109 215.061 144.758 215.407 145.162C215.768 145.552 216.403 145.747 217.312 145.747C217.918 145.747 218.531 145.675 219.151 145.53V149.599C217.954 149.931 216.799 150.097 215.688 150.097C211.648 150.097 209.628 147.868 209.628 143.409V130.142H205.776V126.247H209.628V120.554H214.888ZM228.653 149.664H223.393V126.247H228.653V149.664ZM223.069 120.165C223.069 119.357 223.321 118.686 223.826 118.152C224.346 117.618 225.081 117.351 226.034 117.351C226.986 117.351 227.722 117.618 228.241 118.152C228.761 118.686 229.02 119.357 229.02 120.165C229.02 120.958 228.761 121.622 228.241 122.156C227.722 122.675 226.986 122.935 226.034 122.935C225.081 122.935 224.346 122.675 223.826 122.156C223.321 121.622 223.069 120.958 223.069 120.165ZM239.279 126.247L239.431 128.952C241.162 126.86 243.435 125.814 246.248 125.814C251.125 125.814 253.607 128.606 253.693 134.189V149.664H248.434V134.492C248.434 133.006 248.109 131.91 247.46 131.203C246.825 130.481 245.779 130.121 244.322 130.121C242.201 130.121 240.621 131.08 239.582 132.999V149.664H234.323V126.247H239.279ZM258.152 137.782C258.152 134.146 259.003 131.246 260.706 129.082C262.423 126.903 264.695 125.814 267.523 125.814C270.192 125.814 272.292 126.744 273.821 128.606L274.059 126.247H278.799V148.95C278.799 152.023 277.839 154.447 275.92 156.222C274.016 157.997 271.44 158.884 268.194 158.884C266.477 158.884 264.796 158.523 263.151 157.802C261.521 157.095 260.28 156.164 259.429 155.01L261.918 151.85C263.534 153.769 265.525 154.728 267.891 154.728C269.637 154.728 271.015 154.252 272.025 153.3C273.035 152.362 273.54 150.977 273.54 149.145V147.565C272.025 149.253 270.005 150.097 267.48 150.097C264.738 150.097 262.495 149.008 260.749 146.829C259.017 144.65 258.152 141.635 258.152 137.782ZM263.389 138.237C263.389 140.589 263.865 142.443 264.818 143.799C265.784 145.141 267.119 145.812 268.822 145.812C270.943 145.812 272.515 144.903 273.54 143.085V132.783C272.544 131.008 270.986 130.121 268.865 130.121C267.133 130.121 265.784 130.806 264.818 132.177C263.865 133.547 263.389 135.567 263.389 138.237ZM134.333 189.522H128.23V201.664H122.754V170.152H133.835C137.471 170.152 140.278 170.967 142.254 172.598C144.231 174.228 145.219 176.587 145.219 179.675C145.219 181.782 144.707 183.549 143.683 184.977C142.673 186.391 141.259 187.481 139.441 188.246L146.518 201.383V201.664H140.653L134.333 189.522ZM128.23 185.129H133.857C135.704 185.129 137.147 184.667 138.185 183.744C139.224 182.806 139.744 181.529 139.744 179.913C139.744 178.225 139.26 176.919 138.294 175.996C137.341 175.072 135.913 174.596 134.008 174.567H128.23V185.129ZM163.897 201.664C163.666 201.217 163.464 200.488 163.291 199.478C161.617 201.224 159.569 202.097 157.145 202.097C154.793 202.097 152.874 201.426 151.388 200.084C149.901 198.742 149.158 197.083 149.158 195.106C149.158 192.61 150.082 190.698 151.929 189.371C153.79 188.029 156.445 187.358 159.893 187.358H163.118V185.822C163.118 184.61 162.779 183.643 162.101 182.921C161.423 182.186 160.391 181.818 159.006 181.818C157.808 181.818 156.827 182.121 156.062 182.727C155.298 183.318 154.915 184.076 154.915 184.999H149.656C149.656 183.715 150.082 182.517 150.933 181.406C151.784 180.281 152.939 179.401 154.396 178.766C155.868 178.131 157.505 177.814 159.309 177.814C162.05 177.814 164.236 178.506 165.867 179.891C167.497 181.262 168.334 183.196 168.377 185.692V196.253C168.377 198.36 168.673 200.041 169.265 201.296V201.664H163.897ZM158.119 197.877C159.157 197.877 160.131 197.624 161.04 197.119C161.964 196.614 162.656 195.936 163.118 195.085V190.67H160.283C158.335 190.67 156.87 191.009 155.889 191.687C154.908 192.365 154.418 193.324 154.418 194.565C154.418 195.575 154.749 196.383 155.413 196.989C156.091 197.581 156.993 197.877 158.119 197.877ZM179.48 201.664H174.221V178.247H179.48V201.664ZM173.896 172.165C173.896 171.357 174.149 170.686 174.654 170.152C175.173 169.618 175.909 169.351 176.861 169.351C177.814 169.351 178.549 169.618 179.069 170.152C179.588 170.686 179.848 171.357 179.848 172.165C179.848 172.958 179.588 173.622 179.069 174.156C178.549 174.675 177.814 174.935 176.861 174.935C175.909 174.935 175.173 174.675 174.654 174.156C174.149 173.622 173.896 172.958 173.896 172.165ZM184.241 189.782C184.241 186.175 185.078 183.282 186.752 181.103C188.426 178.91 190.669 177.814 193.483 177.814C195.965 177.814 197.97 178.679 199.5 180.411V168.421H204.759V201.664H199.997L199.738 199.24C198.165 201.145 196.066 202.097 193.44 202.097C190.698 202.097 188.476 200.993 186.774 198.786C185.086 196.578 184.241 193.577 184.241 189.782ZM189.501 190.237C189.501 192.617 189.955 194.479 190.864 195.82C191.788 197.148 193.093 197.812 194.781 197.812C196.931 197.812 198.504 196.852 199.5 194.933V184.934C198.533 183.058 196.975 182.121 194.825 182.121C193.122 182.121 191.809 182.799 190.886 184.155C189.962 185.497 189.501 187.524 189.501 190.237ZM223.372 195.301C223.372 194.363 222.982 193.649 222.203 193.158C221.438 192.668 220.161 192.235 218.372 191.86C216.583 191.485 215.09 191.009 213.892 190.431C211.266 189.162 209.953 187.322 209.953 184.913C209.953 182.893 210.804 181.204 212.507 179.848C214.21 178.492 216.374 177.814 219 177.814C221.799 177.814 224.057 178.506 225.774 179.891C227.505 181.277 228.371 183.073 228.371 185.28H223.112C223.112 184.27 222.737 183.434 221.987 182.77C221.236 182.092 220.241 181.753 219 181.753C217.846 181.753 216.9 182.02 216.165 182.553C215.443 183.087 215.082 183.802 215.082 184.696C215.082 185.504 215.422 186.132 216.1 186.579C216.778 187.026 218.149 187.481 220.212 187.943C222.275 188.39 223.891 188.931 225.06 189.566C226.243 190.186 227.116 190.936 227.679 191.817C228.256 192.697 228.544 193.764 228.544 195.02C228.544 197.126 227.671 198.836 225.926 200.149C224.18 201.448 221.893 202.097 219.065 202.097C217.146 202.097 215.436 201.751 213.935 201.058C212.435 200.365 211.266 199.413 210.429 198.201C209.592 196.989 209.174 195.683 209.174 194.284H214.282C214.354 195.525 214.823 196.484 215.688 197.162C216.554 197.826 217.701 198.158 219.13 198.158C220.515 198.158 221.568 197.898 222.29 197.379C223.011 196.845 223.372 196.152 223.372 195.301Z" fill="#E6AB71"/>
<defs>
<filter id="filter0_bd" x="0.0161667" y="0.0161667" width="349.968" height="249.968" filterUnits="userSpaceOnUse" color-interpolation-filters="sRGB">
<feFlood flood-opacity="0" result="BackgroundImageFix"/>
<feGaussianBlur in="BackgroundImage" stdDeviation="11.651"/>
<feComposite in2="SourceAlpha" operator="in" result="effect1_backgroundBlur"/>
<feColorMatrix in="SourceAlpha" type="matrix" values="0 0 0 0 0 0 0 0 0 0 0 0 0 0 0 0 0 0 127 0" result="hardAlpha"/>
<feMorphology radius="4.16397" operator="dilate" in="SourceAlpha" result="effect2_dropShadow"/>
<feOffset/>
<feGaussianBlur stdDeviation="10.4099"/>
<feComposite in2="hardAlpha" operator="out"/>
<feColorMatrix type="matrix" values="0 0 0 0 0 0 0 0 0 0 0 0 0 0 0 0 0 0 0.5 0"/>
<feBlend mode="normal" in2="effect1_backgroundBlur" result="effect2_dropShadow"/>
<feBlend mode="normal" in="SourceGraphic" in2="effect2_dropShadow" result="shape"/>
</filter>
<linearGradient id="paint0_linear" x1="25" y1="25" x2="355.091" y2="116.809" gradientUnits="userSpaceOnUse">
<stop stop-color="white" stop-opacity="0.9"/>
<stop offset="1" stop-color="white" stop-opacity="0.7"/>
</linearGradient>
</defs>
</svg>
