<svg width="350" height="250" viewBox="0 0 350 250" fill="none" xmlns="http://www.w3.org/2000/svg">
<g filter="url(#filter0_bd)">
<rect x="25" y="25" width="300" height="200" rx="25.3283" fill="url(#paint0_linear)" fill-opacity="0.65" shape-rendering="crispEdges"/>
</g>
<mask id="mask0" style="mask-type:alpha" maskUnits="userSpaceOnUse" x="25" y="25" width="300" height="200">
<rect x="25" y="25" width="300" height="200" rx="25.3283" fill="#181818"/>
</mask>
<g mask="url(#mask0)">
<path d="M314.633 57.0008L314.644 56.987L314.653 56.9722L329.05 34.5878C331.272 31.1322 332.92 28.572 334.263 26.9507C334.935 26.1396 335.508 25.5918 336.016 25.2836C336.513 24.9821 336.918 24.9253 337.293 25.043C337.668 25.1608 337.968 25.4389 338.204 25.97C338.444 26.5131 338.602 27.2903 338.69 28.3399C338.866 30.4381 338.756 33.4805 338.606 37.5863L330.403 261.787C330.356 263.067 330.322 263.989 330.203 264.691C330.085 265.381 329.894 265.804 329.57 266.116C329.247 266.427 328.818 266.603 328.123 266.695C327.418 266.789 326.495 266.789 325.214 266.789H24.6464C23.3223 266.789 22.3674 266.789 21.6399 266.691C20.9234 266.594 20.4846 266.41 20.1589 266.085C19.8332 265.759 19.6491 265.32 19.5528 264.604C19.455 263.876 19.4541 262.921 19.4541 261.597V198.717C19.4541 197.748 19.4589 197.351 19.5837 196.986C19.7084 196.621 19.9482 196.304 20.542 195.537L37.9973 173.008C38.7657 172.017 39.3198 171.303 39.8155 170.811C40.3035 170.327 40.6979 170.097 41.1346 170.029C41.5713 169.96 42.0171 170.058 42.6299 170.369C43.2525 170.685 43.9988 171.195 45.0341 171.903L51.0029 175.988L51.0252 176.003C51.9416 176.63 52.659 177.121 53.2751 177.438C53.9057 177.763 54.4714 177.929 55.0831 177.864C55.6948 177.799 56.2133 177.519 56.7619 177.069C57.298 176.63 57.8967 175.999 58.6616 175.194L58.6799 175.175L74.4656 158.555C75.3599 157.614 75.7317 157.234 76.204 157.046C76.6763 156.858 77.2073 156.877 78.504 156.946L91.1233 157.612L91.1892 157.615C92.0058 157.658 92.501 157.685 92.9777 157.56C93.4545 157.435 93.8736 157.17 94.5648 156.732L94.6201 156.697L106.621 149.102C107.258 148.699 107.714 148.411 108.099 148.215C108.477 148.024 108.761 147.935 109.048 147.917C109.335 147.899 109.628 147.952 110.027 148.095C110.433 148.24 110.922 148.469 111.605 148.79L134.181 159.393L134.198 159.401C134.859 159.712 135.379 159.956 135.823 160.115C136.278 160.278 136.678 160.362 137.103 160.336C137.528 160.31 137.915 160.177 138.347 159.959C138.767 159.746 139.253 159.44 139.87 159.051L139.887 159.041L163.895 143.902C164.514 143.512 164.956 143.233 165.33 143.043C165.697 142.857 165.973 142.769 166.252 142.748C166.53 142.727 166.816 142.773 167.207 142.903C167.604 143.036 168.083 143.246 168.753 143.54L189.509 152.661L189.531 152.671C190.436 153.068 191.146 153.38 191.742 153.563C192.353 153.751 192.884 153.816 193.427 153.688C193.969 153.56 194.415 153.266 194.879 152.826C195.331 152.396 195.828 151.8 196.461 151.041L196.476 151.022L204.445 141.459C205.233 140.514 205.805 139.828 206.293 139.35C206.78 138.872 207.143 138.643 207.5 138.561C208.004 138.445 208.532 138.495 209.005 138.703C209.34 138.849 209.654 139.143 210.043 139.702C210.434 140.264 210.868 141.045 211.465 142.119L211.476 142.14C212.564 144.097 213.393 145.59 214.102 146.626C214.799 147.646 215.446 148.331 216.205 148.508C217.061 148.707 217.961 148.541 218.691 148.051C219.337 147.616 219.698 146.745 219.987 145.544C220.281 144.323 220.524 142.633 220.844 140.417L220.848 140.394L225.696 106.801C225.788 106.164 225.828 105.903 225.92 105.661C226.013 105.419 226.158 105.198 226.515 104.663L237.077 88.8195C238.153 87.2057 238.937 86.0318 239.636 85.2579C240.331 84.4891 240.88 84.1878 241.473 84.1938C242.066 84.1998 242.608 84.5121 243.288 85.2947C243.972 86.0826 244.731 87.272 245.775 88.9072L256.361 105.502L256.377 105.528C257.138 106.721 257.731 107.65 258.289 108.303C258.857 108.97 259.429 109.399 260.164 109.522C260.899 109.646 261.581 109.428 262.336 108.984C263.076 108.549 263.94 107.865 265.049 106.986L265.074 106.967L274.885 99.1978L274.925 99.1663C275.426 98.7695 275.73 98.529 275.967 98.2226L275.666 97.9902L275.967 98.2225C276.204 97.9162 276.36 97.5617 276.617 96.9769L276.638 96.9299L286.591 74.3239C287.228 72.8791 287.69 71.8295 288.137 71.0886C288.58 70.3516 288.969 69.9864 289.425 69.8326C289.635 69.7619 289.853 69.7204 290.074 69.7094C290.555 69.6854 291.051 69.8827 291.734 70.4059C292.42 70.9319 293.235 71.7389 294.357 72.8501L294.376 72.869C295.246 73.7312 295.923 74.4028 296.516 74.8634C297.119 75.332 297.677 75.6175 298.313 75.6538C298.567 75.6683 298.821 75.6523 299.07 75.6061C299.697 75.49 300.215 75.1366 300.754 74.5959C301.284 74.0646 301.872 73.3132 302.626 72.3487L302.643 72.3272L314.633 57.0008Z" fill="url(#paint1_linear)" fill-opacity="0.35" stroke="#424242" stroke-width="0.759849"/>
</g>
<path d="M111.994 65.9695H103.571V89.1953H98.9151V65.9695H90.5671V62.1851H111.994V65.9695ZM124.404 73.2415C123.811 73.1425 123.198 73.093 122.568 73.093C120.502 73.093 119.111 73.8846 118.394 75.4676V89.1953H113.886V69.1231H118.19L118.301 71.3678C119.389 69.624 120.898 68.7521 122.827 68.7521C123.47 68.7521 124.002 68.8387 124.423 69.0118L124.404 73.2415ZM138.688 89.1953C138.491 88.8119 138.317 88.1874 138.169 87.3217C136.734 88.8181 134.978 89.5663 132.901 89.5663C130.885 89.5663 129.24 88.9913 127.966 87.8411C126.692 86.6909 126.055 85.2687 126.055 83.5744C126.055 81.4348 126.847 79.7961 128.43 78.6583C130.025 77.5082 132.301 76.9331 135.257 76.9331H138.021V75.616C138.021 74.5771 137.73 73.7485 137.149 73.1301C136.567 72.4994 135.683 72.184 134.496 72.184C133.469 72.184 132.628 72.4438 131.973 72.9632C131.318 73.4702 130.99 74.1195 130.99 74.911H126.482C126.482 73.8104 126.847 72.7839 127.576 71.8316C128.306 70.8669 129.295 70.1125 130.545 69.5684C131.806 69.0242 133.21 68.7521 134.756 68.7521C137.105 68.7521 138.979 69.3457 140.377 70.533C141.774 71.7079 142.491 73.3651 142.528 75.5047V84.5576C142.528 86.3632 142.782 87.804 143.289 88.8799V89.1953H138.688ZM133.735 85.9489C134.626 85.9489 135.461 85.7325 136.24 85.2996C137.031 84.8667 137.625 84.2855 138.021 83.5558V79.7714H135.59C133.921 79.7714 132.666 80.062 131.825 80.6433C130.984 81.2246 130.563 82.047 130.563 83.1106C130.563 83.9763 130.848 84.6689 131.416 85.1883C131.998 85.6954 132.771 85.9489 133.735 85.9489ZM155.496 85.9674C156.621 85.9674 157.555 85.6397 158.297 84.9842C159.039 84.3288 159.435 83.5187 159.484 82.5541H163.732C163.683 83.8032 163.293 84.9719 162.564 86.0602C161.834 87.1362 160.845 87.9895 159.595 88.6202C158.346 89.251 156.998 89.5663 155.551 89.5663C152.744 89.5663 150.518 88.6573 148.873 86.8393C147.228 85.0213 146.406 82.5108 146.406 79.3076V78.8439C146.406 75.7891 147.222 73.3466 148.854 71.5162C150.487 69.6735 152.713 68.7521 155.533 68.7521C157.92 68.7521 159.861 69.4509 161.358 70.8484C162.867 72.2335 163.658 74.0577 163.732 76.3209H159.484C159.435 75.1708 159.039 74.2247 158.297 73.4826C157.567 72.7406 156.633 72.3696 155.496 72.3696C154.036 72.3696 152.911 72.9014 152.119 73.9649C151.328 75.0162 150.926 76.6177 150.914 78.7697V79.4931C150.914 81.6698 151.303 83.2961 152.082 84.3721C152.874 85.4356 154.012 85.9674 155.496 85.9674ZM173.657 80.5876L171.654 82.6468V89.1953H167.146V60.701H171.654V77.1372L173.063 75.3748L178.61 69.1231H184.027L176.57 77.4896L184.825 89.1953H179.612L173.657 80.5876ZM74.0568 127.239C74.0568 126.051 73.6363 125.136 72.7953 124.493C71.9667 123.85 70.464 123.201 68.2874 122.545C66.1107 121.89 64.3793 121.16 63.0931 120.356C60.632 118.81 59.4015 116.794 59.4015 114.309C59.4015 112.132 60.2857 110.339 62.0543 108.929C63.8352 107.519 66.1417 106.814 68.9738 106.814C70.8536 106.814 72.5294 107.16 74.0011 107.853C75.4728 108.545 76.6292 109.535 77.4701 110.821C78.3111 112.095 78.7316 113.511 78.7316 115.069H74.0568C74.0568 113.659 73.6115 112.559 72.7211 111.767C71.843 110.963 70.5815 110.561 68.9367 110.561C67.4031 110.561 66.2097 110.889 65.3563 111.545C64.5154 112.2 64.0949 113.115 64.0949 114.29C64.0949 115.279 64.5525 116.108 65.4676 116.776C66.3828 117.431 67.8916 118.074 69.9941 118.705C72.0965 119.324 73.7847 120.035 75.0585 120.839C76.3323 121.63 77.2661 122.545 77.8597 123.584C78.4533 124.611 78.7502 125.816 78.7502 127.202C78.7502 129.452 77.8844 131.246 76.153 132.581C74.434 133.905 72.0965 134.566 69.1407 134.566C67.1867 134.566 65.3873 134.208 63.7424 133.49C62.1099 132.761 60.8361 131.759 59.9209 130.485C59.0181 129.211 58.5667 127.727 58.5667 126.033H63.2601C63.2601 127.566 63.7671 128.754 64.7813 129.595C65.7954 130.436 67.2485 130.856 69.1407 130.856C70.7732 130.856 71.9976 130.528 72.8138 129.873C73.6425 129.205 74.0568 128.327 74.0568 127.239ZM88.0813 109.244V114.123H91.6246V117.462H88.0813V128.667C88.0813 129.434 88.2297 129.99 88.5265 130.337C88.8357 130.671 89.3799 130.838 90.159 130.838C90.6785 130.838 91.2041 130.776 91.7359 130.652V134.14C90.7094 134.424 89.72 134.566 88.7677 134.566C85.3048 134.566 83.5734 132.656 83.5734 128.834V117.462H80.2713V114.123H83.5734V109.244H88.0813ZM107.078 134.195C106.88 133.812 106.707 133.187 106.558 132.322C105.124 133.818 103.367 134.566 101.29 134.566C99.2738 134.566 97.6289 133.991 96.3551 132.841C95.0812 131.691 94.4443 130.269 94.4443 128.574C94.4443 126.435 95.2358 124.796 96.8188 123.658C98.4142 122.508 100.69 121.933 103.646 121.933H106.41V120.616C106.41 119.577 106.119 118.749 105.538 118.13C104.957 117.499 104.072 117.184 102.885 117.184C101.859 117.184 101.018 117.444 100.362 117.963C99.7066 118.47 99.3789 119.12 99.3789 119.911H94.871C94.871 118.81 95.2358 117.784 95.9655 116.832C96.6952 115.867 97.6846 115.113 98.9337 114.568C100.195 114.024 101.599 113.752 103.145 113.752C105.495 113.752 107.368 114.346 108.766 115.533C110.163 116.708 110.88 118.365 110.918 120.505V129.558C110.918 131.363 111.171 132.804 111.678 133.88V134.195H107.078ZM102.124 130.949C103.015 130.949 103.85 130.732 104.629 130.3C105.42 129.867 106.014 129.285 106.41 128.556V124.771H103.98C102.31 124.771 101.055 125.062 100.214 125.643C99.3727 126.225 98.9522 127.047 98.9522 128.111C98.9522 128.976 99.2367 129.669 99.8055 130.188C100.387 130.695 101.16 130.949 102.124 130.949ZM121.288 109.244V114.123H124.831V117.462H121.288V128.667C121.288 129.434 121.436 129.99 121.733 130.337C122.042 130.671 122.586 130.838 123.365 130.838C123.885 130.838 124.41 130.776 124.942 130.652V134.14C123.916 134.424 122.926 134.566 121.974 134.566C118.511 134.566 116.78 132.656 116.78 128.834V117.462H113.478V114.123H116.78V109.244H121.288ZM133.086 134.195H128.578V114.123H133.086V134.195ZM128.3 108.91C128.3 108.218 128.516 107.643 128.949 107.185C129.394 106.727 130.025 106.499 130.841 106.499C131.658 106.499 132.288 106.727 132.734 107.185C133.179 107.643 133.401 108.218 133.401 108.91C133.401 109.591 133.179 110.159 132.734 110.617C132.288 111.062 131.658 111.285 130.841 111.285C130.025 111.285 129.394 111.062 128.949 110.617C128.516 110.159 128.3 109.591 128.3 108.91ZM149.263 128.741C149.263 127.937 148.929 127.325 148.261 126.905C147.605 126.484 146.511 126.113 144.977 125.792C143.444 125.47 142.164 125.062 141.137 124.567C138.886 123.479 137.761 121.902 137.761 119.837C137.761 118.105 138.491 116.658 139.95 115.496C141.409 114.333 143.264 113.752 145.515 113.752C147.914 113.752 149.85 114.346 151.322 115.533C152.806 116.72 153.548 118.26 153.548 120.152H149.04C149.04 119.286 148.718 118.569 148.075 118C147.432 117.419 146.579 117.128 145.515 117.128C144.526 117.128 143.716 117.357 143.085 117.815C142.467 118.272 142.157 118.885 142.157 119.651C142.157 120.344 142.448 120.882 143.029 121.265C143.611 121.649 144.786 122.038 146.554 122.434C148.323 122.817 149.708 123.281 150.709 123.825C151.724 124.357 152.472 125 152.954 125.755C153.449 126.509 153.696 127.424 153.696 128.5C153.696 130.306 152.948 131.771 151.452 132.897C149.955 134.01 147.995 134.566 145.571 134.566C143.926 134.566 142.46 134.27 141.174 133.676C139.888 133.082 138.886 132.266 138.169 131.227C137.452 130.188 137.093 129.069 137.093 127.869H141.471C141.533 128.933 141.935 129.755 142.677 130.337C143.419 130.906 144.402 131.19 145.627 131.19C146.814 131.19 147.717 130.967 148.335 130.522C148.953 130.065 149.263 129.471 149.263 128.741ZM163.287 109.244V114.123H166.83V117.462H163.287V128.667C163.287 129.434 163.435 129.99 163.732 130.337C164.041 130.671 164.586 130.838 165.365 130.838C165.884 130.838 166.41 130.776 166.942 130.652V134.14C165.915 134.424 164.926 134.566 163.973 134.566C160.511 134.566 158.779 132.656 158.779 128.834V117.462H155.477V114.123H158.779V109.244H163.287ZM175.086 134.195H170.578V114.123H175.086V134.195ZM170.299 108.91C170.299 108.218 170.516 107.643 170.949 107.185C171.394 106.727 172.025 106.499 172.841 106.499C173.657 106.499 174.288 106.727 174.733 107.185C175.178 107.643 175.401 108.218 175.401 108.91C175.401 109.591 175.178 110.159 174.733 110.617C174.288 111.062 173.657 111.285 172.841 111.285C172.025 111.285 171.394 111.062 170.949 110.617C170.516 110.159 170.299 109.591 170.299 108.91ZM188.257 130.967C189.382 130.967 190.316 130.64 191.058 129.984C191.8 129.329 192.196 128.519 192.245 127.554H196.493C196.444 128.803 196.054 129.972 195.325 131.06C194.595 132.136 193.606 132.989 192.356 133.62C191.107 134.251 189.759 134.566 188.312 134.566C185.505 134.566 183.279 133.657 181.634 131.839C179.989 130.021 179.167 127.511 179.167 124.308V123.844C179.167 120.789 179.983 118.347 181.615 116.516C183.248 114.673 185.474 113.752 188.294 113.752C190.681 113.752 192.622 114.451 194.119 115.848C195.628 117.234 196.419 119.058 196.493 121.321H192.245C192.196 120.171 191.8 119.225 191.058 118.483C190.328 117.741 189.395 117.37 188.257 117.37C186.797 117.37 185.672 117.901 184.88 118.965C184.089 120.016 183.687 121.618 183.675 123.77V124.493C183.675 126.67 184.064 128.296 184.843 129.372C185.635 130.436 186.773 130.967 188.257 130.967ZM211.149 128.741C211.149 127.937 210.815 127.325 210.147 126.905C209.491 126.484 208.397 126.113 206.863 125.792C205.33 125.47 204.05 125.062 203.023 124.567C200.772 123.479 199.647 121.902 199.647 119.837C199.647 118.105 200.377 116.658 201.836 115.496C203.295 114.333 205.15 113.752 207.401 113.752C209.801 113.752 211.736 114.346 213.208 115.533C214.692 116.72 215.434 118.26 215.434 120.152H210.926C210.926 119.286 210.604 118.569 209.961 118C209.318 117.419 208.465 117.128 207.401 117.128C206.412 117.128 205.602 117.357 204.971 117.815C204.353 118.272 204.044 118.885 204.044 119.651C204.044 120.344 204.334 120.882 204.916 121.265C205.497 121.649 206.672 122.038 208.44 122.434C210.209 122.817 211.594 123.281 212.596 123.825C213.61 124.357 214.358 125 214.84 125.755C215.335 126.509 215.582 127.424 215.582 128.5C215.582 130.306 214.834 131.771 213.338 132.897C211.841 134.01 209.881 134.566 207.457 134.566C205.812 134.566 204.347 134.27 203.06 133.676C201.774 133.082 200.772 132.266 200.055 131.227C199.338 130.188 198.979 129.069 198.979 127.869H203.357C203.419 128.933 203.821 129.755 204.563 130.337C205.305 130.906 206.288 131.19 207.513 131.19C208.7 131.19 209.603 130.967 210.221 130.522C210.839 130.065 211.149 129.471 211.149 128.741Z" fill="url(#paint2_linear)"/>
<path d="M128.82 176.723C128.666 176.285 128.567 175.638 128.524 174.78C127.984 175.484 127.294 176.028 126.453 176.414C125.622 176.791 124.738 176.98 123.804 176.98C122.466 176.98 121.381 176.607 120.55 175.861C119.726 175.115 119.315 174.172 119.315 173.031C119.315 171.676 119.877 170.605 121 169.816C122.132 169.027 123.705 168.632 125.72 168.632H128.511V167.05C128.511 166.056 128.203 165.275 127.585 164.71C126.976 164.135 126.085 163.848 124.91 163.848C123.838 163.848 122.951 164.122 122.247 164.671C121.544 165.22 121.193 165.88 121.193 166.652L119.649 166.639C119.649 165.533 120.164 164.577 121.193 163.771C122.222 162.956 123.486 162.549 124.987 162.549C126.539 162.549 127.761 162.939 128.653 163.719C129.553 164.491 130.016 165.571 130.042 166.96V173.546C130.042 174.892 130.183 175.899 130.466 176.568V176.723H128.82ZM123.984 175.617C125.013 175.617 125.93 175.368 126.736 174.871C127.551 174.373 128.143 173.709 128.511 172.877V169.816H125.759C124.224 169.833 123.023 170.116 122.157 170.665C121.291 171.205 120.858 171.951 120.858 172.903C120.858 173.683 121.146 174.33 121.72 174.845C122.303 175.359 123.058 175.617 123.984 175.617ZM135.624 162.806L135.675 165.185C136.198 164.328 136.85 163.676 137.63 163.23C138.411 162.776 139.272 162.549 140.216 162.549C141.708 162.549 142.818 162.969 143.547 163.809C144.276 164.65 144.645 165.91 144.653 167.591V176.723H143.123V167.578C143.114 166.334 142.848 165.408 142.325 164.8C141.811 164.191 140.983 163.886 139.843 163.886C138.891 163.886 138.046 164.186 137.309 164.787C136.58 165.378 136.04 166.18 135.688 167.192V176.723H134.158V162.806H135.624ZM148.023 169.636C148.023 167.475 148.503 165.756 149.463 164.478C150.432 163.192 151.744 162.549 153.399 162.549C155.277 162.549 156.709 163.29 157.695 164.774V156.967H159.226V176.723H157.785L157.721 174.871C156.735 176.277 155.286 176.98 153.374 176.98C151.77 176.98 150.475 176.337 149.489 175.051C148.512 173.756 148.023 172.011 148.023 169.816V169.636ZM149.579 169.906C149.579 171.681 149.935 173.083 150.647 174.112C151.358 175.132 152.362 175.642 153.657 175.642C155.552 175.642 156.898 174.806 157.695 173.134V166.6C156.898 164.791 155.56 163.886 153.682 163.886C152.387 163.886 151.38 164.397 150.66 165.417C149.939 166.429 149.579 167.925 149.579 169.906ZM178.635 174.961C177.708 176.307 176.229 176.98 174.197 176.98C172.714 176.98 171.586 176.551 170.814 175.694C170.043 174.828 169.648 173.55 169.631 171.861V162.806H171.162V171.668C171.162 174.317 172.234 175.642 174.377 175.642C176.607 175.642 178.017 174.72 178.609 172.877V162.806H180.152V176.723H178.66L178.635 174.961ZM192.5 173.186C192.5 172.422 192.191 171.809 191.574 171.346C190.965 170.883 190.043 170.523 188.808 170.266C187.574 170 186.613 169.7 185.927 169.366C185.25 169.023 184.744 168.607 184.41 168.118C184.084 167.629 183.921 167.038 183.921 166.343C183.921 165.245 184.38 164.341 185.297 163.629C186.215 162.909 187.389 162.549 188.821 162.549C190.373 162.549 191.617 162.935 192.551 163.706C193.494 164.469 193.966 165.468 193.966 166.703H192.423C192.423 165.889 192.08 165.211 191.394 164.671C190.716 164.131 189.859 163.861 188.821 163.861C187.809 163.861 186.995 164.088 186.378 164.542C185.769 164.988 185.464 165.571 185.464 166.292C185.464 166.986 185.717 167.526 186.223 167.912C186.738 168.289 187.668 168.637 189.014 168.954C190.369 169.271 191.381 169.61 192.05 169.97C192.727 170.33 193.229 170.763 193.555 171.269C193.88 171.775 194.043 172.388 194.043 173.108C194.043 174.283 193.567 175.222 192.616 175.925C191.672 176.628 190.438 176.98 188.911 176.98C187.291 176.98 185.974 176.59 184.963 175.809C183.959 175.021 183.458 174.026 183.458 172.825H185.001C185.061 173.726 185.439 174.429 186.133 174.935C186.836 175.432 187.762 175.681 188.911 175.681C189.983 175.681 190.849 175.445 191.509 174.973C192.17 174.502 192.5 173.906 192.5 173.186ZM202.905 176.98C201.722 176.98 200.65 176.688 199.69 176.105C198.738 175.522 197.996 174.712 197.465 173.674C196.933 172.628 196.667 171.458 196.667 170.163V169.61C196.667 168.272 196.924 167.068 197.439 165.996C197.962 164.924 198.686 164.084 199.613 163.475C200.539 162.857 201.542 162.549 202.622 162.549C204.311 162.549 205.649 163.127 206.635 164.285C207.63 165.434 208.127 167.008 208.127 169.005V169.867H198.198V170.163C198.198 171.741 198.648 173.057 199.548 174.112C200.457 175.158 201.598 175.681 202.97 175.681C203.793 175.681 204.517 175.531 205.143 175.231C205.778 174.931 206.352 174.45 206.867 173.79L207.831 174.523C206.7 176.161 205.057 176.98 202.905 176.98ZM202.622 163.861C201.465 163.861 200.487 164.285 199.69 165.134C198.901 165.983 198.421 167.123 198.249 168.555H206.597V168.388C206.554 167.05 206.172 165.961 205.452 165.121C204.732 164.281 203.788 163.861 202.622 163.861ZM219.922 159.243V162.806H222.803V164.066H219.922V173.34C219.922 174.112 220.059 174.686 220.333 175.063C220.616 175.441 221.084 175.629 221.735 175.629C221.992 175.629 222.408 175.587 222.983 175.501L223.047 176.761C222.644 176.907 222.095 176.98 221.401 176.98C220.346 176.98 219.579 176.675 219.099 176.067C218.618 175.449 218.378 174.545 218.378 173.353V164.066H215.819V162.806H218.378V159.243H219.922ZM227.523 165.16C228.029 164.328 228.676 163.685 229.465 163.23C230.254 162.776 231.116 162.549 232.051 162.549C233.543 162.549 234.653 162.969 235.382 163.809C236.111 164.65 236.479 165.91 236.488 167.591V176.723H234.957V167.578C234.949 166.334 234.683 165.408 234.16 164.8C233.645 164.191 232.818 163.886 231.678 163.886C230.726 163.886 229.881 164.186 229.144 164.787C228.415 165.378 227.875 166.18 227.523 167.192V176.723H225.993V156.967H227.523V165.16ZM245.839 176.98C244.655 176.98 243.584 176.688 242.623 176.105C241.671 175.522 240.93 174.712 240.398 173.674C239.866 172.628 239.601 171.458 239.601 170.163V169.61C239.601 168.272 239.858 167.068 240.372 165.996C240.895 164.924 241.62 164.084 242.546 163.475C243.472 162.857 244.475 162.549 245.556 162.549C247.245 162.549 248.583 163.127 249.569 164.285C250.563 165.434 251.061 167.008 251.061 169.005V169.867H241.131V170.163C241.131 171.741 241.581 173.057 242.482 174.112C243.391 175.158 244.531 175.681 245.903 175.681C246.726 175.681 247.451 175.531 248.077 175.231C248.711 174.931 249.286 174.45 249.8 173.79L250.765 174.523C249.633 176.161 247.991 176.98 245.839 176.98ZM245.556 163.861C244.398 163.861 243.421 164.285 242.623 165.134C241.834 165.983 241.354 167.123 241.183 168.555H249.53V168.388C249.487 167.05 249.106 165.961 248.385 165.121C247.665 164.281 246.722 163.861 245.556 163.861ZM255.459 162.806L255.511 165.07C256.025 164.229 256.668 163.599 257.44 163.179C258.212 162.759 259.069 162.549 260.013 162.549C262.208 162.549 263.601 163.449 264.193 165.25C264.69 164.384 265.355 163.719 266.186 163.256C267.018 162.785 267.936 162.549 268.939 162.549C271.923 162.549 273.445 164.178 273.505 167.436V176.723H271.961V167.552C271.953 166.309 271.683 165.387 271.151 164.787C270.628 164.186 269.771 163.886 268.579 163.886C267.473 163.904 266.538 164.264 265.775 164.967C265.012 165.661 264.587 166.51 264.501 167.513V176.723H262.958V167.436C262.949 166.244 262.666 165.357 262.109 164.774C261.56 164.182 260.711 163.886 259.562 163.886C258.594 163.886 257.762 164.165 257.067 164.722C256.373 165.271 255.858 166.09 255.524 167.179V176.723H253.98V162.806H255.459ZM286.213 159.243V162.806H289.094V164.066H286.213V173.34C286.213 174.112 286.35 174.686 286.624 175.063C286.907 175.441 287.374 175.629 288.026 175.629C288.283 175.629 288.699 175.587 289.274 175.501L289.338 176.761C288.935 176.907 288.386 176.98 287.692 176.98C286.637 176.98 285.87 176.675 285.389 176.067C284.909 175.449 284.669 174.545 284.669 173.353V164.066H282.11V162.806H284.669V159.243H286.213ZM291.177 169.559C291.177 168.221 291.435 167.016 291.949 165.944C292.472 164.872 293.205 164.041 294.148 163.449C295.1 162.849 296.176 162.549 297.377 162.549C299.229 162.549 300.729 163.2 301.879 164.504C303.028 165.799 303.602 167.518 303.602 169.661V169.983C303.602 171.329 303.34 172.542 302.817 173.623C302.303 174.695 301.574 175.522 300.631 176.105C299.688 176.688 298.612 176.98 297.403 176.98C295.559 176.98 294.058 176.333 292.901 175.038C291.752 173.734 291.177 172.011 291.177 169.867V169.559ZM292.721 169.983C292.721 171.646 293.149 173.014 294.007 174.086C294.873 175.149 296.005 175.681 297.403 175.681C298.792 175.681 299.915 175.149 300.772 174.086C301.638 173.014 302.071 171.604 302.071 169.854V169.559C302.071 168.495 301.874 167.522 301.48 166.639C301.085 165.756 300.532 165.074 299.821 164.594C299.109 164.105 298.294 163.861 297.377 163.861C296.005 163.861 294.886 164.401 294.02 165.481C293.154 166.553 292.721 167.959 292.721 169.7V169.983ZM113.514 200.636C113.514 198.458 113.994 196.734 114.955 195.465C115.924 194.188 117.236 193.549 118.89 193.549C120.785 193.549 122.226 194.303 123.212 195.812L123.289 193.806H124.73V207.44C124.73 209.232 124.228 210.651 123.225 211.697C122.222 212.743 120.863 213.266 119.148 213.266C118.179 213.266 117.253 213.048 116.369 212.61C115.495 212.181 114.805 211.607 114.299 210.887L115.16 209.961C116.249 211.298 117.544 211.967 119.045 211.967C120.331 211.967 121.334 211.586 122.055 210.822C122.775 210.068 123.148 209.017 123.174 207.671V205.922C122.187 207.294 120.751 207.98 118.865 207.98C117.253 207.98 115.958 207.337 114.98 206.051C114.003 204.764 113.514 203.028 113.514 200.841V200.636ZM115.07 200.906C115.07 202.681 115.426 204.083 116.138 205.112C116.85 206.132 117.853 206.642 119.148 206.642C121.043 206.642 122.385 205.793 123.174 204.096V197.626C122.813 196.734 122.295 196.057 121.617 195.594C120.94 195.122 120.125 194.886 119.173 194.886C117.879 194.886 116.871 195.397 116.151 196.417C115.431 197.429 115.07 198.925 115.07 200.906ZM135.174 195.118C134.848 195.058 134.501 195.028 134.132 195.028C133.172 195.028 132.357 195.298 131.688 195.838C131.028 196.37 130.556 197.146 130.273 198.166V207.723H128.743V193.806H130.248L130.273 196.018C131.088 194.372 132.396 193.549 134.196 193.549C134.625 193.549 134.964 193.604 135.212 193.716L135.174 195.118ZM136.511 200.559C136.511 199.221 136.769 198.016 137.283 196.944C137.806 195.872 138.539 195.041 139.483 194.449C140.434 193.849 141.51 193.549 142.711 193.549C144.563 193.549 146.064 194.2 147.213 195.504C148.362 196.799 148.936 198.518 148.936 200.661V200.983C148.936 202.329 148.675 203.542 148.152 204.623C147.637 205.695 146.908 206.522 145.965 207.105C145.022 207.688 143.946 207.98 142.737 207.98C140.893 207.98 139.393 207.333 138.235 206.038C137.086 204.734 136.511 203.011 136.511 200.867V200.559ZM138.055 200.983C138.055 202.646 138.484 204.014 139.341 205.086C140.207 206.149 141.339 206.681 142.737 206.681C144.126 206.681 145.249 206.149 146.106 205.086C146.973 204.014 147.406 202.604 147.406 200.854V200.559C147.406 199.495 147.208 198.522 146.814 197.639C146.419 196.756 145.866 196.074 145.155 195.594C144.443 195.105 143.628 194.861 142.711 194.861C141.339 194.861 140.22 195.401 139.354 196.481C138.488 197.553 138.055 198.959 138.055 200.7V200.983ZM155.457 204.52L155.689 205.716L155.997 204.456L159.342 193.806H160.653L163.959 204.366L164.319 205.832L164.615 204.481L167.47 193.806H169.065L165.014 207.723H163.702L160.126 196.687L159.959 195.928L159.792 196.7L156.28 207.723H154.968L150.93 193.806H152.512L155.457 204.52ZM182.802 205.51L186.866 193.806H188.525L182.583 210.089L182.275 210.81C181.511 212.499 180.332 213.343 178.737 213.343C178.369 213.343 177.974 213.283 177.554 213.163L177.541 211.89L178.339 211.967C179.093 211.967 179.702 211.778 180.165 211.401C180.637 211.032 181.035 210.394 181.361 209.485L182.043 207.607L176.795 193.806H178.48L182.802 205.51ZM189.863 200.559C189.863 199.221 190.12 198.016 190.635 196.944C191.158 195.872 191.891 195.041 192.834 194.449C193.786 193.849 194.862 193.549 196.063 193.549C197.915 193.549 199.415 194.2 200.564 195.504C201.713 196.799 202.288 198.518 202.288 200.661V200.983C202.288 202.329 202.026 203.542 201.503 204.623C200.989 205.695 200.26 206.522 199.317 207.105C198.373 207.688 197.297 207.98 196.088 207.98C194.245 207.98 192.744 207.333 191.587 206.038C190.438 204.734 189.863 203.011 189.863 200.867V200.559ZM191.407 200.983C191.407 202.646 191.835 204.014 192.693 205.086C193.559 206.149 194.691 206.681 196.088 206.681C197.477 206.681 198.601 206.149 199.458 205.086C200.324 204.014 200.757 202.604 200.757 200.854V200.559C200.757 199.495 200.56 198.522 200.166 197.639C199.771 196.756 199.218 196.074 198.506 195.594C197.795 195.105 196.98 194.861 196.063 194.861C194.691 194.861 193.572 195.401 192.706 196.481C191.84 197.553 191.407 198.959 191.407 200.7V200.983ZM214.43 205.961C213.504 207.307 212.024 207.98 209.992 207.98C208.509 207.98 207.381 207.551 206.609 206.694C205.838 205.828 205.443 204.55 205.426 202.861V193.806H206.957V202.668C206.957 205.317 208.029 206.642 210.172 206.642C212.402 206.642 213.812 205.72 214.404 203.877V193.806H215.947V207.723H214.455L214.43 205.961ZM226.391 195.118C226.065 195.058 225.718 195.028 225.349 195.028C224.389 195.028 223.574 195.298 222.906 195.838C222.245 196.37 221.774 197.146 221.491 198.166V207.723H219.96V193.806H221.465L221.491 196.018C222.305 194.372 223.613 193.549 225.414 193.549C225.842 193.549 226.181 193.604 226.43 193.716L226.391 195.118ZM243.575 204.186C243.575 203.422 243.266 202.809 242.649 202.346C242.04 201.883 241.118 201.523 239.884 201.266C238.649 201 237.688 200.7 237.002 200.366C236.325 200.023 235.819 199.607 235.485 199.118C235.159 198.629 234.996 198.038 234.996 197.343C234.996 196.245 235.455 195.341 236.372 194.629C237.29 193.909 238.464 193.549 239.896 193.549C241.448 193.549 242.692 193.935 243.626 194.706C244.57 195.469 245.041 196.468 245.041 197.703H243.498C243.498 196.889 243.155 196.211 242.469 195.671C241.791 195.131 240.934 194.861 239.896 194.861C238.885 194.861 238.07 195.088 237.453 195.542C236.844 195.988 236.539 196.571 236.539 197.292C236.539 197.986 236.792 198.526 237.298 198.912C237.813 199.289 238.743 199.637 240.089 199.954C241.444 200.271 242.456 200.61 243.125 200.97C243.802 201.33 244.304 201.763 244.63 202.269C244.955 202.775 245.118 203.388 245.118 204.108C245.118 205.283 244.642 206.222 243.691 206.925C242.747 207.628 241.513 207.98 239.986 207.98C238.366 207.98 237.05 207.59 236.038 206.809C235.035 206.021 234.533 205.026 234.533 203.825H236.076C236.136 204.726 236.514 205.429 237.208 205.935C237.911 206.432 238.837 206.681 239.986 206.681C241.058 206.681 241.924 206.445 242.585 205.973C243.245 205.502 243.575 204.906 243.575 204.186ZM253.98 207.98C252.797 207.98 251.725 207.688 250.765 207.105C249.813 206.522 249.071 205.712 248.54 204.674C248.008 203.628 247.742 202.458 247.742 201.163V200.61C247.742 199.272 247.999 198.068 248.514 196.996C249.037 195.924 249.762 195.084 250.688 194.475C251.614 193.857 252.617 193.549 253.697 193.549C255.387 193.549 256.724 194.127 257.71 195.285C258.705 196.434 259.202 198.008 259.202 200.005V200.867H249.273V201.163C249.273 202.741 249.723 204.057 250.623 205.112C251.532 206.158 252.673 206.681 254.045 206.681C254.868 206.681 255.592 206.531 256.218 206.231C256.853 205.931 257.427 205.45 257.942 204.79L258.906 205.523C257.775 207.161 256.133 207.98 253.98 207.98ZM253.697 194.861C252.54 194.861 251.562 195.285 250.765 196.134C249.976 196.983 249.496 198.123 249.324 199.555H257.672V199.388C257.629 198.05 257.247 196.961 256.527 196.121C255.807 195.281 254.864 194.861 253.697 194.861ZM268.63 195.118C268.304 195.058 267.957 195.028 267.588 195.028C266.628 195.028 265.813 195.298 265.145 195.838C264.484 196.37 264.013 197.146 263.73 198.166V207.723H262.199V193.806H263.704L263.73 196.018C264.544 194.372 265.852 193.549 267.653 193.549C268.081 193.549 268.42 193.604 268.669 193.716L268.63 195.118ZM275.64 205.6L279.872 193.806H281.454L276.257 207.723H275.01L269.788 193.806H271.37L275.64 205.6ZM289.197 207.98C288.013 207.98 286.941 207.688 285.981 207.105C285.029 206.522 284.288 205.712 283.756 204.674C283.224 203.628 282.958 202.458 282.958 201.163V200.61C282.958 199.272 283.216 198.068 283.73 196.996C284.253 195.924 284.978 195.084 285.904 194.475C286.83 193.857 287.833 193.549 288.914 193.549C290.603 193.549 291.94 194.127 292.927 195.285C293.921 196.434 294.419 198.008 294.419 200.005V200.867H284.489V201.163C284.489 202.741 284.939 204.057 285.84 205.112C286.748 206.158 287.889 206.681 289.261 206.681C290.084 206.681 290.809 206.531 291.435 206.231C292.069 205.931 292.644 205.45 293.158 204.79L294.123 205.523C292.991 207.161 291.349 207.98 289.197 207.98ZM288.914 194.861C287.756 194.861 286.778 195.285 285.981 196.134C285.192 196.983 284.712 198.123 284.54 199.555H292.888V199.388C292.845 198.05 292.463 196.961 291.743 196.121C291.023 195.281 290.08 194.861 288.914 194.861ZM303.846 195.118C303.521 195.058 303.173 195.028 302.805 195.028C301.844 195.028 301.03 195.298 300.361 195.838C299.701 196.37 299.229 197.146 298.946 198.166V207.723H297.415V193.806H298.92L298.946 196.018C299.761 194.372 301.068 193.549 302.869 193.549C303.298 193.549 303.636 193.604 303.885 193.716L303.846 195.118Z" fill="black"/>
<defs>
<filter id="filter0_bd" x="0.0161667" y="0.0161667" width="349.967" height="249.968" filterUnits="userSpaceOnUse" color-interpolation-filters="sRGB">
<feFlood flood-opacity="0" result="BackgroundImageFix"/>
<feGaussianBlur in="BackgroundImage" stdDeviation="11.651"/>
<feComposite in2="SourceAlpha" operator="in" result="effect1_backgroundBlur"/>
<feColorMatrix in="SourceAlpha" type="matrix" values="0 0 0 0 0 0 0 0 0 0 0 0 0 0 0 0 0 0 127 0" result="hardAlpha"/>
<feMorphology radius="4.16397" operator="dilate" in="SourceAlpha" result="effect2_dropShadow"/>
<feOffset/>
<feGaussianBlur stdDeviation="10.4099"/>
<feComposite in2="hardAlpha" operator="out"/>
<feColorMatrix type="matrix" values="0 0 0 0 0 0 0 0 0 0 0 0 0 0 0 0 0 0 0.5 0"/>
<feBlend mode="normal" in2="effect1_backgroundBlur" result="effect2_dropShadow"/>
<feBlend mode="normal" in="SourceGraphic" in2="effect2_dropShadow" result="shape"/>
</filter>
<linearGradient id="paint0_linear" x1="25" y1="25" x2="355.091" y2="116.809" gradientUnits="userSpaceOnUse">
<stop stop-color="white" stop-opacity="0.9"/>
<stop offset="1" stop-color="white" stop-opacity="0.7"/>
</linearGradient>
<linearGradient id="paint1_linear" x1="174.831" y1="105.76" x2="174.905" y2="207.102" gradientUnits="userSpaceOnUse">
<stop stop-color="#8D58B3"/>
<stop offset="1" stop-color="#775EBF" stop-opacity="0.25"/>
</linearGradient>
<linearGradient id="paint2_linear" x1="107.11" y1="54.1953" x2="185.525" y2="98.9423" gradientUnits="userSpaceOnUse">
<stop stop-color="#8D58B3"/>
<stop offset="1" stop-color="#775EBF"/>
</linearGradient>
</defs>
</svg>
