<svg width="250" height="250" viewBox="0 0 250 250" fill="none" xmlns="http://www.w3.org/2000/svg">
<g filter="url(#filter0_bd)">
<rect x="25" y="25" width="200" height="200" rx="25.3283" fill="url(#paint0_linear)" fill-opacity="0.65" shape-rendering="crispEdges"/>
</g>
<path d="M107.194 206.786L108.648 206.786L107.194 206.786C107.194 208.775 108.821 210.388 110.828 210.388L110.828 208.947L110.828 210.388L121.994 210.388C122.958 210.388 123.882 210.008 124.564 209.333L147.918 186.187C149.337 184.781 149.337 182.5 147.918 181.094L136.752 170.028C135.333 168.622 133.032 168.622 131.613 170.028L108.258 193.174C107.577 193.849 107.194 194.765 107.194 195.72L107.194 206.786ZM116.401 201.15C114.954 199.716 114.954 197.391 116.401 195.957C117.848 194.523 120.194 194.523 121.641 195.957C123.088 197.391 123.088 199.716 121.641 201.15C120.194 202.584 117.848 202.584 116.401 201.15Z" stroke="url(#paint1_linear)" stroke-width="2.89423"/>
<path d="M33.9368 147.908V135.252H31.6345V133.991H33.9368V132.307C33.9368 130.883 34.297 129.79 35.0172 129.027C35.7461 128.264 36.7579 127.882 38.0527 127.882C38.6357 127.882 39.1802 127.955 39.6861 128.101L39.5704 129.387C39.1416 129.284 38.6743 129.233 38.1684 129.233C37.3195 129.233 36.6593 129.498 36.1877 130.03C35.7161 130.553 35.4803 131.299 35.4803 132.268V133.991H38.7987V135.252H35.4803V147.908H33.9368ZM40.7022 140.744C40.7022 139.406 40.9595 138.202 41.474 137.13C41.997 136.058 42.7302 135.226 43.6734 134.635C44.6252 134.034 45.7013 133.734 46.9017 133.734C48.7539 133.734 50.2544 134.386 51.4034 135.689C52.5525 136.984 53.127 138.703 53.127 140.847V141.169C53.127 142.515 52.8654 143.728 52.3424 144.808C51.8279 145.88 51.099 146.708 50.1558 147.291C49.2126 147.874 48.1365 148.165 46.9275 148.165C45.0839 148.165 43.5833 147.518 42.4258 146.223C41.2767 144.92 40.7022 143.196 40.7022 141.053V140.744ZM42.2457 141.169C42.2457 142.832 42.6744 144.2 43.5319 145.271C44.3979 146.335 45.5298 146.866 46.9275 146.866C48.3166 146.866 49.4398 146.335 50.2973 145.271C51.1634 144.2 51.5964 142.789 51.5964 141.04V140.744C51.5964 139.681 51.3992 138.708 51.0047 137.824C50.6103 136.941 50.0572 136.259 49.3455 135.779C48.6338 135.291 47.8192 135.046 46.9017 135.046C45.5298 135.046 44.4108 135.586 43.5447 136.667C42.6787 137.739 42.2457 139.145 42.2457 140.886V141.169ZM62.7478 135.303C62.4219 135.243 62.0746 135.213 61.7059 135.213C60.7456 135.213 59.931 135.483 59.2621 136.024C58.6019 136.555 58.1303 137.331 57.8473 138.352V147.908H56.3167V133.991H57.8216L57.8473 136.204C58.6619 134.557 59.9696 133.734 61.7702 133.734C62.199 133.734 62.5377 133.79 62.7863 133.901L62.7478 135.303ZM70.9794 140.821C70.9794 138.643 71.4596 136.92 72.42 135.651C73.3889 134.373 74.7094 133.734 76.3815 133.734C78.2594 133.734 79.687 134.45 80.6646 135.882L80.7417 133.991H82.1823V153.259H80.6388V146.185C79.627 147.505 78.1993 148.165 76.3558 148.165C74.7266 148.165 73.4232 147.522 72.4457 146.236C71.4682 144.95 70.9794 143.214 70.9794 141.027V140.821ZM72.5358 141.091C72.5358 142.892 72.8959 144.307 73.6162 145.336C74.345 146.356 75.3525 146.866 76.6387 146.866C78.4823 146.866 79.8157 146.065 80.6388 144.461V137.644C80.253 136.813 79.7171 136.174 79.0311 135.728C78.3537 135.273 77.5648 135.046 76.6645 135.046C75.3697 135.046 74.3579 135.561 73.629 136.59C72.9002 137.61 72.5358 139.111 72.5358 141.091ZM95.2372 146.146C94.3112 147.492 92.832 148.165 90.7998 148.165C89.3164 148.165 88.1888 147.737 87.4171 146.879C86.6454 146.013 86.251 144.736 86.2338 143.046V133.991H87.7644V142.853C87.7644 145.503 88.8362 146.828 90.9799 146.828C93.2093 146.828 94.6199 145.906 95.2115 144.062V133.991H96.755V147.908H95.263L95.2372 146.146ZM102.491 147.908H100.948V133.991H102.491V147.908ZM100.678 129.966C100.678 129.674 100.772 129.43 100.961 129.233C101.149 129.027 101.407 128.924 101.733 128.924C102.058 128.924 102.316 129.027 102.504 129.233C102.701 129.43 102.8 129.674 102.8 129.966C102.8 130.257 102.701 130.502 102.504 130.699C102.316 130.896 102.058 130.995 101.733 130.995C101.407 130.995 101.149 130.896 100.961 130.699C100.772 130.502 100.678 130.257 100.678 129.966ZM111.829 146.866C112.901 146.866 113.797 146.566 114.517 145.966C115.246 145.357 115.641 144.573 115.701 143.612H117.18C117.137 144.461 116.871 145.237 116.382 145.94C115.894 146.635 115.242 147.179 114.427 147.574C113.621 147.968 112.755 148.165 111.829 148.165C110.003 148.165 108.554 147.531 107.482 146.262C106.419 144.993 105.887 143.286 105.887 141.143V140.68C105.887 139.308 106.127 138.094 106.607 137.04C107.087 135.985 107.773 135.171 108.665 134.596C109.566 134.022 110.616 133.734 111.816 133.734C113.343 133.734 114.599 134.189 115.585 135.098C116.58 136.007 117.111 137.203 117.18 138.686H115.701C115.632 137.597 115.238 136.718 114.517 136.049C113.806 135.381 112.905 135.046 111.816 135.046C110.427 135.046 109.347 135.548 108.575 136.551C107.812 137.554 107.43 138.961 107.43 140.77V141.22C107.43 142.995 107.812 144.38 108.575 145.374C109.347 146.369 110.432 146.866 111.829 146.866ZM123.572 140.898L121.81 142.596V147.908H120.267V128.152H121.81V140.796L123.264 139.226L128.588 133.991H130.531L124.627 139.857L131.045 147.908H129.206L123.572 140.898ZM148.37 147.908C148.216 147.471 148.117 146.824 148.074 145.966C147.534 146.669 146.844 147.214 146.004 147.6C145.172 147.977 144.289 148.165 143.354 148.165C142.016 148.165 140.932 147.792 140.1 147.046C139.277 146.3 138.865 145.357 138.865 144.217C138.865 142.862 139.427 141.79 140.55 141.001C141.682 140.212 143.255 139.818 145.271 139.818H148.062V138.236C148.062 137.241 147.753 136.461 147.136 135.895C146.527 135.321 145.635 135.033 144.46 135.033C143.388 135.033 142.501 135.308 141.798 135.856C141.095 136.405 140.743 137.066 140.743 137.837L139.2 137.824C139.2 136.718 139.714 135.762 140.743 134.956C141.772 134.142 143.037 133.734 144.537 133.734C146.089 133.734 147.311 134.124 148.203 134.905C149.103 135.676 149.566 136.757 149.592 138.146V144.731C149.592 146.078 149.734 147.085 150.017 147.754V147.908H148.37ZM143.534 146.802C144.563 146.802 145.481 146.553 146.287 146.056C147.101 145.559 147.693 144.894 148.062 144.062V141.001H145.309C143.774 141.018 142.574 141.301 141.708 141.85C140.842 142.39 140.409 143.136 140.409 144.088C140.409 144.868 140.696 145.516 141.27 146.03C141.854 146.545 142.608 146.802 143.534 146.802ZM158.853 146.866C159.925 146.866 160.821 146.566 161.541 145.966C162.27 145.357 162.664 144.573 162.724 143.612H164.203C164.161 144.461 163.895 145.237 163.406 145.94C162.917 146.635 162.266 147.179 161.451 147.574C160.645 147.968 159.779 148.165 158.853 148.165C157.026 148.165 155.577 147.531 154.505 146.262C153.442 144.993 152.911 143.286 152.911 141.143V140.68C152.911 139.308 153.151 138.094 153.631 137.04C154.111 135.985 154.797 135.171 155.689 134.596C156.589 134.022 157.639 133.734 158.84 133.734C160.366 133.734 161.622 134.189 162.609 135.098C163.603 136.007 164.135 137.203 164.203 138.686H162.724C162.656 137.597 162.261 136.718 161.541 136.049C160.829 135.381 159.929 135.046 158.84 135.046C157.451 135.046 156.37 135.548 155.599 136.551C154.836 137.554 154.454 138.961 154.454 140.77V141.22C154.454 142.995 154.836 144.38 155.599 145.374C156.37 146.369 157.455 146.866 158.853 146.866ZM172.435 146.866C173.507 146.866 174.403 146.566 175.123 145.966C175.852 145.357 176.247 144.573 176.307 143.612H177.786C177.743 144.461 177.477 145.237 176.988 145.94C176.5 146.635 175.848 147.179 175.033 147.574C174.227 147.968 173.361 148.165 172.435 148.165C170.609 148.165 169.16 147.531 168.088 146.262C167.024 144.993 166.493 143.286 166.493 141.143V140.68C166.493 139.308 166.733 138.094 167.213 137.04C167.693 135.985 168.379 135.171 169.271 134.596C170.171 134.022 171.222 133.734 172.422 133.734C173.949 133.734 175.205 134.189 176.191 135.098C177.185 136.007 177.717 137.203 177.786 138.686H176.307C176.238 137.597 175.844 136.718 175.123 136.049C174.412 135.381 173.511 135.046 172.422 135.046C171.033 135.046 169.953 135.548 169.181 136.551C168.418 137.554 168.036 138.961 168.036 140.77V141.22C168.036 142.995 168.418 144.38 169.181 145.374C169.953 146.369 171.037 146.866 172.435 146.866ZM186.262 148.165C185.078 148.165 184.007 147.874 183.046 147.291C182.095 146.708 181.353 145.897 180.821 144.86C180.29 143.814 180.024 142.643 180.024 141.349V140.796C180.024 139.458 180.281 138.253 180.795 137.181C181.318 136.109 182.043 135.269 182.969 134.66C183.895 134.043 184.898 133.734 185.979 133.734C187.668 133.734 189.006 134.313 189.992 135.471C190.986 136.62 191.484 138.193 191.484 140.191V141.053H181.554V141.349C181.554 142.926 182.004 144.243 182.905 145.297C183.814 146.343 184.954 146.866 186.326 146.866C187.149 146.866 187.874 146.716 188.5 146.416C189.134 146.116 189.709 145.636 190.223 144.976L191.188 145.709C190.056 147.347 188.414 148.165 186.262 148.165ZM185.979 135.046C184.821 135.046 183.844 135.471 183.046 136.32C182.257 137.168 181.777 138.309 181.606 139.741H189.953V139.574C189.91 138.236 189.529 137.147 188.808 136.307C188.088 135.466 187.145 135.046 185.979 135.046ZM202.815 144.371C202.815 143.608 202.507 142.995 201.889 142.532C201.28 142.069 200.359 141.709 199.124 141.451C197.889 141.186 196.929 140.886 196.243 140.551C195.565 140.208 195.059 139.792 194.725 139.304C194.399 138.815 194.236 138.223 194.236 137.529C194.236 136.431 194.695 135.526 195.612 134.815C196.53 134.094 197.705 133.734 199.137 133.734C200.689 133.734 201.932 134.12 202.867 134.892C203.81 135.655 204.281 136.654 204.281 137.889H202.738C202.738 137.074 202.395 136.397 201.709 135.856C201.032 135.316 200.174 135.046 199.137 135.046C198.125 135.046 197.31 135.273 196.693 135.728C196.084 136.174 195.78 136.757 195.78 137.477C195.78 138.172 196.033 138.712 196.539 139.098C197.053 139.475 197.983 139.822 199.33 140.14C200.684 140.457 201.696 140.796 202.365 141.156C203.042 141.516 203.544 141.949 203.87 142.455C204.196 142.961 204.359 143.574 204.359 144.294C204.359 145.469 203.883 146.408 202.931 147.111C201.988 147.814 200.753 148.165 199.227 148.165C197.606 148.165 196.29 147.775 195.278 146.995C194.275 146.206 193.773 145.211 193.773 144.011H195.317C195.377 144.911 195.754 145.614 196.449 146.12C197.152 146.618 198.078 146.866 199.227 146.866C200.299 146.866 201.165 146.631 201.825 146.159C202.485 145.687 202.815 145.091 202.815 144.371ZM216.166 144.371C216.166 143.608 215.857 142.995 215.24 142.532C214.631 142.069 213.709 141.709 212.475 141.451C211.24 141.186 210.279 140.886 209.594 140.551C208.916 140.208 208.41 139.792 208.076 139.304C207.75 138.815 207.587 138.223 207.587 137.529C207.587 136.431 208.046 135.526 208.963 134.815C209.881 134.094 211.055 133.734 212.487 133.734C214.039 133.734 215.283 134.12 216.217 134.892C217.161 135.655 217.632 136.654 217.632 137.889H216.089C216.089 137.074 215.746 136.397 215.06 135.856C214.382 135.316 213.525 135.046 212.487 135.046C211.476 135.046 210.661 135.273 210.044 135.728C209.435 136.174 209.13 136.757 209.13 137.477C209.13 138.172 209.383 138.712 209.889 139.098C210.404 139.475 211.334 139.822 212.68 140.14C214.035 140.457 215.047 140.796 215.716 141.156C216.393 141.516 216.895 141.949 217.221 142.455C217.547 142.961 217.709 143.574 217.709 144.294C217.709 145.469 217.234 146.408 216.282 147.111C215.339 147.814 214.104 148.165 212.577 148.165C210.957 148.165 209.641 147.775 208.629 146.995C207.626 146.206 207.124 145.211 207.124 144.011H208.667C208.727 144.911 209.105 145.614 209.799 146.12C210.502 146.618 211.428 146.866 212.577 146.866C213.649 146.866 214.515 146.631 215.176 146.159C215.836 145.687 216.166 145.091 216.166 144.371Z" fill="black"/>
<path d="M103.933 88.026H94.3883V114.349H89.1112V88.026H79.6502V83.737H103.933V88.026ZM117.536 114.349C117.312 113.914 117.116 113.206 116.948 112.225C115.322 113.921 113.331 114.769 110.977 114.769C108.692 114.769 106.828 114.117 105.384 112.814C103.94 111.51 103.219 109.898 103.219 107.978C103.219 105.553 104.116 103.696 105.91 102.407C107.718 101.103 110.297 100.451 113.647 100.451H116.779V98.9587C116.779 97.7814 116.45 96.8423 115.791 96.1414C115.132 95.4266 114.13 95.0692 112.785 95.0692C111.621 95.0692 110.668 95.3635 109.925 95.9522C109.183 96.5269 108.811 97.2628 108.811 98.1598H103.702C103.702 96.9123 104.116 95.749 104.943 94.6697C105.77 93.5765 106.891 92.7215 108.307 92.1047C109.736 91.488 111.327 91.1797 113.079 91.1797C115.742 91.1797 117.866 91.8525 119.45 93.198C121.033 94.5296 121.846 96.4078 121.888 98.8326V109.093C121.888 111.139 122.176 112.772 122.75 113.991V114.349H117.536ZM111.923 110.669C112.932 110.669 113.878 110.424 114.761 109.933C115.658 109.443 116.331 108.784 116.779 107.957V103.668H114.025C112.133 103.668 110.71 103.998 109.757 104.656C108.804 105.315 108.328 106.247 108.328 107.453C108.328 108.434 108.65 109.219 109.295 109.807C109.953 110.382 110.829 110.669 111.923 110.669ZM126.346 102.806C126.346 99.2741 127.172 96.4568 128.826 94.3544C130.494 92.2379 132.702 91.1797 135.449 91.1797C138.042 91.1797 140.082 92.0837 141.567 93.8918L141.799 91.6002H146.403V113.655C146.403 116.64 145.471 118.995 143.607 120.719C141.756 122.443 139.255 123.305 136.101 123.305C134.433 123.305 132.8 122.955 131.202 122.254C129.618 121.567 128.413 120.663 127.586 119.542L130.004 116.472C131.574 118.336 133.508 119.268 135.807 119.268C137.503 119.268 138.841 118.806 139.822 117.881C140.803 116.97 141.294 115.624 141.294 113.844V112.309C139.822 113.949 137.86 114.769 135.407 114.769C132.744 114.769 130.564 113.711 128.868 111.594C127.187 109.478 126.346 106.549 126.346 102.806ZM131.433 103.248C131.433 105.532 131.896 107.333 132.821 108.651C133.76 109.955 135.057 110.606 136.711 110.606C138.771 110.606 140.299 109.723 141.294 107.957V97.9495C140.327 96.2255 138.813 95.3635 136.753 95.3635C135.071 95.3635 133.76 96.0293 132.821 97.3609C131.896 98.6924 131.433 100.655 131.433 103.248ZM164.421 108.167C164.421 107.256 164.042 106.563 163.286 106.086C162.543 105.609 161.302 105.189 159.564 104.825C157.826 104.46 156.375 103.998 155.212 103.437C152.661 102.203 151.386 100.416 151.386 98.0757C151.386 96.1134 152.213 94.4735 153.867 93.156C155.52 91.8384 157.623 91.1797 160.174 91.1797C162.893 91.1797 165.087 91.8525 166.755 93.198C168.437 94.5436 169.277 96.2886 169.277 98.4331H164.169C164.169 97.452 163.804 96.639 163.075 95.9943C162.346 95.3355 161.379 95.0061 160.174 95.0061C159.053 95.0061 158.135 95.2654 157.42 95.784C156.719 96.3026 156.368 96.9964 156.368 97.8655C156.368 98.6504 156.698 99.2601 157.357 99.6946C158.015 100.129 159.347 100.571 161.351 101.019C163.356 101.454 164.925 101.979 166.061 102.596C167.21 103.199 168.058 103.928 168.605 104.783C169.165 105.637 169.446 106.675 169.446 107.894C169.446 109.941 168.598 111.601 166.902 112.877C165.206 114.138 162.984 114.769 160.237 114.769C158.373 114.769 156.712 114.433 155.254 113.76C153.796 113.087 152.661 112.162 151.848 110.985C151.035 109.807 150.629 108.539 150.629 107.179H155.591C155.661 108.385 156.116 109.317 156.957 109.976C157.798 110.62 158.912 110.943 160.3 110.943C161.646 110.943 162.669 110.69 163.37 110.186C164.07 109.667 164.421 108.994 164.421 108.167Z" fill="url(#paint2_linear)"/>
<path d="M55.7894 64.4399C55.575 66.4121 54.8676 67.9213 53.6672 68.9674C52.4753 70.0135 50.8847 70.5365 48.8953 70.5365C47.5063 70.5365 46.2758 70.1893 45.2039 69.4947C44.1407 68.8002 43.3175 67.8184 42.7344 66.5493C42.1514 65.2717 41.8555 63.814 41.847 62.1762V59.7453C41.847 58.0818 42.1385 56.607 42.7216 55.3208C43.3047 54.0346 44.1407 53.0442 45.2297 52.3496C46.3272 51.6465 47.5877 51.2949 49.0111 51.2949C51.0176 51.2949 52.5996 51.8394 53.7572 52.9284C54.9234 54.0088 55.6008 55.5051 55.7894 57.4173H54.1945C53.8001 54.2361 52.0723 52.6455 49.0111 52.6455C47.3133 52.6455 45.9585 53.28 44.9467 54.549C43.9435 55.8181 43.4418 57.5716 43.4418 59.8096V62.099C43.4418 64.2599 43.9306 65.9834 44.9081 67.2696C45.8942 68.5558 47.2233 69.1989 48.8953 69.1989C50.5503 69.1989 51.7979 68.8045 52.6382 68.0156C53.4785 67.2181 53.9973 66.0263 54.1945 64.4399H55.7894ZM65.706 57.6745C65.3802 57.6145 65.0329 57.5845 64.6642 57.5845C63.7038 57.5845 62.8892 57.8546 62.2204 58.3948C61.5602 58.9264 61.0885 59.7024 60.8056 60.7228V70.2793H59.275V56.3626H60.7799L60.8056 58.5749C61.6202 56.9285 62.9278 56.1053 64.7285 56.1053C65.1572 56.1053 65.4959 56.1611 65.7446 56.2725L65.706 57.6745ZM73.2818 70.5365C72.0984 70.5365 71.0266 70.245 70.0662 69.6619C69.1145 69.0788 68.3727 68.2685 67.8411 67.231C67.3095 66.1849 67.0437 65.0144 67.0437 63.7197V63.1666C67.0437 61.8289 67.3009 60.6242 67.8154 59.5524C68.3384 58.4805 69.063 57.6402 69.9891 57.0314C70.9151 56.414 71.9184 56.1053 72.9988 56.1053C74.688 56.1053 76.0256 56.6841 77.0117 57.8417C78.0064 58.9907 78.5037 60.5642 78.5037 62.5621V63.4238H68.5742V63.7197C68.5742 65.2974 69.0244 66.6136 69.9248 67.6683C70.8337 68.7144 71.9741 69.2375 73.3461 69.2375C74.1692 69.2375 74.8938 69.0874 75.5197 68.7873C76.1543 68.4872 76.7288 68.007 77.2433 67.3468L78.2079 68.0799C77.076 69.7177 75.434 70.5365 73.2818 70.5365ZM72.9988 57.4173C71.8412 57.4173 70.8637 57.8417 70.0662 58.6906C69.2774 59.5395 68.7972 60.6799 68.6257 62.1119H76.9732V61.9447C76.9303 60.6071 76.5487 59.5181 75.8284 58.6777C75.1082 57.8374 74.1649 57.4173 72.9988 57.4173ZM90.2854 70.2793C90.131 69.842 90.0324 69.1946 89.9895 68.3371C89.4493 69.0403 88.7591 69.5847 87.9187 69.9706C87.087 70.3479 86.2038 70.5365 85.2692 70.5365C83.9315 70.5365 82.8468 70.1635 82.0151 69.4175C81.1919 68.6715 80.7803 67.7283 80.7803 66.5879C80.7803 65.2331 81.342 64.1613 82.4652 63.3724C83.5971 62.5835 85.1706 62.1891 87.1856 62.1891H89.9767V60.6071C89.9767 59.6124 89.668 58.8321 89.0506 58.2662C88.4418 57.6917 87.55 57.4044 86.3753 57.4044C85.3035 57.4044 84.416 57.6788 83.7129 58.2276C83.0097 58.7764 82.6582 59.4366 82.6582 60.2083L81.1147 60.1955C81.1147 59.0893 81.6292 58.1333 82.6582 57.3272C83.6871 56.5126 84.9519 56.1053 86.4525 56.1053C88.0045 56.1053 89.2264 56.4955 90.1181 57.2758C91.0185 58.0475 91.4815 59.1279 91.5072 60.517V67.1024C91.5072 68.4486 91.6487 69.4561 91.9317 70.125V70.2793H90.2854ZM85.4492 69.1732C86.4782 69.1732 87.3957 68.9245 88.2017 68.4272C89.0163 67.9298 89.608 67.2653 89.9767 66.4336V63.3724H87.2242C85.6893 63.3895 84.4889 63.6725 83.6228 64.2213C82.7568 64.7615 82.3238 65.5075 82.3238 66.4593C82.3238 67.2396 82.611 67.887 83.1855 68.4014C83.7686 68.9159 84.5232 69.1732 85.4492 69.1732ZM98.0154 52.7998V56.3626H100.897V57.6231H98.0154V66.8966C98.0154 67.6683 98.1526 68.2428 98.427 68.6201C98.71 68.9974 99.1773 69.186 99.829 69.186C100.086 69.186 100.502 69.1432 101.077 69.0574L101.141 70.3179C100.738 70.4637 100.189 70.5365 99.4946 70.5365C98.4399 70.5365 97.6724 70.2321 97.1923 69.6233C96.7121 69.006 96.472 68.1013 96.472 66.9094V57.6231H93.9124V56.3626H96.472V52.7998H98.0154ZM109.475 70.5365C108.292 70.5365 107.22 70.245 106.26 69.6619C105.308 69.0788 104.566 68.2685 104.035 67.231C103.503 66.1849 103.237 65.0144 103.237 63.7197V63.1666C103.237 61.8289 103.495 60.6242 104.009 59.5524C104.532 58.4805 105.257 57.6402 106.183 57.0314C107.109 56.414 108.112 56.1053 109.193 56.1053C110.882 56.1053 112.219 56.6841 113.205 57.8417C114.2 58.9907 114.697 60.5642 114.697 62.5621V63.4238H104.768V63.7197C104.768 65.2974 105.218 66.6136 106.119 67.6683C107.027 68.7144 108.168 69.2375 109.54 69.2375C110.363 69.2375 111.088 69.0874 111.713 68.7873C112.348 68.4872 112.923 68.007 113.437 67.3468L114.402 68.0799C113.27 69.7177 111.628 70.5365 109.475 70.5365ZM109.193 57.4173C108.035 57.4173 107.057 57.8417 106.26 58.6906C105.471 59.5395 104.991 60.6799 104.819 62.1119H113.167V61.9447C113.124 60.6071 112.742 59.5181 112.022 58.6777C111.302 57.8374 110.359 57.4173 109.193 57.4173ZM129.244 69.2375C130.316 69.2375 131.212 68.9374 131.933 68.3371C132.661 67.7283 133.056 66.9437 133.116 65.9834H134.595C134.552 66.8323 134.286 67.6083 133.798 68.3114C133.309 69.006 132.657 69.5504 131.843 69.9449C131.037 70.3393 130.17 70.5365 129.244 70.5365C127.418 70.5365 125.969 69.902 124.897 68.633C123.834 67.3639 123.302 65.6575 123.302 63.5139V63.0508C123.302 61.6789 123.542 60.4656 124.022 59.4109C124.503 58.3562 125.189 57.5416 126.08 56.9671C126.981 56.3926 128.031 56.1053 129.232 56.1053C130.758 56.1053 132.014 56.5598 133 57.4687C133.995 58.3776 134.526 59.5738 134.595 61.0572H133.116C133.047 59.9682 132.653 59.0893 131.933 58.4205C131.221 57.7517 130.321 57.4173 129.232 57.4173C127.842 57.4173 126.762 57.9189 125.99 58.9221C125.227 59.9254 124.846 61.3316 124.846 63.1409V63.591C124.846 65.366 125.227 66.7508 125.99 67.7455C126.762 68.7401 127.847 69.2375 129.244 69.2375ZM146.634 68.5172C145.708 69.8634 144.229 70.5365 142.196 70.5365C140.713 70.5365 139.586 70.1078 138.814 69.2503C138.042 68.3843 137.648 67.1067 137.63 65.4175V56.3626H139.161V65.2245C139.161 67.8741 140.233 69.1989 142.377 69.1989C144.606 69.1989 146.017 68.2771 146.608 66.4336V56.3626H148.152V70.2793H146.66L146.634 68.5172ZM160.499 66.7422C160.499 65.9791 160.19 65.366 159.573 64.903C158.964 64.4399 158.043 64.0798 156.808 63.8226C155.573 63.5567 154.613 63.2566 153.927 62.9222C153.249 62.5792 152.743 62.1634 152.409 61.6746C152.083 61.1858 151.92 60.5942 151.92 59.8996C151.92 58.8021 152.379 57.8975 153.296 57.1858C154.214 56.4655 155.389 56.1053 156.821 56.1053C158.373 56.1053 159.616 56.4912 160.551 57.2629C161.494 58.0261 161.965 59.025 161.965 60.2598H160.422C160.422 59.4452 160.079 58.7678 159.393 58.2276C158.716 57.6874 157.858 57.4173 156.821 57.4173C155.809 57.4173 154.994 57.6445 154.377 58.099C153.768 58.5448 153.464 59.1279 153.464 59.8482C153.464 60.5427 153.717 61.0829 154.222 61.4688C154.737 61.8461 155.667 62.1934 157.014 62.5106C158.368 62.8279 159.38 63.1666 160.049 63.5267C160.726 63.8869 161.228 64.3199 161.554 64.8258C161.88 65.3317 162.043 65.9448 162.043 66.6651C162.043 67.8398 161.567 68.7787 160.615 69.4819C159.672 70.185 158.437 70.5365 156.911 70.5365C155.29 70.5365 153.974 70.1464 152.962 69.3661C151.959 68.5772 151.457 67.5826 151.457 66.3821H153.001C153.061 67.2824 153.438 67.9856 154.132 68.4915C154.836 68.9888 155.762 69.2375 156.911 69.2375C157.982 69.2375 158.849 69.0017 159.509 68.5301C160.169 68.0585 160.499 67.4625 160.499 66.7422ZM167.908 52.7998V56.3626H170.789V57.6231H167.908V66.8966C167.908 67.6683 168.045 68.2428 168.319 68.6201C168.602 68.9974 169.07 69.186 169.721 69.186C169.978 69.186 170.394 69.1432 170.969 69.0574L171.033 70.3179C170.63 70.4637 170.081 70.5365 169.387 70.5365C168.332 70.5365 167.565 70.2321 167.085 69.6233C166.604 69.006 166.364 68.1013 166.364 66.9094V57.6231H163.805V56.3626H166.364V52.7998H167.908ZM172.872 63.1151C172.872 61.7775 173.13 60.5728 173.644 59.5009C174.167 58.4291 174.9 57.5973 175.844 57.0057C176.795 56.4055 177.871 56.1053 179.072 56.1053C180.924 56.1053 182.425 56.757 183.574 58.0604C184.723 59.3551 185.297 61.0744 185.297 63.218V63.5396C185.297 64.8858 185.036 66.0991 184.513 67.1795C183.998 68.2514 183.269 69.0788 182.326 69.6619C181.383 70.245 180.307 70.5365 179.098 70.5365C177.254 70.5365 175.754 69.8891 174.596 68.5944C173.447 67.291 172.872 65.5675 172.872 63.4238V63.1151ZM174.416 63.5396C174.416 65.2031 174.845 66.5707 175.702 67.6426C176.568 68.7058 177.7 69.2375 179.098 69.2375C180.487 69.2375 181.61 68.7058 182.467 67.6426C183.334 66.5707 183.767 65.1602 183.767 63.411V63.1151C183.767 62.0519 183.569 61.0787 183.175 60.1955C182.78 59.3123 182.227 58.6306 181.516 58.1504C180.804 57.6616 179.989 57.4173 179.072 57.4173C177.7 57.4173 176.581 57.9575 175.715 59.0379C174.849 60.1097 174.416 61.516 174.416 63.2566V63.5396ZM189.889 56.3626L189.94 58.6263C190.455 57.786 191.098 57.1557 191.87 56.7356C192.641 56.3154 193.499 56.1053 194.442 56.1053C196.637 56.1053 198.031 57.0057 198.622 58.8064C199.12 57.9403 199.784 57.2758 200.616 56.8128C201.448 56.3411 202.365 56.1053 203.368 56.1053C206.352 56.1053 207.874 57.7345 207.934 60.9929V70.2793H206.391V61.1087C206.382 59.8653 206.112 58.9436 205.581 58.3433C205.058 57.7431 204.2 57.443 203.008 57.443C201.902 57.4601 200.967 57.8203 200.204 58.5234C199.441 59.218 199.017 60.0668 198.931 61.0701V70.2793H197.387V60.9929C197.379 59.801 197.096 58.9136 196.539 58.3305C195.99 57.7388 195.141 57.443 193.992 57.443C193.023 57.443 192.191 57.7217 191.497 58.279C190.802 58.8278 190.288 59.6467 189.953 60.7357V70.2793H188.41V56.3626H189.889Z" fill="black"/>
<defs>
<filter id="filter0_bd" x="0.0161667" y="0.0161667" width="249.968" height="249.968" filterUnits="userSpaceOnUse" color-interpolation-filters="sRGB">
<feFlood flood-opacity="0" result="BackgroundImageFix"/>
<feGaussianBlur in="BackgroundImage" stdDeviation="11.651"/>
<feComposite in2="SourceAlpha" operator="in" result="effect1_backgroundBlur"/>
<feColorMatrix in="SourceAlpha" type="matrix" values="0 0 0 0 0 0 0 0 0 0 0 0 0 0 0 0 0 0 127 0" result="hardAlpha"/>
<feMorphology radius="4.16397" operator="dilate" in="SourceAlpha" result="effect2_dropShadow"/>
<feOffset/>
<feGaussianBlur stdDeviation="10.4099"/>
<feComposite in2="hardAlpha" operator="out"/>
<feColorMatrix type="matrix" values="0 0 0 0 0 0 0 0 0 0 0 0 0 0 0 0 0 0 0.5 0"/>
<feBlend mode="normal" in2="effect1_backgroundBlur" result="effect2_dropShadow"/>
<feBlend mode="normal" in="SourceGraphic" in2="effect2_dropShadow" result="shape"/>
</filter>
<linearGradient id="paint0_linear" x1="25" y1="25" x2="254.204" y2="67.4991" gradientUnits="userSpaceOnUse">
<stop stop-color="white" stop-opacity="0.9"/>
<stop offset="1" stop-color="white" stop-opacity="0.7"/>
</linearGradient>
<linearGradient id="paint1_linear" x1="134.142" y1="213.143" x2="123.377" y2="171.038" gradientUnits="userSpaceOnUse">
<stop stop-color="#6576CC"/>
<stop offset="1" stop-color="#71AFE5"/>
</linearGradient>
<linearGradient id="paint2_linear" x1="98.1791" y1="77.3486" x2="143.651" y2="123.662" gradientUnits="userSpaceOnUse">
<stop stop-color="#6576CC"/>
<stop offset="1" stop-color="#71AFE5"/>
</linearGradient>
</defs>
</svg>
