<svg width="176" height="200" viewBox="0 0 176 200" fill="none" xmlns="http://www.w3.org/2000/svg">
<path d="M70.3001 83.8999C64.6001 83.8999 60.1001 88.8999 60.1001 94.9999C60.1001 101.1 64.7001 106.1 70.3001 106.1C76.0001 106.1 80.5001 101.1 80.5001 94.9999C80.6001 88.8999 76.0001 83.8999 70.3001 83.8999ZM106.8 83.8999C101.1 83.8999 96.6001 88.8999 96.6001 94.9999C96.6001 101.1 101.2 106.1 106.8 106.1C112.5 106.1 117 101.1 117 94.9999C117 88.8999 112.5 83.8999 106.8 83.8999Z" fill="#7289DA"/>
<path d="M155.4 0L21.3999 0C10.0999 0 0.899902 9.2 0.899902 20.6V155.8C0.899902 167.2 10.0999 176.4 21.3999 176.4H134.8L129.5 157.9L142.3 169.8L154.4 181L175.9 200V20.6C175.9 9.2 166.7 0 155.4 0ZM116.8 130.6C116.8 130.6 113.2 126.3 110.2 122.5C123.3 118.8 128.3 110.6 128.3 110.6C124.2 113.3 120.3 115.2 116.8 116.5C111.8 118.6 107 120 102.3 120.8C92.6999 122.6 83.8999 122.1 76.3999 120.7C70.6999 119.6 65.7999 118 61.6999 116.4C59.3999 115.5 56.8999 114.4 54.3999 113C54.0999 112.8 53.7999 112.7 53.4999 112.5C53.2999 112.4 53.1999 112.3 53.0999 112.2C51.2999 111.2 50.2999 110.5 50.2999 110.5C50.2999 110.5 55.0999 118.5 67.7999 122.3C64.7999 126.1 61.0999 130.6 61.0999 130.6C38.9999 129.9 30.5999 115.4 30.5999 115.4C30.5999 83.2 44.9999 57.1 44.9999 57.1C59.3999 46.3 73.0999 46.6 73.0999 46.6L74.0999 47.8C56.0999 53 47.7999 60.9 47.7999 60.9C47.7999 60.9 49.9999 59.7 53.6999 58C64.3999 53.3 72.8999 52 76.3999 51.7C76.9999 51.6 77.4999 51.5 78.0999 51.5C84.1999 50.7 91.0999 50.5 98.2999 51.3C107.8 52.4 118 55.2 128.4 60.9C128.4 60.9 120.5 53.4 103.5 48.2L104.9 46.6C104.9 46.6 118.6 46.3 133 57.1C133 57.1 147.4 83.2 147.4 115.4C147.4 115.4 138.9 129.9 116.8 130.6Z" fill="#7289DA"/>
</svg>
