<svg width="212" height="208" viewBox="0 0 212 208" fill="none" xmlns="http://www.w3.org/2000/svg">
<path fill-rule="evenodd" clip-rule="evenodd" d="M106.053 0.985357C80.8714 0.976983 56.5095 9.93192 37.3284 26.2469C18.1474 42.5618 5.39983 65.1714 1.36799 90.0277C-2.66384 114.884 2.28337 140.364 15.3239 161.905C28.3644 183.447 48.6466 199.643 72.5393 207.595C77.8059 208.578 79.7721 205.295 79.7721 202.486C79.7721 199.958 79.6843 191.619 79.6317 182.754C50.1386 189.162 43.924 170.255 43.924 170.255C39.0963 157.966 32.1443 154.736 32.1443 154.736C22.524 148.152 32.8641 148.293 32.8641 148.293C43.5202 149.048 49.1204 159.212 49.1204 159.212C58.5828 175.416 73.9262 170.746 79.9652 167.99C80.9308 161.143 83.6694 156.474 86.7065 153.823C63.2349 151.172 38.394 142.078 38.394 101.455C38.2365 90.9037 42.1539 80.6982 49.3311 72.9625C48.2251 70.2941 44.5911 59.5151 50.3493 44.8739C50.3493 44.8739 59.2499 42.0299 79.5088 55.7407C96.8916 50.9889 115.231 50.9889 132.614 55.7407C152.767 42.1001 161.738 44.8739 161.738 44.8739C167.496 59.48 163.88 70.259 162.774 72.9625C169.932 80.6939 173.836 90.8852 173.676 101.42C173.676 142.148 148.888 151.102 125.276 153.735C129.068 157.018 132.456 163.478 132.456 173.362C132.456 187.547 132.351 198.975 132.351 202.451C132.351 205.278 134.247 208.578 139.618 207.542C163.477 199.56 183.719 183.355 196.727 161.821C209.736 140.287 214.662 114.83 210.627 89.9975C206.592 65.1654 193.857 42.5776 174.7 26.271C155.542 9.96443 131.21 1.00194 106.053 0.985357Z" fill="#191717"/>
</svg>
