<svg width="224" height="197" viewBox="0 0 224 197" fill="none" xmlns="http://www.w3.org/2000/svg">
<g clip-path="url(#clip0)">
<path d="M64.4312 64.6045L96.1632 76.0739V113.101L64.4312 101.632V64.6045Z" fill="#E9E9FF" stroke="#777777" stroke-width="0.214" stroke-linejoin="bevel"/>
<path d="M32.2314 76.2428V113.27L64.4298 101.632V64.6045L32.2314 76.2428Z" fill="#353564" stroke="#777777" stroke-width="0.214" stroke-linejoin="bevel"/>
<path d="M32.2314 113.27L63.9601 124.736L96.1585 113.101L64.4298 101.632L32.2314 113.27Z" fill="#AFAFDE" stroke="#777777" stroke-width="0.214" stroke-linejoin="bevel"/>
<path d="M32.2314 76.2428L63.9601 87.7088L96.1585 76.0739L64.4298 64.6045L32.2314 76.2428Z" fill="#D7D7D7" stroke="#777777" stroke-width="0.214" stroke-linejoin="bevel"/>
<path d="M63.9609 87.7092V124.736L96.1593 113.101V76.0742L63.9609 87.7092Z" fill="#DDDDDD" stroke="#777777" stroke-width="0.214" stroke-linejoin="bevel"/>
<path d="M32.2314 76.2427L63.9601 87.7087V124.736L32.2314 113.27V76.2427Z" fill="#BCBCBC" stroke="#777777" stroke-width="0.214" stroke-linejoin="bevel"/>
<path d="M96.2988 38.7188L128.031 50.1847V87.2119L96.2988 75.7459V38.7188Z" fill="#E9E9FF" stroke="#777777" stroke-width="0.214" stroke-linejoin="bevel"/>
<path d="M64.1006 50.3537V87.3808L96.2989 75.7458V38.7188L64.1006 50.3537Z" fill="#353564" stroke="#777777" stroke-width="0.214" stroke-linejoin="bevel"/>
<path d="M64.1006 87.3811L95.8293 98.8471L128.031 87.2121L96.299 75.7461L64.1006 87.3811Z" fill="#AFAFDE" stroke="#777777" stroke-width="0.214" stroke-linejoin="bevel"/>
<path d="M64.1006 50.3537L95.8293 61.8197L128.031 50.1848L96.299 38.7188L64.1006 50.3537Z" fill="#D7D7D7" stroke="#777777" stroke-width="0.214" stroke-linejoin="bevel"/>
<path d="M95.8286 61.82V98.8505L128.03 87.2156V50.1851L95.8286 61.82Z" fill="#DDDDDD" stroke="#777777" stroke-width="0.214" stroke-linejoin="bevel"/>
<path d="M64.1006 50.3535L95.8293 61.8195V98.85L64.1006 87.384V50.3535Z" fill="#BCBCBC" stroke="#777777" stroke-width="0.214" stroke-linejoin="bevel"/>
<path d="M32.5623 113.506L64.2909 124.972V161.999L32.5623 150.533V113.506Z" fill="#E9E9FF" stroke="#777777" stroke-width="0.214" stroke-linejoin="bevel"/>
<path d="M0.360596 125.141V162.168L32.559 150.533V113.506L0.360596 125.141Z" fill="#353564" stroke="#777777" stroke-width="0.214" stroke-linejoin="bevel"/>
<path d="M0.360596 162.168L32.0961 173.634L64.2945 161.999L32.5658 150.533L0.360596 162.168Z" fill="#AFAFDE" stroke="#777777" stroke-width="0.214" stroke-linejoin="bevel"/>
<path d="M0.360596 125.141L32.0927 136.607L64.2911 124.972L32.5624 113.506L0.360596 125.141Z" fill="#D7D7D7" stroke="#777777" stroke-width="0.214" stroke-linejoin="bevel"/>
<path d="M32.0933 136.607V173.634L64.2917 161.999V124.972L32.0933 136.607Z" fill="#DDDDDD" stroke="#777777" stroke-width="0.214" stroke-linejoin="bevel"/>
<path d="M0.360596 125.142L32.0927 136.608V173.635L0.360596 162.169V125.142Z" fill="#BCBCBC" stroke="#777777" stroke-width="0.214" stroke-linejoin="bevel"/>
<path d="M64.4312 125.013L96.1633 136.479V173.506L64.4312 162.04V125.013Z" fill="#E9E9FF" stroke="#777777" stroke-width="0.214" stroke-linejoin="bevel"/>
<path d="M32.2329 136.648V173.675L64.4313 162.04V125.013L32.2329 136.648Z" fill="#353564" stroke="#777777" stroke-width="0.214" stroke-linejoin="bevel"/>
<path d="M32.2329 173.675L63.9616 185.141L96.16 173.507L64.4313 162.041L32.2329 173.675Z" fill="#AFAFDE" stroke="#777777" stroke-width="0.214" stroke-linejoin="bevel"/>
<path d="M32.2329 136.648L63.9616 148.114L96.16 136.479L64.4313 125.013L32.2329 136.648Z" fill="#D7D7D7" stroke="#777777" stroke-width="0.214" stroke-linejoin="bevel"/>
<path d="M63.9609 148.114V185.142L96.1593 173.507V136.479L63.9609 148.114Z" fill="#DDDDDD" stroke="#777777" stroke-width="0.214" stroke-linejoin="bevel"/>
<path d="M32.2329 136.648L63.9616 148.114V185.141L32.2329 173.675V136.648Z" fill="#BCBCBC" stroke="#777777" stroke-width="0.214" stroke-linejoin="bevel"/>
<path d="M64.4312 87.6182L96.1633 99.0842V136.111L64.4312 124.645V87.6182Z" fill="#E9E9FF" stroke="#777777" stroke-width="0.214" stroke-linejoin="bevel"/>
<path d="M32.2329 99.2565V136.28L64.4313 124.645V87.6182L32.2329 99.2565Z" fill="#353564" stroke="#777777" stroke-width="0.214" stroke-linejoin="bevel"/>
<path d="M32.2329 136.28L63.9616 147.75L96.16 136.112L64.4313 124.646L32.2329 136.28Z" fill="#AFAFDE" stroke="#777777" stroke-width="0.214" stroke-linejoin="bevel"/>
<path d="M32.2329 99.2565L63.9616 110.723L96.16 99.0842L64.4313 87.6182L32.2329 99.2565Z" fill="#D7D7D7" stroke="#777777" stroke-width="0.214" stroke-linejoin="bevel"/>
<path d="M63.9609 110.722V147.749L96.1593 136.111V99.0874L63.9609 110.722Z" fill="#DDDDDD" stroke="#777777" stroke-width="0.214" stroke-linejoin="bevel"/>
<path d="M32.2329 99.2563L63.9616 110.722V147.749L32.2329 136.28V99.2563Z" fill="#BCBCBC" stroke="#777777" stroke-width="0.214" stroke-linejoin="bevel"/>
<path d="M191.906 102L223.639 113.466V150.493L191.906 139.027V102Z" fill="#E9E9FF" stroke="#777777" stroke-width="0.214" stroke-linejoin="bevel"/>
<path d="M159.708 113.635V150.662L191.907 139.027V102L159.708 113.635Z" fill="#353564" stroke="#777777" stroke-width="0.214" stroke-linejoin="bevel"/>
<path d="M159.708 150.662L191.437 162.132L223.635 150.493L191.907 139.027L159.708 150.662Z" fill="#AFAFDE" stroke="#777777" stroke-width="0.214" stroke-linejoin="bevel"/>
<path d="M159.708 113.635L191.437 125.104L223.635 113.466L191.907 102L159.708 113.635Z" fill="#D7D7D7" stroke="#777777" stroke-width="0.214" stroke-linejoin="bevel"/>
<path d="M191.436 125.105V162.132L223.635 150.493V113.466L191.436 125.105Z" fill="#DDDDDD" stroke="#777777" stroke-width="0.214" stroke-linejoin="bevel"/>
<path d="M159.708 113.635L191.437 125.104V162.131L159.708 150.662V113.635Z" fill="#BCBCBC" stroke="#777777" stroke-width="0.214" stroke-linejoin="bevel"/>
<path d="M160.029 113.501L191.758 124.967V161.994L160.029 150.528V113.501Z" fill="#E9E9FF" stroke="#777777" stroke-width="0.21378" stroke-linejoin="bevel"/>
<path d="M127.829 125.138V162.165L160.029 150.529V113.504L127.829 125.138Z" fill="#353564" stroke="#777777" stroke-width="0.21378" stroke-linejoin="bevel"/>
<path d="M127.829 162.164L159.558 173.631L191.759 161.995L160.029 150.528L127.829 162.164Z" fill="#AFAFDE" stroke="#777777" stroke-width="0.21378" stroke-linejoin="bevel"/>
<path d="M127.829 125.137L159.558 136.603L191.759 124.967L160.029 113.501L127.829 125.137Z" fill="#D7D7D7" stroke="#777777" stroke-width="0.21378" stroke-linejoin="bevel"/>
<path d="M159.558 136.604V173.631L191.759 161.995V124.97L159.558 136.604Z" fill="#FFD242" stroke="#777777" stroke-width="0.21378" stroke-linejoin="bevel"/>
<path d="M127.829 125.137L159.558 136.604V173.63L127.829 162.164V125.137Z" fill="#BCBCBC" stroke="#777777" stroke-width="0.21378" stroke-linejoin="bevel"/>
<path d="M128.17 125.013L159.899 136.479V173.506L128.17 162.04V125.013Z" fill="#E9E9FF" stroke="#777777" stroke-width="0.214" stroke-linejoin="bevel"/>
<path d="M95.9683 136.648V173.675L128.167 162.04V125.013L95.9683 136.648Z" fill="#353564" stroke="#777777" stroke-width="0.214" stroke-linejoin="bevel"/>
<path d="M95.9683 173.675L127.7 185.141L159.899 173.507L128.17 162.041L95.9683 173.675Z" fill="#AFAFDE" stroke="#777777" stroke-width="0.214" stroke-linejoin="bevel"/>
<path d="M95.9683 136.648L127.7 148.114L159.899 136.479L128.17 125.013L95.9683 136.648Z" fill="#D7D7D7" stroke="#777777" stroke-width="0.214" stroke-linejoin="bevel"/>
<path d="M127.701 148.114V185.142L159.899 173.507V136.479L127.701 148.114Z" fill="#FFD242" stroke="#777777" stroke-width="0.214" stroke-linejoin="bevel"/>
<path d="M95.9683 136.648L127.7 148.114V185.141L95.9683 173.675V136.648Z" fill="#BCBCBC" stroke="#777777" stroke-width="0.214" stroke-linejoin="bevel"/>
<path d="M96.2988 136.519L128.031 147.985V185.012L96.2988 173.546V136.519Z" fill="#E9E9FF" stroke="#777777" stroke-width="0.214" stroke-linejoin="bevel"/>
<path d="M64.1006 148.154V185.181L96.299 173.546V136.519L64.1006 148.154Z" fill="#353564" stroke="#777777" stroke-width="0.214" stroke-linejoin="bevel"/>
<path d="M64.1006 185.181L95.8293 196.647L128.028 185.012L96.299 173.546L64.1006 185.181Z" fill="#AFAFDE" stroke="#777777" stroke-width="0.214" stroke-linejoin="bevel"/>
<path d="M64.1006 148.154L95.8293 159.62L128.028 147.985L96.299 136.519L64.1006 148.154Z" fill="#D7D7D7" stroke="#777777" stroke-width="0.214" stroke-linejoin="bevel"/>
<path d="M95.8286 159.62V196.647L128.027 185.012V147.985L95.8286 159.62Z" fill="#DDDDDD" stroke="#777777" stroke-width="0.214" stroke-linejoin="bevel"/>
<path d="M64.1006 148.154L95.8293 159.62V196.647L64.1006 185.181V148.154Z" fill="#BCBCBC" stroke="#777777" stroke-width="0.214" stroke-linejoin="bevel"/>
<path d="M191.906 64.6045L223.639 76.0739V113.101L191.906 101.632V64.6045Z" fill="#E9E9FF" stroke="#777777" stroke-width="0.214" stroke-linejoin="bevel"/>
<path d="M159.708 76.2428V113.27L191.907 101.632V64.6045L159.708 76.2428Z" fill="#353564" stroke="#777777" stroke-width="0.214" stroke-linejoin="bevel"/>
<path d="M159.708 113.27L191.437 124.736L223.635 113.101L191.907 101.632L159.708 113.27Z" fill="#AFAFDE" stroke="#777777" stroke-width="0.214" stroke-linejoin="bevel"/>
<path d="M159.708 76.2428L191.437 87.7088L223.635 76.0739L191.907 64.6045L159.708 76.2428Z" fill="#D7D7D7" stroke="#777777" stroke-width="0.214" stroke-linejoin="bevel"/>
<path d="M191.436 87.7087V124.736L223.635 113.101V76.0737L191.436 87.7087Z" fill="#FFD242" stroke="#777777" stroke-width="0.214" stroke-linejoin="bevel"/>
<path d="M159.708 76.2422L191.437 87.7082V124.735L159.708 113.269V76.2422Z" fill="#BCBCBC" stroke="#777777" stroke-width="0.214" stroke-linejoin="bevel"/>
<path d="M191.906 27.208L223.639 38.6774V75.7011L191.906 64.2351V27.208Z" fill="#E9E9FF" stroke="#777777" stroke-width="0.214" stroke-linejoin="bevel"/>
<path d="M159.708 38.8464V75.8735L191.907 64.2385V27.208L159.708 38.8464Z" fill="#353564" stroke="#777777" stroke-width="0.214" stroke-linejoin="bevel"/>
<path d="M159.708 75.8737L191.437 87.3397L223.635 75.7048L191.907 64.2388L159.708 75.8737Z" fill="#AFAFDE" stroke="#777777" stroke-width="0.214" stroke-linejoin="bevel"/>
<path d="M159.708 38.8474L191.437 50.3134L223.635 38.6784L191.907 27.2124L159.708 38.8474Z" fill="#FFC91D" stroke="#777777" stroke-width="0.214" stroke-linejoin="bevel"/>
<path d="M191.436 50.3122V87.3393L223.635 75.7044V38.6772L191.436 50.3122Z" fill="#FFD242" stroke="#777777" stroke-width="0.214" stroke-linejoin="bevel"/>
<path d="M159.708 38.8457L191.437 50.3117V87.3388L159.708 75.8728V38.8457Z" fill="#BCBCBC" stroke="#777777" stroke-width="0.214" stroke-linejoin="bevel"/>
<path d="M160.039 76.1108L191.768 87.5768V124.604L160.039 113.138V76.1108Z" fill="#E9E9FF" stroke="#777777" stroke-width="0.214" stroke-linejoin="bevel"/>
<path d="M127.842 87.7492V124.776L160.04 113.138V76.1108L127.842 87.7492Z" fill="#353564" stroke="#777777" stroke-width="0.214" stroke-linejoin="bevel"/>
<path d="M127.841 124.777L159.57 136.243L191.768 124.604L160.039 113.138L127.841 124.777Z" fill="#AFAFDE" stroke="#777777" stroke-width="0.214" stroke-linejoin="bevel"/>
<path d="M127.842 87.7492L159.57 99.2152L191.769 87.5768L160.04 76.1108L127.842 87.7492Z" fill="#D7D7D7" stroke="#777777" stroke-width="0.214" stroke-linejoin="bevel"/>
<path d="M159.57 99.2155V136.243L191.769 124.604V87.5771L159.57 99.2155Z" fill="#FFD242" stroke="#777777" stroke-width="0.214" stroke-linejoin="bevel"/>
<path d="M127.841 87.7485L159.569 99.2145V136.242L127.837 124.776L127.841 87.7485Z" fill="#BCBCBC" stroke="#777777" stroke-width="0.214" stroke-linejoin="bevel"/>
<path d="M160.039 38.7188L191.768 50.1847V87.2119L160.039 75.7459V38.7188Z" fill="#E9E9FF" stroke="#777777" stroke-width="0.214" stroke-linejoin="bevel"/>
<path d="M127.842 50.3537V87.3808L160.04 75.7458V38.7188L127.842 50.3537Z" fill="#353564" stroke="#777777" stroke-width="0.214" stroke-linejoin="bevel"/>
<path d="M127.841 87.3811L159.57 98.8471L191.768 87.2121L160.039 75.7461L127.841 87.3811Z" fill="#AFAFDE" stroke="#777777" stroke-width="0.214" stroke-linejoin="bevel"/>
<path d="M127.842 50.3537L159.57 61.8197L191.769 50.1848L160.04 38.7188L127.842 50.3537Z" fill="#D7D7D7" stroke="#777777" stroke-width="0.214" stroke-linejoin="bevel"/>
<path d="M159.57 61.82V98.8505L191.769 87.2156V50.1851L159.57 61.82Z" fill="#3775A9" stroke="#777777" stroke-width="0.214" stroke-linejoin="bevel"/>
<path d="M127.841 50.3535L159.569 61.8195V98.85L127.837 87.384L127.841 50.3535Z" fill="#BCBCBC" stroke="#777777" stroke-width="0.214" stroke-linejoin="bevel"/>
<path d="M160.039 1.32373L191.768 12.7897V49.8168L160.039 38.3508V1.32373Z" fill="#E9E9FF" stroke="#777777" stroke-width="0.214" stroke-linejoin="bevel"/>
<path d="M127.842 12.9587V49.9858L160.04 38.3508V1.32373L127.842 12.9587Z" fill="#353564" stroke="#777777" stroke-width="0.214" stroke-linejoin="bevel"/>
<path d="M127.841 49.986L159.57 61.452L191.768 49.8171L160.039 38.3511L127.841 49.986Z" fill="#AFAFDE" stroke="#777777" stroke-width="0.214" stroke-linejoin="bevel"/>
<path d="M127.842 12.9587L159.57 24.4247L191.769 12.7897L160.04 1.32373L127.842 12.9587Z" fill="#2F6491" stroke="#777777" stroke-width="0.214" stroke-linejoin="bevel"/>
<path d="M159.57 24.425V61.4521L191.769 49.8171V12.79L159.57 24.425Z" fill="#3775A9" stroke="#777777" stroke-width="0.214" stroke-linejoin="bevel"/>
<path d="M127.841 12.9585L159.569 24.4245V61.4516L127.837 49.9856L127.841 12.9585Z" fill="#BCBCBC" stroke="#777777" stroke-width="0.214" stroke-linejoin="bevel"/>
<path d="M128.17 87.6182L159.899 99.0842V136.111L128.17 124.645V87.6182Z" fill="#E9E9FF" stroke="#777777" stroke-width="0.214" stroke-linejoin="bevel"/>
<path d="M95.9683 99.2565V136.28L128.167 124.645V87.6182L95.9683 99.2565Z" fill="#353564" stroke="#777777" stroke-width="0.214" stroke-linejoin="bevel"/>
<path d="M95.9683 136.28L127.7 147.75L159.899 136.112L128.17 124.646L95.9683 136.28Z" fill="#AFAFDE" stroke="#777777" stroke-width="0.214" stroke-linejoin="bevel"/>
<path d="M95.9683 99.2565L127.7 110.723L159.899 99.0842L128.17 87.6182L95.9683 99.2565Z" fill="#D7D7D7" stroke="#777777" stroke-width="0.214" stroke-linejoin="bevel"/>
<path d="M127.701 110.722V147.749L159.899 136.111V99.0874L127.701 110.722Z" fill="#FFD242" stroke="#777777" stroke-width="0.214" stroke-linejoin="bevel"/>
<path d="M95.9683 99.2563L127.7 110.722V147.749L95.9683 136.28V99.2563Z" fill="#BCBCBC" stroke="#777777" stroke-width="0.214" stroke-linejoin="bevel"/>
<path d="M128.17 50.2212L159.899 61.6906V98.7143L128.17 87.2449V50.2212Z" fill="#E9E9FF" stroke="#777777" stroke-width="0.214" stroke-linejoin="bevel"/>
<path d="M95.9683 61.8595V98.8833L128.167 87.2449V50.2212L95.9683 61.8595Z" fill="#353564" stroke="#777777" stroke-width="0.214" stroke-linejoin="bevel"/>
<path d="M95.9683 98.8835L127.7 110.353L159.899 98.7179L128.17 87.2485L95.9683 98.8835Z" fill="#AFAFDE" stroke="#777777" stroke-width="0.214" stroke-linejoin="bevel"/>
<path d="M95.9683 61.8595L127.7 73.3255L159.899 61.6906L128.17 50.2212L95.9683 61.8595Z" fill="#D7D7D7" stroke="#777777" stroke-width="0.214" stroke-linejoin="bevel"/>
<path d="M127.701 73.3254V110.353L159.899 98.7175V61.6904L127.701 73.3254Z" fill="#3775A9" stroke="#777777" stroke-width="0.214" stroke-linejoin="bevel"/>
<path d="M95.9683 61.8589L127.7 73.3249V110.352L95.9683 98.886V61.8589Z" fill="#BCBCBC" stroke="#777777" stroke-width="0.214" stroke-linejoin="bevel"/>
<path d="M96.2988 99.1206L128.031 110.59V147.617L96.2988 136.151V99.1206Z" fill="#E9E9FF" stroke="#777777" stroke-width="0.214" stroke-linejoin="bevel"/>
<path d="M64.1006 110.759V147.786L96.299 136.151V99.1206L64.1006 110.759Z" fill="#353564" stroke="#777777" stroke-width="0.214" stroke-linejoin="bevel"/>
<path d="M64.1006 147.786L95.8293 159.252L128.028 147.617L96.299 136.151L64.1006 147.786Z" fill="#AFAFDE" stroke="#777777" stroke-width="0.214" stroke-linejoin="bevel"/>
<path d="M64.1006 110.76L95.8293 122.226L128.028 110.591L96.299 99.125L64.1006 110.76Z" fill="#D7D7D7" stroke="#777777" stroke-width="0.214" stroke-linejoin="bevel"/>
<path d="M95.8286 122.225V159.252L128.027 147.617V110.59L95.8286 122.225Z" fill="#3775A9" stroke="#777777" stroke-width="0.214" stroke-linejoin="bevel"/>
<path d="M64.1006 110.758L95.8293 122.224V159.251L64.1006 147.785V110.758Z" fill="#2F6491" stroke="#777777" stroke-width="0.214" stroke-linejoin="bevel"/>
<path d="M96.2988 61.7285L128.031 73.1945V110.222L96.2988 98.7556V61.7285Z" fill="#E9E9FF" stroke="#777777" stroke-width="0.214" stroke-linejoin="bevel"/>
<path d="M64.1006 73.3669V110.394L96.299 98.7556V61.7285L64.1006 73.3669Z" fill="#353564" stroke="#777777" stroke-width="0.214" stroke-linejoin="bevel"/>
<path d="M64.1006 110.394L95.8293 121.86L128.028 110.222L96.299 98.7559L64.1006 110.394Z" fill="#AFAFDE" stroke="#777777" stroke-width="0.214" stroke-linejoin="bevel"/>
<path d="M64.1006 73.3669L95.8293 84.8329L128.028 73.1945L96.299 61.7285L64.1006 73.3669Z" fill="#2F6491" stroke="#777777" stroke-width="0.214" stroke-linejoin="bevel"/>
<path d="M95.8286 84.8332V121.86L128.027 110.222V73.1948L95.8286 84.8332Z" fill="#3775A9" stroke="#777777" stroke-width="0.214" stroke-linejoin="bevel"/>
<path d="M64.1006 73.3662L95.8293 84.8322V121.859L64.1006 110.393V73.3662Z" fill="#2F6491" stroke="#777777" stroke-width="0.214" stroke-linejoin="bevel"/>
<path d="M128.16 12.8262L159.892 24.2925V61.3193L128.16 49.8529V12.8262Z" fill="#E9E9FF" stroke="#777777" stroke-width="0.21378" stroke-linejoin="bevel"/>
<path d="M95.9597 24.4622V61.4889L128.159 49.8529V12.8262L95.9597 24.4622Z" fill="#353564" stroke="#777777" stroke-width="0.21378" stroke-linejoin="bevel"/>
<path d="M95.9597 61.4895L127.691 72.9559L159.892 61.3199L128.159 49.8535L95.9597 61.4895Z" fill="#AFAFDE" stroke="#777777" stroke-width="0.21378" stroke-linejoin="bevel"/>
<path d="M95.9597 24.4622L127.691 35.9286L159.892 24.2925L128.159 12.8262L95.9597 24.4622Z" fill="#2F6491" stroke="#777777" stroke-width="0.21378" stroke-linejoin="bevel"/>
<path d="M127.691 35.9285V72.9552L159.891 61.3192V24.2925L127.691 35.9285Z" fill="#3775A9" stroke="#777777" stroke-width="0.21378" stroke-linejoin="bevel"/>
<path d="M95.9597 24.4624L127.691 35.9288V72.9555L95.9597 61.4891V24.4624Z" fill="#2F6491" stroke="#777777" stroke-width="0.21378" stroke-linejoin="bevel"/>
</g>
<defs>
<clipPath id="clip0">
<rect width="224" height="196" fill="white" transform="translate(0 0.985352)"/>
</clipPath>
</defs>
</svg>
