<svg width="528" height="186" viewBox="0 0 528 186" fill="none" xmlns="http://www.w3.org/2000/svg">
<path fill-rule="evenodd" clip-rule="evenodd" d="M528 48.2148L506.138 61.4148C483.863 74.6148 440.138 101.015 396 95.6523C351.863 90.2898 308.138 53.5773 264 48.2148C219.863 42.8523 176.138 69.2523 132 66.7773C87.8625 63.8898 44.1375 32.5398 21.8625 16.4523L7.62939e-06 0.777344V185.577H21.8625C44.1375 185.577 87.8625 185.577 132 185.577C176.138 185.577 219.863 185.577 264 185.577C308.138 185.577 351.863 185.577 396 185.577C440.138 185.577 483.863 185.577 506.138 185.577H528V48.2148Z" fill="#FF0000"/>
</svg>
