<svg width="528" height="157" viewBox="0 0 528 157" fill="none" xmlns="http://www.w3.org/2000/svg">
<path fill-rule="evenodd" clip-rule="evenodd" d="M0 30.0167L18 25.0167C35 20.0167 70 9.01666 106 4.01666C141 -0.983336 176 -0.983336 211 7.01666C246 14.0167 282 30.0167 317 43.0167C352 57.0167 387 67.0167 422 67.0167C458 67.0167 493 57.0167 510 51.0167L528 46.0167V156.576H510C493 156.576 458 156.576 422 156.576C387 156.576 352 156.576 317 156.576C282 156.576 246 156.576 211 156.576C176 156.576 141 156.576 106 156.576C70 156.576 35 156.576 18 156.576H0V30.0167Z" fill="#FF0000"/>
</svg>
