<svg width="528" height="218" viewBox="0 0 528 218" fill="none" xmlns="http://www.w3.org/2000/svg">
<path fill-rule="evenodd" clip-rule="evenodd" d="M0 142.576H22C44 142.576 88 142.576 132 126.576C176 111.576 220 79.5762 264 76.5762C308 74.5762 352 100.576 396 92.5762C440 84.5762 484 42.5762 506 21.5762L528 0.576172V217.576H506C484 217.576 440 217.576 396 217.576C352 217.576 308 217.576 264 217.576C220 217.576 176 217.576 132 217.576C88 217.576 44 217.576 22 217.576H0V142.576Z" fill="url(#paint0_linear_2629:5545)"/>
<defs>
<linearGradient id="paint0_linear_2629:5545" x1="0" y1="217.576" x2="528" y2="217.576" gradientUnits="userSpaceOnUse">
<stop stop-color="#8D8D8D"/>
<stop offset="1" stop-color="#424242"/>
</linearGradient>
</defs>
</svg>
