<svg width="528" height="191" viewBox="0 0 528 191" fill="none" xmlns="http://www.w3.org/2000/svg">
<path fill-rule="evenodd" clip-rule="evenodd" d="M0 110.963L21.8625 94.875C44.1375 79.2 87.8625 47.4375 132 52.8C176.137 58.1625 219.863 100.237 264 118.8C308.137 137.363 351.862 132 396 108.075C440.137 84.5625 483.862 42.075 506.137 21.0375L528 0V190.575H506.137C483.862 190.575 440.137 190.575 396 190.575C351.862 190.575 308.137 190.575 264 190.575C219.863 190.575 176.137 190.575 132 190.575C87.8625 190.575 44.1375 190.575 21.8625 190.575H0V110.963Z" fill="url(#paint0_linear)"/>
<defs>
<linearGradient id="paint0_linear" x1="0" y1="190.575" x2="528" y2="190.575" gradientUnits="userSpaceOnUse">
<stop stop-color="#71AFE5"/>
<stop offset="1" stop-color="#6576CC"/>
</linearGradient>
</defs>
</svg>
