<svg width="528" height="191" viewBox="0 0 528 191" fill="none" xmlns="http://www.w3.org/2000/svg">
<path fill-rule="evenodd" clip-rule="evenodd" d="M0.000244141 110.962L21.8627 94.875C44.1377 79.2 87.8627 47.4375 132 52.8C176.138 58.1625 219.863 100.237 264 118.8C308.138 137.362 351.863 132 396 108.075C440.138 84.5625 483.863 42.075 506.138 21.0375L528 0V190.575H506.138C483.863 190.575 440.138 190.575 396 190.575C351.863 190.575 308.138 190.575 264 190.575C219.863 190.575 176.138 190.575 132 190.575C87.8627 190.575 44.1377 190.575 21.8627 190.575H0.000244141V110.962Z" fill="#FF0000"/>
</svg>
