<svg width="529" height="179" viewBox="0 0 529 179" fill="none" xmlns="http://www.w3.org/2000/svg">
<path fill-rule="evenodd" clip-rule="evenodd" d="M0 0.392578L21.8668 5.75613C44.1462 11.1197 87.8798 21.8468 132.026 40.0004C176.172 58.5665 219.906 84.9717 264.052 84.9717C308.198 84.9717 351.932 58.5665 396.078 56.091C440.224 53.203 483.958 74.6572 506.237 84.9717L528.104 95.6988V178.628H506.237C483.958 178.628 440.224 178.628 396.078 178.628C351.932 178.628 308.198 178.628 264.052 178.628C219.906 178.628 176.172 178.628 132.026 178.628C87.8798 178.628 44.1462 178.628 21.8668 178.628H0V0.392578Z" fill="url(#paint0_linear)"/>
<defs>
<linearGradient id="paint0_linear" x1="0" y1="178.628" x2="528.104" y2="178.628" gradientUnits="userSpaceOnUse">
<stop stop-color="#EDC575"/>
<stop offset="1" stop-color="#E6AB71"/>
</linearGradient>
</defs>
</svg>
