<svg width="529" height="150" viewBox="0 0 529 150" fill="none" xmlns="http://www.w3.org/2000/svg">
<path fill-rule="evenodd" clip-rule="evenodd" d="M0 0.980301L21.8668 14.1829C44.1462 27.3855 87.8798 53.7907 132.026 48.4271C176.172 43.4762 219.906 6.34386 264.052 0.980301C308.198 -4.38325 351.932 22.0219 396.078 38.1126C440.224 53.7907 483.958 59.1543 506.237 61.6297L528.104 64.5178V149.628H506.237C483.958 149.628 440.224 149.628 396.078 149.628C351.932 149.628 308.198 149.628 264.052 149.628C219.906 149.628 176.172 149.628 132.026 149.628C87.8798 149.628 44.1462 149.628 21.8668 149.628H0V0.980301Z" fill="#FF0000"/>
</svg>
