<svg width="53" height="53" viewBox="0 0 53 53" fill="none" xmlns="http://www.w3.org/2000/svg">
<g clip-path="url(#clip0)">
<rect width="52.8" height="52.8" rx="26.4" fill="url(#paint0_linear)"/>
<path d="M44.8637 37.3361C23.9884 38.5662 6.71137 45.0497 1.74609 52.7998H52.8003L52.8004 37.1355C50.2175 37.1121 47.5654 37.1769 44.8637 37.3361Z" fill="url(#paint1_linear)"/>
<g filter="url(#filter0_d)">
<path d="M10.4927 32.0186C10.4927 40.0255 14.6821 47.6195 14.6821 47.6195L17.9435 46.2531C17.9435 46.2531 14.2645 37.7418 14.6821 32.0186C15.1416 25.7227 18.4849 16.3984 18.4849 16.3984H14.2954C14.2954 16.3984 10.4927 25.7013 10.4927 32.0186Z" fill="url(#paint2_linear)"/>
</g>
<g filter="url(#filter1_d)">
<path d="M26.7372 25.9366C22.6012 20.6448 22.7581 19.3637 18.1267 17.6706L14.4372 16.47C14.2719 16.4162 14.1462 16.2822 14.0934 16.1165C13.1727 13.225 10.102 10.598 3.63117 7.67087C6.22844 7.57247 12.3688 10.5945 14.4798 11.6774C14.8188 11.8512 15.2217 11.6165 15.2289 11.2356C15.2657 9.26415 15.275 4.16334 14.5144 0.609262C16.7624 3.58025 17.8931 5.80084 18.3979 11.7762C18.4402 12.2769 18.4781 12.804 18.5119 13.3601C18.5219 13.5237 18.6087 13.6727 18.7448 13.7641C19.5197 14.2848 20.2123 14.8386 20.8439 15.4438C23.305 17.8015 24.8428 20.9389 26.7372 25.9366Z" fill="url(#paint3_linear)"/>
<path d="M18.3979 11.7762C18.4402 12.2769 18.4781 12.804 18.5119 13.3601C18.5219 13.5237 18.6087 13.6727 18.7448 13.7641C19.5197 14.2848 20.2123 14.8386 20.8439 15.4438C23.9316 11.6644 26.0268 13.2926 31.1989 13.6781C25.685 12.0777 23.7632 10.3712 18.3979 11.7762Z" fill="url(#paint4_linear)"/>
</g>
<g filter="url(#filter2_d)">
<path d="M43.8536 18.4843C43.1655 18.0541 43.1303 17.9021 42.5347 17.9012L42.3113 17.909C42.1374 17.915 41.9773 17.8245 41.8365 17.7222C41.5763 17.5329 41.1497 17.4157 40.4761 17.3646C40.6168 17.3072 40.8821 17.2985 41.1506 17.3089C41.5312 17.3237 41.8312 16.9627 41.6775 16.6141C41.5996 16.4375 41.5115 16.2589 41.4197 16.1123C41.791 16.3526 42.01 16.5552 42.3061 17.1863C42.3757 17.3347 42.5089 17.4417 42.6623 17.4996C43.0815 17.6579 43.3994 17.957 43.8536 18.4843Z" fill="url(#paint5_linear)"/>
</g>
<g filter="url(#filter3_d)">
<path d="M42.8995 14.9277C42.2114 14.4975 42.1762 14.3454 41.5806 14.3446L41.3572 14.3523C41.1833 14.3583 41.0232 14.2679 40.8824 14.1656C40.6222 13.9763 40.1955 13.8591 39.522 13.8079C39.6627 13.7505 39.928 13.7419 40.1965 13.7523C40.5771 13.767 40.8771 13.406 40.7234 13.0575C40.6455 12.8809 40.5574 12.7022 40.4656 12.5557C40.8369 12.796 41.0559 12.9986 41.352 13.6297C41.4216 13.7781 41.5548 13.8851 41.7082 13.943C42.1274 14.1012 42.4453 14.4003 42.8995 14.9277Z" fill="url(#paint6_linear)"/>
</g>
<g filter="url(#filter4_d)">
<path d="M34.4947 17.2987C33.8066 16.8686 33.7714 16.7165 33.1758 16.7157L32.9524 16.7234C32.7785 16.7294 32.6184 16.639 32.4777 16.5367C32.2174 16.3474 31.7908 16.2302 31.1172 16.179C31.258 16.1216 31.5232 16.113 31.7917 16.1234C32.1723 16.1381 32.4723 15.7771 32.3186 15.4286C32.2407 15.252 32.1526 15.0733 32.0608 14.9268C32.4322 15.1671 32.6511 15.3697 32.9472 16.0008C33.0168 16.1492 33.15 16.2562 33.3034 16.3141C33.7226 16.4723 34.0406 16.7714 34.4947 17.2987Z" fill="url(#paint7_linear)"/>
</g>
<g filter="url(#filter5_d)">
<path d="M38.5943 16.7831C37.9062 16.3529 37.8711 16.2009 37.2754 16.2001L37.052 16.2078C36.8781 16.2138 36.718 16.1234 36.5773 16.0211C36.317 15.8318 35.8904 15.7146 35.2168 15.6634C35.3576 15.606 35.6228 15.5973 35.8913 15.6078C36.2719 15.6225 36.5719 15.2615 36.4182 14.913C36.3404 14.7364 36.2522 14.5577 36.1604 14.4111C36.5318 14.6514 36.7507 14.854 37.0468 15.4852C37.1164 15.6336 37.2496 15.7405 37.403 15.7984C37.8222 15.9567 38.1402 16.2558 38.5943 16.7831Z" fill="url(#paint8_linear)"/>
</g>
<g filter="url(#filter6_d)">
<path d="M39.3936 11.1376C38.7055 10.7074 38.6704 10.5554 38.0747 10.5546L37.8513 10.5623C37.6774 10.5683 37.5173 10.4779 37.3766 10.3755C37.1163 10.1863 36.6897 10.0691 36.0161 10.0179C36.1569 9.9605 36.4221 9.95184 36.6906 9.96224C37.0712 9.97699 37.3712 9.61601 37.2175 9.26746C37.1397 9.09087 37.0515 8.91217 36.9598 8.76562C37.3311 9.00593 37.55 9.20854 37.8461 9.83966C37.9157 9.98805 38.0489 10.095 38.2023 10.1529C38.6215 10.3112 38.9395 10.6103 39.3936 11.1376Z" fill="url(#paint9_linear)"/>
</g>
<g filter="url(#filter7_d)">
<path d="M31.184 26.3275C30.1598 26.3275 29.378 26.0426 28.8386 25.4729C28.3052 24.9032 28.0386 24.0941 28.0386 23.0456C28.0386 22.5244 28.1204 22.0608 28.284 21.6547C28.4477 21.2426 28.6719 20.8972 28.9568 20.6184C29.2416 20.3335 29.581 20.1184 29.9749 19.9729C30.3689 19.8275 30.7961 19.7547 31.2568 19.7547C31.5234 19.7547 31.7658 19.7759 31.984 19.8184C32.2022 19.8547 32.3931 19.9002 32.5568 19.9547C32.7204 20.0032 32.8568 20.0547 32.9658 20.1093C33.0749 20.1638 33.1537 20.2062 33.2022 20.2365L32.7931 21.382C32.5992 21.279 32.3719 21.1911 32.1113 21.1184C31.8568 21.0456 31.5658 21.0093 31.2386 21.0093C31.0204 21.0093 30.8052 21.0456 30.5931 21.1184C30.3871 21.1911 30.2022 21.3093 30.0386 21.4729C29.881 21.6305 29.7537 21.8365 29.6568 22.0911C29.5598 22.3456 29.5113 22.6547 29.5113 23.0184C29.5113 23.3093 29.5416 23.582 29.6022 23.8366C29.6689 24.085 29.7719 24.3002 29.9113 24.482C30.0568 24.6638 30.2446 24.8093 30.4749 24.9184C30.7052 25.0214 30.984 25.0729 31.3113 25.0729C31.5174 25.0729 31.7022 25.0608 31.8658 25.0366C32.0295 25.0123 32.1749 24.985 32.3022 24.9547C32.4295 24.9184 32.5416 24.879 32.6386 24.8366C32.7355 24.7941 32.8234 24.7547 32.9022 24.7184L33.2931 25.8547C33.0931 25.976 32.8113 26.085 32.4477 26.182C32.084 26.279 31.6628 26.3275 31.184 26.3275ZM36.0313 25.2547C36.1647 25.2547 36.2919 25.2517 36.4132 25.2456C36.5344 25.2396 36.6313 25.2305 36.7041 25.2184V24.1911C36.6495 24.179 36.5677 24.1669 36.4586 24.1547C36.3495 24.1426 36.2495 24.1366 36.1586 24.1366C36.0313 24.1366 35.9101 24.1456 35.795 24.1638C35.6859 24.1759 35.5889 24.2032 35.5041 24.2456C35.4192 24.2881 35.3526 24.3456 35.3041 24.4184C35.2556 24.4911 35.2313 24.582 35.2313 24.6911C35.2313 24.9032 35.301 25.0517 35.4404 25.1366C35.5859 25.2153 35.7829 25.2547 36.0313 25.2547ZM35.9222 21.2911C36.3222 21.2911 36.6556 21.3365 36.9223 21.4275C37.1889 21.5184 37.401 21.6487 37.5586 21.8184C37.7223 21.9881 37.8374 22.1941 37.9041 22.4366C37.9707 22.679 38.0041 22.9487 38.0041 23.2456V26.0638C37.8101 26.1063 37.5404 26.1547 37.195 26.2093C36.8495 26.2699 36.4313 26.3002 35.9404 26.3002C35.6313 26.3002 35.3495 26.2729 35.095 26.2184C34.8465 26.1638 34.6313 26.076 34.4495 25.9547C34.2677 25.8275 34.1283 25.6638 34.0313 25.4638C33.9344 25.2638 33.8859 25.0184 33.8859 24.7275C33.8859 24.4487 33.9404 24.2123 34.0495 24.0184C34.1647 23.8244 34.3162 23.6699 34.5041 23.5547C34.6919 23.4396 34.9071 23.3578 35.1495 23.3093C35.3919 23.2547 35.6435 23.2275 35.9041 23.2275C36.0798 23.2275 36.2344 23.2366 36.3677 23.2547C36.5071 23.2669 36.6192 23.285 36.7041 23.3093V23.182C36.7041 22.9517 36.6344 22.7669 36.495 22.6275C36.3556 22.4881 36.1132 22.4184 35.7677 22.4184C35.5374 22.4184 35.3101 22.4366 35.0859 22.4729C34.8616 22.5032 34.6677 22.5487 34.5041 22.6093L34.3313 21.5184C34.4101 21.4941 34.5071 21.4699 34.6222 21.4456C34.7435 21.4153 34.8738 21.3911 35.0132 21.3729C35.1525 21.3487 35.298 21.3305 35.4495 21.3184C35.6071 21.3002 35.7647 21.2911 35.9222 21.2911ZM40.6017 25.2275C40.8501 25.2275 41.0259 25.2032 41.1289 25.1547C41.232 25.1063 41.2835 25.0123 41.2835 24.8729C41.2835 24.7638 41.2168 24.6699 41.0835 24.5911C40.9501 24.5063 40.7471 24.4123 40.4744 24.3093C40.2623 24.2305 40.0683 24.1487 39.8926 24.0638C39.7229 23.979 39.5774 23.879 39.4562 23.7638C39.335 23.6426 39.2411 23.5002 39.1744 23.3366C39.1077 23.1729 39.0744 22.9759 39.0744 22.7456C39.0744 22.2972 39.2411 21.9426 39.5744 21.682C39.9077 21.4214 40.3653 21.2911 40.9471 21.2911C41.238 21.2911 41.5168 21.3184 41.7835 21.3729C42.0501 21.4214 42.2623 21.4759 42.4198 21.5365L42.1835 22.5911C42.0259 22.5366 41.8532 22.4881 41.6653 22.4456C41.4835 22.4032 41.2774 22.382 41.0471 22.382C40.6229 22.382 40.4108 22.5002 40.4108 22.7366C40.4108 22.7911 40.4198 22.8396 40.438 22.882C40.4562 22.9244 40.4926 22.9669 40.5471 23.0093C40.6017 23.0456 40.6744 23.0881 40.7653 23.1366C40.8623 23.179 40.9835 23.2275 41.1289 23.282C41.4259 23.3911 41.6714 23.5002 41.8653 23.6093C42.0592 23.7123 42.2108 23.8275 42.3198 23.9547C42.435 24.0759 42.5138 24.2123 42.5562 24.3638C42.6047 24.5153 42.6289 24.6911 42.6289 24.8911C42.6289 25.3638 42.4502 25.7214 42.0926 25.9638C41.7411 26.2063 41.2411 26.3275 40.5926 26.3275C40.1683 26.3275 39.8138 26.2911 39.5289 26.2184C39.2501 26.1456 39.0562 26.085 38.9471 26.0366L39.1744 24.9366C39.4047 25.0275 39.6411 25.1002 39.8835 25.1547C40.1259 25.2032 40.3653 25.2275 40.6017 25.2275ZM43.5958 20.2275L44.9503 20.0093V21.4184H46.5776V22.5456H44.9503V24.2275C44.9503 24.5123 44.9988 24.7396 45.0958 24.9093C45.1988 25.079 45.4018 25.1638 45.7049 25.1638C45.8503 25.1638 45.9988 25.1517 46.1503 25.1275C46.3079 25.0972 46.4503 25.0578 46.5776 25.0093L46.7685 26.0638C46.6049 26.1305 46.4231 26.1881 46.2231 26.2366C46.0231 26.285 45.7776 26.3093 45.4867 26.3093C45.117 26.3093 44.8109 26.2608 44.5685 26.1638C44.3261 26.0608 44.1321 25.9214 43.9867 25.7456C43.8412 25.5638 43.7382 25.3456 43.6776 25.0911C43.623 24.8366 43.5958 24.5547 43.5958 24.2456V20.2275Z" fill="#4A4A4A"/>
<path d="M26.1019 34.3369C26.0263 34.0894 25.9403 33.835 25.8441 33.5738C25.7547 33.3125 25.6653 33.0513 25.576 32.79H22.7916C22.7022 33.0513 22.6094 33.3125 22.5131 33.5738C22.4238 33.835 22.3413 34.0894 22.2656 34.3369H20.595C20.8631 33.5669 21.1175 32.8554 21.3581 32.2022C21.5988 31.5491 21.8325 30.9338 22.0594 30.3563C22.2931 29.7788 22.52 29.2322 22.74 28.7166C22.9669 28.1941 23.2006 27.6854 23.4413 27.1904H24.9778C25.2116 27.6854 25.4419 28.1941 25.6688 28.7166C25.8956 29.2322 26.1225 29.7788 26.3494 30.3563C26.5831 30.9338 26.8203 31.5491 27.061 32.2022C27.3016 32.8554 27.556 33.5669 27.8241 34.3369H26.1019ZM24.1735 28.8094C24.1391 28.9125 24.0875 29.0535 24.0188 29.2322C23.95 29.411 23.871 29.6172 23.7816 29.851C23.6922 30.0847 23.5925 30.3425 23.4825 30.6244C23.3794 30.9063 23.2728 31.2019 23.1628 31.5113H25.1944C25.0844 31.2019 24.9778 30.9063 24.8747 30.6244C24.7716 30.3425 24.6719 30.0847 24.5756 29.851C24.4863 29.6172 24.4072 29.411 24.3385 29.2322C24.2697 29.0535 24.2147 28.9125 24.1735 28.8094ZM31.6741 31.2225C31.5366 31.745 31.3888 32.2641 31.2307 32.7797C31.0794 33.2954 30.9179 33.8144 30.746 34.3369H29.5497C29.426 34.0482 29.2919 33.7044 29.1475 33.3057C29.0032 32.9069 28.8519 32.4738 28.6938 32.0063C28.5425 31.5319 28.3844 31.0335 28.2194 30.511C28.0613 29.9816 27.9066 29.4488 27.7554 28.9125H29.3744C29.4294 29.16 29.4879 29.4316 29.5497 29.7272C29.6185 30.016 29.6872 30.315 29.756 30.6244C29.8316 30.9338 29.9072 31.2466 29.9829 31.5629C30.0654 31.8722 30.1479 32.1713 30.2304 32.46C30.3197 32.1575 30.4057 31.8482 30.4882 31.5319C30.5775 31.2157 30.66 30.9063 30.7357 30.6038C30.8182 30.2944 30.8938 29.9988 30.9625 29.7169C31.0382 29.4282 31.1035 29.16 31.1585 28.9125H32.2722C32.3272 29.16 32.3891 29.4282 32.4579 29.7169C32.5266 29.9988 32.5988 30.2944 32.6744 30.6038C32.75 30.9063 32.8291 31.2157 32.9116 31.5319C32.9941 31.8482 33.08 32.1575 33.1694 32.46C33.2519 32.1713 33.3344 31.8722 33.4169 31.5629C33.4994 31.2466 33.575 30.9338 33.6438 30.6244C33.7194 30.315 33.7882 30.016 33.85 29.7272C33.9188 29.4316 33.9807 29.16 34.0357 28.9125H35.6341C35.4829 29.4488 35.3247 29.9816 35.1597 30.511C35.0016 31.0335 34.8435 31.5319 34.6854 32.0063C34.5341 32.4738 34.3829 32.9069 34.2316 33.3057C34.0872 33.7044 33.9532 34.0482 33.8294 34.3369H32.6332C32.4613 33.8144 32.2929 33.2954 32.1279 32.7797C31.9629 32.2641 31.8116 31.745 31.6741 31.2225ZM38.4331 33.2644C38.5843 33.2644 38.7287 33.261 38.8662 33.2541C39.0037 33.2472 39.1137 33.2369 39.1962 33.2232V32.0579C39.1343 32.0441 39.0415 32.0304 38.9178 32.0166C38.794 32.0029 38.6806 31.996 38.5774 31.996C38.4331 31.996 38.2956 32.0063 38.1649 32.0269C38.0412 32.0407 37.9312 32.0716 37.8349 32.1197C37.7387 32.1679 37.6631 32.2332 37.6081 32.3157C37.5531 32.3982 37.5256 32.5013 37.5256 32.625C37.5256 32.8657 37.6046 33.0341 37.7628 33.1304C37.9278 33.2197 38.1512 33.2644 38.4331 33.2644ZM38.3093 28.7682C38.7631 28.7682 39.1412 28.8197 39.4437 28.9229C39.7462 29.026 39.9868 29.1738 40.1656 29.3663C40.3512 29.5588 40.4818 29.7925 40.5574 30.0675C40.6331 30.3425 40.6709 30.6485 40.6709 30.9854V34.1822C40.4509 34.2304 40.1449 34.2854 39.7531 34.3472C39.3612 34.416 38.8868 34.4504 38.3299 34.4504C37.9793 34.4504 37.6596 34.4194 37.3709 34.3575C37.089 34.2957 36.8449 34.196 36.6387 34.0585C36.4324 33.9141 36.2743 33.7285 36.1643 33.5016C36.0543 33.2747 35.9993 32.9963 35.9993 32.6663C35.9993 32.35 36.0612 32.0819 36.1849 31.8619C36.3156 31.6419 36.4874 31.4666 36.7006 31.336C36.9137 31.2054 37.1578 31.1125 37.4328 31.0575C37.7078 30.9957 37.9931 30.9647 38.2887 30.9647C38.4881 30.9647 38.6634 30.975 38.8146 30.9957C38.9728 31.0094 39.0999 31.03 39.1962 31.0575V30.9132C39.1962 30.6519 39.1171 30.4422 38.959 30.2841C38.8009 30.126 38.5259 30.0469 38.134 30.0469C37.8728 30.0469 37.6149 30.0675 37.3606 30.1088C37.1062 30.1432 36.8862 30.1947 36.7006 30.2635L36.5046 29.026C36.594 28.9985 36.704 28.971 36.8346 28.9435C36.9721 28.9091 37.1199 28.8816 37.2781 28.861C37.4362 28.8335 37.6012 28.8129 37.7731 28.7991C37.9518 28.7785 38.1306 28.7682 38.3093 28.7682ZM46.7453 28.9125C46.436 29.9575 46.1128 30.9372 45.776 31.8516C45.4391 32.766 45.0713 33.6529 44.6725 34.5122C44.5282 34.8216 44.3838 35.0829 44.2394 35.296C44.095 35.516 43.9369 35.6947 43.765 35.8322C43.5932 35.9766 43.3972 36.0797 43.1772 36.1416C42.9641 36.2104 42.7132 36.2447 42.4244 36.2447C42.1838 36.2447 41.9603 36.2207 41.7541 36.1725C41.5547 36.1313 41.3897 36.0832 41.2591 36.0282L41.5272 34.801C41.6853 34.856 41.8263 34.8938 41.95 34.9144C42.0738 34.935 42.2044 34.9454 42.3419 34.9454C42.6169 34.9454 42.8266 34.8697 42.971 34.7185C43.1222 34.5741 43.2494 34.3713 43.3525 34.11C43.0019 33.4225 42.6513 32.6525 42.3007 31.8C41.95 30.9407 41.62 29.9782 41.3107 28.9125H42.94C43.0088 29.1807 43.0878 29.4729 43.1772 29.7891C43.2735 30.0985 43.3732 30.4147 43.4763 30.7379C43.5794 31.0541 43.6825 31.3635 43.7857 31.666C43.8957 31.9685 43.9988 32.2435 44.095 32.491C44.1844 32.2435 44.2772 31.9685 44.3735 31.666C44.4697 31.3635 44.5625 31.0541 44.6519 30.7379C44.7482 30.4147 44.8375 30.0985 44.92 29.7891C45.0094 29.4729 45.0885 29.1807 45.1572 28.9125H46.7453Z" fill="#4A4A4A"/>
</g>
</g>
<defs>
<filter id="filter0_d" x="10.4411" y="16.3469" width="8.19844" height="31.4273" filterUnits="userSpaceOnUse" color-interpolation-filters="sRGB">
<feFlood flood-opacity="0" result="BackgroundImageFix"/>
<feColorMatrix in="SourceAlpha" type="matrix" values="0 0 0 0 0 0 0 0 0 0 0 0 0 0 0 0 0 0 127 0" result="hardAlpha"/>
<feOffset dx="0.0515625" dy="0.0515625"/>
<feGaussianBlur stdDeviation="0.0515625"/>
<feColorMatrix type="matrix" values="0 0 0 0 0 0 0 0 0 0 0 0 0 0 0 0 0 0 0.1 0"/>
<feBlend mode="normal" in2="BackgroundImageFix" result="effect1_dropShadow"/>
<feBlend mode="normal" in="SourceGraphic" in2="effect1_dropShadow" result="shape"/>
</filter>
<filter id="filter1_d" x="0.334473" y="-2.19141" width="33.4995" height="28.5148" filterUnits="userSpaceOnUse" color-interpolation-filters="sRGB">
<feFlood flood-opacity="0" result="BackgroundImageFix"/>
<feColorMatrix in="SourceAlpha" type="matrix" values="0 0 0 0 0 0 0 0 0 0 0 0 0 0 0 0 0 0 127 0" result="hardAlpha"/>
<feOffset dx="0.128906" dy="0.128906"/>
<feGaussianBlur stdDeviation="0.128906"/>
<feColorMatrix type="matrix" values="0 0 0 0 0 0 0 0 0 0 0 0 0 0 0 0 0 0 0.25 0"/>
<feBlend mode="normal" in2="BackgroundImageFix" result="effect1_dropShadow"/>
<feBlend mode="normal" in="SourceGraphic" in2="effect1_dropShadow" result="shape"/>
</filter>
<filter id="filter2_d" x="40.4761" y="16.1123" width="3.57086" height="2.56535" filterUnits="userSpaceOnUse" color-interpolation-filters="sRGB">
<feFlood flood-opacity="0" result="BackgroundImageFix"/>
<feColorMatrix in="SourceAlpha" type="matrix" values="0 0 0 0 0 0 0 0 0 0 0 0 0 0 0 0 0 0 127 0" result="hardAlpha"/>
<feOffset dx="0.128906" dy="0.128906"/>
<feGaussianBlur stdDeviation="0.0322266"/>
<feColorMatrix type="matrix" values="0 0 0 0 0 0 0 0 0 0 0 0 0 0 0 0 0 0 0.25 0"/>
<feBlend mode="normal" in2="BackgroundImageFix" result="effect1_dropShadow"/>
<feBlend mode="normal" in="SourceGraphic" in2="effect1_dropShadow" result="shape"/>
</filter>
<filter id="filter3_d" x="39.522" y="12.5557" width="3.57086" height="2.56535" filterUnits="userSpaceOnUse" color-interpolation-filters="sRGB">
<feFlood flood-opacity="0" result="BackgroundImageFix"/>
<feColorMatrix in="SourceAlpha" type="matrix" values="0 0 0 0 0 0 0 0 0 0 0 0 0 0 0 0 0 0 127 0" result="hardAlpha"/>
<feOffset dx="0.128906" dy="0.128906"/>
<feGaussianBlur stdDeviation="0.0322266"/>
<feColorMatrix type="matrix" values="0 0 0 0 0 0 0 0 0 0 0 0 0 0 0 0 0 0 0.25 0"/>
<feBlend mode="normal" in2="BackgroundImageFix" result="effect1_dropShadow"/>
<feBlend mode="normal" in="SourceGraphic" in2="effect1_dropShadow" result="shape"/>
</filter>
<filter id="filter4_d" x="31.1172" y="14.9268" width="3.57086" height="2.56535" filterUnits="userSpaceOnUse" color-interpolation-filters="sRGB">
<feFlood flood-opacity="0" result="BackgroundImageFix"/>
<feColorMatrix in="SourceAlpha" type="matrix" values="0 0 0 0 0 0 0 0 0 0 0 0 0 0 0 0 0 0 127 0" result="hardAlpha"/>
<feOffset dx="0.128906" dy="0.128906"/>
<feGaussianBlur stdDeviation="0.0322266"/>
<feColorMatrix type="matrix" values="0 0 0 0 0 0 0 0 0 0 0 0 0 0 0 0 0 0 0.25 0"/>
<feBlend mode="normal" in2="BackgroundImageFix" result="effect1_dropShadow"/>
<feBlend mode="normal" in="SourceGraphic" in2="effect1_dropShadow" result="shape"/>
</filter>
<filter id="filter5_d" x="35.2168" y="14.4111" width="3.57086" height="2.56535" filterUnits="userSpaceOnUse" color-interpolation-filters="sRGB">
<feFlood flood-opacity="0" result="BackgroundImageFix"/>
<feColorMatrix in="SourceAlpha" type="matrix" values="0 0 0 0 0 0 0 0 0 0 0 0 0 0 0 0 0 0 127 0" result="hardAlpha"/>
<feOffset dx="0.128906" dy="0.128906"/>
<feGaussianBlur stdDeviation="0.0322266"/>
<feColorMatrix type="matrix" values="0 0 0 0 0 0 0 0 0 0 0 0 0 0 0 0 0 0 0.25 0"/>
<feBlend mode="normal" in2="BackgroundImageFix" result="effect1_dropShadow"/>
<feBlend mode="normal" in="SourceGraphic" in2="effect1_dropShadow" result="shape"/>
</filter>
<filter id="filter6_d" x="36.0161" y="8.76562" width="3.57086" height="2.56535" filterUnits="userSpaceOnUse" color-interpolation-filters="sRGB">
<feFlood flood-opacity="0" result="BackgroundImageFix"/>
<feColorMatrix in="SourceAlpha" type="matrix" values="0 0 0 0 0 0 0 0 0 0 0 0 0 0 0 0 0 0 127 0" result="hardAlpha"/>
<feOffset dx="0.128906" dy="0.128906"/>
<feGaussianBlur stdDeviation="0.0322266"/>
<feColorMatrix type="matrix" values="0 0 0 0 0 0 0 0 0 0 0 0 0 0 0 0 0 0 0.25 0"/>
<feBlend mode="normal" in2="BackgroundImageFix" result="effect1_dropShadow"/>
<feBlend mode="normal" in="SourceGraphic" in2="effect1_dropShadow" result="shape"/>
</filter>
<filter id="filter7_d" x="20.3465" y="19.5062" width="27.168" height="17.4846" filterUnits="userSpaceOnUse" color-interpolation-filters="sRGB">
<feFlood flood-opacity="0" result="BackgroundImageFix"/>
<feColorMatrix in="SourceAlpha" type="matrix" values="0 0 0 0 0 0 0 0 0 0 0 0 0 0 0 0 0 0 127 0" result="hardAlpha"/>
<feOffset dx="0.248674" dy="0.248674"/>
<feGaussianBlur stdDeviation="0.248674"/>
<feColorMatrix type="matrix" values="0 0 0 0 0 0 0 0 0 0 0 0 0 0 0 0 0 0 0.25 0"/>
<feBlend mode="normal" in2="BackgroundImageFix" result="effect1_dropShadow"/>
<feBlend mode="normal" in="SourceGraphic" in2="effect1_dropShadow" result="shape"/>
</filter>
<linearGradient id="paint0_linear" x1="52.8" y1="0" x2="0" y2="52.8" gradientUnits="userSpaceOnUse">
<stop stop-color="#78ECF2"/>
<stop offset="1" stop-color="#71AFE5"/>
</linearGradient>
<linearGradient id="paint1_linear" x1="-0.72153" y1="40.0223" x2="49.6454" y2="57.0431" gradientUnits="userSpaceOnUse">
<stop stop-color="#F2D478"/>
<stop offset="0.927083" stop-color="#EDC575"/>
</linearGradient>
<linearGradient id="paint2_linear" x1="14.4888" y1="16.3984" x2="18.111" y2="45.2219" gradientUnits="userSpaceOnUse">
<stop stop-color="#E6AB71"/>
<stop offset="0.958971" stop-color="#E6AB71"/>
<stop offset="1" stop-color="#E6AB71" stop-opacity="0"/>
</linearGradient>
<linearGradient id="paint3_linear" x1="6.77409" y1="-2.20799" x2="27.0663" y2="26.2759" gradientUnits="userSpaceOnUse">
<stop stop-color="#60B358"/>
<stop offset="1" stop-color="#65CC76"/>
</linearGradient>
<linearGradient id="paint4_linear" x1="6.77409" y1="-2.20799" x2="27.0663" y2="26.2759" gradientUnits="userSpaceOnUse">
<stop stop-color="#60B358"/>
<stop offset="1" stop-color="#65CC76"/>
</linearGradient>
<linearGradient id="paint5_linear" x1="40.4247" y1="16.1123" x2="43.9068" y2="18.5065" gradientUnits="userSpaceOnUse">
<stop stop-color="#8D8D8D"/>
<stop offset="1" stop-color="#424242"/>
</linearGradient>
<linearGradient id="paint6_linear" x1="39.4706" y1="12.5557" x2="42.9527" y2="14.9499" gradientUnits="userSpaceOnUse">
<stop stop-color="#8D8D8D"/>
<stop offset="1" stop-color="#424242"/>
</linearGradient>
<linearGradient id="paint7_linear" x1="31.0658" y1="14.9268" x2="34.5479" y2="17.321" gradientUnits="userSpaceOnUse">
<stop stop-color="#8D8D8D"/>
<stop offset="1" stop-color="#424242"/>
</linearGradient>
<linearGradient id="paint8_linear" x1="35.1654" y1="14.4111" x2="38.6475" y2="16.8053" gradientUnits="userSpaceOnUse">
<stop stop-color="#8D8D8D"/>
<stop offset="1" stop-color="#424242"/>
</linearGradient>
<linearGradient id="paint9_linear" x1="35.9647" y1="8.76562" x2="39.4469" y2="11.1598" gradientUnits="userSpaceOnUse">
<stop stop-color="#8D8D8D"/>
<stop offset="1" stop-color="#424242"/>
</linearGradient>
<clipPath id="clip0">
<rect width="52.8" height="52.8" rx="26.4" fill="white"/>
</clipPath>
</defs>
</svg>
