<svg width="2048" height="2048" fill="none" xmlns="http://www.w3.org/2000/svg"><rect width="2048" height="2048" rx="1024" fill="url(#a)"/><g filter="url(#b)"><path d="M1673 1235c-76.4-47.88-80.3-64.8-146.44-64.89l-44.92 1.55c-6.75.23-13.04-3.07-17.58-8.07-26.3-29.05-76.53-46.4-166.06-53.21 26.77-10.95 94.1-5.97 134.31-1.68 14.69 1.56 26.31-12.45 21.25-26.33-11.21-30.71-30.17-78.37-50.79-111.37 44.42 28.819 69.21 52.77 106.22 136.76 2.57 5.82 7.72 10.09 13.85 11.8 55.91 15.59 93.48 49.47 150.16 115.44Z" fill="#424242"/></g><g filter="url(#c)"><path d="M1567 839c-76.4-47.697-80.3-64.553-146.44-64.647l-44.94 1.549c-6.74.232-13.02-3.056-17.56-8.046-26.3-28.932-76.53-46.215-166.06-53.006 26.77-10.902 94.08-5.948 134.29-1.678 14.7 1.56 26.3-12.468 21.22-26.344-11.21-30.602-30.15-77.994-50.74-110.828 44.42 28.707 69.2 52.562 106.21 136.215 2.57 5.813 7.73 10.075 13.86 11.777 55.91 15.536 93.48 49.287 150.16 115.008Z" fill="#424242"/></g><g filter="url(#d)"><path d="M632 1103c-76.401-47.88-80.3-64.8-146.439-64.89l-44.917 1.55c-6.753.23-13.047-3.07-17.583-8.07-26.298-29.05-76.529-46.396-166.061-53.213 26.772-10.944 94.101-5.968 134.314-1.681 14.688 1.565 26.303-12.445 21.242-26.323-11.201-30.714-30.166-78.37-50.784-111.373 44.423 28.819 69.205 52.766 106.219 136.756 2.565 5.82 7.723 10.091 13.849 11.8C537.755 1003.15 575.325 1037.03 632 1103Z" fill="#424242"/></g><g filter="url(#e)"><path d="M1088 1046c-76.4-47.878-80.3-64.799-146.439-64.892l-44.917 1.553c-6.753.234-13.047-3.067-17.583-8.075-26.298-29.043-76.529-46.392-166.061-53.209 26.772-10.944 94.101-5.968 134.314-1.681 14.688 1.565 26.303-12.445 21.242-26.323-11.201-30.714-30.166-78.37-50.784-111.373 44.423 28.819 69.205 52.766 106.219 136.756 2.565 5.82 7.723 10.091 13.849 11.8 55.915 15.595 93.48 49.475 150.16 115.444Z" fill="#424242"/></g><g filter="url(#f)"><path d="M1177 418c-76.4-47.878-80.3-64.799-146.44-64.892l-44.916 1.553c-6.753.234-13.047-3.067-17.583-8.075-26.298-29.043-76.529-46.392-166.061-53.209 26.772-10.944 94.101-5.968 134.314-1.681 14.688 1.565 26.303-12.445 21.242-26.323-11.201-30.714-30.166-78.37-50.784-111.373 44.423 28.819 69.205 52.766 106.218 136.756 2.57 5.82 7.72 10.091 13.85 11.8 55.91 15.595 93.48 49.475 150.16 115.444Z" fill="#424242"/></g><path fill-rule="evenodd" clip-rule="evenodd" d="M354.304 1798.67C533.844 1954.02 767.947 2048 1024 2048c417.23 0 776.18-249.53 935.75-607.5-72.05.78-145.34 3.32-219.59 7.69-570.76 33.64-1072.169 168.52-1385.856 350.48Z" fill="url(#g)"/><path fill-rule="evenodd" clip-rule="evenodd" d="M354.304 1798.67c313.687-181.96 815.096-316.84 1385.856-350.48 74.25-4.37 147.54-6.91 219.59-7.69C1800.18 1798.47 1441.23 2048 1024 2048c-256.053 0-490.156-93.98-669.696-249.33Z" fill="url(#h)"/><defs><filter id="b" x="1298" y="971" width="382.5" height="271.5" filterUnits="userSpaceOnUse" color-interpolation-filters="sRGB"><feFlood flood-opacity="0" result="BackgroundImageFix"/><feColorMatrix in="SourceAlpha" values="0 0 0 0 0 0 0 0 0 0 0 0 0 0 0 0 0 0 127 0" result="hardAlpha"/><feOffset dx="5" dy="5"/><feGaussianBlur stdDeviation="1.25"/><feColorMatrix values="0 0 0 0 0 0 0 0 0 0 0 0 0 0 0 0 0 0 0.25 0"/><feBlend in2="BackgroundImageFix" result="effect1_dropShadow_3103:7645"/><feBlend in="SourceGraphic" in2="effect1_dropShadow_3103:7645" result="shape"/></filter><filter id="c" x="1192" y="576" width="382.5" height="270.5" filterUnits="userSpaceOnUse" color-interpolation-filters="sRGB"><feFlood flood-opacity="0" result="BackgroundImageFix"/><feColorMatrix in="SourceAlpha" values="0 0 0 0 0 0 0 0 0 0 0 0 0 0 0 0 0 0 127 0" result="hardAlpha"/><feOffset dx="5" dy="5"/><feGaussianBlur stdDeviation="1.25"/><feColorMatrix values="0 0 0 0 0 0 0 0 0 0 0 0 0 0 0 0 0 0 0.25 0"/><feBlend in2="BackgroundImageFix" result="effect1_dropShadow_3103:7645"/><feBlend in="SourceGraphic" in2="effect1_dropShadow_3103:7645" result="shape"/></filter><filter id="d" x="257" y="839" width="382.5" height="271.5" filterUnits="userSpaceOnUse" color-interpolation-filters="sRGB"><feFlood flood-opacity="0" result="BackgroundImageFix"/><feColorMatrix in="SourceAlpha" values="0 0 0 0 0 0 0 0 0 0 0 0 0 0 0 0 0 0 127 0" result="hardAlpha"/><feOffset dx="5" dy="5"/><feGaussianBlur stdDeviation="1.25"/><feColorMatrix values="0 0 0 0 0 0 0 0 0 0 0 0 0 0 0 0 0 0 0.25 0"/><feBlend in2="BackgroundImageFix" result="effect1_dropShadow_3103:7645"/><feBlend in="SourceGraphic" in2="effect1_dropShadow_3103:7645" result="shape"/></filter><filter id="e" x="713" y="782" width="382.5" height="271.5" filterUnits="userSpaceOnUse" color-interpolation-filters="sRGB"><feFlood flood-opacity="0" result="BackgroundImageFix"/><feColorMatrix in="SourceAlpha" values="0 0 0 0 0 0 0 0 0 0 0 0 0 0 0 0 0 0 127 0" result="hardAlpha"/><feOffset dx="5" dy="5"/><feGaussianBlur stdDeviation="1.25"/><feColorMatrix values="0 0 0 0 0 0 0 0 0 0 0 0 0 0 0 0 0 0 0.25 0"/><feBlend in2="BackgroundImageFix" result="effect1_dropShadow_3103:7645"/><feBlend in="SourceGraphic" in2="effect1_dropShadow_3103:7645" result="shape"/></filter><filter id="f" x="802" y="154" width="382.5" height="271.5" filterUnits="userSpaceOnUse" color-interpolation-filters="sRGB"><feFlood flood-opacity="0" result="BackgroundImageFix"/><feColorMatrix in="SourceAlpha" values="0 0 0 0 0 0 0 0 0 0 0 0 0 0 0 0 0 0 127 0" result="hardAlpha"/><feOffset dx="5" dy="5"/><feGaussianBlur stdDeviation="1.25"/><feColorMatrix values="0 0 0 0 0 0 0 0 0 0 0 0 0 0 0 0 0 0 0.25 0"/><feBlend in2="BackgroundImageFix" result="effect1_dropShadow_3103:7645"/><feBlend in="SourceGraphic" in2="effect1_dropShadow_3103:7645" result="shape"/></filter><linearGradient id="a" x1="2048" y1="0" x2="0" y2="2048" gradientUnits="userSpaceOnUse"><stop stop-color="#78ECF2"/><stop offset="1" stop-color="#71AFE5"/></linearGradient><linearGradient id="g" x1="-28" y1="1552.39" x2="1925.63" y2="2212.59" gradientUnits="userSpaceOnUse"><stop stop-color="#F2D478"/><stop offset=".927083" stop-color="#EDC575"/></linearGradient><linearGradient id="h" x1="-28" y1="1552.39" x2="1925.63" y2="2212.59" gradientUnits="userSpaceOnUse"><stop stop-color="#F2D478"/><stop offset=".927083" stop-color="#EDC575"/></linearGradient></defs></svg>