<svg width="75" height="75" viewBox="0 0 75 75" fill="none" xmlns="http://www.w3.org/2000/svg">
<g clip-path="url(#clip0)">
<rect width="75" height="75" rx="37.5" fill="url(#paint0_linear)"/>
<g filter="url(#filter0_d)">
<path d="M15.6183 1.00756C18.0956 2.8301 19.3903 4.47675 19.3903 9.04589C19.3903 19.3678 16.2186 19.9485 21.5208 34.8381C25.7626 46.7499 27.211 49.1637 27.4049 48.8816" stroke="black" stroke-width="0.732422" stroke-linecap="round" stroke-linejoin="bevel"/>
<g filter="url(#filter1_i)">
<path d="M21.5605 35.1094L18.115 36.3502C14.3092 37.7207 12.3351 41.9169 13.7056 45.7227L20.5299 64.673C22.5857 70.3817 28.8801 73.343 34.5888 71.2872V71.2872L21.5605 35.1094Z" fill="#C4C4C4"/>
<path d="M34.379 38.2797C33.0085 34.4739 28.8123 32.4997 25.0065 33.8702L21.5609 35.111L34.5892 71.2888V71.2888C40.2979 69.233 43.2591 62.9387 41.2033 57.23L34.379 38.2797Z" fill="#8D8D8D"/>
<g filter="url(#filter2_i)">
<rect width="4.24805" height="10.6201" rx="0.549316" transform="matrix(-0.940853 0.338816 0.338816 0.940853 25.4819 39.7305)" fill="#424242"/>
</g>
</g>
</g>
<path d="M29.9095 18.1973C28.2591 18.1973 26.9993 17.7383 26.1302 16.8203C25.2708 15.9023 24.8411 14.5986 24.8411 12.9092C24.8411 12.0693 24.973 11.3223 25.2366 10.668C25.5003 10.0039 25.8616 9.44726 26.3206 8.99805C26.7796 8.53906 27.3265 8.19238 27.9612 7.95801C28.596 7.72363 29.2845 7.60644 30.0267 7.60644C30.4564 7.60644 30.847 7.64062 31.1985 7.70898C31.5501 7.76758 31.8577 7.84082 32.1214 7.92871C32.3851 8.00683 32.6048 8.08984 32.7806 8.17773C32.9564 8.26562 33.0833 8.33398 33.1614 8.38281L32.5022 10.2285C32.1897 10.0625 31.8235 9.9209 31.4036 9.80371C30.9935 9.68652 30.5247 9.62793 29.9974 9.62793C29.6458 9.62793 29.2991 9.68652 28.9573 9.80371C28.6253 9.9209 28.3274 10.1113 28.0638 10.375C27.8099 10.6289 27.6048 10.9609 27.4485 11.3711C27.2923 11.7812 27.2142 12.2793 27.2142 12.8652C27.2142 13.334 27.263 13.7734 27.3606 14.1836C27.4681 14.584 27.6341 14.9307 27.8587 15.2236C28.0931 15.5166 28.3958 15.751 28.7669 15.9268C29.138 16.0928 29.5872 16.1758 30.1146 16.1758C30.4466 16.1758 30.7444 16.1562 31.0081 16.1172C31.2718 16.0781 31.5062 16.0342 31.7112 15.9854C31.9163 15.9268 32.097 15.8633 32.2532 15.7949C32.4095 15.7266 32.5511 15.6631 32.678 15.6045L33.3079 17.4355C32.9856 17.6309 32.5315 17.8066 31.9456 17.9629C31.3597 18.1191 30.681 18.1973 29.9095 18.1973ZM37.7089 18.1387C37.0741 18.1289 36.5565 18.0605 36.1561 17.9336C35.7655 17.8066 35.453 17.6309 35.2186 17.4062C34.994 17.1719 34.8378 16.8936 34.7499 16.5713C34.6717 16.2393 34.6327 15.8682 34.6327 15.458V6.97656L36.8153 6.625V15.0186C36.8153 15.2139 36.8299 15.3896 36.8592 15.5459C36.8885 15.7021 36.9423 15.834 37.0204 15.9414C37.1083 16.0488 37.2303 16.1367 37.3866 16.2051C37.5428 16.2734 37.7528 16.3174 38.0165 16.3369L37.7089 18.1387ZM41.4502 17.9922H39.2675V10.2871H41.4502V17.9922ZM41.6552 8.06055C41.6552 8.46094 41.5234 8.77832 41.2597 9.01269C41.0058 9.2373 40.7031 9.34961 40.3515 9.34961C40 9.34961 39.6923 9.2373 39.4287 9.01269C39.1748 8.77832 39.0478 8.46094 39.0478 8.06055C39.0478 7.66016 39.1748 7.34765 39.4287 7.12305C39.6923 6.88867 40 6.77148 40.3515 6.77148C40.7031 6.77148 41.0058 6.88867 41.2597 7.12305C41.5234 7.34765 41.6552 7.66016 41.6552 8.06055ZM43.1356 14.1396C43.1356 13.583 43.2235 13.0605 43.3993 12.5723C43.5849 12.0742 43.8485 11.6445 44.1903 11.2832C44.5321 10.9121 44.9472 10.6191 45.4354 10.4043C45.9237 10.1895 46.4804 10.082 47.1054 10.082C47.5155 10.082 47.8915 10.1211 48.2333 10.1992C48.5751 10.2676 48.9071 10.3701 49.2294 10.5068L48.7753 12.25C48.5702 12.1719 48.3456 12.1035 48.1015 12.0449C47.8573 11.9863 47.5839 11.957 47.2812 11.957C46.6366 11.957 46.1532 12.1572 45.831 12.5576C45.5185 12.958 45.3622 13.4854 45.3622 14.1396C45.3622 14.833 45.5087 15.3701 45.8017 15.751C46.1044 16.1318 46.6269 16.3223 47.369 16.3223C47.6327 16.3223 47.9159 16.2979 48.2187 16.249C48.5214 16.2002 48.7997 16.1221 49.0536 16.0146L49.3612 17.8018C49.1073 17.9092 48.7899 18.002 48.4091 18.0801C48.0282 18.1582 47.6083 18.1973 47.1493 18.1973C46.4462 18.1973 45.8407 18.0947 45.3329 17.8896C44.8251 17.6748 44.4052 17.3867 44.0731 17.0254C43.7509 16.6641 43.5116 16.2393 43.3554 15.751C43.2089 15.2529 43.1356 14.7158 43.1356 14.1396ZM53.0087 13.0703C53.2235 12.8359 53.4433 12.5918 53.6679 12.3379C53.9022 12.084 54.1269 11.835 54.3417 11.5908C54.5565 11.3369 54.7567 11.0977 54.9423 10.873C55.1376 10.6484 55.3036 10.4531 55.4403 10.2871H58.0331C57.5155 10.8828 57.0077 11.4541 56.5097 12.001C56.0214 12.5381 55.4843 13.0947 54.8983 13.6709C55.1913 13.9346 55.494 14.252 55.8065 14.623C56.119 14.9844 56.4218 15.3604 56.7147 15.751C57.0077 16.1416 57.2763 16.5322 57.5204 16.9229C57.7646 17.3135 57.9696 17.6699 58.1356 17.9922H55.6308C55.4745 17.7383 55.2938 17.46 55.0888 17.1572C54.8935 16.8447 54.6835 16.5371 54.4589 16.2344C54.2343 15.9219 53.995 15.624 53.7411 15.3408C53.497 15.0576 53.2528 14.8184 53.0087 14.623V17.9922H50.8261V6.97656L53.0087 6.625V13.0703ZM61.5209 16.4248C61.9213 16.4248 62.2045 16.3857 62.3705 16.3076C62.5365 16.2295 62.6196 16.0781 62.6196 15.8535C62.6196 15.6777 62.5121 15.5264 62.2973 15.3994C62.0824 15.2627 61.7553 15.1113 61.3158 14.9453C60.974 14.8184 60.6615 14.6865 60.3783 14.5498C60.1049 14.4131 59.8705 14.252 59.6752 14.0664C59.4799 13.8711 59.3285 13.6416 59.2211 13.3779C59.1137 13.1143 59.06 12.7969 59.06 12.4258C59.06 11.7031 59.3285 11.1318 59.8656 10.7119C60.4028 10.292 61.1401 10.082 62.0776 10.082C62.5463 10.082 62.9955 10.126 63.4252 10.2139C63.8549 10.292 64.1967 10.3799 64.4506 10.4775L64.0697 12.1768C63.8158 12.0889 63.5375 12.0107 63.2348 11.9424C62.9418 11.874 62.6098 11.8398 62.2387 11.8398C61.5551 11.8398 61.2133 12.0303 61.2133 12.4111C61.2133 12.499 61.228 12.5771 61.2572 12.6455C61.2865 12.7139 61.3451 12.7822 61.433 12.8506C61.5209 12.9092 61.6381 12.9775 61.7846 13.0557C61.9408 13.124 62.1362 13.2021 62.3705 13.29C62.849 13.4658 63.2446 13.6416 63.5571 13.8174C63.8696 13.9834 64.1137 14.1689 64.2895 14.374C64.475 14.5693 64.602 14.7891 64.6703 15.0332C64.7485 15.2773 64.7875 15.5605 64.7875 15.8828C64.7875 16.6445 64.4994 17.2207 63.9233 17.6113C63.3569 18.002 62.5512 18.1973 61.5063 18.1973C60.8227 18.1973 60.2514 18.1387 59.7924 18.0215C59.3432 17.9043 59.0307 17.8066 58.8549 17.7285L59.2211 15.9561C59.5922 16.1025 59.9731 16.2197 60.3637 16.3076C60.7543 16.3857 61.1401 16.4248 61.5209 16.4248Z" fill="#4A4A4A"/>
<path d="M27.2416 21.3947C27.3884 21.6638 27.5555 21.9981 27.7431 22.3977C27.9388 22.7891 28.1386 23.2172 28.3424 23.682C28.5544 24.1386 28.7624 24.6075 28.9662 25.0886C29.1701 25.5697 29.3617 26.0223 29.5411 26.4463C29.7205 26.0223 29.9121 25.5697 30.116 25.0886C30.3198 24.6075 30.5237 24.1386 30.7276 23.682C30.9396 23.2172 31.1393 22.7891 31.3269 22.3977C31.5226 21.9981 31.6938 21.6638 31.8406 21.3947H33.5775C33.659 21.9573 33.7324 22.5893 33.7977 23.2906C33.871 23.9837 33.9322 24.7094 33.9811 25.4678C34.0382 26.218 34.0871 26.9722 34.1279 27.7306C34.1768 28.4889 34.2176 29.2024 34.2502 29.8711H32.391C32.3666 29.0475 32.334 28.1505 32.2932 27.1802C32.2524 26.2098 32.1913 25.2313 32.1097 24.2446C31.9629 24.5871 31.7998 24.9663 31.6205 25.3822C31.4411 25.798 31.2617 26.2139 31.0823 26.6298C30.911 27.0456 30.7439 27.4452 30.5808 27.8284C30.4177 28.2035 30.2791 28.5256 30.1649 28.7947H28.8317C28.7175 28.5256 28.5789 28.2035 28.4158 27.8284C28.2527 27.4452 28.0815 27.0456 27.9021 26.6298C27.7309 26.2139 27.5555 25.798 27.3761 25.3822C27.1967 24.9663 27.0337 24.5871 26.8869 24.2446C26.8053 25.2313 26.7442 26.2098 26.7034 27.1802C26.6626 28.1505 26.63 29.0475 26.6056 29.8711H24.7464C24.779 29.2024 24.8157 28.4889 24.8565 27.7306C24.9054 26.9722 24.9543 26.218 25.0032 25.4678C25.0603 24.7094 25.1215 23.9837 25.1867 23.2906C25.2601 22.5893 25.3376 21.9573 25.4191 21.3947H27.2416ZM37.6684 29.8711H35.8459V23.4374H37.6684V29.8711ZM37.8397 21.5782C37.8397 21.9125 37.7296 22.1775 37.5094 22.3732C37.2974 22.5608 37.0446 22.6545 36.7511 22.6545C36.4575 22.6545 36.2007 22.5608 35.9805 22.3732C35.7685 22.1775 35.6625 21.9125 35.6625 21.5782C35.6625 21.2438 35.7685 20.9829 35.9805 20.7954C36.2007 20.5997 36.4575 20.5018 36.7511 20.5018C37.0446 20.5018 37.2974 20.5997 37.5094 20.7954C37.7296 20.9829 37.8397 21.2438 37.8397 21.5782ZM39.3816 23.6575C39.6915 23.5678 40.091 23.4863 40.5803 23.4129C41.0695 23.3313 41.5833 23.2906 42.1214 23.2906C42.6678 23.2906 43.1203 23.364 43.4791 23.5107C43.8461 23.6494 44.1355 23.8491 44.3476 24.1101C44.5596 24.371 44.7104 24.6809 44.8001 25.0397C44.8898 25.3985 44.9347 25.798 44.9347 26.2384V29.8711H43.1122V26.4585C43.1122 25.8714 43.0347 25.4555 42.8798 25.2109C42.7249 24.9663 42.4354 24.844 42.0114 24.844C41.8809 24.844 41.7423 24.8521 41.5955 24.8684C41.4487 24.8766 41.3182 24.8888 41.2041 24.9051V29.8711H39.3816V23.6575ZM52.0762 29.6509C51.7663 29.7406 51.3668 29.8222 50.8775 29.8956C50.3883 29.9771 49.8745 30.0179 49.3364 30.0179C48.79 30.0179 48.3334 29.9445 47.9664 29.7977C47.6077 29.6509 47.3223 29.4471 47.1102 29.1861C46.8982 28.917 46.7474 28.599 46.6577 28.2321C46.568 27.8651 46.5231 27.4615 46.5231 27.0212V23.4374H48.3456V26.801C48.3456 27.3881 48.4231 27.8121 48.578 28.0731C48.7329 28.334 49.0224 28.4645 49.4464 28.4645C49.5769 28.4645 49.7155 28.4604 49.8623 28.4522C50.0091 28.4359 50.1396 28.4196 50.2537 28.4033V23.4374H52.0762V29.6509ZM53.7258 21.835L55.5483 21.5415V23.4374H57.7377V24.9541H55.5483V27.2169C55.5483 27.6001 55.6136 27.9059 55.744 28.1342C55.8826 28.3625 56.1558 28.4767 56.5635 28.4767C56.7592 28.4767 56.959 28.4604 57.1629 28.4278C57.3749 28.387 57.5665 28.334 57.7377 28.2688L57.9946 29.6876C57.7744 29.7773 57.5298 29.8548 57.2607 29.92C56.9916 29.9853 56.6614 30.0179 56.27 30.0179C55.7726 30.0179 55.3608 29.9526 55.0346 29.8222C54.7084 29.6835 54.4475 29.496 54.2518 29.2595C54.0561 29.0149 53.9175 28.7213 53.8359 28.3789C53.7625 28.0364 53.7258 27.6572 53.7258 27.2413V21.835ZM58.6772 26.7031C58.6772 26.1323 58.7628 25.6349 58.934 25.2109C59.1134 24.7787 59.3458 24.4199 59.6312 24.1345C59.9166 23.8491 60.2428 23.6331 60.6097 23.4863C60.9848 23.3395 61.3681 23.2661 61.7595 23.2661C62.6728 23.2661 63.3944 23.5474 63.9245 24.1101C64.4545 24.6646 64.7195 25.4841 64.7195 26.5686C64.7195 26.6746 64.7154 26.7928 64.7073 26.9233C64.6991 27.0456 64.691 27.1557 64.6828 27.2536H60.5486C60.5894 27.6287 60.7647 27.9263 61.0745 28.1465C61.3844 28.3666 61.8003 28.4767 62.3221 28.4767C62.6565 28.4767 62.9826 28.4482 63.3007 28.3911C63.6268 28.3259 63.8919 28.2484 64.0957 28.1587L64.3403 29.6387C64.2425 29.6876 64.112 29.7365 63.9489 29.7855C63.7858 29.8344 63.6024 29.8752 63.3985 29.9078C63.2028 29.9486 62.9908 29.9812 62.7625 30.0056C62.5342 30.0301 62.3058 30.0423 62.0775 30.0423C61.4986 30.0423 60.993 29.9567 60.5608 29.7855C60.1368 29.6142 59.7821 29.3818 59.4967 29.0883C59.2194 28.7866 59.0115 28.4319 58.8729 28.0241C58.7424 27.6164 58.6772 27.1761 58.6772 26.7031ZM62.9582 26.006C62.95 25.851 62.9215 25.7002 62.8726 25.5534C62.8318 25.4066 62.7625 25.2761 62.6646 25.162C62.5749 25.0478 62.4567 24.9541 62.3099 24.8807C62.1713 24.8073 61.996 24.7706 61.784 24.7706C61.5801 24.7706 61.4048 24.8073 61.258 24.8807C61.1112 24.9459 60.9889 25.0356 60.8911 25.1498C60.7932 25.2639 60.7158 25.3985 60.6587 25.5534C60.6097 25.7002 60.5731 25.851 60.5486 26.006H62.9582Z" fill="#4A4A4A"/>
<path d="M45.6773 33.1748C47.1909 33.1748 48.353 33.4434 49.1636 33.9805C49.9741 34.5078 50.3794 35.377 50.3794 36.5879C50.3794 37.8086 49.9693 38.6924 49.1489 39.2393C48.3286 39.7764 47.1568 40.0449 45.6333 40.0449H44.9155V43.4434H42.6304V33.4385C43.1284 33.3408 43.6558 33.2725 44.2124 33.2334C44.7691 33.1943 45.2573 33.1748 45.6773 33.1748ZM45.8237 35.123C45.6577 35.123 45.4917 35.1279 45.3257 35.1377C45.1694 35.1475 45.0327 35.1572 44.9155 35.167V38.0967H45.6333C46.4243 38.0967 47.02 37.9893 47.4204 37.7744C47.8208 37.5596 48.021 37.1592 48.021 36.5732C48.021 36.29 47.9673 36.0557 47.8599 35.8701C47.7622 35.6846 47.6157 35.5381 47.4204 35.4307C47.2349 35.3135 47.0054 35.2354 46.7319 35.1963C46.4585 35.1475 46.1558 35.123 45.8237 35.123ZM51.3302 39.6494C51.3302 38.9658 51.4327 38.3701 51.6378 37.8623C51.8526 37.3447 52.131 36.915 52.4728 36.5732C52.8146 36.2314 53.2052 35.9727 53.6446 35.7969C54.0939 35.6211 54.5528 35.5332 55.0216 35.5332C56.1153 35.5332 56.9796 35.8701 57.6144 36.5439C58.2491 37.208 58.5665 38.1895 58.5665 39.4883C58.5665 39.6152 58.5616 39.7568 58.5519 39.9131C58.5421 40.0596 58.5323 40.1914 58.5226 40.3086H53.5714C53.6202 40.7578 53.8302 41.1143 54.2013 41.3779C54.5724 41.6416 55.0704 41.7734 55.6954 41.7734C56.0958 41.7734 56.4864 41.7393 56.8673 41.6709C57.2579 41.5928 57.5753 41.5 57.8194 41.3926L58.1124 43.165C57.9952 43.2236 57.839 43.2822 57.6437 43.3408C57.4483 43.3994 57.2286 43.4482 56.9845 43.4873C56.7501 43.5361 56.4962 43.5752 56.2228 43.6045C55.9493 43.6338 55.6759 43.6484 55.4025 43.6484C54.7091 43.6484 54.1036 43.5459 53.586 43.3408C53.0782 43.1357 52.6534 42.8574 52.3116 42.5059C51.9796 42.1445 51.7306 41.7197 51.5646 41.2314C51.4083 40.7432 51.3302 40.2158 51.3302 39.6494ZM56.4571 38.8145C56.4474 38.6289 56.4132 38.4482 56.3546 38.2725C56.3058 38.0967 56.2228 37.9404 56.1056 37.8037C55.9982 37.667 55.8566 37.5547 55.6808 37.4668C55.5148 37.3789 55.3048 37.335 55.0509 37.335C54.8067 37.335 54.5968 37.3789 54.421 37.4668C54.2452 37.5449 54.0987 37.6523 53.9816 37.7891C53.8644 37.9258 53.7716 38.0869 53.7032 38.2725C53.6446 38.4482 53.6007 38.6289 53.5714 38.8145H56.4571ZM64.8944 37.6719C64.6991 37.623 64.4696 37.5742 64.2059 37.5254C63.9423 37.4668 63.6591 37.4375 63.3563 37.4375C63.2196 37.4375 63.0536 37.4521 62.8583 37.4814C62.6727 37.501 62.5311 37.5254 62.4335 37.5547V43.4434H60.2509V36.1484C60.6415 36.0117 61.1005 35.8848 61.6278 35.7676C62.1649 35.6406 62.7606 35.5771 63.4149 35.5771C63.5321 35.5771 63.6737 35.5869 63.8397 35.6064C64.0057 35.6162 64.1718 35.6357 64.3378 35.665C64.5038 35.6846 64.6698 35.7139 64.8358 35.7529C65.0018 35.7822 65.1434 35.8213 65.2606 35.8701L64.8944 37.6719Z" fill="#4A4A4A"/>
</g>
<defs>
<filter id="filter0_d" x="12.6846" y="0.0556641" width="30.9295" height="76.713" filterUnits="userSpaceOnUse" color-interpolation-filters="sRGB">
<feFlood flood-opacity="0" result="BackgroundImageFix"/>
<feColorMatrix in="SourceAlpha" type="matrix" values="0 0 0 0 0 0 0 0 0 0 0 0 0 0 0 0 0 0 127 0" result="hardAlpha"/>
<feOffset dx="0.585938" dy="0.585938"/>
<feGaussianBlur stdDeviation="0.585938"/>
<feColorMatrix type="matrix" values="0 0 0 0 0.3625 0 0 0 0 0.3625 0 0 0 0 0.3625 0 0 0 0.2 0"/>
<feBlend mode="normal" in2="BackgroundImageFix" result="effect1_dropShadow"/>
<feBlend mode="normal" in="SourceGraphic" in2="effect1_dropShadow" result="shape"/>
</filter>
<filter id="filter1_i" x="13.2705" y="33.4346" width="28.8787" height="41.8693" filterUnits="userSpaceOnUse" color-interpolation-filters="sRGB">
<feFlood flood-opacity="0" result="BackgroundImageFix"/>
<feBlend mode="normal" in="SourceGraphic" in2="BackgroundImageFix" result="shape"/>
<feColorMatrix in="SourceAlpha" type="matrix" values="0 0 0 0 0 0 0 0 0 0 0 0 0 0 0 0 0 0 127 0" result="hardAlpha"/>
<feOffset dx="0.292969" dy="0.292969"/>
<feGaussianBlur stdDeviation="0.292969"/>
<feComposite in2="hardAlpha" operator="arithmetic" k2="-1" k3="1"/>
<feColorMatrix type="matrix" values="0 0 0 0 0.975 0 0 0 0 0.975 0 0 0 0 0.975 0 0 0 0.25 0"/>
<feBlend mode="normal" in2="shape" result="effect1_innerShadow"/>
</filter>
<filter id="filter2_i" x="21.6387" y="39.8838" width="7.43458" height="11.4173" filterUnits="userSpaceOnUse" color-interpolation-filters="sRGB">
<feFlood flood-opacity="0" result="BackgroundImageFix"/>
<feBlend mode="normal" in="SourceGraphic" in2="BackgroundImageFix" result="shape"/>
<feColorMatrix in="SourceAlpha" type="matrix" values="0 0 0 0 0 0 0 0 0 0 0 0 0 0 0 0 0 0 127 0" result="hardAlpha"/>
<feOffset dx="0.146484" dy="0.292969"/>
<feGaussianBlur stdDeviation="0.292969"/>
<feComposite in2="hardAlpha" operator="arithmetic" k2="-1" k3="1"/>
<feColorMatrix type="matrix" values="0 0 0 0 0.816667 0 0 0 0 0.816667 0 0 0 0 0.816667 0 0 0 0.2 0"/>
<feBlend mode="normal" in2="shape" result="effect1_innerShadow"/>
</filter>
<linearGradient id="paint0_linear" x1="75" y1="0" x2="0" y2="75" gradientUnits="userSpaceOnUse">
<stop stop-color="#71AFE5"/>
<stop offset="1" stop-color="#78ECF2"/>
<stop offset="1" stop-color="#78ECF2"/>
</linearGradient>
<clipPath id="clip0">
<rect width="75" height="75" rx="37.5" fill="white"/>
</clipPath>
</defs>
</svg>
