<svg width="107" height="104" viewBox="0 0 107 104" fill="none" xmlns="http://www.w3.org/2000/svg">
<path fill-rule="evenodd" clip-rule="evenodd" d="M53.5 0C23.9412 0 0 23.8586 0 53.3153C0 76.9073 15.3144 96.8339 36.5806 103.898C39.2556 104.365 40.2587 102.765 40.2587 101.366C40.2587 100.099 40.1919 95.9009 40.1919 91.4357C26.75 93.9015 23.2725 88.1701 22.2025 85.1712C21.6006 83.6383 18.9925 78.9066 16.7188 77.6404C14.8462 76.6407 12.1712 74.1749 16.6519 74.1082C20.865 74.0416 23.8744 77.9736 24.8775 79.573C29.6925 87.637 37.3831 85.3711 40.4594 83.9716C40.9275 80.5061 42.3319 78.1735 43.87 76.8406C31.9662 75.5078 19.5275 70.9093 19.5275 50.5162C19.5275 44.7182 21.6006 39.9198 25.0113 36.1877C24.4763 34.8549 22.6037 29.39 25.5462 22.0592C25.5462 22.0592 30.0269 20.6597 40.2587 27.524C44.5387 26.3244 49.0863 25.7246 53.6338 25.7246C58.1813 25.7246 62.7288 26.3244 67.0088 27.524C77.2406 20.593 81.7213 22.0592 81.7213 22.0592C84.6638 29.39 82.7913 34.8549 82.2563 36.1877C85.6669 39.9198 87.74 44.6515 87.74 50.5162C87.74 70.976 75.2344 75.5078 63.3306 76.8406C65.27 78.5067 66.9419 81.7057 66.9419 86.704C66.9419 93.8349 66.875 99.5663 66.875 101.366C66.875 102.765 67.8781 104.431 70.5531 103.898C91.6856 96.8339 107 76.8406 107 53.3153C107 23.8586 83.0588 0 53.5 0Z" fill="#1B1F23"/>
</svg>
