<svg width="53" height="53" viewBox="0 0 53 53" fill="none" xmlns="http://www.w3.org/2000/svg">
<rect width="52.8" height="52.8" rx="26.4" fill="url(#paint0_linear)"/>
<g filter="url(#filter0_d)">
<rect x="14.1191" y="8.27246" width="22.9122" height="34.4231" rx="0.386719" fill="#424242"/>
</g>
<g filter="url(#filter1_d)">
<rect x="15.7695" y="10.1035" width="22.9122" height="34.4231" rx="0.386719" fill="#C4C4C4"/>
</g>
<path d="M20.8578 23.0633C20.2958 23.0633 19.8884 23.2206 19.6358 23.5351C19.3883 23.8445 19.2645 24.2699 19.2645 24.8113C19.2645 25.0743 19.2954 25.314 19.3573 25.5306C19.4192 25.742 19.512 25.925 19.6358 26.0797C19.7595 26.2344 19.9142 26.3556 20.0998 26.4432C20.2854 26.5257 20.502 26.567 20.7495 26.567C20.8836 26.567 20.997 26.5644 21.0898 26.5593C21.1878 26.5541 21.2729 26.5438 21.345 26.5283V24.6643H22.5516V27.3172C22.4072 27.3739 22.1752 27.4332 21.8555 27.4951C21.5358 27.5621 21.1414 27.5957 20.6722 27.5957C20.27 27.5957 19.9039 27.5338 19.5739 27.41C19.249 27.2863 18.9706 27.1058 18.7386 26.8686C18.5065 26.6314 18.3261 26.3401 18.1972 25.9946C18.0734 25.6492 18.0115 25.2547 18.0115 24.8113C18.0115 24.3627 18.0811 23.9657 18.2204 23.6202C18.3596 23.2747 18.5504 22.9834 18.7927 22.7462C19.035 22.5039 19.3186 22.3208 19.6435 22.1971C19.9735 22.0733 20.3241 22.0114 20.6954 22.0114C20.948 22.0114 21.1749 22.0295 21.376 22.0656C21.5822 22.0965 21.7575 22.1352 21.9019 22.1816C22.0515 22.2229 22.1726 22.2667 22.2654 22.3131C22.3634 22.3595 22.433 22.3956 22.4743 22.4214L22.1262 23.3882C21.9612 23.3005 21.7704 23.2257 21.5539 23.1639C21.3425 23.0968 21.1104 23.0633 20.8578 23.0633ZM27.4022 25.4532C27.4022 25.7729 27.3558 26.0668 27.263 26.335C27.1702 26.5979 27.0361 26.8248 26.8608 27.0156C26.6855 27.2012 26.4741 27.3456 26.2266 27.4487C25.9842 27.5518 25.711 27.6034 25.4067 27.6034C25.1077 27.6034 24.8344 27.5518 24.5869 27.4487C24.3446 27.3456 24.1357 27.2012 23.9604 27.0156C23.7851 26.8248 23.6485 26.5979 23.5505 26.335C23.4525 26.0668 23.4035 25.7729 23.4035 25.4532C23.4035 25.1336 23.4525 24.8422 23.5505 24.5793C23.6536 24.3163 23.7928 24.092 23.9681 23.9064C24.1486 23.7207 24.36 23.5764 24.6024 23.4732C24.8499 23.3701 25.118 23.3186 25.4067 23.3186C25.7006 23.3186 25.9688 23.3701 26.2111 23.4732C26.4586 23.5764 26.67 23.7207 26.8453 23.9064C27.0206 24.092 27.1573 24.3163 27.2553 24.5793C27.3532 24.8422 27.4022 25.1336 27.4022 25.4532ZM26.2266 25.4532C26.2266 25.0975 26.1544 24.819 26.01 24.6179C25.8708 24.4117 25.6697 24.3086 25.4067 24.3086C25.1438 24.3086 24.9401 24.4117 24.7957 24.6179C24.6514 24.819 24.5792 25.0975 24.5792 25.4532C24.5792 25.809 24.6514 26.0926 24.7957 26.304C24.9401 26.5103 25.1438 26.6134 25.4067 26.6134C25.6697 26.6134 25.8708 26.5103 26.01 26.304C26.1544 26.0926 26.2266 25.809 26.2266 25.4532ZM28.2949 23.5661C28.4909 23.5093 28.7435 23.4578 29.0529 23.4114C29.3623 23.3598 29.6871 23.334 30.0274 23.334C30.3729 23.334 30.6591 23.3804 30.8859 23.4732C31.118 23.5609 31.301 23.6872 31.4351 23.8522C31.5691 24.0172 31.6645 24.2132 31.7213 24.44C31.778 24.6669 31.8063 24.9196 31.8063 25.198V27.4951H30.6539V25.3372C30.6539 24.966 30.6049 24.703 30.507 24.5483C30.409 24.3936 30.2259 24.3163 29.9578 24.3163C29.8753 24.3163 29.7877 24.3214 29.6949 24.3318C29.602 24.3369 29.5195 24.3446 29.4474 24.355V27.4951H28.2949V23.5661ZM32.6561 25.4919C32.6561 25.131 32.7102 24.8164 32.8185 24.5483C32.9319 24.275 33.0789 24.0482 33.2594 23.8677C33.4398 23.6872 33.6461 23.5506 33.8781 23.4578C34.1153 23.365 34.3577 23.3186 34.6052 23.3186C35.1827 23.3186 35.639 23.4964 35.9741 23.8522C36.3093 24.2029 36.4769 24.7211 36.4769 25.4068C36.4769 25.4739 36.4743 25.5486 36.4691 25.6311C36.464 25.7085 36.4588 25.7781 36.4537 25.84H33.8394C33.8652 26.0771 33.9761 26.2654 34.172 26.4046C34.368 26.5438 34.6309 26.6134 34.9609 26.6134C35.1723 26.6134 35.3786 26.5954 35.5797 26.5593C35.7859 26.518 35.9535 26.469 36.0824 26.4123L36.2371 27.3482C36.1752 27.3791 36.0927 27.41 35.9896 27.441C35.8865 27.4719 35.7705 27.4977 35.6416 27.5183C35.5178 27.5441 35.3837 27.5647 35.2394 27.5802C35.095 27.5957 34.9506 27.6034 34.8062 27.6034C34.4402 27.6034 34.1205 27.5493 33.8472 27.441C33.5791 27.3327 33.3548 27.1857 33.1743 27.0001C32.999 26.8093 32.8675 26.585 32.7798 26.3272C32.6973 26.0694 32.6561 25.791 32.6561 25.4919ZM35.3631 25.0511C35.358 24.9531 35.3399 24.8577 35.309 24.7649C35.2832 24.6721 35.2394 24.5896 35.1775 24.5174C35.1208 24.4452 35.046 24.3859 34.9532 24.3395C34.8655 24.2931 34.7547 24.2699 34.6206 24.2699C34.4917 24.2699 34.3809 24.2931 34.288 24.3395C34.1952 24.3807 34.1179 24.4375 34.056 24.5096C33.9941 24.5818 33.9452 24.6669 33.9091 24.7649C33.8781 24.8577 33.8549 24.9531 33.8394 25.0511H35.3631Z" fill="#4A4A4A"/>
<path d="M19.5506 41.9108C19.6641 41.9108 19.7569 41.9022 19.8291 41.885C19.9047 41.8644 19.9649 41.8386 20.0095 41.8077C20.0542 41.7733 20.0852 41.7338 20.1024 41.6891C20.1195 41.6444 20.1281 41.5946 20.1281 41.5396C20.1281 41.4227 20.0731 41.3264 19.9631 41.2508C19.8531 41.1718 19.6641 41.0875 19.3959 40.9982C19.2791 40.9569 19.1622 40.9105 19.0453 40.8589C18.9284 40.8039 18.8236 40.7369 18.7308 40.6579C18.638 40.5754 18.5624 40.4774 18.5039 40.3639C18.4455 40.2471 18.4163 40.1061 18.4163 39.9411C18.4163 39.7761 18.4472 39.6283 18.5091 39.4977C18.5709 39.3636 18.6586 39.2502 18.772 39.1574C18.8855 39.0646 19.023 38.9941 19.1845 38.946C19.3461 38.8944 19.5283 38.8686 19.7311 38.8686C19.9717 38.8686 20.1797 38.8944 20.355 38.946C20.5303 38.9975 20.6747 39.0543 20.7881 39.1161L20.5561 39.7504C20.4564 39.6988 20.3447 39.6541 20.2209 39.6163C20.1006 39.575 19.9545 39.5544 19.7827 39.5544C19.5902 39.5544 19.4509 39.5819 19.365 39.6369C19.2825 39.6885 19.2413 39.7693 19.2413 39.8793C19.2413 39.9446 19.2567 39.9996 19.2877 40.0443C19.3186 40.0889 19.3616 40.1302 19.4166 40.168C19.475 40.2024 19.5403 40.235 19.6125 40.266C19.6881 40.2935 19.7706 40.3227 19.86 40.3536C20.0456 40.4224 20.2072 40.4911 20.3447 40.5599C20.4822 40.6252 20.5956 40.7025 20.685 40.7919C20.7778 40.8813 20.8466 40.9861 20.8913 41.1064C20.9359 41.2268 20.9583 41.3729 20.9583 41.5447C20.9583 41.8782 20.8414 42.1377 20.6077 42.3233C20.3739 42.5055 20.0216 42.5966 19.5506 42.5966C19.3925 42.5966 19.2499 42.5863 19.1227 42.5657C18.9955 42.5485 18.882 42.5261 18.7824 42.4986C18.6861 42.4711 18.6019 42.4419 18.5297 42.411C18.4609 42.38 18.4025 42.3508 18.3544 42.3233L18.5813 41.6839C18.6878 41.7424 18.8184 41.7957 18.9731 41.8438C19.1313 41.8885 19.3238 41.9108 19.5506 41.9108ZM21.5256 42.5244V38.6469L22.2939 38.5232V39.8225C22.3455 39.8054 22.4108 39.7899 22.4899 39.7761C22.5724 39.7589 22.6514 39.7504 22.727 39.7504C22.947 39.7504 23.1292 39.7813 23.2736 39.8432C23.4214 39.9016 23.5383 39.9858 23.6242 40.0958C23.7136 40.2058 23.7755 40.3364 23.8099 40.4877C23.8477 40.6389 23.8666 40.8074 23.8666 40.993V42.5244H23.0983V41.0858C23.0983 40.8383 23.0656 40.663 23.0003 40.5599C22.9384 40.4568 22.8216 40.4052 22.6497 40.4052C22.5809 40.4052 22.5156 40.4121 22.4538 40.4258C22.3953 40.4361 22.342 40.4482 22.2939 40.4619V42.5244H21.5256ZM25.5984 41.9882C25.674 41.9882 25.7462 41.9864 25.815 41.983C25.8837 41.9796 25.9387 41.9744 25.98 41.9675V41.3849C25.949 41.378 25.9026 41.3711 25.8407 41.3643C25.7789 41.3574 25.7221 41.3539 25.6706 41.3539C25.5984 41.3539 25.5296 41.3591 25.4643 41.3694C25.4025 41.3763 25.3475 41.3918 25.2993 41.4158C25.2512 41.4399 25.2134 41.4725 25.1859 41.5138C25.1584 41.555 25.1446 41.6066 25.1446 41.6685C25.1446 41.7888 25.1842 41.873 25.2632 41.9211C25.3457 41.9658 25.4575 41.9882 25.5984 41.9882ZM25.5365 39.74C25.7634 39.74 25.9525 39.7658 26.1037 39.8174C26.255 39.8689 26.3753 39.9429 26.4646 40.0391C26.5575 40.1354 26.6228 40.2522 26.6606 40.3897C26.6984 40.5272 26.7173 40.6802 26.7173 40.8486V42.4471C26.6073 42.4711 26.4543 42.4986 26.2584 42.5296C26.0625 42.5639 25.8253 42.5811 25.5468 42.5811C25.3715 42.5811 25.2117 42.5657 25.0673 42.5347C24.9264 42.5038 24.8043 42.4539 24.7012 42.3852C24.5981 42.313 24.519 42.2202 24.464 42.1068C24.409 41.9933 24.3815 41.8541 24.3815 41.6891C24.3815 41.531 24.4125 41.3969 24.4743 41.2869C24.5396 41.1769 24.6256 41.0893 24.7321 41.0239C24.8387 40.9586 24.9607 40.9122 25.0982 40.8847C25.2357 40.8538 25.3784 40.8383 25.5262 40.8383C25.6259 40.8383 25.7135 40.8435 25.7892 40.8538C25.8682 40.8607 25.9318 40.871 25.98 40.8847V40.8125C25.98 40.6819 25.9404 40.5771 25.8614 40.498C25.7823 40.4189 25.6448 40.3794 25.4489 40.3794C25.3182 40.3794 25.1893 40.3897 25.0621 40.4104C24.935 40.4275 24.825 40.4533 24.7321 40.4877L24.6342 39.8689C24.6789 39.8552 24.7339 39.8414 24.7992 39.8277C24.8679 39.8105 24.9418 39.7968 25.0209 39.7864C25.1 39.7727 25.1825 39.7624 25.2684 39.7555C25.3578 39.7452 25.4471 39.74 25.5365 39.74ZM29.1497 41.1889C29.1497 40.9518 29.0964 40.7627 28.9898 40.6218C28.8833 40.4774 28.7251 40.4052 28.5155 40.4052C28.4467 40.4052 28.3831 40.4086 28.3247 40.4155C28.2662 40.4189 28.2181 40.4241 28.1803 40.431V41.818C28.2284 41.8489 28.2903 41.8747 28.3659 41.8954C28.445 41.916 28.5241 41.9263 28.6031 41.9263C28.9675 41.9263 29.1497 41.6805 29.1497 41.1889ZM29.9334 41.1683C29.9334 41.378 29.9076 41.5688 29.8561 41.7407C29.8045 41.9125 29.7289 42.0604 29.6292 42.1841C29.5295 42.3079 29.4058 42.4041 29.258 42.4729C29.1101 42.5416 28.94 42.576 28.7475 42.576C28.6409 42.576 28.5412 42.5657 28.4484 42.545C28.3556 42.5244 28.2662 42.4952 28.1803 42.4574V43.4783H27.412V39.905C27.4808 39.8844 27.5598 39.8655 27.6492 39.8483C27.7386 39.8277 27.8314 39.8105 27.9276 39.7968C28.0273 39.783 28.127 39.7727 28.2267 39.7658C28.3298 39.7555 28.4278 39.7504 28.5206 39.7504C28.7441 39.7504 28.9434 39.7847 29.1187 39.8535C29.2941 39.9188 29.4419 40.0133 29.5622 40.1371C29.6825 40.2574 29.7736 40.4052 29.8355 40.5805C29.9008 40.7558 29.9334 40.9518 29.9334 41.1683ZM30.395 41.1889C30.395 40.9483 30.4311 40.7386 30.5033 40.5599C30.5789 40.3777 30.6769 40.2264 30.7972 40.1061C30.9175 39.9858 31.055 39.8947 31.2097 39.8329C31.3678 39.771 31.5294 39.74 31.6944 39.74C32.0794 39.74 32.3836 39.8586 32.607 40.0958C32.8305 40.3296 32.9422 40.675 32.9422 41.1322C32.9422 41.1769 32.9405 41.2268 32.937 41.2818C32.9336 41.3333 32.9301 41.3797 32.9267 41.421H31.1839C31.2011 41.5791 31.275 41.7046 31.4056 41.7974C31.5362 41.8902 31.7116 41.9366 31.9316 41.9366C32.0725 41.9366 32.21 41.9246 32.3441 41.9005C32.4816 41.873 32.5933 41.8404 32.6792 41.8025L32.7823 42.4264C32.7411 42.4471 32.6861 42.4677 32.6173 42.4883C32.5486 42.5089 32.4712 42.5261 32.3853 42.5399C32.3028 42.5571 32.2134 42.5708 32.1172 42.5811C32.0209 42.5914 31.9247 42.5966 31.8284 42.5966C31.5844 42.5966 31.3712 42.5605 31.1891 42.4883C31.0103 42.4161 30.8608 42.3182 30.7405 42.1944C30.6236 42.0672 30.5359 41.9177 30.4775 41.7458C30.4225 41.5739 30.395 41.3883 30.395 41.1889ZM32.1997 40.895C32.1962 40.8297 32.1842 40.7661 32.1636 40.7043C32.1464 40.6424 32.1172 40.5874 32.0759 40.5393C32.0381 40.4911 31.9883 40.4516 31.9264 40.4207C31.868 40.3897 31.7941 40.3743 31.7047 40.3743C31.6187 40.3743 31.5448 40.3897 31.483 40.4207C31.4211 40.4482 31.3695 40.486 31.3283 40.5341C31.287 40.5822 31.2544 40.6389 31.2303 40.7043C31.2097 40.7661 31.1942 40.8297 31.1839 40.895H32.1997ZM34.1899 41.1477C34.1899 41.3849 34.2432 41.5757 34.3498 41.72C34.4563 41.8644 34.6144 41.9366 34.8241 41.9366C34.8929 41.9366 34.9565 41.9349 35.0149 41.9314C35.0733 41.9246 35.1215 41.9177 35.1593 41.9108V40.5135C35.1112 40.4825 35.0476 40.4568 34.9685 40.4361C34.8929 40.4155 34.8155 40.4052 34.7365 40.4052C34.3721 40.4052 34.1899 40.6527 34.1899 41.1477ZM35.9276 42.4368C35.8588 42.4574 35.7798 42.478 35.6904 42.4986C35.601 42.5158 35.5065 42.5313 35.4068 42.545C35.3105 42.5588 35.2108 42.5691 35.1077 42.576C35.008 42.5863 34.9118 42.5914 34.819 42.5914C34.5955 42.5914 34.3962 42.5588 34.2208 42.4935C34.0455 42.4282 33.8977 42.3354 33.7774 42.215C33.6571 42.0913 33.5643 41.9435 33.499 41.7716C33.4371 41.5963 33.4062 41.4004 33.4062 41.1838C33.4062 40.9638 33.4337 40.7661 33.4887 40.5908C33.5437 40.4121 33.6227 40.2608 33.7258 40.1371C33.829 40.0133 33.9544 39.9188 34.1023 39.8535C34.2535 39.7882 34.4254 39.7555 34.6179 39.7555C34.7244 39.7555 34.819 39.7658 34.9015 39.7864C34.9874 39.8071 35.0733 39.8363 35.1593 39.8741V38.6469L35.9276 38.5232V42.4368Z" fill="#4A4A4A"/>
<path d="M20.4737 29.9028C21.5394 29.9028 22.3575 30.0918 22.9281 30.47C23.4987 30.8412 23.7841 31.4531 23.7841 32.3056C23.7841 33.165 23.4953 33.7871 22.9178 34.1721C22.3403 34.5503 21.5153 34.7393 20.4428 34.7393H19.9375V37.1318H18.3287V30.0884C18.6794 30.0196 19.0506 29.9715 19.4425 29.944C19.8344 29.9165 20.1781 29.9028 20.4737 29.9028ZM20.5769 31.2743C20.46 31.2743 20.3431 31.2778 20.2262 31.2846C20.1162 31.2915 20.02 31.2984 19.9375 31.3053V33.3678H20.4428C20.9997 33.3678 21.4191 33.2921 21.7009 33.1409C21.9828 32.9896 22.1237 32.7078 22.1237 32.2953C22.1237 32.0959 22.0859 31.9309 22.0103 31.8003C21.9416 31.6696 21.8384 31.5665 21.7009 31.4909C21.5703 31.4084 21.4087 31.3534 21.2162 31.3259C21.0237 31.2915 20.8106 31.2743 20.5769 31.2743ZM26.7337 36.0593C26.8849 36.0593 27.0293 36.0559 27.1668 36.049C27.3043 36.0421 27.4143 36.0318 27.4968 36.0181V34.8528C27.4349 34.839 27.3421 34.8253 27.2184 34.8115C27.0946 34.7978 26.9812 34.7909 26.8781 34.7909C26.7337 34.7909 26.5962 34.8012 26.4656 34.8218C26.3418 34.8356 26.2318 34.8665 26.1356 34.9146C26.0393 34.9628 25.9637 35.0281 25.9087 35.1106C25.8537 35.1931 25.8262 35.2962 25.8262 35.42C25.8262 35.6606 25.9052 35.829 26.0634 35.9253C26.2284 36.0146 26.4518 36.0593 26.7337 36.0593ZM26.6099 31.5631C27.0637 31.5631 27.4418 31.6146 27.7443 31.7178C28.0468 31.8209 28.2874 31.9687 28.4662 32.1612C28.6518 32.3537 28.7824 32.5875 28.8581 32.8625C28.9337 33.1375 28.9715 33.4434 28.9715 33.7803V36.9771C28.7515 37.0253 28.4456 37.0803 28.0537 37.1421C27.6618 37.2109 27.1874 37.2453 26.6306 37.2453C26.2799 37.2453 25.9602 37.2143 25.6715 37.1525C25.3896 37.0906 25.1456 36.9909 24.9393 36.8534C24.7331 36.709 24.5749 36.5234 24.4649 36.2965C24.3549 36.0696 24.2999 35.7912 24.2999 35.4612C24.2999 35.145 24.3618 34.8768 24.4856 34.6568C24.6162 34.4368 24.7881 34.2615 25.0012 34.1309C25.2143 34.0003 25.4584 33.9075 25.7334 33.8525C26.0084 33.7906 26.2937 33.7596 26.5893 33.7596C26.7887 33.7596 26.964 33.77 27.1152 33.7906C27.2734 33.8043 27.4006 33.825 27.4968 33.8525V33.7081C27.4968 33.4468 27.4177 33.2371 27.2596 33.079C27.1015 32.9209 26.8265 32.8418 26.4346 32.8418C26.1734 32.8418 25.9156 32.8625 25.6612 32.9037C25.4068 32.9381 25.1868 32.9896 25.0012 33.0584L24.8052 31.8209C24.8946 31.7934 25.0046 31.7659 25.1352 31.7384C25.2727 31.704 25.4206 31.6765 25.5787 31.6559C25.7368 31.6284 25.9018 31.6078 26.0737 31.594C26.2524 31.5734 26.4312 31.5631 26.6099 31.5631ZM31.8975 37.1318H30.3609V31.7075H31.8975V37.1318ZM32.0419 30.14C32.0419 30.4218 31.9491 30.6453 31.7634 30.8103C31.5847 30.9684 31.3716 31.0475 31.1241 31.0475C30.8766 31.0475 30.66 30.9684 30.4744 30.8103C30.2956 30.6453 30.2063 30.4218 30.2063 30.14C30.2063 29.8581 30.2956 29.6381 30.4744 29.48C30.66 29.315 30.8766 29.2325 31.1241 29.2325C31.3716 29.2325 31.5847 29.315 31.7634 29.48C31.9491 29.6381 32.0419 29.8581 32.0419 30.14ZM36.611 33.0687C36.4735 33.0343 36.3119 33 36.1263 32.9656C35.9406 32.9243 35.7413 32.9037 35.5281 32.9037C35.4319 32.9037 35.315 32.914 35.1775 32.9346C35.0469 32.9484 34.9472 32.9656 34.8785 32.9862V37.1318H33.3419V31.9962C33.6169 31.9 33.94 31.8106 34.3113 31.7281C34.6894 31.6387 35.1088 31.594 35.5694 31.594C35.6519 31.594 35.7516 31.6009 35.8685 31.6146C35.9853 31.6215 36.1022 31.6353 36.2191 31.6559C36.336 31.6696 36.4528 31.6903 36.5697 31.7178C36.6866 31.7384 36.7863 31.7659 36.8688 31.8003L36.611 33.0687Z" fill="#4A4A4A"/>
<defs>
<filter id="filter0_d" x="13.7324" y="8.01465" width="23.9434" height="35.4543" filterUnits="userSpaceOnUse" color-interpolation-filters="sRGB">
<feFlood flood-opacity="0" result="BackgroundImageFix"/>
<feColorMatrix in="SourceAlpha" type="matrix" values="0 0 0 0 0 0 0 0 0 0 0 0 0 0 0 0 0 0 127 0" result="hardAlpha"/>
<feOffset dx="0.128906" dy="0.257813"/>
<feGaussianBlur stdDeviation="0.257813"/>
<feColorMatrix type="matrix" values="0 0 0 0 0.258824 0 0 0 0 0.258824 0 0 0 0 0.258824 0 0 0 1 0"/>
<feBlend mode="normal" in2="BackgroundImageFix" result="effect1_dropShadow"/>
<feBlend mode="normal" in="SourceGraphic" in2="effect1_dropShadow" result="shape"/>
</filter>
<filter id="filter1_d" x="15.3828" y="9.8457" width="23.9434" height="35.4543" filterUnits="userSpaceOnUse" color-interpolation-filters="sRGB">
<feFlood flood-opacity="0" result="BackgroundImageFix"/>
<feColorMatrix in="SourceAlpha" type="matrix" values="0 0 0 0 0 0 0 0 0 0 0 0 0 0 0 0 0 0 127 0" result="hardAlpha"/>
<feOffset dx="0.128906" dy="0.257813"/>
<feGaussianBlur stdDeviation="0.257813"/>
<feColorMatrix type="matrix" values="0 0 0 0 0.258824 0 0 0 0 0.258824 0 0 0 0 0.258824 0 0 0 1 0"/>
<feBlend mode="normal" in2="BackgroundImageFix" result="effect1_dropShadow"/>
<feBlend mode="normal" in="SourceGraphic" in2="effect1_dropShadow" result="shape"/>
</filter>
<linearGradient id="paint0_linear" x1="0" y1="0" x2="26.4" y2="52.8" gradientUnits="userSpaceOnUse">
<stop stop-color="#78ECF2"/>
<stop offset="1" stop-color="#71AFE5"/>
</linearGradient>
</defs>
</svg>
