<svg width="53" height="53" viewBox="0 0 53 53" fill="none" xmlns="http://www.w3.org/2000/svg">
<g clip-path="url(#clip0)">
<rect width="52.8104" height="52.8104" rx="26.4052" fill="url(#paint0_linear)"/>
<path d="M38.8246 32.8069C39.1433 31.6908 38.4968 30.5277 37.3807 30.2091C36.2647 29.8904 35.1016 30.5369 34.783 31.653L38.8246 32.8069ZM26.5067 13.0739H24.4051H26.5067ZM34.783 31.653C34.3501 33.1691 33.504 34.5349 32.3393 35.5976L35.1723 38.7025C36.9131 37.1142 38.1777 35.0729 38.8246 32.8069L34.783 31.653ZM32.3393 35.5976C31.1746 36.6603 29.7372 37.3781 28.1879 37.6706L28.9676 41.8008C31.2832 41.3636 33.4316 40.2909 35.1723 38.7025L32.3393 35.5976ZM28.1879 37.6706C26.6386 37.9631 25.0384 37.8188 23.5664 37.2538L22.0604 41.1779C24.2604 42.0223 26.652 42.2379 28.9676 41.8008L28.1879 37.6706ZM23.5664 37.2538C22.0944 36.6889 20.8086 35.7256 19.8528 34.4716L16.51 37.0196C17.9386 38.8938 19.8603 40.3336 22.0604 41.1779L23.5664 37.2538ZM19.8528 34.4716C18.897 33.2177 18.3089 31.7226 18.1543 30.1535L13.9714 30.5657C14.2025 32.9109 15.0815 35.1455 16.51 37.0196L19.8528 34.4716ZM18.1543 30.1535C17.9996 28.5844 18.2846 27.0032 18.9772 25.5868L15.2013 23.7404C14.1661 25.8574 13.7403 28.2206 13.9714 30.5657L18.1543 30.1535ZM18.9772 25.5868C19.6199 24.2725 20.8585 23.0474 22.3034 22.1356L20.0603 18.581C18.179 19.7682 16.2864 21.5214 15.2013 23.7404L18.9772 25.5868ZM24.4051 8.83407e-08L24.4051 13.0739H28.6083L28.6083 -8.83407e-08L24.4051 8.83407e-08ZM22.3034 22.1356C23.7343 21.2326 25.2674 20.0531 26.462 18.5948C27.6626 17.1291 28.6083 15.2696 28.6083 13.0739H24.4051C24.4051 14.0058 24.0109 14.954 23.2104 15.9313C22.4039 16.916 21.2745 17.8148 20.0603 18.581L22.3034 22.1356Z" fill="black"/>
</g>
<defs>
<linearGradient id="paint0_linear" x1="52.8104" y1="0" x2="0" y2="52.8104" gradientUnits="userSpaceOnUse">
<stop stop-color="#F2D478"/>
<stop offset="1" stop-color="#EDC575"/>
</linearGradient>
<clipPath id="clip0">
<rect width="52.8104" height="52.8104" rx="26.4052" fill="white"/>
</clipPath>
</defs>
</svg>
