<svg width="2048" height="2048" fill="none" xmlns="http://www.w3.org/2000/svg"><rect width="2048" height="2048" rx="1024" fill="url(#a)"/><path fill-rule="evenodd" clip-rule="evenodd" d="M354 478c-35.899 0-65 29.101-65 65v181c0 35.898 29.102 65 65 65h1339c35.9 0 65-29.102 65-65V543c0-35.899-29.1-65-65-65H354Zm1248 283c70.14 0 127-56.86 127-127s-56.86-127-127-127-127 56.86-127 127 56.86 127 127 127Z" fill="#424242"/><g filter="url(#b)"><path fill-rule="evenodd" clip-rule="evenodd" d="M354 868c-35.899 0-65 29.101-65 65v181c0 35.9 29.102 65 65 65h1339c35.9 0 65-29.1 65-65V933c0-35.899-29.1-65-65-65H354Zm1248 283c70.14 0 127-56.86 127-127s-56.86-127-127-127-127 56.86-127 127 56.86 127 127 127Z" fill="#424242"/></g><path fill-rule="evenodd" clip-rule="evenodd" d="M354 1258c-35.899 0-65 29.1-65 65v181c0 35.9 29.102 65 65 65h1339c35.9 0 65-29.1 65-65v-181c0-35.9-29.1-65-65-65H354Zm1248 283c70.14 0 127-56.86 127-127s-56.86-127-127-127-127 56.86-127 127 56.86 127 127 127Z" fill="#424242"/><defs><linearGradient id="a" x1="2048" y1="0" x2="0" y2="2048" gradientUnits="userSpaceOnUse"><stop stop-color="#F27878"/><stop offset="1" stop-color="#D96B6B"/></linearGradient><filter id="b" x="285" y="868" width="1477" height="319" filterUnits="userSpaceOnUse" color-interpolation-filters="sRGB"><feFlood flood-opacity="0" result="BackgroundImageFix"/><feColorMatrix in="SourceAlpha" values="0 0 0 0 0 0 0 0 0 0 0 0 0 0 0 0 0 0 127 0" result="hardAlpha"/><feOffset dy="4"/><feGaussianBlur stdDeviation="2"/><feColorMatrix values="0 0 0 0 0 0 0 0 0 0 0 0 0 0 0 0 0 0 0.25 0"/><feBlend in2="BackgroundImageFix" result="effect1_dropShadow_3103:7635"/><feBlend in="SourceGraphic" in2="effect1_dropShadow_3103:7635" result="shape"/></filter></defs></svg>