<svg width="28" height="28" viewBox="0 0 28 28" fill="none" xmlns="http://www.w3.org/2000/svg">
<path fill-rule="evenodd" clip-rule="evenodd" d="M14 28C21.732 28 28 21.732 28 14C28 6.26801 21.732 0 14 0C6.26801 0 0 6.26801 0 14C0 21.732 6.26801 28 14 28ZM21.8205 11.7134C22.7668 10.708 22.7188 9.12579 21.7134 8.1795C20.708 7.23321 19.1258 7.28115 18.1795 8.28659C16.881 9.66619 14.786 11.7619 12.9926 13.5344C12.4628 14.0581 11.9622 14.5507 11.5201 14.9846L11.5139 14.9784L11.5017 14.9661L11.4895 14.9539L11.4772 14.9417L11.465 14.9294L11.4527 14.9172L11.4404 14.9049L11.4281 14.8926L11.4158 14.8803L11.4035 14.868L11.3912 14.8557L11.3789 14.8433L11.3665 14.831L11.3542 14.8186L11.3418 14.8063L11.3294 14.7939L11.3171 14.7815L11.3047 14.7691L11.2923 14.7567L11.2799 14.7443L11.2674 14.7319L11.255 14.7195L11.2426 14.7071L11.2302 14.6946L11.2177 14.6822L11.2053 14.6697L11.1928 14.6573L11.1804 14.6448L11.1679 14.6324L11.1554 14.6199L11.1429 14.6074L11.1305 14.5949L11.118 14.5825L11.1055 14.57L11.093 14.5575L11.0805 14.545L11.068 14.5325L11.0555 14.52L11.043 14.5075L11.0305 14.495L11.018 14.4825L11.0055 14.47L10.993 14.4575L10.9805 14.445L10.968 14.4325L10.9555 14.42L10.943 14.4075L10.9306 14.395L10.9181 14.3825L10.9056 14.37L10.8931 14.3575L10.8806 14.3451L10.8681 14.3326L10.8556 14.3201L10.8431 14.3076L10.8307 14.2951L10.8182 14.2827L10.8057 14.2702L10.7933 14.2577L10.7808 14.2453L10.7684 14.2328L10.7559 14.2204L10.7435 14.208L10.7311 14.1955L10.7186 14.1831L10.7062 14.1707L10.6938 14.1583L10.6814 14.1459L10.669 14.1335L10.6566 14.1211L10.6443 14.1087L10.6319 14.0964L10.6195 14.084L10.6072 14.0717L10.5949 14.0593L10.5825 14.047L10.5702 14.0347L10.5579 14.0224L10.5456 14.0101L10.5334 13.9978L10.5211 13.9856L10.5088 13.9733L10.4966 13.9611L10.4844 13.9488L10.4722 13.9366L10.46 13.9244L10.4478 13.9122L10.4356 13.9001L10.4235 13.8879L10.4113 13.8758L10.3992 13.8637L10.3871 13.8516L10.375 13.8395L10.3629 13.8274L10.3509 13.8153L10.3388 13.8033L10.3268 13.7913L10.3148 13.7793L10.3028 13.7673L10.2909 13.7553L10.2789 13.7434L10.267 13.7314L10.2551 13.7195L10.2432 13.7077L10.2313 13.6958L10.2195 13.6839L10.2076 13.6721L10.1958 13.6603L10.1841 13.6485L10.1723 13.6368L10.1606 13.625L10.1488 13.6133L10.1372 13.6016L10.1255 13.59L10.1138 13.5783L10.1022 13.5667L10.0906 13.5551L10.0791 13.5435L10.0675 13.532L10.056 13.5205L10.0445 13.509L10.033 13.4975L10.0216 13.486L10.0102 13.4746L9.99878 13.4632L9.98742 13.4519L9.97609 13.4406L9.96478 13.4292L9.9535 13.418L9.94226 13.4067L9.93104 13.3955L9.91985 13.3843L9.90869 13.3732L9.89756 13.362L9.88646 13.3509L9.8754 13.3399L9.86436 13.3288L9.85335 13.3178L9.84238 13.3068L9.83144 13.2959L9.82053 13.285L9.80965 13.2741L9.79881 13.2633L9.788 13.2525L9.77723 13.2417L9.76649 13.231L9.75578 13.2202L9.74511 13.2096L9.73447 13.1989L9.72387 13.1883L9.71331 13.1778L9.70278 13.1672L9.69229 13.1568L9.68183 13.1463L9.67141 13.1359L9.66103 13.1255L9.65069 13.1152L9.64038 13.1048L9.63012 13.0946L9.61989 13.0844L9.6097 13.0742L9.59955 13.064L9.58944 13.0539L9.57937 13.0438L9.56935 13.0338L9.55936 13.0238L9.54941 13.0139L9.53951 13.004L9.52965 12.9941L9.51983 12.9843L9.51005 12.9745L9.50031 12.9648L9.49062 12.9551L9.48097 12.9454L9.47137 12.9358L9.46181 12.9263L9.4523 12.9168L9.44283 12.9073L9.4334 12.8979L9.42402 12.8885L9.41469 12.8792L9.4054 12.8699L9.39616 12.8606L9.38697 12.8514L9.37782 12.8423L9.36872 12.8332L9.35967 12.8241L9.35067 12.8151L9.34171 12.8062L9.33281 12.7973L9.32395 12.7884L9.31514 12.7796L9.30639 12.7709L9.29768 12.7621L9.28902 12.7535L9.28042 12.7449L9.27187 12.7363L9.26336 12.7278L9.25491 12.7194L9.24652 12.711L9.23817 12.7026L9.22988 12.6943L9.22164 12.6861L9.21346 12.6779L9.20532 12.6698L9.19725 12.6617L9.18922 12.6537L9.18126 12.6457L9.17335 12.6378L9.16549 12.63L9.15769 12.6222L9.14994 12.6144L9.14226 12.6067L9.13463 12.5991L9.12705 12.5915L9.11954 12.584L9.11208 12.5765L9.10468 12.5691L9.09734 12.5618L9.09006 12.5545L9.08284 12.5473L9.07567 12.5401L9.06857 12.533L9.06153 12.526L9.05455 12.519L9.04763 12.5121L9.04077 12.5052L9.03397 12.4984L9.02723 12.4917L9.02056 12.485L9.01395 12.4784L9.0074 12.4719L9.00092 12.4654L8.9945 12.459L8.98814 12.4526L8.98185 12.4463L8.97562 12.4401L8.96946 12.4339L8.96336 12.4278L8.95733 12.4218L8.95136 12.4158L8.94547 12.4099L8.93963 12.4041L8.93387 12.3983L8.92817 12.3926L8.92254 12.387L8.91698 12.3814L8.91148 12.3759L8.90606 12.3705L8.9007 12.3652L8.89541 12.3599L8.8902 12.3547L8.88505 12.3495L8.87997 12.3444L8.87497 12.3394L8.87003 12.3345L8.86517 12.3296L8.86038 12.3248L8.85566 12.3201L8.85101 12.3155L8.84644 12.3109L8.84194 12.3064L8.83751 12.302L8.83315 12.2976L8.82887 12.2933L8.82467 12.2891L8.82054 12.285L8.81648 12.2809L8.8125 12.277L8.80859 12.2731L8.80477 12.2692L8.80101 12.2655L8.79734 12.2618L8.79374 12.2582L8.79022 12.2547L8.78677 12.2512L8.78341 12.2479L8.78012 12.2446L8.77691 12.2414L8.77379 12.2383L8.77074 12.2352L8.76777 12.2322C7.79146 11.2559 6.20854 11.2559 5.23223 12.2322C4.25592 13.2085 4.25592 14.7915 5.23223 15.7678L5.2352 15.7707L5.23825 15.7738L5.24138 15.7769L5.24459 15.7801L5.24788 15.7834L5.25124 15.7868L5.25468 15.7902L5.25821 15.7937L5.2618 15.7973L5.26548 15.801L5.26923 15.8048L5.27306 15.8086L5.27697 15.8125L5.28095 15.8165L5.285 15.8205L5.28913 15.8247L5.29334 15.8289L5.29762 15.8332L5.30197 15.8375L5.3064 15.8419L5.3109 15.8464L5.31548 15.851L5.32013 15.8557L5.32484 15.8604L5.32964 15.8652L5.3345 15.87L5.33943 15.875L5.34444 15.88L5.34952 15.8851L5.35466 15.8902L5.35988 15.8954L5.36517 15.9007L5.37052 15.9061L5.37595 15.9115L5.38144 15.917L5.38701 15.9225L5.39264 15.9282L5.39833 15.9339L5.4041 15.9396L5.40993 15.9455L5.41583 15.9514L5.4218 15.9573L5.42783 15.9634L5.43392 15.9695L5.44009 15.9756L5.44631 15.9818L5.45261 15.9881L5.45896 15.9945L5.46538 16.0009L5.47187 16.0074L5.47842 16.014L5.48503 16.0206L5.4917 16.0272L5.49844 16.034L5.50523 16.0408L5.51209 16.0476L5.51901 16.0545L5.52599 16.0615L5.53304 16.0686L5.54014 16.0757L5.5473 16.0828L5.55452 16.0901L5.56181 16.0973L5.56915 16.1047L5.57655 16.1121L5.584 16.1195L5.59152 16.1271L5.59909 16.1346L5.60672 16.1423L5.61441 16.1499L5.62215 16.1577L5.62996 16.1655L5.63781 16.1733L5.64572 16.1813L5.65369 16.1892L5.66171 16.1972L5.66979 16.2053L5.67792 16.2135L5.68611 16.2216L5.69435 16.2299L5.70264 16.2382L5.71098 16.2465L5.71938 16.2549L5.72783 16.2634L5.73633 16.2719L5.74489 16.2804L5.75349 16.289L5.76215 16.2977L5.77085 16.3064L5.77961 16.3151L5.78842 16.3239L5.79727 16.3328L5.80618 16.3417L5.81513 16.3507L5.82413 16.3597L5.83319 16.3687L5.84228 16.3778L5.85143 16.387L5.86062 16.3962L5.86987 16.4054L5.87915 16.4147L5.88849 16.424L5.89787 16.4334L5.90729 16.4428L5.91676 16.4523L5.92628 16.4618L5.93584 16.4714L5.94544 16.481L5.95509 16.4906L5.96478 16.5003L5.97452 16.5101L5.98429 16.5198L5.99411 16.5296L6.00398 16.5395L6.01388 16.5494L6.02383 16.5594L6.03381 16.5693L6.04384 16.5794L6.05391 16.5894L6.06402 16.5996L6.07417 16.6097L6.08436 16.6199L6.09458 16.6301L6.10485 16.6404L6.11515 16.6507L6.1255 16.661L6.13588 16.6714L6.1463 16.6818L6.15675 16.6923L6.16724 16.7028L6.17777 16.7133L6.18834 16.7239L6.19894 16.7345L6.20958 16.7451L6.22025 16.7558L6.23095 16.7665L6.24169 16.7772L6.25247 16.788L6.26328 16.7988L6.27412 16.8097L6.285 16.8205L6.29591 16.8314L6.30685 16.8424L6.31782 16.8534L6.32882 16.8644L6.33986 16.8754L6.35093 16.8865L6.36203 16.8976L6.37316 16.9087L6.38432 16.9198L6.3955 16.931L6.40672 16.9423L6.41797 16.9535L6.42925 16.9648L6.44055 16.9761L6.45189 16.9874L6.46325 16.9988L6.47463 17.0102L6.48605 17.0216L6.49749 17.033L6.50896 17.0445L6.52046 17.056L6.53198 17.0675L6.54352 17.0791L6.55509 17.0906L6.56669 17.1022L6.57831 17.1138L6.58995 17.1255L6.60162 17.1372L6.61331 17.1488L6.62503 17.1606L6.63677 17.1723L6.64853 17.1841L6.66031 17.1958L6.67211 17.2076L6.68394 17.2195L6.69579 17.2313L6.70765 17.2432L6.71954 17.2551L6.73145 17.267L6.74338 17.2789L6.75532 17.2909L6.76729 17.3028L6.77927 17.3148L6.79128 17.3268L6.8033 17.3388L6.81534 17.3509L6.82739 17.3629L6.83947 17.375L6.85156 17.3871L6.86367 17.3992L6.87579 17.4113L6.88793 17.4235L6.90008 17.4356L6.91225 17.4478L6.92443 17.46L6.93663 17.4722L6.94884 17.4844L6.96107 17.4966L6.97331 17.5088L6.98556 17.5211L6.99783 17.5334L7.0101 17.5456L7.02239 17.5579L7.03469 17.5702L7.04701 17.5825L7.05933 17.5949L7.07166 17.6072L7.08401 17.6195L7.09636 17.6319L7.10873 17.6443L7.1211 17.6566L7.13349 17.669L7.14588 17.6814L7.15828 17.6938L7.17068 17.7062L7.1831 17.7186L7.19552 17.7311L7.20795 17.7435L7.22039 17.7559L7.23283 17.7684L7.24528 17.7808L7.25774 17.7933L7.2702 17.8057L7.28266 17.8182L7.29513 17.8307L7.30761 17.8431L7.32008 17.8556L7.33257 17.8681L7.34505 17.8806L7.35754 17.8931L7.37003 17.9056L7.38252 17.9181L7.39502 17.9306L7.40751 17.943L7.42001 17.9555L7.43251 17.968L7.44501 17.9805L7.45751 17.993L7.47001 18.0055L7.48251 18.018L7.49501 18.0305L7.50751 18.043L7.52 18.0555L7.5325 18.068L7.54499 18.0805L7.55748 18.093L7.56997 18.1055L7.58245 18.118L7.59494 18.1305L7.60741 18.1429L7.61989 18.1554L7.63236 18.1679L7.64482 18.1804L7.65728 18.1928L7.66973 18.2053L7.68218 18.2177L7.69462 18.2302L7.70706 18.2426L7.71949 18.255L7.73191 18.2674L7.74433 18.2799L7.75673 18.2923L7.76913 18.3047L7.78152 18.3171L7.7939 18.3294L7.80628 18.3418L7.81864 18.3542L7.83099 18.3665L7.84334 18.3789L7.85567 18.3912L7.86799 18.4035L7.8803 18.4158L7.8926 18.4281L7.90489 18.4404L7.91717 18.4527L7.92943 18.465L7.94168 18.4772L7.95392 18.4894L7.96614 18.5017L7.97835 18.5139L7.99055 18.5261L8.00273 18.5383L8.0149 18.5504L8.02705 18.5626L8.03918 18.5747L8.0513 18.5868L8.06341 18.5989L8.0755 18.611L8.08757 18.6231L8.09962 18.6352L8.11166 18.6472L8.12368 18.6592L8.13568 18.6712L8.14766 18.6832L8.15963 18.6952L8.17157 18.7071L8.1835 18.719L8.1954 18.7309L8.20729 18.7428L8.21915 18.7547L8.23099 18.7665L8.24282 18.7783L8.25462 18.7902L8.2664 18.8019L8.27815 18.8137L8.28989 18.8254L8.3016 18.8371L8.31329 18.8488L8.32496 18.8605L8.3366 18.8721L8.34821 18.8837L8.35981 18.8953L8.37137 18.9069L8.38292 18.9185L8.39443 18.93L8.40592 18.9415L8.41739 18.9529L8.42883 18.9644L8.44024 18.9758L8.45163 18.9872L8.46298 18.9985L8.47431 19.0098L8.48561 19.0211L8.49689 19.0324L8.50813 19.0437L8.51934 19.0549L8.53053 19.0661L8.54168 19.0772L8.55281 19.0883L8.5639 19.0994L8.57497 19.1105L8.586 19.1215L8.597 19.1325L8.60797 19.1435L8.61891 19.1544L8.62981 19.1653L8.64068 19.1762L8.65152 19.1871L8.66232 19.1979L8.67309 19.2086L8.68383 19.2194L8.69453 19.2301L8.7052 19.2407L8.71583 19.2514L8.72643 19.262L8.73699 19.2725L8.74751 19.283L8.758 19.2935L8.76845 19.304L8.77886 19.3144L8.78924 19.3248L8.79958 19.3351L8.80988 19.3454L8.82014 19.3557L8.83036 19.3659L8.84054 19.3761L8.85069 19.3862L8.86079 19.3963L8.87085 19.4064L8.88088 19.4164L8.89086 19.4264L8.9008 19.4363L8.9107 19.4462L8.92055 19.4561L8.93037 19.4659L8.94014 19.4757L8.94987 19.4854L8.95956 19.4951L8.9692 19.5047L8.9788 19.5143L8.98835 19.5239L8.99786 19.5334L9.00732 19.5429L9.01674 19.5523L9.02612 19.5616L9.03544 19.571L9.04472 19.5803L9.05396 19.5895L9.06315 19.5987L9.07229 19.6078L9.08138 19.6169L9.09042 19.626L9.09942 19.635L9.10837 19.6439L9.11727 19.6528L9.12612 19.6617L9.13492 19.6704L9.14367 19.6792L9.15237 19.6879L9.16101 19.6965L9.16961 19.7051L9.17816 19.7137L9.18665 19.7222L9.1951 19.7306L9.20349 19.739L9.21183 19.7474L9.22011 19.7556L9.22834 19.7639L9.23652 19.7721L9.24464 19.7802L9.25271 19.7882L9.26073 19.7963L9.26869 19.8042L9.27659 19.8121L9.28444 19.82L9.29224 19.8278L9.29997 19.8355L9.30765 19.8432L9.31528 19.8508L9.32284 19.8584L9.33035 19.8659L9.3378 19.8733L9.34519 19.8807L9.35252 19.8881L9.3598 19.8953L9.36701 19.9025L9.37417 19.9097L9.38126 19.9168L9.38829 19.9238L9.39527 19.9308L9.40218 19.9377L9.40903 19.9446L9.41582 19.9514L9.42255 19.9581L9.42921 19.9647L9.43582 19.9713L9.44235 19.9779L9.44883 19.9844L9.45524 19.9908L9.46159 19.9971L9.46788 20.0034L9.47409 20.0096L9.48025 20.0158L9.48634 20.0219L9.49236 20.0279L9.49832 20.0338L9.50421 20.0397L9.51003 20.0456L9.51579 20.0513L9.52147 20.057L9.5271 20.0626L9.53265 20.0682L9.53813 20.0737L9.54355 20.0791L9.5489 20.0844L9.55417 20.0897L9.55938 20.0949L9.56452 20.1001L9.56959 20.1051L9.57458 20.1101L9.57951 20.115L9.58436 20.1199L9.58914 20.1247L9.59385 20.1294L9.59849 20.134L9.60306 20.1386L9.60755 20.1431L9.61197 20.1475L9.61631 20.1518L9.62058 20.1561L9.62478 20.1603L9.6289 20.1644L9.63294 20.1685L9.63691 20.1724L9.64081 20.1763L9.64463 20.1802L9.64837 20.1839L9.65204 20.1876L9.65562 20.1912L9.65913 20.1947L9.66257 20.1981L9.66592 20.2015L9.6692 20.2047L9.6724 20.2079L9.67551 20.211L9.67855 20.2141L9.68151 20.217L9.68439 20.2199L9.68719 20.2227L9.68991 20.2254L9.69254 20.2281L9.6951 20.2306L9.69757 20.2331L9.69996 20.2355L9.70227 20.2378L9.7045 20.24L9.70664 20.2422L9.7087 20.2442L9.71067 20.2462L9.71256 20.2481L9.71437 20.2499L9.71609 20.2516L9.71773 20.2533L9.71928 20.2548L9.72074 20.2563L9.72212 20.2577L9.72341 20.2589L9.72462 20.2602L9.72574 20.2613L9.72677 20.2623L9.72771 20.2632L9.72857 20.2641L9.72933 20.2649L9.73001 20.2655L9.7306 20.2661L9.7311 20.2666L9.7315 20.267L9.73182 20.2674L9.73205 20.2676L9.73219 20.2677L11.5 18.5L9.73223 20.2678C10.6986 21.2341 12.2617 21.2454 13.242 20.2932L11.5 18.5C13.242 20.2932 13.242 20.2932 13.2421 20.2931L13.2423 20.2929L13.2432 20.292L13.2465 20.2888L13.2594 20.2763L13.3094 20.2276L13.5005 20.0416C13.6662 19.8802 13.9055 19.6467 14.201 19.3577C14.7918 18.78 15.6076 17.9799 16.5074 17.0906C18.2973 15.3215 20.4523 13.1671 21.8205 11.7134Z" fill="#65CC76"/>
</svg>
