<svg width="28" height="28" viewBox="0 0 28 28" fill="none" xmlns="http://www.w3.org/2000/svg">
<path fill-rule="evenodd" clip-rule="evenodd" d="M14.001 28C21.733 28 28.001 21.732 28.001 14C28.001 6.26801 21.733 0 14.001 0C6.26899 0 0.000976562 6.26801 0.000976562 14C0.000976562 21.732 6.26899 28 14.001 28ZM12.9639 5.91993C14.6627 4.10793 17.2094 3.56961 19.4104 4.34293L14.3083 7.03456L13.2368 11.324L16.4023 14.3212L20.6011 12.9963L22.9619 7.64268C23.9057 9.80408 23.5397 12.4136 21.8249 14.2426C20.0519 16.1337 17.3553 16.6375 15.0921 15.7108L7.16464 24.1663L4 21.1939L11.9275 12.7384C10.8598 10.5365 11.1909 7.81105 12.9639 5.91993Z" fill="#6576CC"/>
</svg>
