<svg width="28" height="28" viewBox="0 0 28 28" fill="none" xmlns="http://www.w3.org/2000/svg">
<path fill-rule="evenodd" clip-rule="evenodd" d="M14 28C21.732 28 28 21.732 28 14C28 6.26801 21.732 0 14 0C6.26801 0 0 6.26801 0 14C0 21.732 6.26801 28 14 28ZM10.7678 7.23223C9.79146 6.25592 8.20854 6.25592 7.23223 7.23223C6.25592 8.20854 6.25592 9.79146 7.23223 10.7678L7.23465 10.7702L7.23721 10.7727L7.23992 10.7755L7.24277 10.7783L7.24576 10.7813L7.2489 10.7844L7.25218 10.7877L7.25561 10.7911L7.25918 10.7947L7.26288 10.7984L7.26673 10.8023L7.27072 10.8063L7.27485 10.8104L7.27913 10.8147L7.28354 10.8191L7.28809 10.8236L7.29277 10.8283L7.2976 10.8331L7.30257 10.8381L7.30767 10.8432L7.31291 10.8484L7.31828 10.8538L7.32379 10.8593L7.32944 10.865L7.33522 10.8708L7.34114 10.8767L7.34719 10.8827L7.35338 10.8889L7.3597 10.8952L7.36615 10.9017L7.37273 10.9083L7.37945 10.915L7.3863 10.9218L7.39328 10.9288L7.40039 10.9359L7.40763 10.9432L7.415 10.9505L7.4225 10.958L7.43013 10.9657L7.43789 10.9734L7.44577 10.9813L7.45379 10.9893L7.46193 10.9975L7.4702 11.0057L7.47859 11.0141L7.48711 11.0226L7.49576 11.0313L7.50453 11.0401L7.51342 11.049L7.52245 11.058L7.53159 11.0671L7.54086 11.0764L7.55025 11.0858L7.55976 11.0953L7.5694 11.1049L7.57915 11.1147L7.58903 11.1246L7.59903 11.1346L7.60915 11.1447L7.61939 11.1549L7.62974 11.1653L7.64022 11.1758L7.65082 11.1863L7.66153 11.1971L7.67236 11.2079L7.68331 11.2188L7.69438 11.2299L7.70556 11.2411L7.71686 11.2524L7.72827 11.2638L7.7398 11.2753L7.75144 11.287L7.7632 11.2987L7.77507 11.3106L7.78705 11.3226L7.79915 11.3347L7.81136 11.3469L7.82368 11.3592L7.83611 11.3716L7.84866 11.3842L7.86131 11.3968L7.87408 11.4096L7.88695 11.4225L7.89994 11.4355L7.91303 11.4486L7.92623 11.4618L7.93954 11.4751L7.95296 11.4885L7.96648 11.502L7.98011 11.5156L7.99385 11.5294L8.00769 11.5432L8.02164 11.5572L8.0357 11.5712L8.04986 11.5854L8.06412 11.5997L8.07848 11.614L8.09295 11.6285L8.10752 11.6431L8.1222 11.6577L8.13698 11.6725L8.15185 11.6874L8.16683 11.7024L8.18191 11.7174L8.19709 11.7326L8.21237 11.7479L8.22775 11.7633L8.24323 11.7788L8.2588 11.7943L8.27448 11.81L8.29025 11.8258L8.30612 11.8417L8.32208 11.8576L8.33814 11.8737L8.3543 11.8898L8.37055 11.9061L8.3869 11.9224L8.40334 11.9389L8.41988 11.9554L8.43651 11.972L8.45323 11.9888L8.47004 12.0056L8.48695 12.0225L8.50395 12.0395L8.52104 12.0566L8.53822 12.0738L8.5555 12.091L8.57286 12.1084L8.59031 12.1258L8.60785 12.1434L8.62548 12.161L8.6432 12.1787L8.66101 12.1965L8.6789 12.2144L8.69688 12.2324L8.71495 12.2505L8.7331 12.2686L8.75134 12.2869L8.76966 12.3052L8.78807 12.3236L8.80657 12.3421L8.82514 12.3607L8.84381 12.3793L8.86255 12.3981L8.88138 12.4169L8.90028 12.4358L8.91928 12.4548L8.93835 12.4739L8.9575 12.493L8.97673 12.5123L8.99605 12.5316L9.01544 12.551L9.03491 12.5704L9.05446 12.59L9.07409 12.6096L9.0938 12.6293L9.11358 12.6491L9.13344 12.669L9.15338 12.6889L9.1734 12.7089L9.19348 12.729L9.21365 12.7492L9.23389 12.7694L9.2542 12.7897L9.27459 12.8101L9.29505 12.8306L9.31558 12.8511L9.33619 12.8717L9.35687 12.8924L9.37762 12.9132L9.39844 12.934L9.41933 12.9549L9.4403 12.9758L9.46133 12.9969L9.48243 13.018L9.5036 13.0391L9.52484 13.0604L9.54615 13.0817L9.56752 13.1031L9.58897 13.1245L9.61048 13.146L9.63205 13.1676L9.6537 13.1892L9.6754 13.2109L9.69718 13.2327L9.71901 13.2545L9.74092 13.2765L9.76288 13.2984L9.78491 13.3204L9.807 13.3425L9.82916 13.3647L9.85137 13.3869L9.87365 13.4092L9.89599 13.4315L9.91839 13.4539L9.94085 13.4764L9.96337 13.4989L9.98595 13.5215L10.0086 13.5441L10.0313 13.5668L10.054 13.5896L10.0769 13.6124L10.0997 13.6353L10.1227 13.6582L10.1456 13.6812L10.1687 13.7042L10.1918 13.7273L10.2149 13.7505L10.2381 13.7737L10.2614 13.7969L10.2847 13.8202L10.3081 13.8436L10.3315 13.867L10.3549 13.8905L10.3785 13.914L10.402 13.9376L10.4257 13.9612L10.4493 13.9849L10.4731 14.0086L10.4968 14.0324L10.5207 14.0562L10.5445 14.0801L10.5685 14.104L10.5924 14.128L10.6165 14.152L10.6405 14.1761L10.6646 14.2002L10.6888 14.2243L10.713 14.2485L10.7145 14.25L7.23223 17.7322C6.25592 18.7085 6.25592 20.2915 7.23223 21.2678C8.20854 22.2441 9.79146 22.2441 10.7678 21.2678L14.25 17.7855L14.2704 17.8059L14.2967 17.8322L14.323 17.8585L14.3493 17.8848L14.3756 17.9111L14.4019 17.9374L14.4281 17.9636L14.4543 17.9899L14.4805 18.0161L14.5067 18.0423L14.5329 18.0685L14.5591 18.0946L14.5852 18.1207L14.6113 18.1469L14.6374 18.173L14.6635 18.199L14.6896 18.2251L14.7156 18.2511L14.7416 18.2771L14.7676 18.3031L14.7936 18.3291L14.8195 18.355L14.8454 18.381L14.8713 18.4069L14.8972 18.4327L14.923 18.4586L14.9489 18.4844L14.9747 18.5102L15.0004 18.536L15.0262 18.5617L15.0519 18.5874L15.0776 18.6131L15.1032 18.6388L15.1288 18.6644L15.1544 18.69L15.18 18.7155L15.2056 18.7411L15.2311 18.7666L15.2565 18.7921L15.282 18.8175L15.3074 18.8429L15.3328 18.8683L15.3581 18.8937L15.3835 18.919L15.4087 18.9443L15.434 18.9695L15.4592 18.9947L15.4844 19.0199L15.5095 19.0451L15.5346 19.0702L15.5597 19.0953L15.5848 19.1203L15.6098 19.1453L15.6347 19.1703L15.6597 19.1952L15.6845 19.2201L15.7094 19.2449L15.7342 19.2697L15.759 19.2945L15.7837 19.3192L15.8084 19.3439L15.833 19.3686L15.8576 19.3932L15.8822 19.4177L15.9067 19.4423L15.9312 19.4667L15.9557 19.4912L15.98 19.5156L16.0044 19.5399L16.0287 19.5642L16.053 19.5885L16.0772 19.6127L16.1013 19.6369L16.1255 19.661L16.1495 19.6851L16.1736 19.7091L16.1976 19.7331L16.2215 19.757L16.2454 19.7809L16.2692 19.8048L16.293 19.8285L16.3167 19.8523L16.3404 19.876L16.3641 19.8996L16.3877 19.9232L16.4112 19.9467L16.4347 19.9702L16.4581 19.9936L16.4815 20.017L16.5048 20.0403L16.5281 20.0636L16.5513 20.0868L16.5745 20.11L16.5976 20.1331L16.6206 20.1562L16.6436 20.1792L16.6666 20.2021L16.6895 20.225L16.7123 20.2478L16.7351 20.2706L16.7578 20.2933L16.7804 20.3159L16.803 20.3385L16.8255 20.3611L16.848 20.3836L16.8704 20.406L16.8928 20.4283L16.9151 20.4506L16.9373 20.4728L16.9595 20.495L16.9816 20.5171L17.0036 20.5392L17.0256 20.5612L17.0475 20.5831L17.0694 20.6049L17.0912 20.6267L17.1129 20.6484L17.1346 20.6701L17.1562 20.6917L17.1777 20.7132L17.1991 20.7347L17.2205 20.7561L17.2419 20.7774L17.2631 20.7987L17.2843 20.8198L17.3054 20.841L17.3265 20.862L17.3475 20.883L17.3684 20.9039L17.3892 20.9247L17.41 20.9455L17.4307 20.9662L17.4513 20.9868L17.4718 21.0074L17.4923 21.0279L17.5127 21.0483L17.5331 21.0686L17.5533 21.0889L17.5735 21.109L17.5936 21.1291L17.6136 21.1492L17.6336 21.1691L17.6535 21.189L17.6733 21.2088L17.693 21.2285L17.7127 21.2482L17.7322 21.2678C18.7085 22.2441 20.2915 22.2441 21.2678 21.2678C22.2441 20.2915 22.2441 18.7085 21.2678 17.7322L21.2482 17.7127L21.2285 17.693L21.2088 17.6733L21.189 17.6535L21.1691 17.6336L21.1492 17.6136L21.1291 17.5936L21.109 17.5735L21.0889 17.5533L21.0686 17.5331L21.0483 17.5127L21.0279 17.4923L21.0074 17.4718L20.9868 17.4513L20.9662 17.4307L20.9455 17.41L20.9247 17.3892L20.9039 17.3684L20.883 17.3475L20.862 17.3265L20.841 17.3054L20.8198 17.2843L20.7987 17.2631L20.7774 17.2419L20.7561 17.2205L20.7347 17.1991L20.7132 17.1777L20.6917 17.1562L20.6701 17.1346L20.6484 17.1129L20.6267 17.0912L20.6049 17.0694L20.5831 17.0475L20.5612 17.0256L20.5392 17.0036L20.5171 16.9816L20.495 16.9595L20.4728 16.9373L20.4506 16.9151L20.4283 16.8928L20.406 16.8704L20.3836 16.848L20.3611 16.8255L20.3385 16.803L20.3159 16.7804L20.2933 16.7578L20.2706 16.7351L20.2478 16.7123L20.225 16.6895L20.2021 16.6666L20.1792 16.6436L20.1562 16.6206L20.1331 16.5976L20.11 16.5745L20.0868 16.5513L20.0636 16.5281L20.0403 16.5048L20.017 16.4815L19.9936 16.4581L19.9702 16.4347L19.9467 16.4112L19.9232 16.3877L19.8996 16.3641L19.876 16.3404L19.8523 16.3167L19.8285 16.293L19.8048 16.2692L19.7809 16.2454L19.757 16.2215L19.7331 16.1976L19.7091 16.1736L19.6851 16.1495L19.661 16.1255L19.6369 16.1013L19.6127 16.0772L19.5885 16.053L19.5642 16.0287L19.5399 16.0044L19.5156 15.98L19.4912 15.9557L19.4667 15.9312L19.4423 15.9067L19.4177 15.8822L19.3932 15.8576L19.3686 15.833L19.3439 15.8084L19.3192 15.7837L19.2945 15.759L19.2697 15.7342L19.2449 15.7094L19.2201 15.6845L19.1952 15.6597L19.1703 15.6347L19.1453 15.6098L19.1203 15.5848L19.0953 15.5597L19.0702 15.5346L19.0451 15.5095L19.0199 15.4844L18.9947 15.4592L18.9695 15.434L18.9443 15.4087L18.919 15.3835L18.8937 15.3581L18.8683 15.3328L18.8429 15.3074L18.8175 15.282L18.7921 15.2565L18.7666 15.2311L18.7411 15.2056L18.7155 15.18L18.69 15.1544L18.6644 15.1288L18.6388 15.1032L18.6131 15.0776L18.5874 15.0519L18.5617 15.0262L18.536 15.0004L18.5102 14.9747L18.4844 14.9489L18.4586 14.923L18.4327 14.8972L18.4069 14.8713L18.381 14.8454L18.355 14.8195L18.3291 14.7936L18.3031 14.7676L18.2771 14.7416L18.2511 14.7156L18.2251 14.6896L18.199 14.6635L18.173 14.6374L18.1469 14.6113L18.1207 14.5852L18.0946 14.5591L18.0685 14.5329L18.0423 14.5067L18.0161 14.4805L17.9899 14.4543L17.9636 14.4281L17.9374 14.4019L17.9111 14.3756L17.8848 14.3493L17.8585 14.323L17.8322 14.2967L17.8059 14.2704L17.7855 14.25L21.2678 10.7678C22.2441 9.79146 22.2441 8.20854 21.2678 7.23223C20.2915 6.25592 18.7085 6.25592 17.7322 7.23223L14.25 10.7145L14.2485 10.713L14.2243 10.6888L14.2002 10.6646L14.1761 10.6405L14.152 10.6165L14.128 10.5924L14.104 10.5685L14.0801 10.5445L14.0562 10.5207L14.0324 10.4968L14.0086 10.4731L13.9849 10.4493L13.9612 10.4257L13.9376 10.402L13.914 10.3785L13.8905 10.3549L13.867 10.3315L13.8436 10.3081L13.8202 10.2847L13.7969 10.2614L13.7737 10.2381L13.7505 10.2149L13.7273 10.1918L13.7042 10.1687L13.6812 10.1456L13.6582 10.1227L13.6353 10.0997L13.6124 10.0769L13.5896 10.054L13.5668 10.0313L13.5441 10.0086L13.5215 9.98595L13.4989 9.96337L13.4764 9.94085L13.4539 9.91839L13.4315 9.89599L13.4092 9.87365L13.3869 9.85137L13.3647 9.82916L13.3425 9.807L13.3204 9.78491L13.2984 9.76288L13.2765 9.74092L13.2545 9.71901L13.2327 9.69718L13.2109 9.6754L13.1892 9.6537L13.1676 9.63205L13.146 9.61048L13.1245 9.58897L13.1031 9.56752L13.0817 9.54615L13.0604 9.52484L13.0391 9.5036L13.018 9.48243L12.9969 9.46133L12.9758 9.4403L12.9549 9.41933L12.934 9.39844L12.9132 9.37762L12.8924 9.35687L12.8717 9.33619L12.8511 9.31558L12.8306 9.29505L12.8101 9.27459L12.7897 9.2542L12.7694 9.23389L12.7492 9.21365L12.729 9.19348L12.7089 9.1734L12.6889 9.15338L12.669 9.13344L12.6491 9.11358L12.6293 9.0938L12.6096 9.07409L12.59 9.05446L12.5704 9.03491L12.551 9.01544L12.5316 8.99605L12.5123 8.97673L12.493 8.9575L12.4739 8.93835L12.4548 8.91928L12.4358 8.90028L12.4169 8.88138L12.3981 8.86255L12.3793 8.84381L12.3607 8.82514L12.3421 8.80657L12.3236 8.78807L12.3052 8.76966L12.2869 8.75134L12.2686 8.7331L12.2505 8.71495L12.2324 8.69688L12.2144 8.6789L12.1965 8.66101L12.1787 8.6432L12.161 8.62548L12.1434 8.60785L12.1258 8.59031L12.1084 8.57286L12.091 8.5555L12.0738 8.53822L12.0566 8.52104L12.0395 8.50395L12.0225 8.48695L12.0056 8.47004L11.9888 8.45323L11.972 8.43651L11.9554 8.41988L11.9389 8.40334L11.9224 8.3869L11.9061 8.37055L11.8898 8.3543L11.8737 8.33814L11.8576 8.32208L11.8417 8.30612L11.8258 8.29025L11.81 8.27448L11.7943 8.2588L11.7788 8.24323L11.7633 8.22775L11.7479 8.21237L11.7326 8.19709L11.7174 8.18191L11.7024 8.16683L11.6874 8.15185L11.6725 8.13698L11.6577 8.1222L11.6431 8.10752L11.6285 8.09295L11.614 8.07848L11.5997 8.06412L11.5854 8.04986L11.5712 8.0357L11.5572 8.02164L11.5432 8.00769L11.5294 7.99385L11.5156 7.98011L11.502 7.96648L11.4885 7.95296L11.4751 7.93954L11.4618 7.92623L11.4486 7.91303L11.4355 7.89994L11.4225 7.88695L11.4096 7.87408L11.3968 7.86131L11.3842 7.84866L11.3716 7.83611L11.3592 7.82368L11.3469 7.81136L11.3347 7.79915L11.3226 7.78705L11.3106 7.77507L11.2987 7.7632L11.287 7.75144L11.2753 7.7398L11.2638 7.72827L11.2524 7.71686L11.2411 7.70556L11.2299 7.69438L11.2188 7.68331L11.2079 7.67236L11.1971 7.66153L11.1863 7.65082L11.1758 7.64022L11.1653 7.62974L11.1549 7.61939L11.1447 7.60915L11.1346 7.59903L11.1246 7.58903L11.1147 7.57915L11.1049 7.5694L11.0953 7.55976L11.0858 7.55025L11.0764 7.54086L11.0671 7.53159L11.058 7.52245L11.049 7.51342L11.0401 7.50453L11.0313 7.49576L11.0226 7.48711L11.0141 7.47859L11.0057 7.4702L10.9975 7.46193L10.9893 7.45379L10.9813 7.44577L10.9734 7.43789L10.9657 7.43013L10.958 7.4225L10.9505 7.415L10.9432 7.40763L10.9359 7.40039L10.9288 7.39328L10.9218 7.3863L10.915 7.37945L10.9083 7.37273L10.9017 7.36615L10.8952 7.3597L10.8889 7.35338L10.8827 7.34719L10.8767 7.34114L10.8708 7.33522L10.865 7.32944L10.8593 7.32379L10.8538 7.31828L10.8484 7.31291L10.8432 7.30767L10.8381 7.30257L10.8331 7.2976L10.8283 7.29277L10.8236 7.28809L10.8191 7.28354L10.8147 7.27913L10.8104 7.27485L10.8063 7.27072L10.8023 7.26673L10.7984 7.26288L10.7947 7.25918L10.7911 7.25561L10.7877 7.25218L10.7844 7.2489L10.7813 7.24576L10.7783 7.24277L10.7755 7.23992L10.7727 7.23721L10.7702 7.23465L10.7678 7.23223Z" fill="#F27878"/>
</svg>
