<svg width="32" height="32" viewBox="0 0 32 32" fill="none" xmlns="http://www.w3.org/2000/svg">
<g clip-path="url(#clip0)">
<circle cx="16" cy="16" r="8" fill="black"/>
<path d="M15 1C15 0.447715 15.4477 0 16 0C16.5523 0 17 0.447715 17 1V5C17 5.55228 16.5523 6 16 6C15.4477 6 15 5.55228 15 5V1Z" fill="black"/>
<path d="M25.8995 4.68629C26.29 4.29577 26.9232 4.29577 27.3137 4.68629C27.7042 5.07682 27.7042 5.70998 27.3137 6.10051L24.4853 8.92893C24.0948 9.31946 23.4616 9.31946 23.0711 8.92893C22.6805 8.53841 22.6805 7.90524 23.0711 7.51472L25.8995 4.68629Z" fill="black"/>
<path d="M31 15C31.5523 15 32 15.4477 32 16C32 16.5523 31.5523 17 31 17H27C26.4477 17 26 16.5523 26 16C26 15.4477 26.4477 15 27 15H31Z" fill="black"/>
<path d="M27.3137 25.8995C27.7042 26.29 27.7042 26.9232 27.3137 27.3137C26.9232 27.7042 26.29 27.7042 25.8995 27.3137L23.0711 24.4853C22.6805 24.0948 22.6805 23.4616 23.0711 23.0711C23.4616 22.6805 24.0948 22.6805 24.4853 23.0711L27.3137 25.8995Z" fill="black"/>
<path d="M15 27C15 26.4477 15.4477 26 16 26C16.5523 26 17 26.4477 17 27V31C17 31.5523 16.5523 32 16 32C15.4477 32 15 31.5523 15 31V27Z" fill="black"/>
<path d="M7.51472 23.0711C7.90524 22.6805 8.53841 22.6805 8.92893 23.0711C9.31946 23.4616 9.31946 24.0948 8.92893 24.4853L6.10051 27.3137C5.70998 27.7042 5.07682 27.7042 4.68629 27.3137C4.29577 26.9232 4.29577 26.29 4.68629 25.8995L7.51472 23.0711Z" fill="black"/>
<path d="M5 15C5.55228 15 6 15.4477 6 16C6 16.5523 5.55228 17 5 17H1C0.447715 17 -2.41411e-08 16.5523 0 16C2.41411e-08 15.4477 0.447715 15 1 15H5Z" fill="black"/>
<path d="M8.92893 7.51472C9.31946 7.90524 9.31946 8.53841 8.92893 8.92893C8.53841 9.31946 7.90524 9.31946 7.51472 8.92893L4.68629 6.1005C4.29577 5.70998 4.29577 5.07682 4.68629 4.68629C5.07682 4.29577 5.70998 4.29577 6.10051 4.68629L8.92893 7.51472Z" fill="black"/>
</g>
<defs>
<clipPath id="clip0">
<rect width="32" height="32" fill="white"/>
</clipPath>
</defs>
</svg>
