<svg width="23" height="30" viewBox="0 0 23 30" fill="none" xmlns="http://www.w3.org/2000/svg">
<path fill-rule="evenodd" clip-rule="evenodd" d="M7.00309 5.86467C6.77417 5.94451 6.65542 6.18897 6.73786 6.41069L9.3252 13.3693C9.40764 13.591 9.66005 13.706 9.88897 13.6261L10.7672 13.3198L16.7878 29.5119C12.3805 31.0491 7.52103 28.8348 5.9339 24.5663L0.349042 9.54602C-0.75015 6.58979 0.833178 3.33026 3.8855 2.26567L6.33888 1.40999L7.88133 5.55836L7.00309 5.86467ZM8.44052 5.36332L9.37959 5.03579C9.60851 4.95595 9.86092 5.07096 9.94336 5.29268L12.5307 12.2512C12.6131 12.473 12.4944 12.7174 12.2655 12.7973L11.3264 13.1248L17.3469 29.3168C21.7878 27.768 24.0914 23.0256 22.4922 18.7246L16.9292 3.76319C15.83 0.806948 12.4646 -0.726535 9.41222 0.338054L6.89806 1.21494L8.44052 5.36332Z" fill="#8D8D8D"/>
<path fill-rule="evenodd" clip-rule="evenodd" d="M3.8855 2.26567L6.33888 1.40999L7.88133 5.55836L7.00309 5.86467C6.77417 5.94451 6.65542 6.18897 6.73786 6.41069L9.3252 13.3693C9.40764 13.591 9.66005 13.706 9.88897 13.6261L10.7672 13.3198L16.7878 29.5119C12.3805 31.0491 7.52103 28.8348 5.9339 24.5663L0.349042 9.54602C-0.75015 6.58979 0.833178 3.33026 3.8855 2.26567Z" fill="#8D8D8D"/>
<path fill-rule="evenodd" clip-rule="evenodd" d="M9.41222 0.338054C12.4646 -0.726535 15.83 0.806948 16.9292 3.76319L22.4922 18.7246C24.0914 23.0256 21.7878 27.768 17.3469 29.3168L11.3264 13.1248L12.2655 12.7973C12.4944 12.7174 12.6131 12.473 12.5307 12.2512L9.94336 5.29268C9.86092 5.07096 9.60851 4.95595 9.37959 5.03579L8.44052 5.36332L6.89806 1.21494L9.41222 0.338054Z" fill="#8D8D8D"/>
</svg>
