<svg width="1473" height="1582" viewBox="0 0 1473 1582" fill="none" xmlns="http://www.w3.org/2000/svg">
<g filter="url(#filter0_di)">
<g filter="url(#filter1_d)">
<path d="M520.952 259.837C546.094 281.354 560.923 298.499 572.041 337.33C597.158 425.051 572.06 422.268 652.612 561.71C717.053 673.265 735.033 697.303 735.968 695.377" stroke="black" stroke-width="20" stroke-linecap="round" stroke-linejoin="bevel"/>
</g>
<path d="M572.164 327.234L478.079 361.116C374.155 398.541 320.247 513.126 357.671 617.05L544.02 1134.52C600.157 1290.4 772.035 1371.27 927.921 1315.13V1315.13L572.164 327.234Z" fill="#C4C4C4"/>
<path d="M922.183 413.76C884.759 309.837 770.173 255.928 666.249 293.353L572.164 327.235L927.921 1315.13V1315.13C1083.81 1258.99 1164.67 1087.11 1108.53 931.229L922.183 413.76Z" fill="#8D8D8D"/>
<g filter="url(#filter2_i)">
<rect width="116" height="290" rx="15" transform="matrix(-0.940853 0.338816 0.338816 0.940853 679.25 453.415)" fill="#424242"/>
</g>
</g>
<defs>
<filter id="filter0_di" x="-75" y="-75" width="1622.11" height="1731.93" filterUnits="userSpaceOnUse" color-interpolation-filters="sRGB">
<feFlood flood-opacity="0" result="BackgroundImageFix"/>
<feColorMatrix in="SourceAlpha" type="matrix" values="0 0 0 0 0 0 0 0 0 0 0 0 0 0 0 0 0 0 127 0"/>
<feOffset/>
<feGaussianBlur stdDeviation="37.5"/>
<feColorMatrix type="matrix" values="0 0 0 0 1 0 0 0 0 1 0 0 0 0 1 0 0 0 1 0"/>
<feBlend mode="normal" in2="BackgroundImageFix" result="effect1_dropShadow"/>
<feBlend mode="normal" in="SourceGraphic" in2="effect1_dropShadow" result="shape"/>
<feColorMatrix in="SourceAlpha" type="matrix" values="0 0 0 0 0 0 0 0 0 0 0 0 0 0 0 0 0 0 127 0" result="hardAlpha"/>
<feOffset dx="8" dy="8"/>
<feGaussianBlur stdDeviation="8"/>
<feComposite in2="hardAlpha" operator="arithmetic" k2="-1" k3="1"/>
<feColorMatrix type="matrix" values="0 0 0 0 0.975 0 0 0 0 0.975 0 0 0 0 0.975 0 0 0 0.25 0"/>
<feBlend mode="normal" in2="shape" result="effect2_innerShadow"/>
</filter>
<filter id="filter1_d" x="349.413" y="194.823" width="558.684" height="565.009" filterUnits="userSpaceOnUse" color-interpolation-filters="sRGB">
<feFlood flood-opacity="0" result="BackgroundImageFix"/>
<feColorMatrix in="SourceAlpha" type="matrix" values="0 0 0 0 0 0 0 0 0 0 0 0 0 0 0 0 0 0 127 0"/>
<feOffset/>
<feGaussianBlur stdDeviation="25"/>
<feColorMatrix type="matrix" values="0 0 0 0 1 0 0 0 0 1 0 0 0 0 1 0 0 0 1 0"/>
<feBlend mode="normal" in2="BackgroundImageFix" result="effect1_dropShadow"/>
<feBlend mode="normal" in="SourceGraphic" in2="effect1_dropShadow" result="shape"/>
</filter>
<filter id="filter2_i" x="570.111" y="453.415" width="211.396" height="320.15" filterUnits="userSpaceOnUse" color-interpolation-filters="sRGB">
<feFlood flood-opacity="0" result="BackgroundImageFix"/>
<feBlend mode="normal" in="SourceGraphic" in2="BackgroundImageFix" result="shape"/>
<feColorMatrix in="SourceAlpha" type="matrix" values="0 0 0 0 0 0 0 0 0 0 0 0 0 0 0 0 0 0 127 0" result="hardAlpha"/>
<feOffset dx="4" dy="8"/>
<feGaussianBlur stdDeviation="8"/>
<feComposite in2="hardAlpha" operator="arithmetic" k2="-1" k3="1"/>
<feColorMatrix type="matrix" values="0 0 0 0 0.816667 0 0 0 0 0.816667 0 0 0 0 0.816667 0 0 0 0.2 0"/>
<feBlend mode="normal" in2="shape" result="effect1_innerShadow"/>
</filter>
</defs>
</svg>
