<svg width="24" height="30" viewBox="0 0 24 30" fill="none" xmlns="http://www.w3.org/2000/svg">
<path fill-rule="evenodd" clip-rule="evenodd" d="M7.16667 5.86467C6.93774 5.94451 6.81899 6.18897 6.90143 6.41069L9.48877 13.3693C9.57121 13.591 9.82362 13.706 10.0525 13.6261L10.9308 13.3198L16.9513 29.5119C12.544 31.0491 7.68461 28.8348 6.09747 24.5663L0.512616 9.54602C-0.586576 6.58979 0.996753 3.33026 4.04908 2.26567L6.50245 1.40999L8.0449 5.55836L7.16667 5.86467ZM8.60409 5.36332L9.54316 5.03579C9.77209 4.95595 10.0245 5.07096 10.1069 5.29268L12.6943 12.2512C12.7767 12.473 12.658 12.7174 12.429 12.7973L11.49 13.1248L17.5105 29.3168C21.9514 27.768 24.255 23.0256 22.6558 18.7246L17.0928 3.76319C15.9936 0.806948 12.6281 -0.726535 9.5758 0.338054L7.06164 1.21494L8.60409 5.36332Z" fill="#8D8D8D"/>
<path fill-rule="evenodd" clip-rule="evenodd" d="M4.04908 2.26567L6.50245 1.40999L8.0449 5.55836L7.16667 5.86467C6.93774 5.94451 6.81899 6.18897 6.90143 6.41069L9.48877 13.3693C9.57121 13.591 9.82362 13.706 10.0525 13.6261L10.9308 13.3198L16.9513 29.5119C12.544 31.0491 7.68461 28.8348 6.09747 24.5663L0.512616 9.54602C-0.586576 6.58979 0.996753 3.33026 4.04908 2.26567Z" fill="#8D8D8D"/>
<path fill-rule="evenodd" clip-rule="evenodd" d="M9.5758 0.338054C12.6281 -0.726535 15.9936 0.806948 17.0928 3.76319L22.6558 18.7246C24.255 23.0256 21.9514 27.768 17.5105 29.3168L11.49 13.1248L12.429 12.7973C12.658 12.7174 12.7767 12.473 12.6943 12.2512L10.1069 5.29268C10.0245 5.07096 9.77209 4.95595 9.54316 5.03579L8.60409 5.36332L7.06164 1.21494L9.5758 0.338054Z" fill="#8D8D8D"/>
</svg>
