<svg width="32" height="32" viewBox="0 0 32 32" fill="none" xmlns="http://www.w3.org/2000/svg" xmlns:xlink="http://www.w3.org/1999/xlink">
<style>.animation_989 {
	animation: 1s ease-in-out 0s 1 normal forwards running animation_989;
		transform: translateX(3022px) translateY(5292px) rotate(0deg);
		width: 32px;
		height: 32px;
		rx: 0px;
		opacity: 1;
		fill: ;
}
@keyframes animation_989 {
	0% {
		transform: translateX(3022px) translateY(5292px) rotate(0deg);
		width: 32px;
		height: 32px;
		rx: 0px;
		opacity: 1;
		fill: ;
	}
	100% {
		transform: translateX(3022px) translateY(5292px) rotate(0deg);
		width: 32px;
		height: 32px;
		rx: 0px;
		opacity: 1;
		fill: ;
	}
}.Vector_411 {
	animation: 1s ease-in-out 0s 1 normal forwards running Vector_411;
		opacity: 0;
		transform: translateX(9px) translateY(9px) rotate(0deg);
		width: 14px;
		height: 14px;
}
@keyframes Vector_411 {
	0% {
		opacity: 0;
		transform: translateX(9px) translateY(9px) rotate(0deg);
		width: 14px;
		height: 14px;
	}
	40% {
		transform: translateX(9px) translateY(9px) rotate(0deg);
		width: 14px;
		height: 14px;
		opacity: 0;
	}
	100% {
		transform: translateX(1px) translateY(1px) rotate(0deg);
		width: 30px;
		height: 30px;
		opacity: 1;
	}
}.Subtract_790 {
	animation: 1s ease-in-out 0.3s 1 normal forwards running Subtract_790;
		fill: rgba(255,255,255,1);
}
@keyframes Subtract_790 {
	0% {
		fill: rgba(255,255,255,1);
	}
	30% {
		fill: rgba(255,255,255,1);
	}
	100% {
		fill: rgba(0,0,0,1);
	}
}
</style>
<g clip-path="url(#clip_0_468)" class="animation_989" width="32" height="32" data-name="animation">
	<path d="M14.0625 0.9375C14.0625 0.419733 14.4822 0 15 0C15.5178 0 15.9375 0.419733 15.9375 0.9375V4.6875C15.9375 5.20527 15.5178 5.625 15 5.625C14.4822 5.625 14.0625 5.20527 14.0625 4.6875V0.9375ZM24.2808 4.3934C24.6469 4.02728 25.2405 4.02728 25.6066 4.3934C25.9727 4.75951 25.9727 5.35311 25.6066 5.71922L22.955 8.37087C22.5888 8.73699 21.9952 8.73699 21.6291 8.37087C21.263 8.00476 21.263 7.41117 21.6291 7.04505L24.2808 4.3934ZM29.0625 14.0625C29.5803 14.0625 30 14.4822 30 15C30 15.5178 29.5803 15.9375 29.0625 15.9375H25.3125C24.7947 15.9375 24.375 15.5178 24.375 15C24.375 14.4822 24.7947 14.0625 25.3125 14.0625H29.0625ZM25.6066 24.2808C25.9727 24.6469 25.9727 25.2405 25.6066 25.6066C25.2405 25.9727 24.6469 25.9727 24.2808 25.6066L21.6291 22.955C21.263 22.5888 21.263 21.9952 21.6291 21.6291C21.9952 21.263 22.5888 21.263 22.955 21.6291L25.6066 24.2808ZM14.0625 25.3125C14.0625 24.7947 14.4822 24.375 15 24.375C15.5178 24.375 15.9375 24.7947 15.9375 25.3125V29.0625C15.9375 29.5803 15.5178 30 15 30C14.4822 30 14.0625 29.5803 14.0625 29.0625V25.3125ZM7.04505 21.6291C7.41117 21.263 8.00476 21.263 8.37087 21.6291C8.73699 21.9952 8.73699 22.5888 8.37087 22.955L5.71922 25.6066C5.35311 25.9727 4.75951 25.9727 4.3934 25.6066C4.02728 25.2405 4.02728 24.6469 4.3934 24.2808L7.04505 21.6291ZM4.6875 14.0625C5.20527 14.0625 5.625 14.4822 5.625 15C5.625 15.5178 5.20527 15.9375 4.6875 15.9375H0.9375C0.419733 15.9375 -2.26323e-08 15.5178 0 15C2.26323e-08 14.4822 0.419733 14.0625 0.9375 14.0625H4.6875ZM8.37087 7.04505C8.73699 7.41117 8.73699 8.00476 8.37087 8.37087C8.00476 8.73699 7.41117 8.73699 7.04505 8.37087L4.3934 5.71922C4.02728 5.35311 4.02728 4.75951 4.3934 4.3934C4.75951 4.02728 5.35311 4.02728 5.71922 4.3934L8.37087 7.04505Z" fill="black" data-name="Vector" class="Vector_411"/>
	<path d="M14.0625 0.9375C14.0625 0.419733 14.4822 0 15 0C15.5178 0 15.9375 0.419733 15.9375 0.9375V4.6875C15.9375 5.20527 15.5178 5.625 15 5.625C14.4822 5.625 14.0625 5.20527 14.0625 4.6875V0.9375ZM24.2808 4.3934C24.6469 4.02728 25.2405 4.02728 25.6066 4.3934C25.9727 4.75951 25.9727 5.35311 25.6066 5.71922L22.955 8.37087C22.5888 8.73699 21.9952 8.73699 21.6291 8.37087C21.263 8.00476 21.263 7.41117 21.6291 7.04505L24.2808 4.3934ZM29.0625 14.0625C29.5803 14.0625 30 14.4822 30 15C30 15.5178 29.5803 15.9375 29.0625 15.9375H25.3125C24.7947 15.9375 24.375 15.5178 24.375 15C24.375 14.4822 24.7947 14.0625 25.3125 14.0625H29.0625ZM25.6066 24.2808C25.9727 24.6469 25.9727 25.2405 25.6066 25.6066C25.2405 25.9727 24.6469 25.9727 24.2808 25.6066L21.6291 22.955C21.263 22.5888 21.263 21.9952 21.6291 21.6291C21.9952 21.263 22.5888 21.263 22.955 21.6291L25.6066 24.2808ZM14.0625 25.3125C14.0625 24.7947 14.4822 24.375 15 24.375C15.5178 24.375 15.9375 24.7947 15.9375 25.3125V29.0625C15.9375 29.5803 15.5178 30 15 30C14.4822 30 14.0625 29.5803 14.0625 29.0625V25.3125ZM7.04505 21.6291C7.41117 21.263 8.00476 21.263 8.37087 21.6291C8.73699 21.9952 8.73699 22.5888 8.37087 22.955L5.71922 25.6066C5.35311 25.9727 4.75951 25.9727 4.3934 25.6066C4.02728 25.2405 4.02728 24.6469 4.3934 24.2808L7.04505 21.6291ZM4.6875 14.0625C5.20527 14.0625 5.625 14.4822 5.625 15C5.625 15.5178 5.20527 15.9375 4.6875 15.9375H0.9375C0.419733 15.9375 -2.26323e-08 15.5178 0 15C2.26323e-08 14.4822 0.419733 14.0625 0.9375 14.0625H4.6875ZM8.37087 7.04505C8.73699 7.41117 8.73699 8.00476 8.37087 8.37087C8.00476 8.73699 7.41117 8.73699 7.04505 8.37087L4.3934 5.71922C4.02728 5.35311 4.02728 4.75951 4.3934 4.3934C4.75951 4.02728 5.35311 4.02728 5.71922 4.3934L8.37087 7.04505Z" fill="black" data-name="Vector" class="Vector_411"/>
	<path d="M14.0625 0.9375C14.0625 0.419733 14.4822 0 15 0C15.5178 0 15.9375 0.419733 15.9375 0.9375V4.6875C15.9375 5.20527 15.5178 5.625 15 5.625C14.4822 5.625 14.0625 5.20527 14.0625 4.6875V0.9375ZM24.2808 4.3934C24.6469 4.02728 25.2405 4.02728 25.6066 4.3934C25.9727 4.75951 25.9727 5.35311 25.6066 5.71922L22.955 8.37087C22.5888 8.73699 21.9952 8.73699 21.6291 8.37087C21.263 8.00476 21.263 7.41117 21.6291 7.04505L24.2808 4.3934ZM29.0625 14.0625C29.5803 14.0625 30 14.4822 30 15C30 15.5178 29.5803 15.9375 29.0625 15.9375H25.3125C24.7947 15.9375 24.375 15.5178 24.375 15C24.375 14.4822 24.7947 14.0625 25.3125 14.0625H29.0625ZM25.6066 24.2808C25.9727 24.6469 25.9727 25.2405 25.6066 25.6066C25.2405 25.9727 24.6469 25.9727 24.2808 25.6066L21.6291 22.955C21.263 22.5888 21.263 21.9952 21.6291 21.6291C21.9952 21.263 22.5888 21.263 22.955 21.6291L25.6066 24.2808ZM14.0625 25.3125C14.0625 24.7947 14.4822 24.375 15 24.375C15.5178 24.375 15.9375 24.7947 15.9375 25.3125V29.0625C15.9375 29.5803 15.5178 30 15 30C14.4822 30 14.0625 29.5803 14.0625 29.0625V25.3125ZM7.04505 21.6291C7.41117 21.263 8.00476 21.263 8.37087 21.6291C8.73699 21.9952 8.73699 22.5888 8.37087 22.955L5.71922 25.6066C5.35311 25.9727 4.75951 25.9727 4.3934 25.6066C4.02728 25.2405 4.02728 24.6469 4.3934 24.2808L7.04505 21.6291ZM4.6875 14.0625C5.20527 14.0625 5.625 14.4822 5.625 15C5.625 15.5178 5.20527 15.9375 4.6875 15.9375H0.9375C0.419733 15.9375 -2.26323e-08 15.5178 0 15C2.26323e-08 14.4822 0.419733 14.0625 0.9375 14.0625H4.6875ZM8.37087 7.04505C8.73699 7.41117 8.73699 8.00476 8.37087 8.37087C8.00476 8.73699 7.41117 8.73699 7.04505 8.37087L4.3934 5.71922C4.02728 5.35311 4.02728 4.75951 4.3934 4.3934C4.75951 4.02728 5.35311 4.02728 5.71922 4.3934L8.37087 7.04505Z" fill="black" data-name="Vector" class="Vector_411"/>
	<path d="M14.0625 0.9375C14.0625 0.419733 14.4822 0 15 0C15.5178 0 15.9375 0.419733 15.9375 0.9375V4.6875C15.9375 5.20527 15.5178 5.625 15 5.625C14.4822 5.625 14.0625 5.20527 14.0625 4.6875V0.9375ZM24.2808 4.3934C24.6469 4.02728 25.2405 4.02728 25.6066 4.3934C25.9727 4.75951 25.9727 5.35311 25.6066 5.71922L22.955 8.37087C22.5888 8.73699 21.9952 8.73699 21.6291 8.37087C21.263 8.00476 21.263 7.41117 21.6291 7.04505L24.2808 4.3934ZM29.0625 14.0625C29.5803 14.0625 30 14.4822 30 15C30 15.5178 29.5803 15.9375 29.0625 15.9375H25.3125C24.7947 15.9375 24.375 15.5178 24.375 15C24.375 14.4822 24.7947 14.0625 25.3125 14.0625H29.0625ZM25.6066 24.2808C25.9727 24.6469 25.9727 25.2405 25.6066 25.6066C25.2405 25.9727 24.6469 25.9727 24.2808 25.6066L21.6291 22.955C21.263 22.5888 21.263 21.9952 21.6291 21.6291C21.9952 21.263 22.5888 21.263 22.955 21.6291L25.6066 24.2808ZM14.0625 25.3125C14.0625 24.7947 14.4822 24.375 15 24.375C15.5178 24.375 15.9375 24.7947 15.9375 25.3125V29.0625C15.9375 29.5803 15.5178 30 15 30C14.4822 30 14.0625 29.5803 14.0625 29.0625V25.3125ZM7.04505 21.6291C7.41117 21.263 8.00476 21.263 8.37087 21.6291C8.73699 21.9952 8.73699 22.5888 8.37087 22.955L5.71922 25.6066C5.35311 25.9727 4.75951 25.9727 4.3934 25.6066C4.02728 25.2405 4.02728 24.6469 4.3934 24.2808L7.04505 21.6291ZM4.6875 14.0625C5.20527 14.0625 5.625 14.4822 5.625 15C5.625 15.5178 5.20527 15.9375 4.6875 15.9375H0.9375C0.419733 15.9375 -2.26323e-08 15.5178 0 15C2.26323e-08 14.4822 0.419733 14.0625 0.9375 14.0625H4.6875ZM8.37087 7.04505C8.73699 7.41117 8.73699 8.00476 8.37087 8.37087C8.00476 8.73699 7.41117 8.73699 7.04505 8.37087L4.3934 5.71922C4.02728 5.35311 4.02728 4.75951 4.3934 4.3934C4.75951 4.02728 5.35311 4.02728 5.71922 4.3934L8.37087 7.04505Z" fill="black" data-name="Vector" class="Vector_411"/>
	<path d="M14.0625 0.9375C14.0625 0.419733 14.4822 0 15 0C15.5178 0 15.9375 0.419733 15.9375 0.9375V4.6875C15.9375 5.20527 15.5178 5.625 15 5.625C14.4822 5.625 14.0625 5.20527 14.0625 4.6875V0.9375ZM24.2808 4.3934C24.6469 4.02728 25.2405 4.02728 25.6066 4.3934C25.9727 4.75951 25.9727 5.35311 25.6066 5.71922L22.955 8.37087C22.5888 8.73699 21.9952 8.73699 21.6291 8.37087C21.263 8.00476 21.263 7.41117 21.6291 7.04505L24.2808 4.3934ZM29.0625 14.0625C29.5803 14.0625 30 14.4822 30 15C30 15.5178 29.5803 15.9375 29.0625 15.9375H25.3125C24.7947 15.9375 24.375 15.5178 24.375 15C24.375 14.4822 24.7947 14.0625 25.3125 14.0625H29.0625ZM25.6066 24.2808C25.9727 24.6469 25.9727 25.2405 25.6066 25.6066C25.2405 25.9727 24.6469 25.9727 24.2808 25.6066L21.6291 22.955C21.263 22.5888 21.263 21.9952 21.6291 21.6291C21.9952 21.263 22.5888 21.263 22.955 21.6291L25.6066 24.2808ZM14.0625 25.3125C14.0625 24.7947 14.4822 24.375 15 24.375C15.5178 24.375 15.9375 24.7947 15.9375 25.3125V29.0625C15.9375 29.5803 15.5178 30 15 30C14.4822 30 14.0625 29.5803 14.0625 29.0625V25.3125ZM7.04505 21.6291C7.41117 21.263 8.00476 21.263 8.37087 21.6291C8.73699 21.9952 8.73699 22.5888 8.37087 22.955L5.71922 25.6066C5.35311 25.9727 4.75951 25.9727 4.3934 25.6066C4.02728 25.2405 4.02728 24.6469 4.3934 24.2808L7.04505 21.6291ZM4.6875 14.0625C5.20527 14.0625 5.625 14.4822 5.625 15C5.625 15.5178 5.20527 15.9375 4.6875 15.9375H0.9375C0.419733 15.9375 -2.26323e-08 15.5178 0 15C2.26323e-08 14.4822 0.419733 14.0625 0.9375 14.0625H4.6875ZM8.37087 7.04505C8.73699 7.41117 8.73699 8.00476 8.37087 8.37087C8.00476 8.73699 7.41117 8.73699 7.04505 8.37087L4.3934 5.71922C4.02728 5.35311 4.02728 4.75951 4.3934 4.3934C4.75951 4.02728 5.35311 4.02728 5.71922 4.3934L8.37087 7.04505Z" fill="black" data-name="Vector" class="Vector_411"/>
	<path d="M14.0625 0.9375C14.0625 0.419733 14.4822 0 15 0C15.5178 0 15.9375 0.419733 15.9375 0.9375V4.6875C15.9375 5.20527 15.5178 5.625 15 5.625C14.4822 5.625 14.0625 5.20527 14.0625 4.6875V0.9375ZM24.2808 4.3934C24.6469 4.02728 25.2405 4.02728 25.6066 4.3934C25.9727 4.75951 25.9727 5.35311 25.6066 5.71922L22.955 8.37087C22.5888 8.73699 21.9952 8.73699 21.6291 8.37087C21.263 8.00476 21.263 7.41117 21.6291 7.04505L24.2808 4.3934ZM29.0625 14.0625C29.5803 14.0625 30 14.4822 30 15C30 15.5178 29.5803 15.9375 29.0625 15.9375H25.3125C24.7947 15.9375 24.375 15.5178 24.375 15C24.375 14.4822 24.7947 14.0625 25.3125 14.0625H29.0625ZM25.6066 24.2808C25.9727 24.6469 25.9727 25.2405 25.6066 25.6066C25.2405 25.9727 24.6469 25.9727 24.2808 25.6066L21.6291 22.955C21.263 22.5888 21.263 21.9952 21.6291 21.6291C21.9952 21.263 22.5888 21.263 22.955 21.6291L25.6066 24.2808ZM14.0625 25.3125C14.0625 24.7947 14.4822 24.375 15 24.375C15.5178 24.375 15.9375 24.7947 15.9375 25.3125V29.0625C15.9375 29.5803 15.5178 30 15 30C14.4822 30 14.0625 29.5803 14.0625 29.0625V25.3125ZM7.04505 21.6291C7.41117 21.263 8.00476 21.263 8.37087 21.6291C8.73699 21.9952 8.73699 22.5888 8.37087 22.955L5.71922 25.6066C5.35311 25.9727 4.75951 25.9727 4.3934 25.6066C4.02728 25.2405 4.02728 24.6469 4.3934 24.2808L7.04505 21.6291ZM4.6875 14.0625C5.20527 14.0625 5.625 14.4822 5.625 15C5.625 15.5178 5.20527 15.9375 4.6875 15.9375H0.9375C0.419733 15.9375 -2.26323e-08 15.5178 0 15C2.26323e-08 14.4822 0.419733 14.0625 0.9375 14.0625H4.6875ZM8.37087 7.04505C8.73699 7.41117 8.73699 8.00476 8.37087 8.37087C8.00476 8.73699 7.41117 8.73699 7.04505 8.37087L4.3934 5.71922C4.02728 5.35311 4.02728 4.75951 4.3934 4.3934C4.75951 4.02728 5.35311 4.02728 5.71922 4.3934L8.37087 7.04505Z" fill="black" data-name="Vector" class="Vector_411"/>
	<path d="M14.0625 0.9375C14.0625 0.419733 14.4822 0 15 0C15.5178 0 15.9375 0.419733 15.9375 0.9375V4.6875C15.9375 5.20527 15.5178 5.625 15 5.625C14.4822 5.625 14.0625 5.20527 14.0625 4.6875V0.9375ZM24.2808 4.3934C24.6469 4.02728 25.2405 4.02728 25.6066 4.3934C25.9727 4.75951 25.9727 5.35311 25.6066 5.71922L22.955 8.37087C22.5888 8.73699 21.9952 8.73699 21.6291 8.37087C21.263 8.00476 21.263 7.41117 21.6291 7.04505L24.2808 4.3934ZM29.0625 14.0625C29.5803 14.0625 30 14.4822 30 15C30 15.5178 29.5803 15.9375 29.0625 15.9375H25.3125C24.7947 15.9375 24.375 15.5178 24.375 15C24.375 14.4822 24.7947 14.0625 25.3125 14.0625H29.0625ZM25.6066 24.2808C25.9727 24.6469 25.9727 25.2405 25.6066 25.6066C25.2405 25.9727 24.6469 25.9727 24.2808 25.6066L21.6291 22.955C21.263 22.5888 21.263 21.9952 21.6291 21.6291C21.9952 21.263 22.5888 21.263 22.955 21.6291L25.6066 24.2808ZM14.0625 25.3125C14.0625 24.7947 14.4822 24.375 15 24.375C15.5178 24.375 15.9375 24.7947 15.9375 25.3125V29.0625C15.9375 29.5803 15.5178 30 15 30C14.4822 30 14.0625 29.5803 14.0625 29.0625V25.3125ZM7.04505 21.6291C7.41117 21.263 8.00476 21.263 8.37087 21.6291C8.73699 21.9952 8.73699 22.5888 8.37087 22.955L5.71922 25.6066C5.35311 25.9727 4.75951 25.9727 4.3934 25.6066C4.02728 25.2405 4.02728 24.6469 4.3934 24.2808L7.04505 21.6291ZM4.6875 14.0625C5.20527 14.0625 5.625 14.4822 5.625 15C5.625 15.5178 5.20527 15.9375 4.6875 15.9375H0.9375C0.419733 15.9375 -2.26323e-08 15.5178 0 15C2.26323e-08 14.4822 0.419733 14.0625 0.9375 14.0625H4.6875ZM8.37087 7.04505C8.73699 7.41117 8.73699 8.00476 8.37087 8.37087C8.00476 8.73699 7.41117 8.73699 7.04505 8.37087L4.3934 5.71922C4.02728 5.35311 4.02728 4.75951 4.3934 4.3934C4.75951 4.02728 5.35311 4.02728 5.71922 4.3934L8.37087 7.04505Z" fill="black" data-name="Vector" class="Vector_411"/>
	<path d="M14.0625 0.9375C14.0625 0.419733 14.4822 0 15 0C15.5178 0 15.9375 0.419733 15.9375 0.9375V4.6875C15.9375 5.20527 15.5178 5.625 15 5.625C14.4822 5.625 14.0625 5.20527 14.0625 4.6875V0.9375ZM24.2808 4.3934C24.6469 4.02728 25.2405 4.02728 25.6066 4.3934C25.9727 4.75951 25.9727 5.35311 25.6066 5.71922L22.955 8.37087C22.5888 8.73699 21.9952 8.73699 21.6291 8.37087C21.263 8.00476 21.263 7.41117 21.6291 7.04505L24.2808 4.3934ZM29.0625 14.0625C29.5803 14.0625 30 14.4822 30 15C30 15.5178 29.5803 15.9375 29.0625 15.9375H25.3125C24.7947 15.9375 24.375 15.5178 24.375 15C24.375 14.4822 24.7947 14.0625 25.3125 14.0625H29.0625ZM25.6066 24.2808C25.9727 24.6469 25.9727 25.2405 25.6066 25.6066C25.2405 25.9727 24.6469 25.9727 24.2808 25.6066L21.6291 22.955C21.263 22.5888 21.263 21.9952 21.6291 21.6291C21.9952 21.263 22.5888 21.263 22.955 21.6291L25.6066 24.2808ZM14.0625 25.3125C14.0625 24.7947 14.4822 24.375 15 24.375C15.5178 24.375 15.9375 24.7947 15.9375 25.3125V29.0625C15.9375 29.5803 15.5178 30 15 30C14.4822 30 14.0625 29.5803 14.0625 29.0625V25.3125ZM7.04505 21.6291C7.41117 21.263 8.00476 21.263 8.37087 21.6291C8.73699 21.9952 8.73699 22.5888 8.37087 22.955L5.71922 25.6066C5.35311 25.9727 4.75951 25.9727 4.3934 25.6066C4.02728 25.2405 4.02728 24.6469 4.3934 24.2808L7.04505 21.6291ZM4.6875 14.0625C5.20527 14.0625 5.625 14.4822 5.625 15C5.625 15.5178 5.20527 15.9375 4.6875 15.9375H0.9375C0.419733 15.9375 -2.26323e-08 15.5178 0 15C2.26323e-08 14.4822 0.419733 14.0625 0.9375 14.0625H4.6875ZM8.37087 7.04505C8.73699 7.41117 8.73699 8.00476 8.37087 8.37087C8.00476 8.73699 7.41117 8.73699 7.04505 8.37087L4.3934 5.71922C4.02728 5.35311 4.02728 4.75951 4.3934 4.3934C4.75951 4.02728 5.35311 4.02728 5.71922 4.3934L8.37087 7.04505Z" fill="black" data-name="Vector" class="Vector_411"/>
	<path fill-rule="evenodd" clip-rule="evenodd" d="M8.03809 16.0001C12.4774 16.0001 16.0762 12.4184 16.0762 8.00007C16.0762 3.58175 12.4774 9.53674e-07 8.03809 9.53674e-07C3.59878 9.53674e-07 0 3.58175 0 8.00007C0 12.4184 3.59878 16.0001 8.03809 16.0001Z" fill="black" data-name="Subtract" class="Subtract_790" transform="translate(8 8)"/>
</g>
<defs><clipPath id="clip_0_468"><rect width="32" height="32"/></clipPath>
</defs>
</svg>