<svg width="32" height="32" viewBox="0 0 32 32" fill="none" xmlns="http://www.w3.org/2000/svg">
<path fill-rule="evenodd" clip-rule="evenodd" d="M9.40025 0.105775C7.69778 0.183426 6.53505 0.453839 5.51765 0.849267C4.46584 1.25797 3.57384 1.80489 2.68457 2.69409C1.79537 3.58336 1.24844 4.47536 0.839746 5.52717C0.444317 6.54457 0.173905 7.7073 0.096254 9.40977C0.0184127 11.1158 0 11.6605 0 16.0045C0 20.3484 0.0184127 20.8931 0.096254 22.5992C0.173905 24.3016 0.444317 25.4644 0.839746 26.4818C1.24844 27.5336 1.79537 28.4256 2.68457 29.3149C3.57384 30.2041 4.46584 30.751 5.51765 31.1597C6.53505 31.5551 7.69778 31.8255 9.40025 31.9032C11.1063 31.981 11.651 31.9994 15.995 31.9994C20.3389 31.9994 20.8836 31.981 22.5897 31.9032C24.2921 31.8255 25.4549 31.5551 26.4723 31.1597C27.5241 30.751 28.4161 30.2041 29.3053 29.3149C30.1945 28.4256 30.7415 27.5336 31.1502 26.4818C31.5456 25.4644 31.816 24.3016 31.8937 22.5992C31.9715 20.8931 31.9899 20.3484 31.9899 16.0045C31.9899 11.6605 31.9715 11.1158 31.8937 9.40977C31.816 7.7073 31.5456 6.54457 31.1502 5.52717C30.7415 4.47536 30.1945 3.58336 29.3053 2.69409C28.4161 1.80489 27.5241 1.25797 26.4723 0.849268C25.4549 0.453839 24.2921 0.183426 22.5897 0.105775C20.8836 0.0279342 20.3389 0.00952148 15.995 0.00952148C11.651 0.00952148 11.1063 0.0279342 9.40025 0.105775ZM16 4.00952C19.9083 4.00952 20.3713 4.02445 21.9147 4.09487C23.3419 4.15995 24.1169 4.39841 24.6327 4.59886C25.3159 4.86439 25.8035 5.18158 26.3157 5.69381C26.8279 6.20599 27.1451 6.69359 27.4107 7.37683C27.6111 7.89261 27.8496 8.66764 27.9146 10.0948C27.9851 11.6382 28 12.1012 28 16.0096C28 19.9179 27.9851 20.3808 27.9146 21.9243C27.8496 23.3514 27.6111 24.1264 27.4107 24.6422C27.1451 25.3254 26.8279 25.8131 26.3157 26.3252C25.8035 26.8375 25.3159 27.1546 24.6327 27.4202C24.1169 27.6206 23.3419 27.8591 21.9147 27.9242C20.3715 27.9946 19.9086 28.0095 16 28.0095C12.0914 28.0095 11.6285 27.9946 10.0853 27.9242C8.65812 27.8591 7.88309 27.6206 7.36731 27.4202C6.68407 27.1546 6.19647 26.8375 5.68429 26.3252C5.17211 25.8131 4.85487 25.3254 4.58934 24.6422C4.38888 24.1264 4.15043 23.3514 4.08535 21.9243C4.01493 20.3808 4 19.9179 4 16.0096C4 12.1012 4.01493 11.6382 4.08535 10.0948C4.15043 8.66765 4.38888 7.89261 4.58934 7.37683C4.85487 6.69359 5.17206 6.20599 5.68429 5.69381C6.19647 5.18158 6.68407 4.86439 7.36731 4.59886C7.88309 4.39841 8.65812 4.15995 10.0853 4.09487C11.6287 4.02445 12.0917 4.00952 16 4.00952Z" fill="#8D8D8D"/>
<path fill-rule="evenodd" clip-rule="evenodd" d="M16 20C13.7908 20 12 18.2091 12 16C12 13.7908 13.7908 12 16 12C18.2091 12 20 13.7908 20 16C20 18.2091 18.2091 20 16 20ZM16 8C11.5817 8 8 11.5817 8 16C8 20.4183 11.5817 24 16 24C20.4183 24 24 20.4183 24 16C24 11.5817 20.4183 8 16 8ZM26 8.00003C26 9.10461 25.1045 10 24 10C22.8955 10 22 9.10461 22 8.00003C22 6.89545 22.8955 6 24 6C25.1045 6 26 6.89545 26 8.00003Z" fill="#8D8D8D"/>
</svg>
