<svg width="1196" height="896" viewBox="0 0 1196 896" fill="none" xmlns="http://www.w3.org/2000/svg">
<g filter="url(#filter0_bd)">
<rect x="4" width="1188" height="888" rx="100" fill="white" fill-opacity="0.65" shape-rendering="crispEdges"/>
</g>
<g opacity="0.25">
<g clip-path="url(#clip0)">
<circle cx="599.285" cy="445.285" r="353.474" stroke="#F27878" stroke-width="68.9695"/>
<path d="M704.053 349.378C704.053 406.57 657.308 453.334 599.149 453.334C540.989 453.334 494.245 406.57 494.245 349.378C494.245 292.186 540.989 245.422 599.149 245.422C657.308 245.422 704.053 292.186 704.053 349.378Z" stroke="#F27878" stroke-width="68.9695"/>
<path d="M844.74 738.149C844.74 686.344 818.866 636.66 772.809 600.027C726.752 563.395 664.285 542.815 599.15 542.815C534.016 542.815 471.549 563.395 425.492 600.027C379.435 636.66 353.561 686.344 353.561 738.149L427.237 738.149C427.237 701.885 445.35 667.107 477.59 641.464C509.83 615.821 553.556 601.416 599.15 601.416C644.744 601.416 688.471 615.821 720.711 641.464C752.951 667.107 771.063 701.885 771.063 738.149H844.74Z" fill="#F27878"/>
</g>
<rect x="206.578" y="759.947" width="1000.37" height="107.626" rx="53.8128" transform="rotate(-45 206.578 759.947)" fill="#F27878" stroke="#CCDCF3" stroke-width="38.6229"/>
</g>
<g filter="url(#filter1_d)">
<path d="M159.621 361.895H104.543L93.0195 395H67.3359L121.047 252.812H143.215L197.023 395H171.242L159.621 361.895ZM111.477 341.973H152.688L132.082 282.988L111.477 341.973ZM228.273 289.336L228.957 301.543C236.77 292.103 247.023 287.383 259.719 287.383C281.724 287.383 292.922 299.98 293.312 325.176V395H269.582V326.543C269.582 319.837 268.117 314.889 265.188 311.699C262.323 308.444 257.603 306.816 251.027 306.816C241.457 306.816 234.328 311.146 229.641 319.805V395H205.91V289.336H228.273ZM313.137 341.191C313.137 330.84 315.188 321.53 319.289 313.262C323.391 304.928 329.152 298.548 336.574 294.121C343.996 289.629 352.525 287.383 362.16 287.383C376.418 287.383 387.974 291.973 396.828 301.152C405.747 310.332 410.565 322.507 411.281 337.676L411.379 343.242C411.379 353.659 409.361 362.969 405.324 371.172C401.353 379.375 395.624 385.723 388.137 390.215C380.715 394.707 372.121 396.953 362.355 396.953C347.447 396.953 335.5 392.005 326.516 382.109C317.596 372.148 313.137 358.9 313.137 342.363V341.191ZM336.867 343.242C336.867 354.115 339.113 362.643 343.605 368.828C348.098 374.948 354.348 378.008 362.355 378.008C370.363 378.008 376.581 374.883 381.008 368.633C385.5 362.383 387.746 353.236 387.746 341.191C387.746 330.514 385.435 322.051 380.812 315.801C376.255 309.551 370.038 306.426 362.16 306.426C354.413 306.426 348.26 309.518 343.703 315.703C339.146 321.823 336.867 331.003 336.867 343.242ZM453.469 289.336L454.152 301.543C461.965 292.103 472.219 287.383 484.914 287.383C506.919 287.383 518.117 299.98 518.508 325.176V395H494.777V326.543C494.777 319.837 493.312 314.889 490.383 311.699C487.518 308.444 482.798 306.816 476.223 306.816C466.652 306.816 459.523 311.146 454.836 319.805V395H431.105V289.336H453.469ZM579.738 361.016L601.223 289.336H626.516L584.523 411.016C578.078 428.789 567.141 437.676 551.711 437.676C548.26 437.676 544.452 437.09 540.285 435.918V417.559L544.777 417.852C550.767 417.852 555.259 416.745 558.254 414.531C561.314 412.383 563.723 408.737 565.48 403.594L568.898 394.512L531.789 289.336H557.375L579.738 361.016ZM662.551 289.336L663.234 300.371C670.656 291.712 680.812 287.383 693.703 287.383C707.831 287.383 717.499 292.786 722.707 303.594C730.389 292.786 741.197 287.383 755.129 287.383C766.783 287.383 775.441 290.605 781.105 297.051C786.835 303.496 789.764 313.001 789.895 325.566V395H766.164V326.25C766.164 319.544 764.699 314.629 761.77 311.504C758.84 308.379 753.99 306.816 747.219 306.816C741.815 306.816 737.388 308.281 733.938 311.211C730.552 314.076 728.176 317.852 726.809 322.539L726.906 395H703.176V325.469C702.85 313.034 696.503 306.816 684.133 306.816C674.628 306.816 667.889 310.69 663.918 318.438V395H640.188V289.336H662.551ZM809.816 341.191C809.816 330.84 811.867 321.53 815.969 313.262C820.07 304.928 825.832 298.548 833.254 294.121C840.676 289.629 849.204 287.383 858.84 287.383C873.098 287.383 884.654 291.973 893.508 301.152C902.427 310.332 907.245 322.507 907.961 337.676L908.059 343.242C908.059 353.659 906.04 362.969 902.004 371.172C898.033 379.375 892.303 385.723 884.816 390.215C877.395 394.707 868.801 396.953 859.035 396.953C844.126 396.953 832.18 392.005 823.195 382.109C814.276 372.148 809.816 358.9 809.816 342.363V341.191ZM833.547 343.242C833.547 354.115 835.793 362.643 840.285 368.828C844.777 374.948 851.027 378.008 859.035 378.008C867.043 378.008 873.26 374.883 877.688 368.633C882.18 362.383 884.426 353.236 884.426 341.191C884.426 330.514 882.115 322.051 877.492 315.801C872.935 309.551 866.717 306.426 858.84 306.426C851.092 306.426 844.94 309.518 840.383 315.703C835.826 321.823 833.547 331.003 833.547 343.242ZM992.141 384.648C985.174 392.852 975.279 396.953 962.453 396.953C950.995 396.953 942.303 393.6 936.379 386.895C930.52 380.189 927.59 370.488 927.59 357.793V289.336H951.32V357.5C951.32 370.911 956.887 377.617 968.02 377.617C979.543 377.617 987.323 373.483 991.359 365.215V289.336H1015.09V395H992.727L992.141 384.648ZM1098.49 366.289C1098.49 362.057 1096.73 358.835 1093.21 356.621C1089.76 354.408 1084 352.454 1075.93 350.762C1067.86 349.069 1061.12 346.921 1055.71 344.316C1043.87 338.587 1037.94 330.286 1037.94 319.414C1037.94 310.299 1041.78 302.682 1049.46 296.562C1057.15 290.443 1066.91 287.383 1078.76 287.383C1091.39 287.383 1101.58 290.508 1109.33 296.758C1117.14 303.008 1121.05 311.113 1121.05 321.074H1097.32C1097.32 316.517 1095.62 312.741 1092.24 309.746C1088.85 306.686 1084.36 305.156 1078.76 305.156C1073.55 305.156 1069.29 306.361 1065.97 308.77C1062.71 311.178 1061.09 314.401 1061.09 318.438C1061.09 322.083 1062.62 324.915 1065.68 326.934C1068.74 328.952 1074.92 331.003 1084.23 333.086C1093.54 335.104 1100.83 337.546 1106.11 340.41C1111.44 343.21 1115.38 346.595 1117.92 350.566C1120.53 354.538 1121.83 359.355 1121.83 365.02C1121.83 374.525 1117.89 382.24 1110.01 388.164C1102.13 394.023 1091.82 396.953 1079.05 396.953C1070.4 396.953 1062.68 395.391 1055.91 392.266C1049.14 389.141 1043.87 384.844 1040.09 379.375C1036.31 373.906 1034.43 368.014 1034.43 361.699H1057.47C1057.8 367.298 1059.91 371.628 1063.82 374.688C1067.73 377.682 1072.9 379.18 1079.35 379.18C1085.6 379.18 1090.35 378.008 1093.61 375.664C1096.86 373.255 1098.49 370.13 1098.49 366.289ZM409.719 568.746H352.492V629H327.785V486.812H418.117V506.734H352.492V549.02H409.719V568.746ZM428.859 575.191C428.859 564.84 430.91 555.53 435.012 547.262C439.113 538.928 444.875 532.548 452.297 528.121C459.719 523.629 468.247 521.383 477.883 521.383C492.141 521.383 503.697 525.973 512.551 535.152C521.47 544.332 526.288 556.507 527.004 571.676L527.102 577.242C527.102 587.659 525.083 596.969 521.047 605.172C517.076 613.375 511.346 619.723 503.859 624.215C496.438 628.707 487.844 630.953 478.078 630.953C463.169 630.953 451.223 626.005 442.238 616.109C433.319 606.148 428.859 592.9 428.859 576.363V575.191ZM452.59 577.242C452.59 588.115 454.836 596.643 459.328 602.828C463.82 608.948 470.07 612.008 478.078 612.008C486.086 612.008 492.303 608.883 496.73 602.633C501.223 596.383 503.469 587.236 503.469 575.191C503.469 564.514 501.158 556.051 496.535 549.801C491.978 543.551 485.76 540.426 477.883 540.426C470.135 540.426 463.983 543.518 459.426 549.703C454.868 555.823 452.59 565.003 452.59 577.242ZM602.492 545.016C599.367 544.495 596.145 544.234 592.824 544.234C581.952 544.234 574.628 548.401 570.852 556.734V629H547.121V523.336H569.777L570.363 535.152C576.092 525.973 584.035 521.383 594.191 521.383C597.577 521.383 600.376 521.839 602.59 522.75L602.492 545.016ZM639.797 523.336L640.48 534.371C647.902 525.712 658.059 521.383 670.949 521.383C685.077 521.383 694.745 526.786 699.953 537.594C707.635 526.786 718.443 521.383 732.375 521.383C744.029 521.383 752.688 524.605 758.352 531.051C764.081 537.496 767.01 547.001 767.141 559.566V629H743.41V560.25C743.41 553.544 741.945 548.629 739.016 545.504C736.086 542.379 731.236 540.816 724.465 540.816C719.061 540.816 714.634 542.281 711.184 545.211C707.798 548.076 705.422 551.852 704.055 556.539L704.152 629H680.422V559.469C680.096 547.034 673.749 540.816 661.379 540.816C651.874 540.816 645.135 544.69 641.164 552.438V629H617.434V523.336H639.797ZM850.734 600.289C850.734 596.057 848.977 592.835 845.461 590.621C842.01 588.408 836.249 586.454 828.176 584.762C820.103 583.069 813.365 580.921 807.961 578.316C796.112 572.587 790.188 564.286 790.188 553.414C790.188 544.299 794.029 536.682 801.711 530.562C809.393 524.443 819.159 521.383 831.008 521.383C843.638 521.383 853.827 524.508 861.574 530.758C869.387 537.008 873.293 545.113 873.293 555.074H849.562C849.562 550.517 847.87 546.741 844.484 543.746C841.099 540.686 836.607 539.156 831.008 539.156C825.799 539.156 821.535 540.361 818.215 542.77C814.96 545.178 813.332 548.401 813.332 552.438C813.332 556.083 814.862 558.915 817.922 560.934C820.982 562.952 827.167 565.003 836.477 567.086C845.786 569.104 853.078 571.546 858.352 574.41C863.69 577.21 867.629 580.595 870.168 584.566C872.772 588.538 874.074 593.355 874.074 599.02C874.074 608.525 870.135 616.24 862.258 622.164C854.38 628.023 844.061 630.953 831.301 630.953C822.642 630.953 814.927 629.391 808.156 626.266C801.385 623.141 796.112 618.844 792.336 613.375C788.56 607.906 786.672 602.014 786.672 595.699H809.719C810.044 601.298 812.16 605.628 816.066 608.688C819.973 611.682 825.148 613.18 831.594 613.18C837.844 613.18 842.596 612.008 845.852 609.664C849.107 607.255 850.734 604.13 850.734 600.289Z" fill="#F27878"/>
</g>
<path d="M137.27 164H130.307V124.806H83.5884V164H76.6816V82.2422H83.5884V118.966H130.307V82.2422H137.27V164ZM164.055 164H157.316V103.243H164.055V164ZM156.137 85.6675C156.137 84.3947 156.549 83.3278 157.373 82.4668C158.196 81.5684 159.319 81.1191 160.742 81.1191C162.164 81.1191 163.287 81.5684 164.111 82.4668C164.972 83.3278 165.402 84.3947 165.402 85.6675C165.402 86.9403 164.972 88.0072 164.111 88.8682C163.287 89.7292 162.164 90.1597 160.742 90.1597C159.319 90.1597 158.196 89.7292 157.373 88.8682C156.549 88.0072 156.137 86.9403 156.137 85.6675ZM179.665 133.06C179.665 123.626 181.761 116.121 185.954 110.543C190.184 104.928 195.912 102.12 203.137 102.12C211.335 102.12 217.587 105.358 221.892 111.834V77.75H228.574V164H222.285L222.004 155.914C217.699 162.053 211.372 165.123 203.024 165.123C196.024 165.123 190.371 162.315 186.066 156.7C181.799 151.048 179.665 143.43 179.665 133.846V133.06ZM186.459 134.239C186.459 141.988 188.013 148.109 191.12 152.601C194.227 157.056 198.607 159.283 204.26 159.283C212.533 159.283 218.41 155.633 221.892 148.333V119.808C218.41 111.909 212.57 107.96 204.372 107.96C198.719 107.96 194.321 110.187 191.176 114.642C188.032 119.059 186.459 125.592 186.459 134.239ZM269.79 165.123C264.624 165.123 259.944 163.85 255.751 161.305C251.596 158.759 248.358 155.222 246.037 150.692C243.716 146.125 242.556 141.015 242.556 135.362V132.948C242.556 127.108 243.679 121.848 245.925 117.169C248.208 112.49 251.372 108.821 255.415 106.163C259.458 103.468 263.837 102.12 268.554 102.12C275.929 102.12 281.769 104.647 286.074 109.701C290.416 114.717 292.587 121.586 292.587 130.309V134.071H249.238V135.362C249.238 142.25 251.203 147.997 255.134 152.601C259.102 157.168 264.081 159.452 270.07 159.452C273.664 159.452 276.827 158.797 279.56 157.486C282.33 156.176 284.838 154.08 287.084 151.197L291.296 154.398C286.354 161.548 279.186 165.123 269.79 165.123ZM268.554 107.848C263.5 107.848 259.233 109.701 255.751 113.407C252.307 117.113 250.211 122.092 249.462 128.343H285.905V127.613C285.718 121.773 284.052 117.019 280.908 113.351C277.763 109.682 273.645 107.848 268.554 107.848ZM372.717 156.307C368.674 162.184 362.216 165.123 353.344 165.123C346.868 165.123 341.945 163.251 338.576 159.508C335.207 155.727 333.485 150.149 333.41 142.774V103.243H340.092V141.932C340.092 153.5 344.772 159.283 354.13 159.283C363.863 159.283 370.021 155.259 372.604 147.21V103.243H379.343V164H372.829L372.717 156.307ZM433.249 148.558C433.249 145.226 431.901 142.55 429.206 140.528C426.548 138.507 422.524 136.935 417.133 135.812C411.743 134.651 407.55 133.341 404.555 131.881C401.598 130.383 399.389 128.568 397.929 126.434C396.507 124.3 395.795 121.717 395.795 118.685C395.795 113.893 397.798 109.944 401.804 106.837C405.809 103.692 410.938 102.12 417.189 102.12C423.965 102.12 429.393 103.805 433.474 107.174C437.591 110.506 439.65 114.867 439.65 120.257H432.912C432.912 116.701 431.415 113.744 428.42 111.385C425.463 109.027 421.719 107.848 417.189 107.848C412.772 107.848 409.216 108.84 406.521 110.824C403.863 112.77 402.534 115.316 402.534 118.46C402.534 121.493 403.638 123.851 405.847 125.536C408.093 127.183 412.154 128.699 418.032 130.084C423.946 131.469 428.364 132.948 431.284 134.52C434.241 136.092 436.431 137.983 437.854 140.191C439.276 142.4 439.987 145.077 439.987 148.221C439.987 153.35 437.91 157.449 433.754 160.519C429.637 163.588 424.246 165.123 417.583 165.123C410.507 165.123 404.761 163.42 400.344 160.013C395.964 156.569 393.774 152.227 393.774 146.986H400.512C400.774 150.917 402.421 153.986 405.454 156.195C408.523 158.366 412.566 159.452 417.583 159.452C422.262 159.452 426.043 158.422 428.925 156.363C431.808 154.304 433.249 151.703 433.249 148.558ZM478.676 165.123C473.51 165.123 468.831 163.85 464.638 161.305C460.483 158.759 457.245 155.222 454.924 150.692C452.603 146.125 451.442 141.015 451.442 135.362V132.948C451.442 127.108 452.565 121.848 454.812 117.169C457.095 112.49 460.258 108.821 464.301 106.163C468.344 103.468 472.724 102.12 477.441 102.12C484.816 102.12 490.655 104.647 494.96 109.701C499.303 114.717 501.474 121.586 501.474 130.309V134.071H458.125V135.362C458.125 142.25 460.09 147.997 464.021 152.601C467.989 157.168 472.967 159.452 478.957 159.452C482.551 159.452 485.714 158.797 488.447 157.486C491.217 156.176 493.725 154.08 495.971 151.197L500.183 154.398C495.241 161.548 488.072 165.123 478.676 165.123ZM477.441 107.848C472.387 107.848 468.12 109.701 464.638 113.407C461.194 117.113 459.098 122.092 458.349 128.343H494.792V127.613C494.605 121.773 492.939 117.019 489.794 113.351C486.65 109.682 482.532 107.848 477.441 107.848ZM542.634 108.971C541.211 108.709 539.695 108.578 538.085 108.578C533.893 108.578 530.336 109.757 527.417 112.115C524.534 114.436 522.475 117.824 521.24 122.279V164H514.558V103.243H521.127L521.24 112.901C524.796 105.714 530.505 102.12 538.366 102.12C540.238 102.12 541.717 102.363 542.802 102.85L542.634 108.971ZM559.704 103.243L559.929 113.631C562.212 109.888 565.057 107.043 568.464 105.096C571.87 103.112 575.633 102.12 579.75 102.12C586.264 102.12 591.112 103.954 594.294 107.623C597.476 111.292 599.086 116.795 599.123 124.132V164H592.441V124.076C592.403 118.648 591.243 114.605 588.959 111.947C586.713 109.289 583.101 107.96 578.122 107.96C573.967 107.96 570.279 109.27 567.06 111.891C563.878 114.474 561.52 117.974 559.985 122.391V164H553.303V103.243H559.704ZM654.882 164C654.208 162.091 653.778 159.264 653.591 155.521C651.232 158.591 648.219 160.968 644.55 162.652C640.919 164.299 637.063 165.123 632.983 165.123C627.143 165.123 622.408 163.495 618.776 160.238C615.183 156.981 613.386 152.863 613.386 147.884C613.386 141.97 615.838 137.29 620.742 133.846C625.683 130.402 632.552 128.68 641.35 128.68H653.535V121.773C653.535 117.431 652.187 114.024 649.492 111.554C646.834 109.046 642.941 107.792 637.812 107.792C633.133 107.792 629.258 108.989 626.188 111.385C623.119 113.781 621.584 116.664 621.584 120.033L614.846 119.977C614.846 115.147 617.092 110.973 621.584 107.455C626.076 103.898 631.598 102.12 638.149 102.12C644.925 102.12 650.259 103.823 654.152 107.23C658.083 110.599 660.104 115.316 660.217 121.38V150.13C660.217 156.008 660.834 160.406 662.07 163.326V164H654.882ZM633.769 159.171C638.261 159.171 642.267 158.085 645.786 155.914C649.342 153.743 651.925 150.842 653.535 147.21V133.846H641.518C634.817 133.921 629.576 135.156 625.795 137.552C622.014 139.911 620.124 143.167 620.124 147.323C620.124 150.729 621.378 153.556 623.886 155.802C626.432 158.048 629.726 159.171 633.769 159.171ZM684.306 103.243L684.531 113.126C686.777 109.457 689.584 106.706 692.954 104.872C696.323 103.037 700.066 102.12 704.184 102.12C713.767 102.12 719.851 106.051 722.434 113.912C724.605 110.131 727.506 107.23 731.137 105.208C734.768 103.15 738.774 102.12 743.154 102.12C756.181 102.12 762.826 109.233 763.088 123.458V164H756.35V123.963C756.312 118.535 755.133 114.511 752.812 111.891C750.528 109.27 746.785 107.96 741.582 107.96C736.752 108.035 732.672 109.607 729.34 112.677C726.009 115.709 724.156 119.415 723.781 123.795V164H717.043V123.458C717.006 118.255 715.77 114.38 713.337 111.834C710.941 109.251 707.235 107.96 702.219 107.96C697.989 107.96 694.357 109.177 691.325 111.61C688.293 114.006 686.047 117.581 684.587 122.335V164H677.849V103.243H684.306ZM803.686 165.123C798.52 165.123 793.841 163.85 789.648 161.305C785.493 158.759 782.255 155.222 779.934 150.692C777.613 146.125 776.452 141.015 776.452 135.362V132.948C776.452 127.108 777.575 121.848 779.821 117.169C782.105 112.49 785.268 108.821 789.311 106.163C793.354 103.468 797.734 102.12 802.451 102.12C809.825 102.12 815.665 104.647 819.97 109.701C824.313 114.717 826.484 121.586 826.484 130.309V134.071H783.134V135.362C783.134 142.25 785.1 147.997 789.03 152.601C792.998 157.168 797.977 159.452 803.967 159.452C807.561 159.452 810.724 158.797 813.457 157.486C816.227 156.176 818.735 154.08 820.981 151.197L825.192 154.398C820.251 161.548 813.082 165.123 803.686 165.123ZM802.451 107.848C797.397 107.848 793.129 109.701 789.648 113.407C786.204 117.113 784.108 122.092 783.359 128.343H819.802V127.613C819.615 121.773 817.949 117.019 814.804 113.351C811.66 109.682 807.542 107.848 802.451 107.848ZM875.954 148.558C875.954 145.226 874.606 142.55 871.911 140.528C869.253 138.507 865.229 136.935 859.838 135.812C854.448 134.651 850.255 133.341 847.26 131.881C844.303 130.383 842.094 128.568 840.634 126.434C839.212 124.3 838.5 121.717 838.5 118.685C838.5 113.893 840.503 109.944 844.509 106.837C848.514 103.692 853.643 102.12 859.895 102.12C866.67 102.12 872.098 103.805 876.179 107.174C880.297 110.506 882.355 114.867 882.355 120.257H875.617C875.617 116.701 874.12 113.744 871.125 111.385C868.168 109.027 864.424 107.848 859.895 107.848C855.477 107.848 851.921 108.84 849.226 110.824C846.568 112.77 845.239 115.316 845.239 118.46C845.239 121.493 846.343 123.851 848.552 125.536C850.798 127.183 854.86 128.699 860.737 130.084C866.652 131.469 871.069 132.948 873.989 134.52C876.946 136.092 879.136 137.983 880.559 140.191C881.981 142.4 882.692 145.077 882.692 148.221C882.692 153.35 880.615 157.449 876.459 160.519C872.342 163.588 866.951 165.123 860.288 165.123C853.212 165.123 847.466 163.42 843.049 160.013C838.669 156.569 836.479 152.227 836.479 146.986H843.217C843.479 150.917 845.126 153.986 848.159 156.195C851.228 158.366 855.271 159.452 860.288 159.452C864.967 159.452 868.748 158.422 871.63 156.363C874.513 154.304 875.954 151.703 875.954 148.558ZM940.361 150.018L941.372 155.24L942.719 149.737L957.319 103.243H963.046L977.478 149.344L979.05 155.746L980.341 149.85L992.807 103.243H999.77L982.082 164H976.354L960.744 115.821L960.014 112.508L959.284 115.877L943.955 164H938.227L920.595 103.243H927.502L940.361 150.018ZM1020.04 164H1013.3V103.243H1020.04V164ZM1012.12 85.6675C1012.12 84.3947 1012.54 83.3278 1013.36 82.4668C1014.18 81.5684 1015.31 81.1191 1016.73 81.1191C1018.15 81.1191 1019.27 81.5684 1020.1 82.4668C1020.96 83.3278 1021.39 84.3947 1021.39 85.6675C1021.39 86.9403 1020.96 88.0072 1020.1 88.8682C1019.27 89.7292 1018.15 90.1597 1016.73 90.1597C1015.31 90.1597 1014.18 89.7292 1013.36 88.8682C1012.54 88.0072 1012.12 86.9403 1012.12 85.6675ZM1048.79 87.689V103.243H1061.37V108.746H1048.79V149.232C1048.79 152.601 1049.39 155.109 1050.59 156.756C1051.82 158.403 1053.86 159.227 1056.71 159.227C1057.83 159.227 1059.65 159.04 1062.16 158.666L1062.44 164.168C1060.68 164.805 1058.28 165.123 1055.25 165.123C1050.64 165.123 1047.29 163.794 1045.2 161.136C1043.1 158.441 1042.05 154.492 1042.05 149.288V108.746H1030.88V103.243H1042.05V87.689H1048.79ZM1081.98 113.519C1084.19 109.888 1087.01 107.08 1090.46 105.096C1093.9 103.112 1097.66 102.12 1101.74 102.12C1108.26 102.12 1113.1 103.954 1116.29 107.623C1119.47 111.292 1121.08 116.795 1121.12 124.132V164H1114.43V124.076C1114.4 118.648 1113.24 114.605 1110.95 111.947C1108.71 109.289 1105.09 107.96 1100.11 107.96C1095.96 107.96 1092.27 109.27 1089.05 111.891C1085.87 114.474 1083.51 117.974 1081.98 122.391V164H1075.29V77.75H1081.98V113.519Z" fill="black"/>
<path d="M50.3462 803V747.746H40.2949V742.243H50.3462V734.887C50.3462 728.673 51.9185 723.9 55.063 720.568C58.245 717.237 62.6623 715.571 68.3149 715.571C70.8605 715.571 73.2376 715.889 75.4463 716.525L74.9409 722.141C73.0692 721.691 71.029 721.467 68.8203 721.467C65.1143 721.467 62.2318 722.627 60.1729 724.948C58.1139 727.232 57.0845 730.489 57.0845 734.719V742.243H71.5718V747.746H57.0845V803H50.3462ZM79.8823 771.723C79.8823 765.883 81.0054 760.624 83.2515 755.944C85.535 751.265 88.7357 747.634 92.8535 745.051C97.0088 742.43 101.707 741.12 106.948 741.12C115.034 741.12 121.585 743.965 126.601 749.655C131.617 755.308 134.125 762.814 134.125 772.172V773.576C134.125 779.453 132.984 784.75 130.7 789.467C128.454 794.147 125.272 797.759 121.154 800.305C117.036 802.85 112.338 804.123 107.06 804.123C99.0116 804.123 92.4604 801.297 87.4067 795.644C82.3905 789.954 79.8823 782.43 79.8823 773.071V771.723ZM86.6206 773.576C86.6206 780.839 88.4924 786.809 92.2358 791.489C96.0168 796.131 100.958 798.452 107.06 798.452C113.125 798.452 118.028 796.131 121.772 791.489C125.553 786.809 127.443 780.651 127.443 773.015V771.723C127.443 767.081 126.582 762.832 124.86 758.977C123.138 755.121 120.724 752.145 117.617 750.048C114.51 747.915 110.953 746.848 106.948 746.848C100.958 746.848 96.0729 749.206 92.292 753.923C88.5111 758.602 86.6206 764.742 86.6206 772.341V773.576ZM176.127 747.971C174.705 747.709 173.189 747.578 171.579 747.578C167.386 747.578 163.83 748.757 160.91 751.115C158.028 753.436 155.969 756.824 154.733 761.279V803H148.051V742.243H154.621L154.733 751.901C158.29 744.714 163.999 741.12 171.86 741.12C173.732 741.12 175.21 741.363 176.296 741.85L176.127 747.971ZM263.613 773.239C263.613 782.71 261.516 790.235 257.324 795.812C253.131 801.353 247.516 804.123 240.478 804.123C232.167 804.123 225.804 801.203 221.386 795.363V826.359H214.704V742.243H220.937L221.274 750.834C225.654 744.358 231.999 741.12 240.31 741.12C247.572 741.12 253.262 743.872 257.38 749.375C261.535 754.877 263.613 762.514 263.613 772.285V773.239ZM256.875 772.06C256.875 764.311 255.284 758.19 252.102 753.698C248.92 749.206 244.484 746.96 238.793 746.96C234.676 746.96 231.138 747.952 228.181 749.936C225.223 751.92 222.958 754.803 221.386 758.583V787.727C222.996 791.208 225.298 793.866 228.293 795.7C231.288 797.535 234.825 798.452 238.906 798.452C244.558 798.452 248.957 796.206 252.102 791.713C255.284 787.184 256.875 780.633 256.875 772.06ZM306.625 747.971C305.203 747.709 303.687 747.578 302.077 747.578C297.884 747.578 294.328 748.757 291.408 751.115C288.526 753.436 286.467 756.824 285.231 761.279V803H278.549V742.243H285.119L285.231 751.901C288.788 744.714 294.497 741.12 302.358 741.12C304.23 741.12 305.708 741.363 306.794 741.85L306.625 747.971ZM324.819 803H318.081V742.243H324.819V803ZM316.901 724.667C316.901 723.395 317.313 722.328 318.137 721.467C318.96 720.568 320.083 720.119 321.506 720.119C322.928 720.119 324.051 720.568 324.875 721.467C325.736 722.328 326.167 723.395 326.167 724.667C326.167 725.94 325.736 727.007 324.875 727.868C324.051 728.729 322.928 729.16 321.506 729.16C320.083 729.16 318.96 728.729 318.137 727.868C317.313 727.007 316.901 725.94 316.901 724.667ZM362.048 793.735L380.522 742.243H387.429L364.743 803H359.296L336.499 742.243H343.405L362.048 793.735ZM435.944 803C435.271 801.091 434.84 798.264 434.653 794.521C432.294 797.591 429.281 799.968 425.612 801.652C421.981 803.299 418.125 804.123 414.045 804.123C408.205 804.123 403.47 802.495 399.838 799.238C396.245 795.981 394.448 791.863 394.448 786.884C394.448 780.97 396.9 776.29 401.804 772.846C406.745 769.402 413.614 767.68 422.412 767.68H434.597V760.773C434.597 756.431 433.249 753.024 430.554 750.554C427.896 748.046 424.003 746.792 418.874 746.792C414.195 746.792 410.32 747.989 407.25 750.385C404.181 752.781 402.646 755.664 402.646 759.033L395.908 758.977C395.908 754.147 398.154 749.973 402.646 746.455C407.138 742.898 412.66 741.12 419.211 741.12C425.987 741.12 431.321 742.823 435.214 746.23C439.145 749.599 441.167 754.316 441.279 760.38V789.13C441.279 795.008 441.896 799.406 443.132 802.326V803H435.944ZM414.831 798.171C419.323 798.171 423.329 797.085 426.848 794.914C430.404 792.743 432.987 789.842 434.597 786.21V772.846H422.58C415.879 772.921 410.638 774.156 406.857 776.552C403.076 778.911 401.186 782.167 401.186 786.323C401.186 789.729 402.44 792.556 404.948 794.802C407.494 797.048 410.788 798.171 414.831 798.171ZM469.692 726.689V742.243H482.27V747.746H469.692V788.232C469.692 791.601 470.291 794.109 471.489 795.756C472.724 797.403 474.764 798.227 477.609 798.227C478.732 798.227 480.548 798.04 483.056 797.666L483.337 803.168C481.577 803.805 479.182 804.123 476.149 804.123C471.545 804.123 468.194 802.794 466.098 800.136C464.002 797.441 462.954 793.492 462.954 788.288V747.746H451.779V742.243H462.954V726.689H469.692ZM519.724 804.123C514.558 804.123 509.878 802.85 505.686 800.305C501.53 797.759 498.292 794.222 495.971 789.692C493.65 785.125 492.49 780.015 492.49 774.362V771.948C492.49 766.108 493.613 760.848 495.859 756.169C498.142 751.49 501.306 747.821 505.349 745.163C509.392 742.468 513.771 741.12 518.488 741.12C525.863 741.12 531.703 743.647 536.008 748.701C540.35 753.717 542.521 760.586 542.521 769.309V773.071H499.172V774.362C499.172 781.25 501.137 786.997 505.068 791.601C509.036 796.168 514.015 798.452 520.004 798.452C523.598 798.452 526.761 797.797 529.494 796.486C532.264 795.176 534.772 793.08 537.019 790.197L541.23 793.398C536.289 800.548 529.12 804.123 519.724 804.123ZM518.488 746.848C513.435 746.848 509.167 748.701 505.686 752.407C502.242 756.113 500.145 761.092 499.396 767.343H535.839V766.613C535.652 760.773 533.986 756.019 530.842 752.351C527.697 748.682 523.579 746.848 518.488 746.848ZM591.093 803H584.355V742.243H591.093V803ZM583.176 724.667C583.176 723.395 583.588 722.328 584.411 721.467C585.235 720.568 586.358 720.119 587.78 720.119C589.203 720.119 590.326 720.568 591.149 721.467C592.01 722.328 592.441 723.395 592.441 724.667C592.441 725.94 592.01 727.007 591.149 727.868C590.326 728.729 589.203 729.16 587.78 729.16C586.358 729.16 585.235 728.729 584.411 727.868C583.588 727.007 583.176 725.94 583.176 724.667ZM615.8 742.243L616.025 752.631C618.308 748.888 621.153 746.043 624.56 744.096C627.967 742.112 631.729 741.12 635.847 741.12C642.36 741.12 647.208 742.954 650.39 746.623C653.572 750.292 655.182 755.795 655.219 763.132V803H648.537V763.076C648.5 757.648 647.339 753.605 645.056 750.947C642.81 748.289 639.197 746.96 634.218 746.96C630.063 746.96 626.376 748.27 623.156 750.891C619.974 753.474 617.616 756.974 616.081 761.391V803H609.399V742.243H615.8ZM677.456 803V747.746H667.404V742.243H677.456V734.887C677.456 728.673 679.028 723.9 682.172 720.568C685.354 717.237 689.772 715.571 695.424 715.571C697.97 715.571 700.347 715.889 702.556 716.525L702.05 722.141C700.179 721.691 698.138 721.467 695.93 721.467C692.224 721.467 689.341 722.627 687.282 724.948C685.223 727.232 684.194 730.489 684.194 734.719V742.243H698.681V747.746H684.194V803H677.456ZM706.992 771.723C706.992 765.883 708.115 760.624 710.361 755.944C712.644 751.265 715.845 747.634 719.963 745.051C724.118 742.43 728.816 741.12 734.057 741.12C742.143 741.12 748.694 743.965 753.71 749.655C758.727 755.308 761.235 762.814 761.235 772.172V773.576C761.235 779.453 760.093 784.75 757.81 789.467C755.563 794.147 752.382 797.759 748.264 800.305C744.146 802.85 739.448 804.123 734.169 804.123C726.121 804.123 719.57 801.297 714.516 795.644C709.5 789.954 706.992 782.43 706.992 773.071V771.723ZM713.73 773.576C713.73 780.839 715.602 786.809 719.345 791.489C723.126 796.131 728.068 798.452 734.169 798.452C740.234 798.452 745.138 796.131 748.881 791.489C752.662 786.809 754.553 780.651 754.553 773.015V771.723C754.553 767.081 753.692 762.832 751.97 758.977C750.248 755.121 747.833 752.145 744.726 750.048C741.619 747.915 738.063 746.848 734.057 746.848C728.068 746.848 723.182 749.206 719.401 753.923C715.62 758.602 713.73 764.742 713.73 772.341V773.576ZM803.237 747.971C801.814 747.709 800.298 747.578 798.688 747.578C794.496 747.578 790.939 748.757 788.02 751.115C785.137 753.436 783.078 756.824 781.843 761.279V803H775.161V742.243H781.73L781.843 751.901C785.399 744.714 791.108 741.12 798.969 741.12C800.841 741.12 802.32 741.363 803.405 741.85L803.237 747.971ZM820.026 742.243L820.251 752.126C822.497 748.457 825.305 745.706 828.674 743.872C832.043 742.037 835.786 741.12 839.904 741.12C849.488 741.12 855.571 745.051 858.154 752.912C860.325 749.131 863.226 746.23 866.857 744.208C870.489 742.15 874.494 741.12 878.874 741.12C891.901 741.12 898.546 748.233 898.808 762.458V803H892.07V762.963C892.032 757.535 890.853 753.511 888.532 750.891C886.249 748.27 882.505 746.96 877.302 746.96C872.473 747.035 868.392 748.607 865.061 751.677C861.729 754.709 859.876 758.415 859.501 762.795V803H852.763V762.458C852.726 757.255 851.49 753.38 849.057 750.834C846.661 748.251 842.955 746.96 837.939 746.96C833.709 746.96 830.078 748.177 827.045 750.61C824.013 753.006 821.767 756.581 820.307 761.335V803H813.569V742.243H820.026ZM954.23 803C953.557 801.091 953.126 798.264 952.939 794.521C950.581 797.591 947.567 799.968 943.898 801.652C940.267 803.299 936.411 804.123 932.331 804.123C926.491 804.123 921.756 802.495 918.125 799.238C914.531 795.981 912.734 791.863 912.734 786.884C912.734 780.97 915.186 776.29 920.09 772.846C925.031 769.402 931.901 767.68 940.698 767.68H952.883V760.773C952.883 756.431 951.535 753.024 948.84 750.554C946.182 748.046 942.289 746.792 937.16 746.792C932.481 746.792 928.606 747.989 925.537 750.385C922.467 752.781 920.932 755.664 920.932 759.033L914.194 758.977C914.194 754.147 916.44 749.973 920.932 746.455C925.424 742.898 930.946 741.12 937.497 741.12C944.273 741.12 949.607 742.823 953.5 746.23C957.431 749.599 959.453 754.316 959.565 760.38V789.13C959.565 795.008 960.183 799.406 961.418 802.326V803H954.23ZM933.117 798.171C937.609 798.171 941.615 797.085 945.134 794.914C948.69 792.743 951.273 789.842 952.883 786.21V772.846H940.866C934.165 772.921 928.924 774.156 925.144 776.552C921.363 778.911 919.472 782.167 919.472 786.323C919.472 789.729 920.726 792.556 923.234 794.802C925.78 797.048 929.074 798.171 933.117 798.171ZM987.978 726.689V742.243H1000.56V747.746H987.978V788.232C987.978 791.601 988.577 794.109 989.775 795.756C991.01 797.403 993.05 798.227 995.896 798.227C997.019 798.227 998.834 798.04 1001.34 797.666L1001.62 803.168C999.864 803.805 997.468 804.123 994.436 804.123C989.831 804.123 986.481 802.794 984.384 800.136C982.288 797.441 981.24 793.492 981.24 788.288V747.746H970.065V742.243H981.24V726.689H987.978ZM1022.01 803H1015.27V742.243H1022.01V803ZM1014.09 724.667C1014.09 723.395 1014.5 722.328 1015.32 721.467C1016.15 720.568 1017.27 720.119 1018.69 720.119C1020.12 720.119 1021.24 720.568 1022.06 721.467C1022.92 722.328 1023.35 723.395 1023.35 724.667C1023.35 725.94 1022.92 727.007 1022.06 727.868C1021.24 728.729 1020.12 729.16 1018.69 729.16C1017.27 729.16 1016.15 728.729 1015.32 727.868C1014.5 727.007 1014.09 725.94 1014.09 724.667ZM1036.61 771.723C1036.61 765.883 1037.73 760.624 1039.98 755.944C1042.26 751.265 1045.46 747.634 1049.58 745.051C1053.73 742.43 1058.43 741.12 1063.67 741.12C1071.76 741.12 1078.31 743.965 1083.32 749.655C1088.34 755.308 1090.85 762.814 1090.85 772.172V773.576C1090.85 779.453 1089.71 784.75 1087.42 789.467C1085.18 794.147 1082 797.759 1077.88 800.305C1073.76 802.85 1069.06 804.123 1063.78 804.123C1055.74 804.123 1049.18 801.297 1044.13 795.644C1039.11 789.954 1036.61 782.43 1036.61 773.071V771.723ZM1043.34 773.576C1043.34 780.839 1045.22 786.809 1048.96 791.489C1052.74 796.131 1057.68 798.452 1063.78 798.452C1069.85 798.452 1074.75 796.131 1078.5 791.489C1082.28 786.809 1084.17 780.651 1084.17 773.015V771.723C1084.17 767.081 1083.31 762.832 1081.58 758.977C1079.86 755.121 1077.45 752.145 1074.34 750.048C1071.23 747.915 1067.68 746.848 1063.67 746.848C1057.68 746.848 1052.8 749.206 1049.02 753.923C1045.23 758.602 1043.34 764.742 1043.34 772.341V773.576ZM1111.18 742.243L1111.4 752.631C1113.68 748.888 1116.53 746.043 1119.94 744.096C1123.34 742.112 1127.1 741.12 1131.22 741.12C1137.74 741.12 1142.58 742.954 1145.77 746.623C1148.95 750.292 1150.56 755.795 1150.6 763.132V803H1143.91V763.076C1143.88 757.648 1142.72 753.605 1140.43 750.947C1138.19 748.289 1134.57 746.96 1129.59 746.96C1125.44 746.96 1121.75 748.27 1118.53 750.891C1115.35 753.474 1112.99 756.974 1111.46 761.391V803H1104.77V742.243H1111.18Z" fill="black"/>
<defs>
<filter id="filter0_bd" x="-46" y="-50" width="1288" height="988" filterUnits="userSpaceOnUse" color-interpolation-filters="sRGB">
<feFlood flood-opacity="0" result="BackgroundImageFix"/>
<feGaussianBlur in="BackgroundImage" stdDeviation="25"/>
<feComposite in2="SourceAlpha" operator="in" result="effect1_backgroundBlur"/>
<feColorMatrix in="SourceAlpha" type="matrix" values="0 0 0 0 0 0 0 0 0 0 0 0 0 0 0 0 0 0 127 0" result="hardAlpha"/>
<feOffset dy="4"/>
<feGaussianBlur stdDeviation="2"/>
<feComposite in2="hardAlpha" operator="out"/>
<feColorMatrix type="matrix" values="0 0 0 0 0 0 0 0 0 0 0 0 0 0 0 0 0 0 0.25 0"/>
<feBlend mode="normal" in2="effect1_backgroundBlur" result="effect2_dropShadow"/>
<feBlend mode="normal" in="SourceGraphic" in2="effect2_dropShadow" result="shape"/>
</filter>
<filter id="filter1_d" x="37.3359" y="222.812" width="1114.49" height="438.141" filterUnits="userSpaceOnUse" color-interpolation-filters="sRGB">
<feFlood flood-opacity="0" result="BackgroundImageFix"/>
<feColorMatrix in="SourceAlpha" type="matrix" values="0 0 0 0 0 0 0 0 0 0 0 0 0 0 0 0 0 0 127 0" result="hardAlpha"/>
<feOffset/>
<feGaussianBlur stdDeviation="15"/>
<feComposite in2="hardAlpha" operator="out"/>
<feColorMatrix type="matrix" values="0 0 0 0 0.258824 0 0 0 0 0.258824 0 0 0 0 0.258824 0 0 0 0.75 0"/>
<feBlend mode="normal" in2="BackgroundImageFix" result="effect1_dropShadow"/>
<feBlend mode="normal" in="SourceGraphic" in2="effect1_dropShadow" result="shape"/>
</filter>
<clipPath id="clip0">
<rect width="775.218" height="775.218" fill="white" transform="translate(211.326 57.3262)"/>
</clipPath>
</defs>
</svg>
