<svg width="2444" height="1850" viewBox="0 0 2444 1850" fill="none" xmlns="http://www.w3.org/2000/svg">
<g filter="url(#filter0_bd)">
<rect x="4" width="2436" height="1842" rx="100" fill="white" fill-opacity="0.65" shape-rendering="crispEdges"/>
</g>
<mask id="mask0" style="mask-type:alpha" maskUnits="userSpaceOnUse" x="4" y="0" width="2436" height="1842">
<rect x="4" width="2436" height="1842" rx="100" fill="#181818"/>
</mask>
<g mask="url(#mask0)">
<rect x="-159" y="865" width="846" height="376" rx="50" fill="black"/>
<path fill-rule="evenodd" clip-rule="evenodd" d="M157 925H-99V1181H157V925ZM115.547 1041.27L70.0758 995.803C63.7245 989.451 53.427 989.451 47.0758 995.803C40.7245 1002.15 40.7245 1012.45 47.0758 1018.8L65.0464 1036.77L-53.9531 1036.77C-62.7897 1036.77 -69.9531 1043.94 -69.9531 1052.77C-69.9531 1061.61 -62.7897 1068.77 -53.9531 1068.77L65.0474 1068.77L47.0757 1086.75C40.7245 1093.1 40.7245 1103.39 47.0757 1109.75C53.427 1116.1 63.7245 1116.1 70.0757 1109.75L115.547 1064.27C121.898 1057.92 121.898 1047.63 115.547 1041.27Z" fill="white"/>
<path d="M330.828 1077.78C330.828 1071.87 328.753 1067.21 324.603 1063.79C320.452 1060.32 312.859 1057.05 301.824 1053.98C290.789 1050.85 282.732 1047.46 277.654 1043.79C270.428 1038.62 266.814 1031.83 266.814 1023.43C266.814 1015.28 270.159 1008.66 276.849 1003.58C283.587 998.458 292.181 995.895 302.63 995.895C309.71 995.895 316.033 997.262 321.6 999.996C327.215 1002.73 331.561 1006.54 334.637 1011.42C337.713 1016.3 339.251 1021.75 339.251 1027.75H330.169C330.169 1020.48 327.679 1014.64 322.698 1010.25C317.718 1005.81 311.028 1003.58 302.63 1003.58C294.476 1003.58 287.981 1005.42 283.147 1009.08C278.313 1012.69 275.896 1017.43 275.896 1023.29C275.896 1028.71 278.069 1033.13 282.415 1036.54C286.761 1039.96 293.719 1042.99 303.289 1045.63C312.859 1048.21 320.11 1050.92 325.042 1053.76C329.974 1056.54 333.685 1059.88 336.175 1063.79C338.665 1067.7 339.91 1072.31 339.91 1077.63C339.91 1086.03 336.541 1092.77 329.803 1097.85C323.113 1102.93 314.275 1105.46 303.289 1105.46C295.77 1105.46 288.86 1104.12 282.562 1101.44C276.312 1098.75 271.551 1094.99 268.279 1090.16C265.057 1085.32 263.445 1079.78 263.445 1073.53H272.454C272.454 1081.05 275.262 1086.98 280.877 1091.33C286.492 1095.67 293.963 1097.85 303.289 1097.85C311.59 1097.85 318.255 1096.02 323.284 1092.35C328.313 1088.69 330.828 1083.83 330.828 1077.78ZM376.165 1064.08L366.131 1073.75V1104H357.342V991.5H366.131V1063.5L374.407 1054.56L404.729 1024.75H415.789L382.171 1058.15L418.719 1104H408.245L376.165 1064.08ZM440.691 1104H431.902V1024.75H440.691V1104ZM430.364 1001.83C430.364 1000.17 430.901 998.775 431.976 997.652C433.05 996.48 434.515 995.895 436.37 995.895C438.226 995.895 439.69 996.48 440.765 997.652C441.888 998.775 442.449 1000.17 442.449 1001.83C442.449 1003.49 441.888 1004.88 440.765 1006C439.69 1007.12 438.226 1007.69 436.37 1007.69C434.515 1007.69 433.05 1007.12 431.976 1006C430.901 1004.88 430.364 1003.49 430.364 1001.83ZM528.289 1065.18C528.289 1077.54 525.555 1087.35 520.086 1094.62C514.617 1101.85 507.293 1105.46 498.113 1105.46C487.273 1105.46 478.973 1101.66 473.211 1094.04V1134.47H464.495V1024.75H472.625L473.064 1035.96C478.777 1027.51 487.054 1023.29 497.894 1023.29C507.366 1023.29 514.788 1026.88 520.159 1034.05C525.579 1041.23 528.289 1051.19 528.289 1063.94V1065.18ZM519.5 1063.64C519.5 1053.54 517.425 1045.55 513.274 1039.69C509.124 1033.83 503.338 1030.9 495.916 1030.9C490.545 1030.9 485.931 1032.2 482.073 1034.79C478.216 1037.37 475.262 1041.13 473.211 1046.07V1084.08C475.311 1088.62 478.313 1092.09 482.22 1094.48C486.126 1096.87 490.74 1098.07 496.062 1098.07C503.436 1098.07 509.173 1095.14 513.274 1089.28C517.425 1083.37 519.5 1074.83 519.5 1063.64Z" fill="white"/>
<rect x="784" y="865" width="1015" height="376" rx="50" fill="black"/>
<path fill-rule="evenodd" clip-rule="evenodd" d="M844 925H1100V1181H844V925ZM1046.49 979.469C1052.74 985.717 1052.74 995.848 1046.49 1002.1L995.106 1053.48L1046.49 1104.86C1052.74 1111.11 1052.74 1121.24 1046.49 1127.49C1040.24 1133.74 1030.11 1133.74 1023.86 1127.49L972.478 1076.11L921.096 1127.49C914.848 1133.74 904.717 1133.74 898.469 1127.49C892.22 1121.24 892.22 1111.11 898.469 1104.86L949.851 1053.48L898.469 1002.1C892.22 995.848 892.22 985.717 898.469 979.469C904.717 973.22 914.848 973.22 921.096 979.469L972.478 1030.85L1023.86 979.469C1030.11 973.22 1040.24 973.22 1046.49 979.469Z" fill="white"/>
<path d="M1288.99 1070.75C1287.77 1081.98 1283.74 1090.57 1276.9 1096.53C1270.12 1102.49 1261.06 1105.46 1249.73 1105.46C1241.82 1105.46 1234.81 1103.49 1228.71 1099.53C1222.66 1095.58 1217.97 1089.99 1214.65 1082.76C1211.33 1075.48 1209.64 1067.18 1209.59 1057.86V1044.01C1209.59 1034.54 1211.25 1026.14 1214.58 1018.82C1217.9 1011.5 1222.66 1005.86 1228.86 1001.9C1235.11 997.896 1242.29 995.895 1250.39 995.895C1261.82 995.895 1270.83 998.995 1277.42 1005.2C1284.06 1011.35 1287.92 1019.87 1288.99 1030.76H1279.91C1277.66 1012.64 1267.82 1003.58 1250.39 1003.58C1240.72 1003.58 1233.01 1007.2 1227.25 1014.42C1221.53 1021.65 1218.68 1031.64 1218.68 1044.38V1057.42C1218.68 1069.72 1221.46 1079.54 1227.03 1086.86C1232.64 1094.19 1240.21 1097.85 1249.73 1097.85C1259.16 1097.85 1266.26 1095.6 1271.04 1091.11C1275.83 1086.57 1278.78 1079.78 1279.91 1070.75H1288.99ZM1358.86 1104C1357.98 1101.51 1357.42 1097.82 1357.18 1092.94C1354.1 1096.94 1350.17 1100.04 1345.39 1102.24C1340.65 1104.39 1335.62 1105.46 1330.3 1105.46C1322.68 1105.46 1316.5 1103.34 1311.77 1099.09C1307.08 1094.84 1304.74 1089.47 1304.74 1082.98C1304.74 1075.26 1307.93 1069.16 1314.33 1064.67C1320.78 1060.18 1329.74 1057.93 1341.21 1057.93H1357.1V1048.92C1357.1 1043.26 1355.35 1038.81 1351.83 1035.59C1348.36 1032.32 1343.29 1030.68 1336.6 1030.68C1330.49 1030.68 1325.44 1032.25 1321.44 1035.37C1317.43 1038.5 1315.43 1042.26 1315.43 1046.65L1306.64 1046.58C1306.64 1040.28 1309.57 1034.83 1315.43 1030.25C1321.29 1025.61 1328.49 1023.29 1337.04 1023.29C1345.87 1023.29 1352.83 1025.51 1357.91 1029.95C1363.04 1034.35 1365.67 1040.5 1365.82 1048.41V1085.91C1365.82 1093.58 1366.63 1099.31 1368.24 1103.12V1104H1358.86ZM1331.32 1097.7C1337.18 1097.7 1342.41 1096.29 1347 1093.45C1351.64 1090.62 1355 1086.84 1357.1 1082.1V1064.67H1341.43C1332.69 1064.77 1325.85 1066.38 1320.92 1069.5C1315.99 1072.58 1313.53 1076.83 1313.53 1082.25C1313.53 1086.69 1315.16 1090.38 1318.43 1093.31C1321.75 1096.24 1326.05 1097.7 1331.32 1097.7ZM1397.61 1024.75L1397.9 1038.3C1400.88 1033.42 1404.59 1029.71 1409.03 1027.17C1413.48 1024.58 1418.38 1023.29 1423.75 1023.29C1432.25 1023.29 1438.57 1025.68 1442.72 1030.46C1446.88 1035.25 1448.97 1042.43 1449.02 1052V1104H1440.31V1051.92C1440.26 1044.84 1438.75 1039.57 1435.77 1036.1C1432.84 1032.64 1428.12 1030.9 1421.63 1030.9C1416.21 1030.9 1411.4 1032.61 1407.2 1036.03C1403.05 1039.4 1399.98 1043.97 1397.97 1049.73V1104H1389.26V1024.75H1397.61ZM1501.03 1098.07C1507.13 1098.07 1512.23 1096.36 1516.33 1092.94C1520.48 1089.47 1522.73 1085.01 1523.07 1079.54H1531.49C1531.25 1084.37 1529.74 1088.79 1526.95 1092.79C1524.17 1096.75 1520.46 1099.85 1515.82 1102.1C1511.23 1104.34 1506.3 1105.46 1501.03 1105.46C1490.62 1105.46 1482.37 1101.85 1476.27 1094.62C1470.21 1087.4 1467.19 1077.68 1467.19 1065.47V1062.84C1467.19 1055.03 1468.55 1048.12 1471.29 1042.11C1474.02 1036.1 1477.93 1031.47 1483.01 1028.19C1488.13 1024.92 1494.12 1023.29 1500.95 1023.29C1509.64 1023.29 1516.8 1025.88 1522.41 1031.05C1528.08 1036.23 1531.1 1043.04 1531.49 1051.49H1523.07C1522.68 1045.28 1520.43 1040.28 1516.33 1036.47C1512.28 1032.66 1507.15 1030.76 1500.95 1030.76C1493.04 1030.76 1486.89 1033.61 1482.5 1039.33C1478.15 1045.04 1475.98 1053.05 1475.98 1063.35V1065.91C1475.98 1076.02 1478.15 1083.91 1482.5 1089.57C1486.89 1095.24 1493.07 1098.07 1501.03 1098.07ZM1579.76 1105.46C1573.02 1105.46 1566.92 1103.8 1561.45 1100.48C1556.03 1097.16 1551.81 1092.55 1548.78 1086.64C1545.75 1080.68 1544.24 1074.02 1544.24 1066.65V1063.5C1544.24 1055.88 1545.7 1049.02 1548.63 1042.92C1551.61 1036.81 1555.74 1032.03 1561.01 1028.56C1566.28 1025.04 1572 1023.29 1578.15 1023.29C1587.77 1023.29 1595.39 1026.58 1601 1033.17C1606.67 1039.72 1609.5 1048.68 1609.5 1060.05V1064.96H1552.95V1066.65C1552.95 1075.63 1555.52 1083.13 1560.64 1089.13C1565.82 1095.09 1572.31 1098.07 1580.13 1098.07C1584.81 1098.07 1588.94 1097.21 1592.5 1095.5C1596.12 1093.79 1599.39 1091.06 1602.32 1087.3L1607.81 1091.48C1601.37 1100.8 1592.02 1105.46 1579.76 1105.46ZM1578.15 1030.76C1571.56 1030.76 1565.99 1033.17 1561.45 1038.01C1556.96 1042.84 1554.22 1049.34 1553.25 1057.49H1600.78V1056.54C1600.54 1048.92 1598.36 1042.72 1594.26 1037.94C1590.16 1033.15 1584.79 1030.76 1578.15 1030.76ZM1636.38 1104H1627.59V991.5H1636.38V1104Z" fill="white"/>
<rect x="1896" y="865" width="816" height="376" rx="50" fill="black"/>
<path fill-rule="evenodd" clip-rule="evenodd" d="M2212 925H1956V1181H2212V925ZM2111.47 1034L2102.98 1025.52L2019.44 1109.07V1117.56H2027.93L2111.47 1034ZM2129.72 972.674C2131.48 970.922 2133.87 970 2136.18 970C2138.58 970 2140.88 970.83 2142.73 972.674L2164.3 994.254C2167.9 997.851 2167.9 1003.66 2164.3 1007.26L2147.43 1024.13L2112.85 989.551L2129.72 972.674ZM2001 1101.42L2102.98 999.419L2137.56 1034L2035.58 1136H2001V1101.42Z" fill="white"/>
<path d="M2384.36 1052.88H2334.49V1096.38H2391.83V1104H2325.48V997.359H2391.47V1005.05H2334.49V1045.26H2384.36V1052.88ZM2403.85 1063.64C2403.85 1051.34 2406.58 1041.55 2412.05 1034.27C2417.57 1026.95 2425.04 1023.29 2434.46 1023.29C2445.15 1023.29 2453.31 1027.51 2458.92 1035.96V991.5H2467.64V1104H2459.44L2459.07 1093.45C2453.46 1101.46 2445.2 1105.46 2434.31 1105.46C2425.18 1105.46 2417.81 1101.8 2412.2 1094.48C2406.63 1087.11 2403.85 1077.17 2403.85 1064.67V1063.64ZM2412.71 1065.18C2412.71 1075.29 2414.73 1083.27 2418.79 1089.13C2422.84 1094.94 2428.55 1097.85 2435.93 1097.85C2446.72 1097.85 2454.38 1093.09 2458.92 1083.57V1046.36C2454.38 1036.06 2446.77 1030.9 2436.07 1030.9C2428.7 1030.9 2422.96 1033.81 2418.86 1039.62C2414.76 1045.38 2412.71 1053.9 2412.71 1065.18ZM2500.53 1104H2491.74V1024.75H2500.53V1104ZM2490.2 1001.83C2490.2 1000.17 2490.74 998.775 2491.81 997.652C2492.88 996.48 2494.35 995.895 2496.2 995.895C2498.06 995.895 2499.52 996.48 2500.6 997.652C2501.72 998.775 2502.28 1000.17 2502.28 1001.83C2502.28 1003.49 2501.72 1004.88 2500.6 1006C2499.52 1007.12 2498.06 1007.69 2496.2 1007.69C2494.35 1007.69 2492.88 1007.12 2491.81 1006C2490.74 1004.88 2490.2 1003.49 2490.2 1001.83ZM2538.03 1004.46V1024.75H2554.43V1031.93H2538.03V1084.74C2538.03 1089.13 2538.81 1092.4 2540.37 1094.55C2541.98 1096.7 2544.64 1097.77 2548.35 1097.77C2549.82 1097.77 2552.19 1097.53 2555.46 1097.04L2555.82 1104.22C2553.53 1105.05 2550.4 1105.46 2546.45 1105.46C2540.44 1105.46 2536.07 1103.73 2533.34 1100.26C2530.6 1096.75 2529.24 1091.6 2529.24 1084.81V1031.93H2514.66V1024.75H2529.24V1004.46H2538.03Z" fill="white"/>
<rect x="-1055" y="1280" width="1312" height="376" rx="50" fill="black"/>
<path d="M-625.523 1519V1412.36H-595.714C-586.974 1412.36 -579.137 1414.36 -572.203 1418.37C-565.27 1422.32 -559.874 1428.01 -556.017 1435.43C-552.11 1442.85 -550.157 1451.3 -550.157 1460.77V1470.59C-550.157 1480.11 -552.086 1488.56 -555.943 1495.93C-559.801 1503.3 -565.245 1508.99 -572.276 1512.99C-579.259 1517 -587.291 1519 -596.373 1519H-625.523ZM-616.515 1420.05V1511.38H-596.3C-585.069 1511.38 -576.061 1507.67 -569.273 1500.25C-562.486 1492.78 -559.093 1482.7 -559.093 1470V1460.63C-559.093 1448.37 -562.438 1438.56 -569.127 1431.18C-575.816 1423.81 -584.63 1420.1 -595.567 1420.05H-616.515ZM-498.595 1520.46C-505.333 1520.46 -511.437 1518.8 -516.905 1515.48C-522.325 1512.16 -526.549 1507.55 -529.576 1501.64C-532.604 1495.68 -534.117 1489.02 -534.117 1481.65V1478.5C-534.117 1470.88 -532.652 1464.02 -529.723 1457.92C-526.744 1451.81 -522.618 1447.03 -517.345 1443.56C-512.071 1440.04 -506.358 1438.29 -500.206 1438.29C-490.587 1438.29 -482.97 1441.58 -477.354 1448.17C-471.69 1454.72 -468.858 1463.68 -468.858 1475.05V1479.96H-525.401V1481.65C-525.401 1490.63 -522.838 1498.13 -517.711 1504.13C-512.535 1510.09 -506.041 1513.07 -498.229 1513.07C-493.541 1513.07 -489.415 1512.21 -485.851 1510.5C-482.237 1508.79 -478.966 1506.06 -476.036 1502.3L-470.543 1506.48C-476.988 1515.8 -486.339 1520.46 -498.595 1520.46ZM-500.206 1445.76C-506.798 1445.76 -512.364 1448.17 -516.905 1453.01C-521.397 1457.84 -524.132 1464.34 -525.108 1472.49H-477.574V1471.54C-477.818 1463.92 -479.991 1457.72 -484.093 1452.94C-488.194 1448.15 -493.565 1445.76 -500.206 1445.76ZM-404.332 1498.86C-404.332 1494.51 -406.09 1491.02 -409.605 1488.38C-413.072 1485.75 -418.321 1483.7 -425.353 1482.23C-432.384 1480.72 -437.853 1479.01 -441.759 1477.11C-445.616 1475.15 -448.497 1472.78 -450.401 1470C-452.257 1467.22 -453.185 1463.85 -453.185 1459.89C-453.185 1453.64 -450.572 1448.49 -445.348 1444.44C-440.123 1440.34 -433.434 1438.29 -425.279 1438.29C-416.441 1438.29 -409.361 1440.48 -404.039 1444.88C-398.668 1449.22 -395.982 1454.91 -395.982 1461.94H-404.771C-404.771 1457.31 -406.725 1453.45 -410.631 1450.37C-414.488 1447.3 -419.371 1445.76 -425.279 1445.76C-431.041 1445.76 -435.68 1447.05 -439.195 1449.64C-442.662 1452.18 -444.396 1455.5 -444.396 1459.6C-444.396 1463.56 -442.955 1466.63 -440.074 1468.83C-437.145 1470.98 -431.847 1472.96 -424.181 1474.76C-416.466 1476.57 -410.704 1478.5 -406.896 1480.55C-403.038 1482.6 -400.182 1485.06 -398.326 1487.95C-396.471 1490.83 -395.543 1494.32 -395.543 1498.42C-395.543 1505.11 -398.253 1510.46 -403.673 1514.46C-409.044 1518.46 -416.075 1520.46 -424.767 1520.46C-433.995 1520.46 -441.49 1518.24 -447.252 1513.8C-452.965 1509.31 -455.821 1503.64 -455.821 1496.81H-447.032C-446.69 1501.93 -444.542 1505.94 -440.587 1508.82C-436.583 1511.65 -431.31 1513.07 -424.767 1513.07C-418.663 1513.07 -413.731 1511.72 -409.972 1509.04C-406.212 1506.35 -404.332 1502.96 -404.332 1498.86ZM-346.471 1513.07C-340.367 1513.07 -335.265 1511.36 -331.163 1507.94C-327.013 1504.47 -324.767 1500.01 -324.425 1494.54H-316.002C-316.246 1499.37 -317.76 1503.79 -320.543 1507.79C-323.326 1511.75 -327.037 1514.85 -331.676 1517.1C-336.266 1519.34 -341.197 1520.46 -346.471 1520.46C-356.871 1520.46 -365.123 1516.85 -371.227 1509.62C-377.281 1502.4 -380.309 1492.68 -380.309 1480.47V1477.84C-380.309 1470.03 -378.941 1463.12 -376.207 1457.11C-373.473 1451.1 -369.566 1446.47 -364.488 1443.19C-359.361 1439.92 -353.38 1438.29 -346.544 1438.29C-337.853 1438.29 -330.699 1440.88 -325.084 1446.05C-319.42 1451.23 -316.393 1458.04 -316.002 1466.49H-324.425C-324.815 1460.28 -327.062 1455.28 -331.163 1451.47C-335.216 1447.66 -340.343 1445.76 -346.544 1445.76C-354.454 1445.76 -360.606 1448.61 -365.001 1454.33C-369.347 1460.04 -371.52 1468.05 -371.52 1478.35V1480.91C-371.52 1491.02 -369.347 1498.91 -365.001 1504.57C-360.606 1510.24 -354.43 1513.07 -346.471 1513.07ZM-261.803 1447.22C-263.658 1446.88 -265.636 1446.71 -267.735 1446.71C-273.204 1446.71 -277.843 1448.25 -281.651 1451.32C-285.411 1454.35 -288.097 1458.77 -289.708 1464.58V1519H-298.424V1439.75H-289.854L-289.708 1452.35C-285.069 1442.97 -277.623 1438.29 -267.369 1438.29C-264.928 1438.29 -262.999 1438.6 -261.583 1439.24L-261.803 1447.22ZM-238.072 1519H-246.861V1439.75H-238.072V1519ZM-248.399 1416.83C-248.399 1415.17 -247.862 1413.78 -246.788 1412.65C-245.714 1411.48 -244.249 1410.89 -242.394 1410.89C-240.538 1410.89 -239.073 1411.48 -237.999 1412.65C-236.876 1413.78 -236.314 1415.17 -236.314 1416.83C-236.314 1418.49 -236.876 1419.88 -237.999 1421C-239.073 1422.12 -240.538 1422.69 -242.394 1422.69C-244.249 1422.69 -245.714 1422.12 -246.788 1421C-247.862 1419.88 -248.399 1418.49 -248.399 1416.83ZM-150.475 1480.18C-150.475 1492.54 -153.209 1502.35 -158.678 1509.62C-164.146 1516.85 -171.471 1520.46 -180.65 1520.46C-191.49 1520.46 -199.791 1516.66 -205.553 1509.04V1549.47H-214.269V1439.75H-206.139L-205.699 1450.96C-199.986 1442.51 -191.71 1438.29 -180.87 1438.29C-171.397 1438.29 -163.976 1441.88 -158.604 1449.05C-153.185 1456.23 -150.475 1466.19 -150.475 1478.94V1480.18ZM-159.264 1478.64C-159.264 1468.54 -161.339 1460.55 -165.489 1454.69C-169.64 1448.83 -175.426 1445.9 -182.848 1445.9C-188.219 1445.9 -192.833 1447.2 -196.69 1449.79C-200.548 1452.37 -203.502 1456.13 -205.553 1461.07V1499.08C-203.453 1503.62 -200.45 1507.09 -196.544 1509.48C-192.638 1511.87 -188.023 1513.07 -182.701 1513.07C-175.328 1513.07 -169.591 1510.14 -165.489 1504.28C-161.339 1498.37 -159.264 1489.83 -159.264 1478.64ZM-117.369 1419.46V1439.75H-100.963V1446.93H-117.369V1499.74C-117.369 1504.13 -116.588 1507.4 -115.025 1509.55C-113.414 1511.7 -110.753 1512.77 -107.042 1512.77C-105.577 1512.77 -103.209 1512.53 -99.9375 1512.04L-99.5713 1519.22C-101.866 1520.05 -104.991 1520.46 -108.946 1520.46C-114.952 1520.46 -119.322 1518.73 -122.057 1515.26C-124.791 1511.75 -126.158 1506.6 -126.158 1499.81V1446.93H-140.733V1439.75H-126.158V1419.46H-117.369ZM-72.9844 1519H-81.7734V1439.75H-72.9844V1519ZM-83.3115 1416.83C-83.3115 1415.17 -82.7744 1413.78 -81.7002 1412.65C-80.626 1411.48 -79.1611 1410.89 -77.3057 1410.89C-75.4502 1410.89 -73.9854 1411.48 -72.9111 1412.65C-71.7881 1413.78 -71.2266 1415.17 -71.2266 1416.83C-71.2266 1418.49 -71.7881 1419.88 -72.9111 1421C-73.9854 1422.12 -75.4502 1422.69 -77.3057 1422.69C-79.1611 1422.69 -80.626 1422.12 -81.7002 1421C-82.7744 1419.88 -83.3115 1418.49 -83.3115 1416.83ZM-53.9414 1478.2C-53.9414 1470.59 -52.4766 1463.73 -49.5469 1457.62C-46.5684 1451.52 -42.3936 1446.78 -37.0225 1443.41C-31.6025 1440 -25.4746 1438.29 -18.6387 1438.29C-8.0918 1438.29 0.453125 1442 6.99609 1449.42C13.5391 1456.79 16.8105 1466.58 16.8105 1478.79V1480.62C16.8105 1488.29 15.3213 1495.2 12.3428 1501.35C9.41309 1507.45 5.2627 1512.16 -0.108398 1515.48C-5.47949 1518.8 -11.6074 1520.46 -18.4922 1520.46C-28.9902 1520.46 -37.5352 1516.78 -44.127 1509.41C-50.6699 1501.98 -53.9414 1492.17 -53.9414 1479.96V1478.2ZM-45.1523 1480.62C-45.1523 1490.09 -42.7109 1497.88 -37.8281 1503.99C-32.8965 1510.04 -26.4512 1513.07 -18.4922 1513.07C-10.582 1513.07 -4.18555 1510.04 0.697266 1503.99C5.62891 1497.88 8.09473 1489.85 8.09473 1479.89V1478.2C8.09473 1472.15 6.97168 1466.61 4.72559 1461.58C2.47949 1456.55 -0.669922 1452.67 -4.72266 1449.93C-8.77539 1447.15 -13.4141 1445.76 -18.6387 1445.76C-26.4512 1445.76 -32.8232 1448.83 -37.7549 1454.99C-42.6865 1461.09 -45.1523 1469.1 -45.1523 1479.01V1480.62ZM43.3242 1439.75L43.6172 1453.3C46.5957 1448.42 50.3066 1444.71 54.75 1442.17C59.1934 1439.58 64.1006 1438.29 69.4717 1438.29C77.9678 1438.29 84.291 1440.68 88.4414 1445.46C92.5918 1450.25 94.6914 1457.43 94.7402 1467V1519H86.0244V1466.92C85.9756 1459.84 84.4619 1454.57 81.4834 1451.1C78.5537 1447.64 73.8418 1445.9 67.3477 1445.9C61.9277 1445.9 57.1182 1447.61 52.9189 1451.03C48.7686 1454.4 45.6924 1458.97 43.6904 1464.73V1519H34.9746V1439.75H43.3242Z" fill="white"/>
<rect x="354" y="1280" width="849" height="376" rx="50" fill="black"/>
<path fill-rule="evenodd" clip-rule="evenodd" d="M414 1340H670V1596H414V1340ZM491.047 1433.12L448.777 1418.35V1398.13L512.146 1424.68V1441.78L448.777 1468.41V1448.11L491.047 1433.12ZM649.047 1464.96H539.047V1477.3H649.047V1464.96Z" fill="white"/>
<path d="M855.84 1420.05H819.292V1519H810.283V1420.05H773.809V1412.36H855.84V1420.05ZM880.889 1519H872.1V1439.75H880.889V1519ZM870.562 1416.83C870.562 1415.17 871.099 1413.78 872.173 1412.65C873.247 1411.48 874.712 1410.89 876.567 1410.89C878.423 1410.89 879.888 1411.48 880.962 1412.65C882.085 1413.78 882.646 1415.17 882.646 1416.83C882.646 1418.49 882.085 1419.88 880.962 1421C879.888 1422.12 878.423 1422.69 876.567 1422.69C874.712 1422.69 873.247 1422.12 872.173 1421C871.099 1419.88 870.562 1418.49 870.562 1416.83ZM918.389 1419.46V1439.75H934.795V1446.93H918.389V1499.74C918.389 1504.13 919.17 1507.4 920.732 1509.55C922.344 1511.7 925.005 1512.77 928.716 1512.77C930.181 1512.77 932.549 1512.53 935.82 1512.04L936.187 1519.22C933.892 1520.05 930.767 1520.46 926.812 1520.46C920.806 1520.46 916.436 1518.73 913.701 1515.26C910.967 1511.75 909.6 1506.6 909.6 1499.81V1446.93H895.024V1439.75H909.6V1419.46H918.389ZM962.773 1519H953.984V1406.5H962.773V1519ZM1017.34 1520.46C1010.6 1520.46 1004.5 1518.8 999.028 1515.48C993.608 1512.16 989.385 1507.55 986.357 1501.64C983.33 1495.68 981.816 1489.02 981.816 1481.65V1478.5C981.816 1470.88 983.281 1464.02 986.211 1457.92C989.189 1451.81 993.315 1447.03 998.589 1443.56C1003.86 1440.04 1009.58 1438.29 1015.73 1438.29C1025.35 1438.29 1032.96 1441.58 1038.58 1448.17C1044.24 1454.72 1047.08 1463.68 1047.08 1475.05V1479.96H990.532V1481.65C990.532 1490.63 993.096 1498.13 998.223 1504.13C1003.4 1510.09 1009.89 1513.07 1017.71 1513.07C1022.39 1513.07 1026.52 1512.21 1030.08 1510.5C1033.7 1508.79 1036.97 1506.06 1039.9 1502.3L1045.39 1506.48C1038.95 1515.8 1029.59 1520.46 1017.34 1520.46ZM1015.73 1445.76C1009.14 1445.76 1003.57 1448.17 999.028 1453.01C994.536 1457.84 991.802 1464.34 990.825 1472.49H1038.36V1471.54C1038.12 1463.92 1035.94 1457.72 1031.84 1452.94C1027.74 1448.15 1022.37 1445.76 1015.73 1445.76Z" fill="white"/>
<rect x="1300" y="1280" width="999" height="376" rx="50" fill="black"/>
<path fill-rule="evenodd" clip-rule="evenodd" d="M1616 1340H1360V1596H1616V1340ZM1586 1511.5C1586 1485.38 1575.62 1460.32 1557.15 1441.85C1538.68 1423.38 1513.62 1413 1487.5 1413C1461.38 1413 1436.32 1423.38 1417.85 1441.85C1399.38 1460.32 1389 1485.38 1389 1511.5H1408.7C1408.7 1490.6 1417 1470.56 1431.78 1455.78C1446.56 1441 1466.6 1432.7 1487.5 1432.7C1508.4 1432.7 1528.44 1441 1543.22 1455.78C1558 1470.56 1566.3 1490.6 1566.3 1511.5H1586ZM1448.1 1511.5H1428.4C1428.4 1495.83 1434.63 1480.79 1445.71 1469.71C1456.79 1458.63 1471.83 1452.4 1487.5 1452.4C1503.17 1452.4 1518.21 1458.63 1529.29 1469.71C1540.37 1480.79 1546.6 1495.83 1546.6 1511.5H1526.9C1526.9 1501.05 1522.75 1491.03 1515.36 1483.64C1507.97 1476.25 1497.95 1472.1 1487.5 1472.1C1477.05 1472.1 1467.03 1476.25 1459.64 1483.64C1452.25 1491.03 1448.1 1501.05 1448.1 1511.5Z" fill="white"/>
<path d="M1804.99 1485.75C1803.77 1496.98 1799.74 1505.57 1792.9 1511.53C1786.12 1517.49 1777.06 1520.46 1765.73 1520.46C1757.82 1520.46 1750.81 1518.49 1744.71 1514.53C1738.66 1510.58 1733.97 1504.99 1730.65 1497.76C1727.33 1490.48 1725.64 1482.18 1725.59 1472.86V1459.01C1725.59 1449.54 1727.25 1441.14 1730.58 1433.82C1733.9 1426.5 1738.66 1420.86 1744.86 1416.9C1751.11 1412.9 1758.29 1410.89 1766.39 1410.89C1777.82 1410.89 1786.83 1414 1793.42 1420.2C1800.06 1426.35 1803.92 1434.87 1804.99 1445.76H1795.91C1793.66 1427.64 1783.82 1418.58 1766.39 1418.58C1756.72 1418.58 1749.01 1422.2 1743.25 1429.42C1737.53 1436.65 1734.68 1446.64 1734.68 1459.38V1472.42C1734.68 1484.72 1737.46 1494.54 1743.03 1501.86C1748.64 1509.19 1756.21 1512.85 1765.73 1512.85C1775.16 1512.85 1782.26 1510.6 1787.04 1506.11C1791.83 1501.57 1794.78 1494.78 1795.91 1485.75H1804.99ZM1820 1478.2C1820 1470.59 1821.47 1463.73 1824.4 1457.62C1827.38 1451.52 1831.55 1446.78 1836.92 1443.41C1842.34 1440 1848.47 1438.29 1855.31 1438.29C1865.85 1438.29 1874.4 1442 1880.94 1449.42C1887.48 1456.79 1890.76 1466.58 1890.76 1478.79V1480.62C1890.76 1488.29 1889.27 1495.2 1886.29 1501.35C1883.36 1507.45 1879.21 1512.16 1873.84 1515.48C1868.47 1518.8 1862.34 1520.46 1855.45 1520.46C1844.96 1520.46 1836.41 1516.78 1829.82 1509.41C1823.28 1501.98 1820 1492.17 1820 1479.96V1478.2ZM1828.79 1480.62C1828.79 1490.09 1831.23 1497.88 1836.12 1503.99C1841.05 1510.04 1847.49 1513.07 1855.45 1513.07C1863.36 1513.07 1869.76 1510.04 1874.64 1503.99C1879.57 1497.88 1882.04 1489.85 1882.04 1479.89V1478.2C1882.04 1472.15 1880.92 1466.61 1878.67 1461.58C1876.42 1456.55 1873.28 1452.67 1869.22 1449.93C1865.17 1447.15 1860.53 1445.76 1855.31 1445.76C1847.49 1445.76 1841.12 1448.83 1836.19 1454.99C1831.26 1461.09 1828.79 1469.1 1828.79 1479.01V1480.62ZM1918.73 1519H1909.95V1406.5H1918.73V1519ZM1937.78 1478.2C1937.78 1470.59 1939.24 1463.73 1942.17 1457.62C1945.15 1451.52 1949.33 1446.78 1954.7 1443.41C1960.12 1440 1966.24 1438.29 1973.08 1438.29C1983.63 1438.29 1992.17 1442 1998.71 1449.42C2005.26 1456.79 2008.53 1466.58 2008.53 1478.79V1480.62C2008.53 1488.29 2007.04 1495.2 2004.06 1501.35C2001.13 1507.45 1996.98 1512.16 1991.61 1515.48C1986.24 1518.8 1980.11 1520.46 1973.23 1520.46C1962.73 1520.46 1954.18 1516.78 1947.59 1509.41C1941.05 1501.98 1937.78 1492.17 1937.78 1479.96V1478.2ZM1946.57 1480.62C1946.57 1490.09 1949.01 1497.88 1953.89 1503.99C1958.82 1510.04 1965.27 1513.07 1973.23 1513.07C1981.14 1513.07 1987.53 1510.04 1992.42 1503.99C1997.35 1497.88 1999.81 1489.85 1999.81 1479.89V1478.2C1999.81 1472.15 1998.69 1466.61 1996.44 1461.58C1994.2 1456.55 1991.05 1452.67 1987 1449.93C1982.94 1447.15 1978.3 1445.76 1973.08 1445.76C1965.27 1445.76 1958.9 1448.83 1953.96 1454.99C1949.03 1461.09 1946.57 1469.1 1946.57 1479.01V1480.62ZM2077.67 1508.97C2072.4 1516.63 2063.97 1520.46 2052.4 1520.46C2043.95 1520.46 2037.53 1518.02 2033.14 1513.14C2028.74 1508.21 2026.5 1500.93 2026.4 1491.31V1439.75H2035.12V1490.22C2035.12 1505.3 2041.22 1512.85 2053.43 1512.85C2066.12 1512.85 2074.15 1507.6 2077.52 1497.1V1439.75H2086.31V1519H2077.82L2077.67 1508.97ZM2145.79 1447.22C2143.93 1446.88 2141.95 1446.71 2139.85 1446.71C2134.38 1446.71 2129.75 1448.25 2125.94 1451.32C2122.18 1454.35 2119.49 1458.77 2117.88 1464.58V1519H2109.16V1439.75H2117.73L2117.88 1452.35C2122.52 1442.97 2129.96 1438.29 2140.22 1438.29C2142.66 1438.29 2144.59 1438.6 2146 1439.24L2145.79 1447.22Z" fill="white"/>
<rect x="2396" y="1280" width="816" height="376" rx="50" fill="black"/>
<rect x="-486" y="1698" width="1312" height="376" rx="50" fill="black"/>
<path d="M-56.5234 1937V1830.36H-26.7139C-17.9736 1830.36 -10.1367 1832.36 -3.20312 1836.37C3.73047 1840.32 9.12598 1846.01 12.9834 1853.43C16.8896 1860.85 18.8428 1869.3 18.8428 1878.77V1888.59C18.8428 1898.11 16.9141 1906.56 13.0566 1913.93C9.19922 1921.3 3.75488 1926.99 -3.27637 1930.99C-10.2588 1935 -18.291 1937 -27.373 1937H-56.5234ZM-47.5146 1838.05V1929.38H-27.2998C-16.0693 1929.38 -7.06055 1925.67 -0.273438 1918.25C6.51367 1910.78 9.90723 1900.7 9.90723 1888V1878.63C9.90723 1866.37 6.5625 1856.56 -0.126953 1849.18C-6.81641 1841.81 -15.6299 1838.1 -26.5674 1838.05H-47.5146ZM70.4053 1938.46C63.667 1938.46 57.5635 1936.8 52.0947 1933.48C46.6748 1930.16 42.4512 1925.55 39.4238 1919.64C36.3965 1913.68 34.8828 1907.02 34.8828 1899.65V1896.5C34.8828 1888.88 36.3477 1882.02 39.2773 1875.92C42.2559 1869.81 46.3818 1865.03 51.6553 1861.56C56.9287 1858.04 62.6416 1856.29 68.7939 1856.29C78.4131 1856.29 86.0303 1859.58 91.6455 1866.17C97.3096 1872.72 100.142 1881.68 100.142 1893.05V1897.96H43.5986V1899.65C43.5986 1908.63 46.1621 1916.13 51.2891 1922.13C56.4648 1928.09 62.959 1931.07 70.7715 1931.07C75.459 1931.07 79.585 1930.21 83.1494 1928.5C86.7627 1926.79 90.0342 1924.06 92.9639 1920.3L98.457 1924.48C92.0117 1933.8 82.6611 1938.46 70.4053 1938.46ZM68.7939 1863.76C62.2021 1863.76 56.6357 1866.17 52.0947 1871.01C47.6025 1875.84 44.8682 1882.34 43.8916 1890.49H91.4258V1889.54C91.1816 1881.92 89.0088 1875.72 84.9072 1870.94C80.8057 1866.15 75.4346 1863.76 68.7939 1863.76ZM164.668 1916.86C164.668 1912.51 162.91 1909.02 159.395 1906.38C155.928 1903.75 150.679 1901.7 143.647 1900.23C136.616 1898.72 131.147 1897.01 127.241 1895.11C123.384 1893.15 120.503 1890.78 118.599 1888C116.743 1885.22 115.815 1881.85 115.815 1877.89C115.815 1871.64 118.428 1866.49 123.652 1862.44C128.877 1858.34 135.566 1856.29 143.721 1856.29C152.559 1856.29 159.639 1858.48 164.961 1862.88C170.332 1867.22 173.018 1872.91 173.018 1879.94H164.229C164.229 1875.31 162.275 1871.45 158.369 1868.37C154.512 1865.3 149.629 1863.76 143.721 1863.76C137.959 1863.76 133.32 1865.05 129.805 1867.64C126.338 1870.18 124.604 1873.5 124.604 1877.6C124.604 1881.56 126.045 1884.63 128.926 1886.83C131.855 1888.98 137.153 1890.96 144.819 1892.76C152.534 1894.57 158.296 1896.5 162.104 1898.55C165.962 1900.6 168.818 1903.06 170.674 1905.95C172.529 1908.83 173.457 1912.32 173.457 1916.42C173.457 1923.11 170.747 1928.46 165.327 1932.46C159.956 1936.46 152.925 1938.46 144.233 1938.46C135.005 1938.46 127.51 1936.24 121.748 1931.8C116.035 1927.31 113.179 1921.64 113.179 1914.81H121.968C122.31 1919.93 124.458 1923.94 128.413 1926.82C132.417 1929.65 137.69 1931.07 144.233 1931.07C150.337 1931.07 155.269 1929.72 159.028 1927.04C162.788 1924.35 164.668 1920.96 164.668 1916.86ZM222.529 1931.07C228.633 1931.07 233.735 1929.36 237.837 1925.94C241.987 1922.47 244.233 1918.01 244.575 1912.54H252.998C252.754 1917.37 251.24 1921.79 248.457 1925.79C245.674 1929.75 241.963 1932.85 237.324 1935.1C232.734 1937.34 227.803 1938.46 222.529 1938.46C212.129 1938.46 203.877 1934.85 197.773 1927.62C191.719 1920.4 188.691 1910.68 188.691 1898.47V1895.84C188.691 1888.03 190.059 1881.12 192.793 1875.11C195.527 1869.1 199.434 1864.47 204.512 1861.19C209.639 1857.92 215.62 1856.29 222.456 1856.29C231.147 1856.29 238.301 1858.88 243.916 1864.05C249.58 1869.23 252.607 1876.04 252.998 1884.49H244.575C244.185 1878.28 241.938 1873.28 237.837 1869.47C233.784 1865.66 228.657 1863.76 222.456 1863.76C214.546 1863.76 208.394 1866.61 203.999 1872.33C199.653 1878.04 197.48 1886.05 197.48 1896.35V1898.91C197.48 1909.02 199.653 1916.91 203.999 1922.57C208.394 1928.24 214.57 1931.07 222.529 1931.07ZM307.197 1865.22C305.342 1864.88 303.364 1864.71 301.265 1864.71C295.796 1864.71 291.157 1866.25 287.349 1869.32C283.589 1872.35 280.903 1876.77 279.292 1882.58V1937H270.576V1857.75H279.146L279.292 1870.35C283.931 1860.97 291.377 1856.29 301.631 1856.29C304.072 1856.29 306.001 1856.6 307.417 1857.24L307.197 1865.22ZM330.928 1937H322.139V1857.75H330.928V1937ZM320.601 1834.83C320.601 1833.17 321.138 1831.78 322.212 1830.65C323.286 1829.48 324.751 1828.89 326.606 1828.89C328.462 1828.89 329.927 1829.48 331.001 1830.65C332.124 1831.78 332.686 1833.17 332.686 1834.83C332.686 1836.49 332.124 1837.88 331.001 1839C329.927 1840.12 328.462 1840.69 326.606 1840.69C324.751 1840.69 323.286 1840.12 322.212 1839C321.138 1837.88 320.601 1836.49 320.601 1834.83ZM418.525 1898.18C418.525 1910.54 415.791 1920.35 410.322 1927.62C404.854 1934.85 397.529 1938.46 388.35 1938.46C377.51 1938.46 369.209 1934.66 363.447 1927.04V1967.47H354.731V1857.75H362.861L363.301 1868.96C369.014 1860.51 377.29 1856.29 388.13 1856.29C397.603 1856.29 405.024 1859.88 410.396 1867.05C415.815 1874.23 418.525 1884.19 418.525 1896.94V1898.18ZM409.736 1896.64C409.736 1886.54 407.661 1878.55 403.511 1872.69C399.36 1866.83 393.574 1863.9 386.152 1863.9C380.781 1863.9 376.167 1865.2 372.31 1867.79C368.452 1870.37 365.498 1874.13 363.447 1879.07V1917.08C365.547 1921.62 368.55 1925.09 372.456 1927.48C376.362 1929.87 380.977 1931.07 386.299 1931.07C393.672 1931.07 399.409 1928.14 403.511 1922.28C407.661 1916.37 409.736 1907.83 409.736 1896.64ZM451.631 1837.46V1857.75H468.037V1864.93H451.631V1917.74C451.631 1922.13 452.412 1925.4 453.975 1927.55C455.586 1929.7 458.247 1930.77 461.958 1930.77C463.423 1930.77 465.791 1930.53 469.062 1930.04L469.429 1937.22C467.134 1938.05 464.009 1938.46 460.054 1938.46C454.048 1938.46 449.678 1936.73 446.943 1933.26C444.209 1929.75 442.842 1924.6 442.842 1917.81V1864.93H428.267V1857.75H442.842V1837.46H451.631ZM496.016 1937H487.227V1857.75H496.016V1937ZM485.688 1834.83C485.688 1833.17 486.226 1831.78 487.3 1830.65C488.374 1829.48 489.839 1828.89 491.694 1828.89C493.55 1828.89 495.015 1829.48 496.089 1830.65C497.212 1831.78 497.773 1833.17 497.773 1834.83C497.773 1836.49 497.212 1837.88 496.089 1839C495.015 1840.12 493.55 1840.69 491.694 1840.69C489.839 1840.69 488.374 1840.12 487.3 1839C486.226 1837.88 485.688 1836.49 485.688 1834.83ZM515.059 1896.2C515.059 1888.59 516.523 1881.73 519.453 1875.62C522.432 1869.52 526.606 1864.78 531.978 1861.41C537.397 1858 543.525 1856.29 550.361 1856.29C560.908 1856.29 569.453 1860 575.996 1867.42C582.539 1874.79 585.811 1884.58 585.811 1896.79V1898.62C585.811 1906.29 584.321 1913.2 581.343 1919.35C578.413 1925.45 574.263 1930.16 568.892 1933.48C563.521 1936.8 557.393 1938.46 550.508 1938.46C540.01 1938.46 531.465 1934.78 524.873 1927.41C518.33 1919.98 515.059 1910.17 515.059 1897.96V1896.2ZM523.848 1898.62C523.848 1908.09 526.289 1915.88 531.172 1921.99C536.104 1928.04 542.549 1931.07 550.508 1931.07C558.418 1931.07 564.814 1928.04 569.697 1921.99C574.629 1915.88 577.095 1907.85 577.095 1897.89V1896.2C577.095 1890.15 575.972 1884.61 573.726 1879.58C571.479 1874.55 568.33 1870.67 564.277 1867.93C560.225 1865.15 555.586 1863.76 550.361 1863.76C542.549 1863.76 536.177 1866.83 531.245 1872.99C526.313 1879.09 523.848 1887.1 523.848 1897.01V1898.62ZM612.324 1857.75L612.617 1871.3C615.596 1866.42 619.307 1862.71 623.75 1860.17C628.193 1857.58 633.101 1856.29 638.472 1856.29C646.968 1856.29 653.291 1858.68 657.441 1863.46C661.592 1868.25 663.691 1875.43 663.74 1885V1937H655.024V1884.92C654.976 1877.84 653.462 1872.57 650.483 1869.1C647.554 1865.64 642.842 1863.9 636.348 1863.9C630.928 1863.9 626.118 1865.61 621.919 1869.03C617.769 1872.4 614.692 1876.97 612.69 1882.73V1937H603.975V1857.75H612.324Z" fill="white"/>
<rect x="923" y="1698" width="1063" height="376" rx="50" fill="black"/>
<path fill-rule="evenodd" clip-rule="evenodd" d="M983 1758H1239V2014H983V1758ZM1120.47 1863.78H1103L1100.53 1790.37H1122.94L1120.47 1863.78ZM1111.73 1875.28C1115.28 1875.28 1118.11 1876.32 1120.25 1878.41C1121.6 1879.7 1122.54 1881.22 1123.05 1882.96H1218.05V1895.3H1119.11C1117.14 1896.75 1114.68 1897.47 1111.73 1897.47C1108.24 1897.47 1105.41 1896.42 1103.22 1894.34C1101.09 1892.25 1100.02 1889.61 1100.02 1886.41C1100.02 1883.21 1101.09 1880.56 1103.22 1878.48C1105.41 1876.34 1108.24 1875.28 1111.73 1875.28Z" fill="white"/>
<path d="M1412.83 1910.78C1412.83 1904.87 1410.75 1900.21 1406.6 1896.79C1402.45 1893.32 1394.86 1890.05 1383.82 1886.98C1372.79 1883.85 1364.73 1880.46 1359.65 1876.79C1352.43 1871.62 1348.81 1864.83 1348.81 1856.43C1348.81 1848.28 1352.16 1841.66 1358.85 1836.58C1365.59 1831.46 1374.18 1828.89 1384.63 1828.89C1391.71 1828.89 1398.03 1830.26 1403.6 1833C1409.21 1835.73 1413.56 1839.54 1416.64 1844.42C1419.71 1849.3 1421.25 1854.75 1421.25 1860.75H1412.17C1412.17 1853.48 1409.68 1847.64 1404.7 1843.25C1399.72 1838.81 1393.03 1836.58 1384.63 1836.58C1376.48 1836.58 1369.98 1838.42 1365.15 1842.08C1360.31 1845.69 1357.9 1850.43 1357.9 1856.29C1357.9 1861.71 1360.07 1866.13 1364.42 1869.54C1368.76 1872.96 1375.72 1875.99 1385.29 1878.63C1394.86 1881.21 1402.11 1883.92 1407.04 1886.76C1411.97 1889.54 1415.68 1892.88 1418.17 1896.79C1420.67 1900.7 1421.91 1905.31 1421.91 1910.63C1421.91 1919.03 1418.54 1925.77 1411.8 1930.85C1405.11 1935.93 1396.28 1938.46 1385.29 1938.46C1377.77 1938.46 1370.86 1937.12 1364.56 1934.44C1358.31 1931.75 1353.55 1927.99 1350.28 1923.16C1347.06 1918.32 1345.45 1912.78 1345.45 1906.53H1354.45C1354.45 1914.05 1357.26 1919.98 1362.88 1924.33C1368.49 1928.67 1375.96 1930.85 1385.29 1930.85C1393.59 1930.85 1400.25 1929.02 1405.28 1925.35C1410.31 1921.69 1412.83 1916.83 1412.83 1910.78ZM1489.37 1937C1488.49 1934.51 1487.93 1930.82 1487.68 1925.94C1484.61 1929.94 1480.67 1933.04 1475.89 1935.24C1471.15 1937.39 1466.12 1938.46 1460.8 1938.46C1453.18 1938.46 1447.01 1936.34 1442.27 1932.09C1437.58 1927.84 1435.24 1922.47 1435.24 1915.98C1435.24 1908.26 1438.44 1902.16 1444.83 1897.67C1451.28 1893.18 1460.24 1890.93 1471.71 1890.93H1487.61V1881.92C1487.61 1876.26 1485.85 1871.81 1482.33 1868.59C1478.87 1865.32 1473.79 1863.68 1467.1 1863.68C1461 1863.68 1455.94 1865.25 1451.94 1868.37C1447.94 1871.5 1445.93 1875.26 1445.93 1879.65L1437.14 1879.58C1437.14 1873.28 1440.07 1867.83 1445.93 1863.25C1451.79 1858.61 1459 1856.29 1467.54 1856.29C1476.38 1856.29 1483.34 1858.51 1488.41 1862.95C1493.54 1867.35 1496.18 1873.5 1496.32 1881.41V1918.91C1496.32 1926.58 1497.13 1932.31 1498.74 1936.12V1937H1489.37ZM1461.83 1930.7C1467.69 1930.7 1472.91 1929.29 1477.5 1926.45C1482.14 1923.62 1485.51 1919.84 1487.61 1915.1V1897.67H1471.93C1463.19 1897.77 1456.36 1899.38 1451.43 1902.5C1446.5 1905.58 1444.03 1909.83 1444.03 1915.25C1444.03 1919.69 1445.67 1923.38 1448.94 1926.31C1452.26 1929.24 1456.55 1930.7 1461.83 1930.7ZM1527.75 1857.75L1528.04 1870.64C1530.97 1865.86 1534.63 1862.27 1539.02 1859.88C1543.42 1857.48 1548.3 1856.29 1553.67 1856.29C1566.17 1856.29 1574.11 1861.41 1577.48 1871.67C1580.31 1866.74 1584.09 1862.95 1588.83 1860.32C1593.57 1857.63 1598.79 1856.29 1604.5 1856.29C1621.5 1856.29 1630.16 1865.56 1630.5 1884.12V1937H1621.71V1884.78C1621.67 1877.7 1620.13 1872.45 1617.1 1869.03C1614.12 1865.61 1609.24 1863.9 1602.45 1863.9C1596.15 1864 1590.83 1866.05 1586.49 1870.06C1582.14 1874.01 1579.72 1878.85 1579.23 1884.56V1937H1570.45V1884.12C1570.4 1877.33 1568.79 1872.28 1565.61 1868.96C1562.49 1865.59 1557.65 1863.9 1551.11 1863.9C1545.59 1863.9 1540.86 1865.49 1536.9 1868.67C1532.95 1871.79 1530.02 1876.45 1528.11 1882.65V1937H1519.32V1857.75H1527.75ZM1716.49 1898.18C1716.49 1910.54 1713.76 1920.35 1708.29 1927.62C1702.82 1934.85 1695.49 1938.46 1686.31 1938.46C1675.47 1938.46 1667.17 1934.66 1661.41 1927.04V1967.47H1652.7V1857.75H1660.83L1661.27 1868.96C1666.98 1860.51 1675.25 1856.29 1686.09 1856.29C1695.57 1856.29 1702.99 1859.88 1708.36 1867.05C1713.78 1874.23 1716.49 1884.19 1716.49 1896.94V1898.18ZM1707.7 1896.64C1707.7 1886.54 1705.63 1878.55 1701.48 1872.69C1697.33 1866.83 1691.54 1863.9 1684.12 1863.9C1678.75 1863.9 1674.13 1865.2 1670.27 1867.79C1666.42 1870.37 1663.46 1874.13 1661.41 1879.07V1917.08C1663.51 1921.62 1666.51 1925.09 1670.42 1927.48C1674.33 1929.87 1678.94 1931.07 1684.26 1931.07C1691.64 1931.07 1697.37 1928.14 1701.48 1922.28C1705.63 1916.37 1707.7 1907.83 1707.7 1896.64ZM1745.79 1937H1737V1824.5H1745.79V1937ZM1800.35 1938.46C1793.61 1938.46 1787.51 1936.8 1782.04 1933.48C1776.62 1930.16 1772.4 1925.55 1769.37 1919.64C1766.34 1913.68 1764.83 1907.02 1764.83 1899.65V1896.5C1764.83 1888.88 1766.29 1882.02 1769.22 1875.92C1772.2 1869.81 1776.33 1865.03 1781.6 1861.56C1786.88 1858.04 1792.59 1856.29 1798.74 1856.29C1808.36 1856.29 1815.98 1859.58 1821.59 1866.17C1827.26 1872.72 1830.09 1881.68 1830.09 1893.05V1897.96H1773.55V1899.65C1773.55 1908.63 1776.11 1916.13 1781.24 1922.13C1786.41 1928.09 1792.91 1931.07 1800.72 1931.07C1805.41 1931.07 1809.53 1930.21 1813.1 1928.5C1816.71 1926.79 1819.98 1924.06 1822.91 1920.3L1828.4 1924.48C1821.96 1933.8 1812.61 1938.46 1800.35 1938.46ZM1798.74 1863.76C1792.15 1863.76 1786.58 1866.17 1782.04 1871.01C1777.55 1875.84 1774.82 1882.34 1773.84 1890.49H1821.37V1889.54C1821.13 1881.92 1818.96 1875.72 1814.85 1870.94C1810.75 1866.15 1805.38 1863.76 1798.74 1863.76Z" fill="white"/>
<rect x="2083" y="1698" width="999" height="376" rx="50" fill="black"/>
<path fill-rule="evenodd" clip-rule="evenodd" d="M2399 1758H2143V2014H2399V1758ZM2326.22 1873.78C2341 1888.56 2349.3 1908.6 2349.3 1929.5H2329.6C2329.6 1913.83 2323.37 1898.79 2312.29 1887.71C2301.21 1876.63 2286.17 1870.4 2270.5 1870.4C2254.83 1870.4 2239.79 1876.63 2228.71 1887.71C2217.63 1898.79 2211.4 1913.83 2211.4 1929.5L2191.7 1929.5C2191.7 1908.6 2200 1888.56 2214.78 1873.78C2229.56 1859 2249.6 1850.7 2270.5 1850.7C2291.4 1850.7 2311.44 1859 2326.22 1873.78Z" fill="white"/>
<rect x="4" y="777" width="2436" height="1065" fill="url(#paint0_linear)"/>
</g>
<path d="M508.338 232.877H458.46V276.383H515.809V284H449.451V177.359H515.442V185.05H458.46V225.26H508.338V232.877ZM582.825 284C581.946 281.51 581.385 277.823 581.141 272.94C578.064 276.944 574.134 280.045 569.349 282.242C564.612 284.391 559.583 285.465 554.261 285.465C546.644 285.465 540.467 283.341 535.73 279.093C531.043 274.845 528.699 269.474 528.699 262.979C528.699 255.265 531.897 249.161 538.294 244.669C544.739 240.177 553.699 237.931 565.174 237.931H581.067V228.922C581.067 223.258 579.31 218.814 575.794 215.592C572.327 212.32 567.249 210.685 560.56 210.685C554.456 210.685 549.402 212.247 545.398 215.372C541.395 218.497 539.393 222.257 539.393 226.651L530.604 226.578C530.604 220.279 533.533 214.835 539.393 210.245C545.252 205.606 552.454 203.287 560.999 203.287C569.837 203.287 576.795 205.509 581.873 209.952C587 214.347 589.637 220.499 589.783 228.409V265.909C589.783 273.575 590.589 279.312 592.2 283.121V284H582.825ZM555.286 277.701C561.146 277.701 566.37 276.285 570.96 273.453C575.599 270.621 578.968 266.837 581.067 262.101V244.669H565.394C556.653 244.767 549.817 246.378 544.886 249.503C539.954 252.579 537.488 256.827 537.488 262.247C537.488 266.69 539.124 270.377 542.396 273.307C545.716 276.236 550.013 277.701 555.286 277.701ZM660.682 263.858C660.682 259.513 658.924 256.021 655.408 253.385C651.941 250.748 646.692 248.697 639.661 247.232C632.63 245.719 627.161 244.01 623.255 242.105C619.397 240.152 616.517 237.784 614.612 235.001C612.757 232.218 611.829 228.849 611.829 224.894C611.829 218.644 614.441 213.492 619.666 209.439C624.891 205.338 631.58 203.287 639.734 203.287C648.572 203.287 655.652 205.484 660.975 209.879C666.346 214.225 669.031 219.913 669.031 226.944H660.242C660.242 222.306 658.289 218.448 654.383 215.372C650.525 212.296 645.643 210.758 639.734 210.758C633.973 210.758 629.334 212.052 625.818 214.64C622.352 217.179 620.618 220.499 620.618 224.601C620.618 228.556 622.059 231.632 624.939 233.829C627.869 235.978 633.167 237.955 640.833 239.762C648.548 241.568 654.31 243.497 658.118 245.548C661.976 247.599 664.832 250.064 666.688 252.945C668.543 255.826 669.471 259.317 669.471 263.419C669.471 270.108 666.761 275.455 661.341 279.459C655.97 283.463 648.938 285.465 640.247 285.465C631.019 285.465 623.523 283.243 617.762 278.8C612.049 274.308 609.192 268.644 609.192 261.808H617.981C618.323 266.935 620.472 270.938 624.427 273.819C628.431 276.651 633.704 278.067 640.247 278.067C646.351 278.067 651.282 276.725 655.042 274.039C658.802 271.354 660.682 267.96 660.682 263.858ZM714.368 271.402L737.513 204.752H746.961L713.123 297.477L711.365 301.578C707.02 311.197 700.306 316.007 691.224 316.007C689.124 316.007 686.878 315.665 684.485 314.981L684.412 307.73L688.953 308.17C693.25 308.17 696.717 307.096 699.354 304.947C702.039 302.848 704.31 299.21 706.165 294.034L710.047 283.341L680.164 204.752H689.759L714.368 271.402ZM810.682 184.464V204.752H827.088V211.93H810.682V264.737C810.682 269.132 811.463 272.403 813.025 274.552C814.637 276.7 817.298 277.774 821.009 277.774C822.474 277.774 824.842 277.53 828.113 277.042L828.479 284.22C826.185 285.05 823.06 285.465 819.104 285.465C813.099 285.465 808.729 283.731 805.994 280.265C803.26 276.749 801.893 271.598 801.893 264.811V211.93H787.317V204.752H801.893V184.464H810.682ZM838.953 243.204C838.953 235.587 840.418 228.727 843.348 222.623C846.326 216.52 850.501 211.783 855.872 208.414C861.292 204.996 867.42 203.287 874.256 203.287C884.803 203.287 893.348 206.998 899.891 214.42C906.434 221.793 909.705 231.583 909.705 243.79V245.621C909.705 253.287 908.216 260.196 905.237 266.349C902.308 272.452 898.157 277.164 892.786 280.484C887.415 283.805 881.287 285.465 874.402 285.465C863.904 285.465 855.359 281.778 848.768 274.405C842.225 266.983 838.953 257.169 838.953 244.962V243.204ZM847.742 245.621C847.742 255.094 850.184 262.882 855.066 268.985C859.998 275.04 866.443 278.067 874.402 278.067C882.312 278.067 888.709 275.04 893.592 268.985C898.523 262.882 900.989 254.85 900.989 244.889V243.204C900.989 237.149 899.866 231.607 897.62 226.578C895.374 221.549 892.225 217.667 888.172 214.933C884.119 212.149 879.48 210.758 874.256 210.758C866.443 210.758 860.071 213.834 855.14 219.986C850.208 226.09 847.742 234.098 847.742 244.01V245.621ZM1015.32 273.966C1010.05 281.632 1001.62 285.465 990.052 285.465C981.604 285.465 975.184 283.023 970.789 278.141C966.395 273.209 964.148 265.934 964.051 256.314V204.752H972.767V255.216C972.767 270.304 978.87 277.848 991.077 277.848C1003.77 277.848 1011.8 272.599 1015.17 262.101V204.752H1023.96V284H1015.47L1015.32 273.966ZM1094.28 263.858C1094.28 259.513 1092.52 256.021 1089 253.385C1085.54 250.748 1080.29 248.697 1073.25 247.232C1066.22 245.719 1060.75 244.01 1056.85 242.105C1052.99 240.152 1050.11 237.784 1048.21 235.001C1046.35 232.218 1045.42 228.849 1045.42 224.894C1045.42 218.644 1048.04 213.492 1053.26 209.439C1058.48 205.338 1065.17 203.287 1073.33 203.287C1082.17 203.287 1089.25 205.484 1094.57 209.879C1099.94 214.225 1102.62 219.913 1102.62 226.944H1093.84C1093.84 222.306 1091.88 218.448 1087.98 215.372C1084.12 212.296 1079.24 210.758 1073.33 210.758C1067.57 210.758 1062.93 212.052 1059.41 214.64C1055.95 217.179 1054.21 220.499 1054.21 224.601C1054.21 228.556 1055.65 231.632 1058.53 233.829C1061.46 235.978 1066.76 237.955 1074.43 239.762C1082.14 241.568 1087.9 243.497 1091.71 245.548C1095.57 247.599 1098.43 250.064 1100.28 252.945C1102.14 255.826 1103.06 259.317 1103.06 263.419C1103.06 270.108 1100.35 275.455 1094.93 279.459C1089.56 283.463 1082.53 285.465 1073.84 285.465C1064.61 285.465 1057.12 283.243 1051.36 278.8C1045.64 274.308 1042.79 268.644 1042.79 261.808H1051.58C1051.92 266.935 1054.07 270.938 1058.02 273.819C1062.02 276.651 1067.3 278.067 1073.84 278.067C1079.94 278.067 1084.88 276.725 1088.64 274.039C1092.4 271.354 1094.28 267.96 1094.28 263.858ZM1153.53 285.465C1146.79 285.465 1140.69 283.805 1135.22 280.484C1129.8 277.164 1125.57 272.55 1122.55 266.642C1119.52 260.685 1118.01 254.02 1118.01 246.646V243.497C1118.01 235.88 1119.47 229.02 1122.4 222.916C1125.38 216.812 1129.5 212.027 1134.78 208.561C1140.05 205.045 1145.76 203.287 1151.92 203.287C1161.54 203.287 1169.15 206.583 1174.77 213.175C1180.43 219.718 1183.26 228.678 1183.26 240.055V244.962H1126.72V246.646C1126.72 255.631 1129.29 263.126 1134.41 269.132C1139.59 275.089 1146.08 278.067 1153.89 278.067C1158.58 278.067 1162.71 277.213 1166.27 275.504C1169.89 273.795 1173.16 271.061 1176.09 267.301L1181.58 271.476C1175.13 280.802 1165.78 285.465 1153.53 285.465ZM1151.92 210.758C1145.33 210.758 1139.76 213.175 1135.22 218.009C1130.73 222.843 1127.99 229.337 1127.01 237.491H1174.55V236.539C1174.3 228.922 1172.13 222.721 1168.03 217.936C1163.93 213.15 1158.56 210.758 1151.92 210.758ZM1243.1 284V211.93H1229.99V204.752H1243.1V195.157C1243.1 187.052 1245.15 180.826 1249.26 176.48C1253.41 172.135 1259.17 169.962 1266.54 169.962C1269.86 169.962 1272.96 170.377 1275.84 171.207L1275.18 178.531C1272.74 177.945 1270.08 177.652 1267.2 177.652C1262.37 177.652 1258.61 179.166 1255.92 182.193C1253.24 185.172 1251.89 189.42 1251.89 194.938V204.752H1270.79V211.93H1251.89V284H1243.1ZM1281.63 243.204C1281.63 235.587 1283.09 228.727 1286.02 222.623C1289 216.52 1293.18 211.783 1298.55 208.414C1303.97 204.996 1310.1 203.287 1316.93 203.287C1327.48 203.287 1336.02 206.998 1342.57 214.42C1349.11 221.793 1352.38 231.583 1352.38 243.79V245.621C1352.38 253.287 1350.89 260.196 1347.91 266.349C1344.98 272.452 1340.83 277.164 1335.46 280.484C1330.09 283.805 1323.96 285.465 1317.08 285.465C1306.58 285.465 1298.04 281.778 1291.44 274.405C1284.9 266.983 1281.63 257.169 1281.63 244.962V243.204ZM1290.42 245.621C1290.42 255.094 1292.86 262.882 1297.74 268.985C1302.67 275.04 1309.12 278.067 1317.08 278.067C1324.99 278.067 1331.38 275.04 1336.27 268.985C1341.2 262.882 1343.67 254.85 1343.67 244.889V243.204C1343.67 237.149 1342.54 231.607 1340.3 226.578C1338.05 221.549 1334.9 217.667 1330.85 214.933C1326.79 212.149 1322.16 210.758 1316.93 210.758C1309.12 210.758 1302.75 213.834 1297.82 219.986C1292.88 226.09 1290.42 234.098 1290.42 244.01V245.621ZM1407.17 212.223C1405.31 211.881 1403.33 211.71 1401.23 211.71C1395.76 211.71 1391.13 213.248 1387.32 216.324C1383.56 219.352 1380.87 223.771 1379.26 229.581V284H1370.54V204.752H1379.11L1379.26 217.35C1383.9 207.975 1391.35 203.287 1401.6 203.287C1404.04 203.287 1405.97 203.604 1407.39 204.239L1407.17 212.223ZM1429.07 204.752L1429.36 217.643C1432.29 212.857 1435.95 209.269 1440.34 206.876C1444.74 204.483 1449.62 203.287 1454.99 203.287C1467.49 203.287 1475.43 208.414 1478.8 218.668C1481.63 213.736 1485.41 209.952 1490.15 207.315C1494.89 204.63 1500.11 203.287 1505.82 203.287C1522.82 203.287 1531.48 212.564 1531.82 231.119V284H1523.04V231.778C1522.99 224.698 1521.45 219.449 1518.42 216.031C1515.44 212.613 1510.56 210.904 1503.77 210.904C1497.47 211.002 1492.15 213.053 1487.81 217.057C1483.46 221.012 1481.04 225.846 1480.55 231.559V284H1471.77V231.119C1471.72 224.332 1470.11 219.278 1466.93 215.958C1463.81 212.589 1458.97 210.904 1452.43 210.904C1446.91 210.904 1442.18 212.491 1438.22 215.665C1434.27 218.79 1431.34 223.453 1429.43 229.654V284H1420.64V204.752H1429.07ZM1601.55 263.858C1601.55 259.513 1599.79 256.021 1596.28 253.385C1592.81 250.748 1587.56 248.697 1580.53 247.232C1573.5 245.719 1568.03 244.01 1564.12 242.105C1560.27 240.152 1557.39 237.784 1555.48 235.001C1553.63 232.218 1552.7 228.849 1552.7 224.894C1552.7 218.644 1555.31 213.492 1560.54 209.439C1565.76 205.338 1572.45 203.287 1580.6 203.287C1589.44 203.287 1596.52 205.484 1601.84 209.879C1607.21 214.225 1609.9 219.913 1609.9 226.944H1601.11C1601.11 222.306 1599.16 218.448 1595.25 215.372C1591.39 212.296 1586.51 210.758 1580.6 210.758C1574.84 210.758 1570.2 212.052 1566.69 214.64C1563.22 217.179 1561.49 220.499 1561.49 224.601C1561.49 228.556 1562.93 231.632 1565.81 233.829C1568.74 235.978 1574.04 237.955 1581.7 239.762C1589.42 241.568 1595.18 243.497 1598.99 245.548C1602.84 247.599 1605.7 250.064 1607.56 252.945C1609.41 255.826 1610.34 259.317 1610.34 263.419C1610.34 270.108 1607.63 275.455 1602.21 279.459C1596.84 283.463 1589.81 285.465 1581.12 285.465C1571.89 285.465 1564.39 283.243 1558.63 278.8C1552.92 274.308 1550.06 268.644 1550.06 261.808H1558.85C1559.19 266.935 1561.34 270.938 1565.3 273.819C1569.3 276.651 1574.57 278.067 1581.12 278.067C1587.22 278.067 1592.15 276.725 1595.91 274.039C1599.67 271.354 1601.55 267.96 1601.55 263.858ZM1717.57 273.966C1712.29 281.632 1703.87 285.465 1692.3 285.465C1683.85 285.465 1677.43 283.023 1673.04 278.141C1668.64 273.209 1666.39 265.934 1666.3 256.314V204.752H1675.01V255.216C1675.01 270.304 1681.12 277.848 1693.32 277.848C1706.02 277.848 1714.05 272.599 1717.42 262.101V204.752H1726.21V284H1717.71L1717.57 273.966ZM1796.52 263.858C1796.52 259.513 1794.76 256.021 1791.25 253.385C1787.78 250.748 1782.53 248.697 1775.5 247.232C1768.47 245.719 1763 244.01 1759.09 242.105C1755.24 240.152 1752.36 237.784 1750.45 235.001C1748.6 232.218 1747.67 228.849 1747.67 224.894C1747.67 218.644 1750.28 213.492 1755.51 209.439C1760.73 205.338 1767.42 203.287 1775.57 203.287C1784.41 203.287 1791.49 205.484 1796.81 209.879C1802.19 214.225 1804.87 219.913 1804.87 226.944H1796.08C1796.08 222.306 1794.13 218.448 1790.22 215.372C1786.37 212.296 1781.48 210.758 1775.57 210.758C1769.81 210.758 1765.17 212.052 1761.66 214.64C1758.19 217.179 1756.46 220.499 1756.46 224.601C1756.46 228.556 1757.9 231.632 1760.78 233.829C1763.71 235.978 1769.01 237.955 1776.67 239.762C1784.39 241.568 1790.15 243.497 1793.96 245.548C1797.82 247.599 1800.67 250.064 1802.53 252.945C1804.38 255.826 1805.31 259.317 1805.31 263.419C1805.31 270.108 1802.6 275.455 1797.18 279.459C1791.81 283.463 1784.78 285.465 1776.09 285.465C1766.86 285.465 1759.36 283.243 1753.6 278.8C1747.89 274.308 1745.03 268.644 1745.03 261.808H1753.82C1754.16 266.935 1756.31 270.938 1760.27 273.819C1764.27 276.651 1769.54 278.067 1776.09 278.067C1782.19 278.067 1787.12 276.725 1790.88 274.039C1794.64 271.354 1796.52 267.96 1796.52 263.858ZM1834.9 284H1826.11V204.752H1834.9V284ZM1824.57 181.827C1824.57 180.167 1825.11 178.775 1826.18 177.652C1827.26 176.48 1828.72 175.895 1830.58 175.895C1832.43 175.895 1833.9 176.48 1834.97 177.652C1836.1 178.775 1836.66 180.167 1836.66 181.827C1836.66 183.487 1836.1 184.879 1834.97 186.002C1833.9 187.125 1832.43 187.687 1830.58 187.687C1828.72 187.687 1827.26 187.125 1826.18 186.002C1825.11 184.879 1824.57 183.487 1824.57 181.827ZM1867.13 204.752L1867.42 218.302C1870.4 213.419 1874.11 209.708 1878.55 207.169C1883 204.581 1887.9 203.287 1893.27 203.287C1901.77 203.287 1908.09 205.68 1912.24 210.465C1916.39 215.25 1918.49 222.428 1918.54 231.998V284H1909.83V231.925C1909.78 224.845 1908.26 219.571 1905.29 216.104C1902.36 212.638 1897.64 210.904 1891.15 210.904C1885.73 210.904 1880.92 212.613 1876.72 216.031C1872.57 219.4 1869.5 223.966 1867.49 229.728V284H1858.78V204.752H1867.13ZM1937.73 243.644C1937.73 231.241 1940.47 221.427 1945.94 214.2C1951.45 206.925 1958.92 203.287 1968.35 203.287C1979.14 203.287 1987.34 207.584 1992.96 216.178L1993.4 204.752H2001.6V282.389C2001.6 292.594 1998.74 300.675 1993.03 306.632C1987.32 312.589 1979.58 315.567 1969.81 315.567C1964.29 315.567 1959.02 314.322 1953.99 311.832C1949.01 309.391 1945.08 306.119 1942.2 302.018L1947.11 296.744C1953.31 304.361 1960.68 308.17 1969.23 308.17C1976.55 308.17 1982.26 305.997 1986.37 301.651C1990.47 297.354 1992.59 291.373 1992.74 283.707V273.746C1987.12 281.559 1978.94 285.465 1968.2 285.465C1959.02 285.465 1951.65 281.803 1946.08 274.479C1940.52 267.154 1937.73 257.267 1937.73 244.815V243.644ZM1946.59 245.182C1946.59 255.289 1948.62 263.272 1952.67 269.132C1956.73 274.942 1962.44 277.848 1969.81 277.848C1980.6 277.848 1988.25 273.014 1992.74 263.346V226.505C1990.69 221.427 1987.73 217.569 1983.88 214.933C1980.02 212.247 1975.38 210.904 1969.96 210.904C1962.59 210.904 1956.85 213.81 1952.75 219.62C1948.65 225.382 1946.59 233.902 1946.59 245.182Z" fill="black"/>
<g filter="url(#filter1_d)">
<path d="M345.779 588V410.266H398.27C413.976 410.266 427.892 413.765 440.018 420.764C452.225 427.762 461.665 437.691 468.338 450.549C475.011 463.407 478.348 478.137 478.348 494.738V503.649C478.348 520.495 474.97 535.306 468.216 548.083C461.543 560.86 451.98 570.707 439.529 577.624C427.16 584.541 412.959 588 396.927 588H345.779ZM376.663 435.168V563.342H396.805C412.999 563.342 425.41 558.296 434.036 548.205C442.744 538.033 447.179 523.465 447.342 504.504V494.616C447.342 475.329 443.151 460.599 434.769 450.427C426.386 440.254 414.22 435.168 398.27 435.168H376.663ZM537.796 588H508.133V455.92H537.796V588ZM506.302 421.618C506.302 417.061 507.726 413.277 510.574 410.266C513.504 407.255 517.654 405.749 523.025 405.749C528.396 405.749 532.547 407.255 535.477 410.266C538.406 413.277 539.871 417.061 539.871 421.618C539.871 426.094 538.406 429.838 535.477 432.849C532.547 435.778 528.396 437.243 523.025 437.243C517.654 437.243 513.504 435.778 510.574 432.849C507.726 429.838 506.302 426.094 506.302 421.618ZM644.241 552.111C644.241 546.822 642.044 542.793 637.649 540.026C633.336 537.259 626.134 534.818 616.043 532.702C605.952 530.586 597.529 527.901 590.774 524.646C575.963 517.484 568.558 507.108 568.558 493.518C568.558 482.124 573.359 472.603 582.962 464.953C592.565 457.303 604.772 453.479 619.583 453.479C635.371 453.479 648.107 457.385 657.791 465.197C667.557 473.01 672.439 483.142 672.439 495.593H642.776C642.776 489.896 640.66 485.176 636.429 481.433C632.197 477.608 626.582 475.695 619.583 475.695C613.073 475.695 607.742 477.201 603.592 480.212C599.523 483.223 597.488 487.251 597.488 492.297C597.488 496.854 599.401 500.394 603.226 502.917C607.05 505.44 614.782 508.003 626.419 510.607C638.056 513.13 647.171 516.182 653.763 519.763C660.436 523.262 665.359 527.494 668.533 532.458C671.788 537.422 673.416 543.444 673.416 550.524C673.416 562.406 668.493 572.049 658.646 579.455C648.799 586.779 635.9 590.441 619.949 590.441C609.126 590.441 599.482 588.488 591.019 584.582C582.555 580.676 575.963 575.305 571.243 568.469C566.523 561.633 564.163 554.268 564.163 546.374H592.972C593.379 553.373 596.023 558.785 600.906 562.609C605.789 566.353 612.259 568.225 620.315 568.225C628.128 568.225 634.069 566.76 638.138 563.83C642.207 560.819 644.241 556.913 644.241 552.111ZM753.616 566.76C761.022 566.76 767.166 564.603 772.049 560.29C776.932 555.977 779.536 550.646 779.861 544.299H807.815C807.49 552.518 804.926 560.209 800.125 567.37C795.324 574.45 788.813 580.065 780.594 584.216C772.374 588.366 763.504 590.441 753.982 590.441C735.509 590.441 720.861 584.46 710.037 572.497C699.214 560.534 693.802 544.014 693.802 522.937V519.885C693.802 499.784 699.173 483.711 709.915 471.667C720.657 459.541 735.306 453.479 753.86 453.479C769.567 453.479 782.343 458.076 792.19 467.272C802.119 476.387 807.327 488.391 807.815 503.283H779.861C779.536 495.715 776.932 489.489 772.049 484.606C767.247 479.724 761.103 477.282 753.616 477.282C744.013 477.282 736.608 480.782 731.399 487.78C726.191 494.698 723.546 505.236 723.465 519.396V524.157C723.465 538.48 726.028 549.182 731.155 556.262C736.364 563.26 743.851 566.76 753.616 566.76ZM824.661 520.739C824.661 507.8 827.225 496.162 832.352 485.827C837.479 475.41 844.681 467.435 853.958 461.901C863.235 456.286 873.896 453.479 885.94 453.479C903.763 453.479 918.208 459.216 929.275 470.69C940.424 482.165 946.447 497.383 947.342 516.345L947.464 523.303C947.464 536.324 944.941 547.961 939.896 558.215C934.931 568.469 927.77 576.403 918.411 582.019C909.134 587.634 898.392 590.441 886.185 590.441C867.549 590.441 852.615 584.257 841.385 571.887C830.236 559.436 824.661 542.875 824.661 522.204V520.739ZM854.324 523.303C854.324 536.893 857.132 547.554 862.747 555.285C868.362 562.935 876.175 566.76 886.185 566.76C896.194 566.76 903.966 562.854 909.5 555.041C915.115 547.229 917.923 535.795 917.923 520.739C917.923 507.393 915.034 496.813 909.256 489.001C903.559 481.188 895.787 477.282 885.94 477.282C876.256 477.282 868.566 481.148 862.869 488.879C857.173 496.529 854.324 508.003 854.324 523.303ZM1041.7 483.02C1037.8 482.368 1033.77 482.043 1029.62 482.043C1016.03 482.043 1006.87 487.251 1002.15 497.668V588H972.488V455.92H1000.81L1001.54 470.69C1008.7 459.216 1018.63 453.479 1031.33 453.479C1035.56 453.479 1039.06 454.048 1041.82 455.188L1041.7 483.02ZM1052.44 520.983C1052.44 500.638 1057.16 484.322 1066.6 472.033C1076.04 459.663 1088.7 453.479 1104.57 453.479C1118.57 453.479 1129.88 458.361 1138.5 468.127V400.5H1168.17V588H1141.31L1139.85 574.328C1130.98 585.07 1119.14 590.441 1104.32 590.441C1088.86 590.441 1076.33 584.216 1066.73 571.765C1057.21 559.313 1052.44 542.386 1052.44 520.983ZM1082.11 523.547C1082.11 536.975 1084.67 547.473 1089.8 555.041C1095.01 562.528 1102.37 566.271 1111.89 566.271C1124.02 566.271 1132.89 560.86 1138.5 550.036V493.64C1133.05 483.06 1124.26 477.771 1112.14 477.771C1102.53 477.771 1095.13 481.595 1089.92 489.245C1084.71 496.813 1082.11 508.247 1082.11 523.547ZM1264.24 588V410.266H1325.15C1345.25 410.266 1360.55 414.294 1371.05 422.351C1381.55 430.407 1386.79 442.411 1386.79 458.361C1386.79 466.499 1384.6 473.824 1380.2 480.334C1375.81 486.844 1369.38 491.89 1360.92 495.471C1370.52 498.075 1377.92 502.998 1383.13 510.241C1388.42 517.403 1391.07 526.029 1391.07 536.12C1391.07 552.803 1385.7 565.62 1374.95 574.572C1364.29 583.524 1348.99 588 1329.06 588H1264.24ZM1295.12 507.8V563.342H1329.42C1339.11 563.342 1346.67 560.941 1352.13 556.14C1357.58 551.338 1360.31 544.665 1360.31 536.12C1360.31 517.647 1350.87 508.207 1331.99 507.8H1295.12ZM1295.12 485.095H1325.39C1335 485.095 1342.48 482.938 1347.85 478.625C1353.31 474.23 1356.03 468.046 1356.03 460.07C1356.03 451.281 1353.51 444.934 1348.46 441.027C1343.5 437.121 1335.73 435.168 1325.15 435.168H1295.12V485.095ZM1499.1 575.061C1490.39 585.314 1478.02 590.441 1461.99 590.441C1447.67 590.441 1436.8 586.25 1429.4 577.868C1422.07 569.486 1418.41 557.36 1418.41 541.491V455.92H1448.07V541.125C1448.07 557.889 1455.03 566.271 1468.95 566.271C1483.35 566.271 1493.08 561.104 1498.12 550.769V455.92H1527.79V588H1499.83L1499.1 575.061ZM1595.17 423.815V455.92H1618.48V477.893H1595.17V551.623C1595.17 556.669 1596.15 560.331 1598.1 562.609C1600.13 564.807 1603.71 565.905 1608.84 565.905C1612.26 565.905 1615.72 565.498 1619.22 564.685V587.634C1612.46 589.506 1605.95 590.441 1599.69 590.441C1576.9 590.441 1565.51 577.868 1565.51 552.722V477.893H1543.78V455.92H1565.51V423.815H1595.17ZM1678.42 423.815V455.92H1701.74V477.893H1678.42V551.623C1678.42 556.669 1679.4 560.331 1681.35 562.609C1683.39 564.807 1686.97 565.905 1692.09 565.905C1695.51 565.905 1698.97 565.498 1702.47 564.685V587.634C1695.71 589.506 1689.2 590.441 1682.94 590.441C1660.15 590.441 1648.76 577.868 1648.76 552.722V477.893H1627.03V455.92H1648.76V423.815H1678.42ZM1715.29 520.739C1715.29 507.8 1717.85 496.162 1722.98 485.827C1728.1 475.41 1735.31 467.435 1744.58 461.901C1753.86 456.286 1764.52 453.479 1776.57 453.479C1794.39 453.479 1808.83 459.216 1819.9 470.69C1831.05 482.165 1837.07 497.383 1837.97 516.345L1838.09 523.303C1838.09 536.324 1835.57 547.961 1830.52 558.215C1825.56 568.469 1818.39 576.403 1809.04 582.019C1799.76 587.634 1789.02 590.441 1776.81 590.441C1758.17 590.441 1743.24 584.257 1732.01 571.887C1720.86 559.436 1715.29 542.875 1715.29 522.204V520.739ZM1744.95 523.303C1744.95 536.893 1747.76 547.554 1753.37 555.285C1758.99 562.935 1766.8 566.76 1776.81 566.76C1786.82 566.76 1794.59 562.854 1800.12 555.041C1805.74 547.229 1808.55 535.795 1808.55 520.739C1808.55 507.393 1805.66 496.813 1799.88 489.001C1794.18 481.188 1786.41 477.282 1776.57 477.282C1766.88 477.282 1759.19 481.148 1753.49 488.879C1747.8 496.529 1744.95 508.003 1744.95 523.303ZM1890.7 455.92L1891.56 471.179C1901.32 459.379 1914.14 453.479 1930.01 453.479C1957.51 453.479 1971.51 469.226 1972 500.72V588H1942.34V502.429C1942.34 494.047 1940.51 487.862 1936.84 483.874C1933.26 479.805 1927.36 477.771 1919.14 477.771C1907.18 477.771 1898.27 483.182 1892.41 494.006V588H1862.75V455.92H1890.7ZM2076.37 552.111C2076.37 546.822 2074.17 542.793 2069.78 540.026C2065.47 537.259 2058.26 534.818 2048.17 532.702C2038.08 530.586 2029.66 527.901 2022.9 524.646C2008.09 517.484 2000.69 507.108 2000.69 493.518C2000.69 482.124 2005.49 472.603 2015.09 464.953C2024.69 457.303 2036.9 453.479 2051.71 453.479C2067.5 453.479 2080.24 457.385 2089.92 465.197C2099.69 473.01 2104.57 483.142 2104.57 495.593H2074.91C2074.91 489.896 2072.79 485.176 2068.56 481.433C2064.33 477.608 2058.71 475.695 2051.71 475.695C2045.2 475.695 2039.87 477.201 2035.72 480.212C2031.65 483.223 2029.62 487.251 2029.62 492.297C2029.62 496.854 2031.53 500.394 2035.35 502.917C2039.18 505.44 2046.91 508.003 2058.55 510.607C2070.19 513.13 2079.3 516.182 2085.89 519.763C2092.56 523.262 2097.49 527.494 2100.66 532.458C2103.92 537.422 2105.54 543.444 2105.54 550.524C2105.54 562.406 2100.62 572.049 2090.77 579.455C2080.93 586.779 2068.03 590.441 2052.08 590.441C2041.25 590.441 2031.61 588.488 2023.15 584.582C2014.68 580.676 2008.09 575.305 2003.37 568.469C1998.65 561.633 1996.29 554.268 1996.29 546.374H2025.1C2025.51 553.373 2028.15 558.785 2033.04 562.609C2037.92 566.353 2044.39 568.225 2052.44 568.225C2060.26 568.225 2066.2 566.76 2070.27 563.83C2074.34 560.819 2076.37 556.913 2076.37 552.111Z" fill="#F2D478"/>
</g>
<defs>
<filter id="filter0_bd" x="-46" y="-50" width="2536" height="1942" filterUnits="userSpaceOnUse" color-interpolation-filters="sRGB">
<feFlood flood-opacity="0" result="BackgroundImageFix"/>
<feGaussianBlur in="BackgroundImage" stdDeviation="25"/>
<feComposite in2="SourceAlpha" operator="in" result="effect1_backgroundBlur"/>
<feColorMatrix in="SourceAlpha" type="matrix" values="0 0 0 0 0 0 0 0 0 0 0 0 0 0 0 0 0 0 127 0" result="hardAlpha"/>
<feOffset dy="4"/>
<feGaussianBlur stdDeviation="2"/>
<feComposite in2="hardAlpha" operator="out"/>
<feColorMatrix type="matrix" values="0 0 0 0 0 0 0 0 0 0 0 0 0 0 0 0 0 0 0.25 0"/>
<feBlend mode="normal" in2="effect1_backgroundBlur" result="effect2_dropShadow"/>
<feBlend mode="normal" in="SourceGraphic" in2="effect2_dropShadow" result="shape"/>
</filter>
<filter id="filter1_d" x="315.779" y="370.5" width="1819.77" height="249.941" filterUnits="userSpaceOnUse" color-interpolation-filters="sRGB">
<feFlood flood-opacity="0" result="BackgroundImageFix"/>
<feColorMatrix in="SourceAlpha" type="matrix" values="0 0 0 0 0 0 0 0 0 0 0 0 0 0 0 0 0 0 127 0" result="hardAlpha"/>
<feOffset/>
<feGaussianBlur stdDeviation="15"/>
<feComposite in2="hardAlpha" operator="out"/>
<feColorMatrix type="matrix" values="0 0 0 0 0.258824 0 0 0 0 0.258824 0 0 0 0 0.258824 0 0 0 0.75 0"/>
<feBlend mode="normal" in2="BackgroundImageFix" result="effect1_dropShadow"/>
<feBlend mode="normal" in="SourceGraphic" in2="effect1_dropShadow" result="shape"/>
</filter>
<linearGradient id="paint0_linear" x1="1222" y1="777" x2="1222" y2="1842" gradientUnits="userSpaceOnUse">
<stop stop-color="white" stop-opacity="0"/>
<stop offset="1" stop-color="white"/>
</linearGradient>
</defs>
</svg>
