<svg width="1843" height="912" viewBox="0 0 1843 912" fill="none" xmlns="http://www.w3.org/2000/svg">
<g filter="url(#filter0_bd)">
<rect x="4" y="2" width="1835" height="894" rx="100" fill="white" fill-opacity="0.65" shape-rendering="crispEdges"/>
</g>
<path d="M292.469 558H286.463V486.906H292.469V558ZM316.004 505.168L316.199 514.201C318.185 510.946 320.659 508.472 323.621 506.779C326.583 505.054 329.855 504.191 333.436 504.191C339.1 504.191 343.315 505.786 346.082 508.977C348.849 512.167 350.249 516.952 350.281 523.332V558H344.471V523.283C344.438 518.563 343.429 515.048 341.443 512.736C339.49 510.425 336.349 509.27 332.02 509.27C328.406 509.27 325.2 510.409 322.4 512.688C319.633 514.934 317.583 517.977 316.248 521.818V558H310.438V505.168H316.004ZM423.084 558C422.498 556.34 422.124 553.882 421.961 550.627C419.91 553.296 417.29 555.363 414.1 556.828C410.942 558.26 407.589 558.977 404.041 558.977C398.963 558.977 394.845 557.561 391.688 554.729C388.562 551.896 387 548.316 387 543.986C387 538.843 389.132 534.774 393.396 531.779C397.693 528.785 403.667 527.287 411.316 527.287H421.912V521.281C421.912 517.505 420.74 514.543 418.396 512.395C416.085 510.214 412.7 509.123 408.24 509.123C404.171 509.123 400.802 510.165 398.133 512.248C395.464 514.331 394.129 516.838 394.129 519.768L388.27 519.719C388.27 515.52 390.223 511.89 394.129 508.83C398.035 505.738 402.837 504.191 408.533 504.191C414.425 504.191 419.064 505.673 422.449 508.635C425.867 511.564 427.625 515.666 427.723 520.939V545.939C427.723 551.05 428.26 554.875 429.334 557.414V558H423.084ZM404.725 553.801C408.631 553.801 412.114 552.857 415.174 550.969C418.266 549.081 420.512 546.558 421.912 543.4V531.779H411.463C405.636 531.844 401.079 532.919 397.791 535.002C394.503 537.053 392.859 539.885 392.859 543.498C392.859 546.46 393.95 548.918 396.131 550.871C398.344 552.824 401.209 553.801 404.725 553.801ZM471.863 558V509.953H463.123V505.168H471.863V498.771C471.863 493.368 473.23 489.217 475.965 486.32C478.732 483.423 482.573 481.975 487.488 481.975C489.702 481.975 491.769 482.251 493.689 482.805L493.25 487.688C491.622 487.297 489.848 487.102 487.928 487.102C484.705 487.102 482.199 488.111 480.408 490.129C478.618 492.115 477.723 494.947 477.723 498.625V505.168H490.32V509.953H477.723V558H471.863ZM497.547 530.803C497.547 525.725 498.523 521.151 500.477 517.082C502.462 513.013 505.245 509.855 508.826 507.609C512.439 505.331 516.525 504.191 521.082 504.191C528.113 504.191 533.81 506.665 538.172 511.613C542.534 516.529 544.715 523.055 544.715 531.193V532.414C544.715 537.525 543.722 542.131 541.736 546.232C539.783 550.301 537.016 553.443 533.436 555.656C529.855 557.87 525.77 558.977 521.18 558.977C514.181 558.977 508.484 556.519 504.09 551.604C499.728 546.656 497.547 540.113 497.547 531.975V530.803ZM503.406 532.414C503.406 538.729 505.034 543.921 508.289 547.99C511.577 552.027 515.874 554.045 521.18 554.045C526.453 554.045 530.717 552.027 533.973 547.99C537.26 543.921 538.904 538.566 538.904 531.926V530.803C538.904 526.766 538.156 523.072 536.658 519.719C535.161 516.366 533.061 513.778 530.359 511.955C527.658 510.1 524.565 509.172 521.082 509.172C515.874 509.172 511.626 511.223 508.338 515.324C505.05 519.393 503.406 524.732 503.406 531.34V532.414ZM581.238 510.148C580.001 509.921 578.683 509.807 577.283 509.807C573.637 509.807 570.545 510.832 568.006 512.883C565.499 514.901 563.709 517.847 562.635 521.721V558H556.824V505.168H562.537L562.635 513.566C565.727 507.316 570.691 504.191 577.527 504.191C579.155 504.191 580.441 504.403 581.385 504.826L581.238 510.148ZM595.838 505.168L596.033 513.762C597.986 510.572 600.428 508.179 603.357 506.584C606.287 504.989 609.542 504.191 613.123 504.191C621.456 504.191 626.746 507.609 628.992 514.445C630.88 511.158 633.403 508.635 636.561 506.877C639.718 505.087 643.201 504.191 647.01 504.191C658.338 504.191 664.116 510.376 664.344 522.746V558H658.484V523.186C658.452 518.465 657.426 514.966 655.408 512.688C653.423 510.409 650.167 509.27 645.643 509.27C641.443 509.335 637.895 510.702 634.998 513.371C632.101 516.008 630.49 519.23 630.164 523.039V558H624.305V522.746C624.272 518.221 623.198 514.852 621.082 512.639C618.999 510.393 615.776 509.27 611.414 509.27C607.736 509.27 604.578 510.327 601.941 512.443C599.305 514.527 597.352 517.635 596.082 521.77V558H590.223V505.168H595.838ZM712.537 558C711.951 556.34 711.577 553.882 711.414 550.627C709.363 553.296 706.743 555.363 703.553 556.828C700.395 558.26 697.042 558.977 693.494 558.977C688.416 558.977 684.298 557.561 681.141 554.729C678.016 551.896 676.453 548.316 676.453 543.986C676.453 538.843 678.585 534.774 682.85 531.779C687.146 528.785 693.12 527.287 700.77 527.287H711.365V521.281C711.365 517.505 710.193 514.543 707.85 512.395C705.538 510.214 702.153 509.123 697.693 509.123C693.624 509.123 690.255 510.165 687.586 512.248C684.917 514.331 683.582 516.838 683.582 519.768L677.723 519.719C677.723 515.52 679.676 511.89 683.582 508.83C687.488 505.738 692.29 504.191 697.986 504.191C703.878 504.191 708.517 505.673 711.902 508.635C715.32 511.564 717.078 515.666 717.176 520.939V545.939C717.176 551.05 717.713 554.875 718.787 557.414V558H712.537ZM694.178 553.801C698.084 553.801 701.567 552.857 704.627 550.969C707.719 549.081 709.965 546.558 711.365 543.4V531.779H700.916C695.089 531.844 690.532 532.919 687.244 535.002C683.956 537.053 682.312 539.885 682.312 543.498C682.312 546.46 683.403 548.918 685.584 550.871C687.798 552.824 690.662 553.801 694.178 553.801ZM741.883 491.643V505.168H752.82V509.953H741.883V545.158C741.883 548.088 742.404 550.269 743.445 551.701C744.52 553.133 746.294 553.85 748.768 553.85C749.744 553.85 751.323 553.687 753.504 553.361L753.748 558.146C752.218 558.7 750.135 558.977 747.498 558.977C743.494 558.977 740.581 557.821 738.758 555.51C736.935 553.166 736.023 549.732 736.023 545.207V509.953H726.307V505.168H736.023V491.643H741.883ZM798.328 491.643V505.168H809.266V509.953H798.328V545.158C798.328 548.088 798.849 550.269 799.891 551.701C800.965 553.133 802.739 553.85 805.213 553.85C806.189 553.85 807.768 553.687 809.949 553.361L810.193 558.146C808.663 558.7 806.58 558.977 803.943 558.977C799.939 558.977 797.026 557.821 795.203 555.51C793.38 553.166 792.469 549.732 792.469 545.207V509.953H782.752V505.168H792.469V491.643H798.328ZM827.186 514.104C829.106 510.946 831.564 508.505 834.559 506.779C837.553 505.054 840.825 504.191 844.373 504.191C850.037 504.191 854.253 505.786 857.02 508.977C859.786 512.167 861.186 516.952 861.219 523.332V558H855.408V523.283C855.376 518.563 854.367 515.048 852.381 512.736C850.428 510.425 847.286 509.27 842.957 509.27C839.344 509.27 836.137 510.409 833.338 512.688C830.571 514.934 828.52 517.977 827.186 521.818V558H821.375V483H827.186V514.104ZM909.607 558C909.021 556.34 908.647 553.882 908.484 550.627C906.434 553.296 903.813 555.363 900.623 556.828C897.465 558.26 894.113 558.977 890.564 558.977C885.486 558.977 881.368 557.561 878.211 554.729C875.086 551.896 873.523 548.316 873.523 543.986C873.523 538.843 875.656 534.774 879.92 531.779C884.217 528.785 890.19 527.287 897.84 527.287H908.436V521.281C908.436 517.505 907.264 514.543 904.92 512.395C902.609 510.214 899.223 509.123 894.764 509.123C890.695 509.123 887.326 510.165 884.656 512.248C881.987 514.331 880.652 516.838 880.652 519.768L874.793 519.719C874.793 515.52 876.746 511.89 880.652 508.83C884.559 505.738 889.36 504.191 895.057 504.191C900.949 504.191 905.587 505.673 908.973 508.635C912.391 511.564 914.148 515.666 914.246 520.939V545.939C914.246 551.05 914.783 554.875 915.857 557.414V558H909.607ZM891.248 553.801C895.154 553.801 898.637 552.857 901.697 550.969C904.79 549.081 907.036 546.558 908.436 543.4V531.779H897.986C892.16 531.844 887.602 532.919 884.314 535.002C881.027 537.053 879.383 539.885 879.383 543.498C879.383 546.46 880.473 548.918 882.654 550.871C884.868 552.824 887.732 553.801 891.248 553.801ZM938.953 491.643V505.168H949.891V509.953H938.953V545.158C938.953 548.088 939.474 550.269 940.516 551.701C941.59 553.133 943.364 553.85 945.838 553.85C946.814 553.85 948.393 553.687 950.574 553.361L950.818 558.146C949.288 558.7 947.205 558.977 944.568 558.977C940.564 558.977 937.651 557.821 935.828 555.51C934.005 553.166 933.094 549.732 933.094 545.207V509.953H923.377V505.168H933.094V491.643H938.953ZM998.963 545.842L999.842 550.383L1001.01 545.598L1013.71 505.168H1018.69L1031.24 545.256L1032.61 550.822L1033.73 545.695L1044.57 505.168H1050.62L1035.24 558H1030.26L1016.69 516.105L1016.05 513.225L1015.42 516.154L1002.09 558H997.107L981.775 505.168H987.781L998.963 545.842ZM1058.48 530.803C1058.48 525.725 1059.46 521.151 1061.41 517.082C1063.4 513.013 1066.18 509.855 1069.76 507.609C1073.38 505.331 1077.46 504.191 1082.02 504.191C1089.05 504.191 1094.75 506.665 1099.11 511.613C1103.47 516.529 1105.65 523.055 1105.65 531.193V532.414C1105.65 537.525 1104.66 542.131 1102.67 546.232C1100.72 550.301 1097.95 553.443 1094.37 555.656C1090.79 557.87 1086.71 558.977 1082.12 558.977C1075.12 558.977 1069.42 556.519 1065.03 551.604C1060.67 546.656 1058.48 540.113 1058.48 531.975V530.803ZM1064.34 532.414C1064.34 538.729 1065.97 543.921 1069.23 547.99C1072.51 552.027 1076.81 554.045 1082.12 554.045C1087.39 554.045 1091.65 552.027 1094.91 547.99C1098.2 543.921 1099.84 538.566 1099.84 531.926V530.803C1099.84 526.766 1099.09 523.072 1097.6 519.719C1096.1 516.366 1094 513.778 1091.3 511.955C1088.6 510.1 1085.5 509.172 1082.02 509.172C1076.81 509.172 1072.56 511.223 1069.28 515.324C1065.99 519.393 1064.34 524.732 1064.34 531.34V532.414ZM1142.18 510.148C1140.94 509.921 1139.62 509.807 1138.22 509.807C1134.57 509.807 1131.48 510.832 1128.94 512.883C1126.44 514.901 1124.65 517.847 1123.57 521.721V558H1117.76V505.168H1123.47L1123.57 513.566C1126.66 507.316 1131.63 504.191 1138.46 504.191C1140.09 504.191 1141.38 504.403 1142.32 504.826L1142.18 510.148ZM1164 531.389L1157.31 537.834V558H1151.45V483H1157.31V530.998L1162.83 525.041L1183.04 505.168H1190.42L1168.01 527.434L1192.37 558H1185.39L1164 531.389ZM1232.12 544.572C1232.12 541.675 1230.95 539.348 1228.6 537.59C1226.29 535.832 1222.79 534.465 1218.1 533.488C1213.42 532.479 1209.77 531.34 1207.17 530.07C1204.59 528.768 1202.67 527.189 1201.4 525.334C1200.17 523.479 1199.55 521.232 1199.55 518.596C1199.55 514.429 1201.29 510.995 1204.77 508.293C1208.26 505.559 1212.72 504.191 1218.15 504.191C1224.04 504.191 1228.76 505.656 1232.31 508.586C1235.89 511.483 1237.68 515.275 1237.68 519.963H1231.82C1231.82 516.87 1230.52 514.299 1227.92 512.248C1225.35 510.197 1222.09 509.172 1218.15 509.172C1214.31 509.172 1211.22 510.035 1208.88 511.76C1206.56 513.452 1205.41 515.666 1205.41 518.4C1205.41 521.037 1206.37 523.088 1208.29 524.553C1210.24 525.985 1213.77 527.303 1218.88 528.508C1224.03 529.712 1227.87 530.998 1230.41 532.365C1232.98 533.732 1234.88 535.376 1236.12 537.297C1237.36 539.217 1237.98 541.545 1237.98 544.279C1237.98 548.739 1236.17 552.303 1232.56 554.973C1228.98 557.642 1224.29 558.977 1218.49 558.977C1212.34 558.977 1207.35 557.495 1203.5 554.533C1199.7 551.538 1197.79 547.762 1197.79 543.205H1203.65C1203.88 546.623 1205.31 549.292 1207.95 551.213C1210.62 553.101 1214.13 554.045 1218.49 554.045C1222.56 554.045 1225.85 553.15 1228.36 551.359C1230.86 549.569 1232.12 547.307 1232.12 544.572ZM1279.68 558V509.953H1270.94V505.168H1279.68V498.771C1279.68 493.368 1281.04 489.217 1283.78 486.32C1286.54 483.423 1290.39 481.975 1295.3 481.975C1297.51 481.975 1299.58 482.251 1301.5 482.805L1301.06 487.688C1299.43 487.297 1297.66 487.102 1295.74 487.102C1292.52 487.102 1290.01 488.111 1288.22 490.129C1286.43 492.115 1285.54 494.947 1285.54 498.625V505.168H1298.13V509.953H1285.54V558H1279.68ZM1305.36 530.803C1305.36 525.725 1306.34 521.151 1308.29 517.082C1310.27 513.013 1313.06 509.855 1316.64 507.609C1320.25 505.331 1324.34 504.191 1328.89 504.191C1335.93 504.191 1341.62 506.665 1345.98 511.613C1350.35 516.529 1352.53 523.055 1352.53 531.193V532.414C1352.53 537.525 1351.53 542.131 1349.55 546.232C1347.6 550.301 1344.83 553.443 1341.25 555.656C1337.67 557.87 1333.58 558.977 1328.99 558.977C1321.99 558.977 1316.3 556.519 1311.9 551.604C1307.54 546.656 1305.36 540.113 1305.36 531.975V530.803ZM1311.22 532.414C1311.22 538.729 1312.85 543.921 1316.1 547.99C1319.39 552.027 1323.69 554.045 1328.99 554.045C1334.27 554.045 1338.53 552.027 1341.79 547.99C1345.07 543.921 1346.72 538.566 1346.72 531.926V530.803C1346.72 526.766 1345.97 523.072 1344.47 519.719C1342.97 516.366 1340.87 513.778 1338.17 511.955C1335.47 510.1 1332.38 509.172 1328.89 509.172C1323.69 509.172 1319.44 511.223 1316.15 515.324C1312.86 519.393 1311.22 524.732 1311.22 531.34V532.414ZM1389.05 510.148C1387.81 509.921 1386.5 509.807 1385.1 509.807C1381.45 509.807 1378.36 510.832 1375.82 512.883C1373.31 514.901 1371.52 517.847 1370.45 521.721V558H1364.64V505.168H1370.35L1370.45 513.566C1373.54 507.316 1378.5 504.191 1385.34 504.191C1386.97 504.191 1388.25 504.403 1389.2 504.826L1389.05 510.148ZM1439.39 549.602L1454.82 505.168H1461.12L1438.56 566.984L1437.39 569.719C1434.49 576.132 1430.02 579.338 1423.96 579.338C1422.56 579.338 1421.07 579.11 1419.47 578.654L1419.42 573.82L1422.45 574.113C1425.31 574.113 1427.62 573.397 1429.38 571.965C1431.17 570.565 1432.69 568.14 1433.92 564.689L1436.51 557.561L1416.59 505.168H1422.99L1439.39 549.602ZM1466.2 530.803C1466.2 525.725 1467.18 521.151 1469.13 517.082C1471.11 513.013 1473.9 509.855 1477.48 507.609C1481.09 505.331 1485.18 504.191 1489.73 504.191C1496.77 504.191 1502.46 506.665 1506.82 511.613C1511.19 516.529 1513.37 523.055 1513.37 531.193V532.414C1513.37 537.525 1512.37 542.131 1510.39 546.232C1508.44 550.301 1505.67 553.443 1502.09 555.656C1498.51 557.87 1494.42 558.977 1489.83 558.977C1482.83 558.977 1477.14 556.519 1472.74 551.604C1468.38 546.656 1466.2 540.113 1466.2 531.975V530.803ZM1472.06 532.414C1472.06 538.729 1473.69 543.921 1476.94 547.99C1480.23 552.027 1484.53 554.045 1489.83 554.045C1495.11 554.045 1499.37 552.027 1502.62 547.99C1505.91 543.921 1507.56 538.566 1507.56 531.926V530.803C1507.56 526.766 1506.81 523.072 1505.31 519.719C1503.81 516.366 1501.71 513.778 1499.01 511.955C1496.31 510.1 1493.22 509.172 1489.73 509.172C1484.53 509.172 1480.28 511.223 1476.99 515.324C1473.7 519.393 1472.06 524.732 1472.06 531.34V532.414ZM1559.46 551.311C1555.95 556.421 1550.33 558.977 1542.62 558.977C1536.98 558.977 1532.7 557.349 1529.77 554.094C1526.84 550.806 1525.35 545.956 1525.28 539.543V505.168H1531.09V538.811C1531.09 548.869 1535.16 553.898 1543.3 553.898C1551.76 553.898 1557.12 550.399 1559.36 543.4V505.168H1565.22V558H1559.56L1559.46 551.311Z" fill="black"/>
<g filter="url(#filter1_d)">
<circle cx="467.003" cy="728.003" r="133.003" fill="#D46899" fill-opacity="0.75"/>
<path d="M382.516 719.519C388.578 719.519 392.994 717.674 395.761 713.984C398.661 710.161 400.111 705.68 400.111 700.54V671.478C400.111 665.284 400.704 659.814 401.89 655.069C403.076 650.193 405.185 646.173 408.216 643.01C411.248 639.715 415.465 637.277 420.869 635.695C426.273 633.982 433.192 633.125 441.627 633.125H443.011V652.104C439.189 652.104 435.96 652.368 433.324 652.895C430.688 653.422 428.579 654.411 426.998 655.86C425.416 657.178 424.23 659.023 423.439 661.396C422.78 663.636 422.451 666.536 422.451 670.095V698.365C422.451 706.273 421.396 712.6 419.287 717.344C417.31 721.957 413.884 725.78 409.007 728.811C413.884 731.842 417.31 735.73 419.287 740.475C421.396 745.22 422.451 751.48 422.451 759.256V787.725C422.451 791.284 422.78 794.183 423.439 796.424C424.23 798.664 425.416 800.444 426.998 801.762C428.579 803.211 430.688 804.2 433.324 804.727C435.96 805.254 439.189 805.518 443.011 805.518V824.497C434.181 824.497 426.998 823.706 421.462 822.124C415.927 820.543 411.577 818.105 408.414 814.81C405.251 811.646 403.076 807.692 401.89 802.948C400.704 798.203 400.111 792.667 400.111 786.341V757.082C400.111 752.073 398.661 747.724 395.761 744.034C392.994 740.212 388.578 738.3 382.516 738.3V719.519Z" fill="white"/>
<path d="M551.558 738.3C545.496 738.3 541.014 740.212 538.115 744.034C535.347 747.724 533.963 752.073 533.963 757.082V786.341C533.963 792.667 533.37 798.203 532.184 802.948C530.998 807.692 528.823 811.646 525.66 814.81C522.497 818.105 518.147 820.543 512.612 822.124C507.076 823.706 499.893 824.497 491.063 824.497V805.518C498.707 805.518 504.045 804.266 507.076 801.762C510.108 799.389 511.623 794.71 511.623 787.725V759.256C511.623 751.48 512.612 745.22 514.589 740.475C516.698 735.73 520.19 731.842 525.067 728.811C520.19 725.78 516.698 721.957 514.589 717.344C512.612 712.6 511.623 706.273 511.623 698.365V670.095C511.623 666.536 511.228 663.636 510.437 661.396C509.778 659.023 508.658 657.178 507.076 655.86C505.495 654.411 503.386 653.422 500.75 652.895C498.114 652.368 494.885 652.104 491.063 652.104V633.125H492.447C500.882 633.125 507.801 633.982 513.205 635.695C518.609 637.277 522.826 639.715 525.858 643.01C528.889 646.173 530.998 650.193 532.184 655.069C533.37 659.814 533.963 665.284 533.963 671.478V700.54C533.963 705.68 535.347 710.161 538.115 713.984C541.014 717.674 545.496 719.519 551.558 719.519V738.3Z" fill="white"/>
<circle cx="772.001" cy="728.003" r="133.003" fill="#D46899" fill-opacity="0.75"/>
<path d="M712.149 700.099L729.188 673.849H748.684L722.28 711.765C727.807 718.929 733.077 726.195 738.092 733.563C743.209 740.829 747.405 747.686 750.679 754.133H730.57C729.649 752.189 728.421 749.989 726.886 747.533C725.453 744.974 723.867 742.364 722.127 739.704C720.489 736.94 718.75 734.228 716.908 731.568C715.066 728.907 713.275 726.4 711.535 724.046C707.953 728.651 704.422 733.768 700.943 739.397C697.566 744.923 694.751 749.835 692.5 754.133H673.465C675 751.063 676.842 747.788 678.991 744.309C681.14 740.829 683.443 737.299 685.899 733.717C688.355 730.033 690.862 726.4 693.421 722.818C696.082 719.134 698.691 715.654 701.25 712.379L674.693 673.849H695.109L712.149 700.099Z" fill="white"/>
<path d="M783.729 733.717C783.934 735.457 784.036 736.736 784.036 737.554C784.036 738.373 784.036 739.192 784.036 740.011C784.036 746.356 783.013 752.905 780.966 759.66C779.022 766.414 776.259 772.81 772.677 778.848L758.093 774.857C760.55 768.921 762.187 763.088 763.006 757.357C763.927 751.728 764.387 746.765 764.387 742.467C764.387 741.239 764.336 739.704 764.234 737.862C764.234 736.019 764.183 734.638 764.08 733.717H783.729Z" fill="white"/>
<path d="M871.164 673.849C862.875 704.346 853.255 731.977 842.305 756.743C840.258 761.348 838.16 765.288 836.011 768.563C833.862 771.838 831.457 774.55 828.796 776.699C826.135 778.848 823.167 780.383 819.892 781.304C816.618 782.328 812.831 782.839 808.533 782.839C805.667 782.839 802.802 782.532 799.936 781.918C797.173 781.304 795.075 780.639 793.643 779.923L797.02 765.032C800.704 766.465 804.337 767.182 807.919 767.182C812.729 767.182 816.464 766.005 819.125 763.651C821.888 761.399 824.293 757.869 826.34 753.059C820.506 741.802 814.878 729.521 809.454 716.217C804.132 702.913 799.373 688.79 795.178 673.849H814.98C816.004 678.147 817.232 682.803 818.664 687.818C820.199 692.832 821.837 697.949 823.577 703.169C825.316 708.286 827.158 713.403 829.103 718.519C831.047 723.636 832.992 728.395 834.936 732.796C838.211 723.688 841.281 714.017 844.147 703.783C847.012 693.447 849.622 683.468 851.976 673.849H871.164Z" fill="white"/>
<circle cx="1077" cy="728.003" r="133.003" fill="#D46899" fill-opacity="0.75"/>
<path d="M965.803 722.538L1031.96 694.6L1037.03 709.797L985.605 730.367L1037.03 750.937L1031.96 766.134L965.803 738.196V722.538Z" fill="white"/>
<path d="M1059.96 802.516H1040.92L1092.81 653.92H1111.54L1059.96 802.516Z" fill="white"/>
<path d="M1188.14 738.196L1121.98 766.134L1116.91 750.937L1168.34 730.367L1116.91 709.797L1121.98 694.6L1188.14 722.538V738.196Z" fill="white"/>
<circle cx="1382" cy="728.003" r="133.003" fill="#D46899" fill-opacity="0.75"/>
<path d="M1286.95 772.353C1286.95 775.764 1285.78 778.541 1283.44 780.685C1281.2 782.828 1278.47 783.9 1275.26 783.9C1271.94 783.9 1269.17 782.828 1266.92 780.685C1264.68 778.541 1263.56 775.764 1263.56 772.353C1263.56 768.943 1264.68 766.165 1266.92 764.022C1269.17 761.781 1271.94 760.66 1275.26 760.66C1278.47 760.66 1281.2 761.781 1283.44 764.022C1285.78 766.165 1286.95 768.943 1286.95 772.353ZM1349.45 741.805C1349.45 733.814 1348.43 728.065 1346.38 724.557C1344.43 720.952 1340.73 719.149 1335.27 719.149C1333.33 719.149 1331.18 719.295 1328.84 719.588C1326.51 719.88 1324.75 720.124 1323.58 720.318V782H1305.9V708.041C1309.31 707.066 1313.74 706.14 1319.2 705.264C1324.75 704.387 1330.6 703.948 1336.74 703.948C1342 703.948 1346.29 704.63 1349.6 705.994C1353.01 707.359 1355.84 709.161 1358.08 711.402C1359.15 710.623 1360.51 709.795 1362.17 708.918C1363.83 708.041 1365.68 707.261 1367.72 706.579C1369.77 705.799 1371.91 705.166 1374.15 704.679C1376.49 704.192 1378.83 703.948 1381.17 703.948C1387.11 703.948 1391.99 704.825 1395.79 706.579C1399.68 708.236 1402.71 710.623 1404.85 713.741C1407.09 716.762 1408.6 720.465 1409.38 724.85C1410.26 729.137 1410.7 733.863 1410.7 739.028V782H1393.01V741.805C1393.01 733.814 1392.04 728.065 1390.09 724.557C1388.14 720.952 1384.39 719.149 1378.83 719.149C1376.01 719.149 1373.33 719.636 1370.79 720.611C1368.26 721.488 1366.36 722.365 1365.09 723.242C1365.87 725.678 1366.41 728.26 1366.7 730.989C1366.99 733.717 1367.14 736.64 1367.14 739.758V782H1349.45V741.805ZM1446.25 743.559C1446.25 751.354 1448.1 757.493 1451.8 761.975C1455.51 766.36 1460.62 768.553 1467.15 768.553C1469.98 768.553 1472.36 768.455 1474.31 768.261C1476.36 767.968 1478.01 767.676 1479.28 767.384V723.534C1477.72 722.462 1475.63 721.488 1473 720.611C1470.46 719.636 1467.73 719.149 1464.81 719.149C1458.38 719.149 1453.65 721.342 1450.63 725.727C1447.71 730.112 1446.25 736.056 1446.25 743.559ZM1496.97 779.661C1493.46 780.733 1489.03 781.708 1483.67 782.585C1478.4 783.462 1472.85 783.9 1467 783.9C1460.96 783.9 1455.55 782.974 1450.78 781.123C1446 779.272 1441.91 776.641 1438.5 773.23C1435.19 769.722 1432.61 765.532 1430.75 760.66C1429 755.69 1428.12 750.136 1428.12 743.997C1428.12 737.956 1428.85 732.499 1430.32 727.627C1431.88 722.657 1434.12 718.418 1437.04 714.91C1439.96 711.402 1443.52 708.723 1447.71 706.871C1451.9 704.922 1456.72 703.948 1462.18 703.948C1465.88 703.948 1469.15 704.387 1471.97 705.264C1474.8 706.14 1477.24 707.115 1479.28 708.187V671.499L1496.97 668.576V779.661Z" fill="white"/>
</g>
<g filter="url(#filter2_d)">
<path d="M677.679 128.654H604.681V183.342H690.008V208H573.797V30.2656H689.153V55.168H604.681V104.24H677.679V128.654ZM759.71 119.377L784.856 75.9199H817.815L777.41 140.983L819.158 208H786.443L760.076 162.834L733.831 208H700.872L742.62 140.983L702.337 75.9199H735.052L759.71 119.377ZM953.68 143.303C953.68 163.729 949.041 180.046 939.764 192.253C930.486 204.379 918.035 210.441 902.41 210.441C887.924 210.441 876.328 205.681 867.62 196.159V258.781H837.957V75.9199H865.301L866.521 89.3477C875.229 78.7682 887.07 73.4785 902.044 73.4785C918.157 73.4785 930.771 79.5007 939.886 91.5449C949.082 103.508 953.68 120.15 953.68 141.472V143.303ZM924.139 140.739C924.139 127.556 921.494 117.098 916.204 109.367C910.996 101.636 903.509 97.7705 893.743 97.7705C881.618 97.7705 872.91 102.775 867.62 112.785V171.379C872.991 181.633 881.78 186.76 893.987 186.76C903.427 186.76 910.792 182.976 916.082 175.407C921.453 167.757 924.139 156.201 924.139 140.739ZM973.333 140.739C973.333 127.8 975.896 116.162 981.023 105.827C986.15 95.4105 993.353 87.4352 1002.63 81.9014C1011.91 76.2861 1022.57 73.4785 1034.61 73.4785C1052.43 73.4785 1066.88 79.2158 1077.95 90.6904C1089.1 102.165 1095.12 117.383 1096.01 136.345L1096.14 143.303C1096.14 156.324 1093.61 167.961 1088.57 178.215C1083.6 188.469 1076.44 196.403 1067.08 202.019C1057.81 207.634 1047.06 210.441 1034.86 210.441C1016.22 210.441 1001.29 204.257 990.057 191.887C978.908 179.436 973.333 162.875 973.333 142.204V140.739ZM1003 143.303C1003 156.893 1005.8 167.554 1011.42 175.285C1017.03 182.935 1024.85 186.76 1034.86 186.76C1044.87 186.76 1052.64 182.854 1058.17 175.041C1063.79 167.229 1066.59 155.795 1066.59 140.739C1066.59 127.393 1063.71 116.813 1057.93 109.001C1052.23 101.188 1044.46 97.2822 1034.61 97.2822C1024.93 97.2822 1017.24 101.148 1011.54 108.879C1005.84 116.529 1003 128.003 1003 143.303ZM1190.37 103.02C1186.47 102.368 1182.44 102.043 1178.29 102.043C1164.7 102.043 1155.54 107.251 1150.82 117.668V208H1121.16V75.9199H1149.48L1150.21 90.6904C1157.37 79.2158 1167.3 73.4785 1180 73.4785C1184.23 73.4785 1187.73 74.0482 1190.5 75.1875L1190.37 103.02ZM1252.39 43.8154V75.9199H1275.7V97.8926H1252.39V171.623C1252.39 176.669 1253.36 180.331 1255.32 182.609C1257.35 184.807 1260.93 185.905 1266.06 185.905C1269.48 185.905 1272.93 185.498 1276.43 184.685V207.634C1269.68 209.506 1263.17 210.441 1256.9 210.441C1234.12 210.441 1222.72 197.868 1222.72 172.722V97.8926H1200.99V75.9199H1222.72V43.8154H1252.39ZM385.687 344.519H351.263V413H320.379V235.266H382.879C403.387 235.266 419.215 239.864 430.364 249.06C441.513 258.256 447.088 271.561 447.088 288.977C447.088 300.858 444.199 310.827 438.421 318.884C432.724 326.859 424.749 333.003 414.495 337.316L454.412 411.413V413H421.331L385.687 344.519ZM351.263 319.738H383.001C393.418 319.738 401.556 317.134 407.415 311.926C413.274 306.636 416.204 299.434 416.204 290.319C416.204 280.798 413.478 273.433 408.025 268.225C402.654 263.016 394.598 260.331 383.855 260.168H351.263V319.738ZM531.683 415.441C512.884 415.441 497.625 409.541 485.906 397.741C474.269 385.86 468.45 370.072 468.45 350.378V346.716C468.45 333.532 470.973 321.773 476.019 311.438C481.146 301.021 488.307 292.924 497.503 287.146C506.699 281.368 516.953 278.479 528.265 278.479C546.25 278.479 560.125 284.216 569.891 295.69C579.738 307.165 584.661 323.4 584.661 344.396V356.359H498.357C499.253 367.264 502.874 375.891 509.222 382.238C515.651 388.586 523.707 391.76 533.392 391.76C546.982 391.76 558.05 386.267 566.595 375.28L582.586 390.539C577.296 398.433 570.216 404.577 561.346 408.972C552.557 413.285 542.669 415.441 531.683 415.441ZM528.143 302.282C520.005 302.282 513.413 305.131 508.367 310.827C503.403 316.524 500.229 324.458 498.846 334.631H555.364V332.434C554.713 322.505 552.068 315.018 547.43 309.973C542.791 304.846 536.362 302.282 528.143 302.282ZM681.829 377.111C681.829 371.822 679.632 367.793 675.237 365.026C670.924 362.259 663.722 359.818 653.631 357.702C643.54 355.586 635.117 352.901 628.362 349.646C613.551 342.484 606.146 332.108 606.146 318.518C606.146 307.124 610.947 297.603 620.55 289.953C630.153 282.303 642.36 278.479 657.171 278.479C672.959 278.479 685.695 282.385 695.379 290.197C705.145 298.01 710.027 308.142 710.027 320.593H680.364C680.364 314.896 678.248 310.176 674.017 306.433C669.785 302.608 664.17 300.695 657.171 300.695C650.66 300.695 645.33 302.201 641.18 305.212C637.111 308.223 635.076 312.251 635.076 317.297C635.076 321.854 636.989 325.394 640.813 327.917C644.638 330.44 652.369 333.003 664.007 335.607C675.644 338.13 684.759 341.182 691.351 344.763C698.024 348.262 702.947 352.494 706.121 357.458C709.376 362.422 711.004 368.444 711.004 375.524C711.004 387.406 706.08 397.049 696.233 404.455C686.386 411.779 673.488 415.441 657.537 415.441C646.714 415.441 637.07 413.488 628.606 409.582C620.143 405.676 613.551 400.305 608.831 393.469C604.111 386.633 601.751 379.268 601.751 371.374H630.56C630.966 378.373 633.611 383.785 638.494 387.609C643.377 391.353 649.847 393.225 657.903 393.225C665.716 393.225 671.657 391.76 675.726 388.83C679.795 385.819 681.829 381.913 681.829 377.111ZM852.605 348.303C852.605 368.729 847.967 385.046 838.689 397.253C829.412 409.379 816.961 415.441 801.336 415.441C786.85 415.441 775.254 410.681 766.546 401.159V463.781H736.883V280.92H764.227L765.447 294.348C774.155 283.768 785.996 278.479 800.97 278.479C817.083 278.479 829.697 284.501 838.812 296.545C848.007 308.508 852.605 325.15 852.605 346.472V348.303ZM823.064 345.739C823.064 332.556 820.42 322.098 815.13 314.367C809.922 306.636 802.435 302.771 792.669 302.771C780.543 302.771 771.836 307.775 766.546 317.785V376.379C771.917 386.633 780.706 391.76 792.913 391.76C802.353 391.76 809.718 387.976 815.008 380.407C820.379 372.757 823.064 361.201 823.064 345.739ZM872.259 345.739C872.259 332.8 874.822 321.162 879.949 310.827C885.076 300.41 892.278 292.435 901.556 286.901C910.833 281.286 921.494 278.479 933.538 278.479C951.36 278.479 965.805 284.216 976.873 295.69C988.022 307.165 994.044 322.383 994.939 341.345L995.062 348.303C995.062 361.324 992.539 372.961 987.493 383.215C982.529 393.469 975.368 401.403 966.009 407.019C956.731 412.634 945.989 415.441 933.782 415.441C915.146 415.441 900.213 409.257 888.982 396.887C877.833 384.436 872.259 367.875 872.259 347.204V345.739ZM901.922 348.303C901.922 361.893 904.729 372.554 910.345 380.285C915.96 387.935 923.772 391.76 933.782 391.76C943.792 391.76 951.564 387.854 957.098 380.041C962.713 372.229 965.521 360.795 965.521 345.739C965.521 332.393 962.632 321.813 956.854 314.001C951.157 306.188 943.385 302.282 933.538 302.282C923.854 302.282 916.163 306.148 910.467 313.879C904.77 321.529 901.922 333.003 901.922 348.303ZM1047.67 280.92L1048.53 296.179C1058.29 284.379 1071.11 278.479 1086.98 278.479C1114.49 278.479 1128.48 294.226 1128.97 325.72V413H1099.31V327.429C1099.31 319.047 1097.48 312.862 1093.82 308.874C1090.24 304.805 1084.34 302.771 1076.12 302.771C1064.15 302.771 1055.24 308.182 1049.38 319.006V413H1019.72V280.92H1047.67ZM1233.34 377.111C1233.34 371.822 1231.15 367.793 1226.75 365.026C1222.44 362.259 1215.24 359.818 1205.14 357.702C1195.05 355.586 1186.63 352.901 1179.88 349.646C1165.06 342.484 1157.66 332.108 1157.66 318.518C1157.66 307.124 1162.46 297.603 1172.06 289.953C1181.67 282.303 1193.87 278.479 1208.68 278.479C1224.47 278.479 1237.21 282.385 1246.89 290.197C1256.66 298.01 1261.54 308.142 1261.54 320.593H1231.88C1231.88 314.896 1229.76 310.176 1225.53 306.433C1221.3 302.608 1215.68 300.695 1208.68 300.695C1202.17 300.695 1196.84 302.201 1192.69 305.212C1188.62 308.223 1186.59 312.251 1186.59 317.297C1186.59 321.854 1188.5 325.394 1192.33 327.917C1196.15 330.44 1203.88 333.003 1215.52 335.607C1227.16 338.13 1236.27 341.182 1242.86 344.763C1249.54 348.262 1254.46 352.494 1257.63 357.458C1260.89 362.422 1262.52 368.444 1262.52 375.524C1262.52 387.406 1257.59 397.049 1247.75 404.455C1237.9 411.779 1225 415.441 1209.05 415.441C1198.23 415.441 1188.58 413.488 1180.12 409.582C1171.66 405.676 1165.06 400.305 1160.34 393.469C1155.62 386.633 1153.26 379.268 1153.26 371.374H1182.07C1182.48 378.373 1185.12 383.785 1190.01 387.609C1194.89 391.353 1201.36 393.225 1209.42 393.225C1217.23 393.225 1223.17 391.76 1227.24 388.83C1231.31 385.819 1233.34 381.913 1233.34 377.111ZM1346.62 415.441C1327.83 415.441 1312.57 409.541 1300.85 397.741C1289.21 385.86 1283.39 370.072 1283.39 350.378V346.716C1283.39 333.532 1285.91 321.773 1290.96 311.438C1296.09 301.021 1303.25 292.924 1312.44 287.146C1321.64 281.368 1331.89 278.479 1343.21 278.479C1361.19 278.479 1375.07 284.216 1384.83 295.69C1394.68 307.165 1399.6 323.4 1399.6 344.396V356.359H1313.3C1314.19 367.264 1317.82 375.891 1324.16 382.238C1330.59 388.586 1338.65 391.76 1348.33 391.76C1361.92 391.76 1372.99 386.267 1381.54 375.28L1397.53 390.539C1392.24 398.433 1385.16 404.577 1376.29 408.972C1367.5 413.285 1357.61 415.441 1346.62 415.441ZM1343.08 302.282C1334.95 302.282 1328.35 305.131 1323.31 310.827C1318.34 316.524 1315.17 324.458 1313.79 334.631H1370.31V332.434C1369.65 322.505 1367.01 315.018 1362.37 309.973C1357.73 304.846 1351.3 302.282 1343.08 302.282ZM1496.77 377.111C1496.77 371.822 1494.57 367.793 1490.18 365.026C1485.87 362.259 1478.66 359.818 1468.57 357.702C1458.48 355.586 1450.06 352.901 1443.3 349.646C1428.49 342.484 1421.09 332.108 1421.09 318.518C1421.09 307.124 1425.89 297.603 1435.49 289.953C1445.09 282.303 1457.3 278.479 1472.11 278.479C1487.9 278.479 1500.64 282.385 1510.32 290.197C1520.09 298.01 1524.97 308.142 1524.97 320.593H1495.31C1495.31 314.896 1493.19 310.176 1488.96 306.433C1484.73 302.608 1479.11 300.695 1472.11 300.695C1465.6 300.695 1460.27 302.201 1456.12 305.212C1452.05 308.223 1450.02 312.251 1450.02 317.297C1450.02 321.854 1451.93 325.394 1455.75 327.917C1459.58 330.44 1467.31 333.003 1478.95 335.607C1490.59 338.13 1499.7 341.182 1506.29 344.763C1512.97 348.262 1517.89 352.494 1521.06 357.458C1524.32 362.422 1525.95 368.444 1525.95 375.524C1525.95 387.406 1521.02 397.049 1511.17 404.455C1501.33 411.779 1488.43 415.441 1472.48 415.441C1461.65 415.441 1452.01 413.488 1443.55 409.582C1435.08 405.676 1428.49 400.305 1423.77 393.469C1419.05 386.633 1416.69 379.268 1416.69 371.374H1445.5C1445.91 378.373 1448.55 383.785 1453.44 387.609C1458.32 391.353 1464.79 393.225 1472.84 393.225C1480.66 393.225 1486.6 391.76 1490.67 388.83C1494.74 385.819 1496.77 381.913 1496.77 377.111Z" fill="#D46899"/>
</g>
<defs>
<filter id="filter0_bd" x="-46" y="-48" width="1935" height="994" filterUnits="userSpaceOnUse" color-interpolation-filters="sRGB">
<feFlood flood-opacity="0" result="BackgroundImageFix"/>
<feGaussianBlur in="BackgroundImage" stdDeviation="25"/>
<feComposite in2="SourceAlpha" operator="in" result="effect1_backgroundBlur"/>
<feColorMatrix in="SourceAlpha" type="matrix" values="0 0 0 0 0 0 0 0 0 0 0 0 0 0 0 0 0 0 127 0" result="hardAlpha"/>
<feOffset dy="4"/>
<feGaussianBlur stdDeviation="2"/>
<feComposite in2="hardAlpha" operator="out"/>
<feColorMatrix type="matrix" values="0 0 0 0 0 0 0 0 0 0 0 0 0 0 0 0 0 0 0.25 0"/>
<feBlend mode="normal" in2="effect1_backgroundBlur" result="effect2_dropShadow"/>
<feBlend mode="normal" in="SourceGraphic" in2="effect2_dropShadow" result="shape"/>
</filter>
<filter id="filter1_d" x="284" y="545" width="1281" height="366.007" filterUnits="userSpaceOnUse" color-interpolation-filters="sRGB">
<feFlood flood-opacity="0" result="BackgroundImageFix"/>
<feColorMatrix in="SourceAlpha" type="matrix" values="0 0 0 0 0 0 0 0 0 0 0 0 0 0 0 0 0 0 127 0" result="hardAlpha"/>
<feOffset/>
<feGaussianBlur stdDeviation="25"/>
<feComposite in2="hardAlpha" operator="out"/>
<feColorMatrix type="matrix" values="0 0 0 0 0.258824 0 0 0 0 0.258824 0 0 0 0 0.258824 0 0 0 0.75 0"/>
<feBlend mode="normal" in2="BackgroundImageFix" result="effect1_dropShadow"/>
<feBlend mode="normal" in="SourceGraphic" in2="effect1_dropShadow" result="shape"/>
</filter>
<filter id="filter2_d" x="290.379" y="0.265625" width="1265.57" height="493.516" filterUnits="userSpaceOnUse" color-interpolation-filters="sRGB">
<feFlood flood-opacity="0" result="BackgroundImageFix"/>
<feColorMatrix in="SourceAlpha" type="matrix" values="0 0 0 0 0 0 0 0 0 0 0 0 0 0 0 0 0 0 127 0" result="hardAlpha"/>
<feOffset/>
<feGaussianBlur stdDeviation="15"/>
<feComposite in2="hardAlpha" operator="out"/>
<feColorMatrix type="matrix" values="0 0 0 0 0.258824 0 0 0 0 0.258824 0 0 0 0 0.258824 0 0 0 0.75 0"/>
<feBlend mode="normal" in2="BackgroundImageFix" result="effect1_dropShadow"/>
<feBlend mode="normal" in="SourceGraphic" in2="effect1_dropShadow" result="shape"/>
</filter>
</defs>
</svg>
