<svg width="2444" height="896" viewBox="0 0 2444 896" fill="none" xmlns="http://www.w3.org/2000/svg">
<g filter="url(#filter0_bd)">
<rect x="4" width="2436" height="888" rx="100" fill="white" fill-opacity="0.65" shape-rendering="crispEdges"/>
</g>
<rect x="202" y="29" width="2039" height="98" rx="10" fill="black" fill-opacity="0.25"/>
<rect x="136" y="161" width="2171" height="148" rx="10" fill="#A8A8A8" fill-opacity="0.45"/>
<rect x="53" y="343" width="2337" height="203" rx="10" fill="#D0D0D0" fill-opacity="0.65"/>
<rect x="136" y="580" width="2171" height="148" rx="10" fill="#A8A8A8" fill-opacity="0.45"/>
<rect x="202" y="762" width="2039" height="98" rx="10" fill="black" fill-opacity="0.25"/>
<path d="M1133.9 89.3594V162.162C1133.85 169.34 1132.27 175.59 1129.14 180.912C1126.02 186.234 1121.6 190.336 1115.88 193.217C1110.22 196.049 1103.7 197.465 1096.33 197.465C1085.1 197.465 1076.09 194.413 1069.3 188.31C1062.56 182.157 1059.07 173.661 1058.83 162.821V89.3594H1067.76V161.503C1067.76 170.487 1070.33 177.47 1075.46 182.45C1080.58 187.382 1087.54 189.848 1096.33 189.848C1105.12 189.848 1112.05 187.357 1117.13 182.377C1122.26 177.396 1124.82 170.463 1124.82 161.576V89.3594H1133.9ZM1220.69 157.182C1220.69 169.535 1217.96 179.35 1212.49 186.625C1207.02 193.852 1199.7 197.465 1190.52 197.465C1179.68 197.465 1171.38 193.656 1165.62 186.039V226.469H1156.9V116.752H1165.03L1165.47 127.958C1171.18 119.511 1179.46 115.287 1190.3 115.287C1199.77 115.287 1207.19 118.876 1212.56 126.054C1217.98 133.231 1220.69 143.192 1220.69 155.937V157.182ZM1211.91 155.644C1211.91 145.536 1209.83 137.553 1205.68 131.693C1201.53 125.834 1195.74 122.904 1188.32 122.904C1182.95 122.904 1178.34 124.198 1174.48 126.786C1170.62 129.374 1167.67 133.134 1165.62 138.065V176.078C1167.72 180.619 1170.72 184.086 1174.62 186.479C1178.53 188.871 1183.15 190.067 1188.47 190.067C1195.84 190.067 1201.58 187.138 1205.68 181.278C1209.83 175.37 1211.91 166.825 1211.91 155.644ZM1290.27 96.4639V116.752H1306.68V123.93H1290.27V176.737C1290.27 181.132 1291.06 184.403 1292.62 186.552C1294.23 188.7 1296.89 189.774 1300.6 189.774C1302.07 189.774 1304.43 189.53 1307.71 189.042L1308.07 196.22C1305.78 197.05 1302.65 197.465 1298.7 197.465C1292.69 197.465 1288.32 195.731 1285.59 192.265C1282.85 188.749 1281.49 183.598 1281.49 176.811V123.93H1266.91V116.752H1281.49V96.4639H1290.27ZM1318.55 155.204C1318.55 147.587 1320.01 140.727 1322.94 134.623C1325.92 128.52 1330.09 123.783 1335.46 120.414C1340.88 116.996 1347.01 115.287 1353.85 115.287C1364.4 115.287 1372.94 118.998 1379.48 126.42C1386.03 133.793 1389.3 143.583 1389.3 155.79V157.621C1389.3 165.287 1387.81 172.196 1384.83 178.349C1381.9 184.452 1377.75 189.164 1372.38 192.484C1367.01 195.805 1360.88 197.465 1354 197.465C1343.5 197.465 1334.95 193.778 1328.36 186.405C1321.82 178.983 1318.55 169.169 1318.55 156.962V155.204ZM1327.33 157.621C1327.33 167.094 1329.78 174.882 1334.66 180.985C1339.59 187.04 1346.04 190.067 1354 190.067C1361.91 190.067 1368.3 187.04 1373.18 180.985C1378.12 174.882 1380.58 166.85 1380.58 156.889V155.204C1380.58 149.149 1379.46 143.607 1377.21 138.578C1374.97 133.549 1371.82 129.667 1367.76 126.933C1363.71 124.149 1359.07 122.758 1353.85 122.758C1346.04 122.758 1339.66 125.834 1334.73 131.986C1329.8 138.09 1327.33 146.098 1327.33 156.01V157.621Z" fill="black"/>
<path d="M913.736 755.567V799H904.728V692.359H941.056C952.14 692.359 960.88 695.191 967.276 700.855C973.722 706.52 976.944 714.308 976.944 724.22C976.944 734.229 973.844 741.969 967.643 747.438C961.49 752.857 952.555 755.567 940.836 755.567H913.736ZM913.736 747.95H941.056C949.796 747.95 956.461 745.875 961.051 741.725C965.641 737.574 967.936 731.788 967.936 724.366C967.936 716.993 965.641 711.134 961.051 706.788C956.51 702.394 950.04 700.147 941.642 700.05H913.736V747.95ZM1024.77 800.465C1018.03 800.465 1011.93 798.805 1006.46 795.484C1001.04 792.164 996.817 787.55 993.79 781.642C990.763 775.685 989.249 769.02 989.249 761.646V758.497C989.249 750.88 990.714 744.02 993.644 737.916C996.622 731.812 1000.75 727.027 1006.02 723.561C1011.29 720.045 1017.01 718.287 1023.16 718.287C1032.78 718.287 1040.4 721.583 1046.01 728.175C1051.68 734.718 1054.51 743.678 1054.51 755.055V759.962H997.965V761.646C997.965 770.631 1000.53 778.126 1005.66 784.132C1010.83 790.089 1017.33 793.067 1025.14 793.067C1029.83 793.067 1033.95 792.213 1037.52 790.504C1041.13 788.795 1044.4 786.061 1047.33 782.301L1052.82 786.476C1046.38 795.802 1037.03 800.465 1024.77 800.465ZM1023.16 725.758C1016.57 725.758 1011 728.175 1006.46 733.009C1001.97 737.843 999.234 744.337 998.258 752.491H1045.79V751.539C1045.55 743.922 1043.38 737.721 1039.27 732.936C1035.17 728.15 1029.8 725.758 1023.16 725.758ZM1108.19 727.223C1106.34 726.881 1104.36 726.71 1102.26 726.71C1096.79 726.71 1092.15 728.248 1088.35 731.324C1084.59 734.352 1081.9 738.771 1080.29 744.581V799H1071.57V719.752H1080.14L1080.29 732.35C1084.93 722.975 1092.37 718.287 1102.63 718.287C1105.07 718.287 1107 718.604 1108.41 719.239L1108.19 727.223ZM1206.05 778.858C1206.05 774.513 1204.29 771.021 1200.77 768.385C1197.31 765.748 1192.06 763.697 1185.03 762.232C1177.99 760.719 1172.53 759.01 1168.62 757.105C1164.76 755.152 1161.88 752.784 1159.98 750.001C1158.12 747.218 1157.19 743.849 1157.19 739.894C1157.19 733.644 1159.81 728.492 1165.03 724.439C1170.25 720.338 1176.94 718.287 1185.1 718.287C1193.94 718.287 1201.02 720.484 1206.34 724.879C1211.71 729.225 1214.4 734.913 1214.4 741.944H1205.61C1205.61 737.306 1203.65 733.448 1199.75 730.372C1195.89 727.296 1191.01 725.758 1185.1 725.758C1179.34 725.758 1174.7 727.052 1171.18 729.64C1167.72 732.179 1165.98 735.499 1165.98 739.601C1165.98 743.556 1167.42 746.632 1170.3 748.829C1173.23 750.978 1178.53 752.955 1186.2 754.762C1193.91 756.568 1199.67 758.497 1203.48 760.548C1207.34 762.599 1210.2 765.064 1212.05 767.945C1213.91 770.826 1214.83 774.317 1214.83 778.419C1214.83 785.108 1212.12 790.455 1206.71 794.459C1201.33 798.463 1194.3 800.465 1185.61 800.465C1176.38 800.465 1168.89 798.243 1163.13 793.8C1157.41 789.308 1154.56 783.644 1154.56 776.808H1163.35C1163.69 781.935 1165.84 785.938 1169.79 788.819C1173.79 791.651 1179.07 793.067 1185.61 793.067C1191.71 793.067 1196.65 791.725 1200.41 789.039C1204.17 786.354 1206.05 782.96 1206.05 778.858ZM1265.3 800.465C1258.56 800.465 1252.46 798.805 1246.99 795.484C1241.57 792.164 1237.34 787.55 1234.32 781.642C1231.29 775.685 1229.78 769.02 1229.78 761.646V758.497C1229.78 750.88 1231.24 744.02 1234.17 737.916C1237.15 731.812 1241.28 727.027 1246.55 723.561C1251.82 720.045 1257.54 718.287 1263.69 718.287C1273.31 718.287 1280.92 721.583 1286.54 728.175C1292.2 734.718 1295.04 743.678 1295.04 755.055V759.962H1238.49V761.646C1238.49 770.631 1241.06 778.126 1246.18 784.132C1251.36 790.089 1257.85 793.067 1265.67 793.067C1270.35 793.067 1274.48 792.213 1278.04 790.504C1281.66 788.795 1284.93 786.061 1287.86 782.301L1293.35 786.476C1286.91 795.802 1277.55 800.465 1265.3 800.465ZM1263.69 725.758C1257.1 725.758 1251.53 728.175 1246.99 733.009C1242.5 737.843 1239.76 744.337 1238.79 752.491H1286.32V751.539C1286.08 743.922 1283.9 737.721 1279.8 732.936C1275.7 728.15 1270.33 725.758 1263.69 725.758ZM1348.72 727.223C1346.87 726.881 1344.89 726.71 1342.79 726.71C1337.32 726.71 1332.68 728.248 1328.87 731.324C1325.11 734.352 1322.43 738.771 1320.82 744.581V799H1312.1V719.752H1320.67L1320.82 732.35C1325.46 722.975 1332.9 718.287 1343.16 718.287C1345.6 718.287 1347.53 718.604 1348.94 719.239L1348.72 727.223ZM1388.64 786.915L1412.74 719.752H1421.74L1392.15 799H1385.05L1355.31 719.752H1364.32L1388.64 786.915ZM1465.84 800.465C1459.1 800.465 1452.99 798.805 1447.53 795.484C1442.11 792.164 1437.88 787.55 1434.85 781.642C1431.83 775.685 1430.31 769.02 1430.31 761.646V758.497C1430.31 750.88 1431.78 744.02 1434.71 737.916C1437.69 731.812 1441.81 727.027 1447.09 723.561C1452.36 720.045 1458.07 718.287 1464.22 718.287C1473.84 718.287 1481.46 721.583 1487.08 728.175C1492.74 734.718 1495.57 743.678 1495.57 755.055V759.962H1439.03V761.646C1439.03 770.631 1441.59 778.126 1446.72 784.132C1451.9 790.089 1458.39 793.067 1466.2 793.067C1470.89 793.067 1475.02 792.213 1478.58 790.504C1482.19 788.795 1485.46 786.061 1488.39 782.301L1493.89 786.476C1487.44 795.802 1478.09 800.465 1465.84 800.465ZM1464.22 725.758C1457.63 725.758 1452.07 728.175 1447.53 733.009C1443.03 737.843 1440.3 744.337 1439.32 752.491H1486.86V751.539C1486.61 743.922 1484.44 737.721 1480.34 732.936C1476.24 728.15 1470.87 725.758 1464.22 725.758ZM1549.26 727.223C1547.4 726.881 1545.43 726.71 1543.33 726.71C1537.86 726.71 1533.22 728.248 1529.41 731.324C1525.65 734.352 1522.96 738.771 1521.35 744.581V799H1512.64V719.752H1521.21L1521.35 732.35C1525.99 722.975 1533.44 718.287 1543.69 718.287C1546.13 718.287 1548.06 718.604 1549.48 719.239L1549.26 727.223Z" fill="black"/>
<g filter="url(#filter1_d)">
<path d="M823.76 530H704.253V509.614L763.457 445.039C772.002 435.518 778.065 427.583 781.646 421.235C785.308 414.806 787.139 408.377 787.139 401.948C787.139 393.485 784.738 386.649 779.937 381.44C775.216 376.232 768.828 373.628 760.771 373.628C751.169 373.628 743.722 376.558 738.433 382.417C733.143 388.276 730.498 396.292 730.498 406.465H700.835C700.835 395.641 703.276 385.916 708.159 377.29C713.123 368.582 720.163 361.828 729.277 357.026C738.473 352.225 749.053 349.824 761.016 349.824C778.268 349.824 791.859 354.178 801.787 362.886C811.797 371.512 816.802 383.475 816.802 398.774C816.802 407.645 814.279 416.963 809.233 426.729C804.269 436.413 796.09 447.44 784.697 459.81L741.24 506.318H823.76V530ZM854.277 441.865L863.921 352.266H959.38V377.9H888.579L883.696 420.381C891.916 415.661 901.193 413.301 911.528 413.301C928.455 413.301 941.598 418.713 950.957 429.536C960.397 440.36 965.117 454.927 965.117 473.237C965.117 491.304 959.909 505.708 949.492 516.45C939.076 527.111 924.793 532.441 906.646 532.441C890.369 532.441 876.86 527.843 866.118 518.647C855.457 509.37 849.679 497.163 848.784 482.026H877.471C878.61 490.653 881.702 497.285 886.748 501.924C891.794 506.481 898.385 508.76 906.523 508.76C915.638 508.76 922.718 505.505 927.764 498.994C932.891 492.484 935.454 483.613 935.454 472.383C935.454 461.559 932.646 453.014 927.031 446.748C921.416 440.4 913.685 437.227 903.838 437.227C898.467 437.227 893.91 437.959 890.166 439.424C886.423 440.807 882.354 443.574 877.959 447.725L854.277 441.865ZM1157.87 454.683H1086.33V530H1055.45V352.266H1168.36V377.168H1086.33V430.024H1157.87V454.683ZM1181.79 462.739C1181.79 449.8 1184.36 438.162 1189.48 427.827C1194.61 417.41 1201.81 409.435 1211.09 403.901C1220.37 398.286 1231.03 395.479 1243.07 395.479C1260.89 395.479 1275.34 401.216 1286.41 412.69C1297.56 424.165 1303.58 439.383 1304.47 458.345L1304.59 465.303C1304.59 478.324 1302.07 489.961 1297.03 500.215C1292.06 510.469 1284.9 518.403 1275.54 524.019C1266.26 529.634 1255.52 532.441 1243.32 532.441C1224.68 532.441 1209.75 526.257 1198.52 513.887C1187.37 501.436 1181.79 484.875 1181.79 464.204V462.739ZM1211.46 465.303C1211.46 478.893 1214.26 489.554 1219.88 497.285C1225.49 504.935 1233.31 508.76 1243.32 508.76C1253.33 508.76 1261.1 504.854 1266.63 497.041C1272.25 489.229 1275.05 477.795 1275.05 462.739C1275.05 449.393 1272.16 438.813 1266.39 431.001C1260.69 423.188 1252.92 419.282 1243.07 419.282C1233.39 419.282 1225.7 423.148 1220 430.879C1214.3 438.529 1211.46 450.003 1211.46 465.303ZM1398.83 425.02C1394.93 424.368 1390.9 424.043 1386.75 424.043C1373.16 424.043 1364 429.251 1359.28 439.668V530H1329.62V397.92H1357.94L1358.67 412.69C1365.83 401.216 1375.76 395.479 1388.46 395.479C1392.69 395.479 1396.19 396.048 1398.96 397.188L1398.83 425.02ZM1445.46 397.92L1446.32 411.714C1455.6 400.89 1468.29 395.479 1484.4 395.479C1502.06 395.479 1514.15 402.233 1520.66 415.742C1530.26 402.233 1543.77 395.479 1561.19 395.479C1575.75 395.479 1586.58 399.507 1593.66 407.563C1600.82 415.62 1604.48 427.502 1604.64 443.208V530H1574.98V444.062C1574.98 435.68 1573.15 429.536 1569.49 425.63C1565.83 421.724 1559.76 419.771 1551.3 419.771C1544.54 419.771 1539.01 421.602 1534.7 425.264C1530.47 428.844 1527.5 433.564 1525.79 439.424L1525.91 530H1496.25V443.086C1495.84 427.542 1487.9 419.771 1472.44 419.771C1460.56 419.771 1452.14 424.613 1447.17 434.297V530H1417.51V397.92H1445.46ZM1709.14 494.111C1709.14 488.822 1706.94 484.793 1702.54 482.026C1698.23 479.259 1691.03 476.818 1680.94 474.702C1670.85 472.586 1662.42 469.901 1655.67 466.646C1640.86 459.484 1633.45 449.108 1633.45 435.518C1633.45 424.124 1638.25 414.603 1647.86 406.953C1657.46 399.303 1669.67 395.479 1684.48 395.479C1700.27 395.479 1713 399.385 1722.69 407.197C1732.45 415.01 1737.33 425.142 1737.33 437.593H1707.67C1707.67 431.896 1705.56 427.176 1701.32 423.433C1697.09 419.608 1691.48 417.695 1684.48 417.695C1677.97 417.695 1672.64 419.201 1668.49 422.212C1664.42 425.223 1662.38 429.251 1662.38 434.297C1662.38 438.854 1664.3 442.394 1668.12 444.917C1671.94 447.44 1679.68 450.003 1691.31 452.607C1702.95 455.13 1712.07 458.182 1718.66 461.763C1725.33 465.262 1730.25 469.494 1733.43 474.458C1736.68 479.422 1738.31 485.444 1738.31 492.524C1738.31 504.406 1733.39 514.049 1723.54 521.455C1713.69 528.779 1700.79 532.441 1684.84 532.441C1674.02 532.441 1664.38 530.488 1655.91 526.582C1647.45 522.676 1640.86 517.305 1636.14 510.469C1631.42 503.633 1629.06 496.268 1629.06 488.374H1657.87C1658.27 495.373 1660.92 500.785 1665.8 504.609C1670.68 508.353 1677.15 510.225 1685.21 510.225C1693.02 510.225 1698.96 508.76 1703.03 505.83C1707.1 502.819 1709.14 498.913 1709.14 494.111Z" fill="url(#paint0_linear)"/>
</g>
<defs>
<filter id="filter0_bd" x="-46" y="-50" width="2536" height="988" filterUnits="userSpaceOnUse" color-interpolation-filters="sRGB">
<feFlood flood-opacity="0" result="BackgroundImageFix"/>
<feGaussianBlur in="BackgroundImage" stdDeviation="25"/>
<feComposite in2="SourceAlpha" operator="in" result="effect1_backgroundBlur"/>
<feColorMatrix in="SourceAlpha" type="matrix" values="0 0 0 0 0 0 0 0 0 0 0 0 0 0 0 0 0 0 127 0" result="hardAlpha"/>
<feOffset dy="4"/>
<feGaussianBlur stdDeviation="2"/>
<feComposite in2="hardAlpha" operator="out"/>
<feColorMatrix type="matrix" values="0 0 0 0 0 0 0 0 0 0 0 0 0 0 0 0 0 0 0.25 0"/>
<feBlend mode="normal" in2="effect1_backgroundBlur" result="effect2_dropShadow"/>
<feBlend mode="normal" in="SourceGraphic" in2="effect2_dropShadow" result="shape"/>
</filter>
<filter id="filter1_d" x="650.836" y="299.824" width="1137.48" height="282.617" filterUnits="userSpaceOnUse" color-interpolation-filters="sRGB">
<feFlood flood-opacity="0" result="BackgroundImageFix"/>
<feColorMatrix in="SourceAlpha" type="matrix" values="0 0 0 0 0 0 0 0 0 0 0 0 0 0 0 0 0 0 127 0" result="hardAlpha"/>
<feOffset/>
<feGaussianBlur stdDeviation="25"/>
<feComposite in2="hardAlpha" operator="out"/>
<feColorMatrix type="matrix" values="0 0 0 0 1 0 0 0 0 1 0 0 0 0 1 0 0 0 0.75 0"/>
<feBlend mode="normal" in2="BackgroundImageFix" result="effect1_dropShadow"/>
<feBlend mode="normal" in="SourceGraphic" in2="effect1_dropShadow" result="shape"/>
</filter>
<linearGradient id="paint0_linear" x1="307.572" y1="98.9652" x2="2335.06" y2="203.835" gradientUnits="userSpaceOnUse">
<stop stop-color="#60B358"/>
<stop offset="1" stop-color="#65CC76"/>
</linearGradient>
</defs>
</svg>
