<svg width="1196" height="1844" viewBox="0 0 1196 1844" fill="none" xmlns="http://www.w3.org/2000/svg">
<g filter="url(#filter0_bd)">
<rect x="4" width="1188" height="1836" rx="100" fill="white" fill-opacity="0.65" shape-rendering="crispEdges"/>
</g>
<path fill-rule="evenodd" clip-rule="evenodd" d="M560 1258H163V1655H560V1258ZM439.437 1335.16C450.715 1323.88 469 1323.88 480.278 1335.16C491.556 1346.44 491.556 1364.73 480.278 1376L400.088 1456.19L480.278 1536.38C491.556 1547.66 491.556 1565.95 480.278 1577.23C469 1588.5 450.715 1588.5 439.437 1577.23L359.247 1497.04L279.056 1577.23C267.778 1588.5 249.493 1588.5 238.215 1577.23C226.937 1565.95 226.937 1547.66 238.215 1536.38L318.405 1456.19L238.215 1376C226.937 1364.73 226.937 1346.44 238.215 1335.16C249.493 1323.88 267.778 1323.88 279.056 1335.16L359.247 1415.35L439.437 1335.16Z" fill="#775EBF" fill-opacity="0.5"/>
<g clip-path="url(#clip0)">
<path fill-rule="evenodd" clip-rule="evenodd" d="M1032.99 1258H635.988V1655H1032.99V1258ZM960.309 1393.05L792.531 1561.37C781.257 1572.65 762.977 1572.65 751.702 1561.37L708.099 1517.77C696.824 1506.5 696.824 1488.22 708.099 1476.94C719.374 1465.67 737.653 1465.67 748.928 1476.94L771.842 1499.86L919.48 1352.22C930.755 1340.94 949.034 1340.94 960.309 1352.22C971.584 1363.49 971.584 1381.77 960.309 1393.05Z" fill="#775EBF" fill-opacity="0.5"/>
</g>
<path d="M129.479 855.644C129.479 843.241 132.214 833.427 137.683 826.2C143.2 818.925 150.72 815.287 160.241 815.287C170.935 815.287 179.064 819.364 184.631 827.519L185.07 816.752H193.273V926.469H184.484V886.186C178.723 893.705 170.593 897.465 160.095 897.465C150.817 897.465 143.396 893.803 137.829 886.479C132.263 879.154 129.479 869.267 129.479 856.815V855.644ZM138.342 857.182C138.342 867.436 140.393 875.492 144.494 881.352C148.645 887.162 154.382 890.067 161.706 890.067C172.204 890.067 179.797 885.502 184.484 876.371V837.553C182.287 832.816 179.235 829.179 175.329 826.64C171.472 824.052 166.979 822.758 161.853 822.758C154.479 822.758 148.718 825.688 144.567 831.547C140.417 837.357 138.342 845.902 138.342 857.182ZM267.614 885.966C262.341 893.632 253.918 897.465 242.346 897.465C233.898 897.465 227.478 895.023 223.083 890.141C218.688 885.209 216.442 877.934 216.345 868.314V816.752H225.061V867.216C225.061 882.304 231.164 889.848 243.371 889.848C256.066 889.848 264.099 884.599 267.468 874.101V816.752H276.257V896H267.761L267.614 885.966ZM329.797 897.465C323.059 897.465 316.955 895.805 311.486 892.484C306.066 889.164 301.843 884.55 298.815 878.642C295.788 872.685 294.274 866.02 294.274 858.646V855.497C294.274 847.88 295.739 841.02 298.669 834.916C301.647 828.812 305.773 824.027 311.047 820.561C316.32 817.045 322.033 815.287 328.186 815.287C337.805 815.287 345.422 818.583 351.037 825.175C356.701 831.718 359.533 840.678 359.533 852.055V856.962H302.99V858.646C302.99 867.631 305.554 875.126 310.681 881.132C315.856 887.089 322.351 890.067 330.163 890.067C334.851 890.067 338.977 889.213 342.541 887.504C346.154 885.795 349.426 883.061 352.355 879.301L357.849 883.476C351.403 892.802 342.053 897.465 329.797 897.465ZM328.186 822.758C321.594 822.758 316.027 825.175 311.486 830.009C306.994 834.843 304.26 841.337 303.283 849.491H350.817V848.539C350.573 840.922 348.4 834.721 344.299 829.936C340.197 825.15 334.826 822.758 328.186 822.758ZM424.06 875.858C424.06 871.513 422.302 868.021 418.786 865.385C415.319 862.748 410.07 860.697 403.039 859.232C396.008 857.719 390.539 856.01 386.633 854.105C382.775 852.152 379.895 849.784 377.99 847.001C376.135 844.218 375.207 840.849 375.207 836.894C375.207 830.644 377.819 825.492 383.044 821.439C388.269 817.338 394.958 815.287 403.112 815.287C411.95 815.287 419.03 817.484 424.353 821.879C429.724 826.225 432.409 831.913 432.409 838.944H423.62C423.62 834.306 421.667 830.448 417.761 827.372C413.903 824.296 409.021 822.758 403.112 822.758C397.351 822.758 392.712 824.052 389.196 826.64C385.729 829.179 383.996 832.499 383.996 836.601C383.996 840.556 385.437 843.632 388.317 845.829C391.247 847.978 396.545 849.955 404.211 851.762C411.926 853.568 417.688 855.497 421.496 857.548C425.354 859.599 428.21 862.064 430.065 864.945C431.921 867.826 432.849 871.317 432.849 875.419C432.849 882.108 430.139 887.455 424.719 891.459C419.348 895.463 412.316 897.465 403.625 897.465C394.396 897.465 386.901 895.243 381.14 890.8C375.427 886.308 372.57 880.644 372.57 873.808H381.359C381.701 878.935 383.85 882.938 387.805 885.819C391.809 888.651 397.082 890.067 403.625 890.067C409.729 890.067 414.66 888.725 418.42 886.039C422.18 883.354 424.06 879.96 424.06 875.858ZM466.247 796.464V816.752H482.653V823.93H466.247V876.737C466.247 881.132 467.028 884.403 468.591 886.552C470.202 888.7 472.863 889.774 476.574 889.774C478.039 889.774 480.407 889.53 483.679 889.042L484.045 896.22C481.75 897.05 478.625 897.465 474.67 897.465C468.664 897.465 464.294 895.731 461.56 892.265C458.825 888.749 457.458 883.598 457.458 876.811V823.93H442.883V816.752H457.458V796.464H466.247ZM510.632 896H501.843V816.752H510.632V896ZM500.305 793.827C500.305 792.167 500.842 790.775 501.916 789.652C502.99 788.48 504.455 787.895 506.311 787.895C508.166 787.895 509.631 788.48 510.705 789.652C511.828 790.775 512.39 792.167 512.39 793.827C512.39 795.487 511.828 796.879 510.705 798.002C509.631 799.125 508.166 799.687 506.311 799.687C504.455 799.687 502.99 799.125 501.916 798.002C500.842 796.879 500.305 795.487 500.305 793.827ZM529.675 855.204C529.675 847.587 531.14 840.727 534.069 834.623C537.048 828.52 541.223 823.783 546.594 820.414C552.014 816.996 558.142 815.287 564.978 815.287C575.524 815.287 584.069 818.998 590.612 826.42C597.155 833.793 600.427 843.583 600.427 855.79V857.621C600.427 865.287 598.938 872.196 595.959 878.349C593.029 884.452 588.879 889.164 583.508 892.484C578.137 895.805 572.009 897.465 565.124 897.465C554.626 897.465 546.081 893.778 539.489 886.405C532.946 878.983 529.675 869.169 529.675 856.962V855.204ZM538.464 857.621C538.464 867.094 540.905 874.882 545.788 880.985C550.72 887.04 557.165 890.067 565.124 890.067C573.034 890.067 579.431 887.04 584.313 880.985C589.245 874.882 591.711 866.85 591.711 856.889V855.204C591.711 849.149 590.588 843.607 588.342 838.578C586.096 833.549 582.946 829.667 578.894 826.933C574.841 824.149 570.202 822.758 564.978 822.758C557.165 822.758 550.793 825.834 545.861 831.986C540.93 838.09 538.464 846.098 538.464 856.01V857.621ZM626.94 816.752L627.233 830.302C630.212 825.419 633.923 821.708 638.366 819.169C642.81 816.581 647.717 815.287 653.088 815.287C661.584 815.287 667.907 817.68 672.058 822.465C676.208 827.25 678.308 834.428 678.356 843.998V896H669.641V843.925C669.592 836.845 668.078 831.571 665.1 828.104C662.17 824.638 657.458 822.904 650.964 822.904C645.544 822.904 640.734 824.613 636.535 828.031C632.385 831.4 629.309 835.966 627.307 841.728V896H618.591V816.752H626.94ZM748.522 875.858C748.522 871.513 746.765 868.021 743.249 865.385C739.782 862.748 734.533 860.697 727.502 859.232C720.471 857.719 715.002 856.01 711.096 854.105C707.238 852.152 704.357 849.784 702.453 847.001C700.598 844.218 699.67 840.849 699.67 836.894C699.67 830.644 702.282 825.492 707.507 821.439C712.731 817.338 719.421 815.287 727.575 815.287C736.413 815.287 743.493 817.484 748.815 821.879C754.187 826.225 756.872 831.913 756.872 838.944H748.083C748.083 834.306 746.13 830.448 742.224 827.372C738.366 824.296 733.483 822.758 727.575 822.758C721.813 822.758 717.175 824.052 713.659 826.64C710.192 829.179 708.459 832.499 708.459 836.601C708.459 840.556 709.899 843.632 712.78 845.829C715.71 847.978 721.008 849.955 728.674 851.762C736.389 853.568 742.15 855.497 745.959 857.548C749.816 859.599 752.673 862.064 754.528 864.945C756.384 867.826 757.312 871.317 757.312 875.419C757.312 882.108 754.602 887.455 749.182 891.459C743.811 895.463 736.779 897.465 728.088 897.465C718.859 897.465 711.364 895.243 705.603 890.8C699.89 886.308 697.033 880.644 697.033 873.808H705.822C706.164 878.935 708.312 882.938 712.268 885.819C716.271 888.651 721.545 890.067 728.088 890.067C734.191 890.067 739.123 888.725 742.883 886.039C746.643 883.354 748.522 879.96 748.522 875.858ZM832.531 877.763L833.85 884.574L835.607 877.396L854.65 816.752H862.121L880.944 876.884L882.995 885.233L884.68 877.543L900.939 816.752H910.021L886.95 896H879.479L859.118 833.158L858.166 828.837L857.214 833.231L837.219 896H829.748L806.75 816.752H815.759L832.531 877.763ZM936.462 896H927.673V816.752H936.462V896ZM926.135 793.827C926.135 792.167 926.672 790.775 927.746 789.652C928.82 788.48 930.285 787.895 932.141 787.895C933.996 787.895 935.461 788.48 936.535 789.652C937.658 790.775 938.22 792.167 938.22 793.827C938.22 795.487 937.658 796.879 936.535 798.002C935.461 799.125 933.996 799.687 932.141 799.687C930.285 799.687 928.82 799.125 927.746 798.002C926.672 796.879 926.135 795.487 926.135 793.827ZM973.962 796.464V816.752H990.368V823.93H973.962V876.737C973.962 881.132 974.743 884.403 976.306 886.552C977.917 888.7 980.578 889.774 984.289 889.774C985.754 889.774 988.122 889.53 991.394 889.042L991.76 896.22C989.465 897.05 986.34 897.465 982.385 897.465C976.379 897.465 972.009 895.731 969.274 892.265C966.54 888.749 965.173 883.598 965.173 876.811V823.93H950.598V816.752H965.173V796.464H973.962ZM1017.25 830.155C1020.13 825.419 1023.82 821.757 1028.31 819.169C1032.8 816.581 1037.71 815.287 1043.03 815.287C1051.53 815.287 1057.85 817.68 1062 822.465C1066.15 827.25 1068.25 834.428 1068.3 843.998V896H1059.58V843.925C1059.53 836.845 1058.02 831.571 1055.04 828.104C1052.11 824.638 1047.4 822.904 1040.91 822.904C1035.49 822.904 1030.68 824.613 1026.48 828.031C1022.33 831.4 1019.25 835.966 1017.25 841.728V896H1008.53V783.5H1017.25V830.155ZM130.871 1061.97C125.598 1069.63 117.175 1073.46 105.603 1073.46C97.1553 1073.46 90.7344 1071.02 86.3398 1066.14C81.9453 1061.21 79.6992 1053.93 79.6016 1044.31V992.752H88.3174V1043.22C88.3174 1058.3 94.4209 1065.85 106.628 1065.85C119.323 1065.85 127.355 1060.6 130.725 1050.1V992.752H139.514V1072H131.018L130.871 1061.97ZM226.086 1033.18C226.086 1045.54 223.352 1055.35 217.883 1062.62C212.414 1069.85 205.09 1073.46 195.91 1073.46C185.07 1073.46 176.77 1069.66 171.008 1062.04V1102.47H162.292V992.752H170.422L170.861 1003.96C176.574 995.511 184.851 991.287 195.69 991.287C205.163 991.287 212.585 994.876 217.956 1002.05C223.376 1009.23 226.086 1019.19 226.086 1031.94V1033.18ZM217.297 1031.64C217.297 1021.54 215.222 1013.55 211.071 1007.69C206.921 1001.83 201.135 998.904 193.713 998.904C188.342 998.904 183.728 1000.2 179.87 1002.79C176.013 1005.37 173.059 1009.13 171.008 1014.07V1052.08C173.107 1056.62 176.11 1060.09 180.017 1062.48C183.923 1064.87 188.537 1066.07 193.859 1066.07C201.232 1066.07 206.97 1063.14 211.071 1057.28C215.222 1051.37 217.297 1042.83 217.297 1031.64ZM295.666 972.464V992.752H312.072V999.93H295.666V1052.74C295.666 1057.13 296.447 1060.4 298.01 1062.55C299.621 1064.7 302.282 1065.77 305.993 1065.77C307.458 1065.77 309.826 1065.53 313.098 1065.04L313.464 1072.22C311.169 1073.05 308.044 1073.46 304.089 1073.46C298.083 1073.46 293.713 1071.73 290.979 1068.26C288.244 1064.75 286.877 1059.6 286.877 1052.81V999.93H272.302V992.752H286.877V972.464H295.666ZM323.938 1031.2C323.938 1023.59 325.402 1016.73 328.332 1010.62C331.311 1004.52 335.485 999.783 340.856 996.414C346.276 992.996 352.404 991.287 359.24 991.287C369.787 991.287 378.332 994.998 384.875 1002.42C391.418 1009.79 394.689 1019.58 394.689 1031.79V1033.62C394.689 1041.29 393.2 1048.2 390.222 1054.35C387.292 1060.45 383.142 1065.16 377.771 1068.48C372.399 1071.8 366.271 1073.46 359.387 1073.46C348.889 1073.46 340.344 1069.78 333.752 1062.41C327.209 1054.98 323.938 1045.17 323.938 1032.96V1031.2ZM332.727 1033.62C332.727 1043.09 335.168 1050.88 340.051 1056.99C344.982 1063.04 351.428 1066.07 359.387 1066.07C367.297 1066.07 373.693 1063.04 378.576 1056.99C383.508 1050.88 385.974 1042.85 385.974 1032.89V1031.2C385.974 1025.15 384.851 1019.61 382.604 1014.58C380.358 1009.55 377.209 1005.67 373.156 1002.93C369.104 1000.15 364.465 998.758 359.24 998.758C351.428 998.758 345.056 1001.83 340.124 1007.99C335.192 1014.09 332.727 1022.1 332.727 1032.01V1033.62ZM514.733 1072H447.937V1065.26L484.484 1023.81C490.539 1016.82 494.738 1011.06 497.082 1006.52C499.426 1001.98 500.598 997.562 500.598 993.265C500.598 986.526 498.62 981.204 494.665 977.298C490.71 973.343 485.266 971.365 478.332 971.365C471.154 971.365 465.344 973.66 460.9 978.25C456.506 982.84 454.309 988.797 454.309 996.121H445.593C445.593 990.115 446.936 984.646 449.621 979.715C452.355 974.783 456.213 970.926 461.193 968.143C466.223 965.311 471.936 963.895 478.332 963.895C488.098 963.895 495.715 966.458 501.184 971.585C506.701 976.712 509.46 983.694 509.46 992.532C509.46 997.513 507.897 1002.96 504.772 1008.87C501.696 1014.77 496.252 1022.15 488.439 1030.98L458.703 1064.6H514.733V1072ZM537.072 1017.36L542.272 965.359H595.593V973.489H549.816L546.081 1009.52C551.794 1005.62 558.483 1003.67 566.149 1003.67C575.769 1003.67 583.435 1006.79 589.147 1013.04C594.86 1019.29 597.717 1027.62 597.717 1038.02C597.717 1049.25 594.934 1057.96 589.367 1064.16C583.801 1070.36 575.964 1073.46 565.856 1073.46C556.579 1073.46 549.06 1070.88 543.298 1065.7C537.536 1060.53 534.24 1053.27 533.41 1043.95H541.833C542.663 1051.22 545.129 1056.74 549.23 1060.5C553.332 1064.21 558.874 1066.07 565.856 1066.07C573.474 1066.07 579.211 1063.65 583.068 1058.82C586.975 1053.98 588.928 1047.1 588.928 1038.16C588.928 1030.35 586.755 1023.98 582.409 1019.05C578.063 1014.11 572.131 1011.65 564.611 1011.65C560.461 1011.65 556.848 1012.19 553.771 1013.26C550.695 1014.29 547.448 1016.31 544.03 1019.34L537.072 1017.36ZM647.375 1031.2C647.375 1023.59 648.84 1016.73 651.77 1010.62C654.748 1004.52 658.923 999.783 664.294 996.414C669.714 992.996 675.842 991.287 682.678 991.287C693.225 991.287 701.77 994.998 708.312 1002.42C714.855 1009.79 718.127 1019.58 718.127 1031.79V1033.62C718.127 1041.29 716.638 1048.2 713.659 1054.35C710.729 1060.45 706.579 1065.16 701.208 1068.48C695.837 1071.8 689.709 1073.46 682.824 1073.46C672.326 1073.46 663.781 1069.78 657.189 1062.41C650.646 1054.98 647.375 1045.17 647.375 1032.96V1031.2ZM656.164 1033.62C656.164 1043.09 658.605 1050.88 663.488 1056.99C668.42 1063.04 674.865 1066.07 682.824 1066.07C690.734 1066.07 697.131 1063.04 702.014 1056.99C706.945 1050.88 709.411 1042.85 709.411 1032.89V1031.2C709.411 1025.15 708.288 1019.61 706.042 1014.58C703.796 1009.55 700.646 1005.67 696.594 1002.93C692.541 1000.15 687.902 998.758 682.678 998.758C674.865 998.758 668.493 1001.83 663.562 1007.99C658.63 1014.09 656.164 1022.1 656.164 1032.01V1033.62ZM800.012 1033.18C800.012 1045.54 797.277 1055.35 791.809 1062.62C786.34 1069.85 779.016 1073.46 769.836 1073.46C758.996 1073.46 750.695 1069.66 744.934 1062.04V1102.47H736.218V992.752H744.348L744.787 1003.96C750.5 995.511 758.776 991.287 769.616 991.287C779.089 991.287 786.511 994.876 791.882 1002.05C797.302 1009.23 800.012 1019.19 800.012 1031.94V1033.18ZM791.223 1031.64C791.223 1021.54 789.147 1013.55 784.997 1007.69C780.847 1001.83 775.061 998.904 767.639 998.904C762.268 998.904 757.653 1000.2 753.796 1002.79C749.938 1005.37 746.984 1009.13 744.934 1014.07V1052.08C747.033 1056.62 750.036 1060.09 753.942 1062.48C757.849 1064.87 762.463 1066.07 767.785 1066.07C775.158 1066.07 780.896 1063.14 784.997 1057.28C789.147 1051.37 791.223 1042.83 791.223 1031.64ZM833.117 972.464V992.752H849.523V999.93H833.117V1052.74C833.117 1057.13 833.898 1060.4 835.461 1062.55C837.072 1064.7 839.733 1065.77 843.444 1065.77C844.909 1065.77 847.277 1065.53 850.549 1065.04L850.915 1072.22C848.62 1073.05 845.495 1073.46 841.54 1073.46C835.534 1073.46 831.164 1071.73 828.43 1068.26C825.695 1064.75 824.328 1059.6 824.328 1052.81V999.93H809.753V992.752H824.328V972.464H833.117ZM877.502 1072H868.713V992.752H877.502V1072ZM867.175 969.827C867.175 968.167 867.712 966.775 868.786 965.652C869.86 964.48 871.325 963.895 873.181 963.895C875.036 963.895 876.501 964.48 877.575 965.652C878.698 966.775 879.26 968.167 879.26 969.827C879.26 971.487 878.698 972.879 877.575 974.002C876.501 975.125 875.036 975.687 873.181 975.687C871.325 975.687 869.86 975.125 868.786 974.002C867.712 972.879 867.175 971.487 867.175 969.827ZM896.545 1031.2C896.545 1023.59 898.01 1016.73 900.939 1010.62C903.918 1004.52 908.093 999.783 913.464 996.414C918.884 992.996 925.012 991.287 931.848 991.287C942.395 991.287 950.939 994.998 957.482 1002.42C964.025 1009.79 967.297 1019.58 967.297 1031.79V1033.62C967.297 1041.29 965.808 1048.2 962.829 1054.35C959.899 1060.45 955.749 1065.16 950.378 1068.48C945.007 1071.8 938.879 1073.46 931.994 1073.46C921.496 1073.46 912.951 1069.78 906.359 1062.41C899.816 1054.98 896.545 1045.17 896.545 1032.96V1031.2ZM905.334 1033.62C905.334 1043.09 907.775 1050.88 912.658 1056.99C917.59 1063.04 924.035 1066.07 931.994 1066.07C939.904 1066.07 946.301 1063.04 951.184 1056.99C956.115 1050.88 958.581 1042.85 958.581 1032.89V1031.2C958.581 1025.15 957.458 1019.61 955.212 1014.58C952.966 1009.55 949.816 1005.67 945.764 1002.93C941.711 1000.15 937.072 998.758 931.848 998.758C924.035 998.758 917.663 1001.83 912.731 1007.99C907.8 1014.09 905.334 1022.1 905.334 1032.01V1033.62ZM993.811 992.752L994.104 1006.3C997.082 1001.42 1000.79 997.708 1005.24 995.169C1009.68 992.581 1014.59 991.287 1019.96 991.287C1028.45 991.287 1034.78 993.68 1038.93 998.465C1043.08 1003.25 1045.18 1010.43 1045.23 1020V1072H1036.51V1019.92C1036.46 1012.84 1034.95 1007.57 1031.97 1004.1C1029.04 1000.64 1024.33 998.904 1017.83 998.904C1012.41 998.904 1007.6 1000.61 1003.41 1004.03C999.255 1007.4 996.179 1011.97 994.177 1017.73V1072H985.461V992.752H993.811ZM1115.39 1051.86C1115.39 1047.51 1113.63 1044.02 1110.12 1041.38C1106.65 1038.75 1101.4 1036.7 1094.37 1035.23C1087.34 1033.72 1081.87 1032.01 1077.97 1030.11C1074.11 1028.15 1071.23 1025.78 1069.32 1023C1067.47 1020.22 1066.54 1016.85 1066.54 1012.89C1066.54 1006.64 1069.15 1001.49 1074.38 997.439C1079.6 993.338 1086.29 991.287 1094.45 991.287C1103.28 991.287 1110.36 993.484 1115.69 997.879C1121.06 1002.22 1123.74 1007.91 1123.74 1014.94H1114.95C1114.95 1010.31 1113 1006.45 1109.09 1003.37C1105.24 1000.3 1100.35 998.758 1094.45 998.758C1088.68 998.758 1084.04 1000.05 1080.53 1002.64C1077.06 1005.18 1075.33 1008.5 1075.33 1012.6C1075.33 1016.56 1076.77 1019.63 1079.65 1021.83C1082.58 1023.98 1087.88 1025.96 1095.54 1027.76C1103.26 1029.57 1109.02 1031.5 1112.83 1033.55C1116.69 1035.6 1119.54 1038.06 1121.4 1040.95C1123.25 1043.83 1124.18 1047.32 1124.18 1051.42C1124.18 1058.11 1121.47 1063.46 1116.05 1067.46C1110.68 1071.46 1103.65 1073.46 1094.96 1073.46C1085.73 1073.46 1078.23 1071.24 1072.47 1066.8C1066.76 1062.31 1063.9 1056.64 1063.9 1049.81H1072.69C1073.03 1054.93 1075.18 1058.94 1079.14 1061.82C1083.14 1064.65 1088.42 1066.07 1094.96 1066.07C1101.06 1066.07 1105.99 1064.72 1109.75 1062.04C1113.51 1059.35 1115.39 1055.96 1115.39 1051.86Z" fill="black"/>
<g filter="url(#filter1_d)">
<path d="M204.504 158.266L255.773 294.496L306.921 158.266H346.838V336H316.076V277.406L319.128 199.037L266.638 336H244.543L192.175 199.159L195.227 277.406V336H164.465V158.266H204.504ZM460.607 323.061C451.9 333.314 439.53 338.441 423.498 338.441C409.175 338.441 398.311 334.25 390.905 325.868C383.581 317.486 379.919 305.36 379.919 289.491V203.92H409.582V289.125C409.582 305.889 416.54 314.271 430.456 314.271C444.86 314.271 454.585 309.104 459.631 298.769V203.92H489.294V336H461.34L460.607 323.061ZM551.062 336H521.398V148.5H551.062V336ZM620.642 171.815V203.92H643.957V225.893H620.642V299.623C620.642 304.669 621.618 308.331 623.571 310.609C625.606 312.807 629.187 313.905 634.313 313.905C637.731 313.905 641.19 313.498 644.689 312.685V335.634C637.935 337.506 631.424 338.441 625.158 338.441C602.372 338.441 590.979 325.868 590.979 300.722V225.893H569.25V203.92H590.979V171.815H620.642ZM698.278 336H668.615V203.92H698.278V336ZM666.784 169.618C666.784 165.061 668.208 161.277 671.057 158.266C673.986 155.255 678.137 153.749 683.508 153.749C688.879 153.749 693.029 155.255 695.959 158.266C698.889 161.277 700.354 165.061 700.354 169.618C700.354 174.094 698.889 177.838 695.959 180.849C693.029 183.778 688.879 185.243 683.508 185.243C678.137 185.243 673.986 183.778 671.057 180.849C668.208 177.838 666.784 174.094 666.784 169.618ZM846.35 271.303C846.35 291.729 841.711 308.046 832.434 320.253C823.156 332.379 810.705 338.441 795.08 338.441C780.594 338.441 768.998 333.681 760.29 324.159V386.781H730.627V203.92H757.971L759.191 217.348C767.899 206.768 779.74 201.479 794.714 201.479C810.827 201.479 823.441 207.501 832.556 219.545C841.752 231.508 846.35 248.15 846.35 269.472V271.303ZM816.809 268.739C816.809 255.556 814.164 245.098 808.874 237.367C803.666 229.636 796.179 225.771 786.413 225.771C774.287 225.771 765.58 230.775 760.29 240.785V299.379C765.661 309.633 774.45 314.76 786.657 314.76C796.097 314.76 803.462 310.976 808.752 303.407C814.123 295.757 816.809 284.201 816.809 268.739ZM903.112 336H873.449V148.5H903.112V336ZM993.688 338.441C974.89 338.441 959.631 332.541 947.912 320.741C936.275 308.86 930.456 293.072 930.456 273.378V269.716C930.456 256.532 932.979 244.773 938.024 234.438C943.151 224.021 950.313 215.924 959.509 210.146C968.705 204.368 978.959 201.479 990.271 201.479C1008.26 201.479 1022.13 207.216 1031.9 218.69C1041.74 230.165 1046.67 246.4 1046.67 267.396V279.359H960.363C961.258 290.264 964.88 298.891 971.228 305.238C977.657 311.586 985.713 314.76 995.397 314.76C1008.99 314.76 1020.06 309.267 1028.6 298.28L1044.59 313.539C1039.3 321.433 1032.22 327.577 1023.35 331.972C1014.56 336.285 1004.67 338.441 993.688 338.441ZM990.148 225.282C982.01 225.282 975.419 228.131 970.373 233.827C965.409 239.524 962.235 247.458 960.852 257.631H1017.37V255.434C1016.72 245.505 1014.07 238.018 1009.44 232.973C1004.8 227.846 998.368 225.282 990.148 225.282ZM367.346 571.139C365.555 590.1 358.557 604.911 346.35 615.572C334.143 626.152 317.907 631.441 297.644 631.441C283.483 631.441 270.992 628.105 260.168 621.432C249.426 614.677 241.125 605.115 235.266 592.745C229.406 580.375 226.354 566.012 226.11 549.654V533.053C226.11 516.288 229.081 501.518 235.021 488.741C240.962 475.965 249.466 466.118 260.534 459.2C271.683 452.283 284.541 448.824 299.108 448.824C318.721 448.824 334.509 454.155 346.472 464.815C358.435 475.476 365.393 490.532 367.346 509.981H336.584C335.119 497.205 331.376 488.009 325.354 482.394C319.413 476.697 310.664 473.849 299.108 473.849C285.681 473.849 275.345 478.772 268.103 488.619C260.941 498.385 257.279 512.748 257.116 531.71V547.457C257.116 566.663 260.534 581.311 267.37 591.402C274.287 601.493 284.379 606.539 297.644 606.539C309.769 606.539 318.884 603.813 324.987 598.36C331.091 592.908 334.956 583.834 336.584 571.139H367.346ZM421.423 511.324C431.107 500.094 443.355 494.479 458.166 494.479C486.324 494.479 500.606 510.551 501.013 542.696V629H471.35V543.795C471.35 534.68 469.356 528.251 465.368 524.508C461.462 520.683 455.684 518.771 448.034 518.771C436.153 518.771 427.282 524.06 421.423 534.64V629H391.76V441.5H421.423V511.324ZM525.549 561.739C525.549 548.8 528.112 537.162 533.239 526.827C538.366 516.41 545.568 508.435 554.846 502.901C564.123 497.286 574.784 494.479 586.828 494.479C604.65 494.479 619.095 500.216 630.163 511.69C641.312 523.165 647.334 538.383 648.229 557.345L648.352 564.303C648.352 577.324 645.829 588.961 640.783 599.215C635.819 609.469 628.658 617.403 619.299 623.019C610.021 628.634 599.279 631.441 587.072 631.441C568.436 631.441 553.503 625.257 542.272 612.887C531.123 600.436 525.549 583.875 525.549 563.204V561.739ZM555.212 564.303C555.212 577.893 558.02 588.554 563.635 596.285C569.25 603.935 577.062 607.76 587.072 607.76C597.082 607.76 604.854 603.854 610.388 596.041C616.003 588.229 618.811 576.795 618.811 561.739C618.811 548.393 615.922 537.813 610.144 530.001C604.447 522.188 596.675 518.282 586.828 518.282C577.144 518.282 569.453 522.148 563.757 529.879C558.06 537.529 555.212 549.003 555.212 564.303ZM704.992 629H675.329V496.92H704.992V629ZM673.498 462.618C673.498 458.061 674.922 454.277 677.771 451.266C680.7 448.255 684.851 446.749 690.222 446.749C695.593 446.749 699.743 448.255 702.673 451.266C705.603 454.277 707.067 458.061 707.067 462.618C707.067 467.094 705.603 470.838 702.673 473.849C699.743 476.778 695.593 478.243 690.222 478.243C684.851 478.243 680.7 476.778 677.771 473.849C674.922 470.838 673.498 467.094 673.498 462.618ZM791.662 607.76C799.068 607.76 805.212 605.603 810.095 601.29C814.978 596.977 817.582 591.646 817.907 585.299H845.861C845.536 593.518 842.972 601.209 838.171 608.37C833.369 615.45 826.859 621.065 818.64 625.216C810.42 629.366 801.55 631.441 792.028 631.441C773.555 631.441 758.907 625.46 748.083 613.497C737.259 601.534 731.848 585.014 731.848 563.937V560.885C731.848 540.784 737.219 524.711 747.961 512.667C758.703 500.541 773.352 494.479 791.906 494.479C807.613 494.479 820.389 499.076 830.236 508.272C840.165 517.387 845.373 529.391 845.861 544.283H817.907C817.582 536.715 814.978 530.489 810.095 525.606C805.293 520.724 799.149 518.282 791.662 518.282C782.059 518.282 774.654 521.782 769.445 528.78C764.237 535.698 761.592 546.236 761.511 560.396V565.157C761.511 579.48 764.074 590.182 769.201 597.262C774.41 604.26 781.896 607.76 791.662 607.76ZM926.428 631.441C907.629 631.441 892.37 625.541 880.651 613.741C869.014 601.86 863.195 586.072 863.195 566.378V562.716C863.195 549.532 865.718 537.773 870.764 527.438C875.891 517.021 883.052 508.924 892.248 503.146C901.444 497.368 911.698 494.479 923.01 494.479C940.995 494.479 954.87 500.216 964.636 511.69C974.483 523.165 979.406 539.4 979.406 560.396V572.359H893.103C893.998 583.264 897.619 591.891 903.967 598.238C910.396 604.586 918.452 607.76 928.137 607.76C941.727 607.76 952.795 602.267 961.34 591.28L977.331 606.539C972.041 614.433 964.961 620.577 956.091 624.972C947.302 629.285 937.414 631.441 926.428 631.441ZM922.888 518.282C914.75 518.282 908.158 521.131 903.112 526.827C898.148 532.524 894.974 540.458 893.591 550.631H950.109V548.434C949.458 538.505 946.813 531.018 942.175 525.973C937.536 520.846 931.107 518.282 922.888 518.282Z" fill="url(#paint0_linear)"/>
</g>
<defs>
<filter id="filter0_bd" x="-46" y="-50" width="1288" height="1936" filterUnits="userSpaceOnUse" color-interpolation-filters="sRGB">
<feFlood flood-opacity="0" result="BackgroundImageFix"/>
<feGaussianBlur in="BackgroundImage" stdDeviation="25"/>
<feComposite in2="SourceAlpha" operator="in" result="effect1_backgroundBlur"/>
<feColorMatrix in="SourceAlpha" type="matrix" values="0 0 0 0 0 0 0 0 0 0 0 0 0 0 0 0 0 0 127 0" result="hardAlpha"/>
<feOffset dy="4"/>
<feGaussianBlur stdDeviation="2"/>
<feComposite in2="hardAlpha" operator="out"/>
<feColorMatrix type="matrix" values="0 0 0 0 0 0 0 0 0 0 0 0 0 0 0 0 0 0 0.25 0"/>
<feBlend mode="normal" in2="effect1_backgroundBlur" result="effect2_dropShadow"/>
<feBlend mode="normal" in="SourceGraphic" in2="effect2_dropShadow" result="shape"/>
</filter>
<filter id="filter1_d" x="159.465" y="143.5" width="892.202" height="492.941" filterUnits="userSpaceOnUse" color-interpolation-filters="sRGB">
<feFlood flood-opacity="0" result="BackgroundImageFix"/>
<feColorMatrix in="SourceAlpha" type="matrix" values="0 0 0 0 0 0 0 0 0 0 0 0 0 0 0 0 0 0 127 0" result="hardAlpha"/>
<feOffset/>
<feGaussianBlur stdDeviation="2.5"/>
<feComposite in2="hardAlpha" operator="out"/>
<feColorMatrix type="matrix" values="0 0 0 0 0.258824 0 0 0 0 0.258824 0 0 0 0 0.258824 0 0 0 0.75 0"/>
<feBlend mode="normal" in2="BackgroundImageFix" result="effect1_dropShadow"/>
<feBlend mode="normal" in="SourceGraphic" in2="effect1_dropShadow" result="shape"/>
</filter>
<linearGradient id="paint0_linear" x1="125.5" y1="71.9147" x2="1174.23" y2="475.771" gradientUnits="userSpaceOnUse">
<stop stop-color="#775EBF"/>
<stop offset="1" stop-color="#6576CC"/>
</linearGradient>
<clipPath id="clip0">
<rect x="635.988" y="1258" width="397" height="397" rx="198.5" fill="white"/>
</clipPath>
</defs>
</svg>
