<svg width="2139" height="896" viewBox="0 0 2139 896" fill="none" xmlns="http://www.w3.org/2000/svg">
<g filter="url(#filter0_bd)">
<rect x="4" width="2131" height="888" rx="100" fill="white" fill-opacity="0.65" shape-rendering="crispEdges"/>
</g>
<path d="M981.902 85.3594V158.162C981.854 165.34 980.267 171.59 977.142 176.912C974.017 182.234 969.598 186.336 963.885 189.217C958.221 192.049 951.702 193.465 944.329 193.465C933.099 193.465 924.09 190.413 917.303 184.31C910.564 178.157 907.073 169.661 906.829 158.821V85.3594H915.765V157.503C915.765 166.487 918.328 173.47 923.455 178.45C928.582 183.382 935.54 185.848 944.329 185.848C953.118 185.848 960.052 183.357 965.13 178.377C970.257 173.396 972.82 166.463 972.82 157.576V85.3594H981.902ZM1068.69 153.182C1068.69 165.535 1065.96 175.35 1060.49 182.625C1055.02 189.852 1047.7 193.465 1038.52 193.465C1027.68 193.465 1019.38 189.656 1013.62 182.039V222.469H1004.9V112.752H1013.03L1013.47 123.958C1019.18 115.511 1027.46 111.287 1038.3 111.287C1047.77 111.287 1055.19 114.876 1060.56 122.054C1065.98 129.231 1068.69 139.192 1068.69 151.937V153.182ZM1059.91 151.644C1059.91 141.536 1057.83 133.553 1053.68 127.693C1049.53 121.834 1043.74 118.904 1036.32 118.904C1030.95 118.904 1026.34 120.198 1022.48 122.786C1018.62 125.374 1015.67 129.134 1013.62 134.065V172.078C1015.72 176.619 1018.72 180.086 1022.62 182.479C1026.53 184.871 1031.15 186.067 1036.47 186.067C1043.84 186.067 1049.58 183.138 1053.68 177.278C1057.83 171.37 1059.91 162.825 1059.91 151.644ZM1138.27 92.4639V112.752H1154.68V119.93H1138.27V172.737C1138.27 177.132 1139.06 180.403 1140.62 182.552C1142.23 184.7 1144.89 185.774 1148.6 185.774C1150.07 185.774 1152.43 185.53 1155.71 185.042L1156.07 192.22C1153.78 193.05 1150.65 193.465 1146.7 193.465C1140.69 193.465 1136.32 191.731 1133.59 188.265C1130.85 184.749 1129.49 179.598 1129.49 172.811V119.93H1114.91V112.752H1129.49V92.4639H1138.27ZM1166.55 151.204C1166.55 143.587 1168.01 136.727 1170.94 130.623C1173.92 124.52 1178.09 119.783 1183.46 116.414C1188.88 112.996 1195.01 111.287 1201.85 111.287C1212.4 111.287 1220.94 114.998 1227.48 122.42C1234.03 129.793 1237.3 139.583 1237.3 151.79V153.621C1237.3 161.287 1235.81 168.196 1232.83 174.349C1229.9 180.452 1225.75 185.164 1220.38 188.484C1215.01 191.805 1208.88 193.465 1202 193.465C1191.5 193.465 1182.95 189.778 1176.36 182.405C1169.82 174.983 1166.55 165.169 1166.55 152.962V151.204ZM1175.33 153.621C1175.33 163.094 1177.78 170.882 1182.66 176.985C1187.59 183.04 1194.04 186.067 1202 186.067C1209.91 186.067 1216.3 183.04 1221.18 176.985C1226.12 170.882 1228.58 162.85 1228.58 152.889V151.204C1228.58 145.149 1227.46 139.607 1225.21 134.578C1222.97 129.549 1219.82 125.667 1215.76 122.933C1211.71 120.149 1207.07 118.758 1201.85 118.758C1194.04 118.758 1187.66 121.834 1182.73 127.986C1177.8 134.09 1175.33 142.098 1175.33 152.01V153.621Z" fill="black"/>
<path d="M862.151 760.182C862.151 772.535 859.417 782.35 853.948 789.625C848.479 796.852 841.155 800.465 831.976 800.465C821.136 800.465 812.835 796.656 807.073 789.039V829.469H798.357V719.752H806.487L806.927 730.958C812.64 722.511 820.916 718.287 831.756 718.287C841.229 718.287 848.65 721.876 854.021 729.054C859.441 736.231 862.151 746.192 862.151 758.937V760.182ZM853.362 758.644C853.362 748.536 851.287 740.553 847.137 734.693C842.986 728.834 837.2 725.904 829.778 725.904C824.407 725.904 819.793 727.198 815.936 729.786C812.078 732.374 809.124 736.134 807.073 741.065V779.078C809.173 783.619 812.176 787.086 816.082 789.479C819.988 791.871 824.603 793.067 829.925 793.067C837.298 793.067 843.035 790.138 847.137 784.278C851.287 778.37 853.362 769.825 853.362 758.644ZM912.322 800.465C905.584 800.465 899.48 798.805 894.012 795.484C888.592 792.164 884.368 787.55 881.341 781.642C878.313 775.685 876.8 769.02 876.8 761.646V758.497C876.8 750.88 878.265 744.02 881.194 737.916C884.173 731.812 888.299 727.027 893.572 723.561C898.846 720.045 904.559 718.287 910.711 718.287C920.33 718.287 927.947 721.583 933.562 728.175C939.227 734.718 942.059 743.678 942.059 755.055V759.962H885.516V761.646C885.516 770.631 888.079 778.126 893.206 784.132C898.382 790.089 904.876 793.067 912.688 793.067C917.376 793.067 921.502 792.213 925.066 790.504C928.68 788.795 931.951 786.061 934.881 782.301L940.374 786.476C933.929 795.802 924.578 800.465 912.322 800.465ZM910.711 725.758C904.119 725.758 898.553 728.175 894.012 733.009C889.52 737.843 886.785 744.337 885.809 752.491H933.343V751.539C933.099 743.922 930.926 737.721 926.824 732.936C922.723 728.15 917.352 725.758 910.711 725.758ZM995.745 727.223C993.89 726.881 991.912 726.71 989.812 726.71C984.344 726.71 979.705 728.248 975.896 731.324C972.137 734.352 969.451 738.771 967.84 744.581V799H959.124V719.752H967.693L967.84 732.35C972.479 722.975 979.925 718.287 990.179 718.287C992.62 718.287 994.549 718.604 995.965 719.239L995.745 727.223ZM1052.43 799V726.93H1039.32V719.752H1052.43V710.157C1052.43 702.052 1054.49 695.826 1058.59 691.48C1062.74 687.135 1068.5 684.962 1075.87 684.962C1079.19 684.962 1082.29 685.377 1085.17 686.207L1084.51 693.531C1082.07 692.945 1079.41 692.652 1076.53 692.652C1071.7 692.652 1067.94 694.166 1065.25 697.193C1062.57 700.172 1061.22 704.42 1061.22 709.938V719.752H1080.12V726.93H1061.22V799H1052.43ZM1090.96 758.204C1090.96 750.587 1092.42 743.727 1095.35 737.623C1098.33 731.52 1102.51 726.783 1107.88 723.414C1113.3 719.996 1119.43 718.287 1126.26 718.287C1136.81 718.287 1145.35 721.998 1151.9 729.42C1158.44 736.793 1161.71 746.583 1161.71 758.79V760.621C1161.71 768.287 1160.22 775.196 1157.24 781.349C1154.31 787.452 1150.16 792.164 1144.79 795.484C1139.42 798.805 1133.29 800.465 1126.41 800.465C1115.91 800.465 1107.37 796.778 1100.77 789.405C1094.23 781.983 1090.96 772.169 1090.96 759.962V758.204ZM1099.75 760.621C1099.75 770.094 1102.19 777.882 1107.07 783.985C1112 790.04 1118.45 793.067 1126.41 793.067C1134.32 793.067 1140.72 790.04 1145.6 783.985C1150.53 777.882 1153 769.85 1153 759.889V758.204C1153 752.149 1151.87 746.607 1149.63 741.578C1147.38 736.549 1144.23 732.667 1140.18 729.933C1136.13 727.149 1131.49 725.758 1126.26 725.758C1118.45 725.758 1112.08 728.834 1107.15 734.986C1102.21 741.09 1099.75 749.098 1099.75 759.01V760.621ZM1216.5 727.223C1214.64 726.881 1212.66 726.71 1210.56 726.71C1205.1 726.71 1200.46 728.248 1196.65 731.324C1192.89 734.352 1190.2 738.771 1188.59 744.581V799H1179.88V719.752H1188.45L1188.59 732.35C1193.23 722.975 1200.68 718.287 1210.93 718.287C1213.37 718.287 1215.3 718.604 1216.72 719.239L1216.5 727.223ZM1238.4 719.752L1238.69 732.643C1241.62 727.857 1245.28 724.269 1249.68 721.876C1254.07 719.483 1258.95 718.287 1264.32 718.287C1276.82 718.287 1284.76 723.414 1288.13 733.668C1290.96 728.736 1294.74 724.952 1299.48 722.315C1304.22 719.63 1309.44 718.287 1315.15 718.287C1332.15 718.287 1340.81 727.564 1341.16 746.119V799H1332.37V746.778C1332.32 739.698 1330.78 734.449 1327.75 731.031C1324.77 727.613 1319.89 725.904 1313.1 725.904C1306.8 726.002 1301.48 728.053 1297.14 732.057C1292.79 736.012 1290.37 740.846 1289.89 746.559V799H1281.1V746.119C1281.05 739.332 1279.44 734.278 1276.26 730.958C1273.14 727.589 1268.3 725.904 1261.76 725.904C1256.24 725.904 1251.51 727.491 1247.55 730.665C1243.6 733.79 1240.67 738.453 1238.76 744.654V799H1229.97V719.752H1238.4Z" fill="black"/>
<g filter="url(#filter1_d)">
<path d="M462.688 529H343.182V508.614L402.386 444.039C410.931 434.518 416.993 426.583 420.574 420.235C424.236 413.806 426.067 407.377 426.067 400.948C426.067 392.485 423.667 385.649 418.865 380.44C414.145 375.232 407.757 372.628 399.7 372.628C390.097 372.628 382.651 375.558 377.361 381.417C372.072 387.276 369.427 395.292 369.427 405.465H339.764C339.764 394.641 342.205 384.916 347.088 376.29C352.052 367.582 359.091 360.828 368.206 356.026C377.402 351.225 387.981 348.824 399.944 348.824C417.197 348.824 430.787 353.178 440.716 361.886C450.726 370.512 455.73 382.475 455.73 397.774C455.73 406.645 453.208 415.963 448.162 425.729C443.198 435.413 435.019 446.44 423.626 458.81L380.169 505.318H462.688V529ZM493.206 440.865L502.85 351.266H598.309V376.9H527.508L522.625 419.381C530.844 414.661 540.122 412.301 550.457 412.301C567.384 412.301 580.527 417.713 589.886 428.536C599.326 439.36 604.046 453.927 604.046 472.237C604.046 490.304 598.838 504.708 588.421 515.45C578.004 526.111 563.722 531.441 545.574 531.441C529.298 531.441 515.789 526.843 505.047 517.647C494.386 508.37 488.608 496.163 487.713 481.026H516.399C517.539 489.653 520.631 496.285 525.677 500.924C530.722 505.481 537.314 507.76 545.452 507.76C554.567 507.76 561.647 504.505 566.692 497.994C571.819 491.484 574.383 482.613 574.383 471.383C574.383 460.559 571.575 452.014 565.96 445.748C560.345 439.4 552.614 436.227 542.767 436.227C537.396 436.227 532.838 436.959 529.095 438.424C525.351 439.807 521.282 442.574 516.888 446.725L493.206 440.865ZM835.613 444.771C835.613 461.617 832.928 476.225 827.557 488.595C822.267 500.883 814.821 510.649 805.218 517.892L835.735 541.695L815.716 559.762L777.874 529.854C772.91 530.912 767.579 531.441 761.883 531.441C747.56 531.441 734.743 527.942 723.431 520.943C712.2 513.863 703.493 503.813 697.308 490.792C691.204 477.771 688.112 462.757 688.03 445.748V435.738C688.03 418.404 691.082 403.105 697.186 389.84C703.37 376.575 712.037 366.443 723.187 359.444C734.417 352.364 747.234 348.824 761.639 348.824C776.287 348.824 789.186 352.324 800.335 359.322C811.565 366.24 820.232 376.249 826.336 389.352C832.439 402.372 835.532 417.55 835.613 434.884V444.771ZM804.607 435.494C804.607 415.475 800.864 400.297 793.377 389.962C785.89 379.627 775.311 374.459 761.639 374.459C748.374 374.459 737.957 379.708 730.389 390.206C722.902 400.623 719.077 415.353 718.914 434.396V444.771C718.914 463.977 722.658 478.992 730.145 489.815C737.713 500.639 748.292 506.051 761.883 506.051C775.636 506.051 786.175 500.842 793.499 490.426C800.905 480.009 804.607 464.791 804.607 444.771V435.494ZM944.134 516.061C935.426 526.314 923.056 531.441 907.024 531.441C892.701 531.441 881.837 527.25 874.432 518.868C867.107 510.486 863.445 498.36 863.445 482.491V396.92H893.108V482.125C893.108 498.889 900.066 507.271 913.982 507.271C928.387 507.271 938.112 502.104 943.157 491.769V396.92H972.82V529H944.866L944.134 516.061ZM1061.2 531.441C1042.4 531.441 1027.14 525.541 1015.42 513.741C1003.79 501.86 997.967 486.072 997.967 466.378V462.716C997.967 449.532 1000.49 437.773 1005.54 427.438C1010.66 417.021 1017.82 408.924 1027.02 403.146C1036.22 397.368 1046.47 394.479 1057.78 394.479C1075.77 394.479 1089.64 400.216 1099.41 411.69C1109.25 423.165 1114.18 439.4 1114.18 460.396V472.359H1027.87C1028.77 483.264 1032.39 491.891 1038.74 498.238C1045.17 504.586 1053.22 507.76 1062.91 507.76C1076.5 507.76 1087.57 502.267 1096.11 491.28L1112.1 506.539C1106.81 514.433 1099.73 520.577 1090.86 524.972C1082.07 529.285 1072.19 531.441 1061.2 531.441ZM1057.66 418.282C1049.52 418.282 1042.93 421.131 1037.88 426.827C1032.92 432.524 1029.75 440.458 1028.36 450.631H1084.88V448.434C1084.23 438.505 1081.58 431.018 1076.95 425.973C1072.31 420.846 1065.88 418.282 1057.66 418.282ZM1211.35 493.111C1211.35 487.822 1209.15 483.793 1204.75 481.026C1200.44 478.259 1193.24 475.818 1183.15 473.702C1173.06 471.586 1164.63 468.901 1157.88 465.646C1143.07 458.484 1135.66 448.108 1135.66 434.518C1135.66 423.124 1140.46 413.603 1150.07 405.953C1159.67 398.303 1171.88 394.479 1186.69 394.479C1202.48 394.479 1215.21 398.385 1224.9 406.197C1234.66 414.01 1239.54 424.142 1239.54 436.593H1209.88C1209.88 430.896 1207.76 426.176 1203.53 422.433C1199.3 418.608 1193.69 416.695 1186.69 416.695C1180.18 416.695 1174.85 418.201 1170.7 421.212C1166.63 424.223 1164.59 428.251 1164.59 433.297C1164.59 437.854 1166.51 441.394 1170.33 443.917C1174.15 446.44 1181.89 449.003 1193.52 451.607C1205.16 454.13 1214.28 457.182 1220.87 460.763C1227.54 464.262 1232.46 468.494 1235.64 473.458C1238.89 478.422 1240.52 484.444 1240.52 491.524C1240.52 503.406 1235.6 513.049 1225.75 520.455C1215.9 527.779 1203 531.441 1187.05 531.441C1176.23 531.441 1166.59 529.488 1158.12 525.582C1149.66 521.676 1143.07 516.305 1138.35 509.469C1133.63 502.633 1131.27 495.268 1131.27 487.374H1160.08C1160.48 494.373 1163.13 499.785 1168.01 503.609C1172.89 507.353 1179.36 509.225 1187.42 509.225C1195.23 509.225 1201.17 507.76 1205.24 504.83C1209.31 501.819 1211.35 497.913 1211.35 493.111ZM1303.63 364.815V396.92H1326.95V418.893H1303.63V492.623C1303.63 497.669 1304.61 501.331 1306.56 503.609C1308.6 505.807 1312.18 506.905 1317.3 506.905C1320.72 506.905 1324.18 506.498 1327.68 505.685V528.634C1320.92 530.506 1314.41 531.441 1308.15 531.441C1285.36 531.441 1273.97 518.868 1273.97 493.722V418.893H1252.24V396.92H1273.97V364.815H1303.63ZM1381.27 529H1351.6V396.92H1381.27V529ZM1349.77 362.618C1349.77 358.061 1351.2 354.277 1354.05 351.266C1356.98 348.255 1361.13 346.749 1366.5 346.749C1371.87 346.749 1376.02 348.255 1378.95 351.266C1381.88 354.277 1383.34 358.061 1383.34 362.618C1383.34 367.094 1381.88 370.838 1378.95 373.849C1376.02 376.778 1371.87 378.243 1366.5 378.243C1361.13 378.243 1356.98 376.778 1354.05 373.849C1351.2 370.838 1349.77 367.094 1349.77 362.618ZM1408.12 461.739C1408.12 448.8 1410.69 437.162 1415.81 426.827C1420.94 416.41 1428.14 408.435 1437.42 402.901C1446.7 397.286 1457.36 394.479 1469.4 394.479C1487.22 394.479 1501.67 400.216 1512.74 411.69C1523.89 423.165 1529.91 438.383 1530.8 457.345L1530.93 464.303C1530.93 477.324 1528.4 488.961 1523.36 499.215C1518.39 509.469 1511.23 517.403 1501.87 523.019C1492.6 528.634 1481.85 531.441 1469.65 531.441C1451.01 531.441 1436.08 525.257 1424.85 512.887C1413.7 500.436 1408.12 483.875 1408.12 463.204V461.739ZM1437.79 464.303C1437.79 477.893 1440.59 488.554 1446.21 496.285C1451.82 503.935 1459.64 507.76 1469.65 507.76C1479.66 507.76 1487.43 503.854 1492.96 496.041C1498.58 488.229 1501.38 476.795 1501.38 461.739C1501.38 448.393 1498.5 437.813 1492.72 430.001C1487.02 422.188 1479.25 418.282 1469.4 418.282C1459.72 418.282 1452.03 422.148 1446.33 429.879C1440.63 437.529 1437.79 449.003 1437.79 464.303ZM1583.54 396.92L1584.39 412.179C1594.16 400.379 1606.98 394.479 1622.84 394.479C1650.35 394.479 1664.35 410.226 1664.84 441.72V529H1635.17V443.429C1635.17 435.047 1633.34 428.862 1629.68 424.874C1626.1 420.805 1620.2 418.771 1611.98 418.771C1600.02 418.771 1591.11 424.182 1585.25 435.006V529H1555.58V396.92H1583.54ZM1769.21 493.111C1769.21 487.822 1767.01 483.793 1762.62 481.026C1758.3 478.259 1751.1 475.818 1741.01 473.702C1730.92 471.586 1722.49 468.901 1715.74 465.646C1700.93 458.484 1693.52 448.108 1693.52 434.518C1693.52 423.124 1698.32 413.603 1707.93 405.953C1717.53 398.303 1729.74 394.479 1744.55 394.479C1760.34 394.479 1773.07 398.385 1782.76 406.197C1792.52 414.01 1797.41 424.142 1797.41 436.593H1767.74C1767.74 430.896 1765.63 426.176 1761.39 422.433C1757.16 418.608 1751.55 416.695 1744.55 416.695C1738.04 416.695 1732.71 418.201 1728.56 421.212C1724.49 424.223 1722.45 428.251 1722.45 433.297C1722.45 437.854 1724.37 441.394 1728.19 443.917C1732.02 446.44 1739.75 449.003 1751.38 451.607C1763.02 454.13 1772.14 457.182 1778.73 460.763C1785.4 464.262 1790.33 468.494 1793.5 473.458C1796.75 478.422 1798.38 484.444 1798.38 491.524C1798.38 503.406 1793.46 513.049 1783.61 520.455C1773.76 527.779 1760.87 531.441 1744.92 531.441C1734.09 531.441 1724.45 529.488 1715.98 525.582C1707.52 521.676 1700.93 516.305 1696.21 509.469C1691.49 502.633 1689.13 495.268 1689.13 487.374H1717.94C1718.34 494.373 1720.99 499.785 1725.87 503.609C1730.75 507.353 1737.22 509.225 1745.28 509.225C1753.09 509.225 1759.03 507.76 1763.1 504.83C1767.17 501.819 1769.21 497.913 1769.21 493.111Z" fill="url(#paint0_linear)"/>
</g>
<defs>
<filter id="filter0_bd" x="-46" y="-50" width="2231" height="988" filterUnits="userSpaceOnUse" color-interpolation-filters="sRGB">
<feFlood flood-opacity="0" result="BackgroundImageFix"/>
<feGaussianBlur in="BackgroundImage" stdDeviation="25"/>
<feComposite in2="SourceAlpha" operator="in" result="effect1_backgroundBlur"/>
<feColorMatrix in="SourceAlpha" type="matrix" values="0 0 0 0 0 0 0 0 0 0 0 0 0 0 0 0 0 0 127 0" result="hardAlpha"/>
<feOffset dy="4"/>
<feGaussianBlur stdDeviation="2"/>
<feComposite in2="hardAlpha" operator="out"/>
<feColorMatrix type="matrix" values="0 0 0 0 0 0 0 0 0 0 0 0 0 0 0 0 0 0 0.25 0"/>
<feBlend mode="normal" in2="effect1_backgroundBlur" result="effect2_dropShadow"/>
<feBlend mode="normal" in="SourceGraphic" in2="effect2_dropShadow" result="shape"/>
</filter>
<filter id="filter1_d" x="329.764" y="336.749" width="1478.62" height="233.013" filterUnits="userSpaceOnUse" color-interpolation-filters="sRGB">
<feFlood flood-opacity="0" result="BackgroundImageFix"/>
<feColorMatrix in="SourceAlpha" type="matrix" values="0 0 0 0 0 0 0 0 0 0 0 0 0 0 0 0 0 0 127 0" result="hardAlpha"/>
<feOffset/>
<feGaussianBlur stdDeviation="5"/>
<feComposite in2="hardAlpha" operator="out"/>
<feColorMatrix type="matrix" values="0 0 0 0 0.258824 0 0 0 0 0.258824 0 0 0 0 0.258824 0 0 0 0.75 0"/>
<feBlend mode="normal" in2="BackgroundImageFix" result="effect1_dropShadow"/>
<feBlend mode="normal" in="SourceGraphic" in2="effect1_dropShadow" result="shape"/>
</filter>
<linearGradient id="paint0_linear" x1="270" y1="97.9652" x2="2047.65" y2="178.533" gradientUnits="userSpaceOnUse">
<stop stop-color="#BDD96B"/>
<stop offset="1" stop-color="#A1CC65"/>
</linearGradient>
</defs>
</svg>
