<svg width="3396" height="896" viewBox="0 0 3396 896" fill="none" xmlns="http://www.w3.org/2000/svg">
<g filter="url(#filter0_bd)">
<rect x="4" width="3388" height="888" rx="100" fill="white" fill-opacity="0.65" shape-rendering="crispEdges"/>
</g>
<path d="M894.545 775.117H846.132L835.146 805H825.697L866.054 698.359H874.623L914.979 805H905.604L894.545 775.117ZM848.915 767.427H891.688L870.302 709.346L848.915 767.427ZM938.49 805H929.701V692.5H938.49V805ZM972.182 805H963.393V692.5H972.182V805ZM1057.66 792.402L1080.8 725.752H1090.25L1056.41 818.477L1054.65 822.578C1050.31 832.197 1043.59 837.007 1034.51 837.007C1032.41 837.007 1030.17 836.665 1027.77 835.981L1027.7 828.73L1032.24 829.17C1036.54 829.17 1040 828.096 1042.64 825.947C1045.33 823.848 1047.6 820.21 1049.45 815.034L1053.33 804.341L1023.45 725.752H1033.05L1057.66 792.402ZM1097.87 764.204C1097.87 756.587 1099.33 749.727 1102.26 743.623C1105.24 737.52 1109.41 732.783 1114.78 729.414C1120.2 725.996 1126.33 724.287 1133.17 724.287C1143.71 724.287 1152.26 727.998 1158.8 735.42C1165.35 742.793 1168.62 752.583 1168.62 764.79V766.621C1168.62 774.287 1167.13 781.196 1164.15 787.349C1161.22 793.452 1157.07 798.164 1151.7 801.484C1146.33 804.805 1140.2 806.465 1133.31 806.465C1122.82 806.465 1114.27 802.778 1107.68 795.405C1101.14 787.983 1097.87 778.169 1097.87 765.962V764.204ZM1106.65 766.621C1106.65 776.094 1109.1 783.882 1113.98 789.985C1118.91 796.04 1125.36 799.067 1133.31 799.067C1141.22 799.067 1147.62 796.04 1152.5 789.985C1157.44 783.882 1159.9 775.85 1159.9 765.889V764.204C1159.9 758.149 1158.78 752.607 1156.53 747.578C1154.29 742.549 1151.14 738.667 1147.08 735.933C1143.03 733.149 1138.39 731.758 1133.17 731.758C1125.36 731.758 1118.98 734.834 1114.05 740.986C1109.12 747.09 1106.65 755.098 1106.65 765.01V766.621ZM1237.76 794.966C1232.48 802.632 1224.06 806.465 1212.49 806.465C1204.04 806.465 1197.62 804.023 1193.23 799.141C1188.83 794.209 1186.59 786.934 1186.49 777.314V725.752H1195.2V776.216C1195.2 791.304 1201.31 798.848 1213.51 798.848C1226.21 798.848 1234.24 793.599 1237.61 783.101V725.752H1246.4V805H1237.9L1237.76 794.966ZM1305.87 733.223C1304.02 732.881 1302.04 732.71 1299.94 732.71C1294.47 732.71 1289.83 734.248 1286.02 737.324C1282.26 740.352 1279.58 744.771 1277.97 750.581V805H1269.25V725.752H1277.82L1277.97 738.35C1282.61 728.975 1290.05 724.287 1300.31 724.287C1302.75 724.287 1304.68 724.604 1306.09 725.239L1305.87 733.223ZM1392.88 733.223C1391.03 732.881 1389.05 732.71 1386.95 732.71C1381.48 732.71 1376.84 734.248 1373.04 737.324C1369.28 740.352 1366.59 744.771 1364.98 750.581V805H1356.26V725.752H1364.83L1364.98 738.35C1369.62 728.975 1377.06 724.287 1387.32 724.287C1389.76 724.287 1391.69 724.604 1393.1 725.239L1392.88 733.223ZM1436.02 806.465C1429.29 806.465 1423.18 804.805 1417.71 801.484C1412.29 798.164 1408.07 793.55 1405.04 787.642C1402.02 781.685 1400.5 775.02 1400.5 767.646V764.497C1400.5 756.88 1401.97 750.02 1404.9 743.916C1407.88 737.812 1412 733.027 1417.27 729.561C1422.55 726.045 1428.26 724.287 1434.41 724.287C1444.03 724.287 1451.65 727.583 1457.26 734.175C1462.93 740.718 1465.76 749.678 1465.76 761.055V765.962H1409.22V767.646C1409.22 776.631 1411.78 784.126 1416.91 790.132C1422.08 796.089 1428.58 799.067 1436.39 799.067C1441.08 799.067 1445.2 798.213 1448.77 796.504C1452.38 794.795 1455.65 792.061 1458.58 788.301L1464.08 792.476C1457.63 801.802 1448.28 806.465 1436.02 806.465ZM1434.41 731.758C1427.82 731.758 1422.25 734.175 1417.71 739.009C1413.22 743.843 1410.49 750.337 1409.51 758.491H1457.04V757.539C1456.8 749.922 1454.63 743.721 1450.53 738.936C1446.42 734.15 1441.05 731.758 1434.41 731.758ZM1530.29 784.858C1530.29 780.513 1528.53 777.021 1525.01 774.385C1521.55 771.748 1516.3 769.697 1509.27 768.232C1502.24 766.719 1496.77 765.01 1492.86 763.105C1489 761.152 1486.12 758.784 1484.22 756.001C1482.36 753.218 1481.43 749.849 1481.43 745.894C1481.43 739.644 1484.05 734.492 1489.27 730.439C1494.5 726.338 1501.19 724.287 1509.34 724.287C1518.18 724.287 1525.26 726.484 1530.58 730.879C1535.95 735.225 1538.64 740.913 1538.64 747.944H1529.85C1529.85 743.306 1527.89 739.448 1523.99 736.372C1520.13 733.296 1515.25 731.758 1509.34 731.758C1503.58 731.758 1498.94 733.052 1495.42 735.64C1491.96 738.179 1490.22 741.499 1490.22 745.601C1490.22 749.556 1491.66 752.632 1494.54 754.829C1497.47 756.978 1502.77 758.955 1510.44 760.762C1518.15 762.568 1523.92 764.497 1527.72 766.548C1531.58 768.599 1534.44 771.064 1536.29 773.945C1538.15 776.826 1539.08 780.317 1539.08 784.419C1539.08 791.108 1536.37 796.455 1530.95 800.459C1525.58 804.463 1518.54 806.465 1509.85 806.465C1500.62 806.465 1493.13 804.243 1487.37 799.8C1481.65 795.308 1478.8 789.644 1478.8 782.808H1487.59C1487.93 787.935 1490.08 791.938 1494.03 794.819C1498.04 797.651 1503.31 799.067 1509.85 799.067C1515.96 799.067 1520.89 797.725 1524.65 795.039C1528.41 792.354 1530.29 788.96 1530.29 784.858ZM1622.57 766.182C1622.57 778.535 1619.84 788.35 1614.37 795.625C1608.9 802.852 1601.58 806.465 1592.4 806.465C1581.56 806.465 1573.26 802.656 1567.49 795.039V835.469H1558.78V725.752H1566.91L1567.35 736.958C1573.06 728.511 1581.34 724.287 1592.18 724.287C1601.65 724.287 1609.07 727.876 1614.44 735.054C1619.86 742.231 1622.57 752.192 1622.57 764.937V766.182ZM1613.78 764.644C1613.78 754.536 1611.71 746.553 1607.56 740.693C1603.41 734.834 1597.62 731.904 1590.2 731.904C1584.83 731.904 1580.21 733.198 1576.36 735.786C1572.5 738.374 1569.54 742.134 1567.49 747.065V785.078C1569.59 789.619 1572.6 793.086 1576.5 795.479C1580.41 797.871 1585.02 799.067 1590.35 799.067C1597.72 799.067 1603.46 796.138 1607.56 790.278C1611.71 784.37 1613.78 775.825 1613.78 764.644ZM1637.22 764.204C1637.22 756.587 1638.69 749.727 1641.62 743.623C1644.59 737.52 1648.77 732.783 1654.14 729.414C1659.56 725.996 1665.69 724.287 1672.52 724.287C1683.07 724.287 1691.62 727.998 1698.16 735.42C1704.7 742.793 1707.97 752.583 1707.97 764.79V766.621C1707.97 774.287 1706.48 781.196 1703.5 787.349C1700.58 793.452 1696.42 798.164 1691.05 801.484C1685.68 804.805 1679.55 806.465 1672.67 806.465C1662.17 806.465 1653.63 802.778 1647.04 795.405C1640.49 787.983 1637.22 778.169 1637.22 765.962V764.204ZM1646.01 766.621C1646.01 776.094 1648.45 783.882 1653.33 789.985C1658.27 796.04 1664.71 799.067 1672.67 799.067C1680.58 799.067 1686.98 796.04 1691.86 789.985C1696.79 783.882 1699.26 775.85 1699.26 765.889V764.204C1699.26 758.149 1698.13 752.607 1695.89 747.578C1693.64 742.549 1690.49 738.667 1686.44 735.933C1682.39 733.149 1677.75 731.758 1672.52 731.758C1664.71 731.758 1658.34 734.834 1653.41 740.986C1648.48 747.09 1646.01 755.098 1646.01 765.01V766.621ZM1734.49 725.752L1734.78 739.302C1737.76 734.419 1741.47 730.708 1745.91 728.169C1750.36 725.581 1755.26 724.287 1760.63 724.287C1769.13 724.287 1775.45 726.68 1779.6 731.465C1783.75 736.25 1785.85 743.428 1785.9 752.998V805H1777.19V752.925C1777.14 745.845 1775.62 740.571 1772.65 737.104C1769.72 733.638 1765 731.904 1758.51 731.904C1753.09 731.904 1748.28 733.613 1744.08 737.031C1739.93 740.4 1736.85 744.966 1734.85 750.728V805H1726.14V725.752H1734.49ZM1856.07 784.858C1856.07 780.513 1854.31 777.021 1850.79 774.385C1847.33 771.748 1842.08 769.697 1835.05 768.232C1828.02 766.719 1822.55 765.01 1818.64 763.105C1814.78 761.152 1811.9 758.784 1810 756.001C1808.14 753.218 1807.22 749.849 1807.22 745.894C1807.22 739.644 1809.83 734.492 1815.05 730.439C1820.28 726.338 1826.97 724.287 1835.12 724.287C1843.96 724.287 1851.04 726.484 1856.36 730.879C1861.73 735.225 1864.42 740.913 1864.42 747.944H1855.63C1855.63 743.306 1853.68 739.448 1849.77 736.372C1845.91 733.296 1841.03 731.758 1835.12 731.758C1829.36 731.758 1824.72 733.052 1821.21 735.64C1817.74 738.179 1816 741.499 1816 745.601C1816 749.556 1817.45 752.632 1820.33 754.829C1823.26 756.978 1828.55 758.955 1836.22 760.762C1843.93 762.568 1849.7 764.497 1853.5 766.548C1857.36 768.599 1860.22 771.064 1862.07 773.945C1863.93 776.826 1864.86 780.317 1864.86 784.419C1864.86 791.108 1862.15 796.455 1856.73 800.459C1851.36 804.463 1844.33 806.465 1835.63 806.465C1826.41 806.465 1818.91 804.243 1813.15 799.8C1807.44 795.308 1804.58 789.644 1804.58 782.808H1813.37C1813.71 787.935 1815.86 791.938 1819.81 794.819C1823.82 797.651 1829.09 799.067 1835.63 799.067C1841.74 799.067 1846.67 797.725 1850.43 795.039C1854.19 792.354 1856.07 788.96 1856.07 784.858ZM1915.32 806.465C1908.58 806.465 1902.48 804.805 1897.01 801.484C1891.59 798.164 1887.37 793.55 1884.34 787.642C1881.31 781.685 1879.8 775.02 1879.8 767.646V764.497C1879.8 756.88 1881.26 750.02 1884.19 743.916C1887.17 737.812 1891.3 733.027 1896.57 729.561C1901.84 726.045 1907.56 724.287 1913.71 724.287C1923.33 724.287 1930.95 727.583 1936.56 734.175C1942.23 740.718 1945.06 749.678 1945.06 761.055V765.962H1888.51V767.646C1888.51 776.631 1891.08 784.126 1896.21 790.132C1901.38 796.089 1907.88 799.067 1915.69 799.067C1920.38 799.067 1924.5 798.213 1928.07 796.504C1931.68 794.795 1934.95 792.061 1937.88 788.301L1943.37 792.476C1936.93 801.802 1927.58 806.465 1915.32 806.465ZM1913.71 731.758C1907.12 731.758 1901.55 734.175 1897.01 739.009C1892.52 743.843 1889.78 750.337 1888.81 758.491H1936.34V757.539C1936.1 749.922 1933.92 743.721 1929.82 738.936C1925.72 734.15 1920.35 731.758 1913.71 731.758ZM2009.58 784.858C2009.58 780.513 2007.83 777.021 2004.31 774.385C2000.84 771.748 1995.59 769.697 1988.56 768.232C1981.53 766.719 1976.06 765.01 1972.16 763.105C1968.3 761.152 1965.42 758.784 1963.51 756.001C1961.66 753.218 1960.73 749.849 1960.73 745.894C1960.73 739.644 1963.34 734.492 1968.57 730.439C1973.79 726.338 1980.48 724.287 1988.64 724.287C1997.47 724.287 2004.55 726.484 2009.88 730.879C2015.25 735.225 2017.93 740.913 2017.93 747.944H2009.14C2009.14 743.306 2007.19 739.448 2003.29 736.372C1999.43 733.296 1994.54 731.758 1988.64 731.758C1982.88 731.758 1978.24 733.052 1974.72 735.64C1971.25 738.179 1969.52 741.499 1969.52 745.601C1969.52 749.556 1970.96 752.632 1973.84 754.829C1976.77 756.978 1982.07 758.955 1989.74 760.762C1997.45 762.568 2003.21 764.497 2007.02 766.548C2010.88 768.599 2013.73 771.064 2015.59 773.945C2017.45 776.826 2018.37 780.317 2018.37 784.419C2018.37 791.108 2015.66 796.455 2010.24 800.459C2004.87 804.463 1997.84 806.465 1989.15 806.465C1979.92 806.465 1972.43 804.243 1966.66 799.8C1960.95 795.308 1958.09 789.644 1958.09 782.808H1966.88C1967.23 787.935 1969.37 791.938 1973.33 794.819C1977.33 797.651 1982.61 799.067 1989.15 799.067C1995.25 799.067 2000.18 797.725 2003.94 795.039C2007.7 792.354 2009.58 788.96 2009.58 784.858ZM2084.44 805H2075.65V725.752H2084.44V805ZM2074.11 702.827C2074.11 701.167 2074.65 699.775 2075.72 698.652C2076.8 697.48 2078.26 696.895 2080.12 696.895C2081.97 696.895 2083.44 697.48 2084.51 698.652C2085.63 699.775 2086.2 701.167 2086.2 702.827C2086.2 704.487 2085.63 705.879 2084.51 707.002C2083.44 708.125 2081.97 708.687 2080.12 708.687C2078.26 708.687 2076.8 708.125 2075.72 707.002C2074.65 705.879 2074.11 704.487 2074.11 702.827ZM2116.66 725.752L2116.96 739.302C2119.94 734.419 2123.65 730.708 2128.09 728.169C2132.53 725.581 2137.44 724.287 2142.81 724.287C2151.31 724.287 2157.63 726.68 2161.78 731.465C2165.93 736.25 2168.03 743.428 2168.08 752.998V805H2159.36V752.925C2159.32 745.845 2157.8 740.571 2154.82 737.104C2151.89 733.638 2147.18 731.904 2140.69 731.904C2135.27 731.904 2130.46 733.613 2126.26 737.031C2122.11 740.4 2119.03 744.966 2117.03 750.728V805H2108.31V725.752H2116.66ZM2222.43 764.204C2222.43 756.587 2223.89 749.727 2226.82 743.623C2229.8 737.52 2233.97 732.783 2239.34 729.414C2244.76 725.996 2250.89 724.287 2257.73 724.287C2268.28 724.287 2276.82 727.998 2283.36 735.42C2289.91 742.793 2293.18 752.583 2293.18 764.79V766.621C2293.18 774.287 2291.69 781.196 2288.71 787.349C2285.78 793.452 2281.63 798.164 2276.26 801.484C2270.89 804.805 2264.76 806.465 2257.88 806.465C2247.38 806.465 2238.83 802.778 2232.24 795.405C2225.7 787.983 2222.43 778.169 2222.43 765.962V764.204ZM2231.21 766.621C2231.21 776.094 2233.66 783.882 2238.54 789.985C2243.47 796.04 2249.92 799.067 2257.88 799.067C2265.79 799.067 2272.18 796.04 2277.06 789.985C2282 783.882 2284.46 775.85 2284.46 765.889V764.204C2284.46 758.149 2283.34 752.607 2281.09 747.578C2278.85 742.549 2275.7 738.667 2271.64 735.933C2267.59 733.149 2262.95 731.758 2257.73 731.758C2249.92 731.758 2243.54 734.834 2238.61 740.986C2233.68 747.09 2231.21 755.098 2231.21 765.01V766.621ZM2319.69 725.752L2319.98 739.302C2322.96 734.419 2326.67 730.708 2331.12 728.169C2335.56 725.581 2340.47 724.287 2345.84 724.287C2354.33 724.287 2360.66 726.68 2364.81 731.465C2368.96 736.25 2371.06 743.428 2371.11 752.998V805H2362.39V752.925C2362.34 745.845 2360.83 740.571 2357.85 737.104C2354.92 733.638 2350.21 731.904 2343.71 731.904C2338.29 731.904 2333.49 733.613 2329.29 737.031C2325.14 740.4 2322.06 744.966 2320.06 750.728V805H2311.34V725.752H2319.69ZM2424.5 806.465C2417.76 806.465 2411.66 804.805 2406.19 801.484C2400.77 798.164 2396.55 793.55 2393.52 787.642C2390.49 781.685 2388.98 775.02 2388.98 767.646V764.497C2388.98 756.88 2390.44 750.02 2393.37 743.916C2396.35 737.812 2400.48 733.027 2405.75 729.561C2411.02 726.045 2416.74 724.287 2422.89 724.287C2432.51 724.287 2440.13 727.583 2445.74 734.175C2451.41 740.718 2454.24 749.678 2454.24 761.055V765.962H2397.69V767.646C2397.69 776.631 2400.26 784.126 2405.38 790.132C2410.56 796.089 2417.05 799.067 2424.87 799.067C2429.55 799.067 2433.68 798.213 2437.25 796.504C2440.86 794.795 2444.13 792.061 2447.06 788.301L2452.55 792.476C2446.11 801.802 2436.76 806.465 2424.5 806.465ZM2422.89 731.758C2416.3 731.758 2410.73 734.175 2406.19 739.009C2401.7 743.843 2398.96 750.337 2397.99 758.491H2445.52V757.539C2445.28 749.922 2443.1 743.721 2439 738.936C2434.9 734.15 2429.53 731.758 2422.89 731.758ZM2571.5 766.182C2571.5 778.535 2568.76 788.35 2563.29 795.625C2557.83 802.852 2550.5 806.465 2541.32 806.465C2530.48 806.465 2522.18 802.656 2516.42 795.039V835.469H2507.7V725.752H2515.83L2516.27 736.958C2521.99 728.511 2530.26 724.287 2541.1 724.287C2550.58 724.287 2558 727.876 2563.37 735.054C2568.79 742.231 2571.5 752.192 2571.5 764.937V766.182ZM2562.71 764.644C2562.71 754.536 2560.63 746.553 2556.48 740.693C2552.33 734.834 2546.55 731.904 2539.12 731.904C2533.75 731.904 2529.14 733.198 2525.28 735.786C2521.42 738.374 2518.47 742.134 2516.42 747.065V785.078C2518.52 789.619 2521.52 793.086 2525.43 795.479C2529.33 797.871 2533.95 799.067 2539.27 799.067C2546.64 799.067 2552.38 796.138 2556.48 790.278C2560.63 784.37 2562.71 775.825 2562.71 764.644ZM2600.79 805H2592.01V692.5H2600.79V805ZM2674.7 805C2673.82 802.51 2673.26 798.823 2673.01 793.94C2669.94 797.944 2666 801.045 2661.22 803.242C2656.48 805.391 2651.45 806.465 2646.13 806.465C2638.51 806.465 2632.34 804.341 2627.6 800.093C2622.91 795.845 2620.57 790.474 2620.57 783.979C2620.57 776.265 2623.77 770.161 2630.17 765.669C2636.61 761.177 2645.57 758.931 2657.04 758.931H2672.94V749.922C2672.94 744.258 2671.18 739.814 2667.67 736.592C2664.2 733.32 2659.12 731.685 2652.43 731.685C2646.33 731.685 2641.27 733.247 2637.27 736.372C2633.27 739.497 2631.26 743.257 2631.26 747.651L2622.47 747.578C2622.47 741.279 2625.4 735.835 2631.26 731.245C2637.12 726.606 2644.33 724.287 2652.87 724.287C2661.71 724.287 2668.67 726.509 2673.74 730.952C2678.87 735.347 2681.51 741.499 2681.65 749.409V786.909C2681.65 794.575 2682.46 800.312 2684.07 804.121V805H2674.7ZM2647.16 798.701C2653.02 798.701 2658.24 797.285 2662.83 794.453C2667.47 791.621 2670.84 787.837 2672.94 783.101V765.669H2657.26C2648.52 765.767 2641.69 767.378 2636.76 770.503C2631.83 773.579 2629.36 777.827 2629.36 783.247C2629.36 787.69 2631 791.377 2634.27 794.307C2637.59 797.236 2641.88 798.701 2647.16 798.701ZM2734.39 799.067C2740.49 799.067 2745.59 797.358 2749.7 793.94C2753.85 790.474 2756.09 786.006 2756.43 780.537H2764.86C2764.61 785.371 2763.1 789.79 2760.32 793.794C2757.53 797.749 2753.82 800.85 2749.18 803.096C2744.59 805.342 2739.66 806.465 2734.39 806.465C2723.99 806.465 2715.74 802.852 2709.63 795.625C2703.58 788.398 2700.55 778.682 2700.55 766.475V763.838C2700.55 756.025 2701.92 749.116 2704.65 743.11C2707.39 737.104 2711.29 732.466 2716.37 729.194C2721.5 725.923 2727.48 724.287 2734.32 724.287C2743.01 724.287 2750.16 726.875 2755.78 732.051C2761.44 737.227 2764.47 744.038 2764.86 752.485H2756.43C2756.04 746.284 2753.8 741.279 2749.7 737.471C2745.64 733.662 2740.52 731.758 2734.32 731.758C2726.41 731.758 2720.25 734.614 2715.86 740.327C2711.51 746.04 2709.34 754.048 2709.34 764.351V766.914C2709.34 777.021 2711.51 784.907 2715.86 790.571C2720.25 796.235 2726.43 799.067 2734.39 799.067ZM2813.12 806.465C2806.39 806.465 2800.28 804.805 2794.81 801.484C2789.39 798.164 2785.17 793.55 2782.14 787.642C2779.12 781.685 2777.6 775.02 2777.6 767.646V764.497C2777.6 756.88 2779.07 750.02 2782 743.916C2784.97 737.812 2789.1 733.027 2794.37 729.561C2799.65 726.045 2805.36 724.287 2811.51 724.287C2821.13 724.287 2828.75 727.583 2834.36 734.175C2840.03 740.718 2842.86 749.678 2842.86 761.055V765.962H2786.32V767.646C2786.32 776.631 2788.88 784.126 2794.01 790.132C2799.18 796.089 2805.68 799.067 2813.49 799.067C2818.18 799.067 2822.3 798.213 2825.87 796.504C2829.48 794.795 2832.75 792.061 2835.68 788.301L2841.18 792.476C2834.73 801.802 2825.38 806.465 2813.12 806.465ZM2811.51 731.758C2804.92 731.758 2799.35 734.175 2794.81 739.009C2790.32 743.843 2787.59 750.337 2786.61 758.491H2834.14V757.539C2833.9 749.922 2831.73 743.721 2827.63 738.936C2823.52 734.15 2818.15 731.758 2811.51 731.758Z" fill="black"/>
<g filter="url(#filter1_d)">
<rect width="727.025" height="311.788" rx="60" transform="matrix(0.97237 0.233445 0 1 2245.06 93)" stroke="url(#paint0_linear)" stroke-width="50" shape-rendering="crispEdges"/>
</g>
<g filter="url(#filter2_d)">
<rect width="727.025" height="311.788" rx="60" transform="matrix(0.97237 0.233445 0 1 1794.8 93)" stroke="url(#paint1_linear)" stroke-width="50" shape-rendering="crispEdges"/>
</g>
<g filter="url(#filter3_d)">
<rect width="727.025" height="311.788" rx="60" transform="matrix(0.97237 0.233445 0 1 1344.53 93)" stroke="url(#paint2_linear)" stroke-width="50" shape-rendering="crispEdges"/>
</g>
<g filter="url(#filter4_d)">
<rect width="727.025" height="311.788" rx="60" transform="matrix(0.97237 0.233445 0 1 894.266 93)" fill="url(#paint3_linear)"/>
<rect width="727.025" height="311.788" rx="60" transform="matrix(0.97237 0.233445 0 1 894.266 93)" stroke="url(#paint4_linear)" stroke-width="50"/>
</g>
<g filter="url(#filter5_d)">
<rect width="727.025" height="311.788" rx="60" transform="matrix(0.97237 0.233445 0 1 444 93)" stroke="url(#paint5_linear)" stroke-width="50" shape-rendering="crispEdges"/>
</g>
<defs>
<filter id="filter0_bd" x="-46" y="-50" width="3488" height="988" filterUnits="userSpaceOnUse" color-interpolation-filters="sRGB">
<feFlood flood-opacity="0" result="BackgroundImageFix"/>
<feGaussianBlur in="BackgroundImage" stdDeviation="25"/>
<feComposite in2="SourceAlpha" operator="in" result="effect1_backgroundBlur"/>
<feColorMatrix in="SourceAlpha" type="matrix" values="0 0 0 0 0 0 0 0 0 0 0 0 0 0 0 0 0 0 127 0" result="hardAlpha"/>
<feOffset dy="4"/>
<feGaussianBlur stdDeviation="2"/>
<feComposite in2="hardAlpha" operator="out"/>
<feColorMatrix type="matrix" values="0 0 0 0 0 0 0 0 0 0 0 0 0 0 0 0 0 0 0.25 0"/>
<feBlend mode="normal" in2="effect1_backgroundBlur" result="effect2_dropShadow"/>
<feBlend mode="normal" in="SourceGraphic" in2="effect2_dropShadow" result="shape"/>
</filter>
<filter id="filter1_d" x="2161.75" y="20.7021" width="873.556" height="626.105" filterUnits="userSpaceOnUse" color-interpolation-filters="sRGB">
<feFlood flood-opacity="0" result="BackgroundImageFix"/>
<feColorMatrix in="SourceAlpha" type="matrix" values="0 0 0 0 0 0 0 0 0 0 0 0 0 0 0 0 0 0 127 0" result="hardAlpha"/>
<feMorphology radius="9" operator="dilate" in="SourceAlpha" result="effect1_dropShadow"/>
<feOffset/>
<feGaussianBlur stdDeviation="25"/>
<feComposite in2="hardAlpha" operator="out"/>
<feColorMatrix type="matrix" values="0 0 0 0 0.258824 0 0 0 0 0.258824 0 0 0 0 0.258824 0 0 0 0.5 0"/>
<feBlend mode="normal" in2="BackgroundImageFix" result="effect1_dropShadow"/>
<feBlend mode="normal" in="SourceGraphic" in2="effect1_dropShadow" result="shape"/>
</filter>
<filter id="filter2_d" x="1711.49" y="20.7021" width="873.556" height="626.105" filterUnits="userSpaceOnUse" color-interpolation-filters="sRGB">
<feFlood flood-opacity="0" result="BackgroundImageFix"/>
<feColorMatrix in="SourceAlpha" type="matrix" values="0 0 0 0 0 0 0 0 0 0 0 0 0 0 0 0 0 0 127 0" result="hardAlpha"/>
<feMorphology radius="9" operator="dilate" in="SourceAlpha" result="effect1_dropShadow"/>
<feOffset/>
<feGaussianBlur stdDeviation="25"/>
<feComposite in2="hardAlpha" operator="out"/>
<feColorMatrix type="matrix" values="0 0 0 0 0.258824 0 0 0 0 0.258824 0 0 0 0 0.258824 0 0 0 0.5 0"/>
<feBlend mode="normal" in2="BackgroundImageFix" result="effect1_dropShadow"/>
<feBlend mode="normal" in="SourceGraphic" in2="effect1_dropShadow" result="shape"/>
</filter>
<filter id="filter3_d" x="1261.22" y="20.7021" width="873.556" height="626.105" filterUnits="userSpaceOnUse" color-interpolation-filters="sRGB">
<feFlood flood-opacity="0" result="BackgroundImageFix"/>
<feColorMatrix in="SourceAlpha" type="matrix" values="0 0 0 0 0 0 0 0 0 0 0 0 0 0 0 0 0 0 127 0" result="hardAlpha"/>
<feMorphology radius="9" operator="dilate" in="SourceAlpha" result="effect1_dropShadow"/>
<feOffset/>
<feGaussianBlur stdDeviation="25"/>
<feComposite in2="hardAlpha" operator="out"/>
<feColorMatrix type="matrix" values="0 0 0 0 0.258824 0 0 0 0 0.258824 0 0 0 0 0.258824 0 0 0 0.5 0"/>
<feBlend mode="normal" in2="BackgroundImageFix" result="effect1_dropShadow"/>
<feBlend mode="normal" in="SourceGraphic" in2="effect1_dropShadow" result="shape"/>
</filter>
<filter id="filter4_d" x="810.957" y="20.7021" width="873.556" height="626.105" filterUnits="userSpaceOnUse" color-interpolation-filters="sRGB">
<feFlood flood-opacity="0" result="BackgroundImageFix"/>
<feColorMatrix in="SourceAlpha" type="matrix" values="0 0 0 0 0 0 0 0 0 0 0 0 0 0 0 0 0 0 127 0" result="hardAlpha"/>
<feMorphology radius="9" operator="dilate" in="SourceAlpha" result="effect1_dropShadow"/>
<feOffset/>
<feGaussianBlur stdDeviation="25"/>
<feComposite in2="hardAlpha" operator="out"/>
<feColorMatrix type="matrix" values="0 0 0 0 0.258824 0 0 0 0 0.258824 0 0 0 0 0.258824 0 0 0 0.5 0"/>
<feBlend mode="normal" in2="BackgroundImageFix" result="effect1_dropShadow"/>
<feBlend mode="normal" in="SourceGraphic" in2="effect1_dropShadow" result="shape"/>
</filter>
<filter id="filter5_d" x="360.691" y="20.7021" width="873.556" height="626.105" filterUnits="userSpaceOnUse" color-interpolation-filters="sRGB">
<feFlood flood-opacity="0" result="BackgroundImageFix"/>
<feColorMatrix in="SourceAlpha" type="matrix" values="0 0 0 0 0 0 0 0 0 0 0 0 0 0 0 0 0 0 127 0" result="hardAlpha"/>
<feMorphology radius="9" operator="dilate" in="SourceAlpha" result="effect1_dropShadow"/>
<feOffset/>
<feGaussianBlur stdDeviation="25"/>
<feComposite in2="hardAlpha" operator="out"/>
<feColorMatrix type="matrix" values="0 0 0 0 0.258824 0 0 0 0 0.258824 0 0 0 0 0.258824 0 0 0 0.5 0"/>
<feBlend mode="normal" in2="BackgroundImageFix" result="effect1_dropShadow"/>
<feBlend mode="normal" in="SourceGraphic" in2="effect1_dropShadow" result="shape"/>
</filter>
<linearGradient id="paint0_linear" x1="3.0037e-05" y1="-7.7497" x2="667.482" y2="407.834" gradientUnits="userSpaceOnUse">
<stop stop-color="#D46899"/>
<stop offset="1" stop-color="#BF5E9F"/>
</linearGradient>
<linearGradient id="paint1_linear" x1="3.0037e-05" y1="-7.7497" x2="667.482" y2="407.834" gradientUnits="userSpaceOnUse">
<stop stop-color="#D46899"/>
<stop offset="1" stop-color="#BF5E9F"/>
</linearGradient>
<linearGradient id="paint2_linear" x1="3.0037e-05" y1="-7.7497" x2="667.482" y2="407.834" gradientUnits="userSpaceOnUse">
<stop stop-color="#D46899"/>
<stop offset="1" stop-color="#BF5E9F"/>
</linearGradient>
<linearGradient id="paint3_linear" x1="0" y1="0" x2="567.74" y2="502.51" gradientUnits="userSpaceOnUse">
<stop stop-color="#D46899"/>
<stop offset="1" stop-color="#BF5E9F"/>
</linearGradient>
<linearGradient id="paint4_linear" x1="3.0037e-05" y1="-7.7497" x2="667.482" y2="407.834" gradientUnits="userSpaceOnUse">
<stop stop-color="#D46899"/>
<stop offset="1" stop-color="#BF5E9F"/>
</linearGradient>
<linearGradient id="paint5_linear" x1="3.0037e-05" y1="-7.7497" x2="667.482" y2="407.834" gradientUnits="userSpaceOnUse">
<stop stop-color="#D46899"/>
<stop offset="1" stop-color="#BF5E9F"/>
</linearGradient>
</defs>
</svg>
