<svg width="1196" height="896" viewBox="0 0 1196 896" fill="none" xmlns="http://www.w3.org/2000/svg">
<g filter="url(#filter0_bd)">
<rect x="4" width="1188" height="888" rx="100" fill="white" fill-opacity="0.65" shape-rendering="crispEdges"/>
</g>
<g clip-path="url(#clip0)">
<g filter="url(#filter1_d)">
<path d="M371.007 444.101V444.11L371.007 444.143C371.006 444.194 371.005 444.284 371.004 444.411C371 444.667 370.993 445.073 370.979 445.621C370.949 446.717 370.888 448.376 370.764 450.517C370.514 454.803 370.012 460.997 369 468.456C366.968 483.447 362.926 503.193 354.972 522.746C347.009 542.322 335.374 561.095 318.498 574.924C301.853 588.563 279.379 598.009 248.348 598.009C217.316 598.009 194.843 588.563 178.198 574.924C161.321 561.095 149.686 542.322 141.723 522.746C133.769 503.193 129.728 483.447 127.695 468.456C126.683 460.997 126.181 454.803 125.932 450.517C125.807 448.376 125.747 446.717 125.717 445.621C125.702 445.073 125.695 444.667 125.692 444.411C125.69 444.284 125.689 444.194 125.689 444.143L125.689 444.11L125.689 444.101L125.689 444.098V319.056H248.348H371.007V444.096V444.101Z" stroke="#F2D478" stroke-width="27.3771" shape-rendering="crispEdges"/>
</g>
</g>
<path d="M123.222 740.763L124.54 747.574L126.298 740.396L145.341 679.752H152.812L171.635 739.884L173.686 748.233L175.37 740.543L191.63 679.752H200.712L177.641 759H170.17L149.809 696.158L148.856 691.837L147.904 696.231L127.909 759H120.438L97.4404 679.752H106.449L123.222 740.763ZM226.054 693.155C228.935 688.419 232.621 684.757 237.113 682.169C241.605 679.581 246.513 678.287 251.835 678.287C260.331 678.287 266.654 680.68 270.805 685.465C274.955 690.25 277.055 697.428 277.104 706.998V759H268.388V706.925C268.339 699.845 266.825 694.571 263.847 691.104C260.917 687.638 256.205 685.904 249.711 685.904C244.291 685.904 239.481 687.613 235.282 691.031C231.132 694.4 228.056 698.966 226.054 704.728V759H217.338V646.5H226.054V693.155ZM330.351 760.465C323.612 760.465 317.509 758.805 312.04 755.484C306.62 752.164 302.396 747.55 299.369 741.642C296.342 735.685 294.828 729.02 294.828 721.646V718.497C294.828 710.88 296.293 704.02 299.223 697.916C302.201 691.812 306.327 687.027 311.601 683.561C316.874 680.045 322.587 678.287 328.739 678.287C338.358 678.287 345.976 681.583 351.591 688.175C357.255 694.718 360.087 703.678 360.087 715.055V719.962H303.544V721.646C303.544 730.631 306.107 738.126 311.234 744.132C316.41 750.089 322.904 753.067 330.717 753.067C335.404 753.067 339.53 752.213 343.095 750.504C346.708 748.795 349.979 746.061 352.909 742.301L358.402 746.476C351.957 755.802 342.606 760.465 330.351 760.465ZM328.739 685.758C322.147 685.758 316.581 688.175 312.04 693.009C307.548 697.843 304.813 704.337 303.837 712.491H351.371V711.539C351.127 703.922 348.954 697.721 344.853 692.936C340.751 688.15 335.38 685.758 328.739 685.758ZM385.502 679.752L385.795 693.302C388.773 688.419 392.484 684.708 396.928 682.169C401.371 679.581 406.278 678.287 411.649 678.287C420.146 678.287 426.469 680.68 430.619 685.465C434.77 690.25 436.869 697.428 436.918 706.998V759H428.202V706.925C428.153 699.845 426.64 694.571 423.661 691.104C420.731 687.638 416.02 685.904 409.525 685.904C404.105 685.904 399.296 687.613 395.097 691.031C390.946 694.4 387.87 698.966 385.868 704.728V759H377.152V679.752H385.502ZM525.395 753.067C531.498 753.067 536.601 751.358 540.702 747.94C544.853 744.474 547.099 740.006 547.44 734.537H555.863C555.619 739.371 554.105 743.79 551.322 747.794C548.539 751.749 544.828 754.85 540.189 757.096C535.6 759.342 530.668 760.465 525.395 760.465C514.994 760.465 506.742 756.852 500.639 749.625C494.584 742.398 491.557 732.682 491.557 720.475V717.838C491.557 710.025 492.924 703.116 495.658 697.11C498.393 691.104 502.299 686.466 507.377 683.194C512.504 679.923 518.485 678.287 525.321 678.287C534.013 678.287 541.166 680.875 546.781 686.051C552.445 691.227 555.473 698.038 555.863 706.485H547.44C547.05 700.284 544.804 695.279 540.702 691.471C536.649 687.662 531.522 685.758 525.321 685.758C517.411 685.758 511.259 688.614 506.864 694.327C502.519 700.04 500.346 708.048 500.346 718.351V720.914C500.346 731.021 502.519 738.907 506.864 744.571C511.259 750.235 517.436 753.067 525.395 753.067ZM568.607 718.204C568.607 710.587 570.072 703.727 573.002 697.623C575.98 691.52 580.155 686.783 585.526 683.414C590.946 679.996 597.074 678.287 603.91 678.287C614.457 678.287 623.002 681.998 629.545 689.42C636.088 696.793 639.359 706.583 639.359 718.79V720.621C639.359 728.287 637.87 735.196 634.892 741.349C631.962 747.452 627.812 752.164 622.44 755.484C617.069 758.805 610.941 760.465 604.057 760.465C593.559 760.465 585.014 756.778 578.422 749.405C571.879 741.983 568.607 732.169 568.607 719.962V718.204ZM577.396 720.621C577.396 730.094 579.838 737.882 584.721 743.985C589.652 750.04 596.098 753.067 604.057 753.067C611.967 753.067 618.363 750.04 623.246 743.985C628.178 737.882 630.644 729.85 630.644 719.889V718.204C630.644 712.149 629.521 706.607 627.274 701.578C625.028 696.549 621.879 692.667 617.826 689.933C613.773 687.149 609.135 685.758 603.91 685.758C596.098 685.758 589.726 688.834 584.794 694.986C579.862 701.09 577.396 709.098 577.396 719.01V720.621ZM665.507 679.752L665.8 692.643C668.729 687.857 672.392 684.269 676.786 681.876C681.181 679.483 686.063 678.287 691.435 678.287C703.935 678.287 711.869 683.414 715.238 693.668C718.07 688.736 721.854 684.952 726.591 682.315C731.327 679.63 736.552 678.287 742.265 678.287C759.257 678.287 767.924 687.564 768.266 706.119V759H759.477V706.778C759.428 699.698 757.89 694.449 754.862 691.031C751.884 687.613 747.001 685.904 740.214 685.904C733.915 686.002 728.593 688.053 724.247 692.057C719.901 696.012 717.484 700.846 716.996 706.559V759H708.207V706.119C708.158 699.332 706.547 694.278 703.373 690.958C700.248 687.589 695.414 685.904 688.871 685.904C683.354 685.904 678.617 687.491 674.662 690.665C670.707 693.79 667.777 698.453 665.873 704.654V759H657.084V679.752H665.507ZM854.252 720.182C854.252 732.535 851.518 742.35 846.049 749.625C840.58 756.852 833.256 760.465 824.076 760.465C813.236 760.465 804.936 756.656 799.174 749.039V789.469H790.458V679.752H798.588L799.027 690.958C804.74 682.511 813.017 678.287 823.856 678.287C833.329 678.287 840.751 681.876 846.122 689.054C851.542 696.231 854.252 706.192 854.252 718.937V720.182ZM845.463 718.644C845.463 708.536 843.388 700.553 839.237 694.693C835.087 688.834 829.301 685.904 821.879 685.904C816.508 685.904 811.894 687.198 808.036 689.786C804.179 692.374 801.225 696.134 799.174 701.065V739.078C801.273 743.619 804.276 747.086 808.183 749.479C812.089 751.871 816.703 753.067 822.025 753.067C829.398 753.067 835.136 750.138 839.237 744.278C843.388 738.37 845.463 729.825 845.463 718.644ZM883.549 759H874.76V646.5H883.549V759ZM938.114 760.465C931.376 760.465 925.272 758.805 919.804 755.484C914.384 752.164 910.16 747.55 907.133 741.642C904.105 735.685 902.592 729.02 902.592 721.646V718.497C902.592 710.88 904.057 704.02 906.986 697.916C909.965 691.812 914.091 687.027 919.364 683.561C924.638 680.045 930.351 678.287 936.503 678.287C946.122 678.287 953.739 681.583 959.354 688.175C965.019 694.718 967.851 703.678 967.851 715.055V719.962H911.308V721.646C911.308 730.631 913.871 738.126 918.998 744.132C924.174 750.089 930.668 753.067 938.48 753.067C943.168 753.067 947.294 752.213 950.858 750.504C954.472 748.795 957.743 746.061 960.673 742.301L966.166 746.476C959.721 755.802 950.37 760.465 938.114 760.465ZM936.503 685.758C929.911 685.758 924.345 688.175 919.804 693.009C915.312 697.843 912.577 704.337 911.601 712.491H959.135V711.539C958.891 703.922 956.718 697.721 952.616 692.936C948.515 688.15 943.144 685.758 936.503 685.758ZM998.539 659.464V679.752H1014.95V686.93H998.539V739.737C998.539 744.132 999.32 747.403 1000.88 749.552C1002.49 751.7 1005.16 752.774 1008.87 752.774C1010.33 752.774 1012.7 752.53 1015.97 752.042L1016.34 759.22C1014.04 760.05 1010.92 760.465 1006.96 760.465C1000.96 760.465 996.586 758.731 993.852 755.265C991.117 751.749 989.75 746.598 989.75 739.811V686.93H975.175V679.752H989.75V659.464H998.539ZM1063.8 760.465C1057.06 760.465 1050.96 758.805 1045.49 755.484C1040.07 752.164 1035.84 747.55 1032.82 741.642C1029.79 735.685 1028.28 729.02 1028.28 721.646V718.497C1028.28 710.88 1029.74 704.02 1032.67 697.916C1035.65 691.812 1039.77 687.027 1045.05 683.561C1050.32 680.045 1056.03 678.287 1062.19 678.287C1071.81 678.287 1079.42 681.583 1085.04 688.175C1090.7 694.718 1093.53 703.678 1093.53 715.055V719.962H1036.99V721.646C1036.99 730.631 1039.55 738.126 1044.68 744.132C1049.86 750.089 1056.35 753.067 1064.16 753.067C1068.85 753.067 1072.98 752.213 1076.54 750.504C1080.16 748.795 1083.43 746.061 1086.36 742.301L1091.85 746.476C1085.4 755.802 1076.05 760.465 1063.8 760.465ZM1062.19 685.758C1055.59 685.758 1050.03 688.175 1045.49 693.009C1041 697.843 1038.26 704.337 1037.28 712.491H1084.82V711.539C1084.57 703.922 1082.4 697.721 1078.3 692.936C1074.2 688.15 1068.83 685.758 1062.19 685.758Z" fill="black"/>
<path d="M194.633 220.329C191.508 224.772 186.601 228.239 179.911 230.729C173.271 233.22 165.824 234.465 157.572 234.465C149.223 234.465 141.801 232.463 135.307 228.459C128.812 224.455 123.783 218.791 120.219 211.467C116.654 204.143 114.848 195.744 114.799 186.271V172.795C114.799 158 118.534 146.33 126.005 137.785C133.476 129.191 143.51 124.895 156.107 124.895C167.094 124.895 175.932 127.702 182.621 133.317C189.311 138.884 193.29 146.574 194.56 156.389H185.551C184.232 148.576 181.034 142.668 175.956 138.664C170.927 134.611 164.335 132.585 156.181 132.585C146.22 132.585 138.334 136.125 132.523 143.205C126.713 150.285 123.808 160.271 123.808 173.161V185.759C123.808 193.864 125.175 201.042 127.909 207.292C130.692 213.493 134.647 218.303 139.774 221.721C144.95 225.139 150.883 226.848 157.572 226.848C165.336 226.848 172.001 225.627 177.567 223.186C181.181 221.574 183.866 219.694 185.624 217.546V190.007H156.986V182.39H194.633V220.329ZM227.958 233H219.169V153.752H227.958V233ZM217.631 130.827C217.631 129.167 218.168 127.775 219.242 126.652C220.316 125.48 221.781 124.895 223.637 124.895C225.492 124.895 226.957 125.48 228.031 126.652C229.154 127.775 229.716 129.167 229.716 130.827C229.716 132.487 229.154 133.879 228.031 135.002C226.957 136.125 225.492 136.687 223.637 136.687C221.781 136.687 220.316 136.125 219.242 135.002C218.168 133.879 217.631 132.487 217.631 130.827ZM276.518 220.915L300.614 153.752H309.623L280.033 233H272.929L243.192 153.752H252.201L276.518 220.915ZM353.715 234.465C346.977 234.465 340.873 232.805 335.404 229.484C329.984 226.164 325.761 221.55 322.733 215.642C319.706 209.685 318.192 203.02 318.192 195.646V192.497C318.192 184.88 319.657 178.02 322.587 171.916C325.565 165.812 329.691 161.027 334.965 157.561C340.238 154.045 345.951 152.287 352.104 152.287C361.723 152.287 369.34 155.583 374.955 162.175C380.619 168.718 383.451 177.678 383.451 189.055V193.962H326.908V195.646C326.908 204.631 329.472 212.126 334.599 218.132C339.774 224.089 346.269 227.067 354.081 227.067C358.769 227.067 362.895 226.213 366.459 224.504C370.072 222.795 373.344 220.061 376.273 216.301L381.767 220.476C375.321 229.802 365.971 234.465 353.715 234.465ZM352.104 159.758C345.512 159.758 339.945 162.175 335.404 167.009C330.912 171.843 328.178 178.337 327.201 186.491H374.735V185.539C374.491 177.922 372.318 171.721 368.217 166.936C364.115 162.15 358.744 159.758 352.104 159.758ZM432.157 192.204C432.157 184.587 433.622 177.727 436.552 171.623C439.53 165.52 443.705 160.783 449.076 157.414C454.496 153.996 460.624 152.287 467.46 152.287C478.007 152.287 486.552 155.998 493.095 163.42C499.638 170.793 502.909 180.583 502.909 192.79V194.621C502.909 202.287 501.42 209.196 498.441 215.349C495.512 221.452 491.361 226.164 485.99 229.484C480.619 232.805 474.491 234.465 467.606 234.465C457.108 234.465 448.563 230.778 441.972 223.405C435.429 215.983 432.157 206.169 432.157 193.962V192.204ZM440.946 194.621C440.946 204.094 443.388 211.882 448.271 217.985C453.202 224.04 459.647 227.067 467.606 227.067C475.517 227.067 481.913 224.04 486.796 217.985C491.728 211.882 494.193 203.85 494.193 193.889V192.204C494.193 186.149 493.07 180.607 490.824 175.578C488.578 170.549 485.429 166.667 481.376 163.933C477.323 161.149 472.685 159.758 467.46 159.758C459.647 159.758 453.275 162.834 448.344 168.986C443.412 175.09 440.946 183.098 440.946 193.01V194.621ZM557.694 161.223C555.839 160.881 553.861 160.71 551.762 160.71C546.293 160.71 541.654 162.248 537.846 165.324C534.086 168.352 531.4 172.771 529.789 178.581V233H521.073V153.752H529.643L529.789 166.35C534.428 156.975 541.874 152.287 552.128 152.287C554.569 152.287 556.498 152.604 557.914 153.239L557.694 161.223ZM644.706 161.223C642.851 160.881 640.873 160.71 638.773 160.71C633.305 160.71 628.666 162.248 624.857 165.324C621.098 168.352 618.412 172.771 616.801 178.581V233H608.085V153.752H616.654L616.801 166.35C621.439 156.975 628.886 152.287 639.14 152.287C641.581 152.287 643.51 152.604 644.926 153.239L644.706 161.223ZM687.846 234.465C681.107 234.465 675.004 232.805 669.535 229.484C664.115 226.164 659.892 221.55 656.864 215.642C653.837 209.685 652.323 203.02 652.323 195.646V192.497C652.323 184.88 653.788 178.02 656.718 171.916C659.696 165.812 663.822 161.027 669.096 157.561C674.369 154.045 680.082 152.287 686.234 152.287C695.854 152.287 703.471 155.583 709.086 162.175C714.75 168.718 717.582 177.678 717.582 189.055V193.962H661.039V195.646C661.039 204.631 663.603 212.126 668.729 218.132C673.905 224.089 680.399 227.067 688.212 227.067C692.899 227.067 697.025 226.213 700.59 224.504C704.203 222.795 707.475 220.061 710.404 216.301L715.897 220.476C709.452 229.802 700.102 234.465 687.846 234.465ZM686.234 159.758C679.643 159.758 674.076 162.175 669.535 167.009C665.043 171.843 662.309 178.337 661.332 186.491H708.866V185.539C708.622 177.922 706.449 171.721 702.348 166.936C698.246 162.15 692.875 159.758 686.234 159.758ZM742.631 153.752L742.924 166.643C745.854 161.857 749.516 158.269 753.91 155.876C758.305 153.483 763.188 152.287 768.559 152.287C781.059 152.287 788.993 157.414 792.362 167.668C795.194 162.736 798.979 158.952 803.715 156.315C808.451 153.63 813.676 152.287 819.389 152.287C836.381 152.287 845.048 161.564 845.39 180.119V233H836.601V180.778C836.552 173.698 835.014 168.449 831.986 165.031C829.008 161.613 824.125 159.904 817.338 159.904C811.039 160.002 805.717 162.053 801.371 166.057C797.025 170.012 794.608 174.846 794.12 180.559V233H785.331V180.119C785.282 173.332 783.671 168.278 780.497 164.958C777.372 161.589 772.538 159.904 765.995 159.904C760.478 159.904 755.741 161.491 751.786 164.665C747.831 167.79 744.901 172.453 742.997 178.654V233H734.208V153.752H742.631ZM862.821 192.204C862.821 184.587 864.286 177.727 867.216 171.623C870.194 165.52 874.369 160.783 879.74 157.414C885.16 153.996 891.288 152.287 898.124 152.287C908.671 152.287 917.216 155.998 923.759 163.42C930.302 170.793 933.573 180.583 933.573 192.79V194.621C933.573 202.287 932.084 209.196 929.105 215.349C926.176 221.452 922.025 226.164 916.654 229.484C911.283 232.805 905.155 234.465 898.271 234.465C887.772 234.465 879.228 230.778 872.636 223.405C866.093 215.983 862.821 206.169 862.821 193.962V192.204ZM871.61 194.621C871.61 204.094 874.052 211.882 878.935 217.985C883.866 224.04 890.312 227.067 898.271 227.067C906.181 227.067 912.577 224.04 917.46 217.985C922.392 211.882 924.857 203.85 924.857 193.889V192.204C924.857 186.149 923.734 180.607 921.488 175.578C919.242 170.549 916.093 166.667 912.04 163.933C907.987 161.149 903.349 159.758 898.124 159.758C890.312 159.758 883.939 162.834 879.008 168.986C874.076 175.09 871.61 183.098 871.61 193.01V194.621ZM975.248 220.915L999.345 153.752H1008.35L978.764 233H971.659L941.923 153.752H950.932L975.248 220.915ZM1052.45 234.465C1045.71 234.465 1039.6 232.805 1034.13 229.484C1028.71 226.164 1024.49 221.55 1021.46 215.642C1018.44 209.685 1016.92 203.02 1016.92 195.646V192.497C1016.92 184.88 1018.39 178.02 1021.32 171.916C1024.3 165.812 1028.42 161.027 1033.7 157.561C1038.97 154.045 1044.68 152.287 1050.83 152.287C1060.45 152.287 1068.07 155.583 1073.69 162.175C1079.35 168.718 1082.18 177.678 1082.18 189.055V193.962H1025.64V195.646C1025.64 204.631 1028.2 212.126 1033.33 218.132C1038.5 224.089 1045 227.067 1052.81 227.067C1057.5 227.067 1061.62 226.213 1065.19 224.504C1068.8 222.795 1072.07 220.061 1075 216.301L1080.5 220.476C1074.05 229.802 1064.7 234.465 1052.45 234.465ZM1050.83 159.758C1044.24 159.758 1038.68 162.175 1034.13 167.009C1029.64 171.843 1026.91 178.337 1025.93 186.491H1073.47V185.539C1073.22 177.922 1071.05 171.721 1066.95 166.936C1062.85 162.15 1057.47 159.758 1050.83 159.758Z" fill="black"/>
<g filter="url(#filter2_d)">
<path d="M572.642 461.519H538.218V530H507.334V352.266H569.834C590.342 352.266 606.17 356.864 617.319 366.06C628.468 375.256 634.043 388.561 634.043 405.977C634.043 417.858 631.154 427.827 625.376 435.884C619.679 443.859 611.704 450.003 601.45 454.316L641.367 528.413V530H608.286L572.642 461.519ZM538.218 436.738H569.956C580.373 436.738 588.511 434.134 594.37 428.926C600.229 423.636 603.159 416.434 603.159 407.319C603.159 397.798 600.433 390.433 594.98 385.225C589.609 380.016 581.553 377.331 570.811 377.168H538.218V436.738ZM654.917 462.739C654.917 449.8 657.48 438.162 662.607 427.827C667.734 417.41 674.937 409.435 684.214 403.901C693.491 398.286 704.152 395.479 716.196 395.479C734.019 395.479 748.464 401.216 759.531 412.69C770.68 424.165 776.702 439.383 777.598 458.345L777.72 465.303C777.72 478.324 775.197 489.961 770.151 500.215C765.187 510.469 758.026 518.403 748.667 524.019C739.39 529.634 728.647 532.441 716.44 532.441C697.804 532.441 682.871 526.257 671.641 513.887C660.492 501.436 654.917 484.875 654.917 464.204V462.739ZM684.58 465.303C684.58 478.893 687.388 489.554 693.003 497.285C698.618 504.935 706.431 508.76 716.44 508.76C726.45 508.76 734.222 504.854 739.756 497.041C745.371 489.229 748.179 477.795 748.179 462.739C748.179 449.393 745.29 438.813 739.512 431.001C733.815 423.188 726.043 419.282 716.196 419.282C706.512 419.282 698.822 423.148 693.125 430.879C687.428 438.529 684.58 450.003 684.58 465.303ZM834.36 530H804.697V342.5H834.36V530ZM924.937 532.441C906.138 532.441 890.879 526.541 879.16 514.741C867.523 502.86 861.704 487.072 861.704 467.378V463.716C861.704 450.532 864.227 438.773 869.272 428.438C874.399 418.021 881.561 409.924 890.757 404.146C899.953 398.368 910.207 395.479 921.519 395.479C939.504 395.479 953.379 401.216 963.145 412.69C972.992 424.165 977.915 440.4 977.915 461.396V473.359H891.611C892.507 484.264 896.128 492.891 902.476 499.238C908.905 505.586 916.961 508.76 926.646 508.76C940.236 508.76 951.304 503.267 959.849 492.28L975.84 507.539C970.55 515.433 963.47 521.577 954.6 525.972C945.811 530.285 935.923 532.441 924.937 532.441ZM921.396 419.282C913.258 419.282 906.667 422.131 901.621 427.827C896.657 433.524 893.483 441.458 892.1 451.631H948.618V449.434C947.967 439.505 945.322 432.018 940.684 426.973C936.045 421.846 929.616 419.282 921.396 419.282ZM1075.08 494.111C1075.08 488.822 1072.89 484.793 1068.49 482.026C1064.18 479.259 1056.98 476.818 1046.88 474.702C1036.79 472.586 1028.37 469.901 1021.62 466.646C1006.81 459.484 999.399 449.108 999.399 435.518C999.399 424.124 1004.2 414.603 1013.8 406.953C1023.41 399.303 1035.61 395.479 1050.42 395.479C1066.21 395.479 1078.95 399.385 1088.63 407.197C1098.4 415.01 1103.28 425.142 1103.28 437.593H1073.62C1073.62 431.896 1071.5 427.176 1067.27 423.433C1063.04 419.608 1057.42 417.695 1050.42 417.695C1043.91 417.695 1038.58 419.201 1034.43 422.212C1030.36 425.223 1028.33 429.251 1028.33 434.297C1028.33 438.854 1030.24 442.394 1034.07 444.917C1037.89 447.44 1045.62 450.003 1057.26 452.607C1068.9 455.13 1078.01 458.182 1084.6 461.763C1091.28 465.262 1096.2 469.494 1099.38 474.458C1102.63 479.422 1104.26 485.444 1104.26 492.524C1104.26 504.406 1099.33 514.049 1089.49 521.455C1079.64 528.779 1066.74 532.441 1050.79 532.441C1039.97 532.441 1030.32 530.488 1021.86 526.582C1013.4 522.676 1006.81 517.305 1002.08 510.469C997.365 503.633 995.005 496.268 995.005 488.374H1023.81C1024.22 495.373 1026.87 500.785 1031.75 504.609C1036.63 508.353 1043.1 510.225 1051.16 510.225C1058.97 510.225 1064.91 508.76 1068.98 505.83C1073.05 502.819 1075.08 498.913 1075.08 494.111Z" fill="url(#paint0_linear)"/>
</g>
<defs>
<filter id="filter0_bd" x="-46" y="-50" width="1288" height="988" filterUnits="userSpaceOnUse" color-interpolation-filters="sRGB">
<feFlood flood-opacity="0" result="BackgroundImageFix"/>
<feGaussianBlur in="BackgroundImage" stdDeviation="25"/>
<feComposite in2="SourceAlpha" operator="in" result="effect1_backgroundBlur"/>
<feColorMatrix in="SourceAlpha" type="matrix" values="0 0 0 0 0 0 0 0 0 0 0 0 0 0 0 0 0 0 127 0" result="hardAlpha"/>
<feOffset dy="4"/>
<feGaussianBlur stdDeviation="2"/>
<feComposite in2="hardAlpha" operator="out"/>
<feColorMatrix type="matrix" values="0 0 0 0 0 0 0 0 0 0 0 0 0 0 0 0 0 0 0.25 0"/>
<feBlend mode="normal" in2="effect1_backgroundBlur" result="effect2_dropShadow"/>
<feBlend mode="normal" in="SourceGraphic" in2="effect2_dropShadow" result="shape"/>
</filter>
<filter id="filter1_d" x="44" y="237.367" width="408.695" height="442.33" filterUnits="userSpaceOnUse" color-interpolation-filters="sRGB">
<feFlood flood-opacity="0" result="BackgroundImageFix"/>
<feColorMatrix in="SourceAlpha" type="matrix" values="0 0 0 0 0 0 0 0 0 0 0 0 0 0 0 0 0 0 127 0" result="hardAlpha"/>
<feMorphology radius="25" operator="dilate" in="SourceAlpha" result="effect1_dropShadow"/>
<feOffset/>
<feGaussianBlur stdDeviation="21.5"/>
<feComposite in2="hardAlpha" operator="out"/>
<feColorMatrix type="matrix" values="0 0 0 0 0.258824 0 0 0 0 0.258824 0 0 0 0 0.258824 0 0 0 0.75 0"/>
<feBlend mode="normal" in2="BackgroundImageFix" result="effect1_dropShadow"/>
<feBlend mode="normal" in="SourceGraphic" in2="effect1_dropShadow" result="shape"/>
</filter>
<filter id="filter2_d" x="482.334" y="317.5" width="646.924" height="239.941" filterUnits="userSpaceOnUse" color-interpolation-filters="sRGB">
<feFlood flood-opacity="0" result="BackgroundImageFix"/>
<feColorMatrix in="SourceAlpha" type="matrix" values="0 0 0 0 0 0 0 0 0 0 0 0 0 0 0 0 0 0 127 0" result="hardAlpha"/>
<feOffset/>
<feGaussianBlur stdDeviation="12.5"/>
<feComposite in2="hardAlpha" operator="out"/>
<feColorMatrix type="matrix" values="0 0 0 0 0.258824 0 0 0 0 0.258824 0 0 0 0 0.258824 0 0 0 0.75 0"/>
<feBlend mode="normal" in2="BackgroundImageFix" result="effect1_dropShadow"/>
<feBlend mode="normal" in="SourceGraphic" in2="effect1_dropShadow" result="shape"/>
</filter>
<linearGradient id="paint0_linear" x1="197" y1="352" x2="1115" y2="537" gradientUnits="userSpaceOnUse">
<stop stop-color="#F2D478"/>
<stop offset="1" stop-color="#EDC575"/>
</linearGradient>
<clipPath id="clip0">
<rect width="390" height="390" fill="white" transform="translate(53 249)"/>
</clipPath>
</defs>
</svg>
