<svg width="1196" height="896" viewBox="0 0 1196 896" fill="none" xmlns="http://www.w3.org/2000/svg">
<g filter="url(#filter0_bd)">
<rect x="4" width="1188" height="888" rx="100" fill="white" fill-opacity="0.65" shape-rendering="crispEdges"/>
</g>
<path d="M179.618 181.329C176.493 185.772 171.586 189.239 164.896 191.729C158.256 194.22 150.81 195.465 142.558 195.465C134.208 195.465 126.786 193.463 120.292 189.459C113.798 185.455 108.769 179.791 105.204 172.467C101.64 165.143 99.833 156.744 99.7842 147.271V133.795C99.7842 119 103.52 107.33 110.99 98.7852C118.461 90.1914 128.495 85.8945 141.093 85.8945C152.079 85.8945 160.917 88.7021 167.606 94.3174C174.296 99.8838 178.275 107.574 179.545 117.389H170.536C169.218 109.576 166.02 103.668 160.941 99.6641C155.912 95.6113 149.32 93.585 141.166 93.585C131.205 93.585 123.319 97.125 117.509 104.205C111.698 111.285 108.793 121.271 108.793 134.161V146.759C108.793 154.864 110.16 162.042 112.895 168.292C115.678 174.493 119.633 179.303 124.76 182.721C129.936 186.139 135.868 187.848 142.558 187.848C150.321 187.848 156.986 186.627 162.553 184.186C166.166 182.574 168.852 180.694 170.609 178.546V151.007H141.972V143.39H179.618V181.329ZM233.817 195.465C227.079 195.465 220.976 193.805 215.507 190.484C210.087 187.164 205.863 182.55 202.836 176.642C199.809 170.685 198.295 164.02 198.295 156.646V153.497C198.295 145.88 199.76 139.02 202.689 132.916C205.668 126.812 209.794 122.027 215.067 118.561C220.341 115.045 226.054 113.287 232.206 113.287C241.825 113.287 249.442 116.583 255.058 123.175C260.722 129.718 263.554 138.678 263.554 150.055V154.962H207.011V156.646C207.011 165.631 209.574 173.126 214.701 179.132C219.877 185.089 226.371 188.067 234.184 188.067C238.871 188.067 242.997 187.213 246.562 185.504C250.175 183.795 253.446 181.061 256.376 177.301L261.869 181.476C255.424 190.802 246.073 195.465 233.817 195.465ZM232.206 120.758C225.614 120.758 220.048 123.175 215.507 128.009C211.015 132.843 208.28 139.337 207.304 147.491H254.838V146.539C254.594 138.922 252.421 132.721 248.319 127.936C244.218 123.15 238.847 120.758 232.206 120.758ZM294.242 94.4639V114.752H310.648V121.93H294.242V174.737C294.242 179.132 295.023 182.403 296.586 184.552C298.197 186.7 300.858 187.774 304.569 187.774C306.034 187.774 308.402 187.53 311.674 187.042L312.04 194.22C309.745 195.05 306.62 195.465 302.665 195.465C296.659 195.465 292.289 193.731 289.555 190.265C286.82 186.749 285.453 181.598 285.453 174.811V121.93H270.878V114.752H285.453V94.4639H294.242ZM415.312 194C414.433 191.51 413.871 187.823 413.627 182.94C410.551 186.944 406.62 190.045 401.835 192.242C397.099 194.391 392.069 195.465 386.747 195.465C379.13 195.465 372.953 193.341 368.217 189.093C363.529 184.845 361.186 179.474 361.186 172.979C361.186 165.265 364.384 159.161 370.78 154.669C377.226 150.177 386.186 147.931 397.66 147.931H413.554V138.922C413.554 133.258 411.796 128.814 408.28 125.592C404.813 122.32 399.735 120.685 393.046 120.685C386.942 120.685 381.889 122.247 377.885 125.372C373.881 128.497 371.879 132.257 371.879 136.651L363.09 136.578C363.09 130.279 366.02 124.835 371.879 120.245C377.738 115.606 384.94 113.287 393.485 113.287C402.323 113.287 409.281 115.509 414.359 119.952C419.486 124.347 422.123 130.499 422.27 138.409V175.909C422.27 183.575 423.075 189.312 424.687 193.121V194H415.312ZM387.772 187.701C393.632 187.701 398.856 186.285 403.446 183.453C408.085 180.621 411.454 176.837 413.554 172.101V154.669H397.88C389.14 154.767 382.304 156.378 377.372 159.503C372.44 162.579 369.975 166.827 369.975 172.247C369.975 176.69 371.61 180.377 374.882 183.307C378.202 186.236 382.499 187.701 387.772 187.701ZM454.057 114.752L454.35 128.302C457.328 123.419 461.039 119.708 465.482 117.169C469.926 114.581 474.833 113.287 480.204 113.287C488.7 113.287 495.023 115.68 499.174 120.465C503.324 125.25 505.424 132.428 505.473 141.998V194H496.757V141.925C496.708 134.845 495.194 129.571 492.216 126.104C489.286 122.638 484.574 120.904 478.08 120.904C472.66 120.904 467.851 122.613 463.651 126.031C459.501 129.4 456.425 133.966 454.423 139.728V194H445.707V114.752H454.057ZM575.639 173.858C575.639 169.513 573.881 166.021 570.365 163.385C566.898 160.748 561.649 158.697 554.618 157.232C547.587 155.719 542.118 154.01 538.212 152.105C534.354 150.152 531.474 147.784 529.569 145.001C527.714 142.218 526.786 138.849 526.786 134.894C526.786 128.644 529.398 123.492 534.623 119.439C539.848 115.338 546.537 113.287 554.691 113.287C563.529 113.287 570.609 115.484 575.932 119.879C581.303 124.225 583.988 129.913 583.988 136.944H575.199C575.199 132.306 573.246 128.448 569.34 125.372C565.482 122.296 560.6 120.758 554.691 120.758C548.93 120.758 544.291 122.052 540.775 124.64C537.309 127.179 535.575 130.499 535.575 134.601C535.575 138.556 537.016 141.632 539.896 143.829C542.826 145.978 548.124 147.955 555.79 149.762C563.505 151.568 569.267 153.497 573.075 155.548C576.933 157.599 579.789 160.064 581.645 162.945C583.5 165.826 584.428 169.317 584.428 173.419C584.428 180.108 581.718 185.455 576.298 189.459C570.927 193.463 563.896 195.465 555.204 195.465C545.976 195.465 538.48 193.243 532.719 188.8C527.006 184.308 524.149 178.644 524.149 171.808H532.938C533.28 176.935 535.429 180.938 539.384 183.819C543.388 186.651 548.661 188.067 555.204 188.067C561.308 188.067 566.239 186.725 569.999 184.039C573.759 181.354 575.639 177.96 575.639 173.858ZM623.173 175.763L624.491 182.574L626.249 175.396L645.292 114.752H652.763L671.586 174.884L673.637 183.233L675.321 175.543L691.581 114.752H700.663L677.592 194H670.121L649.76 131.158L648.808 126.837L647.855 131.231L627.86 194H620.39L597.392 114.752H606.4L623.173 175.763ZM747.978 195.465C741.239 195.465 735.136 193.805 729.667 190.484C724.247 187.164 720.023 182.55 716.996 176.642C713.969 170.685 712.455 164.02 712.455 156.646V153.497C712.455 145.88 713.92 139.02 716.85 132.916C719.828 126.812 723.954 122.027 729.228 118.561C734.501 115.045 740.214 113.287 746.366 113.287C755.985 113.287 763.603 116.583 769.218 123.175C774.882 129.718 777.714 138.678 777.714 150.055V154.962H721.171V156.646C721.171 165.631 723.734 173.126 728.861 179.132C734.037 185.089 740.531 188.067 748.344 188.067C753.031 188.067 757.157 187.213 760.722 185.504C764.335 183.795 767.606 181.061 770.536 177.301L776.029 181.476C769.584 190.802 760.233 195.465 747.978 195.465ZM746.366 120.758C739.774 120.758 734.208 123.175 729.667 128.009C725.175 132.843 722.44 139.337 721.464 147.491H768.998V146.539C768.754 138.922 766.581 132.721 762.479 127.936C758.378 123.15 753.007 120.758 746.366 120.758ZM831.4 122.223C829.545 121.881 827.567 121.71 825.468 121.71C819.999 121.71 815.36 123.248 811.552 126.324C807.792 129.352 805.106 133.771 803.495 139.581V194H794.779V114.752H803.349L803.495 127.35C808.134 117.975 815.58 113.287 825.834 113.287C828.275 113.287 830.204 113.604 831.62 114.239L831.4 122.223ZM892.777 173.858C892.777 169.513 891.02 166.021 887.504 163.385C884.037 160.748 878.788 158.697 871.757 157.232C864.726 155.719 859.257 154.01 855.351 152.105C851.493 150.152 848.612 147.784 846.708 145.001C844.853 142.218 843.925 138.849 843.925 134.894C843.925 128.644 846.537 123.492 851.762 119.439C856.986 115.338 863.676 113.287 871.83 113.287C880.668 113.287 887.748 115.484 893.07 119.879C898.441 124.225 901.127 129.913 901.127 136.944H892.338C892.338 132.306 890.385 128.448 886.479 125.372C882.621 122.296 877.738 120.758 871.83 120.758C866.068 120.758 861.43 122.052 857.914 124.64C854.447 127.179 852.714 130.499 852.714 134.601C852.714 138.556 854.154 141.632 857.035 143.829C859.965 145.978 865.263 147.955 872.929 149.762C880.644 151.568 886.405 153.497 890.214 155.548C894.071 157.599 896.928 160.064 898.783 162.945C900.639 165.826 901.566 169.317 901.566 173.419C901.566 180.108 898.856 185.455 893.437 189.459C888.065 193.463 881.034 195.465 872.343 195.465C863.114 195.465 855.619 193.243 849.857 188.8C844.145 184.308 841.288 178.644 841.288 171.808H850.077C850.419 176.935 852.567 180.938 856.522 183.819C860.526 186.651 865.8 188.067 872.343 188.067C878.446 188.067 883.378 186.725 887.138 184.039C890.897 181.354 892.777 177.96 892.777 173.858ZM1007.84 194C1006.96 191.51 1006.4 187.823 1006.16 182.94C1003.08 186.944 999.149 190.045 994.364 192.242C989.628 194.391 984.599 195.465 979.276 195.465C971.659 195.465 965.482 193.341 960.746 189.093C956.059 184.845 953.715 179.474 953.715 172.979C953.715 165.265 956.913 159.161 963.31 154.669C969.755 150.177 978.715 147.931 990.189 147.931H1006.08V138.922C1006.08 133.258 1004.33 128.814 1000.81 125.592C997.343 122.32 992.265 120.685 985.575 120.685C979.472 120.685 974.418 122.247 970.414 125.372C966.41 128.497 964.408 132.257 964.408 136.651L955.619 136.578C955.619 130.279 958.549 124.835 964.408 120.245C970.268 115.606 977.47 113.287 986.015 113.287C994.853 113.287 1001.81 115.509 1006.89 119.952C1012.02 124.347 1014.65 130.499 1014.8 138.409V175.909C1014.8 183.575 1015.6 189.312 1017.22 193.121V194H1007.84ZM980.302 187.701C986.161 187.701 991.386 186.285 995.976 183.453C1000.61 180.621 1003.98 176.837 1006.08 172.101V154.669H990.409C981.669 154.767 974.833 156.378 969.901 159.503C964.97 162.579 962.504 166.827 962.504 172.247C962.504 176.69 964.14 180.377 967.411 183.307C970.731 186.236 975.028 187.701 980.302 187.701ZM1085.7 173.858C1085.7 169.513 1083.94 166.021 1080.42 163.385C1076.96 160.748 1071.71 158.697 1064.68 157.232C1057.65 155.719 1052.18 154.01 1048.27 152.105C1044.41 150.152 1041.53 147.784 1039.63 145.001C1037.77 142.218 1036.84 138.849 1036.84 134.894C1036.84 128.644 1039.46 123.492 1044.68 119.439C1049.91 115.338 1056.6 113.287 1064.75 113.287C1073.59 113.287 1080.67 115.484 1085.99 119.879C1091.36 124.225 1094.05 129.913 1094.05 136.944H1085.26C1085.26 132.306 1083.3 128.448 1079.4 125.372C1075.54 122.296 1070.66 120.758 1064.75 120.758C1058.99 120.758 1054.35 122.052 1050.83 124.64C1047.37 127.179 1045.63 130.499 1045.63 134.601C1045.63 138.556 1047.07 141.632 1049.96 143.829C1052.88 145.978 1058.18 147.955 1065.85 149.762C1073.56 151.568 1079.33 153.497 1083.13 155.548C1086.99 157.599 1089.85 160.064 1091.7 162.945C1093.56 165.826 1094.49 169.317 1094.49 173.419C1094.49 180.108 1091.78 185.455 1086.36 189.459C1080.99 193.463 1073.95 195.465 1065.26 195.465C1056.03 195.465 1048.54 193.243 1042.78 188.8C1037.06 184.308 1034.21 178.644 1034.21 171.808H1043C1043.34 176.935 1045.49 180.938 1049.44 183.819C1053.45 186.651 1058.72 188.067 1065.26 188.067C1071.37 188.067 1076.3 186.725 1080.06 184.039C1083.82 181.354 1085.7 177.96 1085.7 173.858Z" fill="black"/>
<g filter="url(#filter1_d)">
<path d="M352.348 404V261.812H394.34C406.905 261.812 418.038 264.612 427.738 270.211C437.504 275.81 445.056 283.753 450.395 294.039C455.733 304.326 458.402 316.109 458.402 329.391V336.52C458.402 349.996 455.701 361.845 450.297 372.066C444.958 382.288 437.309 390.165 427.348 395.699C417.452 401.233 406.091 404 393.266 404H352.348ZM377.055 281.734V384.273H393.168C406.124 384.273 416.052 380.237 422.953 372.164C429.919 364.026 433.467 352.372 433.598 337.203V329.293C433.598 313.863 430.245 302.079 423.539 293.941C416.833 285.803 407.1 281.734 394.34 281.734H377.055ZM543.852 404C542.81 401.982 541.898 398.694 541.117 394.137C533.565 402.014 524.32 405.953 513.383 405.953C502.771 405.953 494.112 402.926 487.406 396.871C480.701 390.816 477.348 383.329 477.348 374.41C477.348 363.147 481.514 354.521 489.848 348.531C498.246 342.477 510.225 339.449 525.785 339.449H540.336V332.516C540.336 327.047 538.806 322.685 535.746 319.43C532.686 316.109 528.031 314.449 521.781 314.449C516.378 314.449 511.951 315.816 508.5 318.551C505.049 321.22 503.324 324.638 503.324 328.805H479.594C479.594 323.01 481.514 317.607 485.355 312.594C489.197 307.516 494.405 303.544 500.98 300.68C507.621 297.815 515.01 296.383 523.148 296.383C535.518 296.383 545.382 299.508 552.738 305.758C560.095 311.943 563.871 320.667 564.066 331.93V379.586C564.066 389.091 565.401 396.676 568.07 402.34V404H543.852ZM517.777 386.91C522.465 386.91 526.859 385.771 530.961 383.492C535.128 381.214 538.253 378.154 540.336 374.312V354.391H527.543C518.754 354.391 512.146 355.921 507.719 358.98C503.292 362.04 501.078 366.37 501.078 371.969C501.078 376.526 502.576 380.172 505.57 382.906C508.63 385.576 512.699 386.91 517.777 386.91ZM618.656 272.652V298.336H637.309V315.914H618.656V374.898C618.656 378.935 619.438 381.865 621 383.688C622.628 385.445 625.492 386.324 629.594 386.324C632.328 386.324 635.095 385.999 637.895 385.348V403.707C632.491 405.204 627.283 405.953 622.27 405.953C604.04 405.953 594.926 395.895 594.926 375.777V315.914H577.543V298.336H594.926V272.652H618.656ZM702.055 405.953C687.016 405.953 674.809 401.233 665.434 391.793C656.124 382.288 651.469 369.658 651.469 353.902V350.973C651.469 340.426 653.487 331.018 657.523 322.75C661.625 314.417 667.354 307.939 674.711 303.316C682.068 298.694 690.271 296.383 699.32 296.383C713.708 296.383 724.809 300.973 732.621 310.152C740.499 319.332 744.438 332.32 744.438 349.117V358.688H675.395C676.111 367.411 679.008 374.312 684.086 379.391C689.229 384.469 695.674 387.008 703.422 387.008C714.294 387.008 723.148 382.613 729.984 373.824L742.777 386.031C738.546 392.346 732.882 397.262 725.785 400.777C718.754 404.228 710.844 405.953 702.055 405.953ZM699.223 315.426C692.712 315.426 687.439 317.704 683.402 322.262C679.431 326.819 676.892 333.167 675.785 341.305H721V339.547C720.479 331.604 718.363 325.615 714.652 321.578C710.941 317.477 705.798 315.426 699.223 315.426ZM822.172 375.289C822.172 371.057 820.414 367.835 816.898 365.621C813.448 363.408 807.686 361.454 799.613 359.762C791.54 358.069 784.802 355.921 779.398 353.316C767.549 347.587 761.625 339.286 761.625 328.414C761.625 319.299 765.466 311.682 773.148 305.562C780.831 299.443 790.596 296.383 802.445 296.383C815.076 296.383 825.264 299.508 833.012 305.758C840.824 312.008 844.73 320.113 844.73 330.074H821C821 325.517 819.307 321.741 815.922 318.746C812.536 315.686 808.044 314.156 802.445 314.156C797.237 314.156 792.973 315.361 789.652 317.77C786.397 320.178 784.77 323.401 784.77 327.438C784.77 331.083 786.299 333.915 789.359 335.934C792.419 337.952 798.604 340.003 807.914 342.086C817.224 344.104 824.516 346.546 829.789 349.41C835.128 352.21 839.066 355.595 841.605 359.566C844.21 363.538 845.512 368.355 845.512 374.02C845.512 383.525 841.573 391.24 833.695 397.164C825.818 403.023 815.499 405.953 802.738 405.953C794.079 405.953 786.365 404.391 779.594 401.266C772.823 398.141 767.549 393.844 763.773 388.375C759.997 382.906 758.109 377.014 758.109 370.699H781.156C781.482 376.298 783.598 380.628 787.504 383.688C791.41 386.682 796.586 388.18 803.031 388.18C809.281 388.18 814.034 387.008 817.289 384.664C820.544 382.255 822.172 379.13 822.172 375.289Z" fill="#F27878"/>
</g>
<g filter="url(#filter2_d)">
<path d="M434.477 457.734H390.141V580H365.629V457.734H321.684V437.812H434.477V457.734ZM476.176 580H452.445V474.336H476.176V580ZM450.98 446.895C450.98 443.249 452.12 440.221 454.398 437.812C456.742 435.404 460.062 434.199 464.359 434.199C468.656 434.199 471.977 435.404 474.32 437.812C476.664 440.221 477.836 443.249 477.836 446.895C477.836 450.475 476.664 453.47 474.32 455.879C471.977 458.223 468.656 459.395 464.359 459.395C460.062 459.395 456.742 458.223 454.398 455.879C452.12 453.47 450.98 450.475 450.98 446.895ZM524.418 474.336L525.102 485.371C532.523 476.712 542.68 472.383 555.57 472.383C569.698 472.383 579.366 477.786 584.574 488.594C592.257 477.786 603.064 472.383 616.996 472.383C628.65 472.383 637.309 475.605 642.973 482.051C648.702 488.496 651.632 498.001 651.762 510.566V580H628.031V511.25C628.031 504.544 626.566 499.629 623.637 496.504C620.707 493.379 615.857 491.816 609.086 491.816C603.682 491.816 599.255 493.281 595.805 496.211C592.419 499.076 590.043 502.852 588.676 507.539L588.773 580H565.043V510.469C564.717 498.034 558.37 491.816 546 491.816C536.495 491.816 529.757 495.69 525.785 503.438V580H502.055V474.336H524.418ZM722.66 581.953C707.621 581.953 695.414 577.233 686.039 567.793C676.729 558.288 672.074 545.658 672.074 529.902V526.973C672.074 516.426 674.092 507.018 678.129 498.75C682.23 490.417 687.96 483.939 695.316 479.316C702.673 474.694 710.876 472.383 719.926 472.383C734.314 472.383 745.414 476.973 753.227 486.152C761.104 495.332 765.043 508.32 765.043 525.117V534.688H696C696.716 543.411 699.613 550.312 704.691 555.391C709.835 560.469 716.28 563.008 724.027 563.008C734.9 563.008 743.754 558.613 750.59 549.824L763.383 562.031C759.151 568.346 753.487 573.262 746.391 576.777C739.359 580.228 731.449 581.953 722.66 581.953ZM719.828 491.426C713.318 491.426 708.044 493.704 704.008 498.262C700.036 502.819 697.497 509.167 696.391 517.305H741.605V515.547C741.085 507.604 738.969 501.615 735.258 497.578C731.547 493.477 726.404 491.426 719.828 491.426ZM842.777 551.289C842.777 547.057 841.02 543.835 837.504 541.621C834.053 539.408 828.292 537.454 820.219 535.762C812.146 534.069 805.408 531.921 800.004 529.316C788.155 523.587 782.23 515.286 782.23 504.414C782.23 495.299 786.072 487.682 793.754 481.562C801.436 475.443 811.202 472.383 823.051 472.383C835.681 472.383 845.87 475.508 853.617 481.758C861.43 488.008 865.336 496.113 865.336 506.074H841.605C841.605 501.517 839.913 497.741 836.527 494.746C833.142 491.686 828.65 490.156 823.051 490.156C817.842 490.156 813.578 491.361 810.258 493.77C807.003 496.178 805.375 499.401 805.375 503.438C805.375 507.083 806.905 509.915 809.965 511.934C813.025 513.952 819.21 516.003 828.52 518.086C837.829 520.104 845.121 522.546 850.395 525.41C855.733 528.21 859.672 531.595 862.211 535.566C864.815 539.538 866.117 544.355 866.117 550.02C866.117 559.525 862.178 567.24 854.301 573.164C846.423 579.023 836.104 581.953 823.344 581.953C814.685 581.953 806.97 580.391 800.199 577.266C793.428 574.141 788.155 569.844 784.379 564.375C780.603 558.906 778.715 553.014 778.715 546.699H801.762C802.087 552.298 804.203 556.628 808.109 559.688C812.016 562.682 817.191 564.18 823.637 564.18C829.887 564.18 834.639 563.008 837.895 560.664C841.15 558.255 842.777 555.13 842.777 551.289Z" fill="#F27878" fill-opacity="0.5" shape-rendering="crispEdges"/>
</g>
<path fill-rule="evenodd" clip-rule="evenodd" d="M421.771 695.094H479.617V675.154H421.771V632.412H488.107V612.274H396.797V756.001H421.771V695.094ZM507.158 756.001H531.146V649.193H507.158V756.001ZM509.133 612.274C506.829 614.709 505.678 617.769 505.678 621.454C505.678 625.074 506.829 628.101 509.133 630.536C511.502 632.905 514.858 634.09 519.201 634.09C523.545 634.09 526.901 632.905 529.27 630.536C531.639 628.101 532.824 625.074 532.824 621.454C532.824 617.769 531.639 614.709 529.27 612.274C526.901 609.839 523.545 608.622 519.201 608.622C514.858 608.622 511.502 609.839 509.133 612.274ZM558.884 756.001H582.871V604.377H558.884V756.001ZM619.099 743.661C628.576 753.204 640.915 757.975 656.117 757.975C665.001 757.975 672.997 756.231 680.104 752.743C687.277 749.189 693.002 744.221 697.28 737.837L684.349 725.498C677.439 734.382 668.489 738.824 657.499 738.824C649.667 738.824 643.152 736.258 637.953 731.125C632.82 725.992 629.892 719.016 629.168 710.198H698.958V700.524C698.958 683.545 694.977 670.416 687.014 661.137C679.117 651.858 667.896 647.219 653.353 647.219C644.205 647.219 635.913 649.555 628.477 654.227C621.04 658.9 615.249 665.448 611.103 673.871C607.023 682.229 604.983 691.738 604.983 702.399V705.361C604.983 721.286 609.688 734.053 619.099 743.661ZM637.262 673.378C641.342 668.771 646.673 666.468 653.254 666.468C659.901 666.468 665.099 668.541 668.851 672.687C672.602 676.767 674.74 682.821 675.267 690.85V692.627H629.563C630.681 684.4 633.248 677.984 637.262 673.378ZM772.203 717.206C775.757 719.444 777.534 722.701 777.534 726.979C777.534 730.862 775.889 734.02 772.598 736.455C769.308 738.824 764.504 740.009 758.186 740.009C751.671 740.009 746.439 738.495 742.491 735.468C738.542 732.375 736.403 727.999 736.074 722.339H712.778C712.778 728.723 714.686 734.678 718.503 740.206C722.32 745.734 727.651 750.078 734.495 753.237C741.339 756.395 749.137 757.975 757.89 757.975C770.788 757.975 781.219 755.013 789.182 749.091C797.145 743.102 801.126 735.304 801.126 725.696C801.126 719.97 799.81 715.1 797.178 711.086C794.611 707.072 790.63 703.65 785.233 700.82C779.903 697.924 772.532 695.456 763.122 693.416C753.711 691.31 747.459 689.237 744.366 687.197C741.273 685.157 739.727 682.295 739.727 678.609C739.727 674.529 741.372 671.272 744.662 668.837C748.019 666.402 752.329 665.184 757.594 665.184C763.253 665.184 767.794 666.731 771.216 669.824C774.638 672.851 776.349 676.668 776.349 681.275H800.337C800.337 671.206 796.388 663.013 788.491 656.695C780.66 650.377 770.361 647.219 757.594 647.219C745.617 647.219 735.745 650.312 727.98 656.498C720.214 662.684 716.332 670.383 716.332 679.596C716.332 690.587 722.32 698.977 734.297 704.768C739.76 707.401 746.571 709.572 754.731 711.283C762.891 712.994 768.715 714.969 772.203 717.206Z" fill="#F27878" fill-opacity="0.25"/>
<path fill-rule="evenodd" clip-rule="evenodd" d="M220.693 886H195.719V785.274H220.693L283.927 886H257.743L220.693 827.03V886ZM473.202 886H449.214V822.193H471.82L472.511 833.347C480.013 824.595 490.279 820.219 503.309 820.219C517.59 820.219 527.362 825.681 532.627 836.605C540.393 825.681 551.317 820.219 565.4 820.219C577.18 820.219 585.932 823.476 591.658 829.991C597.449 836.506 600.41 846.114 600.542 858.815V886H576.554V859.506C576.554 852.728 575.074 847.759 572.112 844.601C569.151 841.442 564.248 839.862 557.404 839.862C551.942 839.862 547.467 841.343 543.979 844.305C540.557 847.2 538.155 851.017 536.773 855.755L536.814 886H512.884V858.717C512.555 846.147 506.139 839.862 493.635 839.862C484.027 839.862 477.216 843.778 473.202 851.609V886ZM718.475 886C718.758 883.023 718.899 879.917 718.899 876.682V875.3C718.899 857.927 715.181 844.403 707.744 834.729C700.308 825.055 690.075 820.219 677.045 820.219C665.331 820.219 656.019 824.299 649.109 832.459V777.377H625.121V886H649.109V853.485C653.32 844.403 660.625 839.862 671.023 839.862C678.789 839.862 684.711 842.758 688.791 848.549C692.872 854.34 694.912 863.027 694.912 874.61V877.67C694.877 880.644 694.706 883.421 694.399 886H718.475ZM759.487 886H735.375C735.118 883.54 734.989 880.994 734.989 878.361V875.399C734.989 864.738 737.029 855.229 741.109 846.871C745.255 838.448 751.047 831.9 758.483 827.227C765.919 822.555 774.211 820.219 783.359 820.219C797.902 820.219 809.123 824.858 817.02 834.137C824.983 843.416 828.964 856.545 828.964 873.524V883.198H759.174C759.252 884.154 759.357 885.088 759.487 886ZM871.608 886H847.621V822.193H870.523L871.115 834.137C876.906 824.858 884.935 820.219 895.201 820.219C898.623 820.219 901.453 820.679 903.69 821.6L903.591 844.107C900.433 843.581 897.175 843.317 893.819 843.317C882.829 843.317 875.425 847.529 871.608 855.953V886ZM999.38 886H962.904C960.777 885.401 958.413 884.829 955.811 884.283C947.651 882.572 940.839 880.401 935.377 877.768C923.4 871.977 917.411 863.587 917.411 852.596C917.411 843.383 921.294 835.684 929.06 829.498C936.825 823.312 946.696 820.219 958.673 820.219C971.44 820.219 981.739 823.377 989.571 829.695C997.468 836.013 1001.42 844.206 1001.42 854.275H977.429C977.429 849.668 975.718 845.851 972.296 842.824C968.874 839.731 964.333 838.184 958.673 838.184C953.409 838.184 949.098 839.402 945.742 841.837C942.452 844.272 940.806 847.529 940.806 851.609C940.806 855.295 942.353 858.157 945.446 860.197C948.539 862.237 954.791 864.31 964.201 866.416C973.612 868.456 980.983 870.924 986.313 873.82C991.71 876.65 995.691 880.072 998.258 884.086C998.663 884.704 999.037 885.342 999.38 886ZM424.832 886H400.845V822.193H424.832V886ZM360.372 886H336.385V822.193H360.372V886ZM309.733 886H284.956V785.274H309.733V886ZM767.268 846.378C771.349 841.771 776.679 839.468 783.26 839.468C789.907 839.468 795.106 841.541 798.857 845.687C802.608 849.767 804.747 855.821 805.273 863.85V865.627H759.569C760.688 857.4 763.254 850.984 767.268 846.378Z" fill="#F27878" fill-opacity="0.1"/>
<defs>
<filter id="filter0_bd" x="-46" y="-50" width="1288" height="988" filterUnits="userSpaceOnUse" color-interpolation-filters="sRGB">
<feFlood flood-opacity="0" result="BackgroundImageFix"/>
<feGaussianBlur in="BackgroundImage" stdDeviation="25"/>
<feComposite in2="SourceAlpha" operator="in" result="effect1_backgroundBlur"/>
<feColorMatrix in="SourceAlpha" type="matrix" values="0 0 0 0 0 0 0 0 0 0 0 0 0 0 0 0 0 0 127 0" result="hardAlpha"/>
<feOffset dy="4"/>
<feGaussianBlur stdDeviation="2"/>
<feComposite in2="hardAlpha" operator="out"/>
<feColorMatrix type="matrix" values="0 0 0 0 0 0 0 0 0 0 0 0 0 0 0 0 0 0 0.25 0"/>
<feBlend mode="normal" in2="effect1_backgroundBlur" result="effect2_dropShadow"/>
<feBlend mode="normal" in="SourceGraphic" in2="effect2_dropShadow" result="shape"/>
</filter>
<filter id="filter1_d" x="327.348" y="236.812" width="543.164" height="194.141" filterUnits="userSpaceOnUse" color-interpolation-filters="sRGB">
<feFlood flood-opacity="0" result="BackgroundImageFix"/>
<feColorMatrix in="SourceAlpha" type="matrix" values="0 0 0 0 0 0 0 0 0 0 0 0 0 0 0 0 0 0 127 0" result="hardAlpha"/>
<feOffset/>
<feGaussianBlur stdDeviation="12.5"/>
<feComposite in2="hardAlpha" operator="out"/>
<feColorMatrix type="matrix" values="0 0 0 0 0.258824 0 0 0 0 0.258824 0 0 0 0 0.258824 0 0 0 0.75 0"/>
<feBlend mode="normal" in2="BackgroundImageFix" result="effect1_dropShadow"/>
<feBlend mode="normal" in="SourceGraphic" in2="effect1_dropShadow" result="shape"/>
</filter>
<filter id="filter2_d" x="296.684" y="409.199" width="594.434" height="197.754" filterUnits="userSpaceOnUse" color-interpolation-filters="sRGB">
<feFlood flood-opacity="0" result="BackgroundImageFix"/>
<feColorMatrix in="SourceAlpha" type="matrix" values="0 0 0 0 0 0 0 0 0 0 0 0 0 0 0 0 0 0 127 0" result="hardAlpha"/>
<feOffset/>
<feGaussianBlur stdDeviation="12.5"/>
<feComposite in2="hardAlpha" operator="out"/>
<feColorMatrix type="matrix" values="0 0 0 0 0.258824 0 0 0 0 0.258824 0 0 0 0 0.258824 0 0 0 0.75 0"/>
<feBlend mode="normal" in2="BackgroundImageFix" result="effect1_dropShadow"/>
<feBlend mode="normal" in="SourceGraphic" in2="effect1_dropShadow" result="shape"/>
</filter>
</defs>
</svg>
